<svg xmlns="http://www.w3.org/2000/svg" xmlns:xlink="http://www.w3.org/1999/xlink" width="120" zoomAndPan="magnify" viewBox="0 0 90 89.999999" height="120" preserveAspectRatio="xMidYMid meet" version="1.2"><defs><clipPath id="01df35470e"><path d="M 41 66 L 49 66 L 49 76.875 L 41 76.875 Z M 41 66 "/></clipPath><clipPath id="19f5461e81"><path d="M 13.125 40 L 24 40 L 24 52 L 13.125 52 Z M 13.125 40 "/></clipPath><clipPath id="5be7dea2cf"><path d="M 40 13.125 L 49 13.125 L 49 24 L 40 24 Z M 40 13.125 "/></clipPath><clipPath id="917c87f584"><path d="M 72 39.859375 L 76.863281 39.859375 L 76.863281 50.140625 L 72 50.140625 Z M 72 39.859375 "/></clipPath></defs><g id="e4d1dcd1e9"><path style=" stroke:none;fill-rule:nonzero;fill:#052a47;fill-opacity:1;" d="M 45 90 C 20.25 90 0 69.75 0 45 C 0 20.25 20.25 0 45 0 C 69.75 0 90 20.25 90 45 C 90 69.75 69.75 90 45 90 Z M 45 90 "/><g clip-rule="nonzero" clip-path="url(#01df35470e)"><path style=" stroke:none;fill-rule:nonzero;fill:#ffffff;fill-opacity:1;" d="M 44.992188 68.648438 C 45.558594 68.648438 46.019531 69.109375 46.019531 69.675781 L 48.078125 69.675781 C 48.078125 67.972656 46.695312 66.59375 44.992188 66.59375 C 43.292969 66.59375 41.90625 67.972656 41.90625 69.675781 C 41.90625 71.378906 43.292969 72.761719 44.992188 72.761719 C 45.558594 72.761719 46.019531 73.222656 46.019531 73.789062 C 46.019531 74.355469 45.558594 74.820312 44.992188 74.820312 C 44.425781 74.820312 43.964844 74.355469 43.964844 73.789062 L 41.90625 73.789062 C 41.90625 75.492188 43.292969 76.875 44.992188 76.875 C 46.695312 76.875 48.078125 75.492188 48.078125 73.789062 C 48.078125 72.085938 46.695312 70.707031 44.992188 70.707031 C 44.425781 70.707031 43.964844 70.242188 43.964844 69.675781 C 43.964844 69.109375 44.425781 68.648438 44.992188 68.648438 "/></g><g clip-rule="nonzero" clip-path="url(#19f5461e81)"><path style=" stroke:none;fill-rule:nonzero;fill:#ffffff;fill-opacity:1;" d="M 18.039062 46.207031 C 18.082031 46 18.4375 46 18.484375 46.207031 L 19.476562 51.167969 L 22.261719 51.167969 L 23.394531 41 L 21.351562 40.773438 L 20.6875 46.75 L 20.5 45.808594 C 20.285156 44.742188 19.34375 43.972656 18.257812 43.972656 C 17.171875 43.972656 16.234375 44.742188 16.019531 45.808594 L 15.832031 46.75 L 15.167969 40.773438 L 13.125 41 L 14.253906 51.167969 L 17.046875 51.167969 L 18.039062 46.207031 "/></g><g clip-rule="nonzero" clip-path="url(#5be7dea2cf)"><path style=" stroke:none;fill-rule:nonzero;fill:#ffffff;fill-opacity:1;" d="M 42.933594 17.082031 L 45.308594 23.40625 L 48.078125 23.40625 L 48.078125 13.125 L 46.019531 13.125 L 46.019531 19.449219 L 43.652344 13.125 L 40.878906 13.125 L 40.878906 23.40625 L 42.933594 23.40625 L 42.933594 17.082031 "/></g><g clip-rule="nonzero" clip-path="url(#917c87f584)"><path style=" stroke:none;fill-rule:nonzero;fill:#ffffff;fill-opacity:1;" d="M 76.867188 41.914062 L 76.867188 39.859375 L 72.753906 39.859375 L 72.753906 50.140625 L 76.867188 50.140625 L 76.867188 48.085938 L 74.808594 48.085938 L 74.808594 46.027344 L 76.867188 46.027344 L 76.867188 43.972656 L 74.808594 43.972656 L 74.808594 41.914062 L 76.867188 41.914062 "/></g><path style=" stroke:none;fill-rule:nonzero;fill:#ffffff;fill-opacity:1;" d="M 71.882812 51.9375 C 70.714844 56.488281 68.425781 60.566406 65.335938 63.890625 L 62.40625 60.960938 C 64.625 58.550781 66.359375 55.6875 67.421875 52.519531 L 65.472656 51.867188 C 63.121094 58.871094 57.203125 64.292969 50.023438 66.003906 L 50.5 68.007812 C 54.4375 67.0625 58.035156 65.105469 60.960938 62.421875 L 63.882812 65.34375 C 60.070312 68.886719 55.269531 71.359375 49.964844 72.320312 L 50.328125 74.339844 C 61.742188 72.28125 70.984375 63.683594 73.875 52.449219 L 71.882812 51.9375 "/><path style=" stroke:none;fill-rule:nonzero;fill:#ffffff;fill-opacity:1;" d="M 17.855469 39.121094 C 18.925781 34.160156 21.332031 29.699219 24.65625 26.117188 L 27.574219 29.035156 C 25.09375 31.738281 23.222656 35.011719 22.214844 38.625 L 24.195312 39.179688 C 26.210938 31.957031 31.945312 26.21875 39.167969 24.203125 L 38.617188 22.222656 C 35 23.230469 31.730469 25.101562 29.03125 27.582031 L 26.109375 24.664062 C 29.691406 21.335938 34.148438 18.933594 39.113281 17.859375 L 38.675781 15.851562 C 27.265625 18.3125 18.300781 27.277344 15.84375 38.691406 L 17.855469 39.121094 "/><path style=" stroke:none;fill-rule:nonzero;fill:#ffffff;fill-opacity:1;" d="M 50.449219 21.980469 L 49.976562 23.984375 C 57.144531 25.679688 63.074219 31.070312 65.449219 38.054688 L 67.390625 37.398438 C 66.328125 34.261719 64.605469 31.429688 62.40625 29.039062 L 65.335938 26.109375 C 68.425781 29.433594 70.714844 33.515625 71.882812 38.058594 L 73.875 37.550781 C 70.992188 26.339844 61.777344 17.753906 50.398438 15.671875 L 50.027344 17.691406 C 55.304688 18.660156 60.082031 21.128906 63.882812 24.660156 L 60.960938 27.582031 C 58.015625 24.882812 54.40625 22.917969 50.449219 21.980469 "/><path style=" stroke:none;fill-rule:nonzero;fill:#ffffff;fill-opacity:1;" d="M 39.761719 68.070312 L 40.214844 66.0625 C 33.222656 64.484375 27.488281 59.542969 24.875 52.851562 L 22.957031 53.597656 C 24.039062 56.367188 25.609375 58.859375 27.550781 60.984375 L 24.675781 63.863281 C 21.808594 60.785156 19.613281 57.066406 18.382812 52.933594 L 16.410156 53.519531 C 19.589844 64.203125 28.730469 72.378906 39.691406 74.347656 L 40.054688 72.324219 C 34.777344 71.375 29.964844 68.878906 26.128906 65.316406 L 29.015625 62.4375 C 32.003906 65.175781 35.6875 67.148438 39.761719 68.070312 "/><path style=" stroke:none;fill-rule:nonzero;fill:#ffffff;fill-opacity:1;" d="M 66.886719 68.347656 L 73.054688 74.515625 L 74.507812 73.0625 L 68.339844 66.894531 L 66.886719 68.347656 "/><path style=" stroke:none;fill-rule:nonzero;fill:#ffffff;fill-opacity:1;" d="M 74.507812 16.9375 L 73.054688 15.484375 L 66.886719 21.652344 L 68.339844 23.105469 L 74.507812 16.9375 "/><path style=" stroke:none;fill-rule:nonzero;fill:#ffffff;fill-opacity:1;" d="M 23.097656 21.652344 L 16.929688 15.484375 L 15.476562 16.9375 L 21.644531 23.105469 L 23.097656 21.652344 "/><path style=" stroke:none;fill-rule:nonzero;fill:#ffffff;fill-opacity:1;" d="M 15.476562 73.0625 L 16.929688 74.515625 L 23.097656 68.347656 L 21.644531 66.894531 L 15.476562 73.0625 "/><path style=" stroke:none;fill-rule:nonzero;fill:#ffffff;fill-opacity:1;" d="M 45.273438 62.257812 L 47.355469 53.9375 C 46.597656 54.136719 45.8125 54.253906 44.992188 54.253906 C 44.175781 54.253906 43.390625 54.136719 42.632812 53.9375 L 44.714844 62.257812 C 44.777344 62.519531 45.207031 62.519531 45.273438 62.257812 "/><path style=" stroke:none;fill-rule:nonzero;fill:#ffffff;fill-opacity:1;" d="M 41.886719 50.140625 L 39.96875 50.140625 C 40.734375 50.890625 41.671875 51.46875 42.710938 51.820312 C 42.429688 51.335938 42.148438 50.777344 41.886719 50.140625 "/><path style=" stroke:none;fill-rule:nonzero;fill:#ffffff;fill-opacity:1;" d="M 49.070312 43.972656 L 52.109375 43.972656 C 52.003906 43.246094 51.792969 42.554688 51.488281 41.914062 L 48.75 41.914062 C 48.898438 42.558594 49.011719 43.242188 49.070312 43.972656 "/><path style=" stroke:none;fill-rule:nonzero;fill:#ffffff;fill-opacity:1;" d="M 42.710938 38.179688 C 41.671875 38.53125 40.734375 39.109375 39.96875 39.859375 L 41.886719 39.859375 C 42.148438 39.222656 42.429688 38.664062 42.710938 38.179688 "/><path style=" stroke:none;fill-rule:nonzero;fill:#ffffff;fill-opacity:1;" d="M 52.316406 39.363281 L 54.003906 35.988281 L 50.628906 37.679688 C 51.261719 38.164062 51.828125 38.730469 52.316406 39.363281 "/><path style=" stroke:none;fill-rule:nonzero;fill:#ffffff;fill-opacity:1;" d="M 37.667969 50.636719 L 35.984375 54.011719 L 39.355469 52.320312 C 38.726562 51.835938 38.160156 51.269531 37.667969 50.636719 "/><path style=" stroke:none;fill-rule:nonzero;fill:#ffffff;fill-opacity:1;" d="M 41.238281 41.914062 L 38.5 41.914062 C 38.195312 42.554688 37.984375 43.246094 37.878906 43.972656 L 40.917969 43.972656 C 40.976562 43.242188 41.089844 42.558594 41.238281 41.914062 "/><path style=" stroke:none;fill-rule:nonzero;fill:#ffffff;fill-opacity:1;" d="M 27.734375 44.71875 C 27.605469 44.75 27.511719 44.867188 27.511719 45 C 27.511719 45.132812 27.605469 45.25 27.734375 45.28125 L 36.054688 47.363281 C 35.855469 46.605469 35.738281 45.816406 35.738281 45 C 35.738281 44.183594 35.855469 43.394531 36.054688 42.636719 L 27.734375 44.71875 "/><path style=" stroke:none;fill-rule:nonzero;fill:#ffffff;fill-opacity:1;" d="M 40.917969 46.027344 L 37.878906 46.027344 C 37.984375 46.753906 38.195312 47.445312 38.5 48.085938 L 41.238281 48.085938 C 41.089844 47.441406 40.976562 46.757812 40.917969 46.027344 "/><path style=" stroke:none;fill-rule:nonzero;fill:#ffffff;fill-opacity:1;" d="M 48.101562 39.859375 L 50.019531 39.859375 C 49.253906 39.109375 48.316406 38.53125 47.277344 38.179688 C 47.554688 38.664062 47.839844 39.222656 48.101562 39.859375 "/><path style=" stroke:none;fill-rule:nonzero;fill:#ffffff;fill-opacity:1;" d="M 48.101562 50.140625 C 47.839844 50.777344 47.554688 51.335938 47.277344 51.820312 C 48.316406 51.46875 49.253906 50.890625 50.019531 50.140625 L 48.101562 50.140625 "/><path style=" stroke:none;fill-rule:nonzero;fill:#ffffff;fill-opacity:1;" d="M 52.316406 50.636719 C 51.828125 51.269531 51.261719 51.835938 50.628906 52.320312 L 54.003906 54.011719 L 52.316406 50.636719 "/><path style=" stroke:none;fill-rule:nonzero;fill:#ffffff;fill-opacity:1;" d="M 44.714844 27.742188 L 42.632812 36.0625 C 43.390625 35.863281 44.175781 35.746094 44.992188 35.746094 C 45.8125 35.746094 46.597656 35.863281 47.355469 36.0625 L 45.273438 27.742188 C 45.207031 27.480469 44.777344 27.480469 44.714844 27.742188 "/><path style=" stroke:none;fill-rule:nonzero;fill:#ffffff;fill-opacity:1;" d="M 62.472656 45 C 62.472656 44.867188 62.382812 44.75 62.253906 44.71875 L 53.929688 42.636719 C 54.128906 43.394531 54.246094 44.183594 54.246094 45 C 54.246094 45.816406 54.128906 46.605469 53.929688 47.363281 L 62.253906 45.28125 C 62.382812 45.25 62.472656 45.132812 62.472656 45 "/><path style=" stroke:none;fill-rule:nonzero;fill:#ffffff;fill-opacity:1;" d="M 37.667969 39.363281 C 38.160156 38.730469 38.726562 38.164062 39.355469 37.679688 L 35.984375 35.988281 L 37.667969 39.363281 "/><path style=" stroke:none;fill-rule:nonzero;fill:#ffffff;fill-opacity:1;" d="M 52.109375 46.027344 L 49.070312 46.027344 C 49.011719 46.757812 48.898438 47.441406 48.75 48.085938 L 51.488281 48.085938 C 51.792969 47.445312 52.003906 46.753906 52.109375 46.027344 "/><path style=" stroke:none;fill-rule:nonzero;fill:#ffffff;fill-opacity:1;" d="M 44.152344 39.859375 L 45.835938 39.859375 C 45.546875 39.28125 45.253906 38.796875 44.992188 38.425781 C 44.734375 38.796875 44.441406 39.28125 44.152344 39.859375 "/><path style=" stroke:none;fill-rule:nonzero;fill:#ffffff;fill-opacity:1;" d="M 42.988281 43.972656 L 47 43.972656 C 46.933594 43.234375 46.804688 42.542969 46.625 41.914062 L 43.359375 41.914062 C 43.183594 42.542969 43.054688 43.234375 42.988281 43.972656 "/><path style=" stroke:none;fill-rule:nonzero;fill:#ffffff;fill-opacity:1;" d="M 45.835938 50.140625 L 44.152344 50.140625 C 44.441406 50.71875 44.734375 51.203125 44.992188 51.574219 C 45.253906 51.203125 45.546875 50.722656 45.835938 50.140625 "/><path style=" stroke:none;fill-rule:nonzero;fill:#ffffff;fill-opacity:1;" d="M 46.625 48.085938 C 46.804688 47.457031 46.933594 46.765625 47 46.027344 L 42.988281 46.027344 C 43.054688 46.765625 43.183594 47.457031 43.359375 48.085938 L 46.625 48.085938 "/></g></svg>