<svg xmlns="http://www.w3.org/2000/svg" xmlns:xlink="http://www.w3.org/1999/xlink" width="120" zoomAndPan="magnify" viewBox="0 0 90 89.999999" height="120" preserveAspectRatio="xMidYMid meet" version="1.2"><defs><clipPath id="c0c9be5c5d"><path d="M 14 13.417969 L 76 13.417969 L 76 76 L 14 76 Z M 14 13.417969 "/></clipPath></defs><g id="f84e8147ce"><path style=" stroke:none;fill-rule:nonzero;fill:#052a47;fill-opacity:1;" d="M 45 90 C 20.25 90 0 69.75 0 45 C 0 20.25 20.25 0 45 0 C 69.75 0 90 20.25 90 45 C 90 69.75 69.75 90 45 90 Z M 45 90 "/><g clip-rule="nonzero" clip-path="url(#c0c9be5c5d)"><path style=" stroke:none;fill-rule:evenodd;fill:#ffffff;fill-opacity:1;" d="M 44.4375 56.445312 C 46.550781 56.449219 48.265625 58.140625 48.265625 60.226562 C 48.265625 62.320312 46.550781 64.011719 44.4375 64.011719 C 42.324219 64.011719 40.601562 62.320312 40.601562 60.226562 C 40.601562 58.140625 42.324219 56.445312 44.4375 56.445312 Z M 45.578125 24.402344 C 53.960938 24.539062 61.035156 33.714844 55.320312 41.761719 C 53.953125 43.558594 52.226562 44.089844 50.753906 44.898438 C 48.070312 46.375 47.300781 46 47.300781 49.335938 C 47.300781 53.277344 41.441406 53.246094 41.261719 49.335938 L 41.152344 46.953125 C 41.046875 44.6875 42.652344 42.804688 44.035156 41.832031 C 46.066406 40.398438 47.238281 40.472656 48.992188 38.261719 C 53.097656 33.082031 45.597656 27.8125 39.824219 31.808594 C 38.34375 32.832031 37.453125 34.238281 37.453125 36.925781 C 37.558594 40.867188 31.597656 40.867188 31.699219 36.925781 C 31.699219 32.644531 33.675781 29.1875 36.421875 27.171875 C 39.164062 25.160156 42.476562 24.402344 45.578125 24.402344 Z M 45.109375 13.46875 C 42.007812 13.398438 38.992188 13.785156 36.136719 14.570312 C 24.707031 17.699219 15.835938 27.195312 14.460938 38.632812 C 13.082031 50.070312 16.019531 58.316406 21.546875 64.425781 L 18.886719 71.960938 C 17.96875 74.5625 19.609375 76.570312 22.167969 75.523438 L 31.492188 71.699219 C 34.398438 73.039062 37.566406 73.960938 40.929688 74.363281 C 57.742188 76.386719 72.839844 64.9375 74.914062 47.6875 C 76.996094 30.441406 65.046875 15.722656 48.242188 13.695312 C 47.191406 13.570312 46.144531 13.492188 45.109375 13.46875 Z M 45.109375 13.46875 "/></g></g></svg>