<svg xmlns="http://www.w3.org/2000/svg" xmlns:xlink="http://www.w3.org/1999/xlink" width="120" zoomAndPan="magnify" viewBox="0 0 90 89.999999" height="120" preserveAspectRatio="xMidYMid meet" version="1.2"><defs><clipPath id="cfc078e2b6"><path d="M 18.265625 13.125 L 71.515625 13.125 L 71.515625 76.875 L 18.265625 76.875 Z M 18.265625 13.125 "/></clipPath></defs><g id="59c9f9c417"><path style=" stroke:none;fill-rule:nonzero;fill:#052a47;fill-opacity:1;" d="M 45 90 C 20.25 90 0 69.75 0 45 C 0 20.25 20.25 0 45 0 C 69.75 0 90 20.25 90 45 C 90 69.75 69.75 90 45 90 Z M 45 90 "/><g clip-rule="nonzero" clip-path="url(#cfc078e2b6)"><path style=" stroke:none;fill-rule:evenodd;fill:#ffffff;fill-opacity:1;" d="M 67.621094 25.371094 C 68.792969 25.371094 69.746094 26.324219 69.746094 27.496094 C 69.746094 28.667969 68.792969 29.621094 67.621094 29.621094 C 66.449219 29.621094 65.496094 28.667969 65.496094 27.496094 C 65.496094 26.324219 66.449219 25.371094 67.621094 25.371094 Z M 68.5 46.691406 C 68.5 49.0625 67.542969 51.21875 65.996094 52.789062 L 65.996094 51.933594 C 65.996094 49.558594 64.644531 47.484375 62.667969 46.449219 C 63.34375 45.742188 63.757812 44.789062 63.757812 43.730469 C 63.757812 41.558594 61.988281 39.785156 59.808594 39.785156 C 57.632812 39.785156 55.863281 41.558594 55.863281 43.730469 C 55.863281 44.789062 56.273438 45.742188 56.953125 46.449219 C 54.976562 47.484375 53.621094 49.558594 53.621094 51.933594 L 53.621094 52.789062 C 52.078125 51.21875 51.121094 49.0625 51.121094 46.691406 C 51.121094 41.898438 55.019531 38 59.808594 38 C 64.601562 38 68.5 41.898438 68.5 46.691406 Z M 57.792969 43.730469 C 57.792969 44.84375 58.695312 45.75 59.808594 45.75 C 60.921875 45.75 61.824219 44.84375 61.824219 43.730469 C 61.824219 42.617188 60.921875 41.710938 59.808594 41.710938 C 58.695312 41.710938 57.792969 42.617188 57.792969 43.730469 Z M 55.554688 54.261719 C 58.1875 55.761719 61.433594 55.757812 64.066406 54.261719 L 64.066406 51.933594 C 64.066406 49.589844 62.15625 47.675781 59.808594 47.675781 C 57.460938 47.675781 55.554688 49.589844 55.554688 51.933594 Z M 50.617188 57.71875 L 52.824219 54.683594 C 51.792969 53.78125 50.933594 52.671875 50.3125 51.4375 L 39.785156 55.53125 C 40.125 56.722656 40.25 57.867188 40.171875 59.128906 L 45.339844 59.925781 C 46.1875 57.882812 48.492188 56.878906 50.617188 57.71875 Z M 49.085938 63.605469 C 47.914062 63.605469 46.960938 62.652344 46.960938 61.480469 C 46.960938 60.308594 47.914062 59.355469 49.085938 59.355469 C 50.253906 59.355469 51.210938 60.308594 51.210938 61.480469 C 51.210938 62.652344 50.257812 63.605469 49.085938 63.605469 Z M 35.761719 64.539062 L 35.761719 63.691406 C 35.761719 61.308594 34.410156 59.242188 32.433594 58.207031 C 33.109375 57.5 33.527344 56.539062 33.527344 55.480469 C 33.527344 53.308594 31.753906 51.535156 29.574219 51.535156 C 27.398438 51.535156 25.628906 53.308594 25.628906 55.480469 C 25.628906 56.539062 26.042969 57.5 26.71875 58.207031 C 24.742188 59.242188 23.390625 61.308594 23.390625 63.691406 L 23.390625 64.539062 C 21.84375 62.96875 20.886719 60.820312 20.886719 58.445312 C 20.886719 53.660156 24.785156 49.761719 29.574219 49.761719 C 34.367188 49.761719 38.265625 53.660156 38.265625 58.445312 C 38.265625 60.820312 37.308594 62.96875 35.761719 64.539062 Z M 44 72.808594 C 44 73.980469 43.046875 74.933594 41.875 74.933594 C 40.703125 74.933594 39.75 73.980469 39.75 72.808594 C 39.75 71.636719 40.703125 70.683594 41.875 70.683594 C 43.046875 70.683594 44 71.636719 44 72.808594 Z M 27.558594 55.480469 C 27.558594 56.597656 28.460938 57.5 29.574219 57.5 C 30.6875 57.5 31.59375 56.597656 31.59375 55.480469 C 31.59375 54.375 30.6875 53.464844 29.574219 53.464844 C 28.460938 53.464844 27.558594 54.375 27.558594 55.480469 Z M 25.320312 66.019531 C 27.960938 67.507812 31.1875 67.507812 33.828125 66.019531 L 33.828125 63.691406 C 33.828125 61.34375 31.921875 59.4375 29.574219 59.4375 C 27.230469 59.4375 25.320312 61.34375 25.320312 63.691406 Z M 24.402344 38.683594 C 25.867188 37.804688 26.652344 36.066406 26.265625 34.339844 L 28.765625 33.109375 C 30.007812 35.121094 31.90625 36.691406 34.15625 37.523438 L 31.371094 47.976562 C 29.988281 47.746094 28.707031 47.777344 27.339844 48.066406 Z M 20.183594 35.21875 C 20.183594 36.390625 21.136719 37.34375 22.308594 37.34375 C 23.480469 37.34375 24.433594 36.390625 24.433594 35.21875 C 24.433594 34.046875 23.480469 33.09375 22.308594 33.09375 C 21.136719 33.09375 20.183594 34.046875 20.183594 35.21875 Z M 37.816406 18.859375 C 33.023438 18.859375 29.125 22.757812 29.125 27.550781 C 29.125 29.917969 30.082031 32.078125 31.628906 33.648438 L 31.628906 32.792969 C 31.628906 30.417969 32.980469 28.34375 34.957031 27.308594 C 34.28125 26.597656 33.863281 25.648438 33.863281 24.589844 C 33.863281 22.410156 35.636719 20.640625 37.816406 20.640625 C 39.992188 20.640625 41.761719 22.410156 41.761719 24.589844 C 41.761719 25.648438 41.347656 26.597656 40.671875 27.308594 C 42.648438 28.34375 44 30.417969 44 32.792969 L 44 33.648438 C 45.546875 32.078125 46.503906 29.917969 46.503906 27.550781 C 46.503906 22.757812 42.605469 18.859375 37.816406 18.859375 Z M 37.816406 28.539062 C 35.46875 28.539062 33.558594 30.449219 33.558594 32.792969 L 33.558594 35.121094 C 36.191406 36.617188 39.4375 36.617188 42.070312 35.121094 L 42.070312 32.792969 C 42.070312 30.449219 40.160156 28.539062 37.816406 28.539062 Z M 35.796875 24.589844 C 35.796875 23.472656 36.703125 22.570312 37.816406 22.570312 C 38.929688 22.570312 39.832031 23.472656 39.832031 24.589844 C 39.832031 25.707031 38.929688 26.609375 37.816406 26.609375 C 36.703125 26.609375 35.796875 25.707031 35.796875 24.589844 Z M 49.609375 49.636719 C 48.6875 46.472656 49.304688 43.117188 51.191406 40.492188 L 45.140625 35.226562 C 42.742188 37.519531 39.429688 38.589844 36.023438 38.015625 L 33.238281 48.476562 C 35.792969 49.417969 37.886719 51.316406 39.089844 53.730469 Z M 52.53125 26.429688 L 48.421875 27.015625 C 48.546875 29.515625 47.800781 31.859375 46.414062 33.769531 L 52.460938 39.035156 C 53.761719 37.789062 55.375 36.863281 57.167969 36.40625 L 55.96875 28.960938 C 54.40625 28.835938 53.09375 27.820312 52.53125 26.429688 Z M 56.292969 22.789062 C 57.464844 22.789062 58.417969 23.742188 58.417969 24.914062 C 58.417969 26.085938 57.464844 27.039062 56.292969 27.039062 C 55.121094 27.039062 54.167969 26.085938 54.167969 24.914062 C 54.167969 23.742188 55.121094 22.789062 56.292969 22.789062 Z M 23.851562 19.316406 C 22.679688 19.316406 21.730469 18.363281 21.730469 17.191406 C 21.730469 16.019531 22.679688 15.066406 23.851562 15.066406 C 25.023438 15.066406 25.976562 16.019531 25.976562 17.191406 C 25.976562 18.363281 25.023438 19.316406 23.851562 19.316406 Z M 67.621094 31.546875 C 69.859375 31.546875 71.675781 29.722656 71.675781 27.496094 C 71.675781 25.257812 69.859375 23.433594 67.621094 23.433594 C 65.386719 23.433594 63.566406 25.257812 63.566406 27.496094 C 63.566406 28.835938 64.230469 30.035156 65.242188 30.777344 L 62.902344 36.53125 C 61.675781 36.160156 60.390625 36.007812 59.078125 36.097656 L 57.875 28.652344 C 59.328125 28.03125 60.347656 26.59375 60.347656 24.914062 C 60.347656 22.683594 58.53125 20.863281 56.292969 20.863281 C 54.191406 20.863281 52.460938 22.464844 52.257812 24.515625 L 48.144531 25.101562 C 47.039062 20.421875 42.828125 16.933594 37.816406 16.933594 C 34.675781 16.933594 31.847656 18.308594 29.902344 20.480469 L 27.59375 18.761719 C 28.703125 16.160156 26.796875 13.140625 23.851562 13.140625 C 21.617188 13.140625 19.796875 14.953125 19.796875 17.191406 C 19.796875 20.625 23.808594 22.484375 26.4375 20.316406 L 28.746094 22.027344 C 27.035156 24.828125 26.710938 28.285156 27.910156 31.375 L 25.410156 32.605469 C 24.664062 31.726562 23.554688 31.15625 22.308594 31.15625 C 20.070312 31.15625 18.253906 32.980469 18.253906 35.21875 C 18.253906 37.457031 20.070312 39.269531 22.308594 39.269531 C 22.394531 39.269531 22.476562 39.269531 22.5625 39.261719 L 25.5 48.636719 C 21.660156 50.238281 18.957031 54.035156 18.957031 58.445312 C 18.957031 64.304688 23.71875 69.066406 29.578125 69.066406 C 31.867188 69.066406 33.984375 68.339844 35.71875 67.101562 L 38.582031 70.445312 C 36.679688 73.070312 38.542969 76.859375 41.875 76.859375 C 44.113281 76.859375 45.929688 75.046875 45.929688 72.808594 C 45.929688 69.804688 42.761719 67.816406 40.046875 69.183594 L 37.183594 65.839844 C 38.472656 64.523438 39.414062 62.871094 39.875 61.035156 L 45.046875 61.832031 C 45.226562 63.90625 46.96875 65.53125 49.085938 65.53125 C 52.523438 65.53125 54.402344 61.488281 52.179688 58.859375 L 54.386719 55.816406 C 55.976562 56.765625 57.828125 57.3125 59.808594 57.3125 C 65.664062 57.3125 70.429688 52.542969 70.429688 46.691406 C 70.429688 42.59375 68.097656 39.035156 64.6875 37.261719 L 67.03125 31.507812 C 67.226562 31.53125 67.417969 31.546875 67.621094 31.546875 Z M 67.621094 31.546875 "/></g></g></svg>