<svg xmlns="http://www.w3.org/2000/svg" xmlns:xlink="http://www.w3.org/1999/xlink" width="120" zoomAndPan="magnify" viewBox="0 0 90 89.999999" height="120" preserveAspectRatio="xMidYMid meet" version="1.2"><defs><clipPath id="34c764be5e"><path d="M 13.125 13.125 L 76.875 13.125 L 76.875 76.875 L 13.125 76.875 Z M 13.125 13.125 "/></clipPath></defs><g id="dc35349393"><path style=" stroke:none;fill-rule:nonzero;fill:#052a47;fill-opacity:1;" d="M 45 90 C 20.25 90 0 69.75 0 45 C 0 20.25 20.25 0 45 0 C 69.75 0 90 20.25 90 45 C 90 69.75 69.75 90 45 90 Z M 45 90 "/><g clip-rule="nonzero" clip-path="url(#34c764be5e)"><path style=" stroke:none;fill-rule:nonzero;fill:#ffffff;fill-opacity:1;" d="M 61.035156 13.367188 L 60.28125 13.441406 C 60.050781 13.460938 54.539062 14.046875 52.421875 17.710938 C 50.585938 20.890625 52.035156 25.113281 52.515625 26.320312 C 51.949219 27.851562 51.488281 29.414062 51.136719 31.003906 C 50.738281 30.613281 50.328125 30.234375 49.914062 29.863281 L 49.886719 29.597656 C 49.851562 29.230469 48.9375 20.5625 43.246094 17.277344 C 37.554688 13.988281 29.589844 17.535156 29.253906 17.683594 L 28.558594 18 L 28.636719 18.753906 C 28.671875 19.125 29.585938 27.789062 35.277344 31.082031 C 37.070312 32.113281 39.085938 32.476562 41.015625 32.476562 C 43.9375 32.476562 46.664062 31.65625 48.136719 31.117188 C 49.027344 31.890625 49.867188 32.707031 50.664062 33.570312 C 50.492188 34.792969 50.398438 36.023438 50.355469 37.261719 C 49.699219 36.992188 49.050781 36.710938 48.417969 36.402344 C 47.894531 36.144531 47.257812 36.363281 46.996094 36.890625 C 46.742188 37.414062 46.957031 38.054688 47.484375 38.3125 C 48.402344 38.757812 49.355469 39.15625 50.3125 39.527344 L 50.3125 40.976562 C 49.765625 40.695312 49.148438 40.539062 48.511719 40.539062 C 46.699219 40.539062 45.164062 41.777344 44.726562 43.453125 C 42.5 43.765625 40.5625 45.171875 39.574219 47.203125 C 37.773438 47.292969 36.058594 48.011719 34.734375 49.226562 C 32.746094 48.519531 30.621094 48.273438 28.511719 48.515625 L 15.9375 49.992188 C 14.335938 50.179688 13.125 51.542969 13.125 53.160156 L 13.125 66.609375 C 13.125 67.601562 13.574219 68.511719 14.351562 69.125 C 15.128906 69.730469 16.125 69.941406 17.085938 69.699219 L 24.058594 67.960938 C 25.832031 67.523438 27.707031 67.742188 29.328125 68.597656 L 42.699219 75.640625 C 44.09375 76.375 45.621094 76.738281 47.152344 76.738281 C 48.664062 76.738281 50.175781 76.386719 51.558594 75.667969 L 74.191406 63.929688 C 75.84375 63.074219 76.875 61.382812 76.875 59.507812 C 76.875 57.960938 76.167969 56.527344 74.945312 55.578125 C 73.71875 54.625 72.152344 54.308594 70.652344 54.695312 L 70.1875 54.816406 C 69.554688 52.300781 67.964844 50.105469 65.742188 48.722656 C 65.738281 45.777344 63.34375 43.382812 60.402344 43.382812 C 60.203125 43.382812 60.003906 43.398438 59.808594 43.421875 C 59.15625 41.191406 57.105469 39.582031 54.695312 39.582031 C 53.894531 39.582031 53.128906 39.773438 52.4375 40.101562 L 52.4375 38.515625 C 52.4375 38.121094 52.460938 37.734375 52.476562 37.339844 C 53.554688 36.699219 54.660156 36.105469 55.808594 35.59375 C 57.078125 36.503906 60.304688 38.5625 63.746094 38.5625 C 64.417969 38.5625 65.101562 38.484375 65.773438 38.304688 C 70.777344 36.960938 73.226562 30.589844 73.328125 30.316406 L 73.597656 29.609375 L 73.007812 29.121094 C 72.78125 28.941406 67.472656 24.644531 62.472656 25.984375 C 58.097656 27.160156 55.679688 32.171875 55.074219 33.601562 C 54.253906 33.960938 53.453125 34.359375 52.664062 34.789062 C 52.964844 32.179688 53.558594 29.621094 54.460938 27.164062 C 56.078125 26.882812 59.898438 25.917969 61.585938 23 C 63.703125 19.335938 61.449219 14.273438 61.351562 14.058594 Z M 59.703125 15.683594 C 60.167969 17.027344 60.917969 19.910156 59.746094 21.9375 C 58.84375 23.5 56.941406 24.324219 55.472656 24.742188 C 56.003906 23.59375 56.582031 22.460938 57.25 21.371094 C 57.554688 20.871094 57.398438 20.214844 56.898438 19.910156 C 56.398438 19.605469 55.742188 19.761719 55.4375 20.265625 C 54.84375 21.230469 54.324219 22.234375 53.832031 23.246094 C 53.5625 21.789062 53.511719 20.070312 54.261719 18.769531 C 55.433594 16.742188 58.304688 15.953125 59.703125 15.683594 Z M 37.429688 18.007812 C 39.0625 18 40.738281 18.277344 42.183594 19.113281 C 45.4375 20.992188 46.851562 25.277344 47.421875 27.816406 C 46.949219 27.464844 46.472656 27.117188 45.984375 26.792969 L 40.84375 23.363281 C 40.355469 23.035156 39.695312 23.167969 39.371094 23.65625 C 39.042969 24.144531 39.175781 24.800781 39.667969 25.125 L 44.800781 28.558594 C 45.265625 28.867188 45.714844 29.191406 46.160156 29.523438 C 43.632812 30.273438 39.460938 31.035156 36.339844 29.234375 C 32.488281 27.007812 31.207031 21.394531 30.859375 19.328125 C 32.09375 18.867188 34.703125 18.027344 37.429688 18.007812 Z M 64.195312 27.859375 C 66.957031 27.71875 69.785156 29.4375 71.023438 30.296875 C 70.289062 31.851562 68.304688 35.425781 65.226562 36.25 C 62.714844 36.925781 59.925781 35.65625 58.214844 34.628906 C 58.707031 34.453125 59.203125 34.273438 59.703125 34.121094 L 62.753906 33.191406 C 63.316406 33.015625 63.632812 32.421875 63.460938 31.863281 C 63.285156 31.300781 62.691406 30.980469 62.132812 31.15625 L 59.078125 32.089844 C 58.738281 32.195312 58.398438 32.320312 58.0625 32.4375 C 59.078125 30.75 60.75 28.648438 63.023438 28.039062 C 63.410156 27.933594 63.804688 27.878906 64.195312 27.859375 Z M 44.203125 34.269531 C 43.789062 34.234375 43.371094 34.441406 43.167969 34.832031 C 42.890625 35.347656 43.089844 35.992188 43.605469 36.269531 L 44.914062 36.957031 C 45.070312 37.046875 45.242188 37.082031 45.410156 37.082031 C 45.789062 37.082031 46.15625 36.878906 46.347656 36.519531 C 46.621094 36 46.421875 35.359375 45.910156 35.082031 L 44.605469 34.390625 C 44.476562 34.324219 44.339844 34.28125 44.203125 34.269531 Z M 54.695312 41.707031 C 56.40625 41.707031 57.8125 43.050781 57.894531 44.769531 C 57.910156 45.105469 58.085938 45.414062 58.363281 45.597656 C 58.644531 45.785156 59 45.832031 59.316406 45.714844 C 59.695312 45.578125 60.054688 45.507812 60.402344 45.507812 C 62.179688 45.507812 63.617188 46.953125 63.617188 48.730469 C 63.617188 48.839844 63.601562 48.953125 63.574219 49.160156 C 63.511719 49.601562 63.734375 50.03125 64.125 50.238281 C 66.140625 51.304688 67.589844 53.171875 68.132812 55.347656 L 56.40625 58.390625 C 56.121094 57.5625 55.640625 56.800781 54.992188 56.195312 C 53.914062 55.195312 52.460938 54.683594 50.992188 54.789062 L 48.664062 54.953125 C 47.75 55.019531 46.839844 54.847656 46.011719 54.457031 L 36.964844 50.191406 C 37.851562 49.628906 38.886719 49.3125 39.953125 49.3125 L 40.230469 49.332031 C 40.730469 49.359375 41.128906 49.066406 41.28125 48.621094 C 41.9375 46.761719 43.691406 45.507812 45.660156 45.507812 C 46.25 45.507812 46.722656 45.035156 46.722656 44.445312 C 46.722656 43.460938 47.527344 42.65625 48.515625 42.65625 C 49.128906 42.65625 49.695312 42.972656 50.027344 43.5 C 50.226562 43.824219 50.5625 44.027344 50.964844 43.996094 C 51.347656 43.984375 51.691406 43.769531 51.867188 43.433594 C 52.429688 42.367188 53.511719 41.707031 54.695312 41.707031 Z M 30.390625 50.550781 C 32.015625 50.589844 33.628906 50.960938 35.109375 51.664062 L 45.113281 56.382812 C 46.265625 56.925781 47.542969 57.164062 48.816406 57.074219 L 51.148438 56.910156 C 52.039062 56.847656 52.894531 57.144531 53.550781 57.753906 C 54.203125 58.363281 54.5625 59.191406 54.5625 60.085938 L 54.5625 60.515625 C 54.5625 60.933594 54.316406 61.316406 53.9375 61.488281 L 50.796875 62.894531 C 48.445312 63.953125 45.722656 64.011719 43.328125 63.050781 L 37.96875 60.90625 C 37.421875 60.6875 36.804688 60.953125 36.585938 61.5 C 36.367188 62.042969 36.632812 62.660156 37.179688 62.878906 L 42.539062 65.027344 C 45.46875 66.199219 48.796875 66.128906 51.671875 64.832031 L 54.808594 63.425781 C 55.949219 62.910156 56.6875 61.769531 56.6875 60.515625 L 71.183594 56.75 C 72.046875 56.53125 72.941406 56.714844 73.640625 57.257812 C 74.347656 57.800781 74.75 58.625 74.75 59.519531 C 74.75 60.585938 74.160156 61.554688 73.214844 62.042969 L 50.578125 73.78125 C 48.417969 74.902344 45.84375 74.894531 43.6875 73.757812 L 30.316406 66.714844 C 28.929688 65.984375 27.402344 65.613281 25.863281 65.613281 C 25.085938 65.613281 24.308594 65.707031 23.546875 65.898438 L 16.570312 67.640625 C 16.25 67.722656 15.917969 67.648438 15.660156 67.449219 C 15.398438 67.246094 15.25 66.941406 15.25 66.609375 L 15.25 53.160156 C 15.25 52.621094 15.652344 52.164062 16.1875 52.101562 L 28.757812 50.625 C 29.304688 50.5625 29.847656 50.539062 30.390625 50.550781 Z M 18.4375 53.394531 C 17.851562 53.394531 17.375 53.871094 17.375 54.457031 C 17.375 55.042969 17.851562 55.519531 18.4375 55.519531 L 20.5625 55.519531 C 21.148438 55.519531 21.625 55.042969 21.625 54.457031 C 21.625 53.871094 21.148438 53.394531 20.5625 53.394531 Z M 18.4375 58.707031 C 17.851562 58.707031 17.375 59.183594 17.375 59.769531 C 17.375 60.355469 17.851562 60.832031 18.4375 60.832031 L 20.5625 60.832031 C 21.148438 60.832031 21.625 60.355469 21.625 59.769531 C 21.625 59.183594 21.148438 58.707031 20.5625 58.707031 Z M 18.4375 64.019531 C 17.851562 64.019531 17.375 64.496094 17.375 65.082031 C 17.375 65.667969 17.851562 66.144531 18.4375 66.144531 L 20.5625 66.144531 C 21.148438 66.144531 21.625 65.667969 21.625 65.082031 C 21.625 64.496094 21.148438 64.019531 20.5625 64.019531 Z M 18.4375 64.019531 "/></g></g></svg>