<svg xmlns="http://www.w3.org/2000/svg" xmlns:xlink="http://www.w3.org/1999/xlink" width="120" zoomAndPan="magnify" viewBox="0 0 90 89.999999" height="120" preserveAspectRatio="xMidYMid meet" version="1.2"><defs><clipPath id="dfb3988479"><path d="M 43 13.125 L 46 13.125 L 46 25 L 43 25 Z M 43 13.125 "/></clipPath><clipPath id="864d6f3509"><path d="M 8.570312 43 L 21 43 L 21 47 L 8.570312 47 Z M 8.570312 43 "/></clipPath><clipPath id="886118027b"><path d="M 69 42 L 81.320312 42 L 81.320312 46 L 69 46 Z M 69 42 "/></clipPath><clipPath id="b05e5866e1"><path d="M 41 74 L 49 74 L 49 76.875 L 41 76.875 Z M 41 74 "/></clipPath></defs><g id="47fb4ad5e8"><path style=" stroke:none;fill-rule:nonzero;fill:#052a47;fill-opacity:1;" d="M 45 90 C 20.25 90 0 69.75 0 45 C 0 20.25 20.25 0 45 0 C 69.75 0 90 20.25 90 45 C 90 69.75 69.75 90 45 90 Z M 45 90 "/><path style=" stroke:none;fill-rule:nonzero;fill:#ffffff;fill-opacity:1;" d="M 45 28.160156 C 44.296875 28.164062 43.597656 28.199219 42.898438 28.269531 C 42.199219 28.335938 41.503906 28.441406 40.816406 28.578125 C 40.128906 28.71875 39.449219 28.890625 38.777344 29.09375 C 38.105469 29.300781 37.445312 29.535156 36.796875 29.808594 C 36.148438 30.078125 35.515625 30.378906 34.894531 30.710938 C 34.277344 31.042969 33.675781 31.40625 33.09375 31.796875 C 32.507812 32.1875 31.945312 32.605469 31.40625 33.054688 C 30.863281 33.5 30.34375 33.972656 29.847656 34.472656 C 29.355469 34.96875 28.882812 35.488281 28.441406 36.035156 C 27.996094 36.578125 27.582031 37.144531 27.191406 37.726562 C 26.804688 38.3125 26.445312 38.914062 26.117188 39.535156 C 25.785156 40.15625 25.488281 40.792969 25.222656 41.441406 C 24.953125 42.089844 24.722656 42.753906 24.519531 43.425781 C 24.316406 44.097656 24.148438 44.777344 24.015625 45.46875 C 23.882812 46.15625 23.78125 46.851562 23.714844 47.550781 C 23.648438 48.25 23.617188 48.953125 23.621094 49.652344 C 23.675781 49.957031 23.820312 50.207031 24.058594 50.40625 C 24.292969 50.605469 24.5625 50.707031 24.871094 50.710938 L 65.125 50.710938 C 65.433594 50.707031 65.707031 50.605469 65.941406 50.40625 C 66.175781 50.207031 66.324219 49.957031 66.378906 49.652344 C 66.382812 48.953125 66.351562 48.25 66.285156 47.550781 C 66.21875 46.851562 66.117188 46.15625 65.984375 45.46875 C 65.847656 44.777344 65.679688 44.097656 65.480469 43.425781 C 65.277344 42.753906 65.042969 42.089844 64.777344 41.441406 C 64.511719 40.792969 64.210938 40.15625 63.882812 39.535156 C 63.554688 38.914062 63.195312 38.3125 62.804688 37.726562 C 62.417969 37.144531 62 36.578125 61.558594 36.035156 C 61.113281 35.488281 60.644531 34.96875 60.148438 34.472656 C 59.652344 33.972656 59.136719 33.5 58.59375 33.054688 C 58.050781 32.605469 57.488281 32.1875 56.90625 31.796875 C 56.324219 31.40625 55.722656 31.042969 55.101562 30.710938 C 54.484375 30.378906 53.851562 30.078125 53.203125 29.808594 C 52.554688 29.535156 51.894531 29.300781 51.222656 29.09375 C 50.550781 28.890625 49.871094 28.71875 49.183594 28.578125 C 48.492188 28.441406 47.800781 28.335938 47.101562 28.269531 C 46.402344 28.199219 45.703125 28.164062 45 28.160156 Z M 45 30.765625 C 46.171875 30.769531 47.332031 30.882812 48.484375 31.101562 C 49.632812 31.324219 50.753906 31.648438 51.84375 32.078125 C 52.9375 32.507812 53.976562 33.035156 54.96875 33.65625 C 55.960938 34.28125 56.886719 34.992188 57.75 35.785156 C 58.609375 36.582031 59.386719 37.449219 60.085938 38.390625 C 60.785156 39.332031 61.390625 40.328125 61.902344 41.382812 C 62.417969 42.4375 62.828125 43.53125 63.136719 44.660156 C 63.449219 45.789062 63.648438 46.9375 63.746094 48.105469 L 26.253906 48.105469 C 26.347656 46.9375 26.550781 45.789062 26.859375 44.660156 C 27.171875 43.53125 27.582031 42.4375 28.09375 41.382812 C 28.605469 40.328125 29.210938 39.332031 29.910156 38.390625 C 30.609375 37.449219 31.390625 36.582031 32.25 35.785156 C 33.109375 34.992188 34.035156 34.28125 35.027344 33.65625 C 36.019531 33.035156 37.0625 32.507812 38.152344 32.078125 C 39.242188 31.648438 40.363281 31.324219 41.515625 31.101562 C 42.664062 30.882812 43.828125 30.769531 45 30.765625 Z M 45 30.765625 "/><g clip-rule="nonzero" clip-path="url(#dfb3988479)"><path style=" stroke:none;fill-rule:nonzero;fill:#ffffff;fill-opacity:1;" d="M 44.636719 24.632812 C 44.808594 24.632812 44.972656 24.601562 45.132812 24.535156 C 45.292969 24.46875 45.433594 24.375 45.554688 24.253906 C 45.675781 24.128906 45.773438 23.988281 45.835938 23.832031 C 45.902344 23.671875 45.9375 23.503906 45.9375 23.332031 L 45.9375 14.441406 C 45.9375 14.265625 45.902344 14.101562 45.835938 13.941406 C 45.773438 13.78125 45.675781 13.640625 45.554688 13.519531 C 45.433594 13.398438 45.292969 13.304688 45.132812 13.238281 C 44.972656 13.171875 44.808594 13.136719 44.636719 13.136719 C 44.460938 13.136719 44.296875 13.171875 44.136719 13.238281 C 43.976562 13.304688 43.835938 13.398438 43.714844 13.519531 C 43.59375 13.640625 43.5 13.78125 43.433594 13.941406 C 43.367188 14.101562 43.332031 14.265625 43.332031 14.441406 L 43.332031 23.332031 C 43.332031 23.503906 43.367188 23.671875 43.433594 23.832031 C 43.496094 23.988281 43.59375 24.128906 43.714844 24.253906 C 43.835938 24.375 43.976562 24.46875 44.136719 24.535156 C 44.296875 24.601562 44.460938 24.632812 44.636719 24.632812 Z M 44.636719 24.632812 "/></g><path style=" stroke:none;fill-rule:nonzero;fill:#ffffff;fill-opacity:1;" d="M 25.253906 32.199219 C 25.375 32.320312 25.515625 32.410156 25.675781 32.472656 C 25.832031 32.535156 26 32.566406 26.167969 32.566406 C 26.339844 32.5625 26.503906 32.527344 26.660156 32.464844 C 26.816406 32.398438 26.957031 32.304688 27.078125 32.183594 C 27.199219 32.0625 27.289062 31.925781 27.355469 31.765625 C 27.421875 31.609375 27.457031 31.445312 27.457031 31.273438 C 27.460938 31.105469 27.429688 30.941406 27.367188 30.78125 C 27.304688 30.625 27.210938 30.484375 27.09375 30.359375 L 20.808594 24.074219 C 20.683594 23.953125 20.542969 23.863281 20.386719 23.800781 C 20.226562 23.738281 20.0625 23.707031 19.890625 23.710938 C 19.722656 23.710938 19.558594 23.746094 19.398438 23.8125 C 19.242188 23.878906 19.105469 23.96875 18.984375 24.089844 C 18.863281 24.210938 18.769531 24.351562 18.703125 24.507812 C 18.636719 24.664062 18.605469 24.828125 18.601562 25 C 18.601562 25.167969 18.632812 25.332031 18.695312 25.492188 C 18.757812 25.652344 18.847656 25.792969 18.964844 25.914062 Z M 25.253906 32.199219 "/><g clip-rule="nonzero" clip-path="url(#864d6f3509)"><path style=" stroke:none;fill-rule:nonzero;fill:#ffffff;fill-opacity:1;" d="M 18.738281 43.445312 L 9.847656 43.445312 C 9.675781 43.449219 9.515625 43.484375 9.359375 43.554688 C 9.203125 43.621094 9.0625 43.714844 8.945312 43.835938 C 8.824219 43.957031 8.734375 44.097656 8.667969 44.257812 C 8.605469 44.414062 8.570312 44.578125 8.570312 44.75 C 8.570312 44.917969 8.605469 45.082031 8.667969 45.242188 C 8.734375 45.398438 8.824219 45.539062 8.945312 45.660156 C 9.0625 45.78125 9.203125 45.875 9.359375 45.945312 C 9.515625 46.011719 9.679688 46.046875 9.847656 46.050781 L 18.738281 46.050781 C 18.910156 46.046875 19.074219 46.011719 19.230469 45.945312 C 19.386719 45.875 19.523438 45.78125 19.644531 45.660156 C 19.761719 45.539062 19.855469 45.398438 19.917969 45.242188 C 19.984375 45.082031 20.015625 44.917969 20.015625 44.75 C 20.015625 44.578125 19.984375 44.414062 19.917969 44.257812 C 19.855469 44.097656 19.761719 43.957031 19.644531 43.835938 C 19.523438 43.714844 19.386719 43.621094 19.230469 43.554688 C 19.074219 43.484375 18.910156 43.449219 18.738281 43.445312 Z M 18.738281 43.445312 "/></g><g clip-rule="nonzero" clip-path="url(#886118027b)"><path style=" stroke:none;fill-rule:nonzero;fill:#ffffff;fill-opacity:1;" d="M 80.148438 42.71875 L 71.257812 42.71875 C 71.085938 42.722656 70.925781 42.757812 70.769531 42.824219 C 70.609375 42.890625 70.472656 42.988281 70.355469 43.109375 C 70.234375 43.230469 70.144531 43.371094 70.078125 43.527344 C 70.015625 43.683594 69.980469 43.847656 69.980469 44.019531 C 69.980469 44.191406 70.015625 44.355469 70.078125 44.511719 C 70.144531 44.671875 70.234375 44.808594 70.355469 44.929688 C 70.472656 45.054688 70.609375 45.148438 70.769531 45.214844 C 70.925781 45.28125 71.085938 45.316406 71.257812 45.320312 L 80.148438 45.320312 C 80.320312 45.316406 80.484375 45.28125 80.640625 45.214844 C 80.796875 45.148438 80.933594 45.054688 81.054688 44.929688 C 81.175781 44.808594 81.265625 44.671875 81.332031 44.511719 C 81.394531 44.355469 81.425781 44.191406 81.425781 44.019531 C 81.425781 43.847656 81.394531 43.683594 81.332031 43.527344 C 81.265625 43.371094 81.175781 43.230469 81.054688 43.109375 C 80.933594 42.984375 80.796875 42.890625 80.640625 42.824219 C 80.484375 42.757812 80.320312 42.722656 80.148438 42.71875 Z M 80.148438 42.71875 "/></g><path style=" stroke:none;fill-rule:nonzero;fill:#ffffff;fill-opacity:1;" d="M 63.308594 32.066406 C 63.667969 32.066406 63.976562 31.941406 64.230469 31.6875 L 70.519531 25.398438 C 70.636719 25.277344 70.726562 25.136719 70.789062 24.976562 C 70.851562 24.820312 70.882812 24.65625 70.882812 24.484375 C 70.878906 24.3125 70.847656 24.148438 70.78125 23.992188 C 70.714844 23.835938 70.621094 23.695312 70.5 23.574219 C 70.378906 23.457031 70.242188 23.363281 70.082031 23.296875 C 69.925781 23.230469 69.761719 23.195312 69.59375 23.195312 C 69.421875 23.191406 69.257812 23.222656 69.097656 23.285156 C 68.941406 23.347656 68.800781 23.441406 68.675781 23.558594 L 62.390625 29.84375 C 62.207031 30.03125 62.09375 30.253906 62.042969 30.511719 C 61.996094 30.769531 62.019531 31.015625 62.121094 31.257812 C 62.21875 31.5 62.378906 31.695312 62.59375 31.839844 C 62.808594 31.988281 63.050781 32.0625 63.308594 32.066406 Z M 63.308594 32.066406 "/><path style=" stroke:none;fill-rule:nonzero;fill:#ffffff;fill-opacity:1;" d="M 54.578125 26.367188 C 54.769531 26.363281 54.953125 26.324219 55.128906 26.25 C 55.304688 26.175781 55.460938 26.070312 55.597656 25.933594 C 55.730469 25.796875 55.832031 25.640625 55.90625 25.464844 C 55.980469 25.285156 56.015625 25.101562 56.015625 24.910156 C 56.015625 24.71875 55.980469 24.535156 55.90625 24.359375 C 55.832031 24.183594 55.730469 24.027344 55.597656 23.890625 C 55.460938 23.753906 55.304688 23.648438 55.128906 23.574219 C 54.953125 23.496094 54.769531 23.457031 54.578125 23.457031 C 54.386719 23.457031 54.203125 23.496094 54.027344 23.574219 C 53.851562 23.648438 53.699219 23.753906 53.5625 23.890625 C 53.429688 24.027344 53.324219 24.183594 53.253906 24.359375 C 53.179688 24.535156 53.144531 24.71875 53.144531 24.910156 C 53.144531 25.101562 53.179688 25.285156 53.253906 25.464844 C 53.324219 25.640625 53.429688 25.796875 53.5625 25.933594 C 53.699219 26.070312 53.851562 26.175781 54.027344 26.25 C 54.203125 26.324219 54.386719 26.363281 54.578125 26.367188 Z M 54.578125 26.367188 "/><path style=" stroke:none;fill-rule:nonzero;fill:#ffffff;fill-opacity:1;" d="M 35.351562 26.394531 C 35.484375 26.257812 35.585938 26.101562 35.65625 25.921875 C 35.726562 25.746094 35.761719 25.5625 35.757812 25.371094 C 35.757812 25.179688 35.71875 24.996094 35.644531 24.820312 C 35.570312 24.644531 35.46875 24.492188 35.332031 24.355469 C 35.199219 24.222656 35.042969 24.117188 34.867188 24.042969 C 34.691406 23.96875 34.507812 23.929688 34.316406 23.929688 C 34.125 23.925781 33.941406 23.960938 33.765625 24.03125 C 33.585938 24.101562 33.429688 24.203125 33.292969 24.335938 C 33.160156 24.472656 33.058594 24.628906 32.988281 24.808594 C 32.917969 24.984375 32.882812 25.167969 32.886719 25.359375 C 32.886719 25.550781 32.925781 25.734375 33 25.910156 C 33.074219 26.085938 33.175781 26.242188 33.3125 26.375 C 33.449219 26.511719 33.601562 26.613281 33.777344 26.6875 C 33.953125 26.761719 34.136719 26.800781 34.328125 26.800781 C 34.519531 26.804688 34.703125 26.769531 34.878906 26.699219 C 35.058594 26.628906 35.214844 26.527344 35.351562 26.394531 Z M 35.351562 26.394531 "/><path style=" stroke:none;fill-rule:nonzero;fill:#ffffff;fill-opacity:1;" d="M 20.320312 38.554688 C 20.128906 38.558594 19.945312 38.597656 19.769531 38.671875 C 19.59375 38.746094 19.4375 38.851562 19.304688 38.988281 C 19.167969 39.125 19.066406 39.28125 18.992188 39.457031 C 18.921875 39.636719 18.882812 39.820312 18.882812 40.011719 C 18.882812 40.203125 18.921875 40.386719 18.992188 40.5625 C 19.066406 40.738281 19.167969 40.898438 19.304688 41.03125 C 19.4375 41.167969 19.59375 41.273438 19.769531 41.351562 C 19.945312 41.425781 20.128906 41.464844 20.320312 41.464844 C 20.511719 41.464844 20.695312 41.425781 20.871094 41.351562 C 21.046875 41.273438 21.199219 41.167969 21.335938 41.03125 C 21.46875 40.898438 21.574219 40.738281 21.644531 40.5625 C 21.71875 40.386719 21.753906 40.203125 21.753906 40.011719 C 21.753906 39.820312 21.71875 39.636719 21.644531 39.457031 C 21.574219 39.28125 21.46875 39.125 21.335938 38.988281 C 21.199219 38.851562 21.046875 38.746094 20.871094 38.671875 C 20.695312 38.597656 20.511719 38.558594 20.320312 38.554688 Z M 20.320312 38.554688 "/><path style=" stroke:none;fill-rule:nonzero;fill:#ffffff;fill-opacity:1;" d="M 70.253906 37.886719 C 70.117188 37.753906 69.960938 37.652344 69.78125 37.582031 C 69.605469 37.511719 69.421875 37.476562 69.230469 37.476562 C 69.039062 37.480469 68.855469 37.519531 68.679688 37.589844 C 68.503906 37.664062 68.351562 37.769531 68.214844 37.90625 C 68.082031 38.039062 67.976562 38.195312 67.902344 38.371094 C 67.828125 38.546875 67.789062 38.730469 67.789062 38.921875 C 67.785156 39.109375 67.820312 39.296875 67.890625 39.472656 C 67.960938 39.648438 68.0625 39.808594 68.195312 39.945312 C 68.332031 40.078125 68.492188 40.179688 68.667969 40.25 C 68.84375 40.320312 69.027344 40.351562 69.21875 40.351562 C 69.410156 40.347656 69.59375 40.3125 69.769531 40.238281 C 69.945312 40.164062 70.101562 40.058594 70.234375 39.925781 C 70.371094 39.789062 70.472656 39.632812 70.546875 39.457031 C 70.621094 39.28125 70.660156 39.101562 70.660156 38.910156 C 70.664062 38.71875 70.628906 38.535156 70.558594 38.355469 C 70.488281 38.179688 70.386719 38.023438 70.253906 37.886719 Z M 70.253906 37.886719 "/><path style=" stroke:none;fill-rule:nonzero;fill:#ffffff;fill-opacity:1;" d="M 65.074219 53.4375 L 24.691406 53.4375 C 24.519531 53.441406 24.355469 53.476562 24.199219 53.542969 C 24.042969 53.613281 23.902344 53.707031 23.785156 53.828125 C 23.664062 53.949219 23.570312 54.089844 23.507812 54.246094 C 23.441406 54.40625 23.410156 54.570312 23.410156 54.742188 C 23.410156 54.914062 23.441406 55.078125 23.507812 55.234375 C 23.570312 55.394531 23.664062 55.535156 23.785156 55.65625 C 23.902344 55.777344 24.042969 55.871094 24.199219 55.9375 C 24.355469 56.003906 24.519531 56.039062 24.691406 56.042969 L 65.074219 56.042969 C 65.246094 56.039062 65.410156 56.003906 65.566406 55.9375 C 65.722656 55.871094 65.863281 55.777344 65.980469 55.65625 C 66.101562 55.535156 66.195312 55.394531 66.257812 55.234375 C 66.324219 55.078125 66.355469 54.914062 66.355469 54.742188 C 66.355469 54.570312 66.324219 54.40625 66.257812 54.246094 C 66.195312 54.089844 66.101562 53.949219 65.980469 53.828125 C 65.863281 53.707031 65.722656 53.609375 65.566406 53.542969 C 65.410156 53.476562 65.246094 53.441406 65.074219 53.4375 Z M 65.074219 53.4375 "/><path style=" stroke:none;fill-rule:nonzero;fill:#ffffff;fill-opacity:1;" d="M 60.46875 58.667969 L 29.296875 58.667969 C 29.125 58.671875 28.960938 58.707031 28.804688 58.777344 C 28.648438 58.84375 28.511719 58.9375 28.390625 59.058594 C 28.273438 59.183594 28.179688 59.320312 28.117188 59.480469 C 28.050781 59.636719 28.019531 59.800781 28.019531 59.972656 C 28.019531 60.140625 28.050781 60.304688 28.117188 60.464844 C 28.179688 60.621094 28.273438 60.761719 28.390625 60.882812 C 28.511719 61.003906 28.648438 61.101562 28.804688 61.167969 C 28.960938 61.234375 29.125 61.269531 29.296875 61.273438 L 60.46875 61.273438 C 60.640625 61.269531 60.804688 61.234375 60.960938 61.167969 C 61.117188 61.101562 61.253906 61.003906 61.375 60.882812 C 61.492188 60.761719 61.585938 60.621094 61.648438 60.464844 C 61.714844 60.304688 61.746094 60.140625 61.746094 59.972656 C 61.746094 59.800781 61.714844 59.636719 61.648438 59.480469 C 61.585938 59.320312 61.492188 59.183594 61.375 59.058594 C 61.253906 58.9375 61.117188 58.84375 60.960938 58.777344 C 60.804688 58.707031 60.640625 58.671875 60.46875 58.667969 Z M 60.46875 58.667969 "/><path style=" stroke:none;fill-rule:nonzero;fill:#ffffff;fill-opacity:1;" d="M 55.554688 63.898438 L 34.316406 63.898438 C 34.144531 63.902344 33.984375 63.9375 33.824219 64.007812 C 33.667969 64.074219 33.53125 64.167969 33.414062 64.289062 C 33.292969 64.414062 33.203125 64.550781 33.136719 64.710938 C 33.074219 64.867188 33.039062 65.03125 33.039062 65.203125 C 33.039062 65.371094 33.074219 65.535156 33.136719 65.695312 C 33.203125 65.851562 33.292969 65.992188 33.414062 66.113281 C 33.53125 66.234375 33.667969 66.332031 33.828125 66.398438 C 33.984375 66.464844 34.144531 66.5 34.316406 66.503906 L 55.554688 66.503906 C 55.722656 66.5 55.886719 66.464844 56.042969 66.398438 C 56.199219 66.328125 56.339844 66.234375 56.457031 66.113281 C 56.578125 65.992188 56.667969 65.851562 56.734375 65.695312 C 56.796875 65.535156 56.828125 65.371094 56.828125 65.203125 C 56.828125 65.03125 56.796875 64.867188 56.734375 64.710938 C 56.667969 64.550781 56.578125 64.414062 56.457031 64.289062 C 56.339844 64.167969 56.199219 64.074219 56.042969 64.007812 C 55.886719 63.9375 55.722656 63.902344 55.554688 63.898438 Z M 55.554688 63.898438 "/><path style=" stroke:none;fill-rule:nonzero;fill:#ffffff;fill-opacity:1;" d="M 50.113281 69.167969 L 39.652344 69.167969 C 39.480469 69.167969 39.320312 69.207031 39.160156 69.273438 C 39.003906 69.339844 38.867188 69.433594 38.746094 69.554688 C 38.628906 69.679688 38.535156 69.816406 38.472656 69.976562 C 38.40625 70.132812 38.375 70.296875 38.375 70.46875 C 38.375 70.640625 38.40625 70.804688 38.472656 70.960938 C 38.535156 71.117188 38.628906 71.257812 38.75 71.378906 C 38.867188 71.5 39.003906 71.597656 39.160156 71.664062 C 39.320312 71.730469 39.480469 71.765625 39.652344 71.769531 L 50.113281 71.769531 C 50.285156 71.765625 50.449219 71.730469 50.605469 71.664062 C 50.761719 71.597656 50.898438 71.5 51.019531 71.378906 C 51.136719 71.257812 51.230469 71.117188 51.292969 70.960938 C 51.359375 70.804688 51.390625 70.640625 51.390625 70.46875 C 51.390625 70.296875 51.359375 70.132812 51.292969 69.976562 C 51.230469 69.816406 51.136719 69.679688 51.019531 69.558594 C 50.898438 69.433594 50.761719 69.339844 50.605469 69.273438 C 50.449219 69.207031 50.285156 69.167969 50.113281 69.167969 Z M 50.113281 69.167969 "/><g clip-rule="nonzero" clip-path="url(#b05e5866e1)"><path style=" stroke:none;fill-rule:nonzero;fill:#ffffff;fill-opacity:1;" d="M 46.90625 74.257812 L 42.859375 74.257812 C 42.691406 74.261719 42.527344 74.296875 42.371094 74.363281 C 42.214844 74.433594 42.074219 74.527344 41.957031 74.648438 C 41.835938 74.769531 41.746094 74.910156 41.679688 75.066406 C 41.617188 75.226562 41.582031 75.390625 41.582031 75.558594 C 41.582031 75.730469 41.617188 75.894531 41.679688 76.050781 C 41.746094 76.210938 41.835938 76.351562 41.957031 76.472656 C 42.074219 76.59375 42.214844 76.6875 42.371094 76.753906 C 42.527344 76.824219 42.691406 76.859375 42.859375 76.863281 L 46.90625 76.863281 C 47.074219 76.859375 47.238281 76.824219 47.394531 76.753906 C 47.550781 76.6875 47.691406 76.59375 47.808594 76.472656 C 47.929688 76.351562 48.019531 76.210938 48.085938 76.050781 C 48.148438 75.894531 48.183594 75.730469 48.183594 75.558594 C 48.183594 75.390625 48.148438 75.226562 48.085938 75.066406 C 48.019531 74.910156 47.929688 74.769531 47.808594 74.648438 C 47.691406 74.527344 47.550781 74.433594 47.394531 74.363281 C 47.238281 74.296875 47.074219 74.261719 46.90625 74.257812 Z M 46.90625 74.257812 "/></g></g></svg>