<svg xmlns="http://www.w3.org/2000/svg" xmlns:xlink="http://www.w3.org/1999/xlink" width="120" zoomAndPan="magnify" viewBox="0 0 90 89.999999" height="120" preserveAspectRatio="xMidYMid meet" version="1.2"><defs><clipPath id="259c372d7b"><path d="M 39 13.125 L 51 13.125 L 51 26 L 39 26 Z M 39 13.125 "/></clipPath><clipPath id="d5a22d44be"><path d="M 23 60 L 40 60 L 40 76.875 L 23 76.875 Z M 23 60 "/></clipPath><clipPath id="8dc2b68061"><path d="M 10.164062 56 L 23 56 L 23 69 L 10.164062 69 Z M 10.164062 56 "/></clipPath><clipPath id="6347c378e2"><path d="M 50 60 L 67 60 L 67 76.875 L 50 76.875 Z M 50 60 "/></clipPath><clipPath id="02c9269eaa"><path d="M 67 56 L 79.914062 56 L 79.914062 69 L 67 69 Z M 67 56 "/></clipPath></defs><g id="aaf2aad426"><path style=" stroke:none;fill-rule:nonzero;fill:#052a47;fill-opacity:1;" d="M 45 90 C 20.25 90 0 69.75 0 45 C 0 20.25 20.25 0 45 0 C 69.75 0 90 20.25 90 45 C 90 69.75 69.75 90 45 90 Z M 45 90 "/><path style=" stroke:none;fill-rule:nonzero;fill:#ffffff;fill-opacity:1;" d="M 63.421875 35.976562 C 64.015625 35.816406 64.5 35.4375 64.71875 34.898438 C 64.71875 34.84375 64.769531 34.84375 64.769531 34.789062 L 65.367188 32.84375 C 65.691406 32.089844 65.472656 31.167969 64.824219 30.628906 C 60.988281 27.332031 56.34375 25.066406 51.371094 24.039062 C 51.15625 24.308594 50.941406 24.578125 50.671875 24.847656 C 50.238281 25.28125 49.804688 25.660156 49.265625 25.984375 C 50.023438 26.089844 50.5625 26.144531 50.722656 26.144531 C 55.371094 27.117188 59.691406 29.222656 63.257812 32.195312 L 62.828125 33.707031 C 59.367188 31.007812 55.480469 29.171875 51.320312 28.144531 C 50.722656 28.035156 50.128906 28.359375 50.023438 28.953125 C 49.96875 29.117188 49.96875 29.332031 50.023438 29.496094 L 50.023438 35.003906 C 50.722656 34.84375 51.425781 34.734375 52.183594 34.734375 L 52.183594 30.628906 C 55.585938 31.65625 58.828125 33.277344 61.746094 35.597656 C 62.230469 35.976562 62.828125 36.085938 63.421875 35.976562 Z M 63.421875 35.976562 "/><path style=" stroke:none;fill-rule:nonzero;fill:#ffffff;fill-opacity:1;" d="M 25.0625 31.117188 C 24.523438 31.65625 24.304688 32.464844 24.578125 33.222656 L 25.117188 35.058594 C 25.117188 35.113281 25.117188 35.113281 25.171875 35.167969 C 25.386719 35.761719 25.925781 36.195312 26.519531 36.300781 C 26.628906 36.355469 26.792969 36.355469 26.953125 36.355469 C 27.441406 36.355469 27.871094 36.195312 28.25 35.871094 C 31.113281 33.332031 34.464844 31.492188 38.082031 30.46875 L 38.082031 34.734375 C 38.839844 34.789062 39.542969 34.898438 40.242188 35.058594 L 40.242188 29.496094 C 40.242188 29.441406 40.242188 29.332031 40.242188 29.277344 C 40.296875 29.117188 40.296875 28.953125 40.242188 28.847656 C 40.136719 28.253906 39.542969 27.875 38.945312 28.035156 C 34.625 29.007812 30.519531 31.0625 27.117188 33.980469 L 26.683594 32.574219 C 30.085938 29.332031 34.464844 27.0625 39.21875 26.089844 C 39.378906 26.089844 39.917969 25.984375 40.675781 25.929688 C 40.191406 25.605469 39.703125 25.226562 39.269531 24.847656 C 39 24.578125 38.785156 24.308594 38.570312 24.039062 C 33.4375 25.117188 28.734375 27.550781 25.0625 31.117188 Z M 25.0625 31.117188 "/><g clip-rule="nonzero" clip-path="url(#259c372d7b)"><path style=" stroke:none;fill-rule:nonzero;fill:#ffffff;fill-opacity:1;" d="M 44.996094 13.125 C 41.757812 13.125 39.109375 15.773438 39.109375 19.066406 C 39.109375 20.632812 39.703125 22.148438 40.839844 23.28125 C 41.972656 24.417969 43.429688 25.011719 44.996094 25.011719 C 46.566406 25.011719 48.078125 24.417969 49.15625 23.28125 C 50.292969 22.148438 50.886719 20.6875 50.886719 19.066406 C 50.886719 15.773438 48.238281 13.125 44.996094 13.125 Z M 47.644531 21.769531 C 46.941406 22.472656 46.023438 22.847656 44.996094 22.847656 C 44.027344 22.847656 43.054688 22.472656 42.351562 21.769531 C 41.648438 21.066406 41.269531 20.09375 41.269531 19.066406 C 41.269531 16.960938 42.945312 15.285156 44.996094 15.285156 C 47.050781 15.285156 48.726562 16.960938 48.726562 19.066406 C 48.726562 20.09375 48.347656 21.011719 47.644531 21.769531 Z M 47.644531 21.769531 "/></g><path style=" stroke:none;fill-rule:nonzero;fill:#ffffff;fill-opacity:1;" d="M 22.578125 53.050781 C 22.683594 53.644531 23.226562 54.023438 23.820312 53.96875 C 24.035156 53.914062 24.199219 53.859375 24.304688 53.753906 C 24.304688 53.753906 24.359375 53.753906 24.359375 53.753906 L 27.386719 52.402344 L 27.222656 52.183594 C 27.167969 52.132812 27.167969 52.078125 27.117188 52.023438 L 26.898438 51.644531 C 26.84375 51.589844 26.792969 51.484375 26.792969 51.429688 C 26.628906 51.105469 26.519531 50.78125 26.359375 50.457031 L 24.523438 51.265625 C 24.199219 47.703125 24.523438 44.027344 25.601562 40.460938 C 25.765625 39.867188 25.65625 39.273438 25.332031 38.785156 C 24.953125 38.300781 24.414062 37.976562 23.820312 37.976562 C 23.765625 37.976562 23.765625 37.976562 23.710938 37.976562 L 21.660156 38.140625 C 20.847656 38.140625 20.09375 38.679688 19.820312 39.488281 C 18.203125 44.351562 17.824219 49.59375 18.742188 54.671875 C 19.660156 54.941406 20.523438 55.371094 21.28125 55.914062 C 21.066406 55.15625 20.902344 54.5625 20.902344 54.453125 C 20.039062 49.699219 20.363281 44.839844 21.875 40.355469 L 23.550781 40.246094 C 22.199219 44.460938 21.929688 48.78125 22.578125 53.050781 Z M 22.578125 53.050781 "/><g clip-rule="nonzero" clip-path="url(#d5a22d44be)"><path style=" stroke:none;fill-rule:nonzero;fill:#ffffff;fill-opacity:1;" d="M 25.171875 65.257812 C 25.117188 65.152344 24.792969 64.609375 24.414062 63.910156 C 24.304688 64.503906 24.144531 65.042969 23.875 65.636719 C 23.710938 65.960938 23.550781 66.285156 23.386719 66.554688 C 26.414062 71.039062 30.464844 74.550781 35.21875 76.714844 C 35.488281 76.820312 35.757812 76.875 36.03125 76.875 C 36.515625 76.875 37.003906 76.714844 37.378906 76.390625 L 38.894531 75.199219 C 38.945312 75.199219 38.945312 75.144531 39 75.144531 C 39.433594 74.714844 39.648438 74.066406 39.59375 73.472656 C 39.542969 72.878906 39.109375 72.335938 38.570312 72.011719 C 35.109375 70.285156 32.085938 67.746094 29.761719 64.71875 L 35.273438 62.019531 L 33.816406 60.289062 L 27.980469 63.152344 C 27.925781 63.152344 27.925781 63.207031 27.871094 63.207031 C 27.710938 63.207031 27.546875 63.261719 27.441406 63.367188 C 26.953125 63.691406 26.84375 64.394531 27.167969 64.882812 C 29.707031 68.609375 33.21875 71.6875 37.273438 73.796875 L 36.082031 74.714844 C 31.707031 72.660156 27.925781 69.417969 25.171875 65.257812 Z M 25.171875 65.257812 "/></g><g clip-rule="nonzero" clip-path="url(#8dc2b68061)"><path style=" stroke:none;fill-rule:nonzero;fill:#ffffff;fill-opacity:1;" d="M 16.417969 68.445312 C 17.175781 68.445312 17.929688 68.285156 18.632812 68.015625 C 20.144531 67.421875 21.28125 66.285156 21.929688 64.828125 C 22.578125 63.367188 22.578125 61.746094 21.984375 60.234375 C 20.742188 57.15625 17.28125 55.695312 14.203125 56.886719 C 12.691406 57.480469 11.554688 58.613281 10.90625 60.074219 C 10.257812 61.53125 10.257812 63.152344 10.855469 64.664062 C 11.773438 66.988281 14.042969 68.445312 16.417969 68.445312 Z M 12.90625 60.9375 C 13.285156 60.019531 14.042969 59.261719 15.015625 58.882812 C 15.5 58.722656 15.984375 58.613281 16.417969 58.613281 C 17.929688 58.613281 19.390625 59.53125 19.984375 60.992188 C 20.363281 61.910156 20.363281 62.992188 19.929688 63.910156 C 19.550781 64.828125 18.796875 65.582031 17.824219 65.960938 C 15.878906 66.71875 13.609375 65.800781 12.851562 63.855469 C 12.476562 62.9375 12.476562 61.910156 12.90625 60.9375 Z M 12.90625 60.9375 "/></g><path style=" stroke:none;fill-rule:nonzero;fill:#ffffff;fill-opacity:1;" d="M 68.824219 55.859375 C 69.578125 55.320312 70.445312 54.886719 71.363281 54.617188 C 72.28125 49.539062 71.902344 44.296875 70.28125 39.433594 C 70.011719 38.625 69.253906 38.085938 68.445312 38.085938 L 66.390625 37.921875 C 66.339844 37.921875 66.339844 37.921875 66.285156 37.921875 C 65.691406 37.921875 65.148438 38.246094 64.769531 38.734375 C 64.394531 39.21875 64.285156 39.8125 64.5 40.40625 C 65.582031 44.027344 65.90625 47.648438 65.582031 51.214844 L 63.746094 50.402344 C 63.636719 50.726562 63.472656 51.050781 63.3125 51.375 C 63.257812 51.429688 63.257812 51.535156 63.203125 51.589844 L 62.878906 52.023438 C 62.828125 52.078125 62.828125 52.132812 62.773438 52.183594 L 62.609375 52.402344 L 65.636719 53.753906 C 65.636719 53.753906 65.691406 53.753906 65.691406 53.753906 C 65.851562 53.859375 66.015625 53.96875 66.175781 53.96875 C 66.769531 54.078125 67.308594 53.644531 67.417969 53.050781 C 68.066406 48.78125 67.796875 44.40625 66.554688 40.136719 L 68.230469 40.246094 C 69.742188 44.730469 70.066406 49.59375 69.203125 54.347656 C 69.148438 54.507812 69.039062 55.101562 68.824219 55.859375 Z M 68.824219 55.859375 "/><g clip-rule="nonzero" clip-path="url(#6347c378e2)"><path style=" stroke:none;fill-rule:nonzero;fill:#ffffff;fill-opacity:1;" d="M 66.066406 65.636719 C 65.851562 65.097656 65.691406 64.503906 65.527344 63.910156 C 65.148438 64.609375 64.878906 65.152344 64.769531 65.257812 C 62.015625 69.417969 58.234375 72.660156 53.914062 74.660156 L 52.722656 73.742188 C 56.777344 71.632812 60.234375 68.554688 62.828125 64.828125 C 63.152344 64.339844 63.042969 63.640625 62.554688 63.316406 C 62.449219 63.207031 62.285156 63.152344 62.125 63.152344 C 62.070312 63.152344 62.070312 63.097656 62.015625 63.097656 L 56.179688 60.234375 L 54.722656 61.964844 L 60.234375 64.664062 C 57.964844 67.691406 54.9375 70.230469 51.480469 71.957031 C 50.941406 72.230469 50.507812 72.769531 50.453125 73.417969 C 50.402344 74.066406 50.5625 74.660156 51.046875 75.09375 C 51.101562 75.09375 51.101562 75.144531 51.15625 75.144531 L 52.667969 76.335938 C 53.046875 76.660156 53.535156 76.820312 54.019531 76.820312 C 54.289062 76.820312 54.558594 76.765625 54.832031 76.660156 C 59.585938 74.496094 63.636719 70.984375 66.660156 66.503906 C 66.390625 66.285156 66.230469 65.960938 66.066406 65.636719 Z M 66.066406 65.636719 "/></g><g clip-rule="nonzero" clip-path="url(#02c9269eaa)"><path style=" stroke:none;fill-rule:nonzero;fill:#ffffff;fill-opacity:1;" d="M 75.792969 56.886719 C 72.714844 55.644531 69.203125 57.15625 68.011719 60.234375 C 67.417969 61.695312 67.417969 63.316406 68.066406 64.828125 C 68.714844 66.285156 69.847656 67.421875 71.363281 68.015625 C 72.066406 68.285156 72.820312 68.445312 73.578125 68.445312 C 75.953125 68.445312 78.222656 67.042969 79.140625 64.71875 C 79.734375 63.261719 79.734375 61.640625 79.089844 60.128906 C 78.441406 58.613281 77.304688 57.480469 75.792969 56.886719 Z M 77.144531 63.855469 C 76.332031 65.800781 74.117188 66.773438 72.171875 65.960938 C 71.199219 65.582031 70.496094 64.882812 70.066406 63.910156 C 69.6875 62.992188 69.632812 61.964844 70.011719 60.992188 C 70.605469 59.480469 72.066406 58.613281 73.578125 58.613281 C 74.0625 58.613281 74.550781 58.722656 74.980469 58.882812 C 75.953125 59.261719 76.65625 59.964844 77.089844 60.9375 C 77.519531 61.910156 77.519531 62.9375 77.144531 63.855469 Z M 77.144531 63.855469 "/></g><path style=" stroke:none;fill-rule:nonzero;fill:#ffffff;fill-opacity:1;" d="M 60.125 52.238281 L 61.042969 50.941406 C 61.042969 50.941406 61.042969 50.890625 61.097656 50.890625 L 61.3125 50.511719 C 61.3125 50.511719 61.367188 50.457031 61.367188 50.457031 C 62.070312 49.105469 62.394531 47.648438 62.339844 46.082031 C 62.230469 41.164062 58.070312 37.113281 52.941406 36.894531 C 49.699219 36.734375 46.890625 38.570312 45.050781 40.679688 C 43.214844 38.570312 40.40625 36.734375 37.164062 36.894531 C 32.03125 37.167969 27.871094 41.164062 27.765625 46.082031 C 27.710938 47.59375 28.035156 49.050781 28.734375 50.457031 C 28.734375 50.457031 28.734375 50.511719 28.789062 50.511719 L 29.007812 50.890625 C 29.007812 50.890625 29.007812 50.941406 29.058594 50.941406 L 29.980469 52.238281 C 29.980469 52.292969 30.03125 52.347656 30.085938 52.347656 L 43.808594 68.769531 C 44.132812 69.09375 44.566406 69.3125 44.996094 69.3125 C 45.429688 69.3125 45.863281 69.09375 46.242188 68.769531 L 60.070312 52.347656 C 60.070312 52.292969 60.070312 52.292969 60.125 52.238281 Z M 58.34375 50.996094 L 44.996094 66.828125 L 31.652344 50.996094 L 30.789062 49.753906 L 30.628906 49.484375 C 30.085938 48.457031 29.871094 47.324219 29.925781 46.1875 C 30.03125 42.460938 33.328125 39.273438 37.273438 39.109375 C 40.242188 38.949219 42.78125 41.054688 44.1875 43.109375 C 44.402344 43.378906 44.726562 43.59375 45.050781 43.59375 C 45.375 43.59375 45.753906 43.433594 45.917969 43.109375 C 47.320312 41.109375 49.859375 39.003906 52.832031 39.109375 C 56.777344 39.328125 60.070312 42.515625 60.179688 46.1875 C 60.234375 47.324219 59.964844 48.457031 59.476562 49.484375 Z M 58.34375 50.996094 "/></g></svg>