<svg xmlns="http://www.w3.org/2000/svg" xmlns:xlink="http://www.w3.org/1999/xlink" width="250" zoomAndPan="magnify" viewBox="0 0 187.5 187.499992" height="250" preserveAspectRatio="xMidYMid meet" version="1.0"><defs><g/><clipPath id="a4530392ae"><path d="M 89 86 L 98 86 L 98 101.152344 L 89 101.152344 Z M 89 86 " clip-rule="nonzero"/></clipPath><clipPath id="3a6aad5626"><path d="M 48.621094 50 L 64 50 L 64 65 L 48.621094 65 Z M 48.621094 50 " clip-rule="nonzero"/></clipPath><clipPath id="4909f3a429"><path d="M 87 11.394531 L 98 11.394531 L 98 26 L 87 26 Z M 87 11.394531 " clip-rule="nonzero"/></clipPath><clipPath id="2ac11eda4b"><path d="M 132 49.035156 L 138.363281 49.035156 L 138.363281 63.511719 L 132 63.511719 Z M 132 49.035156 " clip-rule="nonzero"/></clipPath></defs><g clip-path="url(#a4530392ae)"><path fill="#ffffff" d="M 93.488281 89.570312 C 94.285156 89.570312 94.9375 90.222656 94.9375 91.019531 L 97.832031 91.019531 C 97.832031 88.621094 95.886719 86.675781 93.488281 86.675781 C 91.097656 86.675781 89.144531 88.621094 89.144531 91.019531 C 89.144531 93.417969 91.097656 95.363281 93.488281 95.363281 C 94.285156 95.363281 94.9375 96.011719 94.9375 96.8125 C 94.9375 97.609375 94.285156 98.257812 93.488281 98.257812 C 92.691406 98.257812 92.042969 97.609375 92.042969 96.8125 L 89.144531 96.8125 C 89.144531 99.207031 91.097656 101.152344 93.488281 101.152344 C 95.886719 101.152344 97.832031 99.207031 97.832031 96.8125 C 97.832031 94.414062 95.886719 92.46875 93.488281 92.46875 C 92.691406 92.46875 92.042969 91.816406 92.042969 91.019531 C 92.042969 90.222656 92.691406 89.570312 93.488281 89.570312 " fill-opacity="1" fill-rule="nonzero"/></g><g clip-path="url(#3a6aad5626)"><path fill="#ffffff" d="M 55.535156 57.976562 C 55.597656 57.683594 56.101562 57.683594 56.164062 57.976562 L 57.5625 64.960938 L 61.484375 64.960938 L 63.082031 50.640625 L 60.203125 50.324219 L 59.269531 58.738281 L 59.003906 57.410156 C 58.703125 55.910156 57.375 54.824219 55.847656 54.824219 C 54.320312 54.824219 52.996094 55.910156 52.699219 57.410156 L 52.433594 58.738281 L 51.5 50.324219 L 48.621094 50.640625 L 50.210938 64.960938 L 54.140625 64.960938 L 55.535156 57.976562 " fill-opacity="1" fill-rule="nonzero"/></g><g clip-path="url(#4909f3a429)"><path fill="#ffffff" d="M 90.59375 16.964844 L 93.9375 25.871094 L 97.832031 25.871094 L 97.832031 11.394531 L 94.9375 11.394531 L 94.9375 20.300781 L 91.601562 11.394531 L 87.699219 11.394531 L 87.699219 25.871094 L 90.59375 25.871094 L 90.59375 16.964844 " fill-opacity="1" fill-rule="nonzero"/></g><g clip-path="url(#2ac11eda4b)"><path fill="#ffffff" d="M 138.371094 51.929688 L 138.371094 49.035156 L 132.578125 49.035156 L 132.578125 63.511719 L 138.371094 63.511719 L 138.371094 60.617188 L 135.472656 60.617188 L 135.472656 57.722656 L 138.371094 57.722656 L 138.371094 54.824219 L 135.472656 54.824219 L 135.472656 51.929688 L 138.371094 51.929688 " fill-opacity="1" fill-rule="nonzero"/></g><path fill="#ffffff" d="M 131.351562 66.039062 C 129.707031 72.449219 126.480469 78.195312 122.132812 82.871094 L 118.011719 78.746094 C 121.132812 75.355469 123.574219 71.324219 125.070312 66.859375 L 122.324219 65.945312 C 119.015625 75.808594 110.679688 83.4375 100.574219 85.84375 L 101.242188 88.667969 C 106.789062 87.339844 111.851562 84.585938 115.976562 80.804688 L 120.085938 84.917969 C 114.71875 89.90625 107.960938 93.390625 100.492188 94.742188 L 101.003906 97.585938 C 117.070312 94.683594 130.085938 82.582031 134.15625 66.765625 L 131.351562 66.039062 " fill-opacity="1" fill-rule="nonzero"/><path fill="#ffffff" d="M 55.28125 47.996094 C 56.785156 41.011719 60.175781 34.734375 64.855469 29.6875 L 68.960938 33.792969 C 65.472656 37.601562 62.835938 42.207031 61.417969 47.296875 L 64.207031 48.078125 C 67.046875 37.910156 75.121094 29.828125 85.289062 26.992188 L 84.515625 24.203125 C 79.417969 25.621094 74.816406 28.257812 71.015625 31.746094 L 66.902344 27.640625 C 71.949219 22.953125 78.21875 19.570312 85.210938 18.0625 L 84.59375 15.234375 C 68.53125 18.699219 55.910156 31.324219 52.449219 47.390625 L 55.28125 47.996094 " fill-opacity="1" fill-rule="nonzero"/><path fill="#ffffff" d="M 101.175781 23.863281 L 100.507812 26.683594 C 110.601562 29.070312 118.949219 36.660156 122.292969 46.496094 L 125.027344 45.566406 C 123.53125 41.152344 121.105469 37.164062 118.011719 33.800781 L 122.132812 29.675781 C 126.480469 34.355469 129.707031 40.105469 131.351562 46.5 L 134.15625 45.78125 C 130.097656 30 117.121094 17.910156 101.101562 14.980469 L 100.582031 17.824219 C 108.011719 19.1875 114.734375 22.664062 120.085938 27.636719 L 115.976562 31.746094 C 111.828125 27.945312 106.746094 25.179688 101.175781 23.863281 " fill-opacity="1" fill-rule="nonzero"/><path fill="#ffffff" d="M 86.125 88.757812 L 86.765625 85.929688 C 76.917969 83.707031 68.84375 76.75 65.160156 67.328125 L 62.464844 68.382812 C 63.984375 72.277344 66.195312 75.789062 68.933594 78.78125 L 64.886719 82.832031 C 60.847656 78.5 57.753906 73.261719 56.023438 67.441406 L 53.246094 68.269531 C 57.726562 83.3125 70.589844 94.824219 86.023438 97.597656 L 86.539062 94.746094 C 79.109375 93.410156 72.332031 89.894531 66.933594 84.878906 L 70.992188 80.824219 C 75.199219 84.679688 80.386719 87.457031 86.125 88.757812 " fill-opacity="1" fill-rule="nonzero"/><path fill="#ffffff" d="M 124.316406 89.148438 L 133.003906 97.835938 L 135.050781 95.785156 L 126.363281 87.101562 L 124.316406 89.148438 " fill-opacity="1" fill-rule="nonzero"/><path fill="#ffffff" d="M 135.050781 16.761719 L 133.003906 14.714844 L 124.316406 23.398438 L 126.363281 25.445312 L 135.050781 16.761719 " fill-opacity="1" fill-rule="nonzero"/><path fill="#ffffff" d="M 62.664062 23.398438 L 53.976562 14.714844 L 51.929688 16.761719 L 60.613281 25.445312 L 62.664062 23.398438 " fill-opacity="1" fill-rule="nonzero"/><path fill="#ffffff" d="M 51.929688 95.785156 L 53.976562 97.835938 L 62.664062 89.148438 L 60.613281 87.101562 L 51.929688 95.785156 " fill-opacity="1" fill-rule="nonzero"/><path fill="#ffffff" d="M 93.886719 80.574219 L 96.816406 68.855469 C 95.75 69.140625 94.644531 69.304688 93.488281 69.304688 C 92.339844 69.304688 91.234375 69.140625 90.167969 68.855469 L 93.097656 80.574219 C 93.191406 80.941406 93.792969 80.941406 93.886719 80.574219 " fill-opacity="1" fill-rule="nonzero"/><path fill="#ffffff" d="M 89.117188 63.511719 L 86.414062 63.511719 C 87.496094 64.570312 88.8125 65.382812 90.277344 65.875 C 89.882812 65.191406 89.484375 64.40625 89.117188 63.511719 " fill-opacity="1" fill-rule="nonzero"/><path fill="#ffffff" d="M 99.230469 54.824219 L 103.511719 54.824219 C 103.363281 53.800781 103.0625 52.828125 102.632812 51.929688 L 98.78125 51.929688 C 98.992188 52.835938 99.148438 53.796875 99.230469 54.824219 " fill-opacity="1" fill-rule="nonzero"/><path fill="#ffffff" d="M 90.277344 46.671875 C 88.8125 47.164062 87.496094 47.976562 86.414062 49.035156 L 89.117188 49.035156 C 89.484375 48.140625 89.882812 47.355469 90.277344 46.671875 " fill-opacity="1" fill-rule="nonzero"/><path fill="#ffffff" d="M 103.804688 48.339844 L 106.179688 43.582031 L 101.421875 45.964844 C 102.316406 46.648438 103.113281 47.445312 103.804688 48.339844 " fill-opacity="1" fill-rule="nonzero"/><path fill="#ffffff" d="M 83.179688 64.207031 L 80.804688 68.964844 L 85.554688 66.582031 C 84.667969 65.898438 83.871094 65.101562 83.179688 64.207031 " fill-opacity="1" fill-rule="nonzero"/><path fill="#ffffff" d="M 88.203125 51.929688 L 84.351562 51.929688 C 83.921875 52.828125 83.621094 53.800781 83.472656 54.824219 L 87.753906 54.824219 C 87.835938 53.796875 87.992188 52.835938 88.203125 51.929688 " fill-opacity="1" fill-rule="nonzero"/><path fill="#ffffff" d="M 69.1875 55.878906 C 69.007812 55.921875 68.878906 56.085938 68.878906 56.273438 C 68.878906 56.460938 69.007812 56.625 69.1875 56.667969 L 80.90625 59.597656 C 80.625 58.535156 80.460938 57.421875 80.460938 56.273438 C 80.460938 55.125 80.625 54.011719 80.90625 52.949219 L 69.1875 55.878906 " fill-opacity="1" fill-rule="nonzero"/><path fill="#ffffff" d="M 87.753906 57.722656 L 83.472656 57.722656 C 83.621094 58.746094 83.921875 59.71875 84.351562 60.617188 L 88.203125 60.617188 C 87.992188 59.710938 87.835938 58.75 87.753906 57.722656 " fill-opacity="1" fill-rule="nonzero"/><path fill="#ffffff" d="M 97.867188 49.035156 L 100.570312 49.035156 C 99.488281 47.976562 98.171875 47.164062 96.707031 46.671875 C 97.097656 47.355469 97.5 48.140625 97.867188 49.035156 " fill-opacity="1" fill-rule="nonzero"/><path fill="#ffffff" d="M 97.867188 63.511719 C 97.5 64.40625 97.097656 65.191406 96.707031 65.875 C 98.171875 65.382812 99.488281 64.570312 100.570312 63.511719 L 97.867188 63.511719 " fill-opacity="1" fill-rule="nonzero"/><path fill="#ffffff" d="M 103.804688 64.207031 C 103.113281 65.101562 102.316406 65.898438 101.421875 66.582031 L 106.179688 68.964844 L 103.804688 64.207031 " fill-opacity="1" fill-rule="nonzero"/><path fill="#ffffff" d="M 93.097656 31.972656 L 90.167969 43.691406 C 91.234375 43.40625 92.339844 43.242188 93.488281 43.242188 C 94.644531 43.242188 95.75 43.40625 96.816406 43.691406 L 93.886719 31.972656 C 93.792969 31.605469 93.191406 31.605469 93.097656 31.972656 " fill-opacity="1" fill-rule="nonzero"/><path fill="#ffffff" d="M 118.101562 56.273438 C 118.101562 56.085938 117.976562 55.921875 117.796875 55.878906 L 106.074219 52.949219 C 106.355469 54.011719 106.519531 55.125 106.519531 56.273438 C 106.519531 57.421875 106.355469 58.535156 106.074219 59.597656 L 117.796875 56.667969 C 117.976562 56.625 118.101562 56.460938 118.101562 56.273438 " fill-opacity="1" fill-rule="nonzero"/><path fill="#ffffff" d="M 83.179688 48.339844 C 83.871094 47.445312 84.667969 46.648438 85.554688 45.964844 L 80.804688 43.582031 L 83.179688 48.339844 " fill-opacity="1" fill-rule="nonzero"/><path fill="#ffffff" d="M 103.511719 57.722656 L 99.230469 57.722656 C 99.148438 58.75 98.992188 59.710938 98.78125 60.617188 L 102.632812 60.617188 C 103.0625 59.71875 103.363281 58.746094 103.511719 57.722656 " fill-opacity="1" fill-rule="nonzero"/><path fill="#ffffff" d="M 92.308594 49.035156 L 94.675781 49.035156 C 94.269531 48.21875 93.855469 47.542969 93.488281 47.015625 C 93.128906 47.542969 92.714844 48.21875 92.308594 49.035156 " fill-opacity="1" fill-rule="nonzero"/><path fill="#ffffff" d="M 90.667969 54.824219 L 96.316406 54.824219 C 96.222656 53.785156 96.039062 52.8125 95.792969 51.929688 L 91.191406 51.929688 C 90.945312 52.8125 90.761719 53.785156 90.667969 54.824219 " fill-opacity="1" fill-rule="nonzero"/><path fill="#ffffff" d="M 94.675781 63.511719 L 92.308594 63.511719 C 92.714844 64.328125 93.128906 65.003906 93.488281 65.53125 C 93.855469 65.003906 94.269531 64.332031 94.675781 63.511719 " fill-opacity="1" fill-rule="nonzero"/><path fill="#ffffff" d="M 95.792969 60.617188 C 96.039062 59.734375 96.222656 58.761719 96.316406 57.722656 L 90.667969 57.722656 C 90.761719 58.761719 90.945312 59.734375 91.191406 60.617188 L 95.792969 60.617188 " fill-opacity="1" fill-rule="nonzero"/><g fill="#ffffff" fill-opacity="1"><g transform="translate(58.534338, 130.229213)"><g><path d="M 10.859375 0 L 1.875 0 L 1.875 -14.109375 L 10.625 -14.109375 L 10.625 -12.84375 L 3.3125 -12.84375 L 3.3125 -7.96875 L 10.140625 -7.96875 L 10.140625 -6.71875 L 3.3125 -6.71875 L 3.3125 -1.28125 L 10.859375 -1.28125 Z M 10.859375 0 "/></g></g></g><g fill="#ffffff" fill-opacity="1"><g transform="translate(70.338191, 130.229213)"><g><path d="M 1.953125 0 L 0.3125 0 L 3.984375 -4.828125 L 0.53125 -9.34375 L 2.265625 -9.34375 L 4.828125 -5.78125 L 7.375 -9.34375 L 9.015625 -9.34375 L 5.625 -4.890625 L 9.328125 0 L 7.578125 0 L 4.8125 -3.890625 Z M 1.953125 0 "/></g></g></g><g fill="#ffffff" fill-opacity="1"><g transform="translate(79.988641, 130.229213)"><g><path d="M 1.796875 4.78125 L 1.796875 -9.34375 L 3.15625 -9.34375 L 3.15625 -7.71875 L 3.203125 -7.71875 C 3.578125 -8.300781 4.082031 -8.753906 4.71875 -9.078125 C 5.363281 -9.398438 6.03125 -9.5625 6.71875 -9.5625 C 7.664062 -9.5625 8.503906 -9.347656 9.234375 -8.921875 C 9.972656 -8.492188 10.539062 -7.90625 10.9375 -7.15625 C 11.34375 -6.414062 11.546875 -5.585938 11.546875 -4.671875 C 11.546875 -3.753906 11.34375 -2.921875 10.9375 -2.171875 C 10.539062 -1.429688 9.972656 -0.84375 9.234375 -0.40625 C 8.503906 0.0195312 7.664062 0.234375 6.71875 0.234375 C 6.039062 0.234375 5.378906 0.078125 4.734375 -0.234375 C 4.097656 -0.554688 3.585938 -1.003906 3.203125 -1.578125 L 3.15625 -1.578125 L 3.15625 4.78125 Z M 6.578125 -0.921875 C 7.304688 -0.921875 7.9375 -1.082031 8.46875 -1.40625 C 9 -1.738281 9.40625 -2.1875 9.6875 -2.75 C 9.96875 -3.320312 10.109375 -3.960938 10.109375 -4.671875 C 10.109375 -5.367188 9.96875 -6.003906 9.6875 -6.578125 C 9.40625 -7.148438 9 -7.601562 8.46875 -7.9375 C 7.9375 -8.269531 7.304688 -8.4375 6.578125 -8.4375 C 5.890625 -8.4375 5.269531 -8.269531 4.71875 -7.9375 C 4.175781 -7.601562 3.75 -7.148438 3.4375 -6.578125 C 3.132812 -6.003906 2.984375 -5.367188 2.984375 -4.671875 C 2.984375 -3.960938 3.132812 -3.320312 3.4375 -2.75 C 3.75 -2.175781 4.175781 -1.726562 4.71875 -1.40625 C 5.269531 -1.082031 5.890625 -0.921875 6.578125 -0.921875 Z M 6.578125 -0.921875 "/></g></g></g><g fill="#ffffff" fill-opacity="1"><g transform="translate(92.649865, 130.229213)"><g><path d="M 3.1875 0 L 1.828125 0 L 1.828125 -15.078125 L 3.1875 -15.078125 Z M 3.1875 0 "/></g></g></g><g fill="#ffffff" fill-opacity="1"><g transform="translate(97.674475, 130.229213)"><g><path d="M 6.078125 0.234375 C 5.140625 0.234375 4.289062 0.0234375 3.53125 -0.390625 C 2.769531 -0.816406 2.175781 -1.398438 1.75 -2.140625 C 1.320312 -2.890625 1.109375 -3.734375 1.109375 -4.671875 C 1.109375 -5.597656 1.320312 -6.429688 1.75 -7.171875 C 2.175781 -7.921875 2.769531 -8.503906 3.53125 -8.921875 C 4.289062 -9.347656 5.140625 -9.5625 6.078125 -9.5625 C 7.035156 -9.5625 7.894531 -9.347656 8.65625 -8.921875 C 9.414062 -8.503906 10.003906 -7.921875 10.421875 -7.171875 C 10.847656 -6.429688 11.0625 -5.597656 11.0625 -4.671875 C 11.0625 -3.734375 10.847656 -2.890625 10.421875 -2.140625 C 10.003906 -1.398438 9.414062 -0.816406 8.65625 -0.390625 C 7.894531 0.0234375 7.035156 0.234375 6.078125 0.234375 Z M 6.078125 -0.921875 C 6.785156 -0.921875 7.40625 -1.082031 7.9375 -1.40625 C 8.476562 -1.738281 8.894531 -2.1875 9.1875 -2.75 C 9.476562 -3.320312 9.625 -3.960938 9.625 -4.671875 C 9.625 -5.367188 9.476562 -6.003906 9.1875 -6.578125 C 8.894531 -7.148438 8.476562 -7.601562 7.9375 -7.9375 C 7.40625 -8.269531 6.785156 -8.4375 6.078125 -8.4375 C 5.378906 -8.4375 4.757812 -8.269531 4.21875 -7.9375 C 3.6875 -7.601562 3.273438 -7.148438 2.984375 -6.578125 C 2.691406 -6.003906 2.546875 -5.367188 2.546875 -4.671875 C 2.546875 -3.960938 2.691406 -3.320312 2.984375 -2.75 C 3.273438 -2.1875 3.6875 -1.738281 4.21875 -1.40625 C 4.757812 -1.082031 5.378906 -0.921875 6.078125 -0.921875 Z M 6.078125 -0.921875 "/></g></g></g><g fill="#ffffff" fill-opacity="1"><g transform="translate(109.85717, 130.229213)"><g><path d="M 1.796875 -7.28125 C 1.796875 -8.09375 1.769531 -8.78125 1.71875 -9.34375 L 3.015625 -9.34375 C 3.066406 -8.6875 3.09375 -8.148438 3.09375 -7.734375 L 3.125 -7.734375 C 3.394531 -8.273438 3.796875 -8.710938 4.328125 -9.046875 C 4.867188 -9.390625 5.46875 -9.5625 6.125 -9.5625 C 6.476562 -9.5625 6.773438 -9.53125 7.015625 -9.46875 L 6.84375 -8.1875 C 6.757812 -8.21875 6.617188 -8.242188 6.421875 -8.265625 C 6.234375 -8.296875 6.050781 -8.3125 5.875 -8.3125 C 5.375 -8.3125 4.914062 -8.1875 4.5 -7.9375 C 4.09375 -7.6875 3.765625 -7.296875 3.515625 -6.765625 C 3.273438 -6.242188 3.15625 -5.582031 3.15625 -4.78125 L 3.15625 0 L 1.796875 0 Z M 1.796875 -7.28125 "/></g></g></g><g fill="#ffffff" fill-opacity="1"><g transform="translate(117.035195, 130.229213)"><g><path d="M 5.9375 0.234375 C 5.019531 0.234375 4.195312 0.0234375 3.46875 -0.390625 C 2.738281 -0.816406 2.160156 -1.398438 1.734375 -2.140625 C 1.316406 -2.890625 1.109375 -3.734375 1.109375 -4.671875 C 1.109375 -5.585938 1.316406 -6.421875 1.734375 -7.171875 C 2.148438 -7.921875 2.710938 -8.503906 3.421875 -8.921875 C 4.140625 -9.347656 4.941406 -9.5625 5.828125 -9.5625 C 6.765625 -9.5625 7.566406 -9.359375 8.234375 -8.953125 C 8.910156 -8.554688 9.421875 -8.003906 9.765625 -7.296875 C 10.109375 -6.585938 10.28125 -5.800781 10.28125 -4.9375 C 10.28125 -4.675781 10.273438 -4.46875 10.265625 -4.3125 L 2.53125 -4.3125 C 2.539062 -3.6875 2.695312 -3.113281 3 -2.59375 C 3.300781 -2.082031 3.707031 -1.675781 4.21875 -1.375 C 4.738281 -1.070312 5.3125 -0.921875 5.9375 -0.921875 C 6.59375 -0.921875 7.1875 -1.078125 7.71875 -1.390625 C 8.25 -1.703125 8.65625 -2.082031 8.9375 -2.53125 L 9.953125 -1.734375 C 8.910156 -0.421875 7.570312 0.234375 5.9375 0.234375 Z M 8.90625 -5.390625 C 8.882812 -5.984375 8.75 -6.507812 8.5 -6.96875 C 8.257812 -7.425781 7.910156 -7.785156 7.453125 -8.046875 C 6.992188 -8.304688 6.453125 -8.4375 5.828125 -8.4375 C 5.234375 -8.4375 4.691406 -8.296875 4.203125 -8.015625 C 3.722656 -7.734375 3.335938 -7.359375 3.046875 -6.890625 C 2.753906 -6.421875 2.585938 -5.921875 2.546875 -5.390625 Z M 8.90625 -5.390625 "/></g></g></g><g fill="#ffffff" fill-opacity="1"><g transform="translate(35.945163, 150.285417)"><g><path d="M 2.640625 0.078125 C 2.265625 0.078125 1.929688 -0.03125 1.640625 -0.25 C 1.347656 -0.476562 1.203125 -0.867188 1.203125 -1.421875 L 1.203125 -4.9375 L 0.046875 -4.9375 L 0.046875 -5.609375 L 1.203125 -5.609375 L 1.203125 -7.1875 L 2.015625 -7.1875 L 2.015625 -5.609375 L 3.609375 -5.609375 L 3.609375 -4.9375 L 2.015625 -4.9375 L 2.015625 -1.65625 C 2.015625 -1.257812 2.085938 -0.988281 2.234375 -0.84375 C 2.378906 -0.695312 2.585938 -0.625 2.859375 -0.625 C 2.972656 -0.625 3.09375 -0.640625 3.21875 -0.671875 C 3.34375 -0.703125 3.457031 -0.742188 3.5625 -0.796875 L 3.609375 -0.09375 C 3.304688 0.0195312 2.984375 0.078125 2.640625 0.078125 Z M 2.640625 0.078125 "/></g></g></g><g fill="#ffffff" fill-opacity="1"><g transform="translate(39.73905, 150.285417)"><g><path d="M 1.09375 0 L 1.09375 -9.046875 L 1.921875 -9.046875 L 1.921875 -4.6875 L 1.9375 -4.6875 C 2.082031 -5 2.332031 -5.253906 2.6875 -5.453125 C 3.039062 -5.648438 3.414062 -5.75 3.8125 -5.75 C 4.507812 -5.75 5.039062 -5.539062 5.40625 -5.125 C 5.769531 -4.707031 5.953125 -4.144531 5.953125 -3.4375 L 5.953125 0 L 5.140625 0 L 5.140625 -3.09375 C 5.140625 -3.726562 5.023438 -4.210938 4.796875 -4.546875 C 4.566406 -4.890625 4.171875 -5.0625 3.609375 -5.0625 C 3.304688 -5.0625 3.023438 -4.976562 2.765625 -4.8125 C 2.515625 -4.65625 2.3125 -4.410156 2.15625 -4.078125 C 2 -3.753906 1.921875 -3.351562 1.921875 -2.875 L 1.921875 0 Z M 1.09375 0 "/></g></g></g><g fill="#ffffff" fill-opacity="1"><g transform="translate(46.716457, 150.285417)"><g><path d="M 3.5625 0.140625 C 3.007812 0.140625 2.515625 0.015625 2.078125 -0.234375 C 1.640625 -0.492188 1.296875 -0.847656 1.046875 -1.296875 C 0.796875 -1.742188 0.671875 -2.242188 0.671875 -2.796875 C 0.671875 -3.347656 0.789062 -3.847656 1.03125 -4.296875 C 1.28125 -4.753906 1.617188 -5.109375 2.046875 -5.359375 C 2.484375 -5.617188 2.96875 -5.75 3.5 -5.75 C 4.0625 -5.75 4.539062 -5.625 4.9375 -5.375 C 5.34375 -5.132812 5.648438 -4.800781 5.859375 -4.375 C 6.066406 -3.957031 6.171875 -3.488281 6.171875 -2.96875 C 6.171875 -2.8125 6.164062 -2.679688 6.15625 -2.578125 L 1.515625 -2.578125 C 1.523438 -2.203125 1.617188 -1.859375 1.796875 -1.546875 C 1.984375 -1.242188 2.226562 -1 2.53125 -0.8125 C 2.84375 -0.632812 3.1875 -0.546875 3.5625 -0.546875 C 3.957031 -0.546875 4.3125 -0.640625 4.625 -0.828125 C 4.945312 -1.015625 5.191406 -1.242188 5.359375 -1.515625 L 5.96875 -1.046875 C 5.34375 -0.253906 4.539062 0.140625 3.5625 0.140625 Z M 5.34375 -3.234375 C 5.332031 -3.585938 5.253906 -3.898438 5.109375 -4.171875 C 4.960938 -4.453125 4.75 -4.671875 4.46875 -4.828125 C 4.195312 -4.984375 3.875 -5.0625 3.5 -5.0625 C 3.144531 -5.0625 2.820312 -4.976562 2.53125 -4.8125 C 2.238281 -4.644531 2.003906 -4.414062 1.828125 -4.125 C 1.648438 -3.84375 1.550781 -3.546875 1.53125 -3.234375 Z M 5.34375 -3.234375 "/></g></g></g><g fill="#ffffff" fill-opacity="1"><g transform="translate(53.562218, 150.285417)"><g/></g></g><g fill="#ffffff" fill-opacity="1"><g transform="translate(56.554251, 150.285417)"><g><path d="M 1.921875 0 L 1.09375 0 L 1.09375 -9.046875 L 1.921875 -9.046875 Z M 1.921875 0 "/></g></g></g><g fill="#ffffff" fill-opacity="1"><g transform="translate(59.570218, 150.285417)"><g><path d="M 2.59375 0.140625 C 2.28125 0.140625 1.976562 0.0820312 1.6875 -0.03125 C 1.394531 -0.144531 1.148438 -0.328125 0.953125 -0.578125 C 0.753906 -0.835938 0.65625 -1.164062 0.65625 -1.5625 C 0.65625 -2.09375 0.828125 -2.492188 1.171875 -2.765625 C 1.523438 -3.046875 1.972656 -3.226562 2.515625 -3.3125 C 3.066406 -3.394531 3.75 -3.4375 4.5625 -3.4375 L 4.609375 -3.4375 L 4.609375 -3.609375 C 4.609375 -4.085938 4.476562 -4.445312 4.21875 -4.6875 C 3.96875 -4.9375 3.597656 -5.0625 3.109375 -5.0625 C 2.796875 -5.0625 2.488281 -5 2.1875 -4.875 C 1.894531 -4.757812 1.648438 -4.601562 1.453125 -4.40625 L 1 -4.9375 C 1.238281 -5.175781 1.546875 -5.367188 1.921875 -5.515625 C 2.304688 -5.671875 2.734375 -5.75 3.203125 -5.75 C 3.609375 -5.75 3.972656 -5.671875 4.296875 -5.515625 C 4.628906 -5.367188 4.890625 -5.140625 5.078125 -4.828125 C 5.273438 -4.523438 5.375 -4.148438 5.375 -3.703125 L 5.375 -1.25 C 5.375 -1.03125 5.378906 -0.804688 5.390625 -0.578125 C 5.410156 -0.347656 5.4375 -0.15625 5.46875 0 L 4.734375 0 C 4.679688 -0.320312 4.65625 -0.625 4.65625 -0.90625 L 4.625 -0.90625 C 4.375 -0.539062 4.085938 -0.273438 3.765625 -0.109375 C 3.441406 0.0546875 3.050781 0.140625 2.59375 0.140625 Z M 2.8125 -0.53125 C 3.175781 -0.53125 3.492188 -0.613281 3.765625 -0.78125 C 4.035156 -0.945312 4.242188 -1.171875 4.390625 -1.453125 C 4.535156 -1.734375 4.609375 -2.039062 4.609375 -2.375 L 4.609375 -2.796875 L 4.375 -2.796875 C 3.519531 -2.796875 2.828125 -2.710938 2.296875 -2.546875 C 1.765625 -2.390625 1.5 -2.070312 1.5 -1.59375 C 1.5 -1.226562 1.625 -0.957031 1.875 -0.78125 C 2.132812 -0.613281 2.445312 -0.53125 2.8125 -0.53125 Z M 2.8125 -0.53125 "/></g></g></g><g fill="#ffffff" fill-opacity="1"><g transform="translate(65.961191, 150.285417)"><g><path d="M 1.078125 -4.375 C 1.078125 -4.851562 1.0625 -5.265625 1.03125 -5.609375 L 1.8125 -5.609375 C 1.84375 -5.210938 1.859375 -4.890625 1.859375 -4.640625 L 1.875 -4.640625 C 1.976562 -4.859375 2.128906 -5.046875 2.328125 -5.203125 C 2.535156 -5.367188 2.765625 -5.5 3.015625 -5.59375 C 3.273438 -5.695312 3.535156 -5.75 3.796875 -5.75 C 4.484375 -5.75 5.007812 -5.539062 5.375 -5.125 C 5.738281 -4.707031 5.921875 -4.144531 5.921875 -3.4375 L 5.921875 0 L 5.109375 0 L 5.109375 -3.09375 C 5.109375 -3.726562 4.992188 -4.210938 4.765625 -4.546875 C 4.535156 -4.890625 4.144531 -5.0625 3.59375 -5.0625 C 3.289062 -5.0625 3.007812 -4.976562 2.75 -4.8125 C 2.5 -4.65625 2.289062 -4.410156 2.125 -4.078125 C 1.96875 -3.753906 1.890625 -3.351562 1.890625 -2.875 L 1.890625 0 L 1.078125 0 Z M 1.078125 -4.375 "/></g></g></g><g fill="#ffffff" fill-opacity="1"><g transform="translate(72.914663, 150.285417)"><g><path d="M 3.5625 0.140625 C 3 0.140625 2.492188 0.0078125 2.046875 -0.25 C 1.609375 -0.507812 1.269531 -0.859375 1.03125 -1.296875 C 0.789062 -1.742188 0.671875 -2.242188 0.671875 -2.796875 C 0.671875 -3.347656 0.789062 -3.847656 1.03125 -4.296875 C 1.269531 -4.742188 1.609375 -5.097656 2.046875 -5.359375 C 2.492188 -5.617188 3 -5.75 3.5625 -5.75 C 3.976562 -5.75 4.378906 -5.648438 4.765625 -5.453125 C 5.148438 -5.253906 5.457031 -4.976562 5.6875 -4.625 L 5.703125 -4.625 L 5.703125 -9.046875 L 6.515625 -9.046875 L 6.515625 0 L 5.703125 0 L 5.703125 -0.953125 L 5.6875 -0.953125 C 5.457031 -0.609375 5.148438 -0.335938 4.765625 -0.140625 C 4.378906 0.046875 3.976562 0.140625 3.5625 0.140625 Z M 3.65625 -0.546875 C 4.0625 -0.546875 4.425781 -0.644531 4.75 -0.84375 C 5.082031 -1.039062 5.34375 -1.3125 5.53125 -1.65625 C 5.71875 -2 5.8125 -2.378906 5.8125 -2.796875 C 5.8125 -3.222656 5.71875 -3.609375 5.53125 -3.953125 C 5.34375 -4.296875 5.082031 -4.566406 4.75 -4.765625 C 4.425781 -4.960938 4.0625 -5.0625 3.65625 -5.0625 C 3.21875 -5.0625 2.835938 -4.960938 2.515625 -4.765625 C 2.191406 -4.566406 1.945312 -4.296875 1.78125 -3.953125 C 1.613281 -3.609375 1.53125 -3.222656 1.53125 -2.796875 C 1.53125 -2.378906 1.613281 -2 1.78125 -1.65625 C 1.945312 -1.320312 2.191406 -1.050781 2.515625 -0.84375 C 2.835938 -0.644531 3.21875 -0.546875 3.65625 -0.546875 Z M 3.65625 -0.546875 "/></g></g></g><g fill="#ffffff" fill-opacity="1"><g transform="translate(80.538345, 150.285417)"><g><path d="M 2.671875 0.140625 C 2.222656 0.140625 1.800781 0.0507812 1.40625 -0.125 C 1.019531 -0.3125 0.703125 -0.585938 0.453125 -0.953125 L 1.09375 -1.421875 C 1.25 -1.171875 1.46875 -0.960938 1.75 -0.796875 C 2.03125 -0.628906 2.332031 -0.546875 2.65625 -0.546875 C 3.039062 -0.546875 3.351562 -0.625 3.59375 -0.78125 C 3.84375 -0.9375 3.96875 -1.1875 3.96875 -1.53125 C 3.96875 -1.71875 3.90625 -1.875 3.78125 -2 C 3.664062 -2.132812 3.488281 -2.25 3.25 -2.34375 C 3.019531 -2.4375 2.710938 -2.523438 2.328125 -2.609375 C 2.035156 -2.679688 1.773438 -2.765625 1.546875 -2.859375 C 1.316406 -2.960938 1.117188 -3.113281 0.953125 -3.3125 C 0.796875 -3.519531 0.71875 -3.789062 0.71875 -4.125 C 0.71875 -4.476562 0.804688 -4.773438 0.984375 -5.015625 C 1.171875 -5.265625 1.414062 -5.445312 1.71875 -5.5625 C 2.019531 -5.6875 2.351562 -5.75 2.71875 -5.75 C 3.113281 -5.75 3.492188 -5.65625 3.859375 -5.46875 C 4.234375 -5.289062 4.507812 -5.046875 4.6875 -4.734375 L 4.0625 -4.265625 C 3.9375 -4.503906 3.75 -4.695312 3.5 -4.84375 C 3.257812 -4.988281 2.988281 -5.0625 2.6875 -5.0625 C 2.351562 -5.0625 2.070312 -4.988281 1.84375 -4.84375 C 1.613281 -4.695312 1.5 -4.476562 1.5 -4.1875 C 1.5 -3.9375 1.601562 -3.738281 1.8125 -3.59375 C 2.019531 -3.445312 2.363281 -3.328125 2.84375 -3.234375 C 3.5 -3.097656 3.984375 -2.894531 4.296875 -2.625 C 4.617188 -2.363281 4.78125 -2.019531 4.78125 -1.59375 C 4.78125 -1.1875 4.675781 -0.851562 4.46875 -0.59375 C 4.269531 -0.332031 4.007812 -0.144531 3.6875 -0.03125 C 3.375 0.0820312 3.035156 0.140625 2.671875 0.140625 Z M 2.671875 0.140625 "/></g></g></g><g fill="#ffffff" fill-opacity="1"><g transform="translate(85.852188, 150.285417)"><g/></g></g><g fill="#ffffff" fill-opacity="1"><g transform="translate(88.844221, 150.285417)"><g><path d="M 3.65625 0.140625 C 3.082031 0.140625 2.566406 0.015625 2.109375 -0.234375 C 1.660156 -0.492188 1.304688 -0.847656 1.046875 -1.296875 C 0.796875 -1.742188 0.671875 -2.242188 0.671875 -2.796875 C 0.671875 -3.359375 0.796875 -3.863281 1.046875 -4.3125 C 1.304688 -4.757812 1.660156 -5.109375 2.109375 -5.359375 C 2.566406 -5.617188 3.082031 -5.75 3.65625 -5.75 C 4.226562 -5.75 4.738281 -5.617188 5.1875 -5.359375 C 5.644531 -5.109375 6 -4.757812 6.25 -4.3125 C 6.507812 -3.863281 6.640625 -3.359375 6.640625 -2.796875 C 6.640625 -2.242188 6.507812 -1.742188 6.25 -1.296875 C 6 -0.847656 5.644531 -0.492188 5.1875 -0.234375 C 4.738281 0.015625 4.226562 0.140625 3.65625 0.140625 Z M 3.65625 -0.546875 C 4.070312 -0.546875 4.441406 -0.644531 4.765625 -0.84375 C 5.085938 -1.050781 5.335938 -1.320312 5.515625 -1.65625 C 5.691406 -2 5.78125 -2.378906 5.78125 -2.796875 C 5.78125 -3.222656 5.691406 -3.609375 5.515625 -3.953125 C 5.335938 -4.296875 5.085938 -4.566406 4.765625 -4.765625 C 4.441406 -4.960938 4.070312 -5.0625 3.65625 -5.0625 C 3.226562 -5.0625 2.851562 -4.960938 2.53125 -4.765625 C 2.21875 -4.566406 1.972656 -4.296875 1.796875 -3.953125 C 1.617188 -3.609375 1.53125 -3.222656 1.53125 -2.796875 C 1.53125 -2.378906 1.617188 -2 1.796875 -1.65625 C 1.972656 -1.320312 2.21875 -1.050781 2.53125 -0.84375 C 2.851562 -0.644531 3.226562 -0.546875 3.65625 -0.546875 Z M 3.65625 -0.546875 "/></g></g></g><g fill="#ffffff" fill-opacity="1"><g transform="translate(96.156732, 150.285417)"><g><path d="M 1.3125 0 L 1.3125 -4.9375 L 0.140625 -4.9375 L 0.140625 -5.609375 L 1.3125 -5.609375 L 1.3125 -7.140625 C 1.3125 -7.785156 1.472656 -8.285156 1.796875 -8.640625 C 2.117188 -9.003906 2.59375 -9.1875 3.21875 -9.1875 C 3.476562 -9.1875 3.703125 -9.160156 3.890625 -9.109375 L 3.75 -8.390625 C 3.550781 -8.441406 3.363281 -8.46875 3.1875 -8.46875 C 2.78125 -8.46875 2.5 -8.34375 2.34375 -8.09375 C 2.195312 -7.851562 2.125 -7.5 2.125 -7.03125 L 2.125 -5.609375 L 3.453125 -5.609375 L 3.453125 -4.9375 L 2.125 -4.9375 L 2.125 0 Z M 1.3125 0 "/></g></g></g><g fill="#ffffff" fill-opacity="1"><g transform="translate(99.68733, 150.285417)"><g/></g></g><g fill="#ffffff" fill-opacity="1"><g transform="translate(102.679362, 150.285417)"><g><path d="M 1.078125 -4.375 C 1.078125 -4.851562 1.0625 -5.265625 1.03125 -5.609375 L 1.8125 -5.609375 C 1.84375 -5.210938 1.859375 -4.890625 1.859375 -4.640625 L 1.875 -4.640625 C 2.039062 -4.972656 2.285156 -5.238281 2.609375 -5.4375 C 2.929688 -5.644531 3.285156 -5.75 3.671875 -5.75 C 3.890625 -5.75 4.070312 -5.726562 4.21875 -5.6875 L 4.109375 -4.921875 C 4.054688 -4.929688 3.972656 -4.941406 3.859375 -4.953125 C 3.742188 -4.972656 3.632812 -4.984375 3.53125 -4.984375 C 3.226562 -4.984375 2.953125 -4.90625 2.703125 -4.75 C 2.453125 -4.601562 2.253906 -4.375 2.109375 -4.0625 C 1.960938 -3.75 1.890625 -3.351562 1.890625 -2.875 L 1.890625 0 L 1.078125 0 Z M 1.078125 -4.375 "/></g></g></g><g fill="#ffffff" fill-opacity="1"><g transform="translate(106.98788, 150.285417)"><g><path d="M 3.5625 0.140625 C 3.007812 0.140625 2.515625 0.015625 2.078125 -0.234375 C 1.640625 -0.492188 1.296875 -0.847656 1.046875 -1.296875 C 0.796875 -1.742188 0.671875 -2.242188 0.671875 -2.796875 C 0.671875 -3.347656 0.789062 -3.847656 1.03125 -4.296875 C 1.28125 -4.753906 1.617188 -5.109375 2.046875 -5.359375 C 2.484375 -5.617188 2.96875 -5.75 3.5 -5.75 C 4.0625 -5.75 4.539062 -5.625 4.9375 -5.375 C 5.34375 -5.132812 5.648438 -4.800781 5.859375 -4.375 C 6.066406 -3.957031 6.171875 -3.488281 6.171875 -2.96875 C 6.171875 -2.8125 6.164062 -2.679688 6.15625 -2.578125 L 1.515625 -2.578125 C 1.523438 -2.203125 1.617188 -1.859375 1.796875 -1.546875 C 1.984375 -1.242188 2.226562 -1 2.53125 -0.8125 C 2.84375 -0.632812 3.1875 -0.546875 3.5625 -0.546875 C 3.957031 -0.546875 4.3125 -0.640625 4.625 -0.828125 C 4.945312 -1.015625 5.191406 -1.242188 5.359375 -1.515625 L 5.96875 -1.046875 C 5.34375 -0.253906 4.539062 0.140625 3.5625 0.140625 Z M 5.34375 -3.234375 C 5.332031 -3.585938 5.253906 -3.898438 5.109375 -4.171875 C 4.960938 -4.453125 4.75 -4.671875 4.46875 -4.828125 C 4.195312 -4.984375 3.875 -5.0625 3.5 -5.0625 C 3.144531 -5.0625 2.820312 -4.976562 2.53125 -4.8125 C 2.238281 -4.644531 2.003906 -4.414062 1.828125 -4.125 C 1.648438 -3.84375 1.550781 -3.546875 1.53125 -3.234375 Z M 5.34375 -3.234375 "/></g></g></g><g fill="#ffffff" fill-opacity="1"><g transform="translate(113.833641, 150.285417)"><g><path d="M 3.484375 2.875 C 2.972656 2.875 2.476562 2.773438 2 2.578125 C 1.53125 2.378906 1.128906 2.101562 0.796875 1.75 L 1.375 1.125 C 1.601562 1.414062 1.910156 1.660156 2.296875 1.859375 C 2.691406 2.054688 3.097656 2.15625 3.515625 2.15625 C 4.273438 2.15625 4.828125 1.953125 5.171875 1.546875 C 5.523438 1.140625 5.703125 0.609375 5.703125 -0.046875 L 5.703125 -1.09375 L 5.6875 -1.09375 C 5.476562 -0.757812 5.175781 -0.492188 4.78125 -0.296875 C 4.382812 -0.0976562 3.976562 0 3.5625 0 C 2.988281 0 2.484375 -0.117188 2.046875 -0.359375 C 1.609375 -0.609375 1.269531 -0.945312 1.03125 -1.375 C 0.789062 -1.8125 0.671875 -2.300781 0.671875 -2.84375 C 0.671875 -3.382812 0.789062 -3.875 1.03125 -4.3125 C 1.28125 -4.75 1.625 -5.097656 2.0625 -5.359375 C 2.5 -5.617188 3 -5.75 3.5625 -5.75 C 3.988281 -5.75 4.394531 -5.648438 4.78125 -5.453125 C 5.164062 -5.253906 5.46875 -4.976562 5.6875 -4.625 L 5.703125 -4.625 L 5.703125 -5.609375 L 6.515625 -5.609375 L 6.515625 -0.046875 C 6.515625 0.429688 6.425781 0.882812 6.25 1.3125 C 6.082031 1.75 5.769531 2.117188 5.3125 2.421875 C 4.851562 2.722656 4.242188 2.875 3.484375 2.875 Z M 3.65625 -0.6875 C 4.0625 -0.6875 4.425781 -0.78125 4.75 -0.96875 C 5.082031 -1.15625 5.34375 -1.410156 5.53125 -1.734375 C 5.71875 -2.066406 5.8125 -2.445312 5.8125 -2.875 C 5.8125 -3.257812 5.71875 -3.617188 5.53125 -3.953125 C 5.34375 -4.296875 5.082031 -4.566406 4.75 -4.765625 C 4.425781 -4.960938 4.0625 -5.0625 3.65625 -5.0625 C 3.21875 -5.0625 2.835938 -4.960938 2.515625 -4.765625 C 2.191406 -4.566406 1.945312 -4.300781 1.78125 -3.96875 C 1.613281 -3.632812 1.53125 -3.269531 1.53125 -2.875 C 1.53125 -2.476562 1.613281 -2.113281 1.78125 -1.78125 C 1.945312 -1.445312 2.191406 -1.179688 2.515625 -0.984375 C 2.835938 -0.785156 3.21875 -0.6875 3.65625 -0.6875 Z M 3.65625 -0.6875 "/></g></g></g><g fill="#ffffff" fill-opacity="1"><g transform="translate(121.397481, 150.285417)"><g><path d="M 1.5 -7.1875 C 1.34375 -7.1875 1.207031 -7.238281 1.09375 -7.34375 C 0.976562 -7.457031 0.921875 -7.59375 0.921875 -7.75 C 0.921875 -7.914062 0.976562 -8.050781 1.09375 -8.15625 C 1.207031 -8.269531 1.34375 -8.328125 1.5 -8.328125 C 1.644531 -8.328125 1.773438 -8.269531 1.890625 -8.15625 C 2.015625 -8.050781 2.078125 -7.914062 2.078125 -7.75 C 2.078125 -7.59375 2.015625 -7.457031 1.890625 -7.34375 C 1.773438 -7.238281 1.644531 -7.1875 1.5 -7.1875 Z M 1.90625 0 L 1.09375 0 L 1.09375 -5.609375 L 1.90625 -5.609375 Z M 1.90625 0 "/></g></g></g><g fill="#ffffff" fill-opacity="1"><g transform="translate(124.389514, 150.285417)"><g><path d="M 3.65625 0.140625 C 3.082031 0.140625 2.566406 0.015625 2.109375 -0.234375 C 1.660156 -0.492188 1.304688 -0.847656 1.046875 -1.296875 C 0.796875 -1.742188 0.671875 -2.242188 0.671875 -2.796875 C 0.671875 -3.359375 0.796875 -3.863281 1.046875 -4.3125 C 1.304688 -4.757812 1.660156 -5.109375 2.109375 -5.359375 C 2.566406 -5.617188 3.082031 -5.75 3.65625 -5.75 C 4.226562 -5.75 4.738281 -5.617188 5.1875 -5.359375 C 5.644531 -5.109375 6 -4.757812 6.25 -4.3125 C 6.507812 -3.863281 6.640625 -3.359375 6.640625 -2.796875 C 6.640625 -2.242188 6.507812 -1.742188 6.25 -1.296875 C 6 -0.847656 5.644531 -0.492188 5.1875 -0.234375 C 4.738281 0.015625 4.226562 0.140625 3.65625 0.140625 Z M 3.65625 -0.546875 C 4.070312 -0.546875 4.441406 -0.644531 4.765625 -0.84375 C 5.085938 -1.050781 5.335938 -1.320312 5.515625 -1.65625 C 5.691406 -2 5.78125 -2.378906 5.78125 -2.796875 C 5.78125 -3.222656 5.691406 -3.609375 5.515625 -3.953125 C 5.335938 -4.296875 5.085938 -4.566406 4.765625 -4.765625 C 4.441406 -4.960938 4.070312 -5.0625 3.65625 -5.0625 C 3.226562 -5.0625 2.851562 -4.960938 2.53125 -4.765625 C 2.21875 -4.566406 1.972656 -4.296875 1.796875 -3.953125 C 1.617188 -3.609375 1.53125 -3.222656 1.53125 -2.796875 C 1.53125 -2.378906 1.617188 -2 1.796875 -1.65625 C 1.972656 -1.320312 2.21875 -1.050781 2.53125 -0.84375 C 2.851562 -0.644531 3.226562 -0.546875 3.65625 -0.546875 Z M 3.65625 -0.546875 "/></g></g></g><g fill="#ffffff" fill-opacity="1"><g transform="translate(131.702025, 150.285417)"><g><path d="M 1.078125 -4.375 C 1.078125 -4.851562 1.0625 -5.265625 1.03125 -5.609375 L 1.8125 -5.609375 C 1.84375 -5.210938 1.859375 -4.890625 1.859375 -4.640625 L 1.875 -4.640625 C 1.976562 -4.859375 2.128906 -5.046875 2.328125 -5.203125 C 2.535156 -5.367188 2.765625 -5.5 3.015625 -5.59375 C 3.273438 -5.695312 3.535156 -5.75 3.796875 -5.75 C 4.484375 -5.75 5.007812 -5.539062 5.375 -5.125 C 5.738281 -4.707031 5.921875 -4.144531 5.921875 -3.4375 L 5.921875 0 L 5.109375 0 L 5.109375 -3.09375 C 5.109375 -3.726562 4.992188 -4.210938 4.765625 -4.546875 C 4.535156 -4.890625 4.144531 -5.0625 3.59375 -5.0625 C 3.289062 -5.0625 3.007812 -4.976562 2.75 -4.8125 C 2.5 -4.65625 2.289062 -4.410156 2.125 -4.078125 C 1.96875 -3.753906 1.890625 -3.351562 1.890625 -2.875 L 1.890625 0 L 1.078125 0 Z M 1.078125 -4.375 "/></g></g></g><g fill="#ffffff" fill-opacity="1"><g transform="translate(138.655498, 150.285417)"><g><path d="M 2.59375 0.140625 C 2.28125 0.140625 1.976562 0.0820312 1.6875 -0.03125 C 1.394531 -0.144531 1.148438 -0.328125 0.953125 -0.578125 C 0.753906 -0.835938 0.65625 -1.164062 0.65625 -1.5625 C 0.65625 -2.09375 0.828125 -2.492188 1.171875 -2.765625 C 1.523438 -3.046875 1.972656 -3.226562 2.515625 -3.3125 C 3.066406 -3.394531 3.75 -3.4375 4.5625 -3.4375 L 4.609375 -3.4375 L 4.609375 -3.609375 C 4.609375 -4.085938 4.476562 -4.445312 4.21875 -4.6875 C 3.96875 -4.9375 3.597656 -5.0625 3.109375 -5.0625 C 2.796875 -5.0625 2.488281 -5 2.1875 -4.875 C 1.894531 -4.757812 1.648438 -4.601562 1.453125 -4.40625 L 1 -4.9375 C 1.238281 -5.175781 1.546875 -5.367188 1.921875 -5.515625 C 2.304688 -5.671875 2.734375 -5.75 3.203125 -5.75 C 3.609375 -5.75 3.972656 -5.671875 4.296875 -5.515625 C 4.628906 -5.367188 4.890625 -5.140625 5.078125 -4.828125 C 5.273438 -4.523438 5.375 -4.148438 5.375 -3.703125 L 5.375 -1.25 C 5.375 -1.03125 5.378906 -0.804688 5.390625 -0.578125 C 5.410156 -0.347656 5.4375 -0.15625 5.46875 0 L 4.734375 0 C 4.679688 -0.320312 4.65625 -0.625 4.65625 -0.90625 L 4.625 -0.90625 C 4.375 -0.539062 4.085938 -0.273438 3.765625 -0.109375 C 3.441406 0.0546875 3.050781 0.140625 2.59375 0.140625 Z M 2.8125 -0.53125 C 3.175781 -0.53125 3.492188 -0.613281 3.765625 -0.78125 C 4.035156 -0.945312 4.242188 -1.171875 4.390625 -1.453125 C 4.535156 -1.734375 4.609375 -2.039062 4.609375 -2.375 L 4.609375 -2.796875 L 4.375 -2.796875 C 3.519531 -2.796875 2.828125 -2.710938 2.296875 -2.546875 C 1.765625 -2.390625 1.5 -2.070312 1.5 -1.59375 C 1.5 -1.226562 1.625 -0.957031 1.875 -0.78125 C 2.132812 -0.613281 2.445312 -0.53125 2.8125 -0.53125 Z M 2.8125 -0.53125 "/></g></g></g><g fill="#ffffff" fill-opacity="1"><g transform="translate(145.046471, 150.285417)"><g><path d="M 1.921875 0 L 1.09375 0 L 1.09375 -9.046875 L 1.921875 -9.046875 Z M 1.921875 0 "/></g></g></g><g fill="#ffffff" fill-opacity="1"><g transform="translate(148.064138, 150.285417)"><g/></g></g><g fill="#ffffff" fill-opacity="1"><g transform="translate(38.925496, 166.741533)"><g><path d="M 1.984375 0 L 1.125 0 L 1.125 -8.46875 L 1.984375 -8.46875 Z M 1.984375 0 "/></g></g></g><g fill="#ffffff" fill-opacity="1"><g transform="translate(42.037201, 166.741533)"><g><path d="M 1.078125 -4.375 C 1.078125 -4.851562 1.0625 -5.265625 1.03125 -5.609375 L 1.8125 -5.609375 C 1.84375 -5.210938 1.859375 -4.890625 1.859375 -4.640625 L 1.875 -4.640625 C 1.976562 -4.859375 2.128906 -5.046875 2.328125 -5.203125 C 2.535156 -5.367188 2.765625 -5.5 3.015625 -5.59375 C 3.273438 -5.695312 3.535156 -5.75 3.796875 -5.75 C 4.484375 -5.75 5.007812 -5.539062 5.375 -5.125 C 5.738281 -4.707031 5.921875 -4.144531 5.921875 -3.4375 L 5.921875 0 L 5.109375 0 L 5.109375 -3.09375 C 5.109375 -3.726562 4.992188 -4.210938 4.765625 -4.546875 C 4.535156 -4.890625 4.144531 -5.0625 3.59375 -5.0625 C 3.289062 -5.0625 3.007812 -4.976562 2.75 -4.8125 C 2.5 -4.65625 2.289062 -4.410156 2.125 -4.078125 C 1.96875 -3.753906 1.890625 -3.351562 1.890625 -2.875 L 1.890625 0 L 1.078125 0 Z M 1.078125 -4.375 "/></g></g></g><g fill="#ffffff" fill-opacity="1"><g transform="translate(48.990673, 166.741533)"><g><path d="M 3.5625 0.140625 C 3 0.140625 2.492188 0.0078125 2.046875 -0.25 C 1.609375 -0.507812 1.269531 -0.859375 1.03125 -1.296875 C 0.789062 -1.742188 0.671875 -2.242188 0.671875 -2.796875 C 0.671875 -3.347656 0.789062 -3.847656 1.03125 -4.296875 C 1.269531 -4.742188 1.609375 -5.097656 2.046875 -5.359375 C 2.492188 -5.617188 3 -5.75 3.5625 -5.75 C 3.976562 -5.75 4.378906 -5.648438 4.765625 -5.453125 C 5.148438 -5.253906 5.457031 -4.976562 5.6875 -4.625 L 5.703125 -4.625 L 5.703125 -9.046875 L 6.515625 -9.046875 L 6.515625 0 L 5.703125 0 L 5.703125 -0.953125 L 5.6875 -0.953125 C 5.457031 -0.609375 5.148438 -0.335938 4.765625 -0.140625 C 4.378906 0.046875 3.976562 0.140625 3.5625 0.140625 Z M 3.65625 -0.546875 C 4.0625 -0.546875 4.425781 -0.644531 4.75 -0.84375 C 5.082031 -1.039062 5.34375 -1.3125 5.53125 -1.65625 C 5.71875 -2 5.8125 -2.378906 5.8125 -2.796875 C 5.8125 -3.222656 5.71875 -3.609375 5.53125 -3.953125 C 5.34375 -4.296875 5.082031 -4.566406 4.75 -4.765625 C 4.425781 -4.960938 4.0625 -5.0625 3.65625 -5.0625 C 3.21875 -5.0625 2.835938 -4.960938 2.515625 -4.765625 C 2.191406 -4.566406 1.945312 -4.296875 1.78125 -3.953125 C 1.613281 -3.609375 1.53125 -3.222656 1.53125 -2.796875 C 1.53125 -2.378906 1.613281 -2 1.78125 -1.65625 C 1.945312 -1.320312 2.191406 -1.050781 2.515625 -0.84375 C 2.835938 -0.644531 3.21875 -0.546875 3.65625 -0.546875 Z M 3.65625 -0.546875 "/></g></g></g><g fill="#ffffff" fill-opacity="1"><g transform="translate(56.614355, 166.741533)"><g><path d="M 1.5 -7.1875 C 1.34375 -7.1875 1.207031 -7.238281 1.09375 -7.34375 C 0.976562 -7.457031 0.921875 -7.59375 0.921875 -7.75 C 0.921875 -7.914062 0.976562 -8.050781 1.09375 -8.15625 C 1.207031 -8.269531 1.34375 -8.328125 1.5 -8.328125 C 1.644531 -8.328125 1.773438 -8.269531 1.890625 -8.15625 C 2.015625 -8.050781 2.078125 -7.914062 2.078125 -7.75 C 2.078125 -7.59375 2.015625 -7.457031 1.890625 -7.34375 C 1.773438 -7.238281 1.644531 -7.1875 1.5 -7.1875 Z M 1.90625 0 L 1.09375 0 L 1.09375 -5.609375 L 1.90625 -5.609375 Z M 1.90625 0 "/></g></g></g><g fill="#ffffff" fill-opacity="1"><g transform="translate(59.606387, 166.741533)"><g><path d="M 3.484375 2.875 C 2.972656 2.875 2.476562 2.773438 2 2.578125 C 1.53125 2.378906 1.128906 2.101562 0.796875 1.75 L 1.375 1.125 C 1.601562 1.414062 1.910156 1.660156 2.296875 1.859375 C 2.691406 2.054688 3.097656 2.15625 3.515625 2.15625 C 4.273438 2.15625 4.828125 1.953125 5.171875 1.546875 C 5.523438 1.140625 5.703125 0.609375 5.703125 -0.046875 L 5.703125 -1.09375 L 5.6875 -1.09375 C 5.476562 -0.757812 5.175781 -0.492188 4.78125 -0.296875 C 4.382812 -0.0976562 3.976562 0 3.5625 0 C 2.988281 0 2.484375 -0.117188 2.046875 -0.359375 C 1.609375 -0.609375 1.269531 -0.945312 1.03125 -1.375 C 0.789062 -1.8125 0.671875 -2.300781 0.671875 -2.84375 C 0.671875 -3.382812 0.789062 -3.875 1.03125 -4.3125 C 1.28125 -4.75 1.625 -5.097656 2.0625 -5.359375 C 2.5 -5.617188 3 -5.75 3.5625 -5.75 C 3.988281 -5.75 4.394531 -5.648438 4.78125 -5.453125 C 5.164062 -5.253906 5.46875 -4.976562 5.6875 -4.625 L 5.703125 -4.625 L 5.703125 -5.609375 L 6.515625 -5.609375 L 6.515625 -0.046875 C 6.515625 0.429688 6.425781 0.882812 6.25 1.3125 C 6.082031 1.75 5.769531 2.117188 5.3125 2.421875 C 4.851562 2.722656 4.242188 2.875 3.484375 2.875 Z M 3.65625 -0.6875 C 4.0625 -0.6875 4.425781 -0.78125 4.75 -0.96875 C 5.082031 -1.15625 5.34375 -1.410156 5.53125 -1.734375 C 5.71875 -2.066406 5.8125 -2.445312 5.8125 -2.875 C 5.8125 -3.257812 5.71875 -3.617188 5.53125 -3.953125 C 5.34375 -4.296875 5.082031 -4.566406 4.75 -4.765625 C 4.425781 -4.960938 4.0625 -5.0625 3.65625 -5.0625 C 3.21875 -5.0625 2.835938 -4.960938 2.515625 -4.765625 C 2.191406 -4.566406 1.945312 -4.300781 1.78125 -3.96875 C 1.613281 -3.632812 1.53125 -3.269531 1.53125 -2.875 C 1.53125 -2.476562 1.613281 -2.113281 1.78125 -1.78125 C 1.945312 -1.445312 2.191406 -1.179688 2.515625 -0.984375 C 2.835938 -0.785156 3.21875 -0.6875 3.65625 -0.6875 Z M 3.65625 -0.6875 "/></g></g></g><g fill="#ffffff" fill-opacity="1"><g transform="translate(67.170228, 166.741533)"><g><path d="M 3.5625 0.140625 C 3.007812 0.140625 2.515625 0.015625 2.078125 -0.234375 C 1.640625 -0.492188 1.296875 -0.847656 1.046875 -1.296875 C 0.796875 -1.742188 0.671875 -2.242188 0.671875 -2.796875 C 0.671875 -3.347656 0.789062 -3.847656 1.03125 -4.296875 C 1.28125 -4.753906 1.617188 -5.109375 2.046875 -5.359375 C 2.484375 -5.617188 2.96875 -5.75 3.5 -5.75 C 4.0625 -5.75 4.539062 -5.625 4.9375 -5.375 C 5.34375 -5.132812 5.648438 -4.800781 5.859375 -4.375 C 6.066406 -3.957031 6.171875 -3.488281 6.171875 -2.96875 C 6.171875 -2.8125 6.164062 -2.679688 6.15625 -2.578125 L 1.515625 -2.578125 C 1.523438 -2.203125 1.617188 -1.859375 1.796875 -1.546875 C 1.984375 -1.242188 2.226562 -1 2.53125 -0.8125 C 2.84375 -0.632812 3.1875 -0.546875 3.5625 -0.546875 C 3.957031 -0.546875 4.3125 -0.640625 4.625 -0.828125 C 4.945312 -1.015625 5.191406 -1.242188 5.359375 -1.515625 L 5.96875 -1.046875 C 5.34375 -0.253906 4.539062 0.140625 3.5625 0.140625 Z M 5.34375 -3.234375 C 5.332031 -3.585938 5.253906 -3.898438 5.109375 -4.171875 C 4.960938 -4.453125 4.75 -4.671875 4.46875 -4.828125 C 4.195312 -4.984375 3.875 -5.0625 3.5 -5.0625 C 3.144531 -5.0625 2.820312 -4.976562 2.53125 -4.8125 C 2.238281 -4.644531 2.003906 -4.414062 1.828125 -4.125 C 1.648438 -3.84375 1.550781 -3.546875 1.53125 -3.234375 Z M 5.34375 -3.234375 "/></g></g></g><g fill="#ffffff" fill-opacity="1"><g transform="translate(74.015989, 166.741533)"><g><path d="M 1.078125 -4.375 C 1.078125 -4.851562 1.0625 -5.265625 1.03125 -5.609375 L 1.8125 -5.609375 C 1.84375 -5.210938 1.859375 -4.890625 1.859375 -4.640625 L 1.875 -4.640625 C 1.976562 -4.859375 2.128906 -5.046875 2.328125 -5.203125 C 2.535156 -5.367188 2.765625 -5.5 3.015625 -5.59375 C 3.273438 -5.695312 3.535156 -5.75 3.796875 -5.75 C 4.484375 -5.75 5.007812 -5.539062 5.375 -5.125 C 5.738281 -4.707031 5.921875 -4.144531 5.921875 -3.4375 L 5.921875 0 L 5.109375 0 L 5.109375 -3.09375 C 5.109375 -3.726562 4.992188 -4.210938 4.765625 -4.546875 C 4.535156 -4.890625 4.144531 -5.0625 3.59375 -5.0625 C 3.289062 -5.0625 3.007812 -4.976562 2.75 -4.8125 C 2.5 -4.65625 2.289062 -4.410156 2.125 -4.078125 C 1.96875 -3.753906 1.890625 -3.351562 1.890625 -2.875 L 1.890625 0 L 1.078125 0 Z M 1.078125 -4.375 "/></g></g></g><g fill="#ffffff" fill-opacity="1"><g transform="translate(80.969461, 166.741533)"><g><path d="M 3.65625 0.140625 C 3.082031 0.140625 2.566406 0.015625 2.109375 -0.234375 C 1.660156 -0.492188 1.304688 -0.847656 1.046875 -1.296875 C 0.796875 -1.742188 0.671875 -2.242188 0.671875 -2.796875 C 0.671875 -3.359375 0.796875 -3.863281 1.046875 -4.3125 C 1.304688 -4.757812 1.660156 -5.109375 2.109375 -5.359375 C 2.566406 -5.617188 3.082031 -5.75 3.65625 -5.75 C 4.226562 -5.75 4.738281 -5.617188 5.1875 -5.359375 C 5.644531 -5.109375 6 -4.757812 6.25 -4.3125 C 6.507812 -3.863281 6.640625 -3.359375 6.640625 -2.796875 C 6.640625 -2.242188 6.507812 -1.742188 6.25 -1.296875 C 6 -0.847656 5.644531 -0.492188 5.1875 -0.234375 C 4.738281 0.015625 4.226562 0.140625 3.65625 0.140625 Z M 3.65625 -0.546875 C 4.070312 -0.546875 4.441406 -0.644531 4.765625 -0.84375 C 5.085938 -1.050781 5.335938 -1.320312 5.515625 -1.65625 C 5.691406 -2 5.78125 -2.378906 5.78125 -2.796875 C 5.78125 -3.222656 5.691406 -3.609375 5.515625 -3.953125 C 5.335938 -4.296875 5.085938 -4.566406 4.765625 -4.765625 C 4.441406 -4.960938 4.070312 -5.0625 3.65625 -5.0625 C 3.226562 -5.0625 2.851562 -4.960938 2.53125 -4.765625 C 2.21875 -4.566406 1.972656 -4.296875 1.796875 -3.953125 C 1.617188 -3.609375 1.53125 -3.222656 1.53125 -2.796875 C 1.53125 -2.378906 1.617188 -2 1.796875 -1.65625 C 1.972656 -1.320312 2.21875 -1.050781 2.53125 -0.84375 C 2.851562 -0.644531 3.226562 -0.546875 3.65625 -0.546875 Z M 3.65625 -0.546875 "/></g></g></g><g fill="#ffffff" fill-opacity="1"><g transform="translate(88.281973, 166.741533)"><g><path d="M 3.15625 0.140625 C 2.46875 0.140625 1.941406 -0.0625 1.578125 -0.46875 C 1.210938 -0.882812 1.03125 -1.453125 1.03125 -2.171875 L 1.03125 -5.609375 L 1.84375 -5.609375 L 1.84375 -2.5 C 1.84375 -1.875 1.957031 -1.390625 2.1875 -1.046875 C 2.414062 -0.703125 2.804688 -0.53125 3.359375 -0.53125 C 3.660156 -0.53125 3.9375 -0.613281 4.1875 -0.78125 C 4.445312 -0.945312 4.65625 -1.191406 4.8125 -1.515625 C 4.976562 -1.847656 5.0625 -2.253906 5.0625 -2.734375 L 5.0625 -5.609375 L 5.875 -5.609375 L 5.875 -1.234375 C 5.875 -0.753906 5.890625 -0.34375 5.921875 0 L 5.140625 0 C 5.109375 -0.394531 5.09375 -0.710938 5.09375 -0.953125 L 5.078125 -0.953125 C 4.972656 -0.742188 4.820312 -0.554688 4.625 -0.390625 C 4.425781 -0.222656 4.195312 -0.09375 3.9375 0 C 3.6875 0.09375 3.425781 0.140625 3.15625 0.140625 Z M 3.15625 0.140625 "/></g></g></g><g fill="#ffffff" fill-opacity="1"><g transform="translate(95.235445, 166.741533)"><g><path d="M 2.671875 0.140625 C 2.222656 0.140625 1.800781 0.0507812 1.40625 -0.125 C 1.019531 -0.3125 0.703125 -0.585938 0.453125 -0.953125 L 1.09375 -1.421875 C 1.25 -1.171875 1.46875 -0.960938 1.75 -0.796875 C 2.03125 -0.628906 2.332031 -0.546875 2.65625 -0.546875 C 3.039062 -0.546875 3.351562 -0.625 3.59375 -0.78125 C 3.84375 -0.9375 3.96875 -1.1875 3.96875 -1.53125 C 3.96875 -1.71875 3.90625 -1.875 3.78125 -2 C 3.664062 -2.132812 3.488281 -2.25 3.25 -2.34375 C 3.019531 -2.4375 2.710938 -2.523438 2.328125 -2.609375 C 2.035156 -2.679688 1.773438 -2.765625 1.546875 -2.859375 C 1.316406 -2.960938 1.117188 -3.113281 0.953125 -3.3125 C 0.796875 -3.519531 0.71875 -3.789062 0.71875 -4.125 C 0.71875 -4.476562 0.804688 -4.773438 0.984375 -5.015625 C 1.171875 -5.265625 1.414062 -5.445312 1.71875 -5.5625 C 2.019531 -5.6875 2.351562 -5.75 2.71875 -5.75 C 3.113281 -5.75 3.492188 -5.65625 3.859375 -5.46875 C 4.234375 -5.289062 4.507812 -5.046875 4.6875 -4.734375 L 4.0625 -4.265625 C 3.9375 -4.503906 3.75 -4.695312 3.5 -4.84375 C 3.257812 -4.988281 2.988281 -5.0625 2.6875 -5.0625 C 2.351562 -5.0625 2.070312 -4.988281 1.84375 -4.84375 C 1.613281 -4.695312 1.5 -4.476562 1.5 -4.1875 C 1.5 -3.9375 1.601562 -3.738281 1.8125 -3.59375 C 2.019531 -3.445312 2.363281 -3.328125 2.84375 -3.234375 C 3.5 -3.097656 3.984375 -2.894531 4.296875 -2.625 C 4.617188 -2.363281 4.78125 -2.019531 4.78125 -1.59375 C 4.78125 -1.1875 4.675781 -0.851562 4.46875 -0.59375 C 4.269531 -0.332031 4.007812 -0.144531 3.6875 -0.03125 C 3.375 0.0820312 3.035156 0.140625 2.671875 0.140625 Z M 2.671875 0.140625 "/></g></g></g><g fill="#ffffff" fill-opacity="1"><g transform="translate(100.549289, 166.741533)"><g/></g></g><g fill="#ffffff" fill-opacity="1"><g transform="translate(103.541321, 166.741533)"><g><path d="M 1.078125 2.875 L 1.078125 -5.609375 L 1.890625 -5.609375 L 1.890625 -4.625 L 1.921875 -4.625 C 2.148438 -4.976562 2.453125 -5.253906 2.828125 -5.453125 C 3.210938 -5.648438 3.613281 -5.75 4.03125 -5.75 C 4.601562 -5.75 5.109375 -5.617188 5.546875 -5.359375 C 5.992188 -5.097656 6.335938 -4.742188 6.578125 -4.296875 C 6.816406 -3.847656 6.9375 -3.347656 6.9375 -2.796875 C 6.9375 -2.242188 6.816406 -1.742188 6.578125 -1.296875 C 6.335938 -0.859375 5.992188 -0.507812 5.546875 -0.25 C 5.109375 0.0078125 4.601562 0.140625 4.03125 0.140625 C 3.625 0.140625 3.226562 0.046875 2.84375 -0.140625 C 2.46875 -0.335938 2.160156 -0.609375 1.921875 -0.953125 L 1.890625 -0.953125 L 1.890625 2.875 Z M 3.953125 -0.546875 C 4.390625 -0.546875 4.765625 -0.644531 5.078125 -0.84375 C 5.398438 -1.050781 5.644531 -1.320312 5.8125 -1.65625 C 5.976562 -2 6.0625 -2.378906 6.0625 -2.796875 C 6.0625 -3.222656 5.976562 -3.609375 5.8125 -3.953125 C 5.644531 -4.296875 5.398438 -4.566406 5.078125 -4.765625 C 4.765625 -4.960938 4.390625 -5.0625 3.953125 -5.0625 C 3.535156 -5.0625 3.160156 -4.960938 2.828125 -4.765625 C 2.503906 -4.566406 2.25 -4.296875 2.0625 -3.953125 C 1.882812 -3.609375 1.796875 -3.222656 1.796875 -2.796875 C 1.796875 -2.378906 1.882812 -2 2.0625 -1.65625 C 2.25 -1.3125 2.503906 -1.039062 2.828125 -0.84375 C 3.160156 -0.644531 3.535156 -0.546875 3.953125 -0.546875 Z M 3.953125 -0.546875 "/></g></g></g><g fill="#ffffff" fill-opacity="1"><g transform="translate(111.141069, 166.741533)"><g><path d="M 3.5625 0.140625 C 3.007812 0.140625 2.515625 0.015625 2.078125 -0.234375 C 1.640625 -0.492188 1.296875 -0.847656 1.046875 -1.296875 C 0.796875 -1.742188 0.671875 -2.242188 0.671875 -2.796875 C 0.671875 -3.347656 0.789062 -3.847656 1.03125 -4.296875 C 1.28125 -4.753906 1.617188 -5.109375 2.046875 -5.359375 C 2.484375 -5.617188 2.96875 -5.75 3.5 -5.75 C 4.0625 -5.75 4.539062 -5.625 4.9375 -5.375 C 5.34375 -5.132812 5.648438 -4.800781 5.859375 -4.375 C 6.066406 -3.957031 6.171875 -3.488281 6.171875 -2.96875 C 6.171875 -2.8125 6.164062 -2.679688 6.15625 -2.578125 L 1.515625 -2.578125 C 1.523438 -2.203125 1.617188 -1.859375 1.796875 -1.546875 C 1.984375 -1.242188 2.226562 -1 2.53125 -0.8125 C 2.84375 -0.632812 3.1875 -0.546875 3.5625 -0.546875 C 3.957031 -0.546875 4.3125 -0.640625 4.625 -0.828125 C 4.945312 -1.015625 5.191406 -1.242188 5.359375 -1.515625 L 5.96875 -1.046875 C 5.34375 -0.253906 4.539062 0.140625 3.5625 0.140625 Z M 5.34375 -3.234375 C 5.332031 -3.585938 5.253906 -3.898438 5.109375 -4.171875 C 4.960938 -4.453125 4.75 -4.671875 4.46875 -4.828125 C 4.195312 -4.984375 3.875 -5.0625 3.5 -5.0625 C 3.144531 -5.0625 2.820312 -4.976562 2.53125 -4.8125 C 2.238281 -4.644531 2.003906 -4.414062 1.828125 -4.125 C 1.648438 -3.84375 1.550781 -3.546875 1.53125 -3.234375 Z M 5.34375 -3.234375 "/></g></g></g><g fill="#ffffff" fill-opacity="1"><g transform="translate(117.98683, 166.741533)"><g><path d="M 3.65625 0.140625 C 3.082031 0.140625 2.566406 0.015625 2.109375 -0.234375 C 1.660156 -0.492188 1.304688 -0.847656 1.046875 -1.296875 C 0.796875 -1.742188 0.671875 -2.242188 0.671875 -2.796875 C 0.671875 -3.359375 0.796875 -3.863281 1.046875 -4.3125 C 1.304688 -4.757812 1.660156 -5.109375 2.109375 -5.359375 C 2.566406 -5.617188 3.082031 -5.75 3.65625 -5.75 C 4.226562 -5.75 4.738281 -5.617188 5.1875 -5.359375 C 5.644531 -5.109375 6 -4.757812 6.25 -4.3125 C 6.507812 -3.863281 6.640625 -3.359375 6.640625 -2.796875 C 6.640625 -2.242188 6.507812 -1.742188 6.25 -1.296875 C 6 -0.847656 5.644531 -0.492188 5.1875 -0.234375 C 4.738281 0.015625 4.226562 0.140625 3.65625 0.140625 Z M 3.65625 -0.546875 C 4.070312 -0.546875 4.441406 -0.644531 4.765625 -0.84375 C 5.085938 -1.050781 5.335938 -1.320312 5.515625 -1.65625 C 5.691406 -2 5.78125 -2.378906 5.78125 -2.796875 C 5.78125 -3.222656 5.691406 -3.609375 5.515625 -3.953125 C 5.335938 -4.296875 5.085938 -4.566406 4.765625 -4.765625 C 4.441406 -4.960938 4.070312 -5.0625 3.65625 -5.0625 C 3.226562 -5.0625 2.851562 -4.960938 2.53125 -4.765625 C 2.21875 -4.566406 1.972656 -4.296875 1.796875 -3.953125 C 1.617188 -3.609375 1.53125 -3.222656 1.53125 -2.796875 C 1.53125 -2.378906 1.617188 -2 1.796875 -1.65625 C 1.972656 -1.320312 2.21875 -1.050781 2.53125 -0.84375 C 2.851562 -0.644531 3.226562 -0.546875 3.65625 -0.546875 Z M 3.65625 -0.546875 "/></g></g></g><g fill="#ffffff" fill-opacity="1"><g transform="translate(125.299342, 166.741533)"><g><path d="M 1.078125 2.875 L 1.078125 -5.609375 L 1.890625 -5.609375 L 1.890625 -4.625 L 1.921875 -4.625 C 2.148438 -4.976562 2.453125 -5.253906 2.828125 -5.453125 C 3.210938 -5.648438 3.613281 -5.75 4.03125 -5.75 C 4.601562 -5.75 5.109375 -5.617188 5.546875 -5.359375 C 5.992188 -5.097656 6.335938 -4.742188 6.578125 -4.296875 C 6.816406 -3.847656 6.9375 -3.347656 6.9375 -2.796875 C 6.9375 -2.242188 6.816406 -1.742188 6.578125 -1.296875 C 6.335938 -0.859375 5.992188 -0.507812 5.546875 -0.25 C 5.109375 0.0078125 4.601562 0.140625 4.03125 0.140625 C 3.625 0.140625 3.226562 0.046875 2.84375 -0.140625 C 2.46875 -0.335938 2.160156 -0.609375 1.921875 -0.953125 L 1.890625 -0.953125 L 1.890625 2.875 Z M 3.953125 -0.546875 C 4.390625 -0.546875 4.765625 -0.644531 5.078125 -0.84375 C 5.398438 -1.050781 5.644531 -1.320312 5.8125 -1.65625 C 5.976562 -2 6.0625 -2.378906 6.0625 -2.796875 C 6.0625 -3.222656 5.976562 -3.609375 5.8125 -3.953125 C 5.644531 -4.296875 5.398438 -4.566406 5.078125 -4.765625 C 4.765625 -4.960938 4.390625 -5.0625 3.953125 -5.0625 C 3.535156 -5.0625 3.160156 -4.960938 2.828125 -4.765625 C 2.503906 -4.566406 2.25 -4.296875 2.0625 -3.953125 C 1.882812 -3.609375 1.796875 -3.222656 1.796875 -2.796875 C 1.796875 -2.378906 1.882812 -2 2.0625 -1.65625 C 2.25 -1.3125 2.503906 -1.039062 2.828125 -0.84375 C 3.160156 -0.644531 3.535156 -0.546875 3.953125 -0.546875 Z M 3.953125 -0.546875 "/></g></g></g><g fill="#ffffff" fill-opacity="1"><g transform="translate(132.899089, 166.741533)"><g><path d="M 1.921875 0 L 1.09375 0 L 1.09375 -9.046875 L 1.921875 -9.046875 Z M 1.921875 0 "/></g></g></g><g fill="#ffffff" fill-opacity="1"><g transform="translate(135.915056, 166.741533)"><g><path d="M 3.5625 0.140625 C 3.007812 0.140625 2.515625 0.015625 2.078125 -0.234375 C 1.640625 -0.492188 1.296875 -0.847656 1.046875 -1.296875 C 0.796875 -1.742188 0.671875 -2.242188 0.671875 -2.796875 C 0.671875 -3.347656 0.789062 -3.847656 1.03125 -4.296875 C 1.28125 -4.753906 1.617188 -5.109375 2.046875 -5.359375 C 2.484375 -5.617188 2.96875 -5.75 3.5 -5.75 C 4.0625 -5.75 4.539062 -5.625 4.9375 -5.375 C 5.34375 -5.132812 5.648438 -4.800781 5.859375 -4.375 C 6.066406 -3.957031 6.171875 -3.488281 6.171875 -2.96875 C 6.171875 -2.8125 6.164062 -2.679688 6.15625 -2.578125 L 1.515625 -2.578125 C 1.523438 -2.203125 1.617188 -1.859375 1.796875 -1.546875 C 1.984375 -1.242188 2.226562 -1 2.53125 -0.8125 C 2.84375 -0.632812 3.1875 -0.546875 3.5625 -0.546875 C 3.957031 -0.546875 4.3125 -0.640625 4.625 -0.828125 C 4.945312 -1.015625 5.191406 -1.242188 5.359375 -1.515625 L 5.96875 -1.046875 C 5.34375 -0.253906 4.539062 0.140625 3.5625 0.140625 Z M 5.34375 -3.234375 C 5.332031 -3.585938 5.253906 -3.898438 5.109375 -4.171875 C 4.960938 -4.453125 4.75 -4.671875 4.46875 -4.828125 C 4.195312 -4.984375 3.875 -5.0625 3.5 -5.0625 C 3.144531 -5.0625 2.820312 -4.976562 2.53125 -4.8125 C 2.238281 -4.644531 2.003906 -4.414062 1.828125 -4.125 C 1.648438 -3.84375 1.550781 -3.546875 1.53125 -3.234375 Z M 5.34375 -3.234375 "/></g></g></g><g fill="#ffffff" fill-opacity="1"><g transform="translate(142.760818, 166.741533)"><g><path d="M 2.671875 0.140625 C 2.222656 0.140625 1.800781 0.0507812 1.40625 -0.125 C 1.019531 -0.3125 0.703125 -0.585938 0.453125 -0.953125 L 1.09375 -1.421875 C 1.25 -1.171875 1.46875 -0.960938 1.75 -0.796875 C 2.03125 -0.628906 2.332031 -0.546875 2.65625 -0.546875 C 3.039062 -0.546875 3.351562 -0.625 3.59375 -0.78125 C 3.84375 -0.9375 3.96875 -1.1875 3.96875 -1.53125 C 3.96875 -1.71875 3.90625 -1.875 3.78125 -2 C 3.664062 -2.132812 3.488281 -2.25 3.25 -2.34375 C 3.019531 -2.4375 2.710938 -2.523438 2.328125 -2.609375 C 2.035156 -2.679688 1.773438 -2.765625 1.546875 -2.859375 C 1.316406 -2.960938 1.117188 -3.113281 0.953125 -3.3125 C 0.796875 -3.519531 0.71875 -3.789062 0.71875 -4.125 C 0.71875 -4.476562 0.804688 -4.773438 0.984375 -5.015625 C 1.171875 -5.265625 1.414062 -5.445312 1.71875 -5.5625 C 2.019531 -5.6875 2.351562 -5.75 2.71875 -5.75 C 3.113281 -5.75 3.492188 -5.65625 3.859375 -5.46875 C 4.234375 -5.289062 4.507812 -5.046875 4.6875 -4.734375 L 4.0625 -4.265625 C 3.9375 -4.503906 3.75 -4.695312 3.5 -4.84375 C 3.257812 -4.988281 2.988281 -5.0625 2.6875 -5.0625 C 2.351562 -5.0625 2.070312 -4.988281 1.84375 -4.84375 C 1.613281 -4.695312 1.5 -4.476562 1.5 -4.1875 C 1.5 -3.9375 1.601562 -3.738281 1.8125 -3.59375 C 2.019531 -3.445312 2.363281 -3.328125 2.84375 -3.234375 C 3.5 -3.097656 3.984375 -2.894531 4.296875 -2.625 C 4.617188 -2.363281 4.78125 -2.019531 4.78125 -1.59375 C 4.78125 -1.1875 4.675781 -0.851562 4.46875 -0.59375 C 4.269531 -0.332031 4.007812 -0.144531 3.6875 -0.03125 C 3.375 0.0820312 3.035156 0.140625 2.671875 0.140625 Z M 2.671875 0.140625 "/></g></g></g></svg>