<svg xmlns="http://www.w3.org/2000/svg" xmlns:xlink="http://www.w3.org/1999/xlink" width="120" zoomAndPan="magnify" viewBox="0 0 90 104.999996" height="140" preserveAspectRatio="xMidYMid meet" version="1.2"><defs><clipPath id="8e9e839a5c"><path d="M 40 7.5 L 50 7.5 L 50 18 L 40 18 Z M 40 7.5 "/></clipPath><clipPath id="5849c6d048"><path d="M 26 46 L 41 46 L 41 60.75 L 26 60.75 Z M 26 46 "/></clipPath><clipPath id="7c29a86e43"><path d="M 49 46 L 64 46 L 64 60.75 L 49 60.75 Z M 49 46 "/></clipPath><clipPath id="bde654a730"><rect x="0" width="63" y="0" height="21"/></clipPath><clipPath id="38c2696e92"><rect x="0" width="54" y="0" height="16"/></clipPath></defs><g id="f4dd384931"><path style=" stroke:none;fill-rule:nonzero;fill:#ffffff;fill-opacity:1;" d="M 60.371094 26.570312 C 60.867188 26.4375 61.269531 26.121094 61.453125 25.671875 C 61.453125 25.625 61.496094 25.625 61.496094 25.578125 L 61.992188 23.957031 C 62.261719 23.324219 62.082031 22.558594 61.542969 22.109375 C 58.339844 19.359375 54.460938 17.464844 50.316406 16.609375 C 50.132812 16.832031 49.953125 17.058594 49.730469 17.285156 C 49.367188 17.644531 49.007812 17.960938 48.554688 18.230469 C 49.1875 18.320312 49.636719 18.367188 49.773438 18.367188 C 53.652344 19.175781 57.257812 20.9375 60.234375 23.414062 L 59.875 24.679688 C 56.988281 22.425781 53.742188 20.890625 50.269531 20.035156 C 49.773438 19.945312 49.277344 20.214844 49.1875 20.710938 C 49.140625 20.847656 49.140625 21.027344 49.1875 21.160156 L 49.1875 25.761719 C 49.773438 25.625 50.359375 25.535156 50.992188 25.535156 L 50.992188 22.109375 C 53.832031 22.964844 56.535156 24.316406 58.972656 26.257812 C 59.378906 26.570312 59.875 26.664062 60.371094 26.570312 Z M 60.371094 26.570312 "/><path style=" stroke:none;fill-rule:nonzero;fill:#ffffff;fill-opacity:1;" d="M 28.355469 22.515625 C 27.90625 22.964844 27.726562 23.640625 27.953125 24.273438 L 28.402344 25.804688 C 28.402344 25.851562 28.402344 25.851562 28.449219 25.894531 C 28.628906 26.390625 29.078125 26.753906 29.574219 26.84375 C 29.664062 26.886719 29.800781 26.886719 29.933594 26.886719 C 30.339844 26.886719 30.703125 26.753906 31.015625 26.480469 C 33.40625 24.363281 36.203125 22.828125 39.222656 21.972656 L 39.222656 25.535156 C 39.855469 25.578125 40.441406 25.671875 41.027344 25.804688 L 41.027344 21.160156 C 41.027344 21.117188 41.027344 21.027344 41.027344 20.980469 C 41.070312 20.847656 41.070312 20.710938 41.027344 20.621094 C 40.9375 20.125 40.441406 19.808594 39.945312 19.945312 C 36.335938 20.753906 32.910156 22.46875 30.070312 24.902344 L 29.710938 23.730469 C 32.550781 21.027344 36.203125 19.132812 40.171875 18.320312 C 40.304688 18.320312 40.757812 18.230469 41.386719 18.1875 C 40.980469 17.914062 40.574219 17.597656 40.214844 17.285156 C 39.988281 17.058594 39.808594 16.832031 39.628906 16.609375 C 35.347656 17.507812 31.421875 19.539062 28.355469 22.515625 Z M 28.355469 22.515625 "/><g clip-rule="nonzero" clip-path="url(#8e9e839a5c)"><path style=" stroke:none;fill-rule:nonzero;fill:#ffffff;fill-opacity:1;" d="M 44.996094 7.5 C 42.289062 7.5 40.078125 9.710938 40.078125 12.460938 C 40.078125 13.765625 40.574219 15.03125 41.523438 15.976562 C 42.46875 16.921875 43.6875 17.417969 44.996094 17.417969 C 46.300781 17.417969 47.566406 16.921875 48.464844 15.976562 C 49.414062 15.03125 49.910156 13.8125 49.910156 12.460938 C 49.910156 9.710938 47.699219 7.5 44.996094 7.5 Z M 47.203125 14.714844 C 46.617188 15.300781 45.851562 15.617188 44.996094 15.617188 C 44.183594 15.617188 43.371094 15.300781 42.785156 14.714844 C 42.199219 14.128906 41.882812 13.316406 41.882812 12.460938 C 41.882812 10.703125 43.28125 9.304688 44.996094 9.304688 C 46.707031 9.304688 48.105469 10.703125 48.105469 12.460938 C 48.105469 13.316406 47.789062 14.082031 47.203125 14.714844 Z M 47.203125 14.714844 "/></g><path style=" stroke:none;fill-rule:nonzero;fill:#ffffff;fill-opacity:1;" d="M 26.285156 40.820312 C 26.375 41.316406 26.824219 41.632812 27.320312 41.585938 C 27.5 41.539062 27.636719 41.496094 27.726562 41.40625 C 27.726562 41.40625 27.769531 41.40625 27.769531 41.40625 L 30.296875 40.277344 L 30.160156 40.097656 C 30.117188 40.054688 30.117188 40.007812 30.070312 39.964844 L 29.890625 39.648438 C 29.84375 39.601562 29.800781 39.511719 29.800781 39.46875 C 29.664062 39.195312 29.574219 38.925781 29.4375 38.65625 L 27.90625 39.332031 C 27.636719 36.355469 27.90625 33.289062 28.808594 30.3125 C 28.945312 29.816406 28.851562 29.324219 28.582031 28.917969 C 28.265625 28.511719 27.816406 28.238281 27.320312 28.238281 C 27.273438 28.238281 27.273438 28.238281 27.230469 28.238281 L 25.515625 28.375 C 24.839844 28.375 24.210938 28.828125 23.984375 29.503906 C 22.632812 33.558594 22.316406 37.933594 23.082031 42.171875 C 23.847656 42.398438 24.570312 42.757812 25.199219 43.210938 C 25.019531 42.578125 24.886719 42.082031 24.886719 41.992188 C 24.164062 38.023438 24.433594 33.964844 25.695312 30.222656 L 27.09375 30.132812 C 25.96875 33.652344 25.742188 37.257812 26.285156 40.820312 Z M 26.285156 40.820312 "/><g clip-rule="nonzero" clip-path="url(#5849c6d048)"><path style=" stroke:none;fill-rule:nonzero;fill:#ffffff;fill-opacity:1;" d="M 28.449219 51.007812 C 28.402344 50.917969 28.132812 50.46875 27.816406 49.882812 C 27.726562 50.378906 27.589844 50.828125 27.367188 51.324219 C 27.230469 51.59375 27.09375 51.867188 26.960938 52.089844 C 29.484375 55.832031 32.867188 58.765625 36.832031 60.566406 C 37.058594 60.65625 37.285156 60.703125 37.511719 60.703125 C 37.914062 60.703125 38.320312 60.566406 38.636719 60.296875 L 39.898438 59.304688 C 39.945312 59.304688 39.945312 59.261719 39.988281 59.261719 C 40.351562 58.898438 40.53125 58.359375 40.484375 57.863281 C 40.441406 57.367188 40.078125 56.914062 39.628906 56.644531 C 36.742188 55.203125 34.21875 53.082031 32.28125 50.558594 L 36.878906 48.304688 L 35.660156 46.859375 L 30.792969 49.25 C 30.746094 49.25 30.746094 49.296875 30.703125 49.296875 C 30.566406 49.296875 30.429688 49.339844 30.339844 49.429688 C 29.933594 49.703125 29.84375 50.289062 30.117188 50.695312 C 32.234375 53.804688 35.164062 56.375 38.546875 58.132812 L 37.554688 58.898438 C 33.902344 57.1875 30.746094 54.480469 28.449219 51.007812 Z M 28.449219 51.007812 "/></g><path style=" stroke:none;fill-rule:nonzero;fill:#ffffff;fill-opacity:1;" d="M 21.144531 53.667969 C 21.773438 53.667969 22.40625 53.535156 22.992188 53.308594 C 24.253906 52.8125 25.199219 51.867188 25.742188 50.648438 C 26.285156 49.429688 26.285156 48.078125 25.789062 46.816406 C 24.75 44.246094 21.863281 43.027344 19.292969 44.019531 C 18.03125 44.515625 17.085938 45.464844 16.542969 46.679688 C 16.003906 47.898438 16.003906 49.25 16.5 50.511719 C 17.265625 52.453125 19.160156 53.667969 21.144531 53.667969 Z M 18.210938 47.402344 C 18.527344 46.636719 19.160156 46.003906 19.972656 45.6875 C 20.375 45.554688 20.78125 45.464844 21.144531 45.464844 C 22.40625 45.464844 23.625 46.230469 24.117188 47.449219 C 24.433594 48.214844 24.433594 49.117188 24.074219 49.882812 C 23.757812 50.648438 23.128906 51.28125 22.316406 51.59375 C 20.691406 52.226562 18.796875 51.460938 18.167969 49.835938 C 17.851562 49.070312 17.851562 48.214844 18.210938 47.402344 Z M 18.210938 47.402344 "/><path style=" stroke:none;fill-rule:nonzero;fill:#ffffff;fill-opacity:1;" d="M 64.878906 43.164062 C 65.507812 42.714844 66.230469 42.351562 66.996094 42.128906 C 67.761719 37.890625 67.449219 33.515625 66.09375 29.457031 C 65.871094 28.78125 65.238281 28.332031 64.5625 28.332031 L 62.847656 28.195312 C 62.804688 28.195312 62.804688 28.195312 62.757812 28.195312 C 62.261719 28.195312 61.8125 28.464844 61.496094 28.871094 C 61.179688 29.277344 61.089844 29.773438 61.269531 30.269531 C 62.171875 33.289062 62.441406 36.3125 62.171875 39.285156 L 60.640625 38.609375 C 60.550781 38.878906 60.414062 39.152344 60.277344 39.421875 C 60.234375 39.46875 60.234375 39.558594 60.1875 39.601562 L 59.917969 39.964844 C 59.875 40.007812 59.875 40.054688 59.828125 40.097656 L 59.691406 40.277344 L 62.21875 41.40625 C 62.21875 41.40625 62.261719 41.40625 62.261719 41.40625 C 62.398438 41.496094 62.535156 41.585938 62.667969 41.585938 C 63.164062 41.675781 63.617188 41.316406 63.707031 40.820312 C 64.246094 37.257812 64.019531 33.605469 62.984375 30.042969 L 64.382812 30.132812 C 65.644531 33.875 65.914062 37.933594 65.195312 41.902344 C 65.148438 42.035156 65.058594 42.53125 64.878906 43.164062 Z M 64.878906 43.164062 "/><g clip-rule="nonzero" clip-path="url(#7c29a86e43)"><path style=" stroke:none;fill-rule:nonzero;fill:#ffffff;fill-opacity:1;" d="M 62.578125 51.324219 C 62.398438 50.875 62.261719 50.378906 62.128906 49.882812 C 61.8125 50.46875 61.585938 50.917969 61.496094 51.007812 C 59.195312 54.480469 56.039062 57.1875 52.433594 58.855469 L 51.441406 58.089844 C 54.824219 56.328125 57.710938 53.757812 59.875 50.648438 C 60.144531 50.242188 60.054688 49.65625 59.648438 49.386719 C 59.558594 49.296875 59.421875 49.25 59.289062 49.25 C 59.242188 49.25 59.242188 49.207031 59.195312 49.207031 L 54.328125 46.816406 L 53.109375 48.257812 L 57.710938 50.511719 C 55.816406 53.039062 53.289062 55.15625 50.40625 56.601562 C 49.953125 56.824219 49.59375 57.277344 49.546875 57.816406 C 49.503906 58.359375 49.636719 58.855469 50.042969 59.214844 C 50.089844 59.214844 50.089844 59.261719 50.132812 59.261719 L 51.398438 60.253906 C 51.710938 60.523438 52.117188 60.65625 52.523438 60.65625 C 52.75 60.65625 52.976562 60.613281 53.199219 60.523438 C 57.167969 58.71875 60.550781 55.789062 63.074219 52.046875 C 62.847656 51.867188 62.714844 51.59375 62.578125 51.324219 Z M 62.578125 51.324219 "/></g><path style=" stroke:none;fill-rule:nonzero;fill:#ffffff;fill-opacity:1;" d="M 70.695312 44.019531 C 68.125 42.984375 65.195312 44.246094 64.203125 46.816406 C 63.707031 48.035156 63.707031 49.386719 64.246094 50.648438 C 64.789062 51.867188 65.734375 52.8125 66.996094 53.308594 C 67.582031 53.535156 68.214844 53.667969 68.847656 53.667969 C 70.828125 53.667969 72.722656 52.496094 73.488281 50.558594 C 73.984375 49.339844 73.984375 47.988281 73.445312 46.726562 C 72.902344 45.464844 71.957031 44.515625 70.695312 44.019531 Z M 71.820312 49.835938 C 71.144531 51.460938 69.296875 52.273438 67.671875 51.59375 C 66.863281 51.28125 66.277344 50.695312 65.914062 49.882812 C 65.597656 49.117188 65.554688 48.257812 65.871094 47.449219 C 66.367188 46.183594 67.582031 45.464844 68.847656 45.464844 C 69.25 45.464844 69.65625 45.554688 70.019531 45.6875 C 70.828125 46.003906 71.414062 46.589844 71.777344 47.402344 C 72.136719 48.214844 72.136719 49.070312 71.820312 49.835938 Z M 71.820312 49.835938 "/><path style=" stroke:none;fill-rule:nonzero;fill:#ffffff;fill-opacity:1;" d="M 57.617188 40.144531 L 58.386719 39.0625 C 58.386719 39.0625 58.386719 39.015625 58.429688 39.015625 L 58.609375 38.699219 C 58.609375 38.699219 58.65625 38.65625 58.65625 38.65625 C 59.242188 37.527344 59.511719 36.3125 59.46875 35.003906 C 59.378906 30.898438 55.90625 27.519531 51.621094 27.339844 C 48.917969 27.203125 46.574219 28.734375 45.039062 30.496094 C 43.507812 28.734375 41.160156 27.203125 38.457031 27.339844 C 34.171875 27.5625 30.703125 30.898438 30.613281 35.003906 C 30.566406 36.265625 30.835938 37.484375 31.421875 38.65625 C 31.421875 38.65625 31.421875 38.699219 31.46875 38.699219 L 31.648438 39.015625 C 31.648438 39.015625 31.648438 39.0625 31.695312 39.0625 L 32.460938 40.144531 C 32.460938 40.1875 32.503906 40.234375 32.550781 40.234375 L 44.003906 53.941406 C 44.273438 54.210938 44.632812 54.390625 44.996094 54.390625 C 45.355469 54.390625 45.714844 54.210938 46.03125 53.941406 L 57.574219 40.234375 C 57.574219 40.1875 57.574219 40.1875 57.617188 40.144531 Z M 56.132812 39.105469 L 44.996094 52.316406 L 33.859375 39.105469 L 33.136719 38.070312 L 33 37.84375 C 32.550781 36.988281 32.371094 36.039062 32.414062 35.09375 C 32.503906 31.984375 35.253906 29.324219 38.546875 29.1875 C 41.027344 29.050781 43.144531 30.808594 44.316406 32.523438 C 44.5 32.75 44.769531 32.929688 45.039062 32.929688 C 45.308594 32.929688 45.625 32.792969 45.761719 32.523438 C 46.933594 30.855469 49.050781 29.097656 51.53125 29.1875 C 54.824219 29.367188 57.574219 32.027344 57.664062 35.09375 C 57.710938 36.039062 57.484375 36.988281 57.078125 37.84375 Z M 56.132812 39.105469 "/><g transform="matrix(1,0,0,1,14,61)"><g clip-path="url(#bde654a730)"><g style="fill:#ffffff;fill-opacity:1;"><g transform="translate(0.478244, 13.936352)"><path style="stroke:none" d="M 4.875 0.203125 C 4.0625 0.203125 3.332031 0.0195312 2.6875 -0.34375 C 2.050781 -0.707031 1.550781 -1.210938 1.1875 -1.859375 C 0.820312 -2.515625 0.640625 -3.25 0.640625 -4.0625 C 0.640625 -4.875 0.820312 -5.601562 1.1875 -6.25 C 1.5625 -6.90625 2.070312 -7.414062 2.71875 -7.78125 C 3.363281 -8.15625 4.082031 -8.34375 4.875 -8.34375 C 5.476562 -8.34375 6.039062 -8.222656 6.5625 -7.984375 C 7.082031 -7.753906 7.488281 -7.441406 7.78125 -7.046875 L 7.078125 -6.546875 C 6.960938 -6.734375 6.796875 -6.90625 6.578125 -7.0625 C 6.367188 -7.226562 6.117188 -7.359375 5.828125 -7.453125 C 5.535156 -7.554688 5.222656 -7.609375 4.890625 -7.609375 C 4.210938 -7.609375 3.617188 -7.445312 3.109375 -7.125 C 2.597656 -6.8125 2.203125 -6.378906 1.921875 -5.828125 C 1.648438 -5.285156 1.515625 -4.695312 1.515625 -4.0625 C 1.515625 -3.425781 1.648438 -2.835938 1.921875 -2.296875 C 2.203125 -1.753906 2.597656 -1.320312 3.109375 -1 C 3.617188 -0.675781 4.210938 -0.515625 4.890625 -0.515625 C 5.378906 -0.515625 5.832031 -0.613281 6.25 -0.8125 C 6.664062 -1.007812 7.007812 -1.3125 7.28125 -1.71875 L 7.921875 -1.3125 C 7.628906 -0.863281 7.222656 -0.5 6.703125 -0.21875 C 6.179688 0.0625 5.570312 0.203125 4.875 0.203125 Z M 4.875 0.203125 "/></g></g><g style="fill:#ffffff;fill-opacity:1;"><g transform="translate(8.748997, 13.936352)"><path style="stroke:none" d="M 3.5 0.140625 C 2.957031 0.140625 2.46875 0.0195312 2.03125 -0.21875 C 1.59375 -0.46875 1.25 -0.804688 1 -1.234375 C 0.757812 -1.671875 0.640625 -2.15625 0.640625 -2.6875 C 0.640625 -3.21875 0.757812 -3.695312 1 -4.125 C 1.25 -4.5625 1.59375 -4.898438 2.03125 -5.140625 C 2.46875 -5.390625 2.957031 -5.515625 3.5 -5.515625 C 4.050781 -5.515625 4.546875 -5.390625 4.984375 -5.140625 C 5.421875 -4.898438 5.757812 -4.5625 6 -4.125 C 6.25 -3.695312 6.375 -3.21875 6.375 -2.6875 C 6.375 -2.15625 6.25 -1.671875 6 -1.234375 C 5.757812 -0.804688 5.421875 -0.46875 4.984375 -0.21875 C 4.546875 0.0195312 4.050781 0.140625 3.5 0.140625 Z M 3.5 -0.53125 C 3.90625 -0.53125 4.265625 -0.625 4.578125 -0.8125 C 4.890625 -1.007812 5.128906 -1.269531 5.296875 -1.59375 C 5.460938 -1.914062 5.546875 -2.28125 5.546875 -2.6875 C 5.546875 -3.09375 5.460938 -3.457031 5.296875 -3.78125 C 5.128906 -4.113281 4.890625 -4.375 4.578125 -4.5625 C 4.265625 -4.757812 3.90625 -4.859375 3.5 -4.859375 C 3.09375 -4.859375 2.734375 -4.757812 2.421875 -4.5625 C 2.117188 -4.375 1.882812 -4.113281 1.71875 -3.78125 C 1.550781 -3.457031 1.46875 -3.09375 1.46875 -2.6875 C 1.46875 -2.28125 1.550781 -1.914062 1.71875 -1.59375 C 1.882812 -1.269531 2.117188 -1.007812 2.421875 -0.8125 C 2.734375 -0.625 3.09375 -0.53125 3.5 -0.53125 Z M 3.5 -0.53125 "/></g></g><g style="fill:#ffffff;fill-opacity:1;"><g transform="translate(15.767646, 13.936352)"><path style="stroke:none" d="M 7.109375 -5.515625 C 7.773438 -5.515625 8.28125 -5.3125 8.625 -4.90625 C 8.976562 -4.507812 9.15625 -3.972656 9.15625 -3.296875 L 9.15625 0 L 8.375 0 L 8.375 -2.96875 C 8.375 -3.570312 8.257812 -4.035156 8.03125 -4.359375 C 7.8125 -4.691406 7.460938 -4.859375 6.984375 -4.859375 C 6.617188 -4.859375 6.320312 -4.765625 6.09375 -4.578125 C 5.875 -4.390625 5.710938 -4.144531 5.609375 -3.84375 C 5.503906 -3.550781 5.453125 -3.222656 5.453125 -2.859375 L 5.453125 0 L 4.671875 0 L 4.671875 -3.140625 C 4.671875 -3.515625 4.632812 -3.820312 4.5625 -4.0625 C 4.488281 -4.3125 4.351562 -4.503906 4.15625 -4.640625 C 3.96875 -4.785156 3.707031 -4.859375 3.375 -4.859375 C 3.113281 -4.859375 2.863281 -4.78125 2.625 -4.625 C 2.382812 -4.46875 2.1875 -4.226562 2.03125 -3.90625 C 1.882812 -3.59375 1.8125 -3.207031 1.8125 -2.75 L 1.8125 0 L 1.03125 0 L 1.03125 -4.1875 C 1.03125 -4.65625 1.015625 -5.054688 0.984375 -5.390625 L 1.734375 -5.390625 C 1.765625 -5.003906 1.78125 -4.691406 1.78125 -4.453125 L 1.796875 -4.453125 C 1.960938 -4.765625 2.203125 -5.019531 2.515625 -5.21875 C 2.835938 -5.414062 3.191406 -5.515625 3.578125 -5.515625 C 3.921875 -5.515625 4.238281 -5.425781 4.53125 -5.25 C 4.832031 -5.082031 5.0625 -4.789062 5.21875 -4.375 C 5.40625 -4.75 5.660156 -5.03125 5.984375 -5.21875 C 6.304688 -5.414062 6.679688 -5.515625 7.109375 -5.515625 Z M 7.109375 -5.515625 "/></g></g><g style="fill:#ffffff;fill-opacity:1;"><g transform="translate(25.910795, 13.936352)"><path style="stroke:none" d="M 7.109375 -5.515625 C 7.773438 -5.515625 8.28125 -5.3125 8.625 -4.90625 C 8.976562 -4.507812 9.15625 -3.972656 9.15625 -3.296875 L 9.15625 0 L 8.375 0 L 8.375 -2.96875 C 8.375 -3.570312 8.257812 -4.035156 8.03125 -4.359375 C 7.8125 -4.691406 7.460938 -4.859375 6.984375 -4.859375 C 6.617188 -4.859375 6.320312 -4.765625 6.09375 -4.578125 C 5.875 -4.390625 5.710938 -4.144531 5.609375 -3.84375 C 5.503906 -3.550781 5.453125 -3.222656 5.453125 -2.859375 L 5.453125 0 L 4.671875 0 L 4.671875 -3.140625 C 4.671875 -3.515625 4.632812 -3.820312 4.5625 -4.0625 C 4.488281 -4.3125 4.351562 -4.503906 4.15625 -4.640625 C 3.96875 -4.785156 3.707031 -4.859375 3.375 -4.859375 C 3.113281 -4.859375 2.863281 -4.78125 2.625 -4.625 C 2.382812 -4.46875 2.1875 -4.226562 2.03125 -3.90625 C 1.882812 -3.59375 1.8125 -3.207031 1.8125 -2.75 L 1.8125 0 L 1.03125 0 L 1.03125 -4.1875 C 1.03125 -4.65625 1.015625 -5.054688 0.984375 -5.390625 L 1.734375 -5.390625 C 1.765625 -5.003906 1.78125 -4.691406 1.78125 -4.453125 L 1.796875 -4.453125 C 1.960938 -4.765625 2.203125 -5.019531 2.515625 -5.21875 C 2.835938 -5.414062 3.191406 -5.515625 3.578125 -5.515625 C 3.921875 -5.515625 4.238281 -5.425781 4.53125 -5.25 C 4.832031 -5.082031 5.0625 -4.789062 5.21875 -4.375 C 5.40625 -4.75 5.660156 -5.03125 5.984375 -5.21875 C 6.304688 -5.414062 6.679688 -5.515625 7.109375 -5.515625 Z M 7.109375 -5.515625 "/></g></g><g style="fill:#ffffff;fill-opacity:1;"><g transform="translate(36.053945, 13.936352)"><path style="stroke:none" d="M 3.03125 0.140625 C 2.363281 0.140625 1.851562 -0.0546875 1.5 -0.453125 C 1.15625 -0.859375 0.984375 -1.398438 0.984375 -2.078125 L 0.984375 -5.390625 L 1.765625 -5.390625 L 1.765625 -2.40625 C 1.765625 -1.800781 1.875 -1.332031 2.09375 -1 C 2.3125 -0.675781 2.691406 -0.515625 3.234375 -0.515625 C 3.515625 -0.515625 3.78125 -0.59375 4.03125 -0.75 C 4.28125 -0.90625 4.476562 -1.140625 4.625 -1.453125 C 4.78125 -1.765625 4.859375 -2.15625 4.859375 -2.625 L 4.859375 -5.390625 L 5.640625 -5.390625 L 5.640625 -1.1875 C 5.640625 -0.726562 5.65625 -0.332031 5.6875 0 L 4.9375 0 C 4.90625 -0.382812 4.890625 -0.691406 4.890625 -0.921875 L 4.875 -0.921875 C 4.769531 -0.710938 4.617188 -0.53125 4.421875 -0.375 C 4.234375 -0.21875 4.015625 -0.09375 3.765625 0 C 3.523438 0.09375 3.28125 0.140625 3.03125 0.140625 Z M 3.03125 0.140625 "/></g></g><g style="fill:#ffffff;fill-opacity:1;"><g transform="translate(42.727976, 13.936352)"><path style="stroke:none" d="M 1.03125 -4.1875 C 1.03125 -4.65625 1.015625 -5.054688 0.984375 -5.390625 L 1.734375 -5.390625 C 1.765625 -5.003906 1.78125 -4.691406 1.78125 -4.453125 L 1.796875 -4.453125 C 1.898438 -4.660156 2.046875 -4.84375 2.234375 -5 C 2.429688 -5.15625 2.648438 -5.28125 2.890625 -5.375 C 3.140625 -5.46875 3.390625 -5.515625 3.640625 -5.515625 C 4.304688 -5.515625 4.8125 -5.3125 5.15625 -4.90625 C 5.507812 -4.507812 5.6875 -3.972656 5.6875 -3.296875 L 5.6875 0 L 4.90625 0 L 4.90625 -2.96875 C 4.90625 -3.570312 4.796875 -4.035156 4.578125 -4.359375 C 4.359375 -4.691406 3.984375 -4.859375 3.453125 -4.859375 C 3.160156 -4.859375 2.890625 -4.78125 2.640625 -4.625 C 2.398438 -4.46875 2.203125 -4.234375 2.046875 -3.921875 C 1.890625 -3.609375 1.8125 -3.21875 1.8125 -2.75 L 1.8125 0 L 1.03125 0 Z M 1.03125 -4.1875 "/></g></g><g style="fill:#ffffff;fill-opacity:1;"><g transform="translate(49.402008, 13.936352)"><path style="stroke:none" d="M 1.4375 -6.890625 C 1.289062 -6.890625 1.160156 -6.941406 1.046875 -7.046875 C 0.941406 -7.160156 0.890625 -7.289062 0.890625 -7.4375 C 0.890625 -7.59375 0.941406 -7.722656 1.046875 -7.828125 C 1.160156 -7.941406 1.289062 -8 1.4375 -8 C 1.582031 -8 1.707031 -7.941406 1.8125 -7.828125 C 1.925781 -7.722656 1.984375 -7.59375 1.984375 -7.4375 C 1.984375 -7.289062 1.925781 -7.160156 1.8125 -7.046875 C 1.707031 -6.941406 1.582031 -6.890625 1.4375 -6.890625 Z M 1.828125 0 L 1.046875 0 L 1.046875 -5.390625 L 1.828125 -5.390625 Z M 1.828125 0 "/></g></g><g style="fill:#ffffff;fill-opacity:1;"><g transform="translate(52.273795, 13.936352)"><path style="stroke:none" d="M 2.53125 0.0625 C 2.164062 0.0625 1.84375 -0.0390625 1.5625 -0.25 C 1.289062 -0.46875 1.15625 -0.835938 1.15625 -1.359375 L 1.15625 -4.734375 L 0.046875 -4.734375 L 0.046875 -5.390625 L 1.15625 -5.390625 L 1.15625 -6.890625 L 1.9375 -6.890625 L 1.9375 -5.390625 L 3.453125 -5.390625 L 3.453125 -4.734375 L 1.9375 -4.734375 L 1.9375 -1.578125 C 1.9375 -1.203125 2.003906 -0.941406 2.140625 -0.796875 C 2.285156 -0.660156 2.488281 -0.59375 2.75 -0.59375 C 2.851562 -0.59375 2.960938 -0.609375 3.078125 -0.640625 C 3.203125 -0.671875 3.316406 -0.710938 3.421875 -0.765625 L 3.453125 -0.09375 C 3.171875 0.0078125 2.863281 0.0625 2.53125 0.0625 Z M 2.53125 0.0625 "/></g></g><g style="fill:#ffffff;fill-opacity:1;"><g transform="translate(55.915222, 13.936352)"><path style="stroke:none" d="M 1.0625 2.75 C 0.820312 2.75 0.585938 2.726562 0.359375 2.6875 L 0.4375 1.96875 C 0.625 2.03125 0.816406 2.0625 1.015625 2.0625 C 1.265625 2.0625 1.46875 1.984375 1.625 1.828125 C 1.78125 1.671875 1.921875 1.429688 2.046875 1.109375 L 2.484375 -0.015625 L 0.1875 -5.390625 L 1.0625 -5.390625 L 2.875 -0.84375 L 2.90625 -0.84375 L 4.578125 -5.390625 L 5.421875 -5.390625 L 2.75 1.390625 C 2.570312 1.835938 2.351562 2.175781 2.09375 2.40625 C 1.84375 2.632812 1.5 2.75 1.0625 2.75 Z M 1.0625 2.75 "/></g></g></g></g><g transform="matrix(1,0,0,1,18,79)"><g clip-path="url(#38c2696e92)"><g style="fill:#ffffff;fill-opacity:1;"><g transform="translate(0.115668, 6.242849)"><path style="stroke:none" d="M 0.46875 0 L 0.46875 -3.484375 L 1.5 -3.484375 C 1.695312 -3.484375 1.878906 -3.457031 2.046875 -3.40625 C 2.210938 -3.351562 2.347656 -3.257812 2.453125 -3.125 C 2.566406 -2.988281 2.625 -2.8125 2.625 -2.59375 C 2.625 -2.46875 2.597656 -2.351562 2.546875 -2.25 C 2.492188 -2.15625 2.421875 -2.070312 2.328125 -2 C 2.234375 -1.925781 2.128906 -1.875 2.015625 -1.84375 L 2.015625 -1.828125 C 2.160156 -1.816406 2.289062 -1.773438 2.40625 -1.703125 C 2.53125 -1.628906 2.625 -1.523438 2.6875 -1.390625 C 2.757812 -1.265625 2.796875 -1.125 2.796875 -0.96875 C 2.796875 -0.769531 2.742188 -0.597656 2.640625 -0.453125 C 2.535156 -0.304688 2.382812 -0.191406 2.1875 -0.109375 C 1.988281 -0.0351562 1.757812 0 1.5 0 Z M 1.53125 -1.953125 C 1.65625 -1.953125 1.769531 -1.972656 1.875 -2.015625 C 1.988281 -2.054688 2.082031 -2.125 2.15625 -2.21875 C 2.226562 -2.3125 2.265625 -2.425781 2.265625 -2.5625 C 2.265625 -2.78125 2.1875 -2.9375 2.03125 -3.03125 C 1.882812 -3.125 1.6875 -3.171875 1.4375 -3.171875 L 0.8125 -3.171875 L 0.8125 -1.953125 Z M 1.484375 -0.3125 C 1.660156 -0.3125 1.820312 -0.332031 1.96875 -0.375 C 2.113281 -0.425781 2.226562 -0.5 2.3125 -0.59375 C 2.394531 -0.695312 2.4375 -0.828125 2.4375 -0.984375 C 2.4375 -1.210938 2.359375 -1.382812 2.203125 -1.5 C 2.046875 -1.613281 1.828125 -1.671875 1.546875 -1.671875 L 0.8125 -1.671875 L 0.8125 -0.3125 Z M 1.484375 -0.3125 "/></g></g><g style="fill:#ffffff;fill-opacity:1;"><g transform="translate(3.248599, 6.242849)"><path style="stroke:none" d="M 1.46875 0.0625 C 1.238281 0.0625 1.03125 0.0078125 0.84375 -0.09375 C 0.664062 -0.195312 0.523438 -0.34375 0.421875 -0.53125 C 0.328125 -0.71875 0.28125 -0.925781 0.28125 -1.15625 C 0.28125 -1.375 0.328125 -1.578125 0.421875 -1.765625 C 0.523438 -1.953125 0.664062 -2.097656 0.84375 -2.203125 C 1.019531 -2.304688 1.21875 -2.359375 1.4375 -2.359375 C 1.664062 -2.359375 1.863281 -2.304688 2.03125 -2.203125 C 2.195312 -2.109375 2.320312 -1.972656 2.40625 -1.796875 C 2.5 -1.628906 2.546875 -1.4375 2.546875 -1.21875 C 2.546875 -1.15625 2.539062 -1.101562 2.53125 -1.0625 L 0.625 -1.0625 C 0.625 -0.90625 0.660156 -0.765625 0.734375 -0.640625 C 0.804688 -0.515625 0.90625 -0.410156 1.03125 -0.328125 C 1.164062 -0.253906 1.3125 -0.21875 1.46875 -0.21875 C 1.625 -0.21875 1.769531 -0.253906 1.90625 -0.328125 C 2.039062 -0.410156 2.140625 -0.507812 2.203125 -0.625 L 2.453125 -0.421875 C 2.203125 -0.0976562 1.875 0.0625 1.46875 0.0625 Z M 2.203125 -1.328125 C 2.191406 -1.472656 2.15625 -1.601562 2.09375 -1.71875 C 2.039062 -1.832031 1.957031 -1.921875 1.84375 -1.984375 C 1.726562 -2.046875 1.59375 -2.078125 1.4375 -2.078125 C 1.289062 -2.078125 1.15625 -2.039062 1.03125 -1.96875 C 0.914062 -1.90625 0.820312 -1.816406 0.75 -1.703125 C 0.675781 -1.585938 0.632812 -1.460938 0.625 -1.328125 Z M 2.203125 -1.328125 "/></g></g><g style="fill:#ffffff;fill-opacity:1;"><g transform="translate(6.066267, 6.242849)"><path style="stroke:none" d="M 0.78125 0 L 0.453125 0 L 0.453125 -3.71875 L 0.78125 -3.71875 Z M 0.78125 0 "/></g></g><g style="fill:#ffffff;fill-opacity:1;"><g transform="translate(7.307616, 6.242849)"><path style="stroke:none" d="M 1.5 0.0625 C 1.269531 0.0625 1.0625 0.0078125 0.875 -0.09375 C 0.6875 -0.195312 0.539062 -0.34375 0.4375 -0.53125 C 0.332031 -0.71875 0.28125 -0.925781 0.28125 -1.15625 C 0.28125 -1.382812 0.332031 -1.585938 0.4375 -1.765625 C 0.539062 -1.953125 0.6875 -2.097656 0.875 -2.203125 C 1.0625 -2.304688 1.269531 -2.359375 1.5 -2.359375 C 1.738281 -2.359375 1.953125 -2.304688 2.140625 -2.203125 C 2.328125 -2.097656 2.472656 -1.953125 2.578125 -1.765625 C 2.679688 -1.585938 2.734375 -1.382812 2.734375 -1.15625 C 2.734375 -0.925781 2.679688 -0.71875 2.578125 -0.53125 C 2.472656 -0.34375 2.328125 -0.195312 2.140625 -0.09375 C 1.953125 0.0078125 1.738281 0.0625 1.5 0.0625 Z M 1.5 -0.21875 C 1.675781 -0.21875 1.828125 -0.257812 1.953125 -0.34375 C 2.085938 -0.425781 2.191406 -0.535156 2.265625 -0.671875 C 2.335938 -0.816406 2.375 -0.976562 2.375 -1.15625 C 2.375 -1.320312 2.335938 -1.472656 2.265625 -1.609375 C 2.191406 -1.753906 2.085938 -1.867188 1.953125 -1.953125 C 1.828125 -2.035156 1.675781 -2.078125 1.5 -2.078125 C 1.320312 -2.078125 1.164062 -2.035156 1.03125 -1.953125 C 0.90625 -1.867188 0.804688 -1.753906 0.734375 -1.609375 C 0.660156 -1.472656 0.625 -1.320312 0.625 -1.15625 C 0.625 -0.976562 0.660156 -0.816406 0.734375 -0.671875 C 0.804688 -0.535156 0.90625 -0.425781 1.03125 -0.34375 C 1.164062 -0.257812 1.320312 -0.21875 1.5 -0.21875 Z M 1.5 -0.21875 "/></g></g><g style="fill:#ffffff;fill-opacity:1;"><g transform="translate(10.317398, 6.242849)"><path style="stroke:none" d="M 0.4375 -1.796875 C 0.4375 -1.992188 0.429688 -2.164062 0.421875 -2.3125 L 0.75 -2.3125 C 0.757812 -2.144531 0.765625 -2.007812 0.765625 -1.90625 C 0.816406 -2 0.878906 -2.078125 0.953125 -2.140625 C 1.035156 -2.210938 1.128906 -2.265625 1.234375 -2.296875 C 1.335938 -2.335938 1.445312 -2.359375 1.5625 -2.359375 C 1.84375 -2.359375 2.054688 -2.269531 2.203125 -2.09375 C 2.359375 -1.925781 2.4375 -1.695312 2.4375 -1.40625 L 2.4375 0 L 2.109375 0 L 2.109375 -1.28125 C 2.109375 -1.53125 2.0625 -1.722656 1.96875 -1.859375 C 1.875 -2.003906 1.710938 -2.078125 1.484375 -2.078125 C 1.359375 -2.078125 1.238281 -2.039062 1.125 -1.96875 C 1.019531 -1.90625 0.9375 -1.804688 0.875 -1.671875 C 0.8125 -1.546875 0.78125 -1.382812 0.78125 -1.1875 L 0.78125 0 L 0.4375 0 Z M 0.4375 -1.796875 "/></g></g><g style="fill:#ffffff;fill-opacity:1;"><g transform="translate(13.1794, 6.242849)"><path style="stroke:none" d="M 1.4375 1.1875 C 1.226562 1.1875 1.023438 1.144531 0.828125 1.0625 C 0.628906 0.976562 0.460938 0.863281 0.328125 0.71875 L 0.5625 0.46875 C 0.65625 0.582031 0.78125 0.679688 0.9375 0.765625 C 1.101562 0.847656 1.273438 0.890625 1.453125 0.890625 C 1.765625 0.890625 1.988281 0.804688 2.125 0.640625 C 2.269531 0.472656 2.34375 0.253906 2.34375 -0.015625 L 2.34375 -0.453125 C 2.25 -0.316406 2.117188 -0.207031 1.953125 -0.125 C 1.796875 -0.0390625 1.632812 0 1.46875 0 C 1.226562 0 1.019531 -0.046875 0.84375 -0.140625 C 0.664062 -0.242188 0.523438 -0.382812 0.421875 -0.5625 C 0.328125 -0.75 0.28125 -0.953125 0.28125 -1.171875 C 0.28125 -1.390625 0.328125 -1.585938 0.421875 -1.765625 C 0.523438 -1.953125 0.664062 -2.097656 0.84375 -2.203125 C 1.03125 -2.304688 1.238281 -2.359375 1.46875 -2.359375 C 1.644531 -2.359375 1.8125 -2.316406 1.96875 -2.234375 C 2.125 -2.160156 2.25 -2.050781 2.34375 -1.90625 L 2.34375 -2.3125 L 2.6875 -2.3125 L 2.6875 -0.015625 C 2.6875 0.179688 2.648438 0.367188 2.578125 0.546875 C 2.503906 0.722656 2.375 0.875 2.1875 1 C 2 1.125 1.75 1.1875 1.4375 1.1875 Z M 1.5 -0.28125 C 1.664062 -0.28125 1.816406 -0.316406 1.953125 -0.390625 C 2.085938 -0.472656 2.191406 -0.582031 2.265625 -0.71875 C 2.347656 -0.851562 2.390625 -1.007812 2.390625 -1.1875 C 2.390625 -1.34375 2.347656 -1.488281 2.265625 -1.625 C 2.191406 -1.757812 2.085938 -1.867188 1.953125 -1.953125 C 1.816406 -2.035156 1.664062 -2.078125 1.5 -2.078125 C 1.320312 -2.078125 1.164062 -2.035156 1.03125 -1.953125 C 0.90625 -1.867188 0.804688 -1.757812 0.734375 -1.625 C 0.660156 -1.488281 0.625 -1.34375 0.625 -1.1875 C 0.625 -1.019531 0.660156 -0.867188 0.734375 -0.734375 C 0.804688 -0.597656 0.90625 -0.488281 1.03125 -0.40625 C 1.164062 -0.320312 1.320312 -0.28125 1.5 -0.28125 Z M 1.5 -0.28125 "/></g></g><g style="fill:#ffffff;fill-opacity:1;"><g transform="translate(16.292632, 6.242849)"><path style="stroke:none" d=""/></g></g><g style="fill:#ffffff;fill-opacity:1;"><g transform="translate(17.524128, 6.242849)"><path style="stroke:none" d="M 1.09375 0.03125 C 0.925781 0.03125 0.785156 -0.015625 0.671875 -0.109375 C 0.554688 -0.203125 0.5 -0.359375 0.5 -0.578125 L 0.5 -2.03125 L 0.015625 -2.03125 L 0.015625 -2.3125 L 0.5 -2.3125 L 0.5 -2.953125 L 0.828125 -2.953125 L 0.828125 -2.3125 L 1.484375 -2.3125 L 1.484375 -2.03125 L 0.828125 -2.03125 L 0.828125 -0.671875 C 0.828125 -0.515625 0.859375 -0.40625 0.921875 -0.34375 C 0.984375 -0.28125 1.066406 -0.25 1.171875 -0.25 C 1.222656 -0.25 1.269531 -0.253906 1.3125 -0.265625 C 1.363281 -0.285156 1.414062 -0.304688 1.46875 -0.328125 L 1.484375 -0.046875 C 1.359375 0.00390625 1.226562 0.03125 1.09375 0.03125 Z M 1.09375 0.03125 "/></g></g><g style="fill:#ffffff;fill-opacity:1;"><g transform="translate(19.085671, 6.242849)"><path style="stroke:none" d="M 1.5 0.0625 C 1.269531 0.0625 1.0625 0.0078125 0.875 -0.09375 C 0.6875 -0.195312 0.539062 -0.34375 0.4375 -0.53125 C 0.332031 -0.71875 0.28125 -0.925781 0.28125 -1.15625 C 0.28125 -1.382812 0.332031 -1.585938 0.4375 -1.765625 C 0.539062 -1.953125 0.6875 -2.097656 0.875 -2.203125 C 1.0625 -2.304688 1.269531 -2.359375 1.5 -2.359375 C 1.738281 -2.359375 1.953125 -2.304688 2.140625 -2.203125 C 2.328125 -2.097656 2.472656 -1.953125 2.578125 -1.765625 C 2.679688 -1.585938 2.734375 -1.382812 2.734375 -1.15625 C 2.734375 -0.925781 2.679688 -0.71875 2.578125 -0.53125 C 2.472656 -0.34375 2.328125 -0.195312 2.140625 -0.09375 C 1.953125 0.0078125 1.738281 0.0625 1.5 0.0625 Z M 1.5 -0.21875 C 1.675781 -0.21875 1.828125 -0.257812 1.953125 -0.34375 C 2.085938 -0.425781 2.191406 -0.535156 2.265625 -0.671875 C 2.335938 -0.816406 2.375 -0.976562 2.375 -1.15625 C 2.375 -1.320312 2.335938 -1.472656 2.265625 -1.609375 C 2.191406 -1.753906 2.085938 -1.867188 1.953125 -1.953125 C 1.828125 -2.035156 1.675781 -2.078125 1.5 -2.078125 C 1.320312 -2.078125 1.164062 -2.035156 1.03125 -1.953125 C 0.90625 -1.867188 0.804688 -1.753906 0.734375 -1.609375 C 0.660156 -1.472656 0.625 -1.320312 0.625 -1.15625 C 0.625 -0.976562 0.660156 -0.816406 0.734375 -0.671875 C 0.804688 -0.535156 0.90625 -0.425781 1.03125 -0.34375 C 1.164062 -0.257812 1.320312 -0.21875 1.5 -0.21875 Z M 1.5 -0.21875 "/></g></g><g style="fill:#ffffff;fill-opacity:1;"><g transform="translate(22.095452, 6.242849)"><path style="stroke:none" d=""/></g></g><g style="fill:#ffffff;fill-opacity:1;"><g transform="translate(23.326948, 6.242849)"><path style="stroke:none" d="M 1.0625 0.0625 C 0.9375 0.0625 0.8125 0.0390625 0.6875 0 C 0.570312 -0.0507812 0.472656 -0.128906 0.390625 -0.234375 C 0.304688 -0.347656 0.265625 -0.484375 0.265625 -0.640625 C 0.265625 -0.859375 0.335938 -1.023438 0.484375 -1.140625 C 0.628906 -1.253906 0.8125 -1.328125 1.03125 -1.359375 C 1.257812 -1.390625 1.539062 -1.40625 1.875 -1.40625 L 1.890625 -1.40625 L 1.890625 -1.484375 C 1.890625 -1.679688 1.835938 -1.828125 1.734375 -1.921875 C 1.628906 -2.023438 1.476562 -2.078125 1.28125 -2.078125 C 1.144531 -2.078125 1.015625 -2.050781 0.890625 -2 C 0.773438 -1.957031 0.675781 -1.894531 0.59375 -1.8125 L 0.40625 -2.03125 C 0.507812 -2.132812 0.640625 -2.210938 0.796875 -2.265625 C 0.953125 -2.328125 1.125 -2.359375 1.3125 -2.359375 C 1.476562 -2.359375 1.628906 -2.328125 1.765625 -2.265625 C 1.898438 -2.203125 2.003906 -2.109375 2.078125 -1.984375 C 2.160156 -1.859375 2.203125 -1.707031 2.203125 -1.53125 L 2.203125 -0.515625 C 2.203125 -0.421875 2.207031 -0.328125 2.21875 -0.234375 C 2.226562 -0.140625 2.238281 -0.0625 2.25 0 L 1.953125 0 C 1.929688 -0.132812 1.921875 -0.257812 1.921875 -0.375 L 1.90625 -0.375 C 1.800781 -0.21875 1.679688 -0.101562 1.546875 -0.03125 C 1.410156 0.03125 1.25 0.0625 1.0625 0.0625 Z M 1.15625 -0.21875 C 1.3125 -0.21875 1.441406 -0.25 1.546875 -0.3125 C 1.660156 -0.382812 1.742188 -0.476562 1.796875 -0.59375 C 1.859375 -0.707031 1.890625 -0.835938 1.890625 -0.984375 L 1.890625 -1.15625 L 1.796875 -1.15625 C 1.453125 -1.15625 1.164062 -1.117188 0.9375 -1.046875 C 0.71875 -0.984375 0.609375 -0.851562 0.609375 -0.65625 C 0.609375 -0.5 0.660156 -0.382812 0.765625 -0.3125 C 0.878906 -0.25 1.007812 -0.21875 1.15625 -0.21875 Z M 1.15625 -0.21875 "/></g></g><g style="fill:#ffffff;fill-opacity:1;"><g transform="translate(25.957432, 6.242849)"><path style="stroke:none" d=""/></g></g><g style="fill:#ffffff;fill-opacity:1;"><g transform="translate(27.188929, 6.242849)"><path style="stroke:none" d="M 1.390625 0 L 1.015625 0 L 0.078125 -2.3125 L 0.453125 -2.3125 L 1.203125 -0.359375 L 1.96875 -2.3125 L 2.328125 -2.3125 Z M 1.390625 0 "/></g></g><g style="fill:#ffffff;fill-opacity:1;"><g transform="translate(29.592818, 6.242849)"><path style="stroke:none" d="M 0.609375 -2.953125 C 0.546875 -2.953125 0.488281 -2.972656 0.4375 -3.015625 C 0.394531 -3.066406 0.375 -3.125 0.375 -3.1875 C 0.375 -3.25 0.394531 -3.300781 0.4375 -3.34375 C 0.488281 -3.394531 0.546875 -3.421875 0.609375 -3.421875 C 0.671875 -3.421875 0.722656 -3.394531 0.765625 -3.34375 C 0.816406 -3.300781 0.84375 -3.25 0.84375 -3.1875 C 0.84375 -3.125 0.816406 -3.066406 0.765625 -3.015625 C 0.722656 -2.972656 0.671875 -2.953125 0.609375 -2.953125 Z M 0.78125 0 L 0.453125 0 L 0.453125 -2.3125 L 0.78125 -2.3125 Z M 0.78125 0 "/></g></g><g style="fill:#ffffff;fill-opacity:1;"><g transform="translate(30.824314, 6.242849)"><path style="stroke:none" d="M 1.671875 0.0625 C 1.492188 0.0625 1.328125 0.0234375 1.171875 -0.046875 C 1.015625 -0.128906 0.890625 -0.242188 0.796875 -0.390625 L 0.78125 -0.390625 L 0.78125 0 L 0.453125 0 L 0.453125 -3.71875 L 0.78125 -3.71875 L 0.78125 -1.90625 L 0.796875 -1.90625 C 0.890625 -2.050781 1.015625 -2.160156 1.171875 -2.234375 C 1.328125 -2.316406 1.492188 -2.359375 1.671875 -2.359375 C 1.898438 -2.359375 2.101562 -2.304688 2.28125 -2.203125 C 2.46875 -2.097656 2.609375 -1.953125 2.703125 -1.765625 C 2.804688 -1.578125 2.859375 -1.375 2.859375 -1.15625 C 2.859375 -0.925781 2.804688 -0.71875 2.703125 -0.53125 C 2.609375 -0.351562 2.46875 -0.207031 2.28125 -0.09375 C 2.101562 0.0078125 1.898438 0.0625 1.671875 0.0625 Z M 1.640625 -0.21875 C 1.816406 -0.21875 1.96875 -0.257812 2.09375 -0.34375 C 2.226562 -0.425781 2.328125 -0.535156 2.390625 -0.671875 C 2.460938 -0.816406 2.5 -0.976562 2.5 -1.15625 C 2.5 -1.320312 2.460938 -1.472656 2.390625 -1.609375 C 2.328125 -1.753906 2.226562 -1.867188 2.09375 -1.953125 C 1.96875 -2.035156 1.816406 -2.078125 1.640625 -2.078125 C 1.460938 -2.078125 1.304688 -2.035156 1.171875 -1.953125 C 1.035156 -1.867188 0.929688 -1.753906 0.859375 -1.609375 C 0.785156 -1.472656 0.75 -1.320312 0.75 -1.15625 C 0.75 -0.976562 0.785156 -0.816406 0.859375 -0.671875 C 0.929688 -0.535156 1.035156 -0.425781 1.171875 -0.34375 C 1.304688 -0.257812 1.460938 -0.21875 1.640625 -0.21875 Z M 1.640625 -0.21875 "/></g></g><g style="fill:#ffffff;fill-opacity:1;"><g transform="translate(33.962175, 6.242849)"><path style="stroke:none" d="M 0.4375 -1.796875 C 0.4375 -1.992188 0.429688 -2.164062 0.421875 -2.3125 L 0.75 -2.3125 C 0.757812 -2.144531 0.765625 -2.007812 0.765625 -1.90625 C 0.835938 -2.039062 0.9375 -2.148438 1.0625 -2.234375 C 1.195312 -2.316406 1.347656 -2.359375 1.515625 -2.359375 C 1.597656 -2.359375 1.671875 -2.351562 1.734375 -2.34375 L 1.6875 -2.015625 C 1.664062 -2.023438 1.628906 -2.03125 1.578125 -2.03125 C 1.535156 -2.039062 1.492188 -2.046875 1.453125 -2.046875 C 1.328125 -2.046875 1.210938 -2.015625 1.109375 -1.953125 C 1.003906 -1.890625 0.921875 -1.796875 0.859375 -1.671875 C 0.804688 -1.546875 0.78125 -1.382812 0.78125 -1.1875 L 0.78125 0 L 0.4375 0 Z M 0.4375 -1.796875 "/></g></g><g style="fill:#ffffff;fill-opacity:1;"><g transform="translate(35.735536, 6.242849)"><path style="stroke:none" d="M 1.0625 0.0625 C 0.9375 0.0625 0.8125 0.0390625 0.6875 0 C 0.570312 -0.0507812 0.472656 -0.128906 0.390625 -0.234375 C 0.304688 -0.347656 0.265625 -0.484375 0.265625 -0.640625 C 0.265625 -0.859375 0.335938 -1.023438 0.484375 -1.140625 C 0.628906 -1.253906 0.8125 -1.328125 1.03125 -1.359375 C 1.257812 -1.390625 1.539062 -1.40625 1.875 -1.40625 L 1.890625 -1.40625 L 1.890625 -1.484375 C 1.890625 -1.679688 1.835938 -1.828125 1.734375 -1.921875 C 1.628906 -2.023438 1.476562 -2.078125 1.28125 -2.078125 C 1.144531 -2.078125 1.015625 -2.050781 0.890625 -2 C 0.773438 -1.957031 0.675781 -1.894531 0.59375 -1.8125 L 0.40625 -2.03125 C 0.507812 -2.132812 0.640625 -2.210938 0.796875 -2.265625 C 0.953125 -2.328125 1.125 -2.359375 1.3125 -2.359375 C 1.476562 -2.359375 1.628906 -2.328125 1.765625 -2.265625 C 1.898438 -2.203125 2.003906 -2.109375 2.078125 -1.984375 C 2.160156 -1.859375 2.203125 -1.707031 2.203125 -1.53125 L 2.203125 -0.515625 C 2.203125 -0.421875 2.207031 -0.328125 2.21875 -0.234375 C 2.226562 -0.140625 2.238281 -0.0625 2.25 0 L 1.953125 0 C 1.929688 -0.132812 1.921875 -0.257812 1.921875 -0.375 L 1.90625 -0.375 C 1.800781 -0.21875 1.679688 -0.101562 1.546875 -0.03125 C 1.410156 0.03125 1.25 0.0625 1.0625 0.0625 Z M 1.15625 -0.21875 C 1.3125 -0.21875 1.441406 -0.25 1.546875 -0.3125 C 1.660156 -0.382812 1.742188 -0.476562 1.796875 -0.59375 C 1.859375 -0.707031 1.890625 -0.835938 1.890625 -0.984375 L 1.890625 -1.15625 L 1.796875 -1.15625 C 1.453125 -1.15625 1.164062 -1.117188 0.9375 -1.046875 C 0.71875 -0.984375 0.609375 -0.851562 0.609375 -0.65625 C 0.609375 -0.5 0.660156 -0.382812 0.765625 -0.3125 C 0.878906 -0.25 1.007812 -0.21875 1.15625 -0.21875 Z M 1.15625 -0.21875 "/></g></g><g style="fill:#ffffff;fill-opacity:1;"><g transform="translate(38.36602, 6.242849)"><path style="stroke:none" d="M 0.4375 -1.796875 C 0.4375 -1.992188 0.429688 -2.164062 0.421875 -2.3125 L 0.75 -2.3125 C 0.757812 -2.144531 0.765625 -2.007812 0.765625 -1.90625 C 0.816406 -2 0.878906 -2.078125 0.953125 -2.140625 C 1.035156 -2.210938 1.128906 -2.265625 1.234375 -2.296875 C 1.335938 -2.335938 1.445312 -2.359375 1.5625 -2.359375 C 1.84375 -2.359375 2.054688 -2.269531 2.203125 -2.09375 C 2.359375 -1.925781 2.4375 -1.695312 2.4375 -1.40625 L 2.4375 0 L 2.109375 0 L 2.109375 -1.28125 C 2.109375 -1.53125 2.0625 -1.722656 1.96875 -1.859375 C 1.875 -2.003906 1.710938 -2.078125 1.484375 -2.078125 C 1.359375 -2.078125 1.238281 -2.039062 1.125 -1.96875 C 1.019531 -1.90625 0.9375 -1.804688 0.875 -1.671875 C 0.8125 -1.546875 0.78125 -1.382812 0.78125 -1.1875 L 0.78125 0 L 0.4375 0 Z M 0.4375 -1.796875 "/></g></g><g style="fill:#ffffff;fill-opacity:1;"><g transform="translate(41.228022, 6.242849)"><path style="stroke:none" d="M 1.09375 0.03125 C 0.925781 0.03125 0.785156 -0.015625 0.671875 -0.109375 C 0.554688 -0.203125 0.5 -0.359375 0.5 -0.578125 L 0.5 -2.03125 L 0.015625 -2.03125 L 0.015625 -2.3125 L 0.5 -2.3125 L 0.5 -2.953125 L 0.828125 -2.953125 L 0.828125 -2.3125 L 1.484375 -2.3125 L 1.484375 -2.03125 L 0.828125 -2.03125 L 0.828125 -0.671875 C 0.828125 -0.515625 0.859375 -0.40625 0.921875 -0.34375 C 0.984375 -0.28125 1.066406 -0.25 1.171875 -0.25 C 1.222656 -0.25 1.269531 -0.253906 1.3125 -0.265625 C 1.363281 -0.285156 1.414062 -0.304688 1.46875 -0.328125 L 1.484375 -0.046875 C 1.359375 0.00390625 1.226562 0.03125 1.09375 0.03125 Z M 1.09375 0.03125 "/></g></g><g style="fill:#ffffff;fill-opacity:1;"><g transform="translate(42.789565, 6.242849)"><path style="stroke:none" d=""/></g></g><g style="fill:#ffffff;fill-opacity:1;"><g transform="translate(44.021061, 6.242849)"><path style="stroke:none" d="M 1.0625 0.0625 C 0.9375 0.0625 0.8125 0.0390625 0.6875 0 C 0.570312 -0.0507812 0.472656 -0.128906 0.390625 -0.234375 C 0.304688 -0.347656 0.265625 -0.484375 0.265625 -0.640625 C 0.265625 -0.859375 0.335938 -1.023438 0.484375 -1.140625 C 0.628906 -1.253906 0.8125 -1.328125 1.03125 -1.359375 C 1.257812 -1.390625 1.539062 -1.40625 1.875 -1.40625 L 1.890625 -1.40625 L 1.890625 -1.484375 C 1.890625 -1.679688 1.835938 -1.828125 1.734375 -1.921875 C 1.628906 -2.023438 1.476562 -2.078125 1.28125 -2.078125 C 1.144531 -2.078125 1.015625 -2.050781 0.890625 -2 C 0.773438 -1.957031 0.675781 -1.894531 0.59375 -1.8125 L 0.40625 -2.03125 C 0.507812 -2.132812 0.640625 -2.210938 0.796875 -2.265625 C 0.953125 -2.328125 1.125 -2.359375 1.3125 -2.359375 C 1.476562 -2.359375 1.628906 -2.328125 1.765625 -2.265625 C 1.898438 -2.203125 2.003906 -2.109375 2.078125 -1.984375 C 2.160156 -1.859375 2.203125 -1.707031 2.203125 -1.53125 L 2.203125 -0.515625 C 2.203125 -0.421875 2.207031 -0.328125 2.21875 -0.234375 C 2.226562 -0.140625 2.238281 -0.0625 2.25 0 L 1.953125 0 C 1.929688 -0.132812 1.921875 -0.257812 1.921875 -0.375 L 1.90625 -0.375 C 1.800781 -0.21875 1.679688 -0.101562 1.546875 -0.03125 C 1.410156 0.03125 1.25 0.0625 1.0625 0.0625 Z M 1.15625 -0.21875 C 1.3125 -0.21875 1.441406 -0.25 1.546875 -0.3125 C 1.660156 -0.382812 1.742188 -0.476562 1.796875 -0.59375 C 1.859375 -0.707031 1.890625 -0.835938 1.890625 -0.984375 L 1.890625 -1.15625 L 1.796875 -1.15625 C 1.453125 -1.15625 1.164062 -1.117188 0.9375 -1.046875 C 0.71875 -0.984375 0.609375 -0.851562 0.609375 -0.65625 C 0.609375 -0.5 0.660156 -0.382812 0.765625 -0.3125 C 0.878906 -0.25 1.007812 -0.21875 1.15625 -0.21875 Z M 1.15625 -0.21875 "/></g></g><g style="fill:#ffffff;fill-opacity:1;"><g transform="translate(46.651545, 6.242849)"><path style="stroke:none" d="M 0.4375 -1.796875 C 0.4375 -1.992188 0.429688 -2.164062 0.421875 -2.3125 L 0.75 -2.3125 C 0.757812 -2.144531 0.765625 -2.007812 0.765625 -1.90625 C 0.816406 -2 0.878906 -2.078125 0.953125 -2.140625 C 1.035156 -2.210938 1.128906 -2.265625 1.234375 -2.296875 C 1.335938 -2.335938 1.445312 -2.359375 1.5625 -2.359375 C 1.84375 -2.359375 2.054688 -2.269531 2.203125 -2.09375 C 2.359375 -1.925781 2.4375 -1.695312 2.4375 -1.40625 L 2.4375 0 L 2.109375 0 L 2.109375 -1.28125 C 2.109375 -1.53125 2.0625 -1.722656 1.96875 -1.859375 C 1.875 -2.003906 1.710938 -2.078125 1.484375 -2.078125 C 1.359375 -2.078125 1.238281 -2.039062 1.125 -1.96875 C 1.019531 -1.90625 0.9375 -1.804688 0.875 -1.671875 C 0.8125 -1.546875 0.78125 -1.382812 0.78125 -1.1875 L 0.78125 0 L 0.4375 0 Z M 0.4375 -1.796875 "/></g></g><g style="fill:#ffffff;fill-opacity:1;"><g transform="translate(49.513547, 6.242849)"><path style="stroke:none" d="M 1.46875 0.0625 C 1.238281 0.0625 1.03125 0.0078125 0.84375 -0.09375 C 0.664062 -0.207031 0.523438 -0.351562 0.421875 -0.53125 C 0.328125 -0.71875 0.28125 -0.925781 0.28125 -1.15625 C 0.28125 -1.375 0.328125 -1.578125 0.421875 -1.765625 C 0.523438 -1.953125 0.664062 -2.097656 0.84375 -2.203125 C 1.03125 -2.304688 1.238281 -2.359375 1.46875 -2.359375 C 1.632812 -2.359375 1.796875 -2.316406 1.953125 -2.234375 C 2.109375 -2.160156 2.238281 -2.050781 2.34375 -1.90625 L 2.34375 -3.71875 L 2.6875 -3.71875 L 2.6875 0 L 2.34375 0 L 2.34375 -0.390625 C 2.238281 -0.242188 2.109375 -0.128906 1.953125 -0.046875 C 1.796875 0.0234375 1.632812 0.0625 1.46875 0.0625 Z M 1.5 -0.21875 C 1.664062 -0.21875 1.816406 -0.257812 1.953125 -0.34375 C 2.085938 -0.425781 2.191406 -0.535156 2.265625 -0.671875 C 2.347656 -0.816406 2.390625 -0.976562 2.390625 -1.15625 C 2.390625 -1.320312 2.347656 -1.472656 2.265625 -1.609375 C 2.191406 -1.753906 2.085938 -1.867188 1.953125 -1.953125 C 1.816406 -2.035156 1.664062 -2.078125 1.5 -2.078125 C 1.320312 -2.078125 1.164062 -2.035156 1.03125 -1.953125 C 0.90625 -1.867188 0.804688 -1.753906 0.734375 -1.609375 C 0.660156 -1.472656 0.625 -1.320312 0.625 -1.15625 C 0.625 -0.976562 0.660156 -0.816406 0.734375 -0.671875 C 0.804688 -0.535156 0.90625 -0.425781 1.03125 -0.34375 C 1.164062 -0.257812 1.320312 -0.21875 1.5 -0.21875 Z M 1.5 -0.21875 "/></g></g><g style="fill:#ffffff;fill-opacity:1;"><g transform="translate(52.652836, 6.242849)"><path style="stroke:none" d=""/></g></g><g style="fill:#ffffff;fill-opacity:1;"><g transform="translate(3.547164, 12.810797)"><path style="stroke:none" d="M 0.609375 -2.953125 C 0.546875 -2.953125 0.488281 -2.972656 0.4375 -3.015625 C 0.394531 -3.066406 0.375 -3.125 0.375 -3.1875 C 0.375 -3.25 0.394531 -3.300781 0.4375 -3.34375 C 0.488281 -3.394531 0.546875 -3.421875 0.609375 -3.421875 C 0.671875 -3.421875 0.722656 -3.394531 0.765625 -3.34375 C 0.816406 -3.300781 0.84375 -3.25 0.84375 -3.1875 C 0.84375 -3.125 0.816406 -3.066406 0.765625 -3.015625 C 0.722656 -2.972656 0.671875 -2.953125 0.609375 -2.953125 Z M 0.78125 0 L 0.453125 0 L 0.453125 -2.3125 L 0.78125 -2.3125 Z M 0.78125 0 "/></g></g><g style="fill:#ffffff;fill-opacity:1;"><g transform="translate(4.778661, 12.810797)"><path style="stroke:none" d="M 0.4375 -1.796875 C 0.4375 -1.992188 0.429688 -2.164062 0.421875 -2.3125 L 0.75 -2.3125 C 0.757812 -2.144531 0.765625 -2.007812 0.765625 -1.90625 C 0.816406 -2 0.878906 -2.078125 0.953125 -2.140625 C 1.035156 -2.210938 1.128906 -2.265625 1.234375 -2.296875 C 1.335938 -2.335938 1.445312 -2.359375 1.5625 -2.359375 C 1.84375 -2.359375 2.054688 -2.269531 2.203125 -2.09375 C 2.359375 -1.925781 2.4375 -1.695312 2.4375 -1.40625 L 2.4375 0 L 2.109375 0 L 2.109375 -1.28125 C 2.109375 -1.53125 2.0625 -1.722656 1.96875 -1.859375 C 1.875 -2.003906 1.710938 -2.078125 1.484375 -2.078125 C 1.359375 -2.078125 1.238281 -2.039062 1.125 -1.96875 C 1.019531 -1.90625 0.9375 -1.804688 0.875 -1.671875 C 0.8125 -1.546875 0.78125 -1.382812 0.78125 -1.1875 L 0.78125 0 L 0.4375 0 Z M 0.4375 -1.796875 "/></g></g><g style="fill:#ffffff;fill-opacity:1;"><g transform="translate(7.640663, 12.810797)"><path style="stroke:none" d="M 1.5 0.0625 C 1.257812 0.0625 1.046875 0.0078125 0.859375 -0.09375 C 0.671875 -0.195312 0.523438 -0.34375 0.421875 -0.53125 C 0.328125 -0.71875 0.28125 -0.925781 0.28125 -1.15625 C 0.28125 -1.382812 0.328125 -1.585938 0.421875 -1.765625 C 0.523438 -1.953125 0.671875 -2.097656 0.859375 -2.203125 C 1.046875 -2.304688 1.257812 -2.359375 1.5 -2.359375 C 1.664062 -2.359375 1.828125 -2.320312 1.984375 -2.25 C 2.140625 -2.1875 2.265625 -2.09375 2.359375 -1.96875 L 2.109375 -1.78125 C 2.046875 -1.863281 1.960938 -1.929688 1.859375 -1.984375 C 1.753906 -2.046875 1.640625 -2.078125 1.515625 -2.078125 C 1.335938 -2.078125 1.179688 -2.035156 1.046875 -1.953125 C 0.910156 -1.878906 0.804688 -1.769531 0.734375 -1.625 C 0.660156 -1.476562 0.625 -1.320312 0.625 -1.15625 C 0.625 -0.976562 0.660156 -0.816406 0.734375 -0.671875 C 0.804688 -0.535156 0.910156 -0.425781 1.046875 -0.34375 C 1.179688 -0.257812 1.332031 -0.21875 1.5 -0.21875 C 1.769531 -0.21875 1.976562 -0.320312 2.125 -0.53125 L 2.375 -0.34375 C 2.164062 -0.0703125 1.875 0.0625 1.5 0.0625 Z M 1.5 0.0625 "/></g></g><g style="fill:#ffffff;fill-opacity:1;"><g transform="translate(10.103662, 12.810797)"><path style="stroke:none" d="M 0.78125 0 L 0.453125 0 L 0.453125 -3.71875 L 0.78125 -3.71875 Z M 0.78125 0 "/></g></g><g style="fill:#ffffff;fill-opacity:1;"><g transform="translate(11.345011, 12.810797)"><path style="stroke:none" d="M 1.296875 0.0625 C 1.015625 0.0625 0.796875 -0.0195312 0.640625 -0.1875 C 0.492188 -0.363281 0.421875 -0.597656 0.421875 -0.890625 L 0.421875 -2.3125 L 0.765625 -2.3125 L 0.765625 -1.03125 C 0.765625 -0.769531 0.804688 -0.566406 0.890625 -0.421875 C 0.984375 -0.285156 1.148438 -0.21875 1.390625 -0.21875 C 1.503906 -0.21875 1.613281 -0.25 1.71875 -0.3125 C 1.832031 -0.382812 1.921875 -0.488281 1.984375 -0.625 C 2.046875 -0.757812 2.078125 -0.925781 2.078125 -1.125 L 2.078125 -2.3125 L 2.421875 -2.3125 L 2.421875 -0.5 C 2.421875 -0.3125 2.425781 -0.144531 2.4375 0 L 2.109375 0 C 2.097656 -0.164062 2.09375 -0.296875 2.09375 -0.390625 C 2.039062 -0.304688 1.972656 -0.226562 1.890625 -0.15625 C 1.816406 -0.09375 1.726562 -0.0390625 1.625 0 C 1.519531 0.0390625 1.410156 0.0625 1.296875 0.0625 Z M 1.296875 0.0625 "/></g></g><g style="fill:#ffffff;fill-opacity:1;"><g transform="translate(14.207013, 12.810797)"><path style="stroke:none" d="M 1.09375 0.0625 C 0.914062 0.0625 0.742188 0.0234375 0.578125 -0.046875 C 0.421875 -0.128906 0.289062 -0.242188 0.1875 -0.390625 L 0.453125 -0.578125 C 0.515625 -0.472656 0.601562 -0.382812 0.71875 -0.3125 C 0.832031 -0.25 0.957031 -0.21875 1.09375 -0.21875 C 1.25 -0.21875 1.378906 -0.25 1.484375 -0.3125 C 1.585938 -0.382812 1.640625 -0.488281 1.640625 -0.625 C 1.640625 -0.707031 1.613281 -0.773438 1.5625 -0.828125 C 1.507812 -0.878906 1.4375 -0.921875 1.34375 -0.953125 C 1.25 -0.992188 1.117188 -1.035156 0.953125 -1.078125 C 0.835938 -1.109375 0.734375 -1.140625 0.640625 -1.171875 C 0.546875 -1.210938 0.460938 -1.273438 0.390625 -1.359375 C 0.328125 -1.441406 0.296875 -1.550781 0.296875 -1.6875 C 0.296875 -1.84375 0.332031 -1.96875 0.40625 -2.0625 C 0.476562 -2.164062 0.578125 -2.238281 0.703125 -2.28125 C 0.828125 -2.332031 0.96875 -2.359375 1.125 -2.359375 C 1.28125 -2.359375 1.429688 -2.320312 1.578125 -2.25 C 1.734375 -2.175781 1.847656 -2.078125 1.921875 -1.953125 L 1.671875 -1.75 C 1.617188 -1.851562 1.539062 -1.929688 1.4375 -1.984375 C 1.34375 -2.046875 1.234375 -2.078125 1.109375 -2.078125 C 0.972656 -2.078125 0.851562 -2.046875 0.75 -1.984375 C 0.65625 -1.929688 0.609375 -1.84375 0.609375 -1.71875 C 0.609375 -1.613281 0.648438 -1.53125 0.734375 -1.46875 C 0.828125 -1.414062 0.972656 -1.367188 1.171875 -1.328125 C 1.441406 -1.273438 1.640625 -1.191406 1.765625 -1.078125 C 1.898438 -0.972656 1.96875 -0.832031 1.96875 -0.65625 C 1.96875 -0.488281 1.925781 -0.347656 1.84375 -0.234375 C 1.757812 -0.128906 1.648438 -0.0507812 1.515625 0 C 1.390625 0.0390625 1.25 0.0625 1.09375 0.0625 Z M 1.09375 0.0625 "/></g></g><g style="fill:#ffffff;fill-opacity:1;"><g transform="translate(16.394154, 12.810797)"><path style="stroke:none" d="M 0.609375 -2.953125 C 0.546875 -2.953125 0.488281 -2.972656 0.4375 -3.015625 C 0.394531 -3.066406 0.375 -3.125 0.375 -3.1875 C 0.375 -3.25 0.394531 -3.300781 0.4375 -3.34375 C 0.488281 -3.394531 0.546875 -3.421875 0.609375 -3.421875 C 0.671875 -3.421875 0.722656 -3.394531 0.765625 -3.34375 C 0.816406 -3.300781 0.84375 -3.25 0.84375 -3.1875 C 0.84375 -3.125 0.816406 -3.066406 0.765625 -3.015625 C 0.722656 -2.972656 0.671875 -2.953125 0.609375 -2.953125 Z M 0.78125 0 L 0.453125 0 L 0.453125 -2.3125 L 0.78125 -2.3125 Z M 0.78125 0 "/></g></g><g style="fill:#ffffff;fill-opacity:1;"><g transform="translate(17.62565, 12.810797)"><path style="stroke:none" d="M 1.390625 0 L 1.015625 0 L 0.078125 -2.3125 L 0.453125 -2.3125 L 1.203125 -0.359375 L 1.96875 -2.3125 L 2.328125 -2.3125 Z M 1.390625 0 "/></g></g><g style="fill:#ffffff;fill-opacity:1;"><g transform="translate(20.029539, 12.810797)"><path style="stroke:none" d="M 1.46875 0.0625 C 1.238281 0.0625 1.03125 0.0078125 0.84375 -0.09375 C 0.664062 -0.195312 0.523438 -0.34375 0.421875 -0.53125 C 0.328125 -0.71875 0.28125 -0.925781 0.28125 -1.15625 C 0.28125 -1.375 0.328125 -1.578125 0.421875 -1.765625 C 0.523438 -1.953125 0.664062 -2.097656 0.84375 -2.203125 C 1.019531 -2.304688 1.21875 -2.359375 1.4375 -2.359375 C 1.664062 -2.359375 1.863281 -2.304688 2.03125 -2.203125 C 2.195312 -2.109375 2.320312 -1.972656 2.40625 -1.796875 C 2.5 -1.628906 2.546875 -1.4375 2.546875 -1.21875 C 2.546875 -1.15625 2.539062 -1.101562 2.53125 -1.0625 L 0.625 -1.0625 C 0.625 -0.90625 0.660156 -0.765625 0.734375 -0.640625 C 0.804688 -0.515625 0.90625 -0.410156 1.03125 -0.328125 C 1.164062 -0.253906 1.3125 -0.21875 1.46875 -0.21875 C 1.625 -0.21875 1.769531 -0.253906 1.90625 -0.328125 C 2.039062 -0.410156 2.140625 -0.507812 2.203125 -0.625 L 2.453125 -0.421875 C 2.203125 -0.0976562 1.875 0.0625 1.46875 0.0625 Z M 2.203125 -1.328125 C 2.191406 -1.472656 2.15625 -1.601562 2.09375 -1.71875 C 2.039062 -1.832031 1.957031 -1.921875 1.84375 -1.984375 C 1.726562 -2.046875 1.59375 -2.078125 1.4375 -2.078125 C 1.289062 -2.078125 1.15625 -2.039062 1.03125 -1.96875 C 0.914062 -1.90625 0.820312 -1.816406 0.75 -1.703125 C 0.675781 -1.585938 0.632812 -1.460938 0.625 -1.328125 Z M 2.203125 -1.328125 "/></g></g><g style="fill:#ffffff;fill-opacity:1;"><g transform="translate(22.847207, 12.810797)"><path style="stroke:none" d=""/></g></g><g style="fill:#ffffff;fill-opacity:1;"><g transform="translate(24.078703, 12.810797)"><path style="stroke:none" d="M 1.5 0.0625 C 1.257812 0.0625 1.046875 0.0078125 0.859375 -0.09375 C 0.671875 -0.195312 0.523438 -0.34375 0.421875 -0.53125 C 0.328125 -0.71875 0.28125 -0.925781 0.28125 -1.15625 C 0.28125 -1.382812 0.328125 -1.585938 0.421875 -1.765625 C 0.523438 -1.953125 0.671875 -2.097656 0.859375 -2.203125 C 1.046875 -2.304688 1.257812 -2.359375 1.5 -2.359375 C 1.664062 -2.359375 1.828125 -2.320312 1.984375 -2.25 C 2.140625 -2.1875 2.265625 -2.09375 2.359375 -1.96875 L 2.109375 -1.78125 C 2.046875 -1.863281 1.960938 -1.929688 1.859375 -1.984375 C 1.753906 -2.046875 1.640625 -2.078125 1.515625 -2.078125 C 1.335938 -2.078125 1.179688 -2.035156 1.046875 -1.953125 C 0.910156 -1.878906 0.804688 -1.769531 0.734375 -1.625 C 0.660156 -1.476562 0.625 -1.320312 0.625 -1.15625 C 0.625 -0.976562 0.660156 -0.816406 0.734375 -0.671875 C 0.804688 -0.535156 0.910156 -0.425781 1.046875 -0.34375 C 1.179688 -0.257812 1.332031 -0.21875 1.5 -0.21875 C 1.769531 -0.21875 1.976562 -0.320312 2.125 -0.53125 L 2.375 -0.34375 C 2.164062 -0.0703125 1.875 0.0625 1.5 0.0625 Z M 1.5 0.0625 "/></g></g><g style="fill:#ffffff;fill-opacity:1;"><g transform="translate(26.541702, 12.810797)"><path style="stroke:none" d="M 1.5 0.0625 C 1.269531 0.0625 1.0625 0.0078125 0.875 -0.09375 C 0.6875 -0.195312 0.539062 -0.34375 0.4375 -0.53125 C 0.332031 -0.71875 0.28125 -0.925781 0.28125 -1.15625 C 0.28125 -1.382812 0.332031 -1.585938 0.4375 -1.765625 C 0.539062 -1.953125 0.6875 -2.097656 0.875 -2.203125 C 1.0625 -2.304688 1.269531 -2.359375 1.5 -2.359375 C 1.738281 -2.359375 1.953125 -2.304688 2.140625 -2.203125 C 2.328125 -2.097656 2.472656 -1.953125 2.578125 -1.765625 C 2.679688 -1.585938 2.734375 -1.382812 2.734375 -1.15625 C 2.734375 -0.925781 2.679688 -0.71875 2.578125 -0.53125 C 2.472656 -0.34375 2.328125 -0.195312 2.140625 -0.09375 C 1.953125 0.0078125 1.738281 0.0625 1.5 0.0625 Z M 1.5 -0.21875 C 1.675781 -0.21875 1.828125 -0.257812 1.953125 -0.34375 C 2.085938 -0.425781 2.191406 -0.535156 2.265625 -0.671875 C 2.335938 -0.816406 2.375 -0.976562 2.375 -1.15625 C 2.375 -1.320312 2.335938 -1.472656 2.265625 -1.609375 C 2.191406 -1.753906 2.085938 -1.867188 1.953125 -1.953125 C 1.828125 -2.035156 1.675781 -2.078125 1.5 -2.078125 C 1.320312 -2.078125 1.164062 -2.035156 1.03125 -1.953125 C 0.90625 -1.867188 0.804688 -1.753906 0.734375 -1.609375 C 0.660156 -1.472656 0.625 -1.320312 0.625 -1.15625 C 0.625 -0.976562 0.660156 -0.816406 0.734375 -0.671875 C 0.804688 -0.535156 0.90625 -0.425781 1.03125 -0.34375 C 1.164062 -0.257812 1.320312 -0.21875 1.5 -0.21875 Z M 1.5 -0.21875 "/></g></g><g style="fill:#ffffff;fill-opacity:1;"><g transform="translate(29.551483, 12.810797)"><path style="stroke:none" d="M 3.046875 -2.359375 C 3.328125 -2.359375 3.539062 -2.269531 3.6875 -2.09375 C 3.84375 -1.925781 3.921875 -1.695312 3.921875 -1.40625 L 3.921875 0 L 3.59375 0 L 3.59375 -1.28125 C 3.59375 -1.53125 3.539062 -1.722656 3.4375 -1.859375 C 3.34375 -2.003906 3.195312 -2.078125 3 -2.078125 C 2.84375 -2.078125 2.710938 -2.035156 2.609375 -1.953125 C 2.515625 -1.878906 2.445312 -1.773438 2.40625 -1.640625 C 2.363281 -1.515625 2.34375 -1.375 2.34375 -1.21875 L 2.34375 0 L 2 0 L 2 -1.34375 C 2 -1.5 1.984375 -1.628906 1.953125 -1.734375 C 1.921875 -1.847656 1.863281 -1.929688 1.78125 -1.984375 C 1.695312 -2.046875 1.585938 -2.078125 1.453125 -2.078125 C 1.335938 -2.078125 1.226562 -2.039062 1.125 -1.96875 C 1.019531 -1.90625 0.9375 -1.804688 0.875 -1.671875 C 0.8125 -1.535156 0.78125 -1.375 0.78125 -1.1875 L 0.78125 0 L 0.4375 0 L 0.4375 -1.796875 C 0.4375 -1.992188 0.429688 -2.164062 0.421875 -2.3125 L 0.75 -2.3125 C 0.757812 -2.144531 0.765625 -2.007812 0.765625 -1.90625 C 0.835938 -2.039062 0.941406 -2.148438 1.078125 -2.234375 C 1.210938 -2.316406 1.363281 -2.359375 1.53125 -2.359375 C 1.675781 -2.359375 1.8125 -2.320312 1.9375 -2.25 C 2.070312 -2.175781 2.171875 -2.050781 2.234375 -1.875 C 2.316406 -2.03125 2.425781 -2.148438 2.5625 -2.234375 C 2.695312 -2.316406 2.859375 -2.359375 3.046875 -2.359375 Z M 3.046875 -2.359375 "/></g></g><g style="fill:#ffffff;fill-opacity:1;"><g transform="translate(33.901135, 12.810797)"><path style="stroke:none" d="M 3.046875 -2.359375 C 3.328125 -2.359375 3.539062 -2.269531 3.6875 -2.09375 C 3.84375 -1.925781 3.921875 -1.695312 3.921875 -1.40625 L 3.921875 0 L 3.59375 0 L 3.59375 -1.28125 C 3.59375 -1.53125 3.539062 -1.722656 3.4375 -1.859375 C 3.34375 -2.003906 3.195312 -2.078125 3 -2.078125 C 2.84375 -2.078125 2.710938 -2.035156 2.609375 -1.953125 C 2.515625 -1.878906 2.445312 -1.773438 2.40625 -1.640625 C 2.363281 -1.515625 2.34375 -1.375 2.34375 -1.21875 L 2.34375 0 L 2 0 L 2 -1.34375 C 2 -1.5 1.984375 -1.628906 1.953125 -1.734375 C 1.921875 -1.847656 1.863281 -1.929688 1.78125 -1.984375 C 1.695312 -2.046875 1.585938 -2.078125 1.453125 -2.078125 C 1.335938 -2.078125 1.226562 -2.039062 1.125 -1.96875 C 1.019531 -1.90625 0.9375 -1.804688 0.875 -1.671875 C 0.8125 -1.535156 0.78125 -1.375 0.78125 -1.1875 L 0.78125 0 L 0.4375 0 L 0.4375 -1.796875 C 0.4375 -1.992188 0.429688 -2.164062 0.421875 -2.3125 L 0.75 -2.3125 C 0.757812 -2.144531 0.765625 -2.007812 0.765625 -1.90625 C 0.835938 -2.039062 0.941406 -2.148438 1.078125 -2.234375 C 1.210938 -2.316406 1.363281 -2.359375 1.53125 -2.359375 C 1.675781 -2.359375 1.8125 -2.320312 1.9375 -2.25 C 2.070312 -2.175781 2.171875 -2.050781 2.234375 -1.875 C 2.316406 -2.03125 2.425781 -2.148438 2.5625 -2.234375 C 2.695312 -2.316406 2.859375 -2.359375 3.046875 -2.359375 Z M 3.046875 -2.359375 "/></g></g><g style="fill:#ffffff;fill-opacity:1;"><g transform="translate(38.250787, 12.810797)"><path style="stroke:none" d="M 1.296875 0.0625 C 1.015625 0.0625 0.796875 -0.0195312 0.640625 -0.1875 C 0.492188 -0.363281 0.421875 -0.597656 0.421875 -0.890625 L 0.421875 -2.3125 L 0.765625 -2.3125 L 0.765625 -1.03125 C 0.765625 -0.769531 0.804688 -0.566406 0.890625 -0.421875 C 0.984375 -0.285156 1.148438 -0.21875 1.390625 -0.21875 C 1.503906 -0.21875 1.613281 -0.25 1.71875 -0.3125 C 1.832031 -0.382812 1.921875 -0.488281 1.984375 -0.625 C 2.046875 -0.757812 2.078125 -0.925781 2.078125 -1.125 L 2.078125 -2.3125 L 2.421875 -2.3125 L 2.421875 -0.5 C 2.421875 -0.3125 2.425781 -0.144531 2.4375 0 L 2.109375 0 C 2.097656 -0.164062 2.09375 -0.296875 2.09375 -0.390625 C 2.039062 -0.304688 1.972656 -0.226562 1.890625 -0.15625 C 1.816406 -0.09375 1.726562 -0.0390625 1.625 0 C 1.519531 0.0390625 1.410156 0.0625 1.296875 0.0625 Z M 1.296875 0.0625 "/></g></g><g style="fill:#ffffff;fill-opacity:1;"><g transform="translate(41.112789, 12.810797)"><path style="stroke:none" d="M 0.4375 -1.796875 C 0.4375 -1.992188 0.429688 -2.164062 0.421875 -2.3125 L 0.75 -2.3125 C 0.757812 -2.144531 0.765625 -2.007812 0.765625 -1.90625 C 0.816406 -2 0.878906 -2.078125 0.953125 -2.140625 C 1.035156 -2.210938 1.128906 -2.265625 1.234375 -2.296875 C 1.335938 -2.335938 1.445312 -2.359375 1.5625 -2.359375 C 1.84375 -2.359375 2.054688 -2.269531 2.203125 -2.09375 C 2.359375 -1.925781 2.4375 -1.695312 2.4375 -1.40625 L 2.4375 0 L 2.109375 0 L 2.109375 -1.28125 C 2.109375 -1.53125 2.0625 -1.722656 1.96875 -1.859375 C 1.875 -2.003906 1.710938 -2.078125 1.484375 -2.078125 C 1.359375 -2.078125 1.238281 -2.039062 1.125 -1.96875 C 1.019531 -1.90625 0.9375 -1.804688 0.875 -1.671875 C 0.8125 -1.546875 0.78125 -1.382812 0.78125 -1.1875 L 0.78125 0 L 0.4375 0 Z M 0.4375 -1.796875 "/></g></g><g style="fill:#ffffff;fill-opacity:1;"><g transform="translate(43.974791, 12.810797)"><path style="stroke:none" d="M 0.609375 -2.953125 C 0.546875 -2.953125 0.488281 -2.972656 0.4375 -3.015625 C 0.394531 -3.066406 0.375 -3.125 0.375 -3.1875 C 0.375 -3.25 0.394531 -3.300781 0.4375 -3.34375 C 0.488281 -3.394531 0.546875 -3.421875 0.609375 -3.421875 C 0.671875 -3.421875 0.722656 -3.394531 0.765625 -3.34375 C 0.816406 -3.300781 0.84375 -3.25 0.84375 -3.1875 C 0.84375 -3.125 0.816406 -3.066406 0.765625 -3.015625 C 0.722656 -2.972656 0.671875 -2.953125 0.609375 -2.953125 Z M 0.78125 0 L 0.453125 0 L 0.453125 -2.3125 L 0.78125 -2.3125 Z M 0.78125 0 "/></g></g><g style="fill:#ffffff;fill-opacity:1;"><g transform="translate(45.206288, 12.810797)"><path style="stroke:none" d="M 1.09375 0.03125 C 0.925781 0.03125 0.785156 -0.015625 0.671875 -0.109375 C 0.554688 -0.203125 0.5 -0.359375 0.5 -0.578125 L 0.5 -2.03125 L 0.015625 -2.03125 L 0.015625 -2.3125 L 0.5 -2.3125 L 0.5 -2.953125 L 0.828125 -2.953125 L 0.828125 -2.3125 L 1.484375 -2.3125 L 1.484375 -2.03125 L 0.828125 -2.03125 L 0.828125 -0.671875 C 0.828125 -0.515625 0.859375 -0.40625 0.921875 -0.34375 C 0.984375 -0.28125 1.066406 -0.25 1.171875 -0.25 C 1.222656 -0.25 1.269531 -0.253906 1.3125 -0.265625 C 1.363281 -0.285156 1.414062 -0.304688 1.46875 -0.328125 L 1.484375 -0.046875 C 1.359375 0.00390625 1.226562 0.03125 1.09375 0.03125 Z M 1.09375 0.03125 "/></g></g><g style="fill:#ffffff;fill-opacity:1;"><g transform="translate(46.76783, 12.810797)"><path style="stroke:none" d="M 0.453125 1.1875 C 0.347656 1.1875 0.25 1.175781 0.15625 1.15625 L 0.1875 0.84375 C 0.269531 0.875 0.351562 0.890625 0.4375 0.890625 C 0.539062 0.890625 0.625 0.851562 0.6875 0.78125 C 0.757812 0.71875 0.820312 0.617188 0.875 0.484375 L 1.0625 0 L 0.078125 -2.3125 L 0.453125 -2.3125 L 1.234375 -0.359375 L 1.25 -0.359375 L 1.953125 -2.3125 L 2.328125 -2.3125 L 1.171875 0.59375 C 1.097656 0.789062 1.003906 0.9375 0.890625 1.03125 C 0.785156 1.132812 0.640625 1.1875 0.453125 1.1875 Z M 0.453125 1.1875 "/></g></g><g style="fill:#ffffff;fill-opacity:1;"><g transform="translate(49.171719, 12.810797)"><path style="stroke:none" d="M 0.640625 0.03125 C 0.566406 0.03125 0.503906 0.00390625 0.453125 -0.046875 C 0.398438 -0.0976562 0.375 -0.160156 0.375 -0.234375 C 0.375 -0.304688 0.398438 -0.367188 0.453125 -0.421875 C 0.503906 -0.472656 0.566406 -0.5 0.640625 -0.5 C 0.710938 -0.5 0.773438 -0.472656 0.828125 -0.421875 C 0.878906 -0.367188 0.90625 -0.304688 0.90625 -0.234375 C 0.90625 -0.160156 0.878906 -0.0976562 0.828125 -0.046875 C 0.773438 0.00390625 0.710938 0.03125 0.640625 0.03125 Z M 0.640625 0.03125 "/></g></g></g></g></g></svg>