<svg xmlns="http://www.w3.org/2000/svg" xmlns:xlink="http://www.w3.org/1999/xlink" width="120" zoomAndPan="magnify" viewBox="0 0 90 104.999996" height="140" preserveAspectRatio="xMidYMid meet" version="1.2"><defs><clipPath id="fc7ab9e8d6"><path d="M 18.832031 7.5 L 71.332031 7.5 L 71.332031 60 L 18.832031 60 Z M 18.832031 7.5 "/></clipPath><clipPath id="4124d5d5e4"><rect x="0" width="62" y="0" height="21"/></clipPath><clipPath id="bf9d1a0d09"><path d="M 0.320312 2 L 4 2 L 4 7 L 0.320312 7 Z M 0.320312 2 "/></clipPath><clipPath id="4aaf2db45b"><rect x="0" width="70" y="0" height="16"/></clipPath></defs><g id="e2df6cf9dc"><g clip-rule="nonzero" clip-path="url(#fc7ab9e8d6)"><path style=" stroke:none;fill-rule:nonzero;fill:#ffffff;fill-opacity:1;" d="M 58.164062 7.699219 L 57.546875 7.761719 C 57.355469 7.777344 52.828125 8.257812 51.09375 11.265625 C 49.585938 13.875 50.773438 17.339844 51.171875 18.332031 C 50.703125 19.589844 50.324219 20.871094 50.039062 22.175781 C 49.710938 21.855469 49.375 21.546875 49.035156 21.242188 L 49.011719 21.023438 C 48.984375 20.722656 48.234375 13.605469 43.558594 10.910156 C 38.886719 8.210938 32.347656 11.121094 32.074219 11.242188 L 31.503906 11.5 L 31.566406 12.121094 C 31.59375 12.425781 32.34375 19.539062 37.015625 22.242188 C 38.488281 23.089844 40.144531 23.386719 41.730469 23.386719 C 44.128906 23.386719 46.367188 22.714844 47.574219 22.273438 C 48.304688 22.90625 48.996094 23.578125 49.652344 24.285156 C 49.507812 25.289062 49.433594 26.300781 49.394531 27.316406 C 48.855469 27.09375 48.324219 26.863281 47.808594 26.609375 C 47.375 26.398438 46.851562 26.578125 46.636719 27.011719 C 46.429688 27.441406 46.609375 27.964844 47.039062 28.175781 C 47.792969 28.542969 48.574219 28.871094 49.359375 29.175781 L 49.359375 30.363281 C 48.910156 30.132812 48.40625 30.007812 47.882812 30.007812 C 46.394531 30.007812 45.136719 31.023438 44.773438 32.398438 C 42.949219 32.652344 41.355469 33.808594 40.546875 35.476562 C 39.066406 35.550781 37.660156 36.140625 36.574219 37.136719 C 34.941406 36.558594 33.195312 36.355469 31.460938 36.554688 L 21.140625 37.765625 C 19.828125 37.921875 18.832031 39.039062 18.832031 40.367188 L 18.832031 51.40625 C 18.832031 52.222656 19.199219 52.972656 19.839844 53.472656 C 20.476562 53.96875 21.296875 54.144531 22.082031 53.945312 L 27.804688 52.519531 C 29.265625 52.15625 30.800781 52.335938 32.132812 53.039062 L 43.113281 58.820312 C 44.257812 59.425781 45.511719 59.726562 46.769531 59.726562 C 48.007812 59.726562 49.25 59.433594 50.382812 58.847656 L 68.964844 49.210938 C 70.324219 48.503906 71.167969 47.117188 71.167969 45.578125 C 71.167969 44.308594 70.589844 43.132812 69.582031 42.351562 C 68.578125 41.570312 67.289062 41.308594 66.058594 41.628906 L 65.679688 41.726562 C 65.15625 39.664062 63.851562 37.859375 62.027344 36.726562 C 62.027344 34.304688 60.058594 32.339844 57.644531 32.339844 C 57.480469 32.339844 57.316406 32.355469 57.15625 32.371094 C 56.621094 30.542969 54.9375 29.21875 52.960938 29.21875 C 52.300781 29.21875 51.675781 29.375 51.105469 29.644531 L 51.105469 28.34375 C 51.105469 28.019531 51.125 27.703125 51.136719 27.378906 C 52.023438 26.855469 52.933594 26.367188 53.871094 25.945312 C 54.914062 26.695312 57.566406 28.382812 60.390625 28.382812 C 60.941406 28.382812 61.5 28.320312 62.054688 28.171875 C 66.164062 27.070312 68.171875 21.839844 68.253906 21.613281 L 68.476562 21.03125 L 67.992188 20.632812 C 67.808594 20.484375 63.449219 16.957031 59.34375 18.058594 C 55.753906 19.019531 53.765625 23.136719 53.269531 24.308594 C 52.597656 24.605469 51.941406 24.933594 51.292969 25.285156 C 51.539062 23.144531 52.027344 21.042969 52.769531 19.023438 C 54.09375 18.792969 57.230469 18.003906 58.613281 15.605469 C 60.351562 12.597656 58.503906 8.441406 58.425781 8.269531 Z M 57.070312 9.601562 C 57.453125 10.703125 58.066406 13.070312 57.105469 14.734375 C 56.367188 16.015625 54.800781 16.695312 53.597656 17.039062 C 54.03125 16.09375 54.507812 15.164062 55.058594 14.269531 C 55.304688 13.859375 55.175781 13.320312 54.769531 13.070312 C 54.355469 12.820312 53.816406 12.949219 53.570312 13.363281 C 53.082031 14.15625 52.65625 14.976562 52.25 15.808594 C 52.027344 14.613281 51.988281 13.203125 52.605469 12.136719 C 53.566406 10.46875 55.921875 9.820312 57.070312 9.601562 Z M 38.785156 11.507812 C 40.125 11.5 41.5 11.730469 42.6875 12.414062 C 45.355469 13.957031 46.519531 17.476562 46.988281 19.558594 C 46.601562 19.273438 46.210938 18.988281 45.808594 18.722656 L 41.589844 15.902344 C 41.1875 15.632812 40.644531 15.742188 40.378906 16.144531 C 40.109375 16.546875 40.21875 17.085938 40.621094 17.351562 L 44.835938 20.167969 C 45.21875 20.425781 45.585938 20.691406 45.953125 20.964844 C 43.878906 21.578125 40.449219 22.203125 37.886719 20.726562 C 34.726562 18.898438 33.675781 14.289062 33.390625 12.59375 C 34.402344 12.214844 36.546875 11.523438 38.785156 11.507812 Z M 60.757812 19.597656 C 63.023438 19.480469 65.347656 20.890625 66.363281 21.597656 C 65.761719 22.875 64.132812 25.808594 61.601562 26.484375 C 59.542969 27.039062 57.253906 25.996094 55.847656 25.15625 C 56.253906 25.007812 56.660156 24.863281 57.070312 24.734375 L 59.574219 23.972656 C 60.035156 23.828125 60.292969 23.34375 60.15625 22.882812 C 60.011719 22.421875 59.523438 22.160156 59.066406 22.300781 L 56.558594 23.070312 C 56.277344 23.15625 56 23.261719 55.722656 23.355469 C 56.558594 21.96875 57.929688 20.246094 59.796875 19.742188 C 60.113281 19.660156 60.4375 19.609375 60.757812 19.597656 Z M 44.34375 24.859375 C 44.003906 24.832031 43.664062 25 43.496094 25.320312 C 43.269531 25.742188 43.433594 26.273438 43.855469 26.5 L 44.929688 27.066406 C 45.058594 27.136719 45.195312 27.167969 45.335938 27.167969 C 45.648438 27.167969 45.949219 27 46.105469 26.703125 C 46.332031 26.277344 46.167969 25.753906 45.746094 25.527344 L 44.675781 24.957031 C 44.570312 24.902344 44.457031 24.867188 44.34375 24.859375 Z M 52.960938 30.964844 C 54.363281 30.964844 55.519531 32.066406 55.585938 33.480469 C 55.601562 33.753906 55.742188 34.007812 55.972656 34.160156 C 56.203125 34.3125 56.492188 34.351562 56.75 34.253906 C 57.066406 34.144531 57.359375 34.085938 57.644531 34.085938 C 59.101562 34.085938 60.285156 35.269531 60.285156 36.730469 C 60.285156 36.820312 60.269531 36.914062 60.246094 37.082031 C 60.195312 37.445312 60.378906 37.800781 60.699219 37.96875 C 62.355469 38.84375 63.546875 40.378906 63.992188 42.164062 L 54.363281 44.660156 C 54.132812 43.980469 53.734375 43.355469 53.203125 42.859375 C 52.320312 42.039062 51.125 41.617188 49.917969 41.703125 L 48.007812 41.839844 C 47.257812 41.894531 46.507812 41.75 45.832031 41.429688 L 38.402344 37.929688 C 39.132812 37.46875 39.980469 37.210938 40.855469 37.210938 L 41.085938 37.222656 C 41.492188 37.246094 41.820312 37.003906 41.945312 36.640625 C 42.484375 35.113281 43.925781 34.085938 45.542969 34.085938 C 46.023438 34.085938 46.414062 33.695312 46.414062 33.210938 C 46.414062 32.40625 47.074219 31.746094 47.886719 31.746094 C 48.390625 31.746094 48.851562 32.003906 49.125 32.4375 C 49.289062 32.703125 49.566406 32.867188 49.894531 32.84375 C 50.210938 32.835938 50.492188 32.65625 50.636719 32.382812 C 51.097656 31.503906 51.988281 30.964844 52.960938 30.964844 Z M 33.007812 38.226562 C 34.339844 38.253906 35.664062 38.5625 36.878906 39.136719 L 45.089844 43.011719 C 46.039062 43.457031 47.089844 43.652344 48.132812 43.582031 L 50.046875 43.445312 C 50.777344 43.394531 51.480469 43.640625 52.019531 44.140625 C 52.554688 44.636719 52.851562 45.320312 52.851562 46.050781 L 52.851562 46.40625 C 52.851562 46.75 52.648438 47.0625 52.335938 47.203125 L 49.757812 48.359375 C 47.828125 49.226562 45.59375 49.273438 43.625 48.488281 L 39.226562 46.726562 C 38.777344 46.546875 38.269531 46.761719 38.09375 47.214844 C 37.914062 47.660156 38.128906 48.167969 38.582031 48.34375 L 42.980469 50.109375 C 45.382812 51.070312 48.117188 51.011719 50.476562 49.949219 L 53.050781 48.792969 C 53.988281 48.371094 54.59375 47.433594 54.59375 46.40625 L 66.496094 43.316406 C 67.203125 43.136719 67.9375 43.285156 68.511719 43.730469 C 69.09375 44.175781 69.421875 44.851562 69.421875 45.589844 C 69.421875 46.464844 68.9375 47.257812 68.164062 47.660156 L 49.578125 57.296875 C 47.808594 58.214844 45.691406 58.207031 43.921875 57.277344 L 32.945312 51.496094 C 31.804688 50.898438 30.550781 50.589844 29.289062 50.589844 C 28.652344 50.589844 28.015625 50.667969 27.386719 50.824219 L 21.660156 52.257812 C 21.398438 52.320312 21.125 52.261719 20.914062 52.097656 C 20.699219 51.933594 20.574219 51.679688 20.574219 51.40625 L 20.574219 40.367188 C 20.574219 39.925781 20.90625 39.550781 21.347656 39.5 L 31.667969 38.285156 C 32.113281 38.234375 32.558594 38.214844 33.007812 38.226562 Z M 23.191406 40.558594 C 22.710938 40.558594 22.320312 40.949219 22.320312 41.429688 C 22.320312 41.910156 22.710938 42.304688 23.191406 42.304688 L 24.9375 42.304688 C 25.417969 42.304688 25.808594 41.910156 25.808594 41.429688 C 25.808594 40.949219 25.417969 40.558594 24.9375 40.558594 Z M 23.191406 44.921875 C 22.710938 44.921875 22.320312 45.3125 22.320312 45.792969 C 22.320312 46.273438 22.710938 46.664062 23.191406 46.664062 L 24.9375 46.664062 C 25.417969 46.664062 25.808594 46.273438 25.808594 45.792969 C 25.808594 45.3125 25.417969 44.921875 24.9375 44.921875 Z M 23.191406 49.28125 C 22.710938 49.28125 22.320312 49.671875 22.320312 50.152344 C 22.320312 50.632812 22.710938 51.027344 23.191406 51.027344 L 24.9375 51.027344 C 25.417969 51.027344 25.808594 50.632812 25.808594 50.152344 C 25.808594 49.671875 25.417969 49.28125 24.9375 49.28125 Z M 23.191406 49.28125 "/></g><g transform="matrix(1,0,0,1,14,61)"><g clip-path="url(#4124d5d5e4)"><g style="fill:#ffffff;fill-opacity:1;"><g transform="translate(0.954469, 13.936381)"><path style="stroke:none" d="M 1.90625 0 L 1.078125 0 L 1.078125 -8.125 L 1.90625 -8.125 L 1.90625 -4.484375 L 1.921875 -4.484375 L 5.78125 -8.125 L 6.96875 -8.125 L 2.875 -4.4375 L 7.203125 0 L 5.984375 0 L 1.921875 -4.328125 L 1.90625 -4.328125 Z M 1.90625 0 "/></g></g><g style="fill:#ffffff;fill-opacity:1;"><g transform="translate(8.168398, 13.936381)"><path style="stroke:none" d="M 1.03125 -4.1875 C 1.03125 -4.65625 1.015625 -5.054688 0.984375 -5.390625 L 1.734375 -5.390625 C 1.765625 -5.003906 1.78125 -4.691406 1.78125 -4.453125 L 1.796875 -4.453125 C 1.898438 -4.660156 2.046875 -4.84375 2.234375 -5 C 2.429688 -5.15625 2.648438 -5.28125 2.890625 -5.375 C 3.140625 -5.46875 3.390625 -5.515625 3.640625 -5.515625 C 4.304688 -5.515625 4.8125 -5.3125 5.15625 -4.90625 C 5.507812 -4.507812 5.6875 -3.972656 5.6875 -3.296875 L 5.6875 0 L 4.90625 0 L 4.90625 -2.96875 C 4.90625 -3.570312 4.796875 -4.035156 4.578125 -4.359375 C 4.359375 -4.691406 3.984375 -4.859375 3.453125 -4.859375 C 3.160156 -4.859375 2.890625 -4.78125 2.640625 -4.625 C 2.398438 -4.46875 2.203125 -4.234375 2.046875 -3.921875 C 1.890625 -3.609375 1.8125 -3.21875 1.8125 -2.75 L 1.8125 0 L 1.03125 0 Z M 1.03125 -4.1875 "/></g></g><g style="fill:#ffffff;fill-opacity:1;"><g transform="translate(14.84243, 13.936381)"><path style="stroke:none" d="M 3.5 0.140625 C 2.957031 0.140625 2.46875 0.0195312 2.03125 -0.21875 C 1.59375 -0.46875 1.25 -0.804688 1 -1.234375 C 0.757812 -1.671875 0.640625 -2.15625 0.640625 -2.6875 C 0.640625 -3.21875 0.757812 -3.695312 1 -4.125 C 1.25 -4.5625 1.59375 -4.898438 2.03125 -5.140625 C 2.46875 -5.390625 2.957031 -5.515625 3.5 -5.515625 C 4.050781 -5.515625 4.546875 -5.390625 4.984375 -5.140625 C 5.421875 -4.898438 5.757812 -4.5625 6 -4.125 C 6.25 -3.695312 6.375 -3.21875 6.375 -2.6875 C 6.375 -2.15625 6.25 -1.671875 6 -1.234375 C 5.757812 -0.804688 5.421875 -0.46875 4.984375 -0.21875 C 4.546875 0.0195312 4.050781 0.140625 3.5 0.140625 Z M 3.5 -0.53125 C 3.90625 -0.53125 4.265625 -0.625 4.578125 -0.8125 C 4.890625 -1.007812 5.128906 -1.269531 5.296875 -1.59375 C 5.460938 -1.914062 5.546875 -2.28125 5.546875 -2.6875 C 5.546875 -3.09375 5.460938 -3.457031 5.296875 -3.78125 C 5.128906 -4.113281 4.890625 -4.375 4.578125 -4.5625 C 4.265625 -4.757812 3.90625 -4.859375 3.5 -4.859375 C 3.09375 -4.859375 2.734375 -4.757812 2.421875 -4.5625 C 2.117188 -4.375 1.882812 -4.113281 1.71875 -3.78125 C 1.550781 -3.457031 1.46875 -3.09375 1.46875 -2.6875 C 1.46875 -2.28125 1.550781 -1.914062 1.71875 -1.59375 C 1.882812 -1.269531 2.117188 -1.007812 2.421875 -0.8125 C 2.734375 -0.625 3.09375 -0.53125 3.5 -0.53125 Z M 3.5 -0.53125 "/></g></g><g style="fill:#ffffff;fill-opacity:1;"><g transform="translate(21.861079, 13.936381)"><path style="stroke:none" d="M 2.84375 0 L 2 0 L 0.296875 -5.390625 L 1.140625 -5.390625 L 2.4375 -1.015625 L 2.453125 -1.015625 L 3.90625 -5.390625 L 4.65625 -5.390625 L 6.125 -1.015625 L 6.15625 -1.015625 L 7.4375 -5.390625 L 8.265625 -5.390625 L 6.5625 0 L 5.71875 0 L 4.28125 -4.359375 L 4.265625 -4.359375 Z M 2.84375 0 "/></g></g><g style="fill:#ffffff;fill-opacity:1;"><g transform="translate(30.430497, 13.936381)"><path style="stroke:none" d="M 1.84375 0 L 1.0625 0 L 1.0625 -8.6875 L 1.84375 -8.6875 Z M 1.84375 0 "/></g></g><g style="fill:#ffffff;fill-opacity:1;"><g transform="translate(33.325256, 13.936381)"><path style="stroke:none" d="M 3.421875 0.140625 C 2.890625 0.140625 2.410156 0.0195312 1.984375 -0.21875 C 1.566406 -0.46875 1.238281 -0.804688 1 -1.234375 C 0.757812 -1.671875 0.640625 -2.15625 0.640625 -2.6875 C 0.640625 -3.21875 0.757812 -3.695312 1 -4.125 C 1.238281 -4.5625 1.5625 -4.898438 1.96875 -5.140625 C 2.382812 -5.390625 2.847656 -5.515625 3.359375 -5.515625 C 3.898438 -5.515625 4.363281 -5.394531 4.75 -5.15625 C 5.132812 -4.925781 5.425781 -4.609375 5.625 -4.203125 C 5.820312 -3.796875 5.921875 -3.34375 5.921875 -2.84375 C 5.921875 -2.695312 5.921875 -2.578125 5.921875 -2.484375 L 1.453125 -2.484375 C 1.460938 -2.117188 1.550781 -1.789062 1.71875 -1.5 C 1.894531 -1.207031 2.128906 -0.972656 2.421875 -0.796875 C 2.722656 -0.617188 3.054688 -0.53125 3.421875 -0.53125 C 3.796875 -0.53125 4.132812 -0.617188 4.4375 -0.796875 C 4.75 -0.972656 4.984375 -1.191406 5.140625 -1.453125 L 5.734375 -1 C 5.128906 -0.238281 4.359375 0.140625 3.421875 0.140625 Z M 5.140625 -3.09375 C 5.117188 -3.445312 5.035156 -3.753906 4.890625 -4.015625 C 4.753906 -4.273438 4.550781 -4.476562 4.28125 -4.625 C 4.019531 -4.78125 3.710938 -4.859375 3.359375 -4.859375 C 3.015625 -4.859375 2.703125 -4.773438 2.421875 -4.609375 C 2.148438 -4.453125 1.925781 -4.238281 1.75 -3.96875 C 1.582031 -3.695312 1.488281 -3.40625 1.46875 -3.09375 Z M 5.140625 -3.09375 "/></g></g><g style="fill:#ffffff;fill-opacity:1;"><g transform="translate(39.895902, 13.936381)"><path style="stroke:none" d="M 3.421875 0.140625 C 2.878906 0.140625 2.394531 0.015625 1.96875 -0.234375 C 1.539062 -0.484375 1.210938 -0.820312 0.984375 -1.25 C 0.753906 -1.675781 0.640625 -2.15625 0.640625 -2.6875 C 0.640625 -3.21875 0.753906 -3.695312 0.984375 -4.125 C 1.210938 -4.550781 1.539062 -4.890625 1.96875 -5.140625 C 2.394531 -5.390625 2.878906 -5.515625 3.421875 -5.515625 C 3.816406 -5.515625 4.195312 -5.421875 4.5625 -5.234375 C 4.9375 -5.046875 5.234375 -4.78125 5.453125 -4.4375 L 5.484375 -4.4375 L 5.484375 -8.6875 L 6.265625 -8.6875 L 6.265625 0 L 5.484375 0 L 5.484375 -0.90625 L 5.453125 -0.90625 C 5.234375 -0.570312 4.9375 -0.3125 4.5625 -0.125 C 4.195312 0.0507812 3.816406 0.140625 3.421875 0.140625 Z M 3.5 -0.53125 C 3.894531 -0.53125 4.25 -0.625 4.5625 -0.8125 C 4.882812 -1 5.128906 -1.253906 5.296875 -1.578125 C 5.472656 -1.910156 5.5625 -2.28125 5.5625 -2.6875 C 5.5625 -3.09375 5.472656 -3.457031 5.296875 -3.78125 C 5.128906 -4.113281 4.882812 -4.375 4.5625 -4.5625 C 4.25 -4.757812 3.894531 -4.859375 3.5 -4.859375 C 3.082031 -4.859375 2.71875 -4.757812 2.40625 -4.5625 C 2.101562 -4.375 1.867188 -4.113281 1.703125 -3.78125 C 1.546875 -3.457031 1.46875 -3.09375 1.46875 -2.6875 C 1.46875 -2.28125 1.546875 -1.914062 1.703125 -1.59375 C 1.867188 -1.269531 2.101562 -1.007812 2.40625 -0.8125 C 2.71875 -0.625 3.082031 -0.53125 3.5 -0.53125 Z M 3.5 -0.53125 "/></g></g><g style="fill:#ffffff;fill-opacity:1;"><g transform="translate(47.213217, 13.936381)"><path style="stroke:none" d="M 3.34375 2.75 C 2.851562 2.75 2.378906 2.65625 1.921875 2.46875 C 1.460938 2.28125 1.078125 2.015625 0.765625 1.671875 L 1.328125 1.078125 C 1.546875 1.359375 1.84375 1.59375 2.21875 1.78125 C 2.59375 1.96875 2.976562 2.0625 3.375 2.0625 C 4.101562 2.0625 4.632812 1.863281 4.96875 1.46875 C 5.3125 1.082031 5.484375 0.578125 5.484375 -0.046875 L 5.484375 -1.0625 L 5.453125 -1.0625 C 5.253906 -0.738281 4.960938 -0.476562 4.578125 -0.28125 C 4.203125 -0.09375 3.816406 0 3.421875 0 C 2.867188 0 2.378906 -0.113281 1.953125 -0.34375 C 1.535156 -0.582031 1.210938 -0.910156 0.984375 -1.328125 C 0.753906 -1.742188 0.640625 -2.210938 0.640625 -2.734375 C 0.640625 -3.242188 0.753906 -3.707031 0.984375 -4.125 C 1.222656 -4.550781 1.550781 -4.890625 1.96875 -5.140625 C 2.394531 -5.390625 2.878906 -5.515625 3.421875 -5.515625 C 3.828125 -5.515625 4.210938 -5.421875 4.578125 -5.234375 C 4.953125 -5.046875 5.242188 -4.78125 5.453125 -4.4375 L 5.484375 -4.4375 L 5.484375 -5.390625 L 6.265625 -5.390625 L 6.265625 -0.046875 C 6.265625 0.410156 6.175781 0.847656 6 1.265625 C 5.832031 1.679688 5.53125 2.03125 5.09375 2.3125 C 4.65625 2.601562 4.070312 2.75 3.34375 2.75 Z M 3.5 -0.671875 C 3.894531 -0.671875 4.25 -0.753906 4.5625 -0.921875 C 4.882812 -1.097656 5.128906 -1.34375 5.296875 -1.65625 C 5.472656 -1.976562 5.5625 -2.34375 5.5625 -2.75 C 5.5625 -3.125 5.472656 -3.472656 5.296875 -3.796875 C 5.117188 -4.117188 4.875 -4.375 4.5625 -4.5625 C 4.25 -4.757812 3.894531 -4.859375 3.5 -4.859375 C 3.082031 -4.859375 2.71875 -4.757812 2.40625 -4.5625 C 2.101562 -4.375 1.867188 -4.117188 1.703125 -3.796875 C 1.546875 -3.484375 1.46875 -3.132812 1.46875 -2.75 C 1.46875 -2.375 1.546875 -2.023438 1.703125 -1.703125 C 1.867188 -1.390625 2.101562 -1.140625 2.40625 -0.953125 C 2.71875 -0.765625 3.082031 -0.671875 3.5 -0.671875 Z M 3.5 -0.671875 "/></g></g><g style="fill:#ffffff;fill-opacity:1;"><g transform="translate(54.473098, 13.936381)"><path style="stroke:none" d="M 3.421875 0.140625 C 2.890625 0.140625 2.410156 0.0195312 1.984375 -0.21875 C 1.566406 -0.46875 1.238281 -0.804688 1 -1.234375 C 0.757812 -1.671875 0.640625 -2.15625 0.640625 -2.6875 C 0.640625 -3.21875 0.757812 -3.695312 1 -4.125 C 1.238281 -4.5625 1.5625 -4.898438 1.96875 -5.140625 C 2.382812 -5.390625 2.847656 -5.515625 3.359375 -5.515625 C 3.898438 -5.515625 4.363281 -5.394531 4.75 -5.15625 C 5.132812 -4.925781 5.425781 -4.609375 5.625 -4.203125 C 5.820312 -3.796875 5.921875 -3.34375 5.921875 -2.84375 C 5.921875 -2.695312 5.921875 -2.578125 5.921875 -2.484375 L 1.453125 -2.484375 C 1.460938 -2.117188 1.550781 -1.789062 1.71875 -1.5 C 1.894531 -1.207031 2.128906 -0.972656 2.421875 -0.796875 C 2.722656 -0.617188 3.054688 -0.53125 3.421875 -0.53125 C 3.796875 -0.53125 4.132812 -0.617188 4.4375 -0.796875 C 4.75 -0.972656 4.984375 -1.191406 5.140625 -1.453125 L 5.734375 -1 C 5.128906 -0.238281 4.359375 0.140625 3.421875 0.140625 Z M 5.140625 -3.09375 C 5.117188 -3.445312 5.035156 -3.753906 4.890625 -4.015625 C 4.753906 -4.273438 4.550781 -4.476562 4.28125 -4.625 C 4.019531 -4.78125 3.710938 -4.859375 3.359375 -4.859375 C 3.015625 -4.859375 2.703125 -4.773438 2.421875 -4.609375 C 2.148438 -4.453125 1.925781 -4.238281 1.75 -3.96875 C 1.582031 -3.695312 1.488281 -3.40625 1.46875 -3.09375 Z M 5.140625 -3.09375 "/></g></g></g></g><g transform="matrix(1,0,0,1,10,79)"><g clip-path="url(#4aaf2db45b)"><g clip-rule="nonzero" clip-path="url(#bf9d1a0d09)"><g style="fill:#ffffff;fill-opacity:1;"><g transform="translate(0.367543, 6.242849)"><path style="stroke:none" d="M 2.6875 0 L 0.46875 0 L 0.46875 -3.484375 L 2.625 -3.484375 L 2.625 -3.171875 L 0.8125 -3.171875 L 0.8125 -1.96875 L 2.5 -1.96875 L 2.5 -1.65625 L 0.8125 -1.65625 L 0.8125 -0.3125 L 2.6875 -0.3125 Z M 2.6875 0 "/></g></g></g><g style="fill:#ffffff;fill-opacity:1;"><g transform="translate(3.283733, 6.242849)"><path style="stroke:none" d="M 0.484375 0 L 0.078125 0 L 0.984375 -1.1875 L 0.140625 -2.3125 L 0.5625 -2.3125 L 1.1875 -1.421875 L 1.828125 -2.3125 L 2.21875 -2.3125 L 1.390625 -1.203125 L 2.296875 0 L 1.875 0 L 1.1875 -0.953125 Z M 0.484375 0 "/></g></g><g style="fill:#ffffff;fill-opacity:1;"><g transform="translate(5.667916, 6.242849)"><path style="stroke:none" d="M 1.5 0.0625 C 1.257812 0.0625 1.046875 0.0078125 0.859375 -0.09375 C 0.671875 -0.195312 0.523438 -0.34375 0.421875 -0.53125 C 0.328125 -0.71875 0.28125 -0.925781 0.28125 -1.15625 C 0.28125 -1.382812 0.328125 -1.585938 0.421875 -1.765625 C 0.523438 -1.953125 0.671875 -2.097656 0.859375 -2.203125 C 1.046875 -2.304688 1.257812 -2.359375 1.5 -2.359375 C 1.664062 -2.359375 1.828125 -2.320312 1.984375 -2.25 C 2.140625 -2.1875 2.265625 -2.09375 2.359375 -1.96875 L 2.109375 -1.78125 C 2.046875 -1.863281 1.960938 -1.929688 1.859375 -1.984375 C 1.753906 -2.046875 1.640625 -2.078125 1.515625 -2.078125 C 1.335938 -2.078125 1.179688 -2.035156 1.046875 -1.953125 C 0.910156 -1.878906 0.804688 -1.769531 0.734375 -1.625 C 0.660156 -1.476562 0.625 -1.320312 0.625 -1.15625 C 0.625 -0.976562 0.660156 -0.816406 0.734375 -0.671875 C 0.804688 -0.535156 0.910156 -0.425781 1.046875 -0.34375 C 1.179688 -0.257812 1.332031 -0.21875 1.5 -0.21875 C 1.769531 -0.21875 1.976562 -0.320312 2.125 -0.53125 L 2.375 -0.34375 C 2.164062 -0.0703125 1.875 0.0625 1.5 0.0625 Z M 1.5 0.0625 "/></g></g><g style="fill:#ffffff;fill-opacity:1;"><g transform="translate(8.130915, 6.242849)"><path style="stroke:none" d="M 0.453125 0 L 0.453125 -3.71875 L 0.78125 -3.71875 L 0.78125 -1.921875 L 0.796875 -1.921875 C 0.859375 -2.054688 0.960938 -2.160156 1.109375 -2.234375 C 1.253906 -2.316406 1.40625 -2.359375 1.5625 -2.359375 C 1.851562 -2.359375 2.070312 -2.269531 2.21875 -2.09375 C 2.375 -1.925781 2.453125 -1.695312 2.453125 -1.40625 L 2.453125 0 L 2.109375 0 L 2.109375 -1.28125 C 2.109375 -1.53125 2.0625 -1.722656 1.96875 -1.859375 C 1.875 -2.003906 1.710938 -2.078125 1.484375 -2.078125 C 1.359375 -2.078125 1.242188 -2.039062 1.140625 -1.96875 C 1.035156 -1.90625 0.945312 -1.804688 0.875 -1.671875 C 0.8125 -1.546875 0.78125 -1.382812 0.78125 -1.1875 L 0.78125 0 Z M 0.453125 0 "/></g></g><g style="fill:#ffffff;fill-opacity:1;"><g transform="translate(11.00277, 6.242849)"><path style="stroke:none" d="M 1.0625 0.0625 C 0.9375 0.0625 0.8125 0.0390625 0.6875 0 C 0.570312 -0.0507812 0.472656 -0.128906 0.390625 -0.234375 C 0.304688 -0.347656 0.265625 -0.484375 0.265625 -0.640625 C 0.265625 -0.859375 0.335938 -1.023438 0.484375 -1.140625 C 0.628906 -1.253906 0.8125 -1.328125 1.03125 -1.359375 C 1.257812 -1.390625 1.539062 -1.40625 1.875 -1.40625 L 1.890625 -1.40625 L 1.890625 -1.484375 C 1.890625 -1.679688 1.835938 -1.828125 1.734375 -1.921875 C 1.628906 -2.023438 1.476562 -2.078125 1.28125 -2.078125 C 1.144531 -2.078125 1.015625 -2.050781 0.890625 -2 C 0.773438 -1.957031 0.675781 -1.894531 0.59375 -1.8125 L 0.40625 -2.03125 C 0.507812 -2.132812 0.640625 -2.210938 0.796875 -2.265625 C 0.953125 -2.328125 1.125 -2.359375 1.3125 -2.359375 C 1.476562 -2.359375 1.628906 -2.328125 1.765625 -2.265625 C 1.898438 -2.203125 2.003906 -2.109375 2.078125 -1.984375 C 2.160156 -1.859375 2.203125 -1.707031 2.203125 -1.53125 L 2.203125 -0.515625 C 2.203125 -0.421875 2.207031 -0.328125 2.21875 -0.234375 C 2.226562 -0.140625 2.238281 -0.0625 2.25 0 L 1.953125 0 C 1.929688 -0.132812 1.921875 -0.257812 1.921875 -0.375 L 1.90625 -0.375 C 1.800781 -0.21875 1.679688 -0.101562 1.546875 -0.03125 C 1.410156 0.03125 1.25 0.0625 1.0625 0.0625 Z M 1.15625 -0.21875 C 1.3125 -0.21875 1.441406 -0.25 1.546875 -0.3125 C 1.660156 -0.382812 1.742188 -0.476562 1.796875 -0.59375 C 1.859375 -0.707031 1.890625 -0.835938 1.890625 -0.984375 L 1.890625 -1.15625 L 1.796875 -1.15625 C 1.453125 -1.15625 1.164062 -1.117188 0.9375 -1.046875 C 0.71875 -0.984375 0.609375 -0.851562 0.609375 -0.65625 C 0.609375 -0.5 0.660156 -0.382812 0.765625 -0.3125 C 0.878906 -0.25 1.007812 -0.21875 1.15625 -0.21875 Z M 1.15625 -0.21875 "/></g></g><g style="fill:#ffffff;fill-opacity:1;"><g transform="translate(13.633254, 6.242849)"><path style="stroke:none" d="M 0.4375 -1.796875 C 0.4375 -1.992188 0.429688 -2.164062 0.421875 -2.3125 L 0.75 -2.3125 C 0.757812 -2.144531 0.765625 -2.007812 0.765625 -1.90625 C 0.816406 -2 0.878906 -2.078125 0.953125 -2.140625 C 1.035156 -2.210938 1.128906 -2.265625 1.234375 -2.296875 C 1.335938 -2.335938 1.445312 -2.359375 1.5625 -2.359375 C 1.84375 -2.359375 2.054688 -2.269531 2.203125 -2.09375 C 2.359375 -1.925781 2.4375 -1.695312 2.4375 -1.40625 L 2.4375 0 L 2.109375 0 L 2.109375 -1.28125 C 2.109375 -1.53125 2.0625 -1.722656 1.96875 -1.859375 C 1.875 -2.003906 1.710938 -2.078125 1.484375 -2.078125 C 1.359375 -2.078125 1.238281 -2.039062 1.125 -1.96875 C 1.019531 -1.90625 0.9375 -1.804688 0.875 -1.671875 C 0.8125 -1.546875 0.78125 -1.382812 0.78125 -1.1875 L 0.78125 0 L 0.4375 0 Z M 0.4375 -1.796875 "/></g></g><g style="fill:#ffffff;fill-opacity:1;"><g transform="translate(16.495256, 6.242849)"><path style="stroke:none" d="M 1.4375 1.1875 C 1.226562 1.1875 1.023438 1.144531 0.828125 1.0625 C 0.628906 0.976562 0.460938 0.863281 0.328125 0.71875 L 0.5625 0.46875 C 0.65625 0.582031 0.78125 0.679688 0.9375 0.765625 C 1.101562 0.847656 1.273438 0.890625 1.453125 0.890625 C 1.765625 0.890625 1.988281 0.804688 2.125 0.640625 C 2.269531 0.472656 2.34375 0.253906 2.34375 -0.015625 L 2.34375 -0.453125 C 2.25 -0.316406 2.117188 -0.207031 1.953125 -0.125 C 1.796875 -0.0390625 1.632812 0 1.46875 0 C 1.226562 0 1.019531 -0.046875 0.84375 -0.140625 C 0.664062 -0.242188 0.523438 -0.382812 0.421875 -0.5625 C 0.328125 -0.75 0.28125 -0.953125 0.28125 -1.171875 C 0.28125 -1.390625 0.328125 -1.585938 0.421875 -1.765625 C 0.523438 -1.953125 0.664062 -2.097656 0.84375 -2.203125 C 1.03125 -2.304688 1.238281 -2.359375 1.46875 -2.359375 C 1.644531 -2.359375 1.8125 -2.316406 1.96875 -2.234375 C 2.125 -2.160156 2.25 -2.050781 2.34375 -1.90625 L 2.34375 -2.3125 L 2.6875 -2.3125 L 2.6875 -0.015625 C 2.6875 0.179688 2.648438 0.367188 2.578125 0.546875 C 2.503906 0.722656 2.375 0.875 2.1875 1 C 2 1.125 1.75 1.1875 1.4375 1.1875 Z M 1.5 -0.28125 C 1.664062 -0.28125 1.816406 -0.316406 1.953125 -0.390625 C 2.085938 -0.472656 2.191406 -0.582031 2.265625 -0.71875 C 2.347656 -0.851562 2.390625 -1.007812 2.390625 -1.1875 C 2.390625 -1.34375 2.347656 -1.488281 2.265625 -1.625 C 2.191406 -1.757812 2.085938 -1.867188 1.953125 -1.953125 C 1.816406 -2.035156 1.664062 -2.078125 1.5 -2.078125 C 1.320312 -2.078125 1.164062 -2.035156 1.03125 -1.953125 C 0.90625 -1.867188 0.804688 -1.757812 0.734375 -1.625 C 0.660156 -1.488281 0.625 -1.34375 0.625 -1.1875 C 0.625 -1.019531 0.660156 -0.867188 0.734375 -0.734375 C 0.804688 -0.597656 0.90625 -0.488281 1.03125 -0.40625 C 1.164062 -0.320312 1.320312 -0.28125 1.5 -0.28125 Z M 1.5 -0.28125 "/></g></g><g style="fill:#ffffff;fill-opacity:1;"><g transform="translate(19.608488, 6.242849)"><path style="stroke:none" d="M 1.46875 0.0625 C 1.238281 0.0625 1.03125 0.0078125 0.84375 -0.09375 C 0.664062 -0.195312 0.523438 -0.34375 0.421875 -0.53125 C 0.328125 -0.71875 0.28125 -0.925781 0.28125 -1.15625 C 0.28125 -1.375 0.328125 -1.578125 0.421875 -1.765625 C 0.523438 -1.953125 0.664062 -2.097656 0.84375 -2.203125 C 1.019531 -2.304688 1.21875 -2.359375 1.4375 -2.359375 C 1.664062 -2.359375 1.863281 -2.304688 2.03125 -2.203125 C 2.195312 -2.109375 2.320312 -1.972656 2.40625 -1.796875 C 2.5 -1.628906 2.546875 -1.4375 2.546875 -1.21875 C 2.546875 -1.15625 2.539062 -1.101562 2.53125 -1.0625 L 0.625 -1.0625 C 0.625 -0.90625 0.660156 -0.765625 0.734375 -0.640625 C 0.804688 -0.515625 0.90625 -0.410156 1.03125 -0.328125 C 1.164062 -0.253906 1.3125 -0.21875 1.46875 -0.21875 C 1.625 -0.21875 1.769531 -0.253906 1.90625 -0.328125 C 2.039062 -0.410156 2.140625 -0.507812 2.203125 -0.625 L 2.453125 -0.421875 C 2.203125 -0.0976562 1.875 0.0625 1.46875 0.0625 Z M 2.203125 -1.328125 C 2.191406 -1.472656 2.15625 -1.601562 2.09375 -1.71875 C 2.039062 -1.832031 1.957031 -1.921875 1.84375 -1.984375 C 1.726562 -2.046875 1.59375 -2.078125 1.4375 -2.078125 C 1.289062 -2.078125 1.15625 -2.039062 1.03125 -1.96875 C 0.914062 -1.90625 0.820312 -1.816406 0.75 -1.703125 C 0.675781 -1.585938 0.632812 -1.460938 0.625 -1.328125 Z M 2.203125 -1.328125 "/></g></g><g style="fill:#ffffff;fill-opacity:1;"><g transform="translate(22.426156, 6.242849)"><path style="stroke:none" d=""/></g></g><g style="fill:#ffffff;fill-opacity:1;"><g transform="translate(23.657652, 6.242849)"><path style="stroke:none" d="M 0.609375 -2.953125 C 0.546875 -2.953125 0.488281 -2.972656 0.4375 -3.015625 C 0.394531 -3.066406 0.375 -3.125 0.375 -3.1875 C 0.375 -3.25 0.394531 -3.300781 0.4375 -3.34375 C 0.488281 -3.394531 0.546875 -3.421875 0.609375 -3.421875 C 0.671875 -3.421875 0.722656 -3.394531 0.765625 -3.34375 C 0.816406 -3.300781 0.84375 -3.25 0.84375 -3.1875 C 0.84375 -3.125 0.816406 -3.066406 0.765625 -3.015625 C 0.722656 -2.972656 0.671875 -2.953125 0.609375 -2.953125 Z M 0.78125 0 L 0.453125 0 L 0.453125 -2.3125 L 0.78125 -2.3125 Z M 0.78125 0 "/></g></g><g style="fill:#ffffff;fill-opacity:1;"><g transform="translate(24.889149, 6.242849)"><path style="stroke:none" d="M 0.4375 -1.796875 C 0.4375 -1.992188 0.429688 -2.164062 0.421875 -2.3125 L 0.75 -2.3125 C 0.757812 -2.144531 0.765625 -2.007812 0.765625 -1.90625 C 0.816406 -2 0.878906 -2.078125 0.953125 -2.140625 C 1.035156 -2.210938 1.128906 -2.265625 1.234375 -2.296875 C 1.335938 -2.335938 1.445312 -2.359375 1.5625 -2.359375 C 1.84375 -2.359375 2.054688 -2.269531 2.203125 -2.09375 C 2.359375 -1.925781 2.4375 -1.695312 2.4375 -1.40625 L 2.4375 0 L 2.109375 0 L 2.109375 -1.28125 C 2.109375 -1.53125 2.0625 -1.722656 1.96875 -1.859375 C 1.875 -2.003906 1.710938 -2.078125 1.484375 -2.078125 C 1.359375 -2.078125 1.238281 -2.039062 1.125 -1.96875 C 1.019531 -1.90625 0.9375 -1.804688 0.875 -1.671875 C 0.8125 -1.546875 0.78125 -1.382812 0.78125 -1.1875 L 0.78125 0 L 0.4375 0 Z M 0.4375 -1.796875 "/></g></g><g style="fill:#ffffff;fill-opacity:1;"><g transform="translate(27.751151, 6.242849)"><path style="stroke:none" d="M 0.4375 -1.796875 C 0.4375 -1.992188 0.429688 -2.164062 0.421875 -2.3125 L 0.75 -2.3125 C 0.757812 -2.144531 0.765625 -2.007812 0.765625 -1.90625 C 0.816406 -2 0.878906 -2.078125 0.953125 -2.140625 C 1.035156 -2.210938 1.128906 -2.265625 1.234375 -2.296875 C 1.335938 -2.335938 1.445312 -2.359375 1.5625 -2.359375 C 1.84375 -2.359375 2.054688 -2.269531 2.203125 -2.09375 C 2.359375 -1.925781 2.4375 -1.695312 2.4375 -1.40625 L 2.4375 0 L 2.109375 0 L 2.109375 -1.28125 C 2.109375 -1.53125 2.0625 -1.722656 1.96875 -1.859375 C 1.875 -2.003906 1.710938 -2.078125 1.484375 -2.078125 C 1.359375 -2.078125 1.238281 -2.039062 1.125 -1.96875 C 1.019531 -1.90625 0.9375 -1.804688 0.875 -1.671875 C 0.8125 -1.546875 0.78125 -1.382812 0.78125 -1.1875 L 0.78125 0 L 0.4375 0 Z M 0.4375 -1.796875 "/></g></g><g style="fill:#ffffff;fill-opacity:1;"><g transform="translate(30.613153, 6.242849)"><path style="stroke:none" d="M 1.5 0.0625 C 1.269531 0.0625 1.0625 0.0078125 0.875 -0.09375 C 0.6875 -0.195312 0.539062 -0.34375 0.4375 -0.53125 C 0.332031 -0.71875 0.28125 -0.925781 0.28125 -1.15625 C 0.28125 -1.382812 0.332031 -1.585938 0.4375 -1.765625 C 0.539062 -1.953125 0.6875 -2.097656 0.875 -2.203125 C 1.0625 -2.304688 1.269531 -2.359375 1.5 -2.359375 C 1.738281 -2.359375 1.953125 -2.304688 2.140625 -2.203125 C 2.328125 -2.097656 2.472656 -1.953125 2.578125 -1.765625 C 2.679688 -1.585938 2.734375 -1.382812 2.734375 -1.15625 C 2.734375 -0.925781 2.679688 -0.71875 2.578125 -0.53125 C 2.472656 -0.34375 2.328125 -0.195312 2.140625 -0.09375 C 1.953125 0.0078125 1.738281 0.0625 1.5 0.0625 Z M 1.5 -0.21875 C 1.675781 -0.21875 1.828125 -0.257812 1.953125 -0.34375 C 2.085938 -0.425781 2.191406 -0.535156 2.265625 -0.671875 C 2.335938 -0.816406 2.375 -0.976562 2.375 -1.15625 C 2.375 -1.320312 2.335938 -1.472656 2.265625 -1.609375 C 2.191406 -1.753906 2.085938 -1.867188 1.953125 -1.953125 C 1.828125 -2.035156 1.675781 -2.078125 1.5 -2.078125 C 1.320312 -2.078125 1.164062 -2.035156 1.03125 -1.953125 C 0.90625 -1.867188 0.804688 -1.753906 0.734375 -1.609375 C 0.660156 -1.472656 0.625 -1.320312 0.625 -1.15625 C 0.625 -0.976562 0.660156 -0.816406 0.734375 -0.671875 C 0.804688 -0.535156 0.90625 -0.425781 1.03125 -0.34375 C 1.164062 -0.257812 1.320312 -0.21875 1.5 -0.21875 Z M 1.5 -0.21875 "/></g></g><g style="fill:#ffffff;fill-opacity:1;"><g transform="translate(33.622934, 6.242849)"><path style="stroke:none" d="M 1.390625 0 L 1.015625 0 L 0.078125 -2.3125 L 0.453125 -2.3125 L 1.203125 -0.359375 L 1.96875 -2.3125 L 2.328125 -2.3125 Z M 1.390625 0 "/></g></g><g style="fill:#ffffff;fill-opacity:1;"><g transform="translate(36.026823, 6.242849)"><path style="stroke:none" d="M 1.0625 0.0625 C 0.9375 0.0625 0.8125 0.0390625 0.6875 0 C 0.570312 -0.0507812 0.472656 -0.128906 0.390625 -0.234375 C 0.304688 -0.347656 0.265625 -0.484375 0.265625 -0.640625 C 0.265625 -0.859375 0.335938 -1.023438 0.484375 -1.140625 C 0.628906 -1.253906 0.8125 -1.328125 1.03125 -1.359375 C 1.257812 -1.390625 1.539062 -1.40625 1.875 -1.40625 L 1.890625 -1.40625 L 1.890625 -1.484375 C 1.890625 -1.679688 1.835938 -1.828125 1.734375 -1.921875 C 1.628906 -2.023438 1.476562 -2.078125 1.28125 -2.078125 C 1.144531 -2.078125 1.015625 -2.050781 0.890625 -2 C 0.773438 -1.957031 0.675781 -1.894531 0.59375 -1.8125 L 0.40625 -2.03125 C 0.507812 -2.132812 0.640625 -2.210938 0.796875 -2.265625 C 0.953125 -2.328125 1.125 -2.359375 1.3125 -2.359375 C 1.476562 -2.359375 1.628906 -2.328125 1.765625 -2.265625 C 1.898438 -2.203125 2.003906 -2.109375 2.078125 -1.984375 C 2.160156 -1.859375 2.203125 -1.707031 2.203125 -1.53125 L 2.203125 -0.515625 C 2.203125 -0.421875 2.207031 -0.328125 2.21875 -0.234375 C 2.226562 -0.140625 2.238281 -0.0625 2.25 0 L 1.953125 0 C 1.929688 -0.132812 1.921875 -0.257812 1.921875 -0.375 L 1.90625 -0.375 C 1.800781 -0.21875 1.679688 -0.101562 1.546875 -0.03125 C 1.410156 0.03125 1.25 0.0625 1.0625 0.0625 Z M 1.15625 -0.21875 C 1.3125 -0.21875 1.441406 -0.25 1.546875 -0.3125 C 1.660156 -0.382812 1.742188 -0.476562 1.796875 -0.59375 C 1.859375 -0.707031 1.890625 -0.835938 1.890625 -0.984375 L 1.890625 -1.15625 L 1.796875 -1.15625 C 1.453125 -1.15625 1.164062 -1.117188 0.9375 -1.046875 C 0.71875 -0.984375 0.609375 -0.851562 0.609375 -0.65625 C 0.609375 -0.5 0.660156 -0.382812 0.765625 -0.3125 C 0.878906 -0.25 1.007812 -0.21875 1.15625 -0.21875 Z M 1.15625 -0.21875 "/></g></g><g style="fill:#ffffff;fill-opacity:1;"><g transform="translate(38.657307, 6.242849)"><path style="stroke:none" d="M 1.09375 0.03125 C 0.925781 0.03125 0.785156 -0.015625 0.671875 -0.109375 C 0.554688 -0.203125 0.5 -0.359375 0.5 -0.578125 L 0.5 -2.03125 L 0.015625 -2.03125 L 0.015625 -2.3125 L 0.5 -2.3125 L 0.5 -2.953125 L 0.828125 -2.953125 L 0.828125 -2.3125 L 1.484375 -2.3125 L 1.484375 -2.03125 L 0.828125 -2.03125 L 0.828125 -0.671875 C 0.828125 -0.515625 0.859375 -0.40625 0.921875 -0.34375 C 0.984375 -0.28125 1.066406 -0.25 1.171875 -0.25 C 1.222656 -0.25 1.269531 -0.253906 1.3125 -0.265625 C 1.363281 -0.285156 1.414062 -0.304688 1.46875 -0.328125 L 1.484375 -0.046875 C 1.359375 0.00390625 1.226562 0.03125 1.09375 0.03125 Z M 1.09375 0.03125 "/></g></g><g style="fill:#ffffff;fill-opacity:1;"><g transform="translate(40.218849, 6.242849)"><path style="stroke:none" d="M 0.609375 -2.953125 C 0.546875 -2.953125 0.488281 -2.972656 0.4375 -3.015625 C 0.394531 -3.066406 0.375 -3.125 0.375 -3.1875 C 0.375 -3.25 0.394531 -3.300781 0.4375 -3.34375 C 0.488281 -3.394531 0.546875 -3.421875 0.609375 -3.421875 C 0.671875 -3.421875 0.722656 -3.394531 0.765625 -3.34375 C 0.816406 -3.300781 0.84375 -3.25 0.84375 -3.1875 C 0.84375 -3.125 0.816406 -3.066406 0.765625 -3.015625 C 0.722656 -2.972656 0.671875 -2.953125 0.609375 -2.953125 Z M 0.78125 0 L 0.453125 0 L 0.453125 -2.3125 L 0.78125 -2.3125 Z M 0.78125 0 "/></g></g><g style="fill:#ffffff;fill-opacity:1;"><g transform="translate(41.450346, 6.242849)"><path style="stroke:none" d="M 1.390625 0 L 1.015625 0 L 0.078125 -2.3125 L 0.453125 -2.3125 L 1.203125 -0.359375 L 1.96875 -2.3125 L 2.328125 -2.3125 Z M 1.390625 0 "/></g></g><g style="fill:#ffffff;fill-opacity:1;"><g transform="translate(43.854234, 6.242849)"><path style="stroke:none" d="M 1.46875 0.0625 C 1.238281 0.0625 1.03125 0.0078125 0.84375 -0.09375 C 0.664062 -0.195312 0.523438 -0.34375 0.421875 -0.53125 C 0.328125 -0.71875 0.28125 -0.925781 0.28125 -1.15625 C 0.28125 -1.375 0.328125 -1.578125 0.421875 -1.765625 C 0.523438 -1.953125 0.664062 -2.097656 0.84375 -2.203125 C 1.019531 -2.304688 1.21875 -2.359375 1.4375 -2.359375 C 1.664062 -2.359375 1.863281 -2.304688 2.03125 -2.203125 C 2.195312 -2.109375 2.320312 -1.972656 2.40625 -1.796875 C 2.5 -1.628906 2.546875 -1.4375 2.546875 -1.21875 C 2.546875 -1.15625 2.539062 -1.101562 2.53125 -1.0625 L 0.625 -1.0625 C 0.625 -0.90625 0.660156 -0.765625 0.734375 -0.640625 C 0.804688 -0.515625 0.90625 -0.410156 1.03125 -0.328125 C 1.164062 -0.253906 1.3125 -0.21875 1.46875 -0.21875 C 1.625 -0.21875 1.769531 -0.253906 1.90625 -0.328125 C 2.039062 -0.410156 2.140625 -0.507812 2.203125 -0.625 L 2.453125 -0.421875 C 2.203125 -0.0976562 1.875 0.0625 1.46875 0.0625 Z M 2.203125 -1.328125 C 2.191406 -1.472656 2.15625 -1.601562 2.09375 -1.71875 C 2.039062 -1.832031 1.957031 -1.921875 1.84375 -1.984375 C 1.726562 -2.046875 1.59375 -2.078125 1.4375 -2.078125 C 1.289062 -2.078125 1.15625 -2.039062 1.03125 -1.96875 C 0.914062 -1.90625 0.820312 -1.816406 0.75 -1.703125 C 0.675781 -1.585938 0.632812 -1.460938 0.625 -1.328125 Z M 2.203125 -1.328125 "/></g></g><g style="fill:#ffffff;fill-opacity:1;"><g transform="translate(46.671902, 6.242849)"><path style="stroke:none" d=""/></g></g><g style="fill:#ffffff;fill-opacity:1;"><g transform="translate(47.903399, 6.242849)"><path style="stroke:none" d="M 1.5 0.0625 C 1.257812 0.0625 1.046875 0.0078125 0.859375 -0.09375 C 0.671875 -0.195312 0.523438 -0.34375 0.421875 -0.53125 C 0.328125 -0.71875 0.28125 -0.925781 0.28125 -1.15625 C 0.28125 -1.382812 0.328125 -1.585938 0.421875 -1.765625 C 0.523438 -1.953125 0.671875 -2.097656 0.859375 -2.203125 C 1.046875 -2.304688 1.257812 -2.359375 1.5 -2.359375 C 1.664062 -2.359375 1.828125 -2.320312 1.984375 -2.25 C 2.140625 -2.1875 2.265625 -2.09375 2.359375 -1.96875 L 2.109375 -1.78125 C 2.046875 -1.863281 1.960938 -1.929688 1.859375 -1.984375 C 1.753906 -2.046875 1.640625 -2.078125 1.515625 -2.078125 C 1.335938 -2.078125 1.179688 -2.035156 1.046875 -1.953125 C 0.910156 -1.878906 0.804688 -1.769531 0.734375 -1.625 C 0.660156 -1.476562 0.625 -1.320312 0.625 -1.15625 C 0.625 -0.976562 0.660156 -0.816406 0.734375 -0.671875 C 0.804688 -0.535156 0.910156 -0.425781 1.046875 -0.34375 C 1.179688 -0.257812 1.332031 -0.21875 1.5 -0.21875 C 1.769531 -0.21875 1.976562 -0.320312 2.125 -0.53125 L 2.375 -0.34375 C 2.164062 -0.0703125 1.875 0.0625 1.5 0.0625 Z M 1.5 0.0625 "/></g></g><g style="fill:#ffffff;fill-opacity:1;"><g transform="translate(50.366398, 6.242849)"><path style="stroke:none" d="M 1.5 0.0625 C 1.269531 0.0625 1.0625 0.0078125 0.875 -0.09375 C 0.6875 -0.195312 0.539062 -0.34375 0.4375 -0.53125 C 0.332031 -0.71875 0.28125 -0.925781 0.28125 -1.15625 C 0.28125 -1.382812 0.332031 -1.585938 0.4375 -1.765625 C 0.539062 -1.953125 0.6875 -2.097656 0.875 -2.203125 C 1.0625 -2.304688 1.269531 -2.359375 1.5 -2.359375 C 1.738281 -2.359375 1.953125 -2.304688 2.140625 -2.203125 C 2.328125 -2.097656 2.472656 -1.953125 2.578125 -1.765625 C 2.679688 -1.585938 2.734375 -1.382812 2.734375 -1.15625 C 2.734375 -0.925781 2.679688 -0.71875 2.578125 -0.53125 C 2.472656 -0.34375 2.328125 -0.195312 2.140625 -0.09375 C 1.953125 0.0078125 1.738281 0.0625 1.5 0.0625 Z M 1.5 -0.21875 C 1.675781 -0.21875 1.828125 -0.257812 1.953125 -0.34375 C 2.085938 -0.425781 2.191406 -0.535156 2.265625 -0.671875 C 2.335938 -0.816406 2.375 -0.976562 2.375 -1.15625 C 2.375 -1.320312 2.335938 -1.472656 2.265625 -1.609375 C 2.191406 -1.753906 2.085938 -1.867188 1.953125 -1.953125 C 1.828125 -2.035156 1.675781 -2.078125 1.5 -2.078125 C 1.320312 -2.078125 1.164062 -2.035156 1.03125 -1.953125 C 0.90625 -1.867188 0.804688 -1.753906 0.734375 -1.609375 C 0.660156 -1.472656 0.625 -1.320312 0.625 -1.15625 C 0.625 -0.976562 0.660156 -0.816406 0.734375 -0.671875 C 0.804688 -0.535156 0.90625 -0.425781 1.03125 -0.34375 C 1.164062 -0.257812 1.320312 -0.21875 1.5 -0.21875 Z M 1.5 -0.21875 "/></g></g><g style="fill:#ffffff;fill-opacity:1;"><g transform="translate(53.376179, 6.242849)"><path style="stroke:none" d="M 0.4375 -1.796875 C 0.4375 -1.992188 0.429688 -2.164062 0.421875 -2.3125 L 0.75 -2.3125 C 0.757812 -2.144531 0.765625 -2.007812 0.765625 -1.90625 C 0.816406 -2 0.878906 -2.078125 0.953125 -2.140625 C 1.035156 -2.210938 1.128906 -2.265625 1.234375 -2.296875 C 1.335938 -2.335938 1.445312 -2.359375 1.5625 -2.359375 C 1.84375 -2.359375 2.054688 -2.269531 2.203125 -2.09375 C 2.359375 -1.925781 2.4375 -1.695312 2.4375 -1.40625 L 2.4375 0 L 2.109375 0 L 2.109375 -1.28125 C 2.109375 -1.53125 2.0625 -1.722656 1.96875 -1.859375 C 1.875 -2.003906 1.710938 -2.078125 1.484375 -2.078125 C 1.359375 -2.078125 1.238281 -2.039062 1.125 -1.96875 C 1.019531 -1.90625 0.9375 -1.804688 0.875 -1.671875 C 0.8125 -1.546875 0.78125 -1.382812 0.78125 -1.1875 L 0.78125 0 L 0.4375 0 Z M 0.4375 -1.796875 "/></g></g><g style="fill:#ffffff;fill-opacity:1;"><g transform="translate(56.238181, 6.242849)"><path style="stroke:none" d="M 1.5 0.0625 C 1.257812 0.0625 1.046875 0.0078125 0.859375 -0.09375 C 0.671875 -0.195312 0.523438 -0.34375 0.421875 -0.53125 C 0.328125 -0.71875 0.28125 -0.925781 0.28125 -1.15625 C 0.28125 -1.382812 0.328125 -1.585938 0.421875 -1.765625 C 0.523438 -1.953125 0.671875 -2.097656 0.859375 -2.203125 C 1.046875 -2.304688 1.257812 -2.359375 1.5 -2.359375 C 1.664062 -2.359375 1.828125 -2.320312 1.984375 -2.25 C 2.140625 -2.1875 2.265625 -2.09375 2.359375 -1.96875 L 2.109375 -1.78125 C 2.046875 -1.863281 1.960938 -1.929688 1.859375 -1.984375 C 1.753906 -2.046875 1.640625 -2.078125 1.515625 -2.078125 C 1.335938 -2.078125 1.179688 -2.035156 1.046875 -1.953125 C 0.910156 -1.878906 0.804688 -1.769531 0.734375 -1.625 C 0.660156 -1.476562 0.625 -1.320312 0.625 -1.15625 C 0.625 -0.976562 0.660156 -0.816406 0.734375 -0.671875 C 0.804688 -0.535156 0.910156 -0.425781 1.046875 -0.34375 C 1.179688 -0.257812 1.332031 -0.21875 1.5 -0.21875 C 1.769531 -0.21875 1.976562 -0.320312 2.125 -0.53125 L 2.375 -0.34375 C 2.164062 -0.0703125 1.875 0.0625 1.5 0.0625 Z M 1.5 0.0625 "/></g></g><g style="fill:#ffffff;fill-opacity:1;"><g transform="translate(58.70118, 6.242849)"><path style="stroke:none" d="M 1.46875 0.0625 C 1.238281 0.0625 1.03125 0.0078125 0.84375 -0.09375 C 0.664062 -0.195312 0.523438 -0.34375 0.421875 -0.53125 C 0.328125 -0.71875 0.28125 -0.925781 0.28125 -1.15625 C 0.28125 -1.375 0.328125 -1.578125 0.421875 -1.765625 C 0.523438 -1.953125 0.664062 -2.097656 0.84375 -2.203125 C 1.019531 -2.304688 1.21875 -2.359375 1.4375 -2.359375 C 1.664062 -2.359375 1.863281 -2.304688 2.03125 -2.203125 C 2.195312 -2.109375 2.320312 -1.972656 2.40625 -1.796875 C 2.5 -1.628906 2.546875 -1.4375 2.546875 -1.21875 C 2.546875 -1.15625 2.539062 -1.101562 2.53125 -1.0625 L 0.625 -1.0625 C 0.625 -0.90625 0.660156 -0.765625 0.734375 -0.640625 C 0.804688 -0.515625 0.90625 -0.410156 1.03125 -0.328125 C 1.164062 -0.253906 1.3125 -0.21875 1.46875 -0.21875 C 1.625 -0.21875 1.769531 -0.253906 1.90625 -0.328125 C 2.039062 -0.410156 2.140625 -0.507812 2.203125 -0.625 L 2.453125 -0.421875 C 2.203125 -0.0976562 1.875 0.0625 1.46875 0.0625 Z M 2.203125 -1.328125 C 2.191406 -1.472656 2.15625 -1.601562 2.09375 -1.71875 C 2.039062 -1.832031 1.957031 -1.921875 1.84375 -1.984375 C 1.726562 -2.046875 1.59375 -2.078125 1.4375 -2.078125 C 1.289062 -2.078125 1.15625 -2.039062 1.03125 -1.96875 C 0.914062 -1.90625 0.820312 -1.816406 0.75 -1.703125 C 0.675781 -1.585938 0.632812 -1.460938 0.625 -1.328125 Z M 2.203125 -1.328125 "/></g></g><g style="fill:#ffffff;fill-opacity:1;"><g transform="translate(61.518848, 6.242849)"><path style="stroke:none" d="M 0.4375 1.1875 L 0.4375 -2.3125 L 0.78125 -2.3125 L 0.78125 -1.90625 L 0.796875 -1.90625 C 0.890625 -2.050781 1.015625 -2.160156 1.171875 -2.234375 C 1.328125 -2.316406 1.488281 -2.359375 1.65625 -2.359375 C 1.894531 -2.359375 2.101562 -2.304688 2.28125 -2.203125 C 2.457031 -2.097656 2.59375 -1.953125 2.6875 -1.765625 C 2.789062 -1.578125 2.84375 -1.375 2.84375 -1.15625 C 2.84375 -0.925781 2.789062 -0.71875 2.6875 -0.53125 C 2.59375 -0.351562 2.457031 -0.207031 2.28125 -0.09375 C 2.101562 0.0078125 1.894531 0.0625 1.65625 0.0625 C 1.488281 0.0625 1.328125 0.0234375 1.171875 -0.046875 C 1.015625 -0.128906 0.890625 -0.242188 0.796875 -0.390625 L 0.78125 -0.390625 L 0.78125 1.1875 Z M 1.625 -0.21875 C 1.800781 -0.21875 1.953125 -0.257812 2.078125 -0.34375 C 2.210938 -0.425781 2.316406 -0.535156 2.390625 -0.671875 C 2.460938 -0.816406 2.5 -0.976562 2.5 -1.15625 C 2.5 -1.320312 2.460938 -1.472656 2.390625 -1.609375 C 2.316406 -1.753906 2.210938 -1.867188 2.078125 -1.953125 C 1.953125 -2.035156 1.800781 -2.078125 1.625 -2.078125 C 1.457031 -2.078125 1.304688 -2.035156 1.171875 -1.953125 C 1.035156 -1.867188 0.925781 -1.753906 0.84375 -1.609375 C 0.769531 -1.472656 0.734375 -1.320312 0.734375 -1.15625 C 0.734375 -0.976562 0.769531 -0.816406 0.84375 -0.671875 C 0.925781 -0.535156 1.035156 -0.425781 1.171875 -0.34375 C 1.304688 -0.257812 1.457031 -0.21875 1.625 -0.21875 Z M 1.625 -0.21875 "/></g></g><g style="fill:#ffffff;fill-opacity:1;"><g transform="translate(64.646856, 6.242849)"><path style="stroke:none" d="M 1.09375 0.03125 C 0.925781 0.03125 0.785156 -0.015625 0.671875 -0.109375 C 0.554688 -0.203125 0.5 -0.359375 0.5 -0.578125 L 0.5 -2.03125 L 0.015625 -2.03125 L 0.015625 -2.3125 L 0.5 -2.3125 L 0.5 -2.953125 L 0.828125 -2.953125 L 0.828125 -2.3125 L 1.484375 -2.3125 L 1.484375 -2.03125 L 0.828125 -2.03125 L 0.828125 -0.671875 C 0.828125 -0.515625 0.859375 -0.40625 0.921875 -0.34375 C 0.984375 -0.28125 1.066406 -0.25 1.171875 -0.25 C 1.222656 -0.25 1.269531 -0.253906 1.3125 -0.265625 C 1.363281 -0.285156 1.414062 -0.304688 1.46875 -0.328125 L 1.484375 -0.046875 C 1.359375 0.00390625 1.226562 0.03125 1.09375 0.03125 Z M 1.09375 0.03125 "/></g></g><g style="fill:#ffffff;fill-opacity:1;"><g transform="translate(66.208399, 6.242849)"><path style="stroke:none" d="M 1.09375 0.0625 C 0.914062 0.0625 0.742188 0.0234375 0.578125 -0.046875 C 0.421875 -0.128906 0.289062 -0.242188 0.1875 -0.390625 L 0.453125 -0.578125 C 0.515625 -0.472656 0.601562 -0.382812 0.71875 -0.3125 C 0.832031 -0.25 0.957031 -0.21875 1.09375 -0.21875 C 1.25 -0.21875 1.378906 -0.25 1.484375 -0.3125 C 1.585938 -0.382812 1.640625 -0.488281 1.640625 -0.625 C 1.640625 -0.707031 1.613281 -0.773438 1.5625 -0.828125 C 1.507812 -0.878906 1.4375 -0.921875 1.34375 -0.953125 C 1.25 -0.992188 1.117188 -1.035156 0.953125 -1.078125 C 0.835938 -1.109375 0.734375 -1.140625 0.640625 -1.171875 C 0.546875 -1.210938 0.460938 -1.273438 0.390625 -1.359375 C 0.328125 -1.441406 0.296875 -1.550781 0.296875 -1.6875 C 0.296875 -1.84375 0.332031 -1.96875 0.40625 -2.0625 C 0.476562 -2.164062 0.578125 -2.238281 0.703125 -2.28125 C 0.828125 -2.332031 0.96875 -2.359375 1.125 -2.359375 C 1.28125 -2.359375 1.429688 -2.320312 1.578125 -2.25 C 1.734375 -2.175781 1.847656 -2.078125 1.921875 -1.953125 L 1.671875 -1.75 C 1.617188 -1.851562 1.539062 -1.929688 1.4375 -1.984375 C 1.34375 -2.046875 1.234375 -2.078125 1.109375 -2.078125 C 0.972656 -2.078125 0.851562 -2.046875 0.75 -1.984375 C 0.65625 -1.929688 0.609375 -1.84375 0.609375 -1.71875 C 0.609375 -1.613281 0.648438 -1.53125 0.734375 -1.46875 C 0.828125 -1.414062 0.972656 -1.367188 1.171875 -1.328125 C 1.441406 -1.273438 1.640625 -1.191406 1.765625 -1.078125 C 1.898438 -0.972656 1.96875 -0.832031 1.96875 -0.65625 C 1.96875 -0.488281 1.925781 -0.347656 1.84375 -0.234375 C 1.757812 -0.128906 1.648438 -0.0507812 1.515625 0 C 1.390625 0.0390625 1.25 0.0625 1.09375 0.0625 Z M 1.09375 0.0625 "/></g></g><g style="fill:#ffffff;fill-opacity:1;"><g transform="translate(68.400963, 6.242849)"><path style="stroke:none" d=""/></g></g><g style="fill:#ffffff;fill-opacity:1;"><g transform="translate(19.455641, 12.810797)"><path style="stroke:none" d="M 1.0625 0.0625 C 0.9375 0.0625 0.8125 0.0390625 0.6875 0 C 0.570312 -0.0507812 0.472656 -0.128906 0.390625 -0.234375 C 0.304688 -0.347656 0.265625 -0.484375 0.265625 -0.640625 C 0.265625 -0.859375 0.335938 -1.023438 0.484375 -1.140625 C 0.628906 -1.253906 0.8125 -1.328125 1.03125 -1.359375 C 1.257812 -1.390625 1.539062 -1.40625 1.875 -1.40625 L 1.890625 -1.40625 L 1.890625 -1.484375 C 1.890625 -1.679688 1.835938 -1.828125 1.734375 -1.921875 C 1.628906 -2.023438 1.476562 -2.078125 1.28125 -2.078125 C 1.144531 -2.078125 1.015625 -2.050781 0.890625 -2 C 0.773438 -1.957031 0.675781 -1.894531 0.59375 -1.8125 L 0.40625 -2.03125 C 0.507812 -2.132812 0.640625 -2.210938 0.796875 -2.265625 C 0.953125 -2.328125 1.125 -2.359375 1.3125 -2.359375 C 1.476562 -2.359375 1.628906 -2.328125 1.765625 -2.265625 C 1.898438 -2.203125 2.003906 -2.109375 2.078125 -1.984375 C 2.160156 -1.859375 2.203125 -1.707031 2.203125 -1.53125 L 2.203125 -0.515625 C 2.203125 -0.421875 2.207031 -0.328125 2.21875 -0.234375 C 2.226562 -0.140625 2.238281 -0.0625 2.25 0 L 1.953125 0 C 1.929688 -0.132812 1.921875 -0.257812 1.921875 -0.375 L 1.90625 -0.375 C 1.800781 -0.21875 1.679688 -0.101562 1.546875 -0.03125 C 1.410156 0.03125 1.25 0.0625 1.0625 0.0625 Z M 1.15625 -0.21875 C 1.3125 -0.21875 1.441406 -0.25 1.546875 -0.3125 C 1.660156 -0.382812 1.742188 -0.476562 1.796875 -0.59375 C 1.859375 -0.707031 1.890625 -0.835938 1.890625 -0.984375 L 1.890625 -1.15625 L 1.796875 -1.15625 C 1.453125 -1.15625 1.164062 -1.117188 0.9375 -1.046875 C 0.71875 -0.984375 0.609375 -0.851562 0.609375 -0.65625 C 0.609375 -0.5 0.660156 -0.382812 0.765625 -0.3125 C 0.878906 -0.25 1.007812 -0.21875 1.15625 -0.21875 Z M 1.15625 -0.21875 "/></g></g><g style="fill:#ffffff;fill-opacity:1;"><g transform="translate(22.086125, 12.810797)"><path style="stroke:none" d="M 0.4375 -1.796875 C 0.4375 -1.992188 0.429688 -2.164062 0.421875 -2.3125 L 0.75 -2.3125 C 0.757812 -2.144531 0.765625 -2.007812 0.765625 -1.90625 C 0.816406 -2 0.878906 -2.078125 0.953125 -2.140625 C 1.035156 -2.210938 1.128906 -2.265625 1.234375 -2.296875 C 1.335938 -2.335938 1.445312 -2.359375 1.5625 -2.359375 C 1.84375 -2.359375 2.054688 -2.269531 2.203125 -2.09375 C 2.359375 -1.925781 2.4375 -1.695312 2.4375 -1.40625 L 2.4375 0 L 2.109375 0 L 2.109375 -1.28125 C 2.109375 -1.53125 2.0625 -1.722656 1.96875 -1.859375 C 1.875 -2.003906 1.710938 -2.078125 1.484375 -2.078125 C 1.359375 -2.078125 1.238281 -2.039062 1.125 -1.96875 C 1.019531 -1.90625 0.9375 -1.804688 0.875 -1.671875 C 0.8125 -1.546875 0.78125 -1.382812 0.78125 -1.1875 L 0.78125 0 L 0.4375 0 Z M 0.4375 -1.796875 "/></g></g><g style="fill:#ffffff;fill-opacity:1;"><g transform="translate(24.948127, 12.810797)"><path style="stroke:none" d="M 1.46875 0.0625 C 1.238281 0.0625 1.03125 0.0078125 0.84375 -0.09375 C 0.664062 -0.207031 0.523438 -0.351562 0.421875 -0.53125 C 0.328125 -0.71875 0.28125 -0.925781 0.28125 -1.15625 C 0.28125 -1.375 0.328125 -1.578125 0.421875 -1.765625 C 0.523438 -1.953125 0.664062 -2.097656 0.84375 -2.203125 C 1.03125 -2.304688 1.238281 -2.359375 1.46875 -2.359375 C 1.632812 -2.359375 1.796875 -2.316406 1.953125 -2.234375 C 2.109375 -2.160156 2.238281 -2.050781 2.34375 -1.90625 L 2.34375 -3.71875 L 2.6875 -3.71875 L 2.6875 0 L 2.34375 0 L 2.34375 -0.390625 C 2.238281 -0.242188 2.109375 -0.128906 1.953125 -0.046875 C 1.796875 0.0234375 1.632812 0.0625 1.46875 0.0625 Z M 1.5 -0.21875 C 1.664062 -0.21875 1.816406 -0.257812 1.953125 -0.34375 C 2.085938 -0.425781 2.191406 -0.535156 2.265625 -0.671875 C 2.347656 -0.816406 2.390625 -0.976562 2.390625 -1.15625 C 2.390625 -1.320312 2.347656 -1.472656 2.265625 -1.609375 C 2.191406 -1.753906 2.085938 -1.867188 1.953125 -1.953125 C 1.816406 -2.035156 1.664062 -2.078125 1.5 -2.078125 C 1.320312 -2.078125 1.164062 -2.035156 1.03125 -1.953125 C 0.90625 -1.867188 0.804688 -1.753906 0.734375 -1.609375 C 0.660156 -1.472656 0.625 -1.320312 0.625 -1.15625 C 0.625 -0.976562 0.660156 -0.816406 0.734375 -0.671875 C 0.804688 -0.535156 0.90625 -0.425781 1.03125 -0.34375 C 1.164062 -0.257812 1.320312 -0.21875 1.5 -0.21875 Z M 1.5 -0.21875 "/></g></g><g style="fill:#ffffff;fill-opacity:1;"><g transform="translate(28.085988, 12.810797)"><path style="stroke:none" d=""/></g></g><g style="fill:#ffffff;fill-opacity:1;"><g transform="translate(29.317485, 12.810797)"><path style="stroke:none" d="M 3.046875 -2.359375 C 3.328125 -2.359375 3.539062 -2.269531 3.6875 -2.09375 C 3.84375 -1.925781 3.921875 -1.695312 3.921875 -1.40625 L 3.921875 0 L 3.59375 0 L 3.59375 -1.28125 C 3.59375 -1.53125 3.539062 -1.722656 3.4375 -1.859375 C 3.34375 -2.003906 3.195312 -2.078125 3 -2.078125 C 2.84375 -2.078125 2.710938 -2.035156 2.609375 -1.953125 C 2.515625 -1.878906 2.445312 -1.773438 2.40625 -1.640625 C 2.363281 -1.515625 2.34375 -1.375 2.34375 -1.21875 L 2.34375 0 L 2 0 L 2 -1.34375 C 2 -1.5 1.984375 -1.628906 1.953125 -1.734375 C 1.921875 -1.847656 1.863281 -1.929688 1.78125 -1.984375 C 1.695312 -2.046875 1.585938 -2.078125 1.453125 -2.078125 C 1.335938 -2.078125 1.226562 -2.039062 1.125 -1.96875 C 1.019531 -1.90625 0.9375 -1.804688 0.875 -1.671875 C 0.8125 -1.535156 0.78125 -1.375 0.78125 -1.1875 L 0.78125 0 L 0.4375 0 L 0.4375 -1.796875 C 0.4375 -1.992188 0.429688 -2.164062 0.421875 -2.3125 L 0.75 -2.3125 C 0.757812 -2.144531 0.765625 -2.007812 0.765625 -1.90625 C 0.835938 -2.039062 0.941406 -2.148438 1.078125 -2.234375 C 1.210938 -2.316406 1.363281 -2.359375 1.53125 -2.359375 C 1.675781 -2.359375 1.8125 -2.320312 1.9375 -2.25 C 2.070312 -2.175781 2.171875 -2.050781 2.234375 -1.875 C 2.316406 -2.03125 2.425781 -2.148438 2.5625 -2.234375 C 2.695312 -2.316406 2.859375 -2.359375 3.046875 -2.359375 Z M 3.046875 -2.359375 "/></g></g><g style="fill:#ffffff;fill-opacity:1;"><g transform="translate(33.667137, 12.810797)"><path style="stroke:none" d="M 1.46875 0.0625 C 1.238281 0.0625 1.03125 0.0078125 0.84375 -0.09375 C 0.664062 -0.195312 0.523438 -0.34375 0.421875 -0.53125 C 0.328125 -0.71875 0.28125 -0.925781 0.28125 -1.15625 C 0.28125 -1.375 0.328125 -1.578125 0.421875 -1.765625 C 0.523438 -1.953125 0.664062 -2.097656 0.84375 -2.203125 C 1.019531 -2.304688 1.21875 -2.359375 1.4375 -2.359375 C 1.664062 -2.359375 1.863281 -2.304688 2.03125 -2.203125 C 2.195312 -2.109375 2.320312 -1.972656 2.40625 -1.796875 C 2.5 -1.628906 2.546875 -1.4375 2.546875 -1.21875 C 2.546875 -1.15625 2.539062 -1.101562 2.53125 -1.0625 L 0.625 -1.0625 C 0.625 -0.90625 0.660156 -0.765625 0.734375 -0.640625 C 0.804688 -0.515625 0.90625 -0.410156 1.03125 -0.328125 C 1.164062 -0.253906 1.3125 -0.21875 1.46875 -0.21875 C 1.625 -0.21875 1.769531 -0.253906 1.90625 -0.328125 C 2.039062 -0.410156 2.140625 -0.507812 2.203125 -0.625 L 2.453125 -0.421875 C 2.203125 -0.0976562 1.875 0.0625 1.46875 0.0625 Z M 2.203125 -1.328125 C 2.191406 -1.472656 2.15625 -1.601562 2.09375 -1.71875 C 2.039062 -1.832031 1.957031 -1.921875 1.84375 -1.984375 C 1.726562 -2.046875 1.59375 -2.078125 1.4375 -2.078125 C 1.289062 -2.078125 1.15625 -2.039062 1.03125 -1.96875 C 0.914062 -1.90625 0.820312 -1.816406 0.75 -1.703125 C 0.675781 -1.585938 0.632812 -1.460938 0.625 -1.328125 Z M 2.203125 -1.328125 "/></g></g><g style="fill:#ffffff;fill-opacity:1;"><g transform="translate(36.484804, 12.810797)"><path style="stroke:none" d="M 1.09375 0.03125 C 0.925781 0.03125 0.785156 -0.015625 0.671875 -0.109375 C 0.554688 -0.203125 0.5 -0.359375 0.5 -0.578125 L 0.5 -2.03125 L 0.015625 -2.03125 L 0.015625 -2.3125 L 0.5 -2.3125 L 0.5 -2.953125 L 0.828125 -2.953125 L 0.828125 -2.3125 L 1.484375 -2.3125 L 1.484375 -2.03125 L 0.828125 -2.03125 L 0.828125 -0.671875 C 0.828125 -0.515625 0.859375 -0.40625 0.921875 -0.34375 C 0.984375 -0.28125 1.066406 -0.25 1.171875 -0.25 C 1.222656 -0.25 1.269531 -0.253906 1.3125 -0.265625 C 1.363281 -0.285156 1.414062 -0.304688 1.46875 -0.328125 L 1.484375 -0.046875 C 1.359375 0.00390625 1.226562 0.03125 1.09375 0.03125 Z M 1.09375 0.03125 "/></g></g><g style="fill:#ffffff;fill-opacity:1;"><g transform="translate(38.046347, 12.810797)"><path style="stroke:none" d="M 0.453125 0 L 0.453125 -3.71875 L 0.78125 -3.71875 L 0.78125 -1.921875 L 0.796875 -1.921875 C 0.859375 -2.054688 0.960938 -2.160156 1.109375 -2.234375 C 1.253906 -2.316406 1.40625 -2.359375 1.5625 -2.359375 C 1.851562 -2.359375 2.070312 -2.269531 2.21875 -2.09375 C 2.375 -1.925781 2.453125 -1.695312 2.453125 -1.40625 L 2.453125 0 L 2.109375 0 L 2.109375 -1.28125 C 2.109375 -1.53125 2.0625 -1.722656 1.96875 -1.859375 C 1.875 -2.003906 1.710938 -2.078125 1.484375 -2.078125 C 1.359375 -2.078125 1.242188 -2.039062 1.140625 -1.96875 C 1.035156 -1.90625 0.945312 -1.804688 0.875 -1.671875 C 0.8125 -1.546875 0.78125 -1.382812 0.78125 -1.1875 L 0.78125 0 Z M 0.453125 0 "/></g></g><g style="fill:#ffffff;fill-opacity:1;"><g transform="translate(40.918202, 12.810797)"><path style="stroke:none" d="M 1.5 0.0625 C 1.269531 0.0625 1.0625 0.0078125 0.875 -0.09375 C 0.6875 -0.195312 0.539062 -0.34375 0.4375 -0.53125 C 0.332031 -0.71875 0.28125 -0.925781 0.28125 -1.15625 C 0.28125 -1.382812 0.332031 -1.585938 0.4375 -1.765625 C 0.539062 -1.953125 0.6875 -2.097656 0.875 -2.203125 C 1.0625 -2.304688 1.269531 -2.359375 1.5 -2.359375 C 1.738281 -2.359375 1.953125 -2.304688 2.140625 -2.203125 C 2.328125 -2.097656 2.472656 -1.953125 2.578125 -1.765625 C 2.679688 -1.585938 2.734375 -1.382812 2.734375 -1.15625 C 2.734375 -0.925781 2.679688 -0.71875 2.578125 -0.53125 C 2.472656 -0.34375 2.328125 -0.195312 2.140625 -0.09375 C 1.953125 0.0078125 1.738281 0.0625 1.5 0.0625 Z M 1.5 -0.21875 C 1.675781 -0.21875 1.828125 -0.257812 1.953125 -0.34375 C 2.085938 -0.425781 2.191406 -0.535156 2.265625 -0.671875 C 2.335938 -0.816406 2.375 -0.976562 2.375 -1.15625 C 2.375 -1.320312 2.335938 -1.472656 2.265625 -1.609375 C 2.191406 -1.753906 2.085938 -1.867188 1.953125 -1.953125 C 1.828125 -2.035156 1.675781 -2.078125 1.5 -2.078125 C 1.320312 -2.078125 1.164062 -2.035156 1.03125 -1.953125 C 0.90625 -1.867188 0.804688 -1.753906 0.734375 -1.609375 C 0.660156 -1.472656 0.625 -1.320312 0.625 -1.15625 C 0.625 -0.976562 0.660156 -0.816406 0.734375 -0.671875 C 0.804688 -0.535156 0.90625 -0.425781 1.03125 -0.34375 C 1.164062 -0.257812 1.320312 -0.21875 1.5 -0.21875 Z M 1.5 -0.21875 "/></g></g><g style="fill:#ffffff;fill-opacity:1;"><g transform="translate(43.927983, 12.810797)"><path style="stroke:none" d="M 1.46875 0.0625 C 1.238281 0.0625 1.03125 0.0078125 0.84375 -0.09375 C 0.664062 -0.207031 0.523438 -0.351562 0.421875 -0.53125 C 0.328125 -0.71875 0.28125 -0.925781 0.28125 -1.15625 C 0.28125 -1.375 0.328125 -1.578125 0.421875 -1.765625 C 0.523438 -1.953125 0.664062 -2.097656 0.84375 -2.203125 C 1.03125 -2.304688 1.238281 -2.359375 1.46875 -2.359375 C 1.632812 -2.359375 1.796875 -2.316406 1.953125 -2.234375 C 2.109375 -2.160156 2.238281 -2.050781 2.34375 -1.90625 L 2.34375 -3.71875 L 2.6875 -3.71875 L 2.6875 0 L 2.34375 0 L 2.34375 -0.390625 C 2.238281 -0.242188 2.109375 -0.128906 1.953125 -0.046875 C 1.796875 0.0234375 1.632812 0.0625 1.46875 0.0625 Z M 1.5 -0.21875 C 1.664062 -0.21875 1.816406 -0.257812 1.953125 -0.34375 C 2.085938 -0.425781 2.191406 -0.535156 2.265625 -0.671875 C 2.347656 -0.816406 2.390625 -0.976562 2.390625 -1.15625 C 2.390625 -1.320312 2.347656 -1.472656 2.265625 -1.609375 C 2.191406 -1.753906 2.085938 -1.867188 1.953125 -1.953125 C 1.816406 -2.035156 1.664062 -2.078125 1.5 -2.078125 C 1.320312 -2.078125 1.164062 -2.035156 1.03125 -1.953125 C 0.90625 -1.867188 0.804688 -1.753906 0.734375 -1.609375 C 0.660156 -1.472656 0.625 -1.320312 0.625 -1.15625 C 0.625 -0.976562 0.660156 -0.816406 0.734375 -0.671875 C 0.804688 -0.535156 0.90625 -0.425781 1.03125 -0.34375 C 1.164062 -0.257812 1.320312 -0.21875 1.5 -0.21875 Z M 1.5 -0.21875 "/></g></g><g style="fill:#ffffff;fill-opacity:1;"><g transform="translate(47.065844, 12.810797)"><path style="stroke:none" d="M 1.09375 0.0625 C 0.914062 0.0625 0.742188 0.0234375 0.578125 -0.046875 C 0.421875 -0.128906 0.289062 -0.242188 0.1875 -0.390625 L 0.453125 -0.578125 C 0.515625 -0.472656 0.601562 -0.382812 0.71875 -0.3125 C 0.832031 -0.25 0.957031 -0.21875 1.09375 -0.21875 C 1.25 -0.21875 1.378906 -0.25 1.484375 -0.3125 C 1.585938 -0.382812 1.640625 -0.488281 1.640625 -0.625 C 1.640625 -0.707031 1.613281 -0.773438 1.5625 -0.828125 C 1.507812 -0.878906 1.4375 -0.921875 1.34375 -0.953125 C 1.25 -0.992188 1.117188 -1.035156 0.953125 -1.078125 C 0.835938 -1.109375 0.734375 -1.140625 0.640625 -1.171875 C 0.546875 -1.210938 0.460938 -1.273438 0.390625 -1.359375 C 0.328125 -1.441406 0.296875 -1.550781 0.296875 -1.6875 C 0.296875 -1.84375 0.332031 -1.96875 0.40625 -2.0625 C 0.476562 -2.164062 0.578125 -2.238281 0.703125 -2.28125 C 0.828125 -2.332031 0.96875 -2.359375 1.125 -2.359375 C 1.28125 -2.359375 1.429688 -2.320312 1.578125 -2.25 C 1.734375 -2.175781 1.847656 -2.078125 1.921875 -1.953125 L 1.671875 -1.75 C 1.617188 -1.851562 1.539062 -1.929688 1.4375 -1.984375 C 1.34375 -2.046875 1.234375 -2.078125 1.109375 -2.078125 C 0.972656 -2.078125 0.851562 -2.046875 0.75 -1.984375 C 0.65625 -1.929688 0.609375 -1.84375 0.609375 -1.71875 C 0.609375 -1.613281 0.648438 -1.53125 0.734375 -1.46875 C 0.828125 -1.414062 0.972656 -1.367188 1.171875 -1.328125 C 1.441406 -1.273438 1.640625 -1.191406 1.765625 -1.078125 C 1.898438 -0.972656 1.96875 -0.832031 1.96875 -0.65625 C 1.96875 -0.488281 1.925781 -0.347656 1.84375 -0.234375 C 1.757812 -0.128906 1.648438 -0.0507812 1.515625 0 C 1.390625 0.0390625 1.25 0.0625 1.09375 0.0625 Z M 1.09375 0.0625 "/></g></g><g style="fill:#ffffff;fill-opacity:1;"><g transform="translate(49.252984, 12.810797)"><path style="stroke:none" d="M 0.640625 0.03125 C 0.566406 0.03125 0.503906 0.00390625 0.453125 -0.046875 C 0.398438 -0.0976562 0.375 -0.160156 0.375 -0.234375 C 0.375 -0.304688 0.398438 -0.367188 0.453125 -0.421875 C 0.503906 -0.472656 0.566406 -0.5 0.640625 -0.5 C 0.710938 -0.5 0.773438 -0.472656 0.828125 -0.421875 C 0.878906 -0.367188 0.90625 -0.304688 0.90625 -0.234375 C 0.90625 -0.160156 0.878906 -0.0976562 0.828125 -0.046875 C 0.773438 0.00390625 0.710938 0.03125 0.640625 0.03125 Z M 0.640625 0.03125 "/></g></g></g></g></g></svg>