<svg xmlns="http://www.w3.org/2000/svg" xmlns:xlink="http://www.w3.org/1999/xlink" width="250" zoomAndPan="magnify" viewBox="0 0 187.5 187.499992" height="250" preserveAspectRatio="xMidYMid meet" version="1.2"><defs><clipPath id="17f9276711"><path d="M 55.855469 11.394531 L 131.40625 11.394531 L 131.40625 101.152344 L 55.855469 101.152344 Z M 55.855469 11.394531 "/></clipPath></defs><g id="b1c29ff454"><g clip-rule="nonzero" clip-path="url(#17f9276711)"><path style=" stroke:none;fill-rule:evenodd;fill:#ffffff;fill-opacity:1;" d="M 125.355469 28.636719 C 127.007812 28.636719 128.34375 29.976562 128.34375 31.625 C 128.34375 33.277344 127.007812 34.617188 125.355469 34.617188 C 123.707031 34.617188 122.363281 33.277344 122.363281 31.625 C 122.363281 29.976562 123.707031 28.636719 125.355469 28.636719 Z M 126.589844 58.65625 C 126.589844 61.992188 125.242188 65.03125 123.066406 67.242188 L 123.066406 66.035156 C 123.066406 62.691406 121.164062 59.769531 118.378906 58.3125 C 119.328125 57.316406 119.914062 55.976562 119.914062 54.488281 C 119.914062 51.425781 117.421875 48.929688 114.355469 48.929688 C 111.292969 48.929688 108.796875 51.425781 108.796875 54.488281 C 108.796875 55.976562 109.378906 57.316406 110.332031 58.3125 C 107.550781 59.769531 105.644531 62.691406 105.644531 66.035156 L 105.644531 67.242188 C 103.46875 65.03125 102.121094 61.992188 102.121094 58.65625 C 102.121094 51.90625 107.609375 46.417969 114.355469 46.417969 C 121.101562 46.417969 126.589844 51.90625 126.589844 58.65625 Z M 111.515625 54.488281 C 111.515625 56.054688 112.789062 57.328125 114.355469 57.328125 C 115.921875 57.328125 117.195312 56.054688 117.195312 54.488281 C 117.195312 52.917969 115.921875 51.644531 114.355469 51.644531 C 112.789062 51.644531 111.515625 52.917969 111.515625 54.488281 Z M 108.363281 69.3125 C 112.070312 71.425781 116.640625 71.421875 120.347656 69.3125 L 120.347656 66.035156 C 120.347656 62.734375 117.660156 60.042969 114.355469 60.042969 C 111.050781 60.042969 108.363281 62.734375 108.363281 66.035156 Z M 101.414062 74.183594 L 104.519531 69.910156 C 103.066406 68.636719 101.859375 67.078125 100.984375 65.339844 L 86.164062 71.101562 C 86.640625 72.777344 86.8125 74.394531 86.707031 76.164062 L 93.984375 77.289062 C 95.175781 74.414062 98.417969 73 101.414062 74.183594 Z M 99.253906 82.46875 C 97.605469 82.46875 96.261719 81.125 96.261719 79.476562 C 96.261719 77.824219 97.605469 76.488281 99.253906 76.488281 C 100.902344 76.488281 102.246094 77.824219 102.246094 79.476562 C 102.246094 81.125 100.90625 82.46875 99.253906 82.46875 Z M 80.496094 83.785156 L 80.496094 82.59375 C 80.496094 79.238281 78.59375 76.324219 75.808594 74.871094 C 76.761719 73.875 77.347656 72.523438 77.347656 71.03125 C 77.347656 67.972656 74.851562 65.472656 71.785156 65.472656 C 68.722656 65.472656 66.226562 67.972656 66.226562 71.03125 C 66.226562 72.523438 66.8125 73.875 67.761719 74.871094 C 64.980469 76.324219 63.078125 79.238281 63.078125 82.59375 L 63.078125 83.785156 C 60.898438 81.574219 59.554688 78.550781 59.554688 75.203125 C 59.554688 68.464844 65.042969 62.976562 71.785156 62.976562 C 78.53125 62.976562 84.023438 68.464844 84.023438 75.203125 C 84.023438 78.550781 82.675781 81.574219 80.496094 83.785156 Z M 92.09375 95.425781 C 92.09375 97.078125 90.753906 98.417969 89.105469 98.417969 C 87.453125 98.417969 86.113281 97.078125 86.113281 95.425781 C 86.113281 93.777344 87.453125 92.433594 89.105469 92.433594 C 90.753906 92.433594 92.09375 93.777344 92.09375 95.425781 Z M 68.945312 71.03125 C 68.945312 72.601562 70.21875 73.875 71.785156 73.875 C 73.351562 73.875 74.628906 72.601562 74.628906 71.03125 C 74.628906 69.476562 73.351562 68.191406 71.785156 68.191406 C 70.21875 68.191406 68.945312 69.476562 68.945312 71.03125 Z M 65.796875 85.871094 C 69.515625 87.964844 74.058594 87.964844 77.777344 85.871094 L 77.777344 82.59375 C 77.777344 79.285156 75.089844 76.601562 71.785156 76.601562 C 68.480469 76.601562 65.796875 79.285156 65.796875 82.59375 Z M 64.503906 47.382812 C 66.566406 46.140625 67.667969 43.691406 67.128906 41.261719 L 70.648438 39.53125 C 72.398438 42.363281 75.066406 44.574219 78.238281 45.746094 L 74.3125 60.46875 C 72.367188 60.140625 70.5625 60.183594 68.636719 60.59375 Z M 58.5625 42.5 C 58.5625 44.152344 59.902344 45.492188 61.554688 45.492188 C 63.203125 45.492188 64.542969 44.152344 64.542969 42.5 C 64.542969 40.851562 63.203125 39.507812 61.554688 39.507812 C 59.902344 39.507812 58.5625 40.851562 58.5625 42.5 Z M 83.386719 19.46875 C 76.640625 19.46875 71.152344 24.957031 71.152344 31.707031 C 71.152344 35.039062 72.5 38.078125 74.679688 40.289062 L 74.679688 39.085938 C 74.679688 35.742188 76.582031 32.820312 79.363281 31.363281 C 78.414062 30.363281 77.824219 29.027344 77.824219 27.535156 C 77.824219 24.464844 80.320312 21.976562 83.386719 21.976562 C 86.453125 21.976562 88.945312 24.464844 88.945312 27.535156 C 88.945312 29.027344 88.359375 30.363281 87.410156 31.363281 C 90.195312 32.820312 92.097656 35.742188 92.097656 39.085938 L 92.097656 40.289062 C 94.273438 38.078125 95.621094 35.039062 95.621094 31.707031 C 95.621094 24.957031 90.132812 19.46875 83.386719 19.46875 Z M 83.386719 33.09375 C 80.082031 33.09375 77.394531 35.789062 77.394531 39.085938 L 77.394531 42.363281 C 81.101562 44.472656 85.671875 44.472656 89.378906 42.363281 L 89.378906 39.085938 C 89.378906 35.789062 86.691406 33.09375 83.386719 33.09375 Z M 80.546875 27.535156 C 80.546875 25.964844 81.820312 24.695312 83.386719 24.695312 C 84.953125 24.695312 86.226562 25.964844 86.226562 27.535156 C 86.226562 29.105469 84.953125 30.378906 83.386719 30.378906 C 81.820312 30.378906 80.546875 29.105469 80.546875 27.535156 Z M 99.992188 62.804688 C 98.699219 58.34375 99.5625 53.625 102.222656 49.925781 L 93.703125 42.511719 C 90.324219 45.742188 85.660156 47.246094 80.867188 46.441406 L 76.941406 61.167969 C 80.539062 62.496094 83.488281 65.164062 85.179688 68.570312 Z M 104.109375 30.125 L 98.324219 30.949219 C 98.5 34.46875 97.445312 37.773438 95.496094 40.460938 L 104.011719 47.875 C 105.839844 46.121094 108.109375 44.816406 110.636719 44.175781 L 108.949219 33.6875 C 106.75 33.515625 104.898438 32.085938 104.109375 30.125 Z M 109.40625 25.003906 C 111.050781 25.003906 112.398438 26.34375 112.398438 27.996094 C 112.398438 29.644531 111.050781 30.984375 109.40625 30.984375 C 107.753906 30.984375 106.414062 29.644531 106.414062 27.996094 C 106.414062 26.34375 107.753906 25.003906 109.40625 25.003906 Z M 63.726562 20.113281 C 62.078125 20.113281 60.738281 18.769531 60.738281 17.121094 C 60.738281 15.46875 62.078125 14.128906 63.726562 14.128906 C 65.378906 14.128906 66.71875 15.46875 66.71875 17.121094 C 66.71875 18.769531 65.378906 20.113281 63.726562 20.113281 Z M 125.355469 37.332031 C 128.503906 37.332031 131.0625 34.765625 131.0625 31.625 C 131.0625 28.476562 128.503906 25.910156 125.355469 25.910156 C 122.207031 25.910156 119.644531 28.476562 119.644531 31.625 C 119.644531 33.515625 120.578125 35.203125 122.007812 36.246094 L 118.710938 44.347656 C 116.984375 43.828125 115.171875 43.613281 113.324219 43.738281 L 111.628906 33.253906 C 113.675781 32.382812 115.113281 30.355469 115.113281 27.996094 C 115.113281 24.851562 112.554688 22.285156 109.40625 22.285156 C 106.445312 22.285156 104.007812 24.542969 103.722656 27.433594 L 97.933594 28.257812 C 96.375 21.667969 90.445312 16.753906 83.386719 16.753906 C 78.964844 16.753906 74.984375 18.691406 72.246094 21.75 L 68.992188 19.332031 C 70.558594 15.664062 67.871094 11.414062 63.726562 11.414062 C 60.578125 11.414062 58.019531 13.96875 58.019531 17.121094 C 58.019531 21.953125 63.664062 24.570312 67.371094 21.519531 L 70.621094 23.925781 C 68.210938 27.871094 67.75 32.738281 69.441406 37.09375 L 65.921875 38.820312 C 64.875 37.582031 63.304688 36.785156 61.554688 36.785156 C 58.40625 36.785156 55.84375 39.351562 55.84375 42.5 C 55.84375 45.652344 58.40625 48.207031 61.554688 48.207031 C 61.675781 48.207031 61.792969 48.207031 61.910156 48.195312 L 66.046875 61.398438 C 60.640625 63.652344 56.835938 68.992188 56.835938 75.203125 C 56.835938 83.453125 63.542969 90.15625 71.789062 90.15625 C 75.011719 90.15625 77.992188 89.136719 80.4375 87.394531 L 84.46875 92.101562 C 81.789062 95.796875 84.410156 101.132812 89.105469 101.132812 C 92.253906 101.132812 94.8125 98.578125 94.8125 95.425781 C 94.8125 91.195312 90.351562 88.402344 86.53125 90.328125 L 82.5 85.617188 C 84.308594 83.761719 85.636719 81.433594 86.289062 78.847656 L 93.570312 79.972656 C 93.824219 82.894531 96.273438 85.183594 99.253906 85.183594 C 104.097656 85.183594 106.742188 79.488281 103.613281 75.789062 L 106.71875 71.5 C 108.957031 72.84375 111.566406 73.609375 114.355469 73.609375 C 122.601562 73.609375 129.308594 66.894531 129.308594 58.65625 C 129.308594 52.882812 126.023438 47.875 121.226562 45.375 L 124.527344 37.273438 C 124.796875 37.3125 125.070312 37.332031 125.355469 37.332031 Z M 125.355469 37.332031 "/></g><g style="fill:#ffffff;fill-opacity:1;"><g transform="translate(40.222817, 130.229206)"><path style="stroke:none" d="M 3.3125 0 L 1.875 0 L 1.875 -14.109375 L 3.671875 -14.109375 L 11.875 -2.09375 L 11.921875 -2.09375 L 11.921875 -14.109375 L 13.359375 -14.109375 L 13.359375 0 L 11.5625 0 L 3.34375 -12.140625 L 3.3125 -12.140625 Z M 3.3125 0 "/></g></g><g style="fill:#ffffff;fill-opacity:1;"><g transform="translate(55.456165, 130.229206)"><path style="stroke:none" d="M 5.9375 0.234375 C 5.019531 0.234375 4.195312 0.0234375 3.46875 -0.390625 C 2.738281 -0.816406 2.160156 -1.398438 1.734375 -2.140625 C 1.316406 -2.890625 1.109375 -3.734375 1.109375 -4.671875 C 1.109375 -5.585938 1.316406 -6.421875 1.734375 -7.171875 C 2.148438 -7.921875 2.710938 -8.503906 3.421875 -8.921875 C 4.140625 -9.347656 4.941406 -9.5625 5.828125 -9.5625 C 6.765625 -9.5625 7.566406 -9.359375 8.234375 -8.953125 C 8.910156 -8.554688 9.421875 -8.003906 9.765625 -7.296875 C 10.109375 -6.585938 10.28125 -5.800781 10.28125 -4.9375 C 10.28125 -4.675781 10.273438 -4.46875 10.265625 -4.3125 L 2.53125 -4.3125 C 2.539062 -3.6875 2.695312 -3.113281 3 -2.59375 C 3.300781 -2.082031 3.707031 -1.675781 4.21875 -1.375 C 4.738281 -1.070312 5.3125 -0.921875 5.9375 -0.921875 C 6.59375 -0.921875 7.1875 -1.078125 7.71875 -1.390625 C 8.25 -1.703125 8.65625 -2.082031 8.9375 -2.53125 L 9.953125 -1.734375 C 8.910156 -0.421875 7.570312 0.234375 5.9375 0.234375 Z M 8.90625 -5.390625 C 8.882812 -5.984375 8.75 -6.507812 8.5 -6.96875 C 8.257812 -7.425781 7.910156 -7.785156 7.453125 -8.046875 C 6.992188 -8.304688 6.453125 -8.4375 5.828125 -8.4375 C 5.234375 -8.4375 4.691406 -8.296875 4.203125 -8.015625 C 3.722656 -7.734375 3.335938 -7.359375 3.046875 -6.890625 C 2.753906 -6.421875 2.585938 -5.921875 2.546875 -5.390625 Z M 8.90625 -5.390625 "/></g></g><g style="fill:#ffffff;fill-opacity:1;"><g transform="translate(66.861236, 130.229206)"><path style="stroke:none" d="M 4.40625 0.125 C 3.769531 0.125 3.210938 -0.0625 2.734375 -0.4375 C 2.253906 -0.8125 2.015625 -1.457031 2.015625 -2.375 L 2.015625 -8.21875 L 0.078125 -8.21875 L 0.078125 -9.34375 L 2.015625 -9.34375 L 2.015625 -11.96875 L 3.375 -11.96875 L 3.375 -9.34375 L 6 -9.34375 L 6 -8.21875 L 3.375 -8.21875 L 3.375 -2.75 C 3.375 -2.101562 3.492188 -1.65625 3.734375 -1.40625 C 3.972656 -1.15625 4.316406 -1.03125 4.765625 -1.03125 C 4.953125 -1.03125 5.144531 -1.054688 5.34375 -1.109375 C 5.550781 -1.171875 5.75 -1.242188 5.9375 -1.328125 L 6 -0.15625 C 5.507812 0.03125 4.976562 0.125 4.40625 0.125 Z M 4.40625 0.125 "/></g></g><g style="fill:#ffffff;fill-opacity:1;"><g transform="translate(73.181879, 130.229206)"><path style="stroke:none" d="M 4.9375 0 L 3.46875 0 L 0.515625 -9.34375 L 1.96875 -9.34375 L 4.234375 -1.75 L 4.265625 -1.75 L 6.78125 -9.34375 L 8.09375 -9.34375 L 10.640625 -1.75 L 10.6875 -1.75 L 12.921875 -9.34375 L 14.359375 -9.34375 L 11.40625 0 L 9.921875 0 L 7.4375 -7.578125 L 7.390625 -7.578125 Z M 4.9375 0 "/></g></g><g style="fill:#ffffff;fill-opacity:1;"><g transform="translate(88.056324, 130.229206)"><path style="stroke:none" d="M 6.078125 0.234375 C 5.140625 0.234375 4.289062 0.0234375 3.53125 -0.390625 C 2.769531 -0.816406 2.175781 -1.398438 1.75 -2.140625 C 1.320312 -2.890625 1.109375 -3.734375 1.109375 -4.671875 C 1.109375 -5.597656 1.320312 -6.429688 1.75 -7.171875 C 2.175781 -7.921875 2.769531 -8.503906 3.53125 -8.921875 C 4.289062 -9.347656 5.140625 -9.5625 6.078125 -9.5625 C 7.035156 -9.5625 7.894531 -9.347656 8.65625 -8.921875 C 9.414062 -8.503906 10.003906 -7.921875 10.421875 -7.171875 C 10.847656 -6.429688 11.0625 -5.597656 11.0625 -4.671875 C 11.0625 -3.734375 10.847656 -2.890625 10.421875 -2.140625 C 10.003906 -1.398438 9.414062 -0.816406 8.65625 -0.390625 C 7.894531 0.0234375 7.035156 0.234375 6.078125 0.234375 Z M 6.078125 -0.921875 C 6.785156 -0.921875 7.40625 -1.082031 7.9375 -1.40625 C 8.476562 -1.738281 8.894531 -2.1875 9.1875 -2.75 C 9.476562 -3.320312 9.625 -3.960938 9.625 -4.671875 C 9.625 -5.367188 9.476562 -6.003906 9.1875 -6.578125 C 8.894531 -7.148438 8.476562 -7.601562 7.9375 -7.9375 C 7.40625 -8.269531 6.785156 -8.4375 6.078125 -8.4375 C 5.378906 -8.4375 4.757812 -8.269531 4.21875 -7.9375 C 3.6875 -7.601562 3.273438 -7.148438 2.984375 -6.578125 C 2.691406 -6.003906 2.546875 -5.367188 2.546875 -4.671875 C 2.546875 -3.960938 2.691406 -3.320312 2.984375 -2.75 C 3.273438 -2.1875 3.6875 -1.738281 4.21875 -1.40625 C 4.757812 -1.082031 5.378906 -0.921875 6.078125 -0.921875 Z M 6.078125 -0.921875 "/></g></g><g style="fill:#ffffff;fill-opacity:1;"><g transform="translate(100.239019, 130.229206)"><path style="stroke:none" d="M 1.796875 -7.28125 C 1.796875 -8.09375 1.769531 -8.78125 1.71875 -9.34375 L 3.015625 -9.34375 C 3.066406 -8.6875 3.09375 -8.148438 3.09375 -7.734375 L 3.125 -7.734375 C 3.394531 -8.273438 3.796875 -8.710938 4.328125 -9.046875 C 4.867188 -9.390625 5.46875 -9.5625 6.125 -9.5625 C 6.476562 -9.5625 6.773438 -9.53125 7.015625 -9.46875 L 6.84375 -8.1875 C 6.757812 -8.21875 6.617188 -8.242188 6.421875 -8.265625 C 6.234375 -8.296875 6.050781 -8.3125 5.875 -8.3125 C 5.375 -8.3125 4.914062 -8.1875 4.5 -7.9375 C 4.09375 -7.6875 3.765625 -7.296875 3.515625 -6.765625 C 3.273438 -6.242188 3.15625 -5.582031 3.15625 -4.78125 L 3.15625 0 L 1.796875 0 Z M 1.796875 -7.28125 "/></g></g><g style="fill:#ffffff;fill-opacity:1;"><g transform="translate(107.417044, 130.229206)"><path style="stroke:none" d="M 3.1875 0 L 1.828125 0 L 1.828125 -15.078125 L 3.1875 -15.078125 L 3.1875 -5.125 L 3.25 -5.125 L 7.5625 -9.34375 L 9.515625 -9.34375 L 4.8125 -5.0625 L 9.984375 0 L 8 0 L 3.25 -4.90625 L 3.1875 -4.90625 Z M 3.1875 0 "/></g></g><g style="fill:#ffffff;fill-opacity:1;"><g transform="translate(117.585902, 130.229206)"><path style="stroke:none" d="M 2.5 -11.96875 C 2.238281 -11.96875 2.007812 -12.054688 1.8125 -12.234375 C 1.625 -12.421875 1.53125 -12.648438 1.53125 -12.921875 C 1.53125 -13.179688 1.625 -13.40625 1.8125 -13.59375 C 2.007812 -13.78125 2.238281 -13.875 2.5 -13.875 C 2.75 -13.875 2.96875 -13.78125 3.15625 -13.59375 C 3.351562 -13.40625 3.453125 -13.179688 3.453125 -12.921875 C 3.453125 -12.648438 3.351562 -12.421875 3.15625 -12.234375 C 2.96875 -12.054688 2.75 -11.96875 2.5 -11.96875 Z M 3.171875 0 L 1.8125 0 L 1.8125 -9.34375 L 3.171875 -9.34375 Z M 3.171875 0 "/></g></g><g style="fill:#ffffff;fill-opacity:1;"><g transform="translate(122.570633, 130.229206)"><path style="stroke:none" d="M 1.796875 -7.28125 C 1.796875 -8.09375 1.769531 -8.78125 1.71875 -9.34375 L 3.015625 -9.34375 C 3.066406 -8.6875 3.09375 -8.148438 3.09375 -7.734375 L 3.125 -7.734375 C 3.300781 -8.097656 3.554688 -8.414062 3.890625 -8.6875 C 4.222656 -8.957031 4.597656 -9.171875 5.015625 -9.328125 C 5.441406 -9.484375 5.875 -9.5625 6.3125 -9.5625 C 7.476562 -9.5625 8.363281 -9.21875 8.96875 -8.53125 C 9.570312 -7.84375 9.875 -6.90625 9.875 -5.71875 L 9.875 0 L 8.515625 0 L 8.515625 -5.15625 C 8.515625 -6.207031 8.320312 -7.015625 7.9375 -7.578125 C 7.5625 -8.148438 6.910156 -8.4375 5.984375 -8.4375 C 5.472656 -8.4375 5.003906 -8.296875 4.578125 -8.015625 C 4.160156 -7.742188 3.816406 -7.335938 3.546875 -6.796875 C 3.285156 -6.253906 3.15625 -5.582031 3.15625 -4.78125 L 3.15625 0 L 1.796875 0 Z M 1.796875 -7.28125 "/></g></g><g style="fill:#ffffff;fill-opacity:1;"><g transform="translate(134.155161, 130.229206)"><path style="stroke:none" d="M 5.796875 4.78125 C 4.953125 4.78125 4.132812 4.613281 3.34375 4.28125 C 2.550781 3.945312 1.875 3.488281 1.3125 2.90625 L 2.296875 1.875 C 2.679688 2.363281 3.195312 2.769531 3.84375 3.09375 C 4.5 3.425781 5.171875 3.59375 5.859375 3.59375 C 7.117188 3.59375 8.039062 3.253906 8.625 2.578125 C 9.21875 1.898438 9.515625 1.015625 9.515625 -0.078125 L 9.515625 -1.828125 L 9.46875 -1.828125 C 9.125 -1.273438 8.625 -0.832031 7.96875 -0.5 C 7.3125 -0.164062 6.632812 0 5.9375 0 C 4.976562 0 4.132812 -0.203125 3.40625 -0.609375 C 2.675781 -1.015625 2.109375 -1.578125 1.703125 -2.296875 C 1.304688 -3.023438 1.109375 -3.84375 1.109375 -4.75 C 1.109375 -5.632812 1.3125 -6.441406 1.71875 -7.171875 C 2.125 -7.910156 2.691406 -8.492188 3.421875 -8.921875 C 4.160156 -9.347656 5 -9.5625 5.9375 -9.5625 C 6.644531 -9.5625 7.320312 -9.398438 7.96875 -9.078125 C 8.613281 -8.753906 9.113281 -8.300781 9.46875 -7.71875 L 9.515625 -7.71875 L 9.515625 -9.34375 L 10.859375 -9.34375 L 10.859375 -0.078125 C 10.859375 0.710938 10.710938 1.472656 10.421875 2.203125 C 10.128906 2.929688 9.601562 3.539062 8.84375 4.03125 C 8.09375 4.53125 7.078125 4.78125 5.796875 4.78125 Z M 6.078125 -1.15625 C 6.773438 -1.15625 7.394531 -1.304688 7.9375 -1.609375 C 8.476562 -1.921875 8.898438 -2.351562 9.203125 -2.90625 C 9.515625 -3.457031 9.671875 -4.082031 9.671875 -4.78125 C 9.671875 -5.4375 9.515625 -6.039062 9.203125 -6.59375 C 8.890625 -7.15625 8.457031 -7.601562 7.90625 -7.9375 C 7.363281 -8.269531 6.753906 -8.4375 6.078125 -8.4375 C 5.347656 -8.4375 4.71875 -8.269531 4.1875 -7.9375 C 3.65625 -7.601562 3.25 -7.160156 2.96875 -6.609375 C 2.6875 -6.054688 2.546875 -5.445312 2.546875 -4.78125 C 2.546875 -4.113281 2.6875 -3.503906 2.96875 -2.953125 C 3.25 -2.410156 3.65625 -1.972656 4.1875 -1.640625 C 4.71875 -1.316406 5.347656 -1.15625 6.078125 -1.15625 Z M 6.078125 -1.15625 "/></g></g><g style="fill:#ffffff;fill-opacity:1;"><g transform="translate(21.049339, 150.285417)"><path style="stroke:none" d="M 1.125 0 L 1.125 -8.46875 L 3.65625 -8.46875 C 4.132812 -8.46875 4.578125 -8.398438 4.984375 -8.265625 C 5.390625 -8.140625 5.722656 -7.914062 5.984375 -7.59375 C 6.242188 -7.269531 6.375 -6.84375 6.375 -6.3125 C 6.375 -6.007812 6.3125 -5.734375 6.1875 -5.484375 C 6.070312 -5.234375 5.898438 -5.019531 5.671875 -4.84375 C 5.441406 -4.664062 5.179688 -4.546875 4.890625 -4.484375 L 4.890625 -4.46875 C 5.253906 -4.425781 5.582031 -4.3125 5.875 -4.125 C 6.164062 -3.945312 6.390625 -3.703125 6.546875 -3.390625 C 6.710938 -3.085938 6.796875 -2.738281 6.796875 -2.34375 C 6.796875 -1.875 6.664062 -1.460938 6.40625 -1.109375 C 6.15625 -0.765625 5.789062 -0.492188 5.3125 -0.296875 C 4.832031 -0.0976562 4.273438 0 3.640625 0 Z M 3.71875 -4.765625 C 4.019531 -4.765625 4.304688 -4.8125 4.578125 -4.90625 C 4.847656 -5 5.070312 -5.15625 5.25 -5.375 C 5.425781 -5.601562 5.515625 -5.894531 5.515625 -6.25 C 5.515625 -6.757812 5.328125 -7.132812 4.953125 -7.375 C 4.578125 -7.613281 4.085938 -7.734375 3.484375 -7.734375 L 1.984375 -7.734375 L 1.984375 -4.765625 Z M 3.59375 -0.734375 C 4.03125 -0.734375 4.421875 -0.789062 4.765625 -0.90625 C 5.117188 -1.03125 5.398438 -1.210938 5.609375 -1.453125 C 5.816406 -1.703125 5.921875 -2.015625 5.921875 -2.390625 C 5.921875 -2.941406 5.734375 -3.359375 5.359375 -3.640625 C 4.984375 -3.921875 4.445312 -4.0625 3.75 -4.0625 L 1.984375 -4.0625 L 1.984375 -0.734375 Z M 3.59375 -0.734375 "/></g></g><g style="fill:#ffffff;fill-opacity:1;"><g transform="translate(28.66106, 150.285417)"><path style="stroke:none" d="M 3.15625 0.140625 C 2.46875 0.140625 1.941406 -0.0625 1.578125 -0.46875 C 1.210938 -0.882812 1.03125 -1.453125 1.03125 -2.171875 L 1.03125 -5.609375 L 1.84375 -5.609375 L 1.84375 -2.5 C 1.84375 -1.875 1.957031 -1.390625 2.1875 -1.046875 C 2.414062 -0.703125 2.804688 -0.53125 3.359375 -0.53125 C 3.660156 -0.53125 3.9375 -0.613281 4.1875 -0.78125 C 4.445312 -0.945312 4.65625 -1.191406 4.8125 -1.515625 C 4.976562 -1.847656 5.0625 -2.253906 5.0625 -2.734375 L 5.0625 -5.609375 L 5.875 -5.609375 L 5.875 -1.234375 C 5.875 -0.753906 5.890625 -0.34375 5.921875 0 L 5.140625 0 C 5.109375 -0.394531 5.09375 -0.710938 5.09375 -0.953125 L 5.078125 -0.953125 C 4.972656 -0.742188 4.820312 -0.554688 4.625 -0.390625 C 4.425781 -0.222656 4.195312 -0.09375 3.9375 0 C 3.6875 0.09375 3.425781 0.140625 3.15625 0.140625 Z M 3.15625 0.140625 "/></g></g><g style="fill:#ffffff;fill-opacity:1;"><g transform="translate(35.614532, 150.285417)"><path style="stroke:none" d="M 1.5 -7.1875 C 1.34375 -7.1875 1.207031 -7.238281 1.09375 -7.34375 C 0.976562 -7.457031 0.921875 -7.59375 0.921875 -7.75 C 0.921875 -7.914062 0.976562 -8.050781 1.09375 -8.15625 C 1.207031 -8.269531 1.34375 -8.328125 1.5 -8.328125 C 1.644531 -8.328125 1.773438 -8.269531 1.890625 -8.15625 C 2.015625 -8.050781 2.078125 -7.914062 2.078125 -7.75 C 2.078125 -7.59375 2.015625 -7.457031 1.890625 -7.34375 C 1.773438 -7.238281 1.644531 -7.1875 1.5 -7.1875 Z M 1.90625 0 L 1.09375 0 L 1.09375 -5.609375 L 1.90625 -5.609375 Z M 1.90625 0 "/></g></g><g style="fill:#ffffff;fill-opacity:1;"><g transform="translate(38.606565, 150.285417)"><path style="stroke:none" d="M 1.921875 0 L 1.09375 0 L 1.09375 -9.046875 L 1.921875 -9.046875 Z M 1.921875 0 "/></g></g><g style="fill:#ffffff;fill-opacity:1;"><g transform="translate(41.622531, 150.285417)"><path style="stroke:none" d="M 3.5625 0.140625 C 3 0.140625 2.492188 0.0078125 2.046875 -0.25 C 1.609375 -0.507812 1.269531 -0.859375 1.03125 -1.296875 C 0.789062 -1.742188 0.671875 -2.242188 0.671875 -2.796875 C 0.671875 -3.347656 0.789062 -3.847656 1.03125 -4.296875 C 1.269531 -4.742188 1.609375 -5.097656 2.046875 -5.359375 C 2.492188 -5.617188 3 -5.75 3.5625 -5.75 C 3.976562 -5.75 4.378906 -5.648438 4.765625 -5.453125 C 5.148438 -5.253906 5.457031 -4.976562 5.6875 -4.625 L 5.703125 -4.625 L 5.703125 -9.046875 L 6.515625 -9.046875 L 6.515625 0 L 5.703125 0 L 5.703125 -0.953125 L 5.6875 -0.953125 C 5.457031 -0.609375 5.148438 -0.335938 4.765625 -0.140625 C 4.378906 0.046875 3.976562 0.140625 3.5625 0.140625 Z M 3.65625 -0.546875 C 4.0625 -0.546875 4.425781 -0.644531 4.75 -0.84375 C 5.082031 -1.039062 5.34375 -1.3125 5.53125 -1.65625 C 5.71875 -2 5.8125 -2.378906 5.8125 -2.796875 C 5.8125 -3.222656 5.71875 -3.609375 5.53125 -3.953125 C 5.34375 -4.296875 5.082031 -4.566406 4.75 -4.765625 C 4.425781 -4.960938 4.0625 -5.0625 3.65625 -5.0625 C 3.21875 -5.0625 2.835938 -4.960938 2.515625 -4.765625 C 2.191406 -4.566406 1.945312 -4.296875 1.78125 -3.953125 C 1.613281 -3.609375 1.53125 -3.222656 1.53125 -2.796875 C 1.53125 -2.378906 1.613281 -2 1.78125 -1.65625 C 1.945312 -1.320312 2.191406 -1.050781 2.515625 -0.84375 C 2.835938 -0.644531 3.21875 -0.546875 3.65625 -0.546875 Z M 3.65625 -0.546875 "/></g></g><g style="fill:#ffffff;fill-opacity:1;"><g transform="translate(49.246213, 150.285417)"><path style="stroke:none" d=""/></g></g><g style="fill:#ffffff;fill-opacity:1;"><g transform="translate(52.238246, 150.285417)"><path style="stroke:none" d="M 1.921875 0 L 1.09375 0 L 1.09375 -9.046875 L 1.921875 -9.046875 Z M 1.921875 0 "/></g></g><g style="fill:#ffffff;fill-opacity:1;"><g transform="translate(55.254213, 150.285417)"><path style="stroke:none" d="M 2.59375 0.140625 C 2.28125 0.140625 1.976562 0.0820312 1.6875 -0.03125 C 1.394531 -0.144531 1.148438 -0.328125 0.953125 -0.578125 C 0.753906 -0.835938 0.65625 -1.164062 0.65625 -1.5625 C 0.65625 -2.09375 0.828125 -2.492188 1.171875 -2.765625 C 1.523438 -3.046875 1.972656 -3.226562 2.515625 -3.3125 C 3.066406 -3.394531 3.75 -3.4375 4.5625 -3.4375 L 4.609375 -3.4375 L 4.609375 -3.609375 C 4.609375 -4.085938 4.476562 -4.445312 4.21875 -4.6875 C 3.96875 -4.9375 3.597656 -5.0625 3.109375 -5.0625 C 2.796875 -5.0625 2.488281 -5 2.1875 -4.875 C 1.894531 -4.757812 1.648438 -4.601562 1.453125 -4.40625 L 1 -4.9375 C 1.238281 -5.175781 1.546875 -5.367188 1.921875 -5.515625 C 2.304688 -5.671875 2.734375 -5.75 3.203125 -5.75 C 3.609375 -5.75 3.972656 -5.671875 4.296875 -5.515625 C 4.628906 -5.367188 4.890625 -5.140625 5.078125 -4.828125 C 5.273438 -4.523438 5.375 -4.148438 5.375 -3.703125 L 5.375 -1.25 C 5.375 -1.03125 5.378906 -0.804688 5.390625 -0.578125 C 5.410156 -0.347656 5.4375 -0.15625 5.46875 0 L 4.734375 0 C 4.679688 -0.320312 4.65625 -0.625 4.65625 -0.90625 L 4.625 -0.90625 C 4.375 -0.539062 4.085938 -0.273438 3.765625 -0.109375 C 3.441406 0.0546875 3.050781 0.140625 2.59375 0.140625 Z M 2.8125 -0.53125 C 3.175781 -0.53125 3.492188 -0.613281 3.765625 -0.78125 C 4.035156 -0.945312 4.242188 -1.171875 4.390625 -1.453125 C 4.535156 -1.734375 4.609375 -2.039062 4.609375 -2.375 L 4.609375 -2.796875 L 4.375 -2.796875 C 3.519531 -2.796875 2.828125 -2.710938 2.296875 -2.546875 C 1.765625 -2.390625 1.5 -2.070312 1.5 -1.59375 C 1.5 -1.226562 1.625 -0.957031 1.875 -0.78125 C 2.132812 -0.613281 2.445312 -0.53125 2.8125 -0.53125 Z M 2.8125 -0.53125 "/></g></g><g style="fill:#ffffff;fill-opacity:1;"><g transform="translate(61.645186, 150.285417)"><path style="stroke:none" d="M 2.671875 0.140625 C 2.222656 0.140625 1.800781 0.0507812 1.40625 -0.125 C 1.019531 -0.3125 0.703125 -0.585938 0.453125 -0.953125 L 1.09375 -1.421875 C 1.25 -1.171875 1.46875 -0.960938 1.75 -0.796875 C 2.03125 -0.628906 2.332031 -0.546875 2.65625 -0.546875 C 3.039062 -0.546875 3.351562 -0.625 3.59375 -0.78125 C 3.84375 -0.9375 3.96875 -1.1875 3.96875 -1.53125 C 3.96875 -1.71875 3.90625 -1.875 3.78125 -2 C 3.664062 -2.132812 3.488281 -2.25 3.25 -2.34375 C 3.019531 -2.4375 2.710938 -2.523438 2.328125 -2.609375 C 2.035156 -2.679688 1.773438 -2.765625 1.546875 -2.859375 C 1.316406 -2.960938 1.117188 -3.113281 0.953125 -3.3125 C 0.796875 -3.519531 0.71875 -3.789062 0.71875 -4.125 C 0.71875 -4.476562 0.804688 -4.773438 0.984375 -5.015625 C 1.171875 -5.265625 1.414062 -5.445312 1.71875 -5.5625 C 2.019531 -5.6875 2.351562 -5.75 2.71875 -5.75 C 3.113281 -5.75 3.492188 -5.65625 3.859375 -5.46875 C 4.234375 -5.289062 4.507812 -5.046875 4.6875 -4.734375 L 4.0625 -4.265625 C 3.9375 -4.503906 3.75 -4.695312 3.5 -4.84375 C 3.257812 -4.988281 2.988281 -5.0625 2.6875 -5.0625 C 2.351562 -5.0625 2.070312 -4.988281 1.84375 -4.84375 C 1.613281 -4.695312 1.5 -4.476562 1.5 -4.1875 C 1.5 -3.9375 1.601562 -3.738281 1.8125 -3.59375 C 2.019531 -3.445312 2.363281 -3.328125 2.84375 -3.234375 C 3.5 -3.097656 3.984375 -2.894531 4.296875 -2.625 C 4.617188 -2.363281 4.78125 -2.019531 4.78125 -1.59375 C 4.78125 -1.1875 4.675781 -0.851562 4.46875 -0.59375 C 4.269531 -0.332031 4.007812 -0.144531 3.6875 -0.03125 C 3.375 0.0820312 3.035156 0.140625 2.671875 0.140625 Z M 2.671875 0.140625 "/></g></g><g style="fill:#ffffff;fill-opacity:1;"><g transform="translate(66.959029, 150.285417)"><path style="stroke:none" d="M 2.640625 0.078125 C 2.265625 0.078125 1.929688 -0.03125 1.640625 -0.25 C 1.347656 -0.476562 1.203125 -0.867188 1.203125 -1.421875 L 1.203125 -4.9375 L 0.046875 -4.9375 L 0.046875 -5.609375 L 1.203125 -5.609375 L 1.203125 -7.1875 L 2.015625 -7.1875 L 2.015625 -5.609375 L 3.609375 -5.609375 L 3.609375 -4.9375 L 2.015625 -4.9375 L 2.015625 -1.65625 C 2.015625 -1.257812 2.085938 -0.988281 2.234375 -0.84375 C 2.378906 -0.695312 2.585938 -0.625 2.859375 -0.625 C 2.972656 -0.625 3.09375 -0.640625 3.21875 -0.671875 C 3.34375 -0.703125 3.457031 -0.742188 3.5625 -0.796875 L 3.609375 -0.09375 C 3.304688 0.0195312 2.984375 0.078125 2.640625 0.078125 Z M 2.640625 0.078125 "/></g></g><g style="fill:#ffffff;fill-opacity:1;"><g transform="translate(70.752917, 150.285417)"><path style="stroke:none" d="M 1.5 -7.1875 C 1.34375 -7.1875 1.207031 -7.238281 1.09375 -7.34375 C 0.976562 -7.457031 0.921875 -7.59375 0.921875 -7.75 C 0.921875 -7.914062 0.976562 -8.050781 1.09375 -8.15625 C 1.207031 -8.269531 1.34375 -8.328125 1.5 -8.328125 C 1.644531 -8.328125 1.773438 -8.269531 1.890625 -8.15625 C 2.015625 -8.050781 2.078125 -7.914062 2.078125 -7.75 C 2.078125 -7.59375 2.015625 -7.457031 1.890625 -7.34375 C 1.773438 -7.238281 1.644531 -7.1875 1.5 -7.1875 Z M 1.90625 0 L 1.09375 0 L 1.09375 -5.609375 L 1.90625 -5.609375 Z M 1.90625 0 "/></g></g><g style="fill:#ffffff;fill-opacity:1;"><g transform="translate(73.744949, 150.285417)"><path style="stroke:none" d="M 1.078125 -4.375 C 1.078125 -4.851562 1.0625 -5.265625 1.03125 -5.609375 L 1.8125 -5.609375 C 1.84375 -5.210938 1.859375 -4.890625 1.859375 -4.640625 L 1.875 -4.640625 C 1.976562 -4.859375 2.128906 -5.046875 2.328125 -5.203125 C 2.535156 -5.367188 2.765625 -5.5 3.015625 -5.59375 C 3.273438 -5.695312 3.535156 -5.75 3.796875 -5.75 C 4.484375 -5.75 5.007812 -5.539062 5.375 -5.125 C 5.738281 -4.707031 5.921875 -4.144531 5.921875 -3.4375 L 5.921875 0 L 5.109375 0 L 5.109375 -3.09375 C 5.109375 -3.726562 4.992188 -4.210938 4.765625 -4.546875 C 4.535156 -4.890625 4.144531 -5.0625 3.59375 -5.0625 C 3.289062 -5.0625 3.007812 -4.976562 2.75 -4.8125 C 2.5 -4.65625 2.289062 -4.410156 2.125 -4.078125 C 1.96875 -3.753906 1.890625 -3.351562 1.890625 -2.875 L 1.890625 0 L 1.078125 0 Z M 1.078125 -4.375 "/></g></g><g style="fill:#ffffff;fill-opacity:1;"><g transform="translate(80.698421, 150.285417)"><path style="stroke:none" d="M 3.484375 2.875 C 2.972656 2.875 2.476562 2.773438 2 2.578125 C 1.53125 2.378906 1.128906 2.101562 0.796875 1.75 L 1.375 1.125 C 1.601562 1.414062 1.910156 1.660156 2.296875 1.859375 C 2.691406 2.054688 3.097656 2.15625 3.515625 2.15625 C 4.273438 2.15625 4.828125 1.953125 5.171875 1.546875 C 5.523438 1.140625 5.703125 0.609375 5.703125 -0.046875 L 5.703125 -1.09375 L 5.6875 -1.09375 C 5.476562 -0.757812 5.175781 -0.492188 4.78125 -0.296875 C 4.382812 -0.0976562 3.976562 0 3.5625 0 C 2.988281 0 2.484375 -0.117188 2.046875 -0.359375 C 1.609375 -0.609375 1.269531 -0.945312 1.03125 -1.375 C 0.789062 -1.8125 0.671875 -2.300781 0.671875 -2.84375 C 0.671875 -3.382812 0.789062 -3.875 1.03125 -4.3125 C 1.28125 -4.75 1.625 -5.097656 2.0625 -5.359375 C 2.5 -5.617188 3 -5.75 3.5625 -5.75 C 3.988281 -5.75 4.394531 -5.648438 4.78125 -5.453125 C 5.164062 -5.253906 5.46875 -4.976562 5.6875 -4.625 L 5.703125 -4.625 L 5.703125 -5.609375 L 6.515625 -5.609375 L 6.515625 -0.046875 C 6.515625 0.429688 6.425781 0.882812 6.25 1.3125 C 6.082031 1.75 5.769531 2.117188 5.3125 2.421875 C 4.851562 2.722656 4.242188 2.875 3.484375 2.875 Z M 3.65625 -0.6875 C 4.0625 -0.6875 4.425781 -0.78125 4.75 -0.96875 C 5.082031 -1.15625 5.34375 -1.410156 5.53125 -1.734375 C 5.71875 -2.066406 5.8125 -2.445312 5.8125 -2.875 C 5.8125 -3.257812 5.71875 -3.617188 5.53125 -3.953125 C 5.34375 -4.296875 5.082031 -4.566406 4.75 -4.765625 C 4.425781 -4.960938 4.0625 -5.0625 3.65625 -5.0625 C 3.21875 -5.0625 2.835938 -4.960938 2.515625 -4.765625 C 2.191406 -4.566406 1.945312 -4.300781 1.78125 -3.96875 C 1.613281 -3.632812 1.53125 -3.269531 1.53125 -2.875 C 1.53125 -2.476562 1.613281 -2.113281 1.78125 -1.78125 C 1.945312 -1.445312 2.191406 -1.179688 2.515625 -0.984375 C 2.835938 -0.785156 3.21875 -0.6875 3.65625 -0.6875 Z M 3.65625 -0.6875 "/></g></g><g style="fill:#ffffff;fill-opacity:1;"><g transform="translate(88.262262, 150.285417)"><path style="stroke:none" d=""/></g></g><g style="fill:#ffffff;fill-opacity:1;"><g transform="translate(91.254294, 150.285417)"><path style="stroke:none" d="M 1.078125 2.875 L 1.078125 -5.609375 L 1.890625 -5.609375 L 1.890625 -4.625 L 1.921875 -4.625 C 2.148438 -4.976562 2.453125 -5.253906 2.828125 -5.453125 C 3.210938 -5.648438 3.613281 -5.75 4.03125 -5.75 C 4.601562 -5.75 5.109375 -5.617188 5.546875 -5.359375 C 5.992188 -5.097656 6.335938 -4.742188 6.578125 -4.296875 C 6.816406 -3.847656 6.9375 -3.347656 6.9375 -2.796875 C 6.9375 -2.242188 6.816406 -1.742188 6.578125 -1.296875 C 6.335938 -0.859375 5.992188 -0.507812 5.546875 -0.25 C 5.109375 0.0078125 4.601562 0.140625 4.03125 0.140625 C 3.625 0.140625 3.226562 0.046875 2.84375 -0.140625 C 2.46875 -0.335938 2.160156 -0.609375 1.921875 -0.953125 L 1.890625 -0.953125 L 1.890625 2.875 Z M 3.953125 -0.546875 C 4.390625 -0.546875 4.765625 -0.644531 5.078125 -0.84375 C 5.398438 -1.050781 5.644531 -1.320312 5.8125 -1.65625 C 5.976562 -2 6.0625 -2.378906 6.0625 -2.796875 C 6.0625 -3.222656 5.976562 -3.609375 5.8125 -3.953125 C 5.644531 -4.296875 5.398438 -4.566406 5.078125 -4.765625 C 4.765625 -4.960938 4.390625 -5.0625 3.953125 -5.0625 C 3.535156 -5.0625 3.160156 -4.960938 2.828125 -4.765625 C 2.503906 -4.566406 2.25 -4.296875 2.0625 -3.953125 C 1.882812 -3.609375 1.796875 -3.222656 1.796875 -2.796875 C 1.796875 -2.378906 1.882812 -2 2.0625 -1.65625 C 2.25 -1.3125 2.503906 -1.039062 2.828125 -0.84375 C 3.160156 -0.644531 3.535156 -0.546875 3.953125 -0.546875 Z M 3.953125 -0.546875 "/></g></g><g style="fill:#ffffff;fill-opacity:1;"><g transform="translate(98.854042, 150.285417)"><path style="stroke:none" d="M 3.5625 0.140625 C 3.007812 0.140625 2.515625 0.015625 2.078125 -0.234375 C 1.640625 -0.492188 1.296875 -0.847656 1.046875 -1.296875 C 0.796875 -1.742188 0.671875 -2.242188 0.671875 -2.796875 C 0.671875 -3.347656 0.789062 -3.847656 1.03125 -4.296875 C 1.28125 -4.753906 1.617188 -5.109375 2.046875 -5.359375 C 2.484375 -5.617188 2.96875 -5.75 3.5 -5.75 C 4.0625 -5.75 4.539062 -5.625 4.9375 -5.375 C 5.34375 -5.132812 5.648438 -4.800781 5.859375 -4.375 C 6.066406 -3.957031 6.171875 -3.488281 6.171875 -2.96875 C 6.171875 -2.8125 6.164062 -2.679688 6.15625 -2.578125 L 1.515625 -2.578125 C 1.523438 -2.203125 1.617188 -1.859375 1.796875 -1.546875 C 1.984375 -1.242188 2.226562 -1 2.53125 -0.8125 C 2.84375 -0.632812 3.1875 -0.546875 3.5625 -0.546875 C 3.957031 -0.546875 4.3125 -0.640625 4.625 -0.828125 C 4.945312 -1.015625 5.191406 -1.242188 5.359375 -1.515625 L 5.96875 -1.046875 C 5.34375 -0.253906 4.539062 0.140625 3.5625 0.140625 Z M 5.34375 -3.234375 C 5.332031 -3.585938 5.253906 -3.898438 5.109375 -4.171875 C 4.960938 -4.453125 4.75 -4.671875 4.46875 -4.828125 C 4.195312 -4.984375 3.875 -5.0625 3.5 -5.0625 C 3.144531 -5.0625 2.820312 -4.976562 2.53125 -4.8125 C 2.238281 -4.644531 2.003906 -4.414062 1.828125 -4.125 C 1.648438 -3.84375 1.550781 -3.546875 1.53125 -3.234375 Z M 5.34375 -3.234375 "/></g></g><g style="fill:#ffffff;fill-opacity:1;"><g transform="translate(105.699803, 150.285417)"><path style="stroke:none" d="M 1.078125 -4.375 C 1.078125 -4.851562 1.0625 -5.265625 1.03125 -5.609375 L 1.8125 -5.609375 C 1.84375 -5.210938 1.859375 -4.890625 1.859375 -4.640625 L 1.875 -4.640625 C 2.039062 -4.972656 2.285156 -5.238281 2.609375 -5.4375 C 2.929688 -5.644531 3.285156 -5.75 3.671875 -5.75 C 3.890625 -5.75 4.070312 -5.726562 4.21875 -5.6875 L 4.109375 -4.921875 C 4.054688 -4.929688 3.972656 -4.941406 3.859375 -4.953125 C 3.742188 -4.972656 3.632812 -4.984375 3.53125 -4.984375 C 3.226562 -4.984375 2.953125 -4.90625 2.703125 -4.75 C 2.453125 -4.601562 2.253906 -4.375 2.109375 -4.0625 C 1.960938 -3.75 1.890625 -3.351562 1.890625 -2.875 L 1.890625 0 L 1.078125 0 Z M 1.078125 -4.375 "/></g></g><g style="fill:#ffffff;fill-opacity:1;"><g transform="translate(110.008321, 150.285417)"><path style="stroke:none" d="M 2.671875 0.140625 C 2.222656 0.140625 1.800781 0.0507812 1.40625 -0.125 C 1.019531 -0.3125 0.703125 -0.585938 0.453125 -0.953125 L 1.09375 -1.421875 C 1.25 -1.171875 1.46875 -0.960938 1.75 -0.796875 C 2.03125 -0.628906 2.332031 -0.546875 2.65625 -0.546875 C 3.039062 -0.546875 3.351562 -0.625 3.59375 -0.78125 C 3.84375 -0.9375 3.96875 -1.1875 3.96875 -1.53125 C 3.96875 -1.71875 3.90625 -1.875 3.78125 -2 C 3.664062 -2.132812 3.488281 -2.25 3.25 -2.34375 C 3.019531 -2.4375 2.710938 -2.523438 2.328125 -2.609375 C 2.035156 -2.679688 1.773438 -2.765625 1.546875 -2.859375 C 1.316406 -2.960938 1.117188 -3.113281 0.953125 -3.3125 C 0.796875 -3.519531 0.71875 -3.789062 0.71875 -4.125 C 0.71875 -4.476562 0.804688 -4.773438 0.984375 -5.015625 C 1.171875 -5.265625 1.414062 -5.445312 1.71875 -5.5625 C 2.019531 -5.6875 2.351562 -5.75 2.71875 -5.75 C 3.113281 -5.75 3.492188 -5.65625 3.859375 -5.46875 C 4.234375 -5.289062 4.507812 -5.046875 4.6875 -4.734375 L 4.0625 -4.265625 C 3.9375 -4.503906 3.75 -4.695312 3.5 -4.84375 C 3.257812 -4.988281 2.988281 -5.0625 2.6875 -5.0625 C 2.351562 -5.0625 2.070312 -4.988281 1.84375 -4.84375 C 1.613281 -4.695312 1.5 -4.476562 1.5 -4.1875 C 1.5 -3.9375 1.601562 -3.738281 1.8125 -3.59375 C 2.019531 -3.445312 2.363281 -3.328125 2.84375 -3.234375 C 3.5 -3.097656 3.984375 -2.894531 4.296875 -2.625 C 4.617188 -2.363281 4.78125 -2.019531 4.78125 -1.59375 C 4.78125 -1.1875 4.675781 -0.851562 4.46875 -0.59375 C 4.269531 -0.332031 4.007812 -0.144531 3.6875 -0.03125 C 3.375 0.0820312 3.035156 0.140625 2.671875 0.140625 Z M 2.671875 0.140625 "/></g></g><g style="fill:#ffffff;fill-opacity:1;"><g transform="translate(115.322164, 150.285417)"><path style="stroke:none" d="M 3.65625 0.140625 C 3.082031 0.140625 2.566406 0.015625 2.109375 -0.234375 C 1.660156 -0.492188 1.304688 -0.847656 1.046875 -1.296875 C 0.796875 -1.742188 0.671875 -2.242188 0.671875 -2.796875 C 0.671875 -3.359375 0.796875 -3.863281 1.046875 -4.3125 C 1.304688 -4.757812 1.660156 -5.109375 2.109375 -5.359375 C 2.566406 -5.617188 3.082031 -5.75 3.65625 -5.75 C 4.226562 -5.75 4.738281 -5.617188 5.1875 -5.359375 C 5.644531 -5.109375 6 -4.757812 6.25 -4.3125 C 6.507812 -3.863281 6.640625 -3.359375 6.640625 -2.796875 C 6.640625 -2.242188 6.507812 -1.742188 6.25 -1.296875 C 6 -0.847656 5.644531 -0.492188 5.1875 -0.234375 C 4.738281 0.015625 4.226562 0.140625 3.65625 0.140625 Z M 3.65625 -0.546875 C 4.070312 -0.546875 4.441406 -0.644531 4.765625 -0.84375 C 5.085938 -1.050781 5.335938 -1.320312 5.515625 -1.65625 C 5.691406 -2 5.78125 -2.378906 5.78125 -2.796875 C 5.78125 -3.222656 5.691406 -3.609375 5.515625 -3.953125 C 5.335938 -4.296875 5.085938 -4.566406 4.765625 -4.765625 C 4.441406 -4.960938 4.070312 -5.0625 3.65625 -5.0625 C 3.226562 -5.0625 2.851562 -4.960938 2.53125 -4.765625 C 2.21875 -4.566406 1.972656 -4.296875 1.796875 -3.953125 C 1.617188 -3.609375 1.53125 -3.222656 1.53125 -2.796875 C 1.53125 -2.378906 1.617188 -2 1.796875 -1.65625 C 1.972656 -1.320312 2.21875 -1.050781 2.53125 -0.84375 C 2.851562 -0.644531 3.226562 -0.546875 3.65625 -0.546875 Z M 3.65625 -0.546875 "/></g></g><g style="fill:#ffffff;fill-opacity:1;"><g transform="translate(122.634676, 150.285417)"><path style="stroke:none" d="M 1.078125 -4.375 C 1.078125 -4.851562 1.0625 -5.265625 1.03125 -5.609375 L 1.8125 -5.609375 C 1.84375 -5.210938 1.859375 -4.890625 1.859375 -4.640625 L 1.875 -4.640625 C 1.976562 -4.859375 2.128906 -5.046875 2.328125 -5.203125 C 2.535156 -5.367188 2.765625 -5.5 3.015625 -5.59375 C 3.273438 -5.695312 3.535156 -5.75 3.796875 -5.75 C 4.484375 -5.75 5.007812 -5.539062 5.375 -5.125 C 5.738281 -4.707031 5.921875 -4.144531 5.921875 -3.4375 L 5.921875 0 L 5.109375 0 L 5.109375 -3.09375 C 5.109375 -3.726562 4.992188 -4.210938 4.765625 -4.546875 C 4.535156 -4.890625 4.144531 -5.0625 3.59375 -5.0625 C 3.289062 -5.0625 3.007812 -4.976562 2.75 -4.8125 C 2.5 -4.65625 2.289062 -4.410156 2.125 -4.078125 C 1.96875 -3.753906 1.890625 -3.351562 1.890625 -2.875 L 1.890625 0 L 1.078125 0 Z M 1.078125 -4.375 "/></g></g><g style="fill:#ffffff;fill-opacity:1;"><g transform="translate(129.588148, 150.285417)"><path style="stroke:none" d="M 2.59375 0.140625 C 2.28125 0.140625 1.976562 0.0820312 1.6875 -0.03125 C 1.394531 -0.144531 1.148438 -0.328125 0.953125 -0.578125 C 0.753906 -0.835938 0.65625 -1.164062 0.65625 -1.5625 C 0.65625 -2.09375 0.828125 -2.492188 1.171875 -2.765625 C 1.523438 -3.046875 1.972656 -3.226562 2.515625 -3.3125 C 3.066406 -3.394531 3.75 -3.4375 4.5625 -3.4375 L 4.609375 -3.4375 L 4.609375 -3.609375 C 4.609375 -4.085938 4.476562 -4.445312 4.21875 -4.6875 C 3.96875 -4.9375 3.597656 -5.0625 3.109375 -5.0625 C 2.796875 -5.0625 2.488281 -5 2.1875 -4.875 C 1.894531 -4.757812 1.648438 -4.601562 1.453125 -4.40625 L 1 -4.9375 C 1.238281 -5.175781 1.546875 -5.367188 1.921875 -5.515625 C 2.304688 -5.671875 2.734375 -5.75 3.203125 -5.75 C 3.609375 -5.75 3.972656 -5.671875 4.296875 -5.515625 C 4.628906 -5.367188 4.890625 -5.140625 5.078125 -4.828125 C 5.273438 -4.523438 5.375 -4.148438 5.375 -3.703125 L 5.375 -1.25 C 5.375 -1.03125 5.378906 -0.804688 5.390625 -0.578125 C 5.410156 -0.347656 5.4375 -0.15625 5.46875 0 L 4.734375 0 C 4.679688 -0.320312 4.65625 -0.625 4.65625 -0.90625 L 4.625 -0.90625 C 4.375 -0.539062 4.085938 -0.273438 3.765625 -0.109375 C 3.441406 0.0546875 3.050781 0.140625 2.59375 0.140625 Z M 2.8125 -0.53125 C 3.175781 -0.53125 3.492188 -0.613281 3.765625 -0.78125 C 4.035156 -0.945312 4.242188 -1.171875 4.390625 -1.453125 C 4.535156 -1.734375 4.609375 -2.039062 4.609375 -2.375 L 4.609375 -2.796875 L 4.375 -2.796875 C 3.519531 -2.796875 2.828125 -2.710938 2.296875 -2.546875 C 1.765625 -2.390625 1.5 -2.070312 1.5 -1.59375 C 1.5 -1.226562 1.625 -0.957031 1.875 -0.78125 C 2.132812 -0.613281 2.445312 -0.53125 2.8125 -0.53125 Z M 2.8125 -0.53125 "/></g></g><g style="fill:#ffffff;fill-opacity:1;"><g transform="translate(135.979121, 150.285417)"><path style="stroke:none" d="M 1.921875 0 L 1.09375 0 L 1.09375 -9.046875 L 1.921875 -9.046875 Z M 1.921875 0 "/></g></g><g style="fill:#ffffff;fill-opacity:1;"><g transform="translate(138.995088, 150.285417)"><path style="stroke:none" d=""/></g></g><g style="fill:#ffffff;fill-opacity:1;"><g transform="translate(141.987121, 150.285417)"><path style="stroke:none" d="M 2.59375 0.140625 C 2.28125 0.140625 1.976562 0.0820312 1.6875 -0.03125 C 1.394531 -0.144531 1.148438 -0.328125 0.953125 -0.578125 C 0.753906 -0.835938 0.65625 -1.164062 0.65625 -1.5625 C 0.65625 -2.09375 0.828125 -2.492188 1.171875 -2.765625 C 1.523438 -3.046875 1.972656 -3.226562 2.515625 -3.3125 C 3.066406 -3.394531 3.75 -3.4375 4.5625 -3.4375 L 4.609375 -3.4375 L 4.609375 -3.609375 C 4.609375 -4.085938 4.476562 -4.445312 4.21875 -4.6875 C 3.96875 -4.9375 3.597656 -5.0625 3.109375 -5.0625 C 2.796875 -5.0625 2.488281 -5 2.1875 -4.875 C 1.894531 -4.757812 1.648438 -4.601562 1.453125 -4.40625 L 1 -4.9375 C 1.238281 -5.175781 1.546875 -5.367188 1.921875 -5.515625 C 2.304688 -5.671875 2.734375 -5.75 3.203125 -5.75 C 3.609375 -5.75 3.972656 -5.671875 4.296875 -5.515625 C 4.628906 -5.367188 4.890625 -5.140625 5.078125 -4.828125 C 5.273438 -4.523438 5.375 -4.148438 5.375 -3.703125 L 5.375 -1.25 C 5.375 -1.03125 5.378906 -0.804688 5.390625 -0.578125 C 5.410156 -0.347656 5.4375 -0.15625 5.46875 0 L 4.734375 0 C 4.679688 -0.320312 4.65625 -0.625 4.65625 -0.90625 L 4.625 -0.90625 C 4.375 -0.539062 4.085938 -0.273438 3.765625 -0.109375 C 3.441406 0.0546875 3.050781 0.140625 2.59375 0.140625 Z M 2.8125 -0.53125 C 3.175781 -0.53125 3.492188 -0.613281 3.765625 -0.78125 C 4.035156 -0.945312 4.242188 -1.171875 4.390625 -1.453125 C 4.535156 -1.734375 4.609375 -2.039062 4.609375 -2.375 L 4.609375 -2.796875 L 4.375 -2.796875 C 3.519531 -2.796875 2.828125 -2.710938 2.296875 -2.546875 C 1.765625 -2.390625 1.5 -2.070312 1.5 -1.59375 C 1.5 -1.226562 1.625 -0.957031 1.875 -0.78125 C 2.132812 -0.613281 2.445312 -0.53125 2.8125 -0.53125 Z M 2.8125 -0.53125 "/></g></g><g style="fill:#ffffff;fill-opacity:1;"><g transform="translate(148.378094, 150.285417)"><path style="stroke:none" d="M 1.078125 -4.375 C 1.078125 -4.851562 1.0625 -5.265625 1.03125 -5.609375 L 1.8125 -5.609375 C 1.84375 -5.210938 1.859375 -4.890625 1.859375 -4.640625 L 1.875 -4.640625 C 1.976562 -4.859375 2.128906 -5.046875 2.328125 -5.203125 C 2.535156 -5.367188 2.765625 -5.5 3.015625 -5.59375 C 3.273438 -5.695312 3.535156 -5.75 3.796875 -5.75 C 4.484375 -5.75 5.007812 -5.539062 5.375 -5.125 C 5.738281 -4.707031 5.921875 -4.144531 5.921875 -3.4375 L 5.921875 0 L 5.109375 0 L 5.109375 -3.09375 C 5.109375 -3.726562 4.992188 -4.210938 4.765625 -4.546875 C 4.535156 -4.890625 4.144531 -5.0625 3.59375 -5.0625 C 3.289062 -5.0625 3.007812 -4.976562 2.75 -4.8125 C 2.5 -4.65625 2.289062 -4.410156 2.125 -4.078125 C 1.96875 -3.753906 1.890625 -3.351562 1.890625 -2.875 L 1.890625 0 L 1.078125 0 Z M 1.078125 -4.375 "/></g></g><g style="fill:#ffffff;fill-opacity:1;"><g transform="translate(155.331566, 150.285417)"><path style="stroke:none" d="M 3.5625 0.140625 C 3 0.140625 2.492188 0.0078125 2.046875 -0.25 C 1.609375 -0.507812 1.269531 -0.859375 1.03125 -1.296875 C 0.789062 -1.742188 0.671875 -2.242188 0.671875 -2.796875 C 0.671875 -3.347656 0.789062 -3.847656 1.03125 -4.296875 C 1.269531 -4.742188 1.609375 -5.097656 2.046875 -5.359375 C 2.492188 -5.617188 3 -5.75 3.5625 -5.75 C 3.976562 -5.75 4.378906 -5.648438 4.765625 -5.453125 C 5.148438 -5.253906 5.457031 -4.976562 5.6875 -4.625 L 5.703125 -4.625 L 5.703125 -9.046875 L 6.515625 -9.046875 L 6.515625 0 L 5.703125 0 L 5.703125 -0.953125 L 5.6875 -0.953125 C 5.457031 -0.609375 5.148438 -0.335938 4.765625 -0.140625 C 4.378906 0.046875 3.976562 0.140625 3.5625 0.140625 Z M 3.65625 -0.546875 C 4.0625 -0.546875 4.425781 -0.644531 4.75 -0.84375 C 5.082031 -1.039062 5.34375 -1.3125 5.53125 -1.65625 C 5.71875 -2 5.8125 -2.378906 5.8125 -2.796875 C 5.8125 -3.222656 5.71875 -3.609375 5.53125 -3.953125 C 5.34375 -4.296875 5.082031 -4.566406 4.75 -4.765625 C 4.425781 -4.960938 4.0625 -5.0625 3.65625 -5.0625 C 3.21875 -5.0625 2.835938 -4.960938 2.515625 -4.765625 C 2.191406 -4.566406 1.945312 -4.296875 1.78125 -3.953125 C 1.613281 -3.609375 1.53125 -3.222656 1.53125 -2.796875 C 1.53125 -2.378906 1.613281 -2 1.78125 -1.65625 C 1.945312 -1.320312 2.191406 -1.050781 2.515625 -0.84375 C 2.835938 -0.644531 3.21875 -0.546875 3.65625 -0.546875 Z M 3.65625 -0.546875 "/></g></g><g style="fill:#ffffff;fill-opacity:1;"><g transform="translate(162.959962, 150.285417)"><path style="stroke:none" d=""/></g></g><g style="fill:#ffffff;fill-opacity:1;"><g transform="translate(23.795921, 166.741533)"><path style="stroke:none" d="M 1.078125 2.875 L 1.078125 -5.609375 L 1.890625 -5.609375 L 1.890625 -4.625 L 1.921875 -4.625 C 2.148438 -4.976562 2.453125 -5.253906 2.828125 -5.453125 C 3.210938 -5.648438 3.613281 -5.75 4.03125 -5.75 C 4.601562 -5.75 5.109375 -5.617188 5.546875 -5.359375 C 5.992188 -5.097656 6.335938 -4.742188 6.578125 -4.296875 C 6.816406 -3.847656 6.9375 -3.347656 6.9375 -2.796875 C 6.9375 -2.242188 6.816406 -1.742188 6.578125 -1.296875 C 6.335938 -0.859375 5.992188 -0.507812 5.546875 -0.25 C 5.109375 0.0078125 4.601562 0.140625 4.03125 0.140625 C 3.625 0.140625 3.226562 0.046875 2.84375 -0.140625 C 2.46875 -0.335938 2.160156 -0.609375 1.921875 -0.953125 L 1.890625 -0.953125 L 1.890625 2.875 Z M 3.953125 -0.546875 C 4.390625 -0.546875 4.765625 -0.644531 5.078125 -0.84375 C 5.398438 -1.050781 5.644531 -1.320312 5.8125 -1.65625 C 5.976562 -2 6.0625 -2.378906 6.0625 -2.796875 C 6.0625 -3.222656 5.976562 -3.609375 5.8125 -3.953125 C 5.644531 -4.296875 5.398438 -4.566406 5.078125 -4.765625 C 4.765625 -4.960938 4.390625 -5.0625 3.953125 -5.0625 C 3.535156 -5.0625 3.160156 -4.960938 2.828125 -4.765625 C 2.503906 -4.566406 2.25 -4.296875 2.0625 -3.953125 C 1.882812 -3.609375 1.796875 -3.222656 1.796875 -2.796875 C 1.796875 -2.378906 1.882812 -2 2.0625 -1.65625 C 2.25 -1.3125 2.503906 -1.039062 2.828125 -0.84375 C 3.160156 -0.644531 3.535156 -0.546875 3.953125 -0.546875 Z M 3.953125 -0.546875 "/></g></g><g style="fill:#ffffff;fill-opacity:1;"><g transform="translate(31.395669, 166.741533)"><path style="stroke:none" d="M 1.078125 -4.375 C 1.078125 -4.851562 1.0625 -5.265625 1.03125 -5.609375 L 1.8125 -5.609375 C 1.84375 -5.210938 1.859375 -4.890625 1.859375 -4.640625 L 1.875 -4.640625 C 2.039062 -4.972656 2.285156 -5.238281 2.609375 -5.4375 C 2.929688 -5.644531 3.285156 -5.75 3.671875 -5.75 C 3.890625 -5.75 4.070312 -5.726562 4.21875 -5.6875 L 4.109375 -4.921875 C 4.054688 -4.929688 3.972656 -4.941406 3.859375 -4.953125 C 3.742188 -4.972656 3.632812 -4.984375 3.53125 -4.984375 C 3.226562 -4.984375 2.953125 -4.90625 2.703125 -4.75 C 2.453125 -4.601562 2.253906 -4.375 2.109375 -4.0625 C 1.960938 -3.75 1.890625 -3.351562 1.890625 -2.875 L 1.890625 0 L 1.078125 0 Z M 1.078125 -4.375 "/></g></g><g style="fill:#ffffff;fill-opacity:1;"><g transform="translate(35.704186, 166.741533)"><path style="stroke:none" d="M 3.65625 0.140625 C 3.082031 0.140625 2.566406 0.015625 2.109375 -0.234375 C 1.660156 -0.492188 1.304688 -0.847656 1.046875 -1.296875 C 0.796875 -1.742188 0.671875 -2.242188 0.671875 -2.796875 C 0.671875 -3.359375 0.796875 -3.863281 1.046875 -4.3125 C 1.304688 -4.757812 1.660156 -5.109375 2.109375 -5.359375 C 2.566406 -5.617188 3.082031 -5.75 3.65625 -5.75 C 4.226562 -5.75 4.738281 -5.617188 5.1875 -5.359375 C 5.644531 -5.109375 6 -4.757812 6.25 -4.3125 C 6.507812 -3.863281 6.640625 -3.359375 6.640625 -2.796875 C 6.640625 -2.242188 6.507812 -1.742188 6.25 -1.296875 C 6 -0.847656 5.644531 -0.492188 5.1875 -0.234375 C 4.738281 0.015625 4.226562 0.140625 3.65625 0.140625 Z M 3.65625 -0.546875 C 4.070312 -0.546875 4.441406 -0.644531 4.765625 -0.84375 C 5.085938 -1.050781 5.335938 -1.320312 5.515625 -1.65625 C 5.691406 -2 5.78125 -2.378906 5.78125 -2.796875 C 5.78125 -3.222656 5.691406 -3.609375 5.515625 -3.953125 C 5.335938 -4.296875 5.085938 -4.566406 4.765625 -4.765625 C 4.441406 -4.960938 4.070312 -5.0625 3.65625 -5.0625 C 3.226562 -5.0625 2.851562 -4.960938 2.53125 -4.765625 C 2.21875 -4.566406 1.972656 -4.296875 1.796875 -3.953125 C 1.617188 -3.609375 1.53125 -3.222656 1.53125 -2.796875 C 1.53125 -2.378906 1.617188 -2 1.796875 -1.65625 C 1.972656 -1.320312 2.21875 -1.050781 2.53125 -0.84375 C 2.851562 -0.644531 3.226562 -0.546875 3.65625 -0.546875 Z M 3.65625 -0.546875 "/></g></g><g style="fill:#ffffff;fill-opacity:1;"><g transform="translate(43.016698, 166.741533)"><path style="stroke:none" d="M 1.3125 0 L 1.3125 -4.9375 L 0.140625 -4.9375 L 0.140625 -5.609375 L 1.3125 -5.609375 L 1.3125 -7.140625 C 1.3125 -7.785156 1.472656 -8.285156 1.796875 -8.640625 C 2.117188 -9.003906 2.59375 -9.1875 3.21875 -9.1875 C 3.476562 -9.1875 3.703125 -9.160156 3.890625 -9.109375 L 3.75 -8.390625 C 3.550781 -8.441406 3.363281 -8.46875 3.1875 -8.46875 C 2.78125 -8.46875 2.5 -8.34375 2.34375 -8.09375 C 2.195312 -7.851562 2.125 -7.5 2.125 -7.03125 L 2.125 -5.609375 L 3.453125 -5.609375 L 3.453125 -4.9375 L 2.125 -4.9375 L 2.125 0 Z M 1.3125 0 "/></g></g><g style="fill:#ffffff;fill-opacity:1;"><g transform="translate(46.547295, 166.741533)"><path style="stroke:none" d="M 3.5625 0.140625 C 3.007812 0.140625 2.515625 0.015625 2.078125 -0.234375 C 1.640625 -0.492188 1.296875 -0.847656 1.046875 -1.296875 C 0.796875 -1.742188 0.671875 -2.242188 0.671875 -2.796875 C 0.671875 -3.347656 0.789062 -3.847656 1.03125 -4.296875 C 1.28125 -4.753906 1.617188 -5.109375 2.046875 -5.359375 C 2.484375 -5.617188 2.96875 -5.75 3.5 -5.75 C 4.0625 -5.75 4.539062 -5.625 4.9375 -5.375 C 5.34375 -5.132812 5.648438 -4.800781 5.859375 -4.375 C 6.066406 -3.957031 6.171875 -3.488281 6.171875 -2.96875 C 6.171875 -2.8125 6.164062 -2.679688 6.15625 -2.578125 L 1.515625 -2.578125 C 1.523438 -2.203125 1.617188 -1.859375 1.796875 -1.546875 C 1.984375 -1.242188 2.226562 -1 2.53125 -0.8125 C 2.84375 -0.632812 3.1875 -0.546875 3.5625 -0.546875 C 3.957031 -0.546875 4.3125 -0.640625 4.625 -0.828125 C 4.945312 -1.015625 5.191406 -1.242188 5.359375 -1.515625 L 5.96875 -1.046875 C 5.34375 -0.253906 4.539062 0.140625 3.5625 0.140625 Z M 5.34375 -3.234375 C 5.332031 -3.585938 5.253906 -3.898438 5.109375 -4.171875 C 4.960938 -4.453125 4.75 -4.671875 4.46875 -4.828125 C 4.195312 -4.984375 3.875 -5.0625 3.5 -5.0625 C 3.144531 -5.0625 2.820312 -4.976562 2.53125 -4.8125 C 2.238281 -4.644531 2.003906 -4.414062 1.828125 -4.125 C 1.648438 -3.84375 1.550781 -3.546875 1.53125 -3.234375 Z M 5.34375 -3.234375 "/></g></g><g style="fill:#ffffff;fill-opacity:1;"><g transform="translate(53.393057, 166.741533)"><path style="stroke:none" d="M 2.671875 0.140625 C 2.222656 0.140625 1.800781 0.0507812 1.40625 -0.125 C 1.019531 -0.3125 0.703125 -0.585938 0.453125 -0.953125 L 1.09375 -1.421875 C 1.25 -1.171875 1.46875 -0.960938 1.75 -0.796875 C 2.03125 -0.628906 2.332031 -0.546875 2.65625 -0.546875 C 3.039062 -0.546875 3.351562 -0.625 3.59375 -0.78125 C 3.84375 -0.9375 3.96875 -1.1875 3.96875 -1.53125 C 3.96875 -1.71875 3.90625 -1.875 3.78125 -2 C 3.664062 -2.132812 3.488281 -2.25 3.25 -2.34375 C 3.019531 -2.4375 2.710938 -2.523438 2.328125 -2.609375 C 2.035156 -2.679688 1.773438 -2.765625 1.546875 -2.859375 C 1.316406 -2.960938 1.117188 -3.113281 0.953125 -3.3125 C 0.796875 -3.519531 0.71875 -3.789062 0.71875 -4.125 C 0.71875 -4.476562 0.804688 -4.773438 0.984375 -5.015625 C 1.171875 -5.265625 1.414062 -5.445312 1.71875 -5.5625 C 2.019531 -5.6875 2.351562 -5.75 2.71875 -5.75 C 3.113281 -5.75 3.492188 -5.65625 3.859375 -5.46875 C 4.234375 -5.289062 4.507812 -5.046875 4.6875 -4.734375 L 4.0625 -4.265625 C 3.9375 -4.503906 3.75 -4.695312 3.5 -4.84375 C 3.257812 -4.988281 2.988281 -5.0625 2.6875 -5.0625 C 2.351562 -5.0625 2.070312 -4.988281 1.84375 -4.84375 C 1.613281 -4.695312 1.5 -4.476562 1.5 -4.1875 C 1.5 -3.9375 1.601562 -3.738281 1.8125 -3.59375 C 2.019531 -3.445312 2.363281 -3.328125 2.84375 -3.234375 C 3.5 -3.097656 3.984375 -2.894531 4.296875 -2.625 C 4.617188 -2.363281 4.78125 -2.019531 4.78125 -1.59375 C 4.78125 -1.1875 4.675781 -0.851562 4.46875 -0.59375 C 4.269531 -0.332031 4.007812 -0.144531 3.6875 -0.03125 C 3.375 0.0820312 3.035156 0.140625 2.671875 0.140625 Z M 2.671875 0.140625 "/></g></g><g style="fill:#ffffff;fill-opacity:1;"><g transform="translate(58.7069, 166.741533)"><path style="stroke:none" d="M 2.671875 0.140625 C 2.222656 0.140625 1.800781 0.0507812 1.40625 -0.125 C 1.019531 -0.3125 0.703125 -0.585938 0.453125 -0.953125 L 1.09375 -1.421875 C 1.25 -1.171875 1.46875 -0.960938 1.75 -0.796875 C 2.03125 -0.628906 2.332031 -0.546875 2.65625 -0.546875 C 3.039062 -0.546875 3.351562 -0.625 3.59375 -0.78125 C 3.84375 -0.9375 3.96875 -1.1875 3.96875 -1.53125 C 3.96875 -1.71875 3.90625 -1.875 3.78125 -2 C 3.664062 -2.132812 3.488281 -2.25 3.25 -2.34375 C 3.019531 -2.4375 2.710938 -2.523438 2.328125 -2.609375 C 2.035156 -2.679688 1.773438 -2.765625 1.546875 -2.859375 C 1.316406 -2.960938 1.117188 -3.113281 0.953125 -3.3125 C 0.796875 -3.519531 0.71875 -3.789062 0.71875 -4.125 C 0.71875 -4.476562 0.804688 -4.773438 0.984375 -5.015625 C 1.171875 -5.265625 1.414062 -5.445312 1.71875 -5.5625 C 2.019531 -5.6875 2.351562 -5.75 2.71875 -5.75 C 3.113281 -5.75 3.492188 -5.65625 3.859375 -5.46875 C 4.234375 -5.289062 4.507812 -5.046875 4.6875 -4.734375 L 4.0625 -4.265625 C 3.9375 -4.503906 3.75 -4.695312 3.5 -4.84375 C 3.257812 -4.988281 2.988281 -5.0625 2.6875 -5.0625 C 2.351562 -5.0625 2.070312 -4.988281 1.84375 -4.84375 C 1.613281 -4.695312 1.5 -4.476562 1.5 -4.1875 C 1.5 -3.9375 1.601562 -3.738281 1.8125 -3.59375 C 2.019531 -3.445312 2.363281 -3.328125 2.84375 -3.234375 C 3.5 -3.097656 3.984375 -2.894531 4.296875 -2.625 C 4.617188 -2.363281 4.78125 -2.019531 4.78125 -1.59375 C 4.78125 -1.1875 4.675781 -0.851562 4.46875 -0.59375 C 4.269531 -0.332031 4.007812 -0.144531 3.6875 -0.03125 C 3.375 0.0820312 3.035156 0.140625 2.671875 0.140625 Z M 2.671875 0.140625 "/></g></g><g style="fill:#ffffff;fill-opacity:1;"><g transform="translate(64.020744, 166.741533)"><path style="stroke:none" d="M 1.5 -7.1875 C 1.34375 -7.1875 1.207031 -7.238281 1.09375 -7.34375 C 0.976562 -7.457031 0.921875 -7.59375 0.921875 -7.75 C 0.921875 -7.914062 0.976562 -8.050781 1.09375 -8.15625 C 1.207031 -8.269531 1.34375 -8.328125 1.5 -8.328125 C 1.644531 -8.328125 1.773438 -8.269531 1.890625 -8.15625 C 2.015625 -8.050781 2.078125 -7.914062 2.078125 -7.75 C 2.078125 -7.59375 2.015625 -7.457031 1.890625 -7.34375 C 1.773438 -7.238281 1.644531 -7.1875 1.5 -7.1875 Z M 1.90625 0 L 1.09375 0 L 1.09375 -5.609375 L 1.90625 -5.609375 Z M 1.90625 0 "/></g></g><g style="fill:#ffffff;fill-opacity:1;"><g transform="translate(67.012776, 166.741533)"><path style="stroke:none" d="M 3.65625 0.140625 C 3.082031 0.140625 2.566406 0.015625 2.109375 -0.234375 C 1.660156 -0.492188 1.304688 -0.847656 1.046875 -1.296875 C 0.796875 -1.742188 0.671875 -2.242188 0.671875 -2.796875 C 0.671875 -3.359375 0.796875 -3.863281 1.046875 -4.3125 C 1.304688 -4.757812 1.660156 -5.109375 2.109375 -5.359375 C 2.566406 -5.617188 3.082031 -5.75 3.65625 -5.75 C 4.226562 -5.75 4.738281 -5.617188 5.1875 -5.359375 C 5.644531 -5.109375 6 -4.757812 6.25 -4.3125 C 6.507812 -3.863281 6.640625 -3.359375 6.640625 -2.796875 C 6.640625 -2.242188 6.507812 -1.742188 6.25 -1.296875 C 6 -0.847656 5.644531 -0.492188 5.1875 -0.234375 C 4.738281 0.015625 4.226562 0.140625 3.65625 0.140625 Z M 3.65625 -0.546875 C 4.070312 -0.546875 4.441406 -0.644531 4.765625 -0.84375 C 5.085938 -1.050781 5.335938 -1.320312 5.515625 -1.65625 C 5.691406 -2 5.78125 -2.378906 5.78125 -2.796875 C 5.78125 -3.222656 5.691406 -3.609375 5.515625 -3.953125 C 5.335938 -4.296875 5.085938 -4.566406 4.765625 -4.765625 C 4.441406 -4.960938 4.070312 -5.0625 3.65625 -5.0625 C 3.226562 -5.0625 2.851562 -4.960938 2.53125 -4.765625 C 2.21875 -4.566406 1.972656 -4.296875 1.796875 -3.953125 C 1.617188 -3.609375 1.53125 -3.222656 1.53125 -2.796875 C 1.53125 -2.378906 1.617188 -2 1.796875 -1.65625 C 1.972656 -1.320312 2.21875 -1.050781 2.53125 -0.84375 C 2.851562 -0.644531 3.226562 -0.546875 3.65625 -0.546875 Z M 3.65625 -0.546875 "/></g></g><g style="fill:#ffffff;fill-opacity:1;"><g transform="translate(74.325288, 166.741533)"><path style="stroke:none" d="M 1.078125 -4.375 C 1.078125 -4.851562 1.0625 -5.265625 1.03125 -5.609375 L 1.8125 -5.609375 C 1.84375 -5.210938 1.859375 -4.890625 1.859375 -4.640625 L 1.875 -4.640625 C 1.976562 -4.859375 2.128906 -5.046875 2.328125 -5.203125 C 2.535156 -5.367188 2.765625 -5.5 3.015625 -5.59375 C 3.273438 -5.695312 3.535156 -5.75 3.796875 -5.75 C 4.484375 -5.75 5.007812 -5.539062 5.375 -5.125 C 5.738281 -4.707031 5.921875 -4.144531 5.921875 -3.4375 L 5.921875 0 L 5.109375 0 L 5.109375 -3.09375 C 5.109375 -3.726562 4.992188 -4.210938 4.765625 -4.546875 C 4.535156 -4.890625 4.144531 -5.0625 3.59375 -5.0625 C 3.289062 -5.0625 3.007812 -4.976562 2.75 -4.8125 C 2.5 -4.65625 2.289062 -4.410156 2.125 -4.078125 C 1.96875 -3.753906 1.890625 -3.351562 1.890625 -2.875 L 1.890625 0 L 1.078125 0 Z M 1.078125 -4.375 "/></g></g><g style="fill:#ffffff;fill-opacity:1;"><g transform="translate(81.27876, 166.741533)"><path style="stroke:none" d="M 2.59375 0.140625 C 2.28125 0.140625 1.976562 0.0820312 1.6875 -0.03125 C 1.394531 -0.144531 1.148438 -0.328125 0.953125 -0.578125 C 0.753906 -0.835938 0.65625 -1.164062 0.65625 -1.5625 C 0.65625 -2.09375 0.828125 -2.492188 1.171875 -2.765625 C 1.523438 -3.046875 1.972656 -3.226562 2.515625 -3.3125 C 3.066406 -3.394531 3.75 -3.4375 4.5625 -3.4375 L 4.609375 -3.4375 L 4.609375 -3.609375 C 4.609375 -4.085938 4.476562 -4.445312 4.21875 -4.6875 C 3.96875 -4.9375 3.597656 -5.0625 3.109375 -5.0625 C 2.796875 -5.0625 2.488281 -5 2.1875 -4.875 C 1.894531 -4.757812 1.648438 -4.601562 1.453125 -4.40625 L 1 -4.9375 C 1.238281 -5.175781 1.546875 -5.367188 1.921875 -5.515625 C 2.304688 -5.671875 2.734375 -5.75 3.203125 -5.75 C 3.609375 -5.75 3.972656 -5.671875 4.296875 -5.515625 C 4.628906 -5.367188 4.890625 -5.140625 5.078125 -4.828125 C 5.273438 -4.523438 5.375 -4.148438 5.375 -3.703125 L 5.375 -1.25 C 5.375 -1.03125 5.378906 -0.804688 5.390625 -0.578125 C 5.410156 -0.347656 5.4375 -0.15625 5.46875 0 L 4.734375 0 C 4.679688 -0.320312 4.65625 -0.625 4.65625 -0.90625 L 4.625 -0.90625 C 4.375 -0.539062 4.085938 -0.273438 3.765625 -0.109375 C 3.441406 0.0546875 3.050781 0.140625 2.59375 0.140625 Z M 2.8125 -0.53125 C 3.175781 -0.53125 3.492188 -0.613281 3.765625 -0.78125 C 4.035156 -0.945312 4.242188 -1.171875 4.390625 -1.453125 C 4.535156 -1.734375 4.609375 -2.039062 4.609375 -2.375 L 4.609375 -2.796875 L 4.375 -2.796875 C 3.519531 -2.796875 2.828125 -2.710938 2.296875 -2.546875 C 1.765625 -2.390625 1.5 -2.070312 1.5 -1.59375 C 1.5 -1.226562 1.625 -0.957031 1.875 -0.78125 C 2.132812 -0.613281 2.445312 -0.53125 2.8125 -0.53125 Z M 2.8125 -0.53125 "/></g></g><g style="fill:#ffffff;fill-opacity:1;"><g transform="translate(87.669733, 166.741533)"><path style="stroke:none" d="M 1.921875 0 L 1.09375 0 L 1.09375 -9.046875 L 1.921875 -9.046875 Z M 1.921875 0 "/></g></g><g style="fill:#ffffff;fill-opacity:1;"><g transform="translate(90.6857, 166.741533)"><path style="stroke:none" d=""/></g></g><g style="fill:#ffffff;fill-opacity:1;"><g transform="translate(93.677732, 166.741533)"><path style="stroke:none" d="M 3.65625 0.140625 C 3.070312 0.140625 2.550781 0.015625 2.09375 -0.234375 C 1.632812 -0.492188 1.28125 -0.847656 1.03125 -1.296875 C 0.789062 -1.742188 0.671875 -2.242188 0.671875 -2.796875 C 0.671875 -3.359375 0.789062 -3.863281 1.03125 -4.3125 C 1.28125 -4.757812 1.632812 -5.109375 2.09375 -5.359375 C 2.550781 -5.617188 3.070312 -5.75 3.65625 -5.75 C 4.0625 -5.75 4.453125 -5.664062 4.828125 -5.5 C 5.203125 -5.332031 5.507812 -5.09375 5.75 -4.78125 L 5.109375 -4.328125 C 4.972656 -4.535156 4.773438 -4.707031 4.515625 -4.84375 C 4.253906 -4.988281 3.972656 -5.0625 3.671875 -5.0625 C 3.253906 -5.0625 2.878906 -4.960938 2.546875 -4.765625 C 2.222656 -4.566406 1.972656 -4.296875 1.796875 -3.953125 C 1.617188 -3.609375 1.53125 -3.222656 1.53125 -2.796875 C 1.53125 -2.378906 1.617188 -2 1.796875 -1.65625 C 1.972656 -1.3125 2.222656 -1.039062 2.546875 -0.84375 C 2.867188 -0.644531 3.238281 -0.546875 3.65625 -0.546875 C 4.300781 -0.546875 4.8125 -0.789062 5.1875 -1.28125 L 5.796875 -0.828125 C 5.265625 -0.179688 4.550781 0.140625 3.65625 0.140625 Z M 3.65625 0.140625 "/></g></g><g style="fill:#ffffff;fill-opacity:1;"><g transform="translate(99.661786, 166.741533)"><path style="stroke:none" d="M 3.65625 0.140625 C 3.082031 0.140625 2.566406 0.015625 2.109375 -0.234375 C 1.660156 -0.492188 1.304688 -0.847656 1.046875 -1.296875 C 0.796875 -1.742188 0.671875 -2.242188 0.671875 -2.796875 C 0.671875 -3.359375 0.796875 -3.863281 1.046875 -4.3125 C 1.304688 -4.757812 1.660156 -5.109375 2.109375 -5.359375 C 2.566406 -5.617188 3.082031 -5.75 3.65625 -5.75 C 4.226562 -5.75 4.738281 -5.617188 5.1875 -5.359375 C 5.644531 -5.109375 6 -4.757812 6.25 -4.3125 C 6.507812 -3.863281 6.640625 -3.359375 6.640625 -2.796875 C 6.640625 -2.242188 6.507812 -1.742188 6.25 -1.296875 C 6 -0.847656 5.644531 -0.492188 5.1875 -0.234375 C 4.738281 0.015625 4.226562 0.140625 3.65625 0.140625 Z M 3.65625 -0.546875 C 4.070312 -0.546875 4.441406 -0.644531 4.765625 -0.84375 C 5.085938 -1.050781 5.335938 -1.320312 5.515625 -1.65625 C 5.691406 -2 5.78125 -2.378906 5.78125 -2.796875 C 5.78125 -3.222656 5.691406 -3.609375 5.515625 -3.953125 C 5.335938 -4.296875 5.085938 -4.566406 4.765625 -4.765625 C 4.441406 -4.960938 4.070312 -5.0625 3.65625 -5.0625 C 3.226562 -5.0625 2.851562 -4.960938 2.53125 -4.765625 C 2.21875 -4.566406 1.972656 -4.296875 1.796875 -3.953125 C 1.617188 -3.609375 1.53125 -3.222656 1.53125 -2.796875 C 1.53125 -2.378906 1.617188 -2 1.796875 -1.65625 C 1.972656 -1.320312 2.21875 -1.050781 2.53125 -0.84375 C 2.851562 -0.644531 3.226562 -0.546875 3.65625 -0.546875 Z M 3.65625 -0.546875 "/></g></g><g style="fill:#ffffff;fill-opacity:1;"><g transform="translate(106.974297, 166.741533)"><path style="stroke:none" d="M 1.078125 -4.375 C 1.078125 -4.851562 1.0625 -5.265625 1.03125 -5.609375 L 1.8125 -5.609375 C 1.84375 -5.210938 1.859375 -4.890625 1.859375 -4.640625 L 1.875 -4.640625 C 1.976562 -4.859375 2.128906 -5.046875 2.328125 -5.203125 C 2.535156 -5.367188 2.765625 -5.5 3.015625 -5.59375 C 3.273438 -5.695312 3.535156 -5.75 3.796875 -5.75 C 4.484375 -5.75 5.007812 -5.539062 5.375 -5.125 C 5.738281 -4.707031 5.921875 -4.144531 5.921875 -3.4375 L 5.921875 0 L 5.109375 0 L 5.109375 -3.09375 C 5.109375 -3.726562 4.992188 -4.210938 4.765625 -4.546875 C 4.535156 -4.890625 4.144531 -5.0625 3.59375 -5.0625 C 3.289062 -5.0625 3.007812 -4.976562 2.75 -4.8125 C 2.5 -4.65625 2.289062 -4.410156 2.125 -4.078125 C 1.96875 -3.753906 1.890625 -3.351562 1.890625 -2.875 L 1.890625 0 L 1.078125 0 Z M 1.078125 -4.375 "/></g></g><g style="fill:#ffffff;fill-opacity:1;"><g transform="translate(113.92777, 166.741533)"><path style="stroke:none" d="M 1.078125 -4.375 C 1.078125 -4.851562 1.0625 -5.265625 1.03125 -5.609375 L 1.8125 -5.609375 C 1.84375 -5.210938 1.859375 -4.890625 1.859375 -4.640625 L 1.875 -4.640625 C 1.976562 -4.859375 2.128906 -5.046875 2.328125 -5.203125 C 2.535156 -5.367188 2.765625 -5.5 3.015625 -5.59375 C 3.273438 -5.695312 3.535156 -5.75 3.796875 -5.75 C 4.484375 -5.75 5.007812 -5.539062 5.375 -5.125 C 5.738281 -4.707031 5.921875 -4.144531 5.921875 -3.4375 L 5.921875 0 L 5.109375 0 L 5.109375 -3.09375 C 5.109375 -3.726562 4.992188 -4.210938 4.765625 -4.546875 C 4.535156 -4.890625 4.144531 -5.0625 3.59375 -5.0625 C 3.289062 -5.0625 3.007812 -4.976562 2.75 -4.8125 C 2.5 -4.65625 2.289062 -4.410156 2.125 -4.078125 C 1.96875 -3.753906 1.890625 -3.351562 1.890625 -2.875 L 1.890625 0 L 1.078125 0 Z M 1.078125 -4.375 "/></g></g><g style="fill:#ffffff;fill-opacity:1;"><g transform="translate(120.881242, 166.741533)"><path style="stroke:none" d="M 3.5625 0.140625 C 3.007812 0.140625 2.515625 0.015625 2.078125 -0.234375 C 1.640625 -0.492188 1.296875 -0.847656 1.046875 -1.296875 C 0.796875 -1.742188 0.671875 -2.242188 0.671875 -2.796875 C 0.671875 -3.347656 0.789062 -3.847656 1.03125 -4.296875 C 1.28125 -4.753906 1.617188 -5.109375 2.046875 -5.359375 C 2.484375 -5.617188 2.96875 -5.75 3.5 -5.75 C 4.0625 -5.75 4.539062 -5.625 4.9375 -5.375 C 5.34375 -5.132812 5.648438 -4.800781 5.859375 -4.375 C 6.066406 -3.957031 6.171875 -3.488281 6.171875 -2.96875 C 6.171875 -2.8125 6.164062 -2.679688 6.15625 -2.578125 L 1.515625 -2.578125 C 1.523438 -2.203125 1.617188 -1.859375 1.796875 -1.546875 C 1.984375 -1.242188 2.226562 -1 2.53125 -0.8125 C 2.84375 -0.632812 3.1875 -0.546875 3.5625 -0.546875 C 3.957031 -0.546875 4.3125 -0.640625 4.625 -0.828125 C 4.945312 -1.015625 5.191406 -1.242188 5.359375 -1.515625 L 5.96875 -1.046875 C 5.34375 -0.253906 4.539062 0.140625 3.5625 0.140625 Z M 5.34375 -3.234375 C 5.332031 -3.585938 5.253906 -3.898438 5.109375 -4.171875 C 4.960938 -4.453125 4.75 -4.671875 4.46875 -4.828125 C 4.195312 -4.984375 3.875 -5.0625 3.5 -5.0625 C 3.144531 -5.0625 2.820312 -4.976562 2.53125 -4.8125 C 2.238281 -4.644531 2.003906 -4.414062 1.828125 -4.125 C 1.648438 -3.84375 1.550781 -3.546875 1.53125 -3.234375 Z M 5.34375 -3.234375 "/></g></g><g style="fill:#ffffff;fill-opacity:1;"><g transform="translate(127.727003, 166.741533)"><path style="stroke:none" d="M 3.65625 0.140625 C 3.070312 0.140625 2.550781 0.015625 2.09375 -0.234375 C 1.632812 -0.492188 1.28125 -0.847656 1.03125 -1.296875 C 0.789062 -1.742188 0.671875 -2.242188 0.671875 -2.796875 C 0.671875 -3.359375 0.789062 -3.863281 1.03125 -4.3125 C 1.28125 -4.757812 1.632812 -5.109375 2.09375 -5.359375 C 2.550781 -5.617188 3.070312 -5.75 3.65625 -5.75 C 4.0625 -5.75 4.453125 -5.664062 4.828125 -5.5 C 5.203125 -5.332031 5.507812 -5.09375 5.75 -4.78125 L 5.109375 -4.328125 C 4.972656 -4.535156 4.773438 -4.707031 4.515625 -4.84375 C 4.253906 -4.988281 3.972656 -5.0625 3.671875 -5.0625 C 3.253906 -5.0625 2.878906 -4.960938 2.546875 -4.765625 C 2.222656 -4.566406 1.972656 -4.296875 1.796875 -3.953125 C 1.617188 -3.609375 1.53125 -3.222656 1.53125 -2.796875 C 1.53125 -2.378906 1.617188 -2 1.796875 -1.65625 C 1.972656 -1.3125 2.222656 -1.039062 2.546875 -0.84375 C 2.867188 -0.644531 3.238281 -0.546875 3.65625 -0.546875 C 4.300781 -0.546875 4.8125 -0.789062 5.1875 -1.28125 L 5.796875 -0.828125 C 5.265625 -0.179688 4.550781 0.140625 3.65625 0.140625 Z M 3.65625 0.140625 "/></g></g><g style="fill:#ffffff;fill-opacity:1;"><g transform="translate(133.711057, 166.741533)"><path style="stroke:none" d="M 2.640625 0.078125 C 2.265625 0.078125 1.929688 -0.03125 1.640625 -0.25 C 1.347656 -0.476562 1.203125 -0.867188 1.203125 -1.421875 L 1.203125 -4.9375 L 0.046875 -4.9375 L 0.046875 -5.609375 L 1.203125 -5.609375 L 1.203125 -7.1875 L 2.015625 -7.1875 L 2.015625 -5.609375 L 3.609375 -5.609375 L 3.609375 -4.9375 L 2.015625 -4.9375 L 2.015625 -1.65625 C 2.015625 -1.257812 2.085938 -0.988281 2.234375 -0.84375 C 2.378906 -0.695312 2.585938 -0.625 2.859375 -0.625 C 2.972656 -0.625 3.09375 -0.640625 3.21875 -0.671875 C 3.34375 -0.703125 3.457031 -0.742188 3.5625 -0.796875 L 3.609375 -0.09375 C 3.304688 0.0195312 2.984375 0.078125 2.640625 0.078125 Z M 2.640625 0.078125 "/></g></g><g style="fill:#ffffff;fill-opacity:1;"><g transform="translate(137.504944, 166.741533)"><path style="stroke:none" d="M 1.5 -7.1875 C 1.34375 -7.1875 1.207031 -7.238281 1.09375 -7.34375 C 0.976562 -7.457031 0.921875 -7.59375 0.921875 -7.75 C 0.921875 -7.914062 0.976562 -8.050781 1.09375 -8.15625 C 1.207031 -8.269531 1.34375 -8.328125 1.5 -8.328125 C 1.644531 -8.328125 1.773438 -8.269531 1.890625 -8.15625 C 2.015625 -8.050781 2.078125 -7.914062 2.078125 -7.75 C 2.078125 -7.59375 2.015625 -7.457031 1.890625 -7.34375 C 1.773438 -7.238281 1.644531 -7.1875 1.5 -7.1875 Z M 1.90625 0 L 1.09375 0 L 1.09375 -5.609375 L 1.90625 -5.609375 Z M 1.90625 0 "/></g></g><g style="fill:#ffffff;fill-opacity:1;"><g transform="translate(140.496977, 166.741533)"><path style="stroke:none" d="M 3.65625 0.140625 C 3.082031 0.140625 2.566406 0.015625 2.109375 -0.234375 C 1.660156 -0.492188 1.304688 -0.847656 1.046875 -1.296875 C 0.796875 -1.742188 0.671875 -2.242188 0.671875 -2.796875 C 0.671875 -3.359375 0.796875 -3.863281 1.046875 -4.3125 C 1.304688 -4.757812 1.660156 -5.109375 2.109375 -5.359375 C 2.566406 -5.617188 3.082031 -5.75 3.65625 -5.75 C 4.226562 -5.75 4.738281 -5.617188 5.1875 -5.359375 C 5.644531 -5.109375 6 -4.757812 6.25 -4.3125 C 6.507812 -3.863281 6.640625 -3.359375 6.640625 -2.796875 C 6.640625 -2.242188 6.507812 -1.742188 6.25 -1.296875 C 6 -0.847656 5.644531 -0.492188 5.1875 -0.234375 C 4.738281 0.015625 4.226562 0.140625 3.65625 0.140625 Z M 3.65625 -0.546875 C 4.070312 -0.546875 4.441406 -0.644531 4.765625 -0.84375 C 5.085938 -1.050781 5.335938 -1.320312 5.515625 -1.65625 C 5.691406 -2 5.78125 -2.378906 5.78125 -2.796875 C 5.78125 -3.222656 5.691406 -3.609375 5.515625 -3.953125 C 5.335938 -4.296875 5.085938 -4.566406 4.765625 -4.765625 C 4.441406 -4.960938 4.070312 -5.0625 3.65625 -5.0625 C 3.226562 -5.0625 2.851562 -4.960938 2.53125 -4.765625 C 2.21875 -4.566406 1.972656 -4.296875 1.796875 -3.953125 C 1.617188 -3.609375 1.53125 -3.222656 1.53125 -2.796875 C 1.53125 -2.378906 1.617188 -2 1.796875 -1.65625 C 1.972656 -1.320312 2.21875 -1.050781 2.53125 -0.84375 C 2.851562 -0.644531 3.226562 -0.546875 3.65625 -0.546875 Z M 3.65625 -0.546875 "/></g></g><g style="fill:#ffffff;fill-opacity:1;"><g transform="translate(147.809488, 166.741533)"><path style="stroke:none" d="M 1.078125 -4.375 C 1.078125 -4.851562 1.0625 -5.265625 1.03125 -5.609375 L 1.8125 -5.609375 C 1.84375 -5.210938 1.859375 -4.890625 1.859375 -4.640625 L 1.875 -4.640625 C 1.976562 -4.859375 2.128906 -5.046875 2.328125 -5.203125 C 2.535156 -5.367188 2.765625 -5.5 3.015625 -5.59375 C 3.273438 -5.695312 3.535156 -5.75 3.796875 -5.75 C 4.484375 -5.75 5.007812 -5.539062 5.375 -5.125 C 5.738281 -4.707031 5.921875 -4.144531 5.921875 -3.4375 L 5.921875 0 L 5.109375 0 L 5.109375 -3.09375 C 5.109375 -3.726562 4.992188 -4.210938 4.765625 -4.546875 C 4.535156 -4.890625 4.144531 -5.0625 3.59375 -5.0625 C 3.289062 -5.0625 3.007812 -4.976562 2.75 -4.8125 C 2.5 -4.65625 2.289062 -4.410156 2.125 -4.078125 C 1.96875 -3.753906 1.890625 -3.351562 1.890625 -2.875 L 1.890625 0 L 1.078125 0 Z M 1.078125 -4.375 "/></g></g><g style="fill:#ffffff;fill-opacity:1;"><g transform="translate(154.76296, 166.741533)"><path style="stroke:none" d="M 2.671875 0.140625 C 2.222656 0.140625 1.800781 0.0507812 1.40625 -0.125 C 1.019531 -0.3125 0.703125 -0.585938 0.453125 -0.953125 L 1.09375 -1.421875 C 1.25 -1.171875 1.46875 -0.960938 1.75 -0.796875 C 2.03125 -0.628906 2.332031 -0.546875 2.65625 -0.546875 C 3.039062 -0.546875 3.351562 -0.625 3.59375 -0.78125 C 3.84375 -0.9375 3.96875 -1.1875 3.96875 -1.53125 C 3.96875 -1.71875 3.90625 -1.875 3.78125 -2 C 3.664062 -2.132812 3.488281 -2.25 3.25 -2.34375 C 3.019531 -2.4375 2.710938 -2.523438 2.328125 -2.609375 C 2.035156 -2.679688 1.773438 -2.765625 1.546875 -2.859375 C 1.316406 -2.960938 1.117188 -3.113281 0.953125 -3.3125 C 0.796875 -3.519531 0.71875 -3.789062 0.71875 -4.125 C 0.71875 -4.476562 0.804688 -4.773438 0.984375 -5.015625 C 1.171875 -5.265625 1.414062 -5.445312 1.71875 -5.5625 C 2.019531 -5.6875 2.351562 -5.75 2.71875 -5.75 C 3.113281 -5.75 3.492188 -5.65625 3.859375 -5.46875 C 4.234375 -5.289062 4.507812 -5.046875 4.6875 -4.734375 L 4.0625 -4.265625 C 3.9375 -4.503906 3.75 -4.695312 3.5 -4.84375 C 3.257812 -4.988281 2.988281 -5.0625 2.6875 -5.0625 C 2.351562 -5.0625 2.070312 -4.988281 1.84375 -4.84375 C 1.613281 -4.695312 1.5 -4.476562 1.5 -4.1875 C 1.5 -3.9375 1.601562 -3.738281 1.8125 -3.59375 C 2.019531 -3.445312 2.363281 -3.328125 2.84375 -3.234375 C 3.5 -3.097656 3.984375 -2.894531 4.296875 -2.625 C 4.617188 -2.363281 4.78125 -2.019531 4.78125 -1.59375 C 4.78125 -1.1875 4.675781 -0.851562 4.46875 -0.59375 C 4.269531 -0.332031 4.007812 -0.144531 3.6875 -0.03125 C 3.375 0.0820312 3.035156 0.140625 2.671875 0.140625 Z M 2.671875 0.140625 "/></g></g><g style="fill:#ffffff;fill-opacity:1;"><g transform="translate(160.076804, 166.741533)"><path style="stroke:none" d="M 1.5625 0.078125 C 1.375 0.078125 1.21875 0.015625 1.09375 -0.109375 C 0.96875 -0.242188 0.90625 -0.398438 0.90625 -0.578125 C 0.90625 -0.753906 0.96875 -0.90625 1.09375 -1.03125 C 1.21875 -1.15625 1.375 -1.21875 1.5625 -1.21875 C 1.738281 -1.21875 1.890625 -1.15625 2.015625 -1.03125 C 2.140625 -0.90625 2.203125 -0.753906 2.203125 -0.578125 C 2.203125 -0.398438 2.140625 -0.242188 2.015625 -0.109375 C 1.890625 0.015625 1.738281 0.078125 1.5625 0.078125 Z M 1.5625 0.078125 "/></g></g></g></svg>