<svg xmlns="http://www.w3.org/2000/svg" xmlns:xlink="http://www.w3.org/1999/xlink" width="250" zoomAndPan="magnify" viewBox="0 0 187.5 187.499992" height="250" preserveAspectRatio="xMidYMid meet" version="1.2"><defs><clipPath id="1e18414933"><path d="M 91 11.394531 L 95 11.394531 L 95 28 L 91 28 Z M 91 11.394531 "/></clipPath><clipPath id="7b50812c81"><path d="M 42.207031 54 L 59 54 L 59 58 L 42.207031 58 Z M 42.207031 54 "/></clipPath><clipPath id="1beb0fde99"><path d="M 128 53 L 144.6875 53 L 144.6875 57 L 128 57 Z M 128 53 "/></clipPath><clipPath id="bcd8571e69"><path d="M 88 97 L 98 97 L 98 101.152344 L 88 101.152344 Z M 88 97 "/></clipPath></defs><g id="ea854cfb8a"><path style=" stroke:none;fill-rule:nonzero;fill:#ffffff;fill-opacity:1;" d="M 0 0 L 187 0 L 187 187 L 0 187 Z M 0 0 "/><path style=" stroke:none;fill-rule:nonzero;fill:#052a47;fill-opacity:1;" d="M 0 0 L 187 0 L 187 187 L 0 187 Z M 0 0 "/><path style=" stroke:none;fill-rule:nonzero;fill:#ffffff;fill-opacity:1;" d="M 93.5 32.566406 C 92.511719 32.566406 91.523438 32.617188 90.539062 32.714844 C 89.554688 32.8125 88.578125 32.960938 87.609375 33.152344 C 86.640625 33.347656 85.683594 33.589844 84.738281 33.878906 C 83.792969 34.167969 82.863281 34.5 81.949219 34.882812 C 81.035156 35.261719 80.144531 35.6875 79.273438 36.152344 C 78.402344 36.621094 77.554688 37.132812 76.734375 37.683594 C 75.914062 38.234375 75.121094 38.824219 74.359375 39.453125 C 73.597656 40.082031 72.867188 40.746094 72.167969 41.449219 C 71.472656 42.148438 70.808594 42.882812 70.183594 43.648438 C 69.558594 44.414062 68.972656 45.210938 68.425781 46.035156 C 67.878906 46.859375 67.375 47.707031 66.910156 48.582031 C 66.449219 49.453125 66.027344 50.347656 65.652344 51.261719 C 65.277344 52.179688 64.949219 53.109375 64.664062 54.054688 C 64.378906 55.003906 64.144531 55.960938 63.953125 56.933594 C 63.765625 57.902344 63.625 58.882812 63.53125 59.867188 C 63.4375 60.851562 63.394531 61.835938 63.398438 62.824219 C 63.433594 63.03125 63.507812 63.226562 63.613281 63.410156 C 63.71875 63.589844 63.851562 63.75 64.011719 63.886719 C 64.171875 64.019531 64.351562 64.125 64.550781 64.199219 C 64.746094 64.273438 64.949219 64.3125 65.160156 64.316406 L 121.839844 64.316406 C 122.050781 64.3125 122.253906 64.273438 122.449219 64.199219 C 122.648438 64.125 122.828125 64.019531 122.988281 63.886719 C 123.148438 63.75 123.28125 63.589844 123.386719 63.410156 C 123.492188 63.226562 123.566406 63.03125 123.601562 62.824219 C 123.605469 61.835938 123.5625 60.851562 123.46875 59.867188 C 123.375 58.882812 123.234375 57.902344 123.046875 56.933594 C 122.855469 55.960938 122.621094 55.003906 122.335938 54.054688 C 122.050781 53.109375 121.722656 52.179688 121.347656 51.261719 C 120.972656 50.347656 120.550781 49.453125 120.089844 48.582031 C 119.625 47.707031 119.121094 46.859375 118.574219 46.035156 C 118.027344 45.210938 117.441406 44.414062 116.816406 43.648438 C 116.191406 42.882812 115.527344 42.148438 114.832031 41.449219 C 114.132812 40.746094 113.402344 40.082031 112.640625 39.453125 C 111.878906 38.824219 111.085938 38.234375 110.265625 37.683594 C 109.445312 37.132812 108.597656 36.621094 107.726562 36.152344 C 106.855469 35.6875 105.964844 35.261719 105.050781 34.882812 C 104.136719 34.5 103.207031 34.167969 102.261719 33.878906 C 101.316406 33.589844 100.359375 33.347656 99.390625 33.152344 C 98.417969 32.960938 97.441406 32.8125 96.460938 32.714844 C 95.476562 32.617188 94.488281 32.566406 93.5 32.566406 Z M 93.5 36.230469 C 94.324219 36.234375 95.144531 36.277344 95.964844 36.355469 C 96.785156 36.433594 97.597656 36.550781 98.40625 36.707031 C 99.214844 36.863281 100.015625 37.054688 100.804688 37.285156 C 101.59375 37.511719 102.375 37.777344 103.140625 38.082031 C 103.90625 38.382812 104.65625 38.71875 105.390625 39.089844 C 106.125 39.460938 106.839844 39.867188 107.539062 40.304688 C 108.234375 40.742188 108.910156 41.210938 109.566406 41.710938 C 110.21875 42.210938 110.847656 42.742188 111.453125 43.300781 C 112.054688 43.859375 112.632812 44.445312 113.183594 45.058594 C 113.734375 45.671875 114.253906 46.308594 114.742188 46.96875 C 115.234375 47.628906 115.695312 48.3125 116.121094 49.015625 C 116.546875 49.71875 116.941406 50.441406 117.300781 51.183594 C 117.664062 51.921875 117.988281 52.675781 118.277344 53.449219 C 118.566406 54.21875 118.820312 55 119.039062 55.792969 C 119.257812 56.589844 119.4375 57.390625 119.578125 58.203125 C 119.722656 59.011719 119.828125 59.828125 119.894531 60.648438 L 67.105469 60.648438 C 67.171875 59.828125 67.277344 59.011719 67.417969 58.203125 C 67.5625 57.390625 67.742188 56.589844 67.960938 55.792969 C 68.175781 55 68.429688 54.21875 68.722656 53.449219 C 69.011719 52.675781 69.335938 51.921875 69.695312 51.183594 C 70.058594 50.441406 70.453125 49.71875 70.878906 49.015625 C 71.304688 48.3125 71.765625 47.628906 72.253906 46.96875 C 72.746094 46.308594 73.265625 45.671875 73.816406 45.058594 C 74.367188 44.445312 74.945312 43.859375 75.546875 43.300781 C 76.152344 42.742188 76.78125 42.210938 77.433594 41.710938 C 78.089844 41.210938 78.765625 40.742188 79.460938 40.304688 C 80.160156 39.867188 80.875 39.460938 81.609375 39.089844 C 82.34375 38.71875 83.09375 38.382812 83.859375 38.082031 C 84.625 37.777344 85.40625 37.511719 86.195312 37.285156 C 86.984375 37.054688 87.785156 36.863281 88.59375 36.707031 C 89.402344 36.550781 90.214844 36.433594 91.035156 36.355469 C 91.855469 36.277344 92.675781 36.234375 93.5 36.230469 Z M 93.5 36.230469 "/><g clip-rule="nonzero" clip-path="url(#1e18414933)"><path style=" stroke:none;fill-rule:nonzero;fill:#ffffff;fill-opacity:1;" d="M 92.988281 27.597656 C 93.230469 27.597656 93.464844 27.550781 93.6875 27.457031 C 93.914062 27.363281 94.113281 27.234375 94.285156 27.0625 C 94.457031 26.890625 94.585938 26.691406 94.679688 26.464844 C 94.773438 26.242188 94.820312 26.007812 94.820312 25.765625 L 94.820312 13.246094 C 94.820312 13 94.773438 12.765625 94.679688 12.542969 C 94.585938 12.316406 94.453125 12.121094 94.28125 11.949219 C 94.109375 11.777344 93.914062 11.644531 93.6875 11.550781 C 93.464844 11.457031 93.230469 11.410156 92.988281 11.410156 C 92.742188 11.410156 92.511719 11.457031 92.285156 11.550781 C 92.0625 11.644531 91.863281 11.777344 91.691406 11.949219 C 91.519531 12.121094 91.386719 12.316406 91.292969 12.542969 C 91.199219 12.765625 91.152344 13 91.152344 13.246094 L 91.152344 25.765625 C 91.152344 26.007812 91.199219 26.242188 91.292969 26.464844 C 91.386719 26.691406 91.519531 26.890625 91.691406 27.0625 C 91.863281 27.234375 92.0625 27.363281 92.285156 27.457031 C 92.511719 27.550781 92.742188 27.597656 92.988281 27.597656 Z M 92.988281 27.597656 "/></g><path style=" stroke:none;fill-rule:nonzero;fill:#ffffff;fill-opacity:1;" d="M 65.699219 38.253906 C 65.871094 38.417969 66.070312 38.546875 66.292969 38.636719 C 66.515625 38.722656 66.746094 38.765625 66.984375 38.765625 C 67.226562 38.761719 67.457031 38.714844 67.679688 38.621094 C 67.898438 38.527344 68.09375 38.398438 68.265625 38.226562 C 68.433594 38.058594 68.566406 37.863281 68.660156 37.640625 C 68.75 37.417969 68.800781 37.1875 68.800781 36.949219 C 68.804688 36.707031 68.761719 36.476562 68.671875 36.253906 C 68.582031 36.03125 68.457031 35.832031 68.289062 35.660156 L 59.4375 26.808594 C 59.261719 26.640625 59.066406 26.515625 58.84375 26.425781 C 58.621094 26.335938 58.386719 26.292969 58.148438 26.296875 C 57.90625 26.296875 57.675781 26.347656 57.457031 26.4375 C 57.234375 26.53125 57.039062 26.664062 56.871094 26.832031 C 56.699219 27.003906 56.570312 27.199219 56.476562 27.417969 C 56.382812 27.640625 56.335938 27.871094 56.332031 28.113281 C 56.332031 28.351562 56.375 28.582031 56.460938 28.804688 C 56.550781 29.03125 56.679688 29.226562 56.84375 29.398438 Z M 65.699219 38.253906 "/><g clip-rule="nonzero" clip-path="url(#7b50812c81)"><path style=" stroke:none;fill-rule:nonzero;fill:#ffffff;fill-opacity:1;" d="M 56.527344 54.085938 L 44.007812 54.085938 C 43.765625 54.089844 43.535156 54.140625 43.316406 54.234375 C 43.09375 54.332031 42.902344 54.464844 42.734375 54.636719 C 42.566406 54.808594 42.4375 55.003906 42.34375 55.226562 C 42.253906 55.449219 42.210938 55.679688 42.210938 55.917969 C 42.210938 56.160156 42.253906 56.390625 42.34375 56.613281 C 42.4375 56.835938 42.566406 57.03125 42.734375 57.203125 C 42.902344 57.375 43.097656 57.507812 43.316406 57.601562 C 43.535156 57.699219 43.765625 57.746094 44.007812 57.753906 L 56.527344 57.753906 C 56.765625 57.746094 56.996094 57.699219 57.21875 57.601562 C 57.4375 57.507812 57.632812 57.375 57.800781 57.203125 C 57.96875 57.03125 58.097656 56.835938 58.1875 56.613281 C 58.277344 56.390625 58.324219 56.160156 58.324219 55.917969 C 58.324219 55.679688 58.277344 55.449219 58.1875 55.226562 C 58.097656 55.003906 57.96875 54.808594 57.800781 54.636719 C 57.632812 54.464844 57.4375 54.332031 57.21875 54.234375 C 56.996094 54.140625 56.765625 54.089844 56.527344 54.085938 Z M 56.527344 54.085938 "/></g><g clip-rule="nonzero" clip-path="url(#1beb0fde99)"><path style=" stroke:none;fill-rule:nonzero;fill:#ffffff;fill-opacity:1;" d="M 142.992188 53.058594 L 130.472656 53.058594 C 130.234375 53.066406 130.003906 53.113281 129.78125 53.210938 C 129.5625 53.304688 129.367188 53.4375 129.199219 53.609375 C 129.03125 53.78125 128.902344 53.976562 128.8125 54.199219 C 128.722656 54.421875 128.675781 54.652344 128.675781 54.894531 C 128.675781 55.132812 128.722656 55.363281 128.8125 55.585938 C 128.902344 55.808594 129.03125 56.003906 129.199219 56.175781 C 129.367188 56.347656 129.5625 56.480469 129.78125 56.578125 C 130.003906 56.671875 130.234375 56.722656 130.472656 56.726562 L 142.992188 56.726562 C 143.234375 56.722656 143.464844 56.671875 143.683594 56.578125 C 143.902344 56.480469 144.097656 56.347656 144.265625 56.175781 C 144.433594 56.003906 144.5625 55.808594 144.65625 55.585938 C 144.746094 55.363281 144.789062 55.132812 144.789062 54.894531 C 144.789062 54.652344 144.746094 54.421875 144.65625 54.199219 C 144.5625 53.976562 144.433594 53.78125 144.265625 53.609375 C 144.097656 53.4375 143.902344 53.304688 143.683594 53.210938 C 143.464844 53.113281 143.234375 53.066406 142.992188 53.058594 Z M 142.992188 53.058594 "/></g><path style=" stroke:none;fill-rule:nonzero;fill:#ffffff;fill-opacity:1;" d="M 119.28125 38.0625 C 119.789062 38.066406 120.21875 37.886719 120.578125 37.527344 L 129.429688 28.675781 C 129.597656 28.503906 129.722656 28.304688 129.8125 28.082031 C 129.902344 27.859375 129.945312 27.625 129.941406 27.386719 C 129.941406 27.144531 129.890625 26.914062 129.800781 26.695312 C 129.707031 26.472656 129.574219 26.277344 129.40625 26.109375 C 129.234375 25.9375 129.039062 25.808594 128.820312 25.714844 C 128.597656 25.621094 128.367188 25.574219 128.125 25.570312 C 127.886719 25.570312 127.65625 25.613281 127.433594 25.699219 C 127.210938 25.789062 127.011719 25.917969 126.839844 26.082031 L 117.984375 34.933594 C 117.730469 35.199219 117.566406 35.511719 117.5 35.875 C 117.429688 36.234375 117.464844 36.585938 117.605469 36.925781 C 117.746094 37.265625 117.96875 37.539062 118.273438 37.746094 C 118.578125 37.953125 118.914062 38.058594 119.28125 38.0625 Z M 119.28125 38.0625 "/><path style=" stroke:none;fill-rule:nonzero;fill:#ffffff;fill-opacity:1;" d="M 106.988281 30.039062 C 107.257812 30.035156 107.515625 29.980469 107.765625 29.875 C 108.011719 29.769531 108.230469 29.621094 108.421875 29.429688 C 108.609375 29.234375 108.753906 29.015625 108.855469 28.765625 C 108.960938 28.515625 109.011719 28.257812 109.011719 27.988281 C 109.011719 27.71875 108.960938 27.460938 108.855469 27.210938 C 108.753906 26.960938 108.609375 26.742188 108.421875 26.550781 C 108.230469 26.359375 108.011719 26.207031 107.765625 26.101562 C 107.515625 25.996094 107.257812 25.941406 106.988281 25.9375 C 106.71875 25.941406 106.460938 25.996094 106.214844 26.101562 C 105.964844 26.207031 105.746094 26.359375 105.558594 26.550781 C 105.371094 26.742188 105.222656 26.960938 105.121094 27.210938 C 105.019531 27.460938 104.96875 27.71875 104.96875 27.988281 C 104.96875 28.257812 105.019531 28.515625 105.121094 28.765625 C 105.222656 29.015625 105.371094 29.234375 105.558594 29.429688 C 105.75 29.621094 105.964844 29.769531 106.214844 29.875 C 106.460938 29.980469 106.71875 30.035156 106.988281 30.039062 Z M 106.988281 30.039062 "/><path style=" stroke:none;fill-rule:nonzero;fill:#ffffff;fill-opacity:1;" d="M 79.917969 30.078125 C 80.101562 29.882812 80.246094 29.664062 80.34375 29.414062 C 80.445312 29.164062 80.492188 28.90625 80.488281 28.636719 C 80.488281 28.367188 80.433594 28.109375 80.328125 27.863281 C 80.226562 27.613281 80.078125 27.394531 79.890625 27.207031 C 79.699219 27.015625 79.480469 26.867188 79.234375 26.765625 C 78.984375 26.660156 78.726562 26.609375 78.457031 26.605469 C 78.191406 26.601562 77.929688 26.652344 77.679688 26.75 C 77.433594 26.847656 77.210938 26.992188 77.015625 27.179688 C 76.832031 27.371094 76.6875 27.59375 76.589844 27.84375 C 76.488281 28.09375 76.441406 28.351562 76.445312 28.621094 C 76.445312 28.886719 76.5 29.144531 76.605469 29.394531 C 76.707031 29.640625 76.855469 29.859375 77.042969 30.050781 C 77.234375 30.238281 77.453125 30.386719 77.699219 30.492188 C 77.949219 30.59375 78.207031 30.648438 78.476562 30.652344 C 78.742188 30.652344 79.003906 30.605469 79.253906 30.503906 C 79.5 30.40625 79.722656 30.265625 79.917969 30.078125 Z M 79.917969 30.078125 "/><path style=" stroke:none;fill-rule:nonzero;fill:#ffffff;fill-opacity:1;" d="M 58.75 47.199219 C 58.480469 47.203125 58.222656 47.257812 57.976562 47.363281 C 57.726562 47.46875 57.507812 47.617188 57.320312 47.808594 C 57.132812 48 56.984375 48.222656 56.882812 48.472656 C 56.78125 48.71875 56.730469 48.980469 56.730469 49.25 C 56.730469 49.519531 56.78125 49.777344 56.882812 50.027344 C 56.984375 50.273438 57.132812 50.496094 57.320312 50.6875 C 57.507812 50.878906 57.726562 51.027344 57.976562 51.132812 C 58.222656 51.238281 58.480469 51.292969 58.75 51.296875 C 59.019531 51.292969 59.277344 51.238281 59.527344 51.132812 C 59.773438 51.027344 59.992188 50.878906 60.179688 50.6875 C 60.371094 50.496094 60.515625 50.273438 60.617188 50.027344 C 60.71875 49.777344 60.769531 49.519531 60.769531 49.25 C 60.769531 48.980469 60.71875 48.71875 60.617188 48.472656 C 60.515625 48.222656 60.371094 48 60.179688 47.808594 C 59.992188 47.617188 59.773438 47.46875 59.527344 47.363281 C 59.277344 47.257812 59.019531 47.203125 58.75 47.199219 Z M 58.75 47.199219 "/><path style=" stroke:none;fill-rule:nonzero;fill:#ffffff;fill-opacity:1;" d="M 129.058594 46.257812 C 128.867188 46.070312 128.644531 45.925781 128.394531 45.828125 C 128.144531 45.730469 127.886719 45.679688 127.617188 45.683594 C 127.351562 45.683594 127.09375 45.738281 126.84375 45.84375 C 126.597656 45.945312 126.378906 46.09375 126.1875 46.285156 C 126 46.472656 125.851562 46.691406 125.746094 46.941406 C 125.644531 47.1875 125.589844 47.445312 125.585938 47.714844 C 125.585938 47.980469 125.632812 48.242188 125.734375 48.492188 C 125.832031 48.738281 125.976562 48.960938 126.160156 49.15625 C 126.355469 49.339844 126.574219 49.484375 126.824219 49.582031 C 127.074219 49.683594 127.332031 49.730469 127.601562 49.726562 C 127.871094 49.726562 128.128906 49.671875 128.375 49.570312 C 128.625 49.464844 128.84375 49.316406 129.03125 49.128906 C 129.222656 48.9375 129.371094 48.71875 129.472656 48.472656 C 129.578125 48.222656 129.628906 47.964844 129.632812 47.699219 C 129.636719 47.429688 129.585938 47.171875 129.488281 46.921875 C 129.390625 46.671875 129.246094 46.449219 129.058594 46.257812 Z M 129.058594 46.257812 "/><path style=" stroke:none;fill-rule:nonzero;fill:#ffffff;fill-opacity:1;" d="M 121.765625 68.15625 L 64.90625 68.15625 C 64.667969 68.160156 64.433594 68.210938 64.214844 68.304688 C 63.992188 68.398438 63.796875 68.53125 63.628906 68.703125 C 63.460938 68.875 63.328125 69.070312 63.238281 69.292969 C 63.148438 69.515625 63.101562 69.75 63.101562 69.988281 C 63.101562 70.230469 63.148438 70.460938 63.238281 70.683594 C 63.328125 70.90625 63.460938 71.105469 63.628906 71.277344 C 63.796875 71.449219 63.992188 71.582031 64.214844 71.675781 C 64.433594 71.769531 64.667969 71.820312 64.90625 71.824219 L 121.765625 71.824219 C 122.003906 71.820312 122.238281 71.769531 122.457031 71.675781 C 122.679688 71.582031 122.875 71.449219 123.042969 71.277344 C 123.210938 71.105469 123.34375 70.90625 123.433594 70.683594 C 123.523438 70.460938 123.570312 70.230469 123.570312 69.988281 C 123.570312 69.75 123.523438 69.515625 123.433594 69.292969 C 123.34375 69.070312 123.210938 68.875 123.042969 68.703125 C 122.875 68.53125 122.679688 68.398438 122.457031 68.304688 C 122.238281 68.210938 122.003906 68.160156 121.765625 68.15625 Z M 121.765625 68.15625 "/><path style=" stroke:none;fill-rule:nonzero;fill:#ffffff;fill-opacity:1;" d="M 115.285156 75.519531 L 71.386719 75.519531 C 71.148438 75.527344 70.917969 75.574219 70.699219 75.671875 C 70.476562 75.765625 70.285156 75.898438 70.117188 76.070312 C 69.949219 76.242188 69.816406 76.4375 69.726562 76.660156 C 69.636719 76.882812 69.589844 77.113281 69.589844 77.355469 C 69.589844 77.59375 69.636719 77.824219 69.726562 78.046875 C 69.816406 78.269531 69.949219 78.464844 70.117188 78.636719 C 70.285156 78.808594 70.476562 78.941406 70.699219 79.039062 C 70.917969 79.132812 71.148438 79.183594 71.386719 79.1875 L 115.285156 79.1875 C 115.523438 79.183594 115.753906 79.132812 115.972656 79.039062 C 116.195312 78.941406 116.386719 78.808594 116.554688 78.636719 C 116.722656 78.464844 116.855469 78.269531 116.945312 78.046875 C 117.035156 77.824219 117.082031 77.59375 117.082031 77.355469 C 117.082031 77.113281 117.035156 76.882812 116.945312 76.660156 C 116.855469 76.4375 116.722656 76.242188 116.554688 76.070312 C 116.386719 75.898438 116.195312 75.765625 115.972656 75.671875 C 115.753906 75.574219 115.523438 75.527344 115.285156 75.519531 Z M 115.285156 75.519531 "/><path style=" stroke:none;fill-rule:nonzero;fill:#ffffff;fill-opacity:1;" d="M 108.359375 82.886719 L 78.457031 82.886719 C 78.21875 82.890625 77.988281 82.941406 77.769531 83.035156 C 77.546875 83.128906 77.355469 83.265625 77.1875 83.433594 C 77.019531 83.605469 76.886719 83.804688 76.796875 84.027344 C 76.707031 84.246094 76.660156 84.480469 76.660156 84.71875 C 76.660156 84.957031 76.707031 85.191406 76.796875 85.410156 C 76.886719 85.632812 77.019531 85.832031 77.1875 86.003906 C 77.355469 86.171875 77.546875 86.308594 77.769531 86.402344 C 77.988281 86.496094 78.21875 86.546875 78.457031 86.550781 L 108.359375 86.550781 C 108.601562 86.546875 108.832031 86.496094 109.050781 86.402344 C 109.269531 86.308594 109.464844 86.171875 109.632812 86.003906 C 109.800781 85.832031 109.929688 85.632812 110.019531 85.410156 C 110.113281 85.191406 110.15625 84.957031 110.15625 84.71875 C 110.15625 84.480469 110.113281 84.246094 110.019531 84.027344 C 109.929688 83.804688 109.800781 83.605469 109.632812 83.433594 C 109.464844 83.265625 109.269531 83.128906 109.050781 83.035156 C 108.832031 82.941406 108.601562 82.890625 108.359375 82.886719 Z M 108.359375 82.886719 "/><path style=" stroke:none;fill-rule:nonzero;fill:#ffffff;fill-opacity:1;" d="M 100.703125 90.300781 L 85.972656 90.300781 C 85.730469 90.304688 85.5 90.355469 85.28125 90.449219 C 85.058594 90.546875 84.867188 90.679688 84.699219 90.851562 C 84.53125 91.019531 84.402344 91.21875 84.308594 91.441406 C 84.21875 91.664062 84.171875 91.894531 84.171875 92.132812 C 84.171875 92.375 84.21875 92.605469 84.308594 92.828125 C 84.402344 93.050781 84.53125 93.246094 84.699219 93.417969 C 84.867188 93.589844 85.0625 93.722656 85.28125 93.816406 C 85.5 93.910156 85.730469 93.960938 85.972656 93.964844 L 100.703125 93.964844 C 100.941406 93.960938 101.171875 93.910156 101.390625 93.816406 C 101.613281 93.722656 101.804688 93.589844 101.972656 93.417969 C 102.140625 93.246094 102.273438 93.046875 102.363281 92.828125 C 102.453125 92.605469 102.5 92.375 102.5 92.132812 C 102.5 91.894531 102.453125 91.664062 102.363281 91.441406 C 102.273438 91.21875 102.140625 91.019531 101.972656 90.851562 C 101.804688 90.679688 101.613281 90.546875 101.390625 90.449219 C 101.171875 90.355469 100.941406 90.304688 100.703125 90.300781 Z M 100.703125 90.300781 "/><g clip-rule="nonzero" clip-path="url(#bcd8571e69)"><path style=" stroke:none;fill-rule:nonzero;fill:#ffffff;fill-opacity:1;" d="M 96.183594 97.46875 L 90.488281 97.46875 C 90.246094 97.472656 90.019531 97.523438 89.796875 97.621094 C 89.578125 97.714844 89.382812 97.847656 89.214844 98.019531 C 89.046875 98.191406 88.917969 98.386719 88.824219 98.609375 C 88.734375 98.832031 88.691406 99.0625 88.691406 99.304688 C 88.691406 99.542969 88.734375 99.773438 88.824219 99.996094 C 88.917969 100.21875 89.046875 100.414062 89.214844 100.585938 C 89.382812 100.757812 89.578125 100.890625 89.796875 100.988281 C 90.019531 101.082031 90.246094 101.132812 90.488281 101.136719 L 96.183594 101.136719 C 96.425781 101.132812 96.652344 101.082031 96.875 100.984375 C 97.09375 100.890625 97.289062 100.757812 97.457031 100.585938 C 97.625 100.414062 97.753906 100.21875 97.84375 99.996094 C 97.9375 99.773438 97.980469 99.542969 97.980469 99.304688 C 97.980469 99.0625 97.9375 98.832031 97.84375 98.609375 C 97.753906 98.386719 97.625 98.191406 97.457031 98.019531 C 97.289062 97.847656 97.09375 97.714844 96.875 97.621094 C 96.652344 97.523438 96.425781 97.472656 96.183594 97.46875 Z M 96.183594 97.46875 "/></g><g style="fill:#ffffff;fill-opacity:1;"><g transform="translate(45.406262, 130.229235)"><path style="stroke:none" d="M 3.3125 0 L 1.875 0 L 1.875 -14.109375 L 3.3125 -14.109375 Z M 3.3125 0 "/></g></g><g style="fill:#ffffff;fill-opacity:1;"><g transform="translate(50.590389, 130.229235)"><path style="stroke:none" d="M 1.796875 -7.28125 C 1.796875 -8.09375 1.769531 -8.78125 1.71875 -9.34375 L 3.015625 -9.34375 C 3.066406 -8.6875 3.09375 -8.148438 3.09375 -7.734375 L 3.125 -7.734375 C 3.300781 -8.097656 3.554688 -8.414062 3.890625 -8.6875 C 4.222656 -8.957031 4.597656 -9.171875 5.015625 -9.328125 C 5.441406 -9.484375 5.875 -9.5625 6.3125 -9.5625 C 7.476562 -9.5625 8.363281 -9.21875 8.96875 -8.53125 C 9.570312 -7.84375 9.875 -6.90625 9.875 -5.71875 L 9.875 0 L 8.515625 0 L 8.515625 -5.15625 C 8.515625 -6.207031 8.320312 -7.015625 7.9375 -7.578125 C 7.5625 -8.148438 6.910156 -8.4375 5.984375 -8.4375 C 5.472656 -8.4375 5.003906 -8.296875 4.578125 -8.015625 C 4.160156 -7.742188 3.816406 -7.335938 3.546875 -6.796875 C 3.285156 -6.253906 3.15625 -5.582031 3.15625 -4.78125 L 3.15625 0 L 1.796875 0 Z M 1.796875 -7.28125 "/></g></g><g style="fill:#ffffff;fill-opacity:1;"><g transform="translate(62.174917, 130.229235)"><path style="stroke:none" d="M 4.453125 0.234375 C 3.703125 0.234375 3 0.0820312 2.34375 -0.21875 C 1.695312 -0.519531 1.164062 -0.972656 0.75 -1.578125 L 1.828125 -2.375 C 2.085938 -1.945312 2.453125 -1.597656 2.921875 -1.328125 C 3.390625 -1.054688 3.890625 -0.921875 4.421875 -0.921875 C 5.066406 -0.921875 5.59375 -1.046875 6 -1.296875 C 6.414062 -1.554688 6.625 -1.972656 6.625 -2.546875 C 6.625 -2.867188 6.519531 -3.132812 6.3125 -3.34375 C 6.101562 -3.5625 5.804688 -3.742188 5.421875 -3.890625 C 5.035156 -4.046875 4.519531 -4.195312 3.875 -4.34375 C 3.394531 -4.46875 2.960938 -4.613281 2.578125 -4.78125 C 2.203125 -4.945312 1.878906 -5.195312 1.609375 -5.53125 C 1.335938 -5.875 1.203125 -6.316406 1.203125 -6.859375 C 1.203125 -7.453125 1.351562 -7.953125 1.65625 -8.359375 C 1.957031 -8.773438 2.359375 -9.078125 2.859375 -9.265625 C 3.367188 -9.460938 3.925781 -9.5625 4.53125 -9.5625 C 5.1875 -9.5625 5.820312 -9.410156 6.4375 -9.109375 C 7.050781 -8.816406 7.503906 -8.410156 7.796875 -7.890625 L 6.765625 -7.125 C 6.554688 -7.519531 6.242188 -7.835938 5.828125 -8.078125 C 5.421875 -8.316406 4.96875 -8.4375 4.46875 -8.4375 C 3.925781 -8.4375 3.460938 -8.3125 3.078125 -8.0625 C 2.691406 -7.820312 2.5 -7.460938 2.5 -6.984375 C 2.5 -6.554688 2.671875 -6.222656 3.015625 -5.984375 C 3.359375 -5.742188 3.925781 -5.546875 4.71875 -5.390625 C 5.820312 -5.160156 6.632812 -4.828125 7.15625 -4.390625 C 7.6875 -3.953125 7.953125 -3.375 7.953125 -2.65625 C 7.953125 -1.976562 7.785156 -1.421875 7.453125 -0.984375 C 7.117188 -0.554688 6.6875 -0.242188 6.15625 -0.046875 C 5.625 0.140625 5.054688 0.234375 4.453125 0.234375 Z M 4.453125 0.234375 "/></g></g><g style="fill:#ffffff;fill-opacity:1;"><g transform="translate(71.027804, 130.229235)"><path style="stroke:none" d="M 1.796875 4.78125 L 1.796875 -9.34375 L 3.15625 -9.34375 L 3.15625 -7.71875 L 3.203125 -7.71875 C 3.578125 -8.300781 4.082031 -8.753906 4.71875 -9.078125 C 5.363281 -9.398438 6.03125 -9.5625 6.71875 -9.5625 C 7.664062 -9.5625 8.503906 -9.347656 9.234375 -8.921875 C 9.972656 -8.492188 10.539062 -7.90625 10.9375 -7.15625 C 11.34375 -6.414062 11.546875 -5.585938 11.546875 -4.671875 C 11.546875 -3.753906 11.34375 -2.921875 10.9375 -2.171875 C 10.539062 -1.429688 9.972656 -0.84375 9.234375 -0.40625 C 8.503906 0.0195312 7.664062 0.234375 6.71875 0.234375 C 6.039062 0.234375 5.378906 0.078125 4.734375 -0.234375 C 4.097656 -0.554688 3.585938 -1.003906 3.203125 -1.578125 L 3.15625 -1.578125 L 3.15625 4.78125 Z M 6.578125 -0.921875 C 7.304688 -0.921875 7.9375 -1.082031 8.46875 -1.40625 C 9 -1.738281 9.40625 -2.1875 9.6875 -2.75 C 9.96875 -3.320312 10.109375 -3.960938 10.109375 -4.671875 C 10.109375 -5.367188 9.96875 -6.003906 9.6875 -6.578125 C 9.40625 -7.148438 9 -7.601562 8.46875 -7.9375 C 7.9375 -8.269531 7.304688 -8.4375 6.578125 -8.4375 C 5.890625 -8.4375 5.269531 -8.269531 4.71875 -7.9375 C 4.175781 -7.601562 3.75 -7.148438 3.4375 -6.578125 C 3.132812 -6.003906 2.984375 -5.367188 2.984375 -4.671875 C 2.984375 -3.960938 3.132812 -3.320312 3.4375 -2.75 C 3.75 -2.175781 4.175781 -1.726562 4.71875 -1.40625 C 5.269531 -1.082031 5.890625 -0.921875 6.578125 -0.921875 Z M 6.578125 -0.921875 "/></g></g><g style="fill:#ffffff;fill-opacity:1;"><g transform="translate(83.689028, 130.229235)"><path style="stroke:none" d="M 2.5 -11.96875 C 2.238281 -11.96875 2.007812 -12.054688 1.8125 -12.234375 C 1.625 -12.421875 1.53125 -12.648438 1.53125 -12.921875 C 1.53125 -13.179688 1.625 -13.40625 1.8125 -13.59375 C 2.007812 -13.78125 2.238281 -13.875 2.5 -13.875 C 2.75 -13.875 2.96875 -13.78125 3.15625 -13.59375 C 3.351562 -13.40625 3.453125 -13.179688 3.453125 -12.921875 C 3.453125 -12.648438 3.351562 -12.421875 3.15625 -12.234375 C 2.96875 -12.054688 2.75 -11.96875 2.5 -11.96875 Z M 3.171875 0 L 1.8125 0 L 1.8125 -9.34375 L 3.171875 -9.34375 Z M 3.171875 0 "/></g></g><g style="fill:#ffffff;fill-opacity:1;"><g transform="translate(88.673759, 130.229235)"><path style="stroke:none" d="M 1.796875 -7.28125 C 1.796875 -8.09375 1.769531 -8.78125 1.71875 -9.34375 L 3.015625 -9.34375 C 3.066406 -8.6875 3.09375 -8.148438 3.09375 -7.734375 L 3.125 -7.734375 C 3.394531 -8.273438 3.796875 -8.710938 4.328125 -9.046875 C 4.867188 -9.390625 5.46875 -9.5625 6.125 -9.5625 C 6.476562 -9.5625 6.773438 -9.53125 7.015625 -9.46875 L 6.84375 -8.1875 C 6.757812 -8.21875 6.617188 -8.242188 6.421875 -8.265625 C 6.234375 -8.296875 6.050781 -8.3125 5.875 -8.3125 C 5.375 -8.3125 4.914062 -8.1875 4.5 -7.9375 C 4.09375 -7.6875 3.765625 -7.296875 3.515625 -6.765625 C 3.273438 -6.242188 3.15625 -5.582031 3.15625 -4.78125 L 3.15625 0 L 1.796875 0 Z M 1.796875 -7.28125 "/></g></g><g style="fill:#ffffff;fill-opacity:1;"><g transform="translate(95.851783, 130.229235)"><path style="stroke:none" d="M 4.328125 0.234375 C 3.804688 0.234375 3.300781 0.140625 2.8125 -0.046875 C 2.320312 -0.242188 1.910156 -0.550781 1.578125 -0.96875 C 1.253906 -1.394531 1.09375 -1.9375 1.09375 -2.59375 C 1.09375 -3.476562 1.378906 -4.148438 1.953125 -4.609375 C 2.535156 -5.066406 3.28125 -5.363281 4.1875 -5.5 C 5.101562 -5.644531 6.238281 -5.71875 7.59375 -5.71875 L 7.671875 -5.71875 L 7.671875 -6.015625 C 7.671875 -6.816406 7.457031 -7.421875 7.03125 -7.828125 C 6.613281 -8.234375 6 -8.4375 5.1875 -8.4375 C 4.65625 -8.4375 4.140625 -8.332031 3.640625 -8.125 C 3.148438 -7.925781 2.738281 -7.664062 2.40625 -7.34375 L 1.65625 -8.234375 C 2.050781 -8.628906 2.566406 -8.945312 3.203125 -9.1875 C 3.847656 -9.4375 4.554688 -9.5625 5.328125 -9.5625 C 6.015625 -9.5625 6.628906 -9.4375 7.171875 -9.1875 C 7.722656 -8.9375 8.15625 -8.554688 8.46875 -8.046875 C 8.789062 -7.535156 8.953125 -6.914062 8.953125 -6.1875 L 8.953125 -2.09375 C 8.953125 -1.71875 8.960938 -1.335938 8.984375 -0.953125 C 9.015625 -0.566406 9.054688 -0.25 9.109375 0 L 7.890625 0 C 7.796875 -0.53125 7.75 -1.035156 7.75 -1.515625 L 7.71875 -1.515625 C 7.289062 -0.898438 6.804688 -0.453125 6.265625 -0.171875 C 5.734375 0.0976562 5.085938 0.234375 4.328125 0.234375 Z M 4.6875 -0.875 C 5.300781 -0.875 5.832031 -1.015625 6.28125 -1.296875 C 6.726562 -1.578125 7.070312 -1.953125 7.3125 -2.421875 C 7.550781 -2.890625 7.671875 -3.40625 7.671875 -3.96875 L 7.671875 -4.671875 L 7.28125 -4.671875 C 5.863281 -4.671875 4.710938 -4.53125 3.828125 -4.25 C 2.941406 -3.976562 2.5 -3.445312 2.5 -2.65625 C 2.5 -2.039062 2.707031 -1.585938 3.125 -1.296875 C 3.550781 -1.015625 4.070312 -0.875 4.6875 -0.875 Z M 4.6875 -0.875 "/></g></g><g style="fill:#ffffff;fill-opacity:1;"><g transform="translate(106.499182, 130.229235)"><path style="stroke:none" d="M 4.40625 0.125 C 3.769531 0.125 3.210938 -0.0625 2.734375 -0.4375 C 2.253906 -0.8125 2.015625 -1.457031 2.015625 -2.375 L 2.015625 -8.21875 L 0.078125 -8.21875 L 0.078125 -9.34375 L 2.015625 -9.34375 L 2.015625 -11.96875 L 3.375 -11.96875 L 3.375 -9.34375 L 6 -9.34375 L 6 -8.21875 L 3.375 -8.21875 L 3.375 -2.75 C 3.375 -2.101562 3.492188 -1.65625 3.734375 -1.40625 C 3.972656 -1.15625 4.316406 -1.03125 4.765625 -1.03125 C 4.953125 -1.03125 5.144531 -1.054688 5.34375 -1.109375 C 5.550781 -1.171875 5.75 -1.242188 5.9375 -1.328125 L 6 -0.15625 C 5.507812 0.03125 4.976562 0.125 4.40625 0.125 Z M 4.40625 0.125 "/></g></g><g style="fill:#ffffff;fill-opacity:1;"><g transform="translate(112.819824, 130.229235)"><path style="stroke:none" d="M 2.5 -11.96875 C 2.238281 -11.96875 2.007812 -12.054688 1.8125 -12.234375 C 1.625 -12.421875 1.53125 -12.648438 1.53125 -12.921875 C 1.53125 -13.179688 1.625 -13.40625 1.8125 -13.59375 C 2.007812 -13.78125 2.238281 -13.875 2.5 -13.875 C 2.75 -13.875 2.96875 -13.78125 3.15625 -13.59375 C 3.351562 -13.40625 3.453125 -13.179688 3.453125 -12.921875 C 3.453125 -12.648438 3.351562 -12.421875 3.15625 -12.234375 C 2.96875 -12.054688 2.75 -11.96875 2.5 -11.96875 Z M 3.171875 0 L 1.8125 0 L 1.8125 -9.34375 L 3.171875 -9.34375 Z M 3.171875 0 "/></g></g><g style="fill:#ffffff;fill-opacity:1;"><g transform="translate(117.804555, 130.229235)"><path style="stroke:none" d="M 6.078125 0.234375 C 5.140625 0.234375 4.289062 0.0234375 3.53125 -0.390625 C 2.769531 -0.816406 2.175781 -1.398438 1.75 -2.140625 C 1.320312 -2.890625 1.109375 -3.734375 1.109375 -4.671875 C 1.109375 -5.597656 1.320312 -6.429688 1.75 -7.171875 C 2.175781 -7.921875 2.769531 -8.503906 3.53125 -8.921875 C 4.289062 -9.347656 5.140625 -9.5625 6.078125 -9.5625 C 7.035156 -9.5625 7.894531 -9.347656 8.65625 -8.921875 C 9.414062 -8.503906 10.003906 -7.921875 10.421875 -7.171875 C 10.847656 -6.429688 11.0625 -5.597656 11.0625 -4.671875 C 11.0625 -3.734375 10.847656 -2.890625 10.421875 -2.140625 C 10.003906 -1.398438 9.414062 -0.816406 8.65625 -0.390625 C 7.894531 0.0234375 7.035156 0.234375 6.078125 0.234375 Z M 6.078125 -0.921875 C 6.785156 -0.921875 7.40625 -1.082031 7.9375 -1.40625 C 8.476562 -1.738281 8.894531 -2.1875 9.1875 -2.75 C 9.476562 -3.320312 9.625 -3.960938 9.625 -4.671875 C 9.625 -5.367188 9.476562 -6.003906 9.1875 -6.578125 C 8.894531 -7.148438 8.476562 -7.601562 7.9375 -7.9375 C 7.40625 -8.269531 6.785156 -8.4375 6.078125 -8.4375 C 5.378906 -8.4375 4.757812 -8.269531 4.21875 -7.9375 C 3.6875 -7.601562 3.273438 -7.148438 2.984375 -6.578125 C 2.691406 -6.003906 2.546875 -5.367188 2.546875 -4.671875 C 2.546875 -3.960938 2.691406 -3.320312 2.984375 -2.75 C 3.273438 -2.1875 3.6875 -1.738281 4.21875 -1.40625 C 4.757812 -1.082031 5.378906 -0.921875 6.078125 -0.921875 Z M 6.078125 -0.921875 "/></g></g><g style="fill:#ffffff;fill-opacity:1;"><g transform="translate(129.98725, 130.229235)"><path style="stroke:none" d="M 1.796875 -7.28125 C 1.796875 -8.09375 1.769531 -8.78125 1.71875 -9.34375 L 3.015625 -9.34375 C 3.066406 -8.6875 3.09375 -8.148438 3.09375 -7.734375 L 3.125 -7.734375 C 3.300781 -8.097656 3.554688 -8.414062 3.890625 -8.6875 C 4.222656 -8.957031 4.597656 -9.171875 5.015625 -9.328125 C 5.441406 -9.484375 5.875 -9.5625 6.3125 -9.5625 C 7.476562 -9.5625 8.363281 -9.21875 8.96875 -8.53125 C 9.570312 -7.84375 9.875 -6.90625 9.875 -5.71875 L 9.875 0 L 8.515625 0 L 8.515625 -5.15625 C 8.515625 -6.207031 8.320312 -7.015625 7.9375 -7.578125 C 7.5625 -8.148438 6.910156 -8.4375 5.984375 -8.4375 C 5.472656 -8.4375 5.003906 -8.296875 4.578125 -8.015625 C 4.160156 -7.742188 3.816406 -7.335938 3.546875 -6.796875 C 3.285156 -6.253906 3.15625 -5.582031 3.15625 -4.78125 L 3.15625 0 L 1.796875 0 Z M 1.796875 -7.28125 "/></g></g><g style="fill:#ffffff;fill-opacity:1;"><g transform="translate(38.557337, 150.285417)"><path style="stroke:none" d="M 3.265625 0.21875 C 2.734375 0.21875 2.226562 0.109375 1.75 -0.109375 C 1.28125 -0.328125 0.894531 -0.640625 0.59375 -1.046875 L 1.34375 -1.59375 C 1.539062 -1.269531 1.804688 -1.007812 2.140625 -0.8125 C 2.472656 -0.625 2.851562 -0.53125 3.28125 -0.53125 C 3.582031 -0.53125 3.878906 -0.59375 4.171875 -0.71875 C 4.460938 -0.84375 4.695312 -1.03125 4.875 -1.28125 C 5.0625 -1.53125 5.15625 -1.828125 5.15625 -2.171875 C 5.15625 -2.535156 5.0625 -2.832031 4.875 -3.0625 C 4.695312 -3.289062 4.472656 -3.460938 4.203125 -3.578125 C 3.941406 -3.703125 3.570312 -3.835938 3.09375 -3.984375 C 2.632812 -4.128906 2.242188 -4.285156 1.921875 -4.453125 C 1.597656 -4.628906 1.332031 -4.867188 1.125 -5.171875 C 0.914062 -5.484375 0.8125 -5.878906 0.8125 -6.359375 C 0.8125 -6.878906 0.941406 -7.3125 1.203125 -7.65625 C 1.472656 -8.007812 1.8125 -8.269531 2.21875 -8.4375 C 2.632812 -8.601562 3.066406 -8.6875 3.515625 -8.6875 C 4.054688 -8.6875 4.535156 -8.585938 4.953125 -8.390625 C 5.378906 -8.203125 5.695312 -7.957031 5.90625 -7.65625 L 5.234375 -7.109375 C 5.046875 -7.367188 4.800781 -7.570312 4.5 -7.71875 C 4.207031 -7.875 3.867188 -7.953125 3.484375 -7.953125 C 3.191406 -7.953125 2.90625 -7.890625 2.625 -7.765625 C 2.351562 -7.648438 2.125 -7.472656 1.9375 -7.234375 C 1.757812 -6.992188 1.671875 -6.707031 1.671875 -6.375 C 1.671875 -6.03125 1.753906 -5.753906 1.921875 -5.546875 C 2.085938 -5.347656 2.285156 -5.191406 2.515625 -5.078125 C 2.753906 -4.972656 3.085938 -4.847656 3.515625 -4.703125 C 4.085938 -4.515625 4.53125 -4.34375 4.84375 -4.1875 C 5.164062 -4.039062 5.441406 -3.804688 5.671875 -3.484375 C 5.910156 -3.171875 6.03125 -2.75 6.03125 -2.21875 C 6.03125 -1.6875 5.898438 -1.238281 5.640625 -0.875 C 5.378906 -0.507812 5.035156 -0.234375 4.609375 -0.046875 C 4.179688 0.128906 3.734375 0.21875 3.265625 0.21875 Z M 3.265625 0.21875 "/></g></g><g style="fill:#ffffff;fill-opacity:1;"><g transform="translate(45.30735, 150.285417)"><path style="stroke:none" d="M 1.078125 2.875 L 1.078125 -5.609375 L 1.890625 -5.609375 L 1.890625 -4.625 L 1.921875 -4.625 C 2.148438 -4.976562 2.453125 -5.253906 2.828125 -5.453125 C 3.210938 -5.648438 3.613281 -5.75 4.03125 -5.75 C 4.601562 -5.75 5.109375 -5.617188 5.546875 -5.359375 C 5.992188 -5.097656 6.335938 -4.742188 6.578125 -4.296875 C 6.816406 -3.847656 6.9375 -3.347656 6.9375 -2.796875 C 6.9375 -2.242188 6.816406 -1.742188 6.578125 -1.296875 C 6.335938 -0.859375 5.992188 -0.507812 5.546875 -0.25 C 5.109375 0.0078125 4.601562 0.140625 4.03125 0.140625 C 3.625 0.140625 3.226562 0.046875 2.84375 -0.140625 C 2.46875 -0.335938 2.160156 -0.609375 1.921875 -0.953125 L 1.890625 -0.953125 L 1.890625 2.875 Z M 3.953125 -0.546875 C 4.390625 -0.546875 4.765625 -0.644531 5.078125 -0.84375 C 5.398438 -1.050781 5.644531 -1.320312 5.8125 -1.65625 C 5.976562 -2 6.0625 -2.378906 6.0625 -2.796875 C 6.0625 -3.222656 5.976562 -3.609375 5.8125 -3.953125 C 5.644531 -4.296875 5.398438 -4.566406 5.078125 -4.765625 C 4.765625 -4.960938 4.390625 -5.0625 3.953125 -5.0625 C 3.535156 -5.0625 3.160156 -4.960938 2.828125 -4.765625 C 2.503906 -4.566406 2.25 -4.296875 2.0625 -3.953125 C 1.882812 -3.609375 1.796875 -3.222656 1.796875 -2.796875 C 1.796875 -2.378906 1.882812 -2 2.0625 -1.65625 C 2.25 -1.3125 2.503906 -1.039062 2.828125 -0.84375 C 3.160156 -0.644531 3.535156 -0.546875 3.953125 -0.546875 Z M 3.953125 -0.546875 "/></g></g><g style="fill:#ffffff;fill-opacity:1;"><g transform="translate(52.907097, 150.285417)"><path style="stroke:none" d="M 2.59375 0.140625 C 2.28125 0.140625 1.976562 0.0820312 1.6875 -0.03125 C 1.394531 -0.144531 1.148438 -0.328125 0.953125 -0.578125 C 0.753906 -0.835938 0.65625 -1.164062 0.65625 -1.5625 C 0.65625 -2.09375 0.828125 -2.492188 1.171875 -2.765625 C 1.523438 -3.046875 1.972656 -3.226562 2.515625 -3.3125 C 3.066406 -3.394531 3.75 -3.4375 4.5625 -3.4375 L 4.609375 -3.4375 L 4.609375 -3.609375 C 4.609375 -4.085938 4.476562 -4.445312 4.21875 -4.6875 C 3.96875 -4.9375 3.597656 -5.0625 3.109375 -5.0625 C 2.796875 -5.0625 2.488281 -5 2.1875 -4.875 C 1.894531 -4.757812 1.648438 -4.601562 1.453125 -4.40625 L 1 -4.9375 C 1.238281 -5.175781 1.546875 -5.367188 1.921875 -5.515625 C 2.304688 -5.671875 2.734375 -5.75 3.203125 -5.75 C 3.609375 -5.75 3.972656 -5.671875 4.296875 -5.515625 C 4.628906 -5.367188 4.890625 -5.140625 5.078125 -4.828125 C 5.273438 -4.523438 5.375 -4.148438 5.375 -3.703125 L 5.375 -1.25 C 5.375 -1.03125 5.378906 -0.804688 5.390625 -0.578125 C 5.410156 -0.347656 5.4375 -0.15625 5.46875 0 L 4.734375 0 C 4.679688 -0.320312 4.65625 -0.625 4.65625 -0.90625 L 4.625 -0.90625 C 4.375 -0.539062 4.085938 -0.273438 3.765625 -0.109375 C 3.441406 0.0546875 3.050781 0.140625 2.59375 0.140625 Z M 2.8125 -0.53125 C 3.175781 -0.53125 3.492188 -0.613281 3.765625 -0.78125 C 4.035156 -0.945312 4.242188 -1.171875 4.390625 -1.453125 C 4.535156 -1.734375 4.609375 -2.039062 4.609375 -2.375 L 4.609375 -2.796875 L 4.375 -2.796875 C 3.519531 -2.796875 2.828125 -2.710938 2.296875 -2.546875 C 1.765625 -2.390625 1.5 -2.070312 1.5 -1.59375 C 1.5 -1.226562 1.625 -0.957031 1.875 -0.78125 C 2.132812 -0.613281 2.445312 -0.53125 2.8125 -0.53125 Z M 2.8125 -0.53125 "/></g></g><g style="fill:#ffffff;fill-opacity:1;"><g transform="translate(59.29807, 150.285417)"><path style="stroke:none" d="M 1.078125 -4.375 C 1.078125 -4.851562 1.0625 -5.265625 1.03125 -5.609375 L 1.8125 -5.609375 C 1.84375 -5.210938 1.859375 -4.890625 1.859375 -4.640625 L 1.875 -4.640625 C 2.039062 -4.972656 2.285156 -5.238281 2.609375 -5.4375 C 2.929688 -5.644531 3.285156 -5.75 3.671875 -5.75 C 3.890625 -5.75 4.070312 -5.726562 4.21875 -5.6875 L 4.109375 -4.921875 C 4.054688 -4.929688 3.972656 -4.941406 3.859375 -4.953125 C 3.742188 -4.972656 3.632812 -4.984375 3.53125 -4.984375 C 3.226562 -4.984375 2.953125 -4.90625 2.703125 -4.75 C 2.453125 -4.601562 2.253906 -4.375 2.109375 -4.0625 C 1.960938 -3.75 1.890625 -3.351562 1.890625 -2.875 L 1.890625 0 L 1.078125 0 Z M 1.078125 -4.375 "/></g></g><g style="fill:#ffffff;fill-opacity:1;"><g transform="translate(63.606588, 150.285417)"><path style="stroke:none" d="M 1.921875 0 L 1.09375 0 L 1.09375 -9.046875 L 1.921875 -9.046875 L 1.921875 -3.078125 L 1.953125 -3.078125 L 4.53125 -5.609375 L 5.703125 -5.609375 L 2.890625 -3.046875 L 6 0 L 4.796875 0 L 1.953125 -2.9375 L 1.921875 -2.9375 Z M 1.921875 0 "/></g></g><g style="fill:#ffffff;fill-opacity:1;"><g transform="translate(69.710325, 150.285417)"><path style="stroke:none" d=""/></g></g><g style="fill:#ffffff;fill-opacity:1;"><g transform="translate(72.702357, 150.285417)"><path style="stroke:none" d="M 3.65625 0.140625 C 3.070312 0.140625 2.550781 0.015625 2.09375 -0.234375 C 1.632812 -0.492188 1.28125 -0.847656 1.03125 -1.296875 C 0.789062 -1.742188 0.671875 -2.242188 0.671875 -2.796875 C 0.671875 -3.359375 0.789062 -3.863281 1.03125 -4.3125 C 1.28125 -4.757812 1.632812 -5.109375 2.09375 -5.359375 C 2.550781 -5.617188 3.070312 -5.75 3.65625 -5.75 C 4.0625 -5.75 4.453125 -5.664062 4.828125 -5.5 C 5.203125 -5.332031 5.507812 -5.09375 5.75 -4.78125 L 5.109375 -4.328125 C 4.972656 -4.535156 4.773438 -4.707031 4.515625 -4.84375 C 4.253906 -4.988281 3.972656 -5.0625 3.671875 -5.0625 C 3.253906 -5.0625 2.878906 -4.960938 2.546875 -4.765625 C 2.222656 -4.566406 1.972656 -4.296875 1.796875 -3.953125 C 1.617188 -3.609375 1.53125 -3.222656 1.53125 -2.796875 C 1.53125 -2.378906 1.617188 -2 1.796875 -1.65625 C 1.972656 -1.3125 2.222656 -1.039062 2.546875 -0.84375 C 2.867188 -0.644531 3.238281 -0.546875 3.65625 -0.546875 C 4.300781 -0.546875 4.8125 -0.789062 5.1875 -1.28125 L 5.796875 -0.828125 C 5.265625 -0.179688 4.550781 0.140625 3.65625 0.140625 Z M 3.65625 0.140625 "/></g></g><g style="fill:#ffffff;fill-opacity:1;"><g transform="translate(78.686411, 150.285417)"><path style="stroke:none" d="M 1.078125 -4.375 C 1.078125 -4.851562 1.0625 -5.265625 1.03125 -5.609375 L 1.8125 -5.609375 C 1.84375 -5.210938 1.859375 -4.890625 1.859375 -4.640625 L 1.875 -4.640625 C 2.039062 -4.972656 2.285156 -5.238281 2.609375 -5.4375 C 2.929688 -5.644531 3.285156 -5.75 3.671875 -5.75 C 3.890625 -5.75 4.070312 -5.726562 4.21875 -5.6875 L 4.109375 -4.921875 C 4.054688 -4.929688 3.972656 -4.941406 3.859375 -4.953125 C 3.742188 -4.972656 3.632812 -4.984375 3.53125 -4.984375 C 3.226562 -4.984375 2.953125 -4.90625 2.703125 -4.75 C 2.453125 -4.601562 2.253906 -4.375 2.109375 -4.0625 C 1.960938 -3.75 1.890625 -3.351562 1.890625 -2.875 L 1.890625 0 L 1.078125 0 Z M 1.078125 -4.375 "/></g></g><g style="fill:#ffffff;fill-opacity:1;"><g transform="translate(82.994929, 150.285417)"><path style="stroke:none" d="M 3.5625 0.140625 C 3.007812 0.140625 2.515625 0.015625 2.078125 -0.234375 C 1.640625 -0.492188 1.296875 -0.847656 1.046875 -1.296875 C 0.796875 -1.742188 0.671875 -2.242188 0.671875 -2.796875 C 0.671875 -3.347656 0.789062 -3.847656 1.03125 -4.296875 C 1.28125 -4.753906 1.617188 -5.109375 2.046875 -5.359375 C 2.484375 -5.617188 2.96875 -5.75 3.5 -5.75 C 4.0625 -5.75 4.539062 -5.625 4.9375 -5.375 C 5.34375 -5.132812 5.648438 -4.800781 5.859375 -4.375 C 6.066406 -3.957031 6.171875 -3.488281 6.171875 -2.96875 C 6.171875 -2.8125 6.164062 -2.679688 6.15625 -2.578125 L 1.515625 -2.578125 C 1.523438 -2.203125 1.617188 -1.859375 1.796875 -1.546875 C 1.984375 -1.242188 2.226562 -1 2.53125 -0.8125 C 2.84375 -0.632812 3.1875 -0.546875 3.5625 -0.546875 C 3.957031 -0.546875 4.3125 -0.640625 4.625 -0.828125 C 4.945312 -1.015625 5.191406 -1.242188 5.359375 -1.515625 L 5.96875 -1.046875 C 5.34375 -0.253906 4.539062 0.140625 3.5625 0.140625 Z M 5.34375 -3.234375 C 5.332031 -3.585938 5.253906 -3.898438 5.109375 -4.171875 C 4.960938 -4.453125 4.75 -4.671875 4.46875 -4.828125 C 4.195312 -4.984375 3.875 -5.0625 3.5 -5.0625 C 3.144531 -5.0625 2.820312 -4.976562 2.53125 -4.8125 C 2.238281 -4.644531 2.003906 -4.414062 1.828125 -4.125 C 1.648438 -3.84375 1.550781 -3.546875 1.53125 -3.234375 Z M 5.34375 -3.234375 "/></g></g><g style="fill:#ffffff;fill-opacity:1;"><g transform="translate(89.84069, 150.285417)"><path style="stroke:none" d="M 2.59375 0.140625 C 2.28125 0.140625 1.976562 0.0820312 1.6875 -0.03125 C 1.394531 -0.144531 1.148438 -0.328125 0.953125 -0.578125 C 0.753906 -0.835938 0.65625 -1.164062 0.65625 -1.5625 C 0.65625 -2.09375 0.828125 -2.492188 1.171875 -2.765625 C 1.523438 -3.046875 1.972656 -3.226562 2.515625 -3.3125 C 3.066406 -3.394531 3.75 -3.4375 4.5625 -3.4375 L 4.609375 -3.4375 L 4.609375 -3.609375 C 4.609375 -4.085938 4.476562 -4.445312 4.21875 -4.6875 C 3.96875 -4.9375 3.597656 -5.0625 3.109375 -5.0625 C 2.796875 -5.0625 2.488281 -5 2.1875 -4.875 C 1.894531 -4.757812 1.648438 -4.601562 1.453125 -4.40625 L 1 -4.9375 C 1.238281 -5.175781 1.546875 -5.367188 1.921875 -5.515625 C 2.304688 -5.671875 2.734375 -5.75 3.203125 -5.75 C 3.609375 -5.75 3.972656 -5.671875 4.296875 -5.515625 C 4.628906 -5.367188 4.890625 -5.140625 5.078125 -4.828125 C 5.273438 -4.523438 5.375 -4.148438 5.375 -3.703125 L 5.375 -1.25 C 5.375 -1.03125 5.378906 -0.804688 5.390625 -0.578125 C 5.410156 -0.347656 5.4375 -0.15625 5.46875 0 L 4.734375 0 C 4.679688 -0.320312 4.65625 -0.625 4.65625 -0.90625 L 4.625 -0.90625 C 4.375 -0.539062 4.085938 -0.273438 3.765625 -0.109375 C 3.441406 0.0546875 3.050781 0.140625 2.59375 0.140625 Z M 2.8125 -0.53125 C 3.175781 -0.53125 3.492188 -0.613281 3.765625 -0.78125 C 4.035156 -0.945312 4.242188 -1.171875 4.390625 -1.453125 C 4.535156 -1.734375 4.609375 -2.039062 4.609375 -2.375 L 4.609375 -2.796875 L 4.375 -2.796875 C 3.519531 -2.796875 2.828125 -2.710938 2.296875 -2.546875 C 1.765625 -2.390625 1.5 -2.070312 1.5 -1.59375 C 1.5 -1.226562 1.625 -0.957031 1.875 -0.78125 C 2.132812 -0.613281 2.445312 -0.53125 2.8125 -0.53125 Z M 2.8125 -0.53125 "/></g></g><g style="fill:#ffffff;fill-opacity:1;"><g transform="translate(96.231663, 150.285417)"><path style="stroke:none" d="M 2.640625 0.078125 C 2.265625 0.078125 1.929688 -0.03125 1.640625 -0.25 C 1.347656 -0.476562 1.203125 -0.867188 1.203125 -1.421875 L 1.203125 -4.9375 L 0.046875 -4.9375 L 0.046875 -5.609375 L 1.203125 -5.609375 L 1.203125 -7.1875 L 2.015625 -7.1875 L 2.015625 -5.609375 L 3.609375 -5.609375 L 3.609375 -4.9375 L 2.015625 -4.9375 L 2.015625 -1.65625 C 2.015625 -1.257812 2.085938 -0.988281 2.234375 -0.84375 C 2.378906 -0.695312 2.585938 -0.625 2.859375 -0.625 C 2.972656 -0.625 3.09375 -0.640625 3.21875 -0.671875 C 3.34375 -0.703125 3.457031 -0.742188 3.5625 -0.796875 L 3.609375 -0.09375 C 3.304688 0.0195312 2.984375 0.078125 2.640625 0.078125 Z M 2.640625 0.078125 "/></g></g><g style="fill:#ffffff;fill-opacity:1;"><g transform="translate(100.02555, 150.285417)"><path style="stroke:none" d="M 1.5 -7.1875 C 1.34375 -7.1875 1.207031 -7.238281 1.09375 -7.34375 C 0.976562 -7.457031 0.921875 -7.59375 0.921875 -7.75 C 0.921875 -7.914062 0.976562 -8.050781 1.09375 -8.15625 C 1.207031 -8.269531 1.34375 -8.328125 1.5 -8.328125 C 1.644531 -8.328125 1.773438 -8.269531 1.890625 -8.15625 C 2.015625 -8.050781 2.078125 -7.914062 2.078125 -7.75 C 2.078125 -7.59375 2.015625 -7.457031 1.890625 -7.34375 C 1.773438 -7.238281 1.644531 -7.1875 1.5 -7.1875 Z M 1.90625 0 L 1.09375 0 L 1.09375 -5.609375 L 1.90625 -5.609375 Z M 1.90625 0 "/></g></g><g style="fill:#ffffff;fill-opacity:1;"><g transform="translate(103.017583, 150.285417)"><path style="stroke:none" d="M 3.375 0 L 2.484375 0 L 0.1875 -5.609375 L 1.09375 -5.609375 L 2.921875 -0.859375 L 2.9375 -0.859375 L 4.78125 -5.609375 L 5.65625 -5.609375 Z M 3.375 0 "/></g></g><g style="fill:#ffffff;fill-opacity:1;"><g transform="translate(108.858018, 150.285417)"><path style="stroke:none" d="M 1.5 -7.1875 C 1.34375 -7.1875 1.207031 -7.238281 1.09375 -7.34375 C 0.976562 -7.457031 0.921875 -7.59375 0.921875 -7.75 C 0.921875 -7.914062 0.976562 -8.050781 1.09375 -8.15625 C 1.207031 -8.269531 1.34375 -8.328125 1.5 -8.328125 C 1.644531 -8.328125 1.773438 -8.269531 1.890625 -8.15625 C 2.015625 -8.050781 2.078125 -7.914062 2.078125 -7.75 C 2.078125 -7.59375 2.015625 -7.457031 1.890625 -7.34375 C 1.773438 -7.238281 1.644531 -7.1875 1.5 -7.1875 Z M 1.90625 0 L 1.09375 0 L 1.09375 -5.609375 L 1.90625 -5.609375 Z M 1.90625 0 "/></g></g><g style="fill:#ffffff;fill-opacity:1;"><g transform="translate(111.850051, 150.285417)"><path style="stroke:none" d="M 2.640625 0.078125 C 2.265625 0.078125 1.929688 -0.03125 1.640625 -0.25 C 1.347656 -0.476562 1.203125 -0.867188 1.203125 -1.421875 L 1.203125 -4.9375 L 0.046875 -4.9375 L 0.046875 -5.609375 L 1.203125 -5.609375 L 1.203125 -7.1875 L 2.015625 -7.1875 L 2.015625 -5.609375 L 3.609375 -5.609375 L 3.609375 -4.9375 L 2.015625 -4.9375 L 2.015625 -1.65625 C 2.015625 -1.257812 2.085938 -0.988281 2.234375 -0.84375 C 2.378906 -0.695312 2.585938 -0.625 2.859375 -0.625 C 2.972656 -0.625 3.09375 -0.640625 3.21875 -0.671875 C 3.34375 -0.703125 3.457031 -0.742188 3.5625 -0.796875 L 3.609375 -0.09375 C 3.304688 0.0195312 2.984375 0.078125 2.640625 0.078125 Z M 2.640625 0.078125 "/></g></g><g style="fill:#ffffff;fill-opacity:1;"><g transform="translate(115.643938, 150.285417)"><path style="stroke:none" d="M 1.09375 2.875 C 0.851562 2.875 0.613281 2.847656 0.375 2.796875 L 0.453125 2.0625 C 0.640625 2.125 0.835938 2.15625 1.046875 2.15625 C 1.316406 2.15625 1.53125 2.070312 1.6875 1.90625 C 1.851562 1.738281 2 1.488281 2.125 1.15625 L 2.578125 -0.015625 L 0.1875 -5.609375 L 1.09375 -5.609375 L 3 -0.875 L 3.03125 -0.875 L 4.765625 -5.609375 L 5.65625 -5.609375 L 2.859375 1.453125 C 2.671875 1.921875 2.441406 2.273438 2.171875 2.515625 C 1.910156 2.753906 1.550781 2.875 1.09375 2.875 Z M 1.09375 2.875 "/></g></g><g style="fill:#ffffff;fill-opacity:1;"><g transform="translate(121.484374, 150.285417)"><path style="stroke:none" d=""/></g></g><g style="fill:#ffffff;fill-opacity:1;"><g transform="translate(124.476406, 150.285417)"><path style="stroke:none" d="M 2.59375 0.140625 C 2.28125 0.140625 1.976562 0.0820312 1.6875 -0.03125 C 1.394531 -0.144531 1.148438 -0.328125 0.953125 -0.578125 C 0.753906 -0.835938 0.65625 -1.164062 0.65625 -1.5625 C 0.65625 -2.09375 0.828125 -2.492188 1.171875 -2.765625 C 1.523438 -3.046875 1.972656 -3.226562 2.515625 -3.3125 C 3.066406 -3.394531 3.75 -3.4375 4.5625 -3.4375 L 4.609375 -3.4375 L 4.609375 -3.609375 C 4.609375 -4.085938 4.476562 -4.445312 4.21875 -4.6875 C 3.96875 -4.9375 3.597656 -5.0625 3.109375 -5.0625 C 2.796875 -5.0625 2.488281 -5 2.1875 -4.875 C 1.894531 -4.757812 1.648438 -4.601562 1.453125 -4.40625 L 1 -4.9375 C 1.238281 -5.175781 1.546875 -5.367188 1.921875 -5.515625 C 2.304688 -5.671875 2.734375 -5.75 3.203125 -5.75 C 3.609375 -5.75 3.972656 -5.671875 4.296875 -5.515625 C 4.628906 -5.367188 4.890625 -5.140625 5.078125 -4.828125 C 5.273438 -4.523438 5.375 -4.148438 5.375 -3.703125 L 5.375 -1.25 C 5.375 -1.03125 5.378906 -0.804688 5.390625 -0.578125 C 5.410156 -0.347656 5.4375 -0.15625 5.46875 0 L 4.734375 0 C 4.679688 -0.320312 4.65625 -0.625 4.65625 -0.90625 L 4.625 -0.90625 C 4.375 -0.539062 4.085938 -0.273438 3.765625 -0.109375 C 3.441406 0.0546875 3.050781 0.140625 2.59375 0.140625 Z M 2.8125 -0.53125 C 3.175781 -0.53125 3.492188 -0.613281 3.765625 -0.78125 C 4.035156 -0.945312 4.242188 -1.171875 4.390625 -1.453125 C 4.535156 -1.734375 4.609375 -2.039062 4.609375 -2.375 L 4.609375 -2.796875 L 4.375 -2.796875 C 3.519531 -2.796875 2.828125 -2.710938 2.296875 -2.546875 C 1.765625 -2.390625 1.5 -2.070312 1.5 -1.59375 C 1.5 -1.226562 1.625 -0.957031 1.875 -0.78125 C 2.132812 -0.613281 2.445312 -0.53125 2.8125 -0.53125 Z M 2.8125 -0.53125 "/></g></g><g style="fill:#ffffff;fill-opacity:1;"><g transform="translate(130.867379, 150.285417)"><path style="stroke:none" d="M 1.078125 -4.375 C 1.078125 -4.851562 1.0625 -5.265625 1.03125 -5.609375 L 1.8125 -5.609375 C 1.84375 -5.210938 1.859375 -4.890625 1.859375 -4.640625 L 1.875 -4.640625 C 1.976562 -4.859375 2.128906 -5.046875 2.328125 -5.203125 C 2.535156 -5.367188 2.765625 -5.5 3.015625 -5.59375 C 3.273438 -5.695312 3.535156 -5.75 3.796875 -5.75 C 4.484375 -5.75 5.007812 -5.539062 5.375 -5.125 C 5.738281 -4.707031 5.921875 -4.144531 5.921875 -3.4375 L 5.921875 0 L 5.109375 0 L 5.109375 -3.09375 C 5.109375 -3.726562 4.992188 -4.210938 4.765625 -4.546875 C 4.535156 -4.890625 4.144531 -5.0625 3.59375 -5.0625 C 3.289062 -5.0625 3.007812 -4.976562 2.75 -4.8125 C 2.5 -4.65625 2.289062 -4.410156 2.125 -4.078125 C 1.96875 -3.753906 1.890625 -3.351562 1.890625 -2.875 L 1.890625 0 L 1.078125 0 Z M 1.078125 -4.375 "/></g></g><g style="fill:#ffffff;fill-opacity:1;"><g transform="translate(137.820851, 150.285417)"><path style="stroke:none" d="M 3.5625 0.140625 C 3 0.140625 2.492188 0.0078125 2.046875 -0.25 C 1.609375 -0.507812 1.269531 -0.859375 1.03125 -1.296875 C 0.789062 -1.742188 0.671875 -2.242188 0.671875 -2.796875 C 0.671875 -3.347656 0.789062 -3.847656 1.03125 -4.296875 C 1.269531 -4.742188 1.609375 -5.097656 2.046875 -5.359375 C 2.492188 -5.617188 3 -5.75 3.5625 -5.75 C 3.976562 -5.75 4.378906 -5.648438 4.765625 -5.453125 C 5.148438 -5.253906 5.457031 -4.976562 5.6875 -4.625 L 5.703125 -4.625 L 5.703125 -9.046875 L 6.515625 -9.046875 L 6.515625 0 L 5.703125 0 L 5.703125 -0.953125 L 5.6875 -0.953125 C 5.457031 -0.609375 5.148438 -0.335938 4.765625 -0.140625 C 4.378906 0.046875 3.976562 0.140625 3.5625 0.140625 Z M 3.65625 -0.546875 C 4.0625 -0.546875 4.425781 -0.644531 4.75 -0.84375 C 5.082031 -1.039062 5.34375 -1.3125 5.53125 -1.65625 C 5.71875 -2 5.8125 -2.378906 5.8125 -2.796875 C 5.8125 -3.222656 5.71875 -3.609375 5.53125 -3.953125 C 5.34375 -4.296875 5.082031 -4.566406 4.75 -4.765625 C 4.425781 -4.960938 4.0625 -5.0625 3.65625 -5.0625 C 3.21875 -5.0625 2.835938 -4.960938 2.515625 -4.765625 C 2.191406 -4.566406 1.945312 -4.296875 1.78125 -3.953125 C 1.613281 -3.609375 1.53125 -3.222656 1.53125 -2.796875 C 1.53125 -2.378906 1.613281 -2 1.78125 -1.65625 C 1.945312 -1.320312 2.191406 -1.050781 2.515625 -0.84375 C 2.835938 -0.644531 3.21875 -0.546875 3.65625 -0.546875 Z M 3.65625 -0.546875 "/></g></g><g style="fill:#ffffff;fill-opacity:1;"><g transform="translate(145.451963, 150.285417)"><path style="stroke:none" d=""/></g></g><g style="fill:#ffffff;fill-opacity:1;"><g transform="translate(52.021432, 166.741533)"><path style="stroke:none" d="M 1.078125 -4.375 C 1.078125 -4.851562 1.0625 -5.265625 1.03125 -5.609375 L 1.8125 -5.609375 C 1.84375 -5.210938 1.859375 -4.890625 1.859375 -4.640625 L 1.875 -4.640625 C 1.976562 -4.859375 2.128906 -5.046875 2.328125 -5.203125 C 2.535156 -5.367188 2.765625 -5.5 3.015625 -5.59375 C 3.273438 -5.695312 3.535156 -5.75 3.796875 -5.75 C 4.484375 -5.75 5.007812 -5.539062 5.375 -5.125 C 5.738281 -4.707031 5.921875 -4.144531 5.921875 -3.4375 L 5.921875 0 L 5.109375 0 L 5.109375 -3.09375 C 5.109375 -3.726562 4.992188 -4.210938 4.765625 -4.546875 C 4.535156 -4.890625 4.144531 -5.0625 3.59375 -5.0625 C 3.289062 -5.0625 3.007812 -4.976562 2.75 -4.8125 C 2.5 -4.65625 2.289062 -4.410156 2.125 -4.078125 C 1.96875 -3.753906 1.890625 -3.351562 1.890625 -2.875 L 1.890625 0 L 1.078125 0 Z M 1.078125 -4.375 "/></g></g><g style="fill:#ffffff;fill-opacity:1;"><g transform="translate(58.974904, 166.741533)"><path style="stroke:none" d="M 3.5625 0.140625 C 3.007812 0.140625 2.515625 0.015625 2.078125 -0.234375 C 1.640625 -0.492188 1.296875 -0.847656 1.046875 -1.296875 C 0.796875 -1.742188 0.671875 -2.242188 0.671875 -2.796875 C 0.671875 -3.347656 0.789062 -3.847656 1.03125 -4.296875 C 1.28125 -4.753906 1.617188 -5.109375 2.046875 -5.359375 C 2.484375 -5.617188 2.96875 -5.75 3.5 -5.75 C 4.0625 -5.75 4.539062 -5.625 4.9375 -5.375 C 5.34375 -5.132812 5.648438 -4.800781 5.859375 -4.375 C 6.066406 -3.957031 6.171875 -3.488281 6.171875 -2.96875 C 6.171875 -2.8125 6.164062 -2.679688 6.15625 -2.578125 L 1.515625 -2.578125 C 1.523438 -2.203125 1.617188 -1.859375 1.796875 -1.546875 C 1.984375 -1.242188 2.226562 -1 2.53125 -0.8125 C 2.84375 -0.632812 3.1875 -0.546875 3.5625 -0.546875 C 3.957031 -0.546875 4.3125 -0.640625 4.625 -0.828125 C 4.945312 -1.015625 5.191406 -1.242188 5.359375 -1.515625 L 5.96875 -1.046875 C 5.34375 -0.253906 4.539062 0.140625 3.5625 0.140625 Z M 5.34375 -3.234375 C 5.332031 -3.585938 5.253906 -3.898438 5.109375 -4.171875 C 4.960938 -4.453125 4.75 -4.671875 4.46875 -4.828125 C 4.195312 -4.984375 3.875 -5.0625 3.5 -5.0625 C 3.144531 -5.0625 2.820312 -4.976562 2.53125 -4.8125 C 2.238281 -4.644531 2.003906 -4.414062 1.828125 -4.125 C 1.648438 -3.84375 1.550781 -3.546875 1.53125 -3.234375 Z M 5.34375 -3.234375 "/></g></g><g style="fill:#ffffff;fill-opacity:1;"><g transform="translate(65.820666, 166.741533)"><path style="stroke:none" d="M 2.96875 0 L 2.078125 0 L 0.3125 -5.609375 L 1.1875 -5.609375 L 2.53125 -1.046875 L 2.5625 -1.046875 L 4.0625 -5.609375 L 4.859375 -5.609375 L 6.390625 -1.046875 L 6.421875 -1.046875 L 7.75 -5.609375 L 8.625 -5.609375 L 6.84375 0 L 5.953125 0 L 4.46875 -4.546875 L 4.4375 -4.546875 Z M 2.96875 0 "/></g></g><g style="fill:#ffffff;fill-opacity:1;"><g transform="translate(74.748871, 166.741533)"><path style="stroke:none" d=""/></g></g><g style="fill:#ffffff;fill-opacity:1;"><g transform="translate(77.740904, 166.741533)"><path style="stroke:none" d="M 3.5625 0.140625 C 3 0.140625 2.492188 0.0078125 2.046875 -0.25 C 1.609375 -0.507812 1.269531 -0.859375 1.03125 -1.296875 C 0.789062 -1.742188 0.671875 -2.242188 0.671875 -2.796875 C 0.671875 -3.347656 0.789062 -3.847656 1.03125 -4.296875 C 1.269531 -4.742188 1.609375 -5.097656 2.046875 -5.359375 C 2.492188 -5.617188 3 -5.75 3.5625 -5.75 C 3.976562 -5.75 4.378906 -5.648438 4.765625 -5.453125 C 5.148438 -5.253906 5.457031 -4.976562 5.6875 -4.625 L 5.703125 -4.625 L 5.703125 -9.046875 L 6.515625 -9.046875 L 6.515625 0 L 5.703125 0 L 5.703125 -0.953125 L 5.6875 -0.953125 C 5.457031 -0.609375 5.148438 -0.335938 4.765625 -0.140625 C 4.378906 0.046875 3.976562 0.140625 3.5625 0.140625 Z M 3.65625 -0.546875 C 4.0625 -0.546875 4.425781 -0.644531 4.75 -0.84375 C 5.082031 -1.039062 5.34375 -1.3125 5.53125 -1.65625 C 5.71875 -2 5.8125 -2.378906 5.8125 -2.796875 C 5.8125 -3.222656 5.71875 -3.609375 5.53125 -3.953125 C 5.34375 -4.296875 5.082031 -4.566406 4.75 -4.765625 C 4.425781 -4.960938 4.0625 -5.0625 3.65625 -5.0625 C 3.21875 -5.0625 2.835938 -4.960938 2.515625 -4.765625 C 2.191406 -4.566406 1.945312 -4.296875 1.78125 -3.953125 C 1.613281 -3.609375 1.53125 -3.222656 1.53125 -2.796875 C 1.53125 -2.378906 1.613281 -2 1.78125 -1.65625 C 1.945312 -1.320312 2.191406 -1.050781 2.515625 -0.84375 C 2.835938 -0.644531 3.21875 -0.546875 3.65625 -0.546875 Z M 3.65625 -0.546875 "/></g></g><g style="fill:#ffffff;fill-opacity:1;"><g transform="translate(85.364586, 166.741533)"><path style="stroke:none" d="M 1.5 -7.1875 C 1.34375 -7.1875 1.207031 -7.238281 1.09375 -7.34375 C 0.976562 -7.457031 0.921875 -7.59375 0.921875 -7.75 C 0.921875 -7.914062 0.976562 -8.050781 1.09375 -8.15625 C 1.207031 -8.269531 1.34375 -8.328125 1.5 -8.328125 C 1.644531 -8.328125 1.773438 -8.269531 1.890625 -8.15625 C 2.015625 -8.050781 2.078125 -7.914062 2.078125 -7.75 C 2.078125 -7.59375 2.015625 -7.457031 1.890625 -7.34375 C 1.773438 -7.238281 1.644531 -7.1875 1.5 -7.1875 Z M 1.90625 0 L 1.09375 0 L 1.09375 -5.609375 L 1.90625 -5.609375 Z M 1.90625 0 "/></g></g><g style="fill:#ffffff;fill-opacity:1;"><g transform="translate(88.356618, 166.741533)"><path style="stroke:none" d="M 1.078125 -4.375 C 1.078125 -4.851562 1.0625 -5.265625 1.03125 -5.609375 L 1.8125 -5.609375 C 1.84375 -5.210938 1.859375 -4.890625 1.859375 -4.640625 L 1.875 -4.640625 C 2.039062 -4.972656 2.285156 -5.238281 2.609375 -5.4375 C 2.929688 -5.644531 3.285156 -5.75 3.671875 -5.75 C 3.890625 -5.75 4.070312 -5.726562 4.21875 -5.6875 L 4.109375 -4.921875 C 4.054688 -4.929688 3.972656 -4.941406 3.859375 -4.953125 C 3.742188 -4.972656 3.632812 -4.984375 3.53125 -4.984375 C 3.226562 -4.984375 2.953125 -4.90625 2.703125 -4.75 C 2.453125 -4.601562 2.253906 -4.375 2.109375 -4.0625 C 1.960938 -3.75 1.890625 -3.351562 1.890625 -2.875 L 1.890625 0 L 1.078125 0 Z M 1.078125 -4.375 "/></g></g><g style="fill:#ffffff;fill-opacity:1;"><g transform="translate(92.665136, 166.741533)"><path style="stroke:none" d="M 3.5625 0.140625 C 3.007812 0.140625 2.515625 0.015625 2.078125 -0.234375 C 1.640625 -0.492188 1.296875 -0.847656 1.046875 -1.296875 C 0.796875 -1.742188 0.671875 -2.242188 0.671875 -2.796875 C 0.671875 -3.347656 0.789062 -3.847656 1.03125 -4.296875 C 1.28125 -4.753906 1.617188 -5.109375 2.046875 -5.359375 C 2.484375 -5.617188 2.96875 -5.75 3.5 -5.75 C 4.0625 -5.75 4.539062 -5.625 4.9375 -5.375 C 5.34375 -5.132812 5.648438 -4.800781 5.859375 -4.375 C 6.066406 -3.957031 6.171875 -3.488281 6.171875 -2.96875 C 6.171875 -2.8125 6.164062 -2.679688 6.15625 -2.578125 L 1.515625 -2.578125 C 1.523438 -2.203125 1.617188 -1.859375 1.796875 -1.546875 C 1.984375 -1.242188 2.226562 -1 2.53125 -0.8125 C 2.84375 -0.632812 3.1875 -0.546875 3.5625 -0.546875 C 3.957031 -0.546875 4.3125 -0.640625 4.625 -0.828125 C 4.945312 -1.015625 5.191406 -1.242188 5.359375 -1.515625 L 5.96875 -1.046875 C 5.34375 -0.253906 4.539062 0.140625 3.5625 0.140625 Z M 5.34375 -3.234375 C 5.332031 -3.585938 5.253906 -3.898438 5.109375 -4.171875 C 4.960938 -4.453125 4.75 -4.671875 4.46875 -4.828125 C 4.195312 -4.984375 3.875 -5.0625 3.5 -5.0625 C 3.144531 -5.0625 2.820312 -4.976562 2.53125 -4.8125 C 2.238281 -4.644531 2.003906 -4.414062 1.828125 -4.125 C 1.648438 -3.84375 1.550781 -3.546875 1.53125 -3.234375 Z M 5.34375 -3.234375 "/></g></g><g style="fill:#ffffff;fill-opacity:1;"><g transform="translate(99.510897, 166.741533)"><path style="stroke:none" d="M 3.65625 0.140625 C 3.070312 0.140625 2.550781 0.015625 2.09375 -0.234375 C 1.632812 -0.492188 1.28125 -0.847656 1.03125 -1.296875 C 0.789062 -1.742188 0.671875 -2.242188 0.671875 -2.796875 C 0.671875 -3.359375 0.789062 -3.863281 1.03125 -4.3125 C 1.28125 -4.757812 1.632812 -5.109375 2.09375 -5.359375 C 2.550781 -5.617188 3.070312 -5.75 3.65625 -5.75 C 4.0625 -5.75 4.453125 -5.664062 4.828125 -5.5 C 5.203125 -5.332031 5.507812 -5.09375 5.75 -4.78125 L 5.109375 -4.328125 C 4.972656 -4.535156 4.773438 -4.707031 4.515625 -4.84375 C 4.253906 -4.988281 3.972656 -5.0625 3.671875 -5.0625 C 3.253906 -5.0625 2.878906 -4.960938 2.546875 -4.765625 C 2.222656 -4.566406 1.972656 -4.296875 1.796875 -3.953125 C 1.617188 -3.609375 1.53125 -3.222656 1.53125 -2.796875 C 1.53125 -2.378906 1.617188 -2 1.796875 -1.65625 C 1.972656 -1.3125 2.222656 -1.039062 2.546875 -0.84375 C 2.867188 -0.644531 3.238281 -0.546875 3.65625 -0.546875 C 4.300781 -0.546875 4.8125 -0.789062 5.1875 -1.28125 L 5.796875 -0.828125 C 5.265625 -0.179688 4.550781 0.140625 3.65625 0.140625 Z M 3.65625 0.140625 "/></g></g><g style="fill:#ffffff;fill-opacity:1;"><g transform="translate(105.494951, 166.741533)"><path style="stroke:none" d="M 2.640625 0.078125 C 2.265625 0.078125 1.929688 -0.03125 1.640625 -0.25 C 1.347656 -0.476562 1.203125 -0.867188 1.203125 -1.421875 L 1.203125 -4.9375 L 0.046875 -4.9375 L 0.046875 -5.609375 L 1.203125 -5.609375 L 1.203125 -7.1875 L 2.015625 -7.1875 L 2.015625 -5.609375 L 3.609375 -5.609375 L 3.609375 -4.9375 L 2.015625 -4.9375 L 2.015625 -1.65625 C 2.015625 -1.257812 2.085938 -0.988281 2.234375 -0.84375 C 2.378906 -0.695312 2.585938 -0.625 2.859375 -0.625 C 2.972656 -0.625 3.09375 -0.640625 3.21875 -0.671875 C 3.34375 -0.703125 3.457031 -0.742188 3.5625 -0.796875 L 3.609375 -0.09375 C 3.304688 0.0195312 2.984375 0.078125 2.640625 0.078125 Z M 2.640625 0.078125 "/></g></g><g style="fill:#ffffff;fill-opacity:1;"><g transform="translate(109.288838, 166.741533)"><path style="stroke:none" d="M 1.5 -7.1875 C 1.34375 -7.1875 1.207031 -7.238281 1.09375 -7.34375 C 0.976562 -7.457031 0.921875 -7.59375 0.921875 -7.75 C 0.921875 -7.914062 0.976562 -8.050781 1.09375 -8.15625 C 1.207031 -8.269531 1.34375 -8.328125 1.5 -8.328125 C 1.644531 -8.328125 1.773438 -8.269531 1.890625 -8.15625 C 2.015625 -8.050781 2.078125 -7.914062 2.078125 -7.75 C 2.078125 -7.59375 2.015625 -7.457031 1.890625 -7.34375 C 1.773438 -7.238281 1.644531 -7.1875 1.5 -7.1875 Z M 1.90625 0 L 1.09375 0 L 1.09375 -5.609375 L 1.90625 -5.609375 Z M 1.90625 0 "/></g></g><g style="fill:#ffffff;fill-opacity:1;"><g transform="translate(112.280871, 166.741533)"><path style="stroke:none" d="M 3.65625 0.140625 C 3.082031 0.140625 2.566406 0.015625 2.109375 -0.234375 C 1.660156 -0.492188 1.304688 -0.847656 1.046875 -1.296875 C 0.796875 -1.742188 0.671875 -2.242188 0.671875 -2.796875 C 0.671875 -3.359375 0.796875 -3.863281 1.046875 -4.3125 C 1.304688 -4.757812 1.660156 -5.109375 2.109375 -5.359375 C 2.566406 -5.617188 3.082031 -5.75 3.65625 -5.75 C 4.226562 -5.75 4.738281 -5.617188 5.1875 -5.359375 C 5.644531 -5.109375 6 -4.757812 6.25 -4.3125 C 6.507812 -3.863281 6.640625 -3.359375 6.640625 -2.796875 C 6.640625 -2.242188 6.507812 -1.742188 6.25 -1.296875 C 6 -0.847656 5.644531 -0.492188 5.1875 -0.234375 C 4.738281 0.015625 4.226562 0.140625 3.65625 0.140625 Z M 3.65625 -0.546875 C 4.070312 -0.546875 4.441406 -0.644531 4.765625 -0.84375 C 5.085938 -1.050781 5.335938 -1.320312 5.515625 -1.65625 C 5.691406 -2 5.78125 -2.378906 5.78125 -2.796875 C 5.78125 -3.222656 5.691406 -3.609375 5.515625 -3.953125 C 5.335938 -4.296875 5.085938 -4.566406 4.765625 -4.765625 C 4.441406 -4.960938 4.070312 -5.0625 3.65625 -5.0625 C 3.226562 -5.0625 2.851562 -4.960938 2.53125 -4.765625 C 2.21875 -4.566406 1.972656 -4.296875 1.796875 -3.953125 C 1.617188 -3.609375 1.53125 -3.222656 1.53125 -2.796875 C 1.53125 -2.378906 1.617188 -2 1.796875 -1.65625 C 1.972656 -1.320312 2.21875 -1.050781 2.53125 -0.84375 C 2.851562 -0.644531 3.226562 -0.546875 3.65625 -0.546875 Z M 3.65625 -0.546875 "/></g></g><g style="fill:#ffffff;fill-opacity:1;"><g transform="translate(119.593382, 166.741533)"><path style="stroke:none" d="M 1.078125 -4.375 C 1.078125 -4.851562 1.0625 -5.265625 1.03125 -5.609375 L 1.8125 -5.609375 C 1.84375 -5.210938 1.859375 -4.890625 1.859375 -4.640625 L 1.875 -4.640625 C 1.976562 -4.859375 2.128906 -5.046875 2.328125 -5.203125 C 2.535156 -5.367188 2.765625 -5.5 3.015625 -5.59375 C 3.273438 -5.695312 3.535156 -5.75 3.796875 -5.75 C 4.484375 -5.75 5.007812 -5.539062 5.375 -5.125 C 5.738281 -4.707031 5.921875 -4.144531 5.921875 -3.4375 L 5.921875 0 L 5.109375 0 L 5.109375 -3.09375 C 5.109375 -3.726562 4.992188 -4.210938 4.765625 -4.546875 C 4.535156 -4.890625 4.144531 -5.0625 3.59375 -5.0625 C 3.289062 -5.0625 3.007812 -4.976562 2.75 -4.8125 C 2.5 -4.65625 2.289062 -4.410156 2.125 -4.078125 C 1.96875 -3.753906 1.890625 -3.351562 1.890625 -2.875 L 1.890625 0 L 1.078125 0 Z M 1.078125 -4.375 "/></g></g><g style="fill:#ffffff;fill-opacity:1;"><g transform="translate(126.546854, 166.741533)"><path style="stroke:none" d="M 2.671875 0.140625 C 2.222656 0.140625 1.800781 0.0507812 1.40625 -0.125 C 1.019531 -0.3125 0.703125 -0.585938 0.453125 -0.953125 L 1.09375 -1.421875 C 1.25 -1.171875 1.46875 -0.960938 1.75 -0.796875 C 2.03125 -0.628906 2.332031 -0.546875 2.65625 -0.546875 C 3.039062 -0.546875 3.351562 -0.625 3.59375 -0.78125 C 3.84375 -0.9375 3.96875 -1.1875 3.96875 -1.53125 C 3.96875 -1.71875 3.90625 -1.875 3.78125 -2 C 3.664062 -2.132812 3.488281 -2.25 3.25 -2.34375 C 3.019531 -2.4375 2.710938 -2.523438 2.328125 -2.609375 C 2.035156 -2.679688 1.773438 -2.765625 1.546875 -2.859375 C 1.316406 -2.960938 1.117188 -3.113281 0.953125 -3.3125 C 0.796875 -3.519531 0.71875 -3.789062 0.71875 -4.125 C 0.71875 -4.476562 0.804688 -4.773438 0.984375 -5.015625 C 1.171875 -5.265625 1.414062 -5.445312 1.71875 -5.5625 C 2.019531 -5.6875 2.351562 -5.75 2.71875 -5.75 C 3.113281 -5.75 3.492188 -5.65625 3.859375 -5.46875 C 4.234375 -5.289062 4.507812 -5.046875 4.6875 -4.734375 L 4.0625 -4.265625 C 3.9375 -4.503906 3.75 -4.695312 3.5 -4.84375 C 3.257812 -4.988281 2.988281 -5.0625 2.6875 -5.0625 C 2.351562 -5.0625 2.070312 -4.988281 1.84375 -4.84375 C 1.613281 -4.695312 1.5 -4.476562 1.5 -4.1875 C 1.5 -3.9375 1.601562 -3.738281 1.8125 -3.59375 C 2.019531 -3.445312 2.363281 -3.328125 2.84375 -3.234375 C 3.5 -3.097656 3.984375 -2.894531 4.296875 -2.625 C 4.617188 -2.363281 4.78125 -2.019531 4.78125 -1.59375 C 4.78125 -1.1875 4.675781 -0.851562 4.46875 -0.59375 C 4.269531 -0.332031 4.007812 -0.144531 3.6875 -0.03125 C 3.375 0.0820312 3.035156 0.140625 2.671875 0.140625 Z M 2.671875 0.140625 "/></g></g><g style="fill:#ffffff;fill-opacity:1;"><g transform="translate(131.860698, 166.741533)"><path style="stroke:none" d="M 1.5625 0.078125 C 1.375 0.078125 1.21875 0.015625 1.09375 -0.109375 C 0.96875 -0.242188 0.90625 -0.398438 0.90625 -0.578125 C 0.90625 -0.753906 0.96875 -0.90625 1.09375 -1.03125 C 1.21875 -1.15625 1.375 -1.21875 1.5625 -1.21875 C 1.738281 -1.21875 1.890625 -1.15625 2.015625 -1.03125 C 2.140625 -0.90625 2.203125 -0.753906 2.203125 -0.578125 C 2.203125 -0.398438 2.140625 -0.242188 2.015625 -0.109375 C 1.890625 0.015625 1.738281 0.078125 1.5625 0.078125 Z M 1.5625 0.078125 "/></g></g></g></svg>