<svg xmlns="http://www.w3.org/2000/svg" xmlns:xlink="http://www.w3.org/1999/xlink" width="300" zoomAndPan="magnify" viewBox="0 0 224.87999 225" height="300" preserveAspectRatio="xMidYMid meet" version="1.2"><defs><clipPath id="c13ccbc3cc"><path d="M 0 0.0585938 L 224.761719 0.0585938 L 224.761719 224.9375 L 0 224.9375 Z M 0 0.0585938 "/></clipPath><clipPath id="248e92031a"><path d="M 107 97 L 118 97 L 118 114.785156 L 107 114.785156 Z M 107 97 "/></clipPath><clipPath id="95f2e55f6e"><path d="M 59.96875 55 L 77 55 L 77 73 L 59.96875 73 Z M 59.96875 55 "/></clipPath><clipPath id="bd56c173c2"><path d="M 105 9.839844 L 118 9.839844 L 118 27 L 105 27 Z M 105 9.839844 "/></clipPath><clipPath id="020c554e50"><path d="M 158 53.847656 L 164.890625 53.847656 L 164.890625 70.773438 L 158 70.773438 Z M 158 53.847656 "/></clipPath></defs><g id="e97da1fc31"><g clip-rule="nonzero" clip-path="url(#c13ccbc3cc)"><path style=" stroke:none;fill-rule:nonzero;fill:#ffffff;fill-opacity:1;" d="M 0 0.0585938 L 224.878906 0.0585938 L 224.878906 224.941406 L 0 224.941406 Z M 0 0.0585938 "/><path style=" stroke:none;fill-rule:nonzero;fill:#052a47;fill-opacity:1;" d="M 0 0.0585938 L 224.878906 0.0585938 L 224.878906 224.941406 L 0 224.941406 Z M 0 0.0585938 "/></g><g clip-rule="nonzero" clip-path="url(#248e92031a)"><path style=" stroke:none;fill-rule:nonzero;fill:#ffffff;fill-opacity:1;" d="M 112.425781 101.242188 C 113.359375 101.242188 114.121094 102.003906 114.121094 102.933594 L 117.503906 102.933594 C 117.503906 100.132812 115.230469 97.859375 112.425781 97.859375 C 109.628906 97.859375 107.347656 100.132812 107.347656 102.933594 C 107.347656 105.738281 109.628906 108.011719 112.425781 108.011719 C 113.359375 108.011719 114.121094 108.773438 114.121094 109.707031 C 114.121094 110.636719 113.359375 111.398438 112.425781 111.398438 C 111.496094 111.398438 110.734375 110.636719 110.734375 109.707031 L 107.347656 109.707031 C 107.347656 112.507812 109.628906 114.785156 112.425781 114.785156 C 115.230469 114.785156 117.503906 112.507812 117.503906 109.707031 C 117.503906 106.902344 115.230469 104.628906 112.425781 104.628906 C 111.496094 104.628906 110.734375 103.867188 110.734375 102.933594 C 110.734375 102.003906 111.496094 101.242188 112.425781 101.242188 "/></g><g clip-rule="nonzero" clip-path="url(#95f2e55f6e)"><path style=" stroke:none;fill-rule:nonzero;fill:#ffffff;fill-opacity:1;" d="M 68.054688 64.300781 C 68.128906 63.957031 68.714844 63.957031 68.789062 64.300781 L 70.421875 72.46875 L 75.011719 72.46875 L 76.875 55.726562 L 73.507812 55.355469 L 72.417969 65.195312 L 72.109375 63.640625 C 71.757812 61.890625 70.203125 60.621094 68.417969 60.621094 C 66.632812 60.621094 65.085938 61.890625 64.734375 63.640625 L 64.425781 65.195312 L 63.332031 55.355469 L 59.96875 55.726562 L 61.824219 72.46875 L 66.421875 72.46875 L 68.054688 64.300781 "/></g><g clip-rule="nonzero" clip-path="url(#bd56c173c2)"><path style=" stroke:none;fill-rule:nonzero;fill:#ffffff;fill-opacity:1;" d="M 109.042969 16.351562 L 112.949219 26.765625 L 117.503906 26.765625 L 117.503906 9.839844 L 114.121094 9.839844 L 114.121094 20.253906 L 110.21875 9.839844 L 105.65625 9.839844 L 105.65625 26.765625 L 109.042969 26.765625 L 109.042969 16.351562 "/></g><g clip-rule="nonzero" clip-path="url(#020c554e50)"><path style=" stroke:none;fill-rule:nonzero;fill:#ffffff;fill-opacity:1;" d="M 164.898438 57.234375 L 164.898438 53.847656 L 158.128906 53.847656 L 158.128906 70.773438 L 164.898438 70.773438 L 164.898438 67.390625 L 161.511719 67.390625 L 161.511719 64.003906 L 164.898438 64.003906 L 164.898438 60.621094 L 161.511719 60.621094 L 161.511719 57.234375 L 164.898438 57.234375 "/></g><path style=" stroke:none;fill-rule:nonzero;fill:#ffffff;fill-opacity:1;" d="M 156.695312 73.730469 C 154.769531 81.222656 151 87.941406 145.914062 93.40625 L 141.097656 88.585938 C 144.746094 84.621094 147.601562 79.90625 149.347656 74.691406 L 146.140625 73.617188 C 142.273438 85.148438 132.527344 94.070312 120.710938 96.886719 L 121.492188 100.183594 C 127.976562 98.632812 133.894531 95.410156 138.714844 90.996094 L 143.523438 95.800781 C 137.246094 101.632812 129.347656 105.707031 120.613281 107.285156 L 121.214844 110.613281 C 140 107.21875 155.210938 93.070312 159.972656 74.578125 L 156.695312 73.730469 "/><path style=" stroke:none;fill-rule:nonzero;fill:#ffffff;fill-opacity:1;" d="M 67.757812 52.632812 C 69.515625 44.464844 73.476562 37.128906 78.949219 31.230469 L 83.75 36.03125 C 79.671875 40.480469 76.589844 45.867188 74.929688 51.820312 L 78.191406 52.730469 C 81.507812 40.84375 90.953125 31.394531 102.839844 28.074219 L 101.933594 24.816406 C 95.976562 26.476562 90.59375 29.558594 86.152344 33.636719 L 81.34375 28.835938 C 87.242188 23.355469 94.574219 19.402344 102.746094 17.636719 L 102.027344 14.328125 C 83.25 18.382812 68.492188 33.140625 64.445312 51.925781 L 67.757812 52.632812 "/><path style=" stroke:none;fill-rule:nonzero;fill:#ffffff;fill-opacity:1;" d="M 121.414062 24.417969 L 120.632812 27.71875 C 132.433594 30.507812 142.195312 39.382812 146.101562 50.878906 L 149.300781 49.796875 C 147.550781 44.632812 144.710938 39.96875 141.097656 36.035156 L 145.914062 31.214844 C 151 36.683594 154.769531 43.410156 156.695312 50.886719 L 159.972656 50.046875 C 155.226562 31.59375 140.058594 17.457031 121.328125 14.03125 L 120.71875 17.359375 C 129.40625 18.953125 137.269531 23.015625 143.523438 28.828125 L 138.714844 33.636719 C 133.871094 29.191406 127.925781 25.960938 121.414062 24.417969 "/><path style=" stroke:none;fill-rule:nonzero;fill:#ffffff;fill-opacity:1;" d="M 103.816406 100.289062 L 104.566406 96.984375 C 93.054688 94.386719 83.613281 86.253906 79.308594 75.238281 L 76.152344 76.46875 C 77.933594 81.023438 80.519531 85.128906 83.71875 88.628906 L 78.984375 93.363281 C 74.261719 88.296875 70.644531 82.175781 68.621094 75.371094 L 65.375 76.335938 C 70.613281 93.921875 85.65625 107.386719 103.699219 110.625 L 104.300781 107.292969 C 95.613281 105.730469 87.691406 101.621094 81.378906 95.753906 L 86.125 91.015625 C 91.042969 95.523438 97.105469 98.769531 103.816406 100.289062 "/><path style=" stroke:none;fill-rule:nonzero;fill:#ffffff;fill-opacity:1;" d="M 148.46875 100.746094 L 158.625 110.902344 L 161.019531 108.507812 L 150.863281 98.351562 L 148.46875 100.746094 "/><path style=" stroke:none;fill-rule:nonzero;fill:#ffffff;fill-opacity:1;" d="M 161.019531 16.113281 L 158.625 13.722656 L 148.46875 23.878906 L 150.863281 26.269531 L 161.019531 16.113281 "/><path style=" stroke:none;fill-rule:nonzero;fill:#ffffff;fill-opacity:1;" d="M 76.386719 23.878906 L 66.230469 13.722656 L 63.835938 16.113281 L 73.992188 26.269531 L 76.386719 23.878906 "/><path style=" stroke:none;fill-rule:nonzero;fill:#ffffff;fill-opacity:1;" d="M 63.835938 108.507812 L 66.230469 110.902344 L 76.386719 100.746094 L 73.992188 98.351562 L 63.835938 108.507812 "/><path style=" stroke:none;fill-rule:nonzero;fill:#ffffff;fill-opacity:1;" d="M 112.890625 90.722656 L 116.316406 77.023438 C 115.070312 77.355469 113.777344 77.546875 112.425781 77.546875 C 111.085938 77.546875 109.789062 77.355469 108.546875 77.023438 L 111.96875 90.722656 C 112.078125 91.152344 112.785156 91.152344 112.890625 90.722656 "/><path style=" stroke:none;fill-rule:nonzero;fill:#ffffff;fill-opacity:1;" d="M 107.316406 70.773438 L 104.15625 70.773438 C 105.417969 72.011719 106.957031 72.964844 108.671875 73.539062 C 108.207031 72.738281 107.746094 71.820312 107.316406 70.773438 "/><path style=" stroke:none;fill-rule:nonzero;fill:#ffffff;fill-opacity:1;" d="M 119.136719 60.621094 L 124.144531 60.621094 C 123.972656 59.421875 123.621094 58.285156 123.117188 57.234375 L 118.617188 57.234375 C 118.859375 58.292969 119.046875 59.417969 119.136719 60.621094 "/><path style=" stroke:none;fill-rule:nonzero;fill:#ffffff;fill-opacity:1;" d="M 108.671875 51.085938 C 106.957031 51.660156 105.417969 52.613281 104.15625 53.847656 L 107.316406 53.847656 C 107.746094 52.804688 108.207031 51.886719 108.671875 51.085938 "/><path style=" stroke:none;fill-rule:nonzero;fill:#ffffff;fill-opacity:1;" d="M 124.488281 53.035156 L 127.265625 47.476562 L 121.703125 50.257812 C 122.746094 51.058594 123.679688 51.992188 124.488281 53.035156 "/><path style=" stroke:none;fill-rule:nonzero;fill:#ffffff;fill-opacity:1;" d="M 100.375 71.589844 L 97.597656 77.148438 L 103.148438 74.367188 C 102.113281 73.566406 101.179688 72.632812 100.375 71.589844 "/><path style=" stroke:none;fill-rule:nonzero;fill:#ffffff;fill-opacity:1;" d="M 106.246094 57.234375 L 101.742188 57.234375 C 101.238281 58.285156 100.890625 59.421875 100.71875 60.621094 L 105.722656 60.621094 C 105.816406 59.417969 106 58.292969 106.246094 57.234375 "/><path style=" stroke:none;fill-rule:nonzero;fill:#ffffff;fill-opacity:1;" d="M 84.015625 61.847656 C 83.804688 61.902344 83.652344 62.09375 83.652344 62.3125 C 83.652344 62.53125 83.804688 62.722656 84.015625 62.773438 L 97.714844 66.199219 C 97.382812 64.957031 97.191406 63.652344 97.191406 62.3125 C 97.191406 60.96875 97.382812 59.667969 97.714844 58.425781 L 84.015625 61.847656 "/><path style=" stroke:none;fill-rule:nonzero;fill:#ffffff;fill-opacity:1;" d="M 105.722656 64.003906 L 100.71875 64.003906 C 100.890625 65.203125 101.238281 66.339844 101.742188 67.390625 L 106.246094 67.390625 C 106 66.332031 105.816406 65.207031 105.722656 64.003906 "/><path style=" stroke:none;fill-rule:nonzero;fill:#ffffff;fill-opacity:1;" d="M 117.542969 53.847656 L 120.703125 53.847656 C 119.441406 52.613281 117.902344 51.660156 116.1875 51.085938 C 116.644531 51.886719 117.113281 52.804688 117.542969 53.847656 "/><path style=" stroke:none;fill-rule:nonzero;fill:#ffffff;fill-opacity:1;" d="M 117.542969 70.773438 C 117.113281 71.820312 116.644531 72.738281 116.1875 73.539062 C 117.902344 72.964844 119.441406 72.011719 120.703125 70.773438 L 117.542969 70.773438 "/><path style=" stroke:none;fill-rule:nonzero;fill:#ffffff;fill-opacity:1;" d="M 124.488281 71.589844 C 123.679688 72.632812 122.746094 73.566406 121.703125 74.367188 L 127.265625 77.148438 L 124.488281 71.589844 "/><path style=" stroke:none;fill-rule:nonzero;fill:#ffffff;fill-opacity:1;" d="M 111.96875 33.902344 L 108.546875 47.601562 C 109.789062 47.269531 111.085938 47.078125 112.425781 47.078125 C 113.777344 47.078125 115.070312 47.269531 116.316406 47.601562 L 112.890625 33.902344 C 112.785156 33.472656 112.078125 33.472656 111.96875 33.902344 "/><path style=" stroke:none;fill-rule:nonzero;fill:#ffffff;fill-opacity:1;" d="M 141.203125 62.3125 C 141.203125 62.09375 141.054688 61.902344 140.84375 61.847656 L 127.136719 58.425781 C 127.46875 59.667969 127.660156 60.96875 127.660156 62.3125 C 127.660156 63.652344 127.46875 64.957031 127.136719 66.199219 L 140.84375 62.773438 C 141.054688 62.722656 141.203125 62.53125 141.203125 62.3125 "/><path style=" stroke:none;fill-rule:nonzero;fill:#ffffff;fill-opacity:1;" d="M 100.375 53.035156 C 101.179688 51.992188 102.113281 51.058594 103.148438 50.257812 L 97.597656 47.476562 L 100.375 53.035156 "/><path style=" stroke:none;fill-rule:nonzero;fill:#ffffff;fill-opacity:1;" d="M 124.144531 64.003906 L 119.136719 64.003906 C 119.046875 65.207031 118.859375 66.332031 118.617188 67.390625 L 123.117188 67.390625 C 123.621094 66.339844 123.972656 65.203125 124.144531 64.003906 "/><path style=" stroke:none;fill-rule:nonzero;fill:#ffffff;fill-opacity:1;" d="M 111.042969 53.847656 L 113.816406 53.847656 C 113.339844 52.898438 112.855469 52.101562 112.425781 51.488281 C 112.003906 52.101562 111.519531 52.898438 111.042969 53.847656 "/><path style=" stroke:none;fill-rule:nonzero;fill:#ffffff;fill-opacity:1;" d="M 109.128906 60.621094 L 115.734375 60.621094 C 115.621094 59.402344 115.410156 58.265625 115.117188 57.234375 L 109.742188 57.234375 C 109.453125 58.265625 109.238281 59.402344 109.128906 60.621094 "/><path style=" stroke:none;fill-rule:nonzero;fill:#ffffff;fill-opacity:1;" d="M 113.816406 70.773438 L 111.042969 70.773438 C 111.519531 71.726562 112.003906 72.519531 112.425781 73.136719 C 112.855469 72.519531 113.339844 71.734375 113.816406 70.773438 "/><path style=" stroke:none;fill-rule:nonzero;fill:#ffffff;fill-opacity:1;" d="M 115.117188 67.390625 C 115.410156 66.359375 115.621094 65.222656 115.734375 64.003906 L 109.128906 64.003906 C 109.238281 65.222656 109.453125 66.359375 109.742188 67.390625 L 115.117188 67.390625 "/><g style="fill:#ffffff;fill-opacity:1;"><g transform="translate(39.307147, 154.452655)"><path style="stroke:none" d="M 15.25 0 L 2.625 0 L 2.625 -19.8125 L 14.921875 -19.8125 L 14.921875 -18.015625 L 4.640625 -18.015625 L 4.640625 -11.1875 L 14.25 -11.1875 L 14.25 -9.4375 L 4.640625 -9.4375 L 4.640625 -1.796875 L 15.25 -1.796875 Z M 15.25 0 "/></g></g><g style="fill:#ffffff;fill-opacity:1;"><g transform="translate(55.872052, 154.452655)"><path style="stroke:none" d="M 2.75 0 L 0.453125 0 L 5.59375 -6.765625 L 0.75 -13.125 L 3.1875 -13.125 L 6.765625 -8.109375 L 10.359375 -13.125 L 12.65625 -13.125 L 7.890625 -6.859375 L 13.09375 0 L 10.640625 0 L 6.75 -5.453125 Z M 2.75 0 "/></g></g><g style="fill:#ffffff;fill-opacity:1;"><g transform="translate(69.414972, 154.452655)"><path style="stroke:none" d="M 2.515625 6.71875 L 2.515625 -13.125 L 4.421875 -13.125 L 4.421875 -10.828125 L 4.5 -10.828125 C 5.019531 -11.648438 5.726562 -12.289062 6.625 -12.75 C 7.519531 -13.207031 8.457031 -13.4375 9.4375 -13.4375 C 10.757812 -13.4375 11.9375 -13.128906 12.96875 -12.515625 C 14.007812 -11.910156 14.804688 -11.085938 15.359375 -10.046875 C 15.921875 -9.003906 16.203125 -7.835938 16.203125 -6.546875 C 16.203125 -5.265625 15.921875 -4.097656 15.359375 -3.046875 C 14.804688 -2.003906 14.007812 -1.179688 12.96875 -0.578125 C 11.9375 0.0234375 10.757812 0.328125 9.4375 0.328125 C 8.476562 0.328125 7.550781 0.109375 6.65625 -0.328125 C 5.757812 -0.773438 5.039062 -1.398438 4.5 -2.203125 L 4.421875 -2.203125 L 4.421875 6.71875 Z M 9.234375 -1.28125 C 10.265625 -1.28125 11.148438 -1.515625 11.890625 -1.984375 C 12.640625 -2.453125 13.207031 -3.082031 13.59375 -3.875 C 13.988281 -4.664062 14.1875 -5.554688 14.1875 -6.546875 C 14.1875 -7.535156 13.988281 -8.429688 13.59375 -9.234375 C 13.207031 -10.035156 12.640625 -10.671875 11.890625 -11.140625 C 11.148438 -11.609375 10.265625 -11.84375 9.234375 -11.84375 C 8.265625 -11.84375 7.394531 -11.609375 6.625 -11.140625 C 5.863281 -10.671875 5.269531 -10.035156 4.84375 -9.234375 C 4.414062 -8.429688 4.203125 -7.535156 4.203125 -6.546875 C 4.203125 -5.554688 4.414062 -4.660156 4.84375 -3.859375 C 5.269531 -3.054688 5.863281 -2.425781 6.625 -1.96875 C 7.394531 -1.507812 8.265625 -1.28125 9.234375 -1.28125 Z M 9.234375 -1.28125 "/></g></g><g style="fill:#ffffff;fill-opacity:1;"><g transform="translate(87.183062, 154.452655)"><path style="stroke:none" d="M 4.484375 0 L 2.578125 0 L 2.578125 -21.15625 L 4.484375 -21.15625 Z M 4.484375 0 "/></g></g><g style="fill:#ffffff;fill-opacity:1;"><g transform="translate(94.234341, 154.452655)"><path style="stroke:none" d="M 8.53125 0.328125 C 7.207031 0.328125 6.015625 0.03125 4.953125 -0.5625 C 3.890625 -1.15625 3.054688 -1.972656 2.453125 -3.015625 C 1.859375 -4.066406 1.5625 -5.242188 1.5625 -6.546875 C 1.5625 -7.847656 1.859375 -9.019531 2.453125 -10.0625 C 3.054688 -11.113281 3.890625 -11.9375 4.953125 -12.53125 C 6.015625 -13.132812 7.207031 -13.4375 8.53125 -13.4375 C 9.875 -13.4375 11.078125 -13.132812 12.140625 -12.53125 C 13.203125 -11.9375 14.03125 -11.113281 14.625 -10.0625 C 15.226562 -9.019531 15.53125 -7.847656 15.53125 -6.546875 C 15.53125 -5.242188 15.226562 -4.066406 14.625 -3.015625 C 14.03125 -1.972656 13.203125 -1.15625 12.140625 -0.5625 C 11.078125 0.03125 9.875 0.328125 8.53125 0.328125 Z M 8.53125 -1.28125 C 9.519531 -1.28125 10.390625 -1.515625 11.140625 -1.984375 C 11.898438 -2.453125 12.484375 -3.082031 12.890625 -3.875 C 13.304688 -4.664062 13.515625 -5.554688 13.515625 -6.546875 C 13.515625 -7.535156 13.304688 -8.429688 12.890625 -9.234375 C 12.484375 -10.035156 11.898438 -10.671875 11.140625 -11.140625 C 10.390625 -11.609375 9.519531 -11.84375 8.53125 -11.84375 C 7.539062 -11.84375 6.671875 -11.609375 5.921875 -11.140625 C 5.179688 -10.671875 4.601562 -10.035156 4.1875 -9.234375 C 3.78125 -8.429688 3.578125 -7.535156 3.578125 -6.546875 C 3.578125 -5.554688 3.78125 -4.664062 4.1875 -3.875 C 4.601562 -3.082031 5.179688 -2.453125 5.921875 -1.984375 C 6.671875 -1.515625 7.539062 -1.28125 8.53125 -1.28125 Z M 8.53125 -1.28125 "/></g></g><g style="fill:#ffffff;fill-opacity:1;"><g transform="translate(111.330883, 154.452655)"><path style="stroke:none" d="M 2.515625 -10.21875 C 2.515625 -11.351562 2.476562 -12.320312 2.40625 -13.125 L 4.21875 -13.125 C 4.300781 -12.1875 4.34375 -11.429688 4.34375 -10.859375 L 4.390625 -10.859375 C 4.765625 -11.617188 5.328125 -12.238281 6.078125 -12.71875 C 6.835938 -13.195312 7.675781 -13.4375 8.59375 -13.4375 C 9.09375 -13.4375 9.507812 -13.390625 9.84375 -13.296875 L 9.59375 -11.5 C 9.488281 -11.539062 9.300781 -11.578125 9.03125 -11.609375 C 8.757812 -11.648438 8.5 -11.671875 8.25 -11.671875 C 7.539062 -11.671875 6.894531 -11.492188 6.3125 -11.140625 C 5.738281 -10.785156 5.28125 -10.238281 4.9375 -9.5 C 4.59375 -8.757812 4.421875 -7.832031 4.421875 -6.71875 L 4.421875 0 L 2.515625 0 Z M 2.515625 -10.21875 "/></g></g><g style="fill:#ffffff;fill-opacity:1;"><g transform="translate(121.404136, 154.452655)"><path style="stroke:none" d="M 6.078125 0.328125 C 5.347656 0.328125 4.632812 0.195312 3.9375 -0.0625 C 3.25 -0.332031 2.675781 -0.765625 2.21875 -1.359375 C 1.769531 -1.960938 1.546875 -2.722656 1.546875 -3.640625 C 1.546875 -4.890625 1.945312 -5.832031 2.75 -6.46875 C 3.5625 -7.113281 4.609375 -7.535156 5.890625 -7.734375 C 7.171875 -7.929688 8.757812 -8.03125 10.65625 -8.03125 L 10.78125 -8.03125 L 10.78125 -8.453125 C 10.78125 -9.566406 10.476562 -10.410156 9.875 -10.984375 C 9.28125 -11.554688 8.414062 -11.84375 7.28125 -11.84375 C 6.53125 -11.84375 5.804688 -11.703125 5.109375 -11.421875 C 4.421875 -11.140625 3.847656 -10.765625 3.390625 -10.296875 L 2.328125 -11.5625 C 2.878906 -12.113281 3.601562 -12.5625 4.5 -12.90625 C 5.394531 -13.257812 6.382812 -13.4375 7.46875 -13.4375 C 8.4375 -13.4375 9.300781 -13.257812 10.0625 -12.90625 C 10.832031 -12.550781 11.441406 -12.015625 11.890625 -11.296875 C 12.335938 -10.578125 12.5625 -9.703125 12.5625 -8.671875 L 12.5625 -2.9375 C 12.5625 -2.414062 12.578125 -1.882812 12.609375 -1.34375 C 12.648438 -0.800781 12.707031 -0.351562 12.78125 0 L 11.078125 0 C 10.953125 -0.75 10.890625 -1.457031 10.890625 -2.125 L 10.828125 -2.125 C 10.234375 -1.269531 9.554688 -0.644531 8.796875 -0.25 C 8.046875 0.132812 7.140625 0.328125 6.078125 0.328125 Z M 6.578125 -1.234375 C 7.429688 -1.234375 8.175781 -1.425781 8.8125 -1.8125 C 9.445312 -2.207031 9.929688 -2.734375 10.265625 -3.390625 C 10.609375 -4.054688 10.78125 -4.78125 10.78125 -5.5625 L 10.78125 -6.546875 L 10.21875 -6.546875 C 8.238281 -6.546875 6.625 -6.351562 5.375 -5.96875 C 4.125 -5.59375 3.5 -4.84375 3.5 -3.71875 C 3.5 -2.863281 3.796875 -2.234375 4.390625 -1.828125 C 4.984375 -1.429688 5.710938 -1.234375 6.578125 -1.234375 Z M 6.578125 -1.234375 "/></g></g><g style="fill:#ffffff;fill-opacity:1;"><g transform="translate(136.346128, 154.452655)"><path style="stroke:none" d="M 6.1875 0.171875 C 5.289062 0.171875 4.503906 -0.0859375 3.828125 -0.609375 C 3.160156 -1.140625 2.828125 -2.046875 2.828125 -3.328125 L 2.828125 -11.53125 L 0.109375 -11.53125 L 0.109375 -13.125 L 2.828125 -13.125 L 2.828125 -16.796875 L 4.734375 -16.796875 L 4.734375 -13.125 L 8.421875 -13.125 L 8.421875 -11.53125 L 4.734375 -11.53125 L 4.734375 -3.859375 C 4.734375 -2.941406 4.898438 -2.3125 5.234375 -1.96875 C 5.566406 -1.625 6.050781 -1.453125 6.6875 -1.453125 C 6.945312 -1.453125 7.222656 -1.488281 7.515625 -1.5625 C 7.804688 -1.632812 8.082031 -1.738281 8.34375 -1.875 L 8.421875 -0.21875 C 7.734375 0.0390625 6.988281 0.171875 6.1875 0.171875 Z M 6.1875 0.171875 "/></g></g><g style="fill:#ffffff;fill-opacity:1;"><g transform="translate(145.216184, 154.452655)"><path style="stroke:none" d="M 3.5 -16.796875 C 3.144531 -16.796875 2.832031 -16.925781 2.5625 -17.1875 C 2.289062 -17.445312 2.15625 -17.765625 2.15625 -18.140625 C 2.15625 -18.503906 2.289062 -18.816406 2.5625 -19.078125 C 2.832031 -19.347656 3.144531 -19.484375 3.5 -19.484375 C 3.851562 -19.484375 4.164062 -19.347656 4.4375 -19.078125 C 4.707031 -18.816406 4.84375 -18.503906 4.84375 -18.140625 C 4.84375 -17.765625 4.707031 -17.445312 4.4375 -17.1875 C 4.164062 -16.925781 3.851562 -16.796875 3.5 -16.796875 Z M 4.453125 0 L 2.546875 0 L 2.546875 -13.125 L 4.453125 -13.125 Z M 4.453125 0 "/></g></g><g style="fill:#ffffff;fill-opacity:1;"><g transform="translate(152.211497, 154.452655)"><path style="stroke:none" d="M 8.53125 0.328125 C 7.207031 0.328125 6.015625 0.03125 4.953125 -0.5625 C 3.890625 -1.15625 3.054688 -1.972656 2.453125 -3.015625 C 1.859375 -4.066406 1.5625 -5.242188 1.5625 -6.546875 C 1.5625 -7.847656 1.859375 -9.019531 2.453125 -10.0625 C 3.054688 -11.113281 3.890625 -11.9375 4.953125 -12.53125 C 6.015625 -13.132812 7.207031 -13.4375 8.53125 -13.4375 C 9.875 -13.4375 11.078125 -13.132812 12.140625 -12.53125 C 13.203125 -11.9375 14.03125 -11.113281 14.625 -10.0625 C 15.226562 -9.019531 15.53125 -7.847656 15.53125 -6.546875 C 15.53125 -5.242188 15.226562 -4.066406 14.625 -3.015625 C 14.03125 -1.972656 13.203125 -1.15625 12.140625 -0.5625 C 11.078125 0.03125 9.875 0.328125 8.53125 0.328125 Z M 8.53125 -1.28125 C 9.519531 -1.28125 10.390625 -1.515625 11.140625 -1.984375 C 11.898438 -2.453125 12.484375 -3.082031 12.890625 -3.875 C 13.304688 -4.664062 13.515625 -5.554688 13.515625 -6.546875 C 13.515625 -7.535156 13.304688 -8.429688 12.890625 -9.234375 C 12.484375 -10.035156 11.898438 -10.671875 11.140625 -11.140625 C 10.390625 -11.609375 9.519531 -11.84375 8.53125 -11.84375 C 7.539062 -11.84375 6.671875 -11.609375 5.921875 -11.140625 C 5.179688 -10.671875 4.601562 -10.035156 4.1875 -9.234375 C 3.78125 -8.429688 3.578125 -7.535156 3.578125 -6.546875 C 3.578125 -5.554688 3.78125 -4.664062 4.1875 -3.875 C 4.601562 -3.082031 5.179688 -2.453125 5.921875 -1.984375 C 6.671875 -1.515625 7.539062 -1.28125 8.53125 -1.28125 Z M 8.53125 -1.28125 "/></g></g><g style="fill:#ffffff;fill-opacity:1;"><g transform="translate(169.308039, 154.452655)"><path style="stroke:none" d="M 2.515625 -10.21875 C 2.515625 -11.351562 2.476562 -12.320312 2.40625 -13.125 L 4.21875 -13.125 C 4.300781 -12.1875 4.34375 -11.429688 4.34375 -10.859375 L 4.390625 -10.859375 C 4.628906 -11.359375 4.984375 -11.800781 5.453125 -12.1875 C 5.921875 -12.570312 6.453125 -12.875 7.046875 -13.09375 C 7.648438 -13.320312 8.257812 -13.4375 8.875 -13.4375 C 10.5 -13.4375 11.734375 -12.945312 12.578125 -11.96875 C 13.429688 -11 13.859375 -9.6875 13.859375 -8.03125 L 13.859375 0 L 11.953125 0 L 11.953125 -7.25 C 11.953125 -8.71875 11.6875 -9.847656 11.15625 -10.640625 C 10.625 -11.441406 9.703125 -11.84375 8.390625 -11.84375 C 7.679688 -11.84375 7.03125 -11.648438 6.4375 -11.265625 C 5.84375 -10.878906 5.359375 -10.300781 4.984375 -9.53125 C 4.609375 -8.769531 4.421875 -7.832031 4.421875 -6.71875 L 4.421875 0 L 2.515625 0 Z M 2.515625 -10.21875 "/></g></g><g style="fill:#ffffff;fill-opacity:1;"><g transform="translate(46.053547, 183.403872)"><path style="stroke:none" d="M 1.125 0 L 1.125 -8.5 L 3.953125 -8.5 C 4.679688 -8.5 5.390625 -8.335938 6.078125 -8.015625 C 6.765625 -7.691406 7.320312 -7.207031 7.75 -6.5625 C 8.1875 -5.914062 8.40625 -5.144531 8.40625 -4.25 C 8.40625 -3.351562 8.1875 -2.582031 7.75 -1.9375 C 7.320312 -1.289062 6.765625 -0.804688 6.078125 -0.484375 C 5.390625 -0.160156 4.679688 0 3.953125 0 Z M 3.703125 -0.765625 C 4.523438 -0.765625 5.21875 -0.925781 5.78125 -1.25 C 6.351562 -1.582031 6.78125 -2.015625 7.0625 -2.546875 C 7.351562 -3.078125 7.5 -3.644531 7.5 -4.25 C 7.5 -4.851562 7.351562 -5.421875 7.0625 -5.953125 C 6.78125 -6.484375 6.351562 -6.910156 5.78125 -7.234375 C 5.21875 -7.566406 4.523438 -7.734375 3.703125 -7.734375 L 1.984375 -7.734375 L 1.984375 -0.765625 Z M 3.703125 -0.765625 "/></g></g><g style="fill:#ffffff;fill-opacity:1;"><g transform="translate(55.132724, 183.403872)"><path style="stroke:none" d="M 1.5 -7.203125 C 1.34375 -7.203125 1.207031 -7.253906 1.09375 -7.359375 C 0.976562 -7.472656 0.921875 -7.613281 0.921875 -7.78125 C 0.921875 -7.9375 0.976562 -8.070312 1.09375 -8.1875 C 1.207031 -8.300781 1.34375 -8.359375 1.5 -8.359375 C 1.65625 -8.359375 1.789062 -8.300781 1.90625 -8.1875 C 2.019531 -8.070312 2.078125 -7.9375 2.078125 -7.78125 C 2.078125 -7.613281 2.019531 -7.472656 1.90625 -7.359375 C 1.789062 -7.253906 1.65625 -7.203125 1.5 -7.203125 Z M 1.90625 0 L 1.09375 0 L 1.09375 -5.625 L 1.90625 -5.625 Z M 1.90625 0 "/></g></g><g style="fill:#ffffff;fill-opacity:1;"><g transform="translate(58.131135, 183.403872)"><path style="stroke:none" d="M 2.671875 0.140625 C 2.222656 0.140625 1.800781 0.0507812 1.40625 -0.125 C 1.019531 -0.3125 0.703125 -0.585938 0.453125 -0.953125 L 1.109375 -1.421875 C 1.253906 -1.171875 1.46875 -0.960938 1.75 -0.796875 C 2.039062 -0.628906 2.34375 -0.546875 2.65625 -0.546875 C 3.039062 -0.546875 3.359375 -0.625 3.609375 -0.78125 C 3.859375 -0.9375 3.984375 -1.1875 3.984375 -1.53125 C 3.984375 -1.726562 3.921875 -1.890625 3.796875 -2.015625 C 3.671875 -2.140625 3.492188 -2.25 3.265625 -2.34375 C 3.035156 -2.4375 2.722656 -2.523438 2.328125 -2.609375 C 2.035156 -2.679688 1.773438 -2.769531 1.546875 -2.875 C 1.328125 -2.976562 1.132812 -3.128906 0.96875 -3.328125 C 0.800781 -3.535156 0.71875 -3.800781 0.71875 -4.125 C 0.71875 -4.488281 0.804688 -4.789062 0.984375 -5.03125 C 1.171875 -5.28125 1.414062 -5.460938 1.71875 -5.578125 C 2.03125 -5.703125 2.363281 -5.765625 2.71875 -5.765625 C 3.125 -5.765625 3.507812 -5.671875 3.875 -5.484375 C 4.238281 -5.304688 4.507812 -5.0625 4.6875 -4.75 L 4.0625 -4.28125 C 3.945312 -4.519531 3.765625 -4.710938 3.515625 -4.859375 C 3.265625 -5.003906 2.988281 -5.078125 2.6875 -5.078125 C 2.363281 -5.078125 2.082031 -5 1.84375 -4.84375 C 1.613281 -4.695312 1.5 -4.484375 1.5 -4.203125 C 1.5 -3.941406 1.601562 -3.738281 1.8125 -3.59375 C 2.019531 -3.457031 2.363281 -3.335938 2.84375 -3.234375 C 3.507812 -3.097656 4 -2.898438 4.3125 -2.640625 C 4.625 -2.378906 4.78125 -2.03125 4.78125 -1.59375 C 4.78125 -1.1875 4.679688 -0.851562 4.484375 -0.59375 C 4.285156 -0.332031 4.023438 -0.144531 3.703125 -0.03125 C 3.390625 0.0820312 3.046875 0.140625 2.671875 0.140625 Z M 2.671875 0.140625 "/></g></g><g style="fill:#ffffff;fill-opacity:1;"><g transform="translate(63.456307, 183.403872)"><path style="stroke:none" d="M 3.671875 0.140625 C 3.078125 0.140625 2.550781 0.015625 2.09375 -0.234375 C 1.644531 -0.492188 1.296875 -0.847656 1.046875 -1.296875 C 0.796875 -1.742188 0.671875 -2.25 0.671875 -2.8125 C 0.671875 -3.363281 0.796875 -3.863281 1.046875 -4.3125 C 1.296875 -4.757812 1.644531 -5.113281 2.09375 -5.375 C 2.550781 -5.632812 3.078125 -5.765625 3.671875 -5.765625 C 4.066406 -5.765625 4.453125 -5.675781 4.828125 -5.5 C 5.210938 -5.332031 5.523438 -5.09375 5.765625 -4.78125 L 5.125 -4.328125 C 4.988281 -4.546875 4.789062 -4.722656 4.53125 -4.859375 C 4.269531 -5.003906 3.988281 -5.078125 3.6875 -5.078125 C 3.257812 -5.078125 2.878906 -4.976562 2.546875 -4.78125 C 2.222656 -4.582031 1.972656 -4.304688 1.796875 -3.953125 C 1.617188 -3.609375 1.53125 -3.226562 1.53125 -2.8125 C 1.53125 -2.382812 1.617188 -2 1.796875 -1.65625 C 1.972656 -1.3125 2.222656 -1.039062 2.546875 -0.84375 C 2.867188 -0.644531 3.242188 -0.546875 3.671875 -0.546875 C 4.316406 -0.546875 4.828125 -0.789062 5.203125 -1.28125 L 5.8125 -0.828125 C 5.28125 -0.179688 4.566406 0.140625 3.671875 0.140625 Z M 3.671875 0.140625 "/></g></g><g style="fill:#ffffff;fill-opacity:1;"><g transform="translate(69.453118, 183.403872)"><path style="stroke:none" d="M 3.65625 0.140625 C 3.09375 0.140625 2.582031 0.015625 2.125 -0.234375 C 1.664062 -0.492188 1.304688 -0.847656 1.046875 -1.296875 C 0.796875 -1.742188 0.671875 -2.25 0.671875 -2.8125 C 0.671875 -3.363281 0.796875 -3.863281 1.046875 -4.3125 C 1.304688 -4.757812 1.664062 -5.113281 2.125 -5.375 C 2.582031 -5.632812 3.09375 -5.765625 3.65625 -5.765625 C 4.238281 -5.765625 4.753906 -5.632812 5.203125 -5.375 C 5.660156 -5.113281 6.015625 -4.757812 6.265625 -4.3125 C 6.523438 -3.863281 6.65625 -3.363281 6.65625 -2.8125 C 6.65625 -2.25 6.523438 -1.742188 6.265625 -1.296875 C 6.015625 -0.847656 5.660156 -0.492188 5.203125 -0.234375 C 4.753906 0.015625 4.238281 0.140625 3.65625 0.140625 Z M 3.65625 -0.546875 C 4.082031 -0.546875 4.457031 -0.644531 4.78125 -0.84375 C 5.101562 -1.050781 5.351562 -1.320312 5.53125 -1.65625 C 5.707031 -2 5.796875 -2.382812 5.796875 -2.8125 C 5.796875 -3.226562 5.707031 -3.609375 5.53125 -3.953125 C 5.351562 -4.296875 5.101562 -4.566406 4.78125 -4.765625 C 4.457031 -4.972656 4.082031 -5.078125 3.65625 -5.078125 C 3.238281 -5.078125 2.867188 -4.972656 2.546875 -4.765625 C 2.222656 -4.566406 1.972656 -4.296875 1.796875 -3.953125 C 1.617188 -3.609375 1.53125 -3.226562 1.53125 -2.8125 C 1.53125 -2.382812 1.617188 -2 1.796875 -1.65625 C 1.972656 -1.320312 2.222656 -1.050781 2.546875 -0.84375 C 2.867188 -0.644531 3.238281 -0.546875 3.65625 -0.546875 Z M 3.65625 -0.546875 "/></g></g><g style="fill:#ffffff;fill-opacity:1;"><g transform="translate(76.781219, 183.403872)"><path style="stroke:none" d="M 3.390625 0 L 2.484375 0 L 0.1875 -5.625 L 1.109375 -5.625 L 2.921875 -0.859375 L 2.953125 -0.859375 L 4.78125 -5.625 L 5.65625 -5.625 Z M 3.390625 0 "/></g></g><g style="fill:#ffffff;fill-opacity:1;"><g transform="translate(82.634106, 183.403872)"><path style="stroke:none" d="M 3.578125 0.140625 C 3.023438 0.140625 2.523438 0.015625 2.078125 -0.234375 C 1.640625 -0.492188 1.296875 -0.847656 1.046875 -1.296875 C 0.796875 -1.742188 0.671875 -2.25 0.671875 -2.8125 C 0.671875 -3.363281 0.796875 -3.863281 1.046875 -4.3125 C 1.296875 -4.757812 1.632812 -5.113281 2.0625 -5.375 C 2.5 -5.632812 2.976562 -5.765625 3.5 -5.765625 C 4.070312 -5.765625 4.554688 -5.640625 4.953125 -5.390625 C 5.359375 -5.148438 5.664062 -4.816406 5.875 -4.390625 C 6.082031 -3.960938 6.1875 -3.488281 6.1875 -2.96875 C 6.1875 -2.8125 6.1875 -2.6875 6.1875 -2.59375 L 1.53125 -2.59375 C 1.53125 -2.21875 1.617188 -1.875 1.796875 -1.5625 C 1.984375 -1.257812 2.234375 -1.015625 2.546875 -0.828125 C 2.859375 -0.640625 3.203125 -0.546875 3.578125 -0.546875 C 3.960938 -0.546875 4.316406 -0.640625 4.640625 -0.828125 C 4.960938 -1.015625 5.207031 -1.25 5.375 -1.53125 L 5.984375 -1.046875 C 5.359375 -0.253906 4.554688 0.140625 3.578125 0.140625 Z M 5.359375 -3.234375 C 5.347656 -3.597656 5.265625 -3.914062 5.109375 -4.1875 C 4.960938 -4.46875 4.75 -4.6875 4.46875 -4.84375 C 4.195312 -5 3.875 -5.078125 3.5 -5.078125 C 3.144531 -5.078125 2.820312 -4.992188 2.53125 -4.828125 C 2.238281 -4.660156 2.003906 -4.429688 1.828125 -4.140625 C 1.660156 -3.859375 1.5625 -3.554688 1.53125 -3.234375 Z M 5.359375 -3.234375 "/></g></g><g style="fill:#ffffff;fill-opacity:1;"><g transform="translate(89.494462, 183.403872)"><path style="stroke:none" d="M 1.078125 -4.375 C 1.078125 -4.863281 1.0625 -5.28125 1.03125 -5.625 L 1.8125 -5.625 C 1.84375 -5.226562 1.859375 -4.90625 1.859375 -4.65625 L 1.890625 -4.65625 C 2.046875 -4.976562 2.285156 -5.242188 2.609375 -5.453125 C 2.929688 -5.660156 3.289062 -5.765625 3.6875 -5.765625 C 3.90625 -5.765625 4.082031 -5.742188 4.21875 -5.703125 L 4.109375 -4.9375 C 4.066406 -4.945312 3.988281 -4.957031 3.875 -4.96875 C 3.757812 -4.988281 3.648438 -5 3.546875 -5 C 3.234375 -5 2.953125 -4.921875 2.703125 -4.765625 C 2.460938 -4.617188 2.265625 -4.382812 2.109375 -4.0625 C 1.960938 -3.75 1.890625 -3.351562 1.890625 -2.875 L 1.890625 0 L 1.078125 0 Z M 1.078125 -4.375 "/></g></g><g style="fill:#ffffff;fill-opacity:1;"><g transform="translate(93.812165, 183.403872)"><path style="stroke:none" d=""/></g></g><g style="fill:#ffffff;fill-opacity:1;"><g transform="translate(96.810576, 183.403872)"><path style="stroke:none" d="M 1.078125 -4.375 C 1.078125 -4.863281 1.0625 -5.28125 1.03125 -5.625 L 1.8125 -5.625 C 1.84375 -5.226562 1.859375 -4.90625 1.859375 -4.65625 L 1.890625 -4.65625 C 1.992188 -4.875 2.144531 -5.0625 2.34375 -5.21875 C 2.539062 -5.382812 2.765625 -5.515625 3.015625 -5.609375 C 3.273438 -5.710938 3.535156 -5.765625 3.796875 -5.765625 C 4.492188 -5.765625 5.023438 -5.554688 5.390625 -5.140625 C 5.753906 -4.722656 5.9375 -4.15625 5.9375 -3.4375 L 5.9375 0 L 5.125 0 L 5.125 -3.109375 C 5.125 -3.742188 5.007812 -4.226562 4.78125 -4.5625 C 4.550781 -4.90625 4.15625 -5.078125 3.59375 -5.078125 C 3.289062 -5.078125 3.007812 -4.992188 2.75 -4.828125 C 2.5 -4.660156 2.289062 -4.410156 2.125 -4.078125 C 1.96875 -3.753906 1.890625 -3.351562 1.890625 -2.875 L 1.890625 0 L 1.078125 0 Z M 1.078125 -4.375 "/></g></g><g style="fill:#ffffff;fill-opacity:1;"><g transform="translate(103.778872, 183.403872)"><path style="stroke:none" d="M 3.578125 0.140625 C 3.023438 0.140625 2.523438 0.015625 2.078125 -0.234375 C 1.640625 -0.492188 1.296875 -0.847656 1.046875 -1.296875 C 0.796875 -1.742188 0.671875 -2.25 0.671875 -2.8125 C 0.671875 -3.363281 0.796875 -3.863281 1.046875 -4.3125 C 1.296875 -4.757812 1.632812 -5.113281 2.0625 -5.375 C 2.5 -5.632812 2.976562 -5.765625 3.5 -5.765625 C 4.070312 -5.765625 4.554688 -5.640625 4.953125 -5.390625 C 5.359375 -5.148438 5.664062 -4.816406 5.875 -4.390625 C 6.082031 -3.960938 6.1875 -3.488281 6.1875 -2.96875 C 6.1875 -2.8125 6.1875 -2.6875 6.1875 -2.59375 L 1.53125 -2.59375 C 1.53125 -2.21875 1.617188 -1.875 1.796875 -1.5625 C 1.984375 -1.257812 2.234375 -1.015625 2.546875 -0.828125 C 2.859375 -0.640625 3.203125 -0.546875 3.578125 -0.546875 C 3.960938 -0.546875 4.316406 -0.640625 4.640625 -0.828125 C 4.960938 -1.015625 5.207031 -1.25 5.375 -1.53125 L 5.984375 -1.046875 C 5.359375 -0.253906 4.554688 0.140625 3.578125 0.140625 Z M 5.359375 -3.234375 C 5.347656 -3.597656 5.265625 -3.914062 5.109375 -4.1875 C 4.960938 -4.46875 4.75 -4.6875 4.46875 -4.84375 C 4.195312 -5 3.875 -5.078125 3.5 -5.078125 C 3.144531 -5.078125 2.820312 -4.992188 2.53125 -4.828125 C 2.238281 -4.660156 2.003906 -4.429688 1.828125 -4.140625 C 1.660156 -3.859375 1.5625 -3.554688 1.53125 -3.234375 Z M 5.359375 -3.234375 "/></g></g><g style="fill:#ffffff;fill-opacity:1;"><g transform="translate(110.639229, 183.403872)"><path style="stroke:none" d="M 2.96875 0 L 2.09375 0 L 0.3125 -5.625 L 1.1875 -5.625 L 2.546875 -1.0625 L 2.5625 -1.0625 L 4.078125 -5.625 L 4.875 -5.625 L 6.40625 -1.0625 L 6.4375 -1.0625 L 7.78125 -5.625 L 8.640625 -5.625 L 6.859375 0 L 5.96875 0 L 4.46875 -4.5625 L 4.453125 -4.5625 Z M 2.96875 0 "/></g></g><g style="fill:#ffffff;fill-opacity:1;"><g transform="translate(119.586468, 183.403872)"><path style="stroke:none" d=""/></g></g><g style="fill:#ffffff;fill-opacity:1;"><g transform="translate(122.58488, 183.403872)"><path style="stroke:none" d="M 1.5 -7.203125 C 1.34375 -7.203125 1.207031 -7.253906 1.09375 -7.359375 C 0.976562 -7.472656 0.921875 -7.613281 0.921875 -7.78125 C 0.921875 -7.9375 0.976562 -8.070312 1.09375 -8.1875 C 1.207031 -8.300781 1.34375 -8.359375 1.5 -8.359375 C 1.65625 -8.359375 1.789062 -8.300781 1.90625 -8.1875 C 2.019531 -8.070312 2.078125 -7.9375 2.078125 -7.78125 C 2.078125 -7.613281 2.019531 -7.472656 1.90625 -7.359375 C 1.789062 -7.253906 1.65625 -7.203125 1.5 -7.203125 Z M 1.90625 0 L 1.09375 0 L 1.09375 -5.625 L 1.90625 -5.625 Z M 1.90625 0 "/></g></g><g style="fill:#ffffff;fill-opacity:1;"><g transform="translate(125.583291, 183.403872)"><path style="stroke:none" d="M 3.578125 0.140625 C 3.003906 0.140625 2.492188 0.0078125 2.046875 -0.25 C 1.609375 -0.507812 1.269531 -0.863281 1.03125 -1.3125 C 0.789062 -1.757812 0.671875 -2.257812 0.671875 -2.8125 C 0.671875 -3.363281 0.789062 -3.863281 1.03125 -4.3125 C 1.269531 -4.757812 1.609375 -5.113281 2.046875 -5.375 C 2.492188 -5.632812 3.003906 -5.765625 3.578125 -5.765625 C 3.992188 -5.765625 4.394531 -5.664062 4.78125 -5.46875 C 5.164062 -5.269531 5.472656 -4.992188 5.703125 -4.640625 L 5.71875 -4.640625 L 5.71875 -9.078125 L 6.546875 -9.078125 L 6.546875 0 L 5.71875 0 L 5.71875 -0.953125 L 5.703125 -0.953125 C 5.472656 -0.609375 5.164062 -0.335938 4.78125 -0.140625 C 4.394531 0.046875 3.992188 0.140625 3.578125 0.140625 Z M 3.65625 -0.546875 C 4.070312 -0.546875 4.441406 -0.644531 4.765625 -0.84375 C 5.097656 -1.039062 5.351562 -1.3125 5.53125 -1.65625 C 5.71875 -2 5.8125 -2.382812 5.8125 -2.8125 C 5.8125 -3.226562 5.71875 -3.609375 5.53125 -3.953125 C 5.351562 -4.296875 5.097656 -4.566406 4.765625 -4.765625 C 4.441406 -4.972656 4.070312 -5.078125 3.65625 -5.078125 C 3.21875 -5.078125 2.835938 -4.972656 2.515625 -4.765625 C 2.203125 -4.566406 1.957031 -4.296875 1.78125 -3.953125 C 1.613281 -3.609375 1.53125 -3.226562 1.53125 -2.8125 C 1.53125 -2.382812 1.613281 -2 1.78125 -1.65625 C 1.957031 -1.320312 2.203125 -1.050781 2.515625 -0.84375 C 2.835938 -0.644531 3.21875 -0.546875 3.65625 -0.546875 Z M 3.65625 -0.546875 "/></g></g><g style="fill:#ffffff;fill-opacity:1;"><g transform="translate(133.223226, 183.403872)"><path style="stroke:none" d="M 3.578125 0.140625 C 3.023438 0.140625 2.523438 0.015625 2.078125 -0.234375 C 1.640625 -0.492188 1.296875 -0.847656 1.046875 -1.296875 C 0.796875 -1.742188 0.671875 -2.25 0.671875 -2.8125 C 0.671875 -3.363281 0.796875 -3.863281 1.046875 -4.3125 C 1.296875 -4.757812 1.632812 -5.113281 2.0625 -5.375 C 2.5 -5.632812 2.976562 -5.765625 3.5 -5.765625 C 4.070312 -5.765625 4.554688 -5.640625 4.953125 -5.390625 C 5.359375 -5.148438 5.664062 -4.816406 5.875 -4.390625 C 6.082031 -3.960938 6.1875 -3.488281 6.1875 -2.96875 C 6.1875 -2.8125 6.1875 -2.6875 6.1875 -2.59375 L 1.53125 -2.59375 C 1.53125 -2.21875 1.617188 -1.875 1.796875 -1.5625 C 1.984375 -1.257812 2.234375 -1.015625 2.546875 -0.828125 C 2.859375 -0.640625 3.203125 -0.546875 3.578125 -0.546875 C 3.960938 -0.546875 4.316406 -0.640625 4.640625 -0.828125 C 4.960938 -1.015625 5.207031 -1.25 5.375 -1.53125 L 5.984375 -1.046875 C 5.359375 -0.253906 4.554688 0.140625 3.578125 0.140625 Z M 5.359375 -3.234375 C 5.347656 -3.597656 5.265625 -3.914062 5.109375 -4.1875 C 4.960938 -4.46875 4.75 -4.6875 4.46875 -4.84375 C 4.195312 -5 3.875 -5.078125 3.5 -5.078125 C 3.144531 -5.078125 2.820312 -4.992188 2.53125 -4.828125 C 2.238281 -4.660156 2.003906 -4.429688 1.828125 -4.140625 C 1.660156 -3.859375 1.5625 -3.554688 1.53125 -3.234375 Z M 5.359375 -3.234375 "/></g></g><g style="fill:#ffffff;fill-opacity:1;"><g transform="translate(140.083582, 183.403872)"><path style="stroke:none" d="M 2.609375 0.140625 C 2.296875 0.140625 1.988281 0.0820312 1.6875 -0.03125 C 1.394531 -0.144531 1.148438 -0.328125 0.953125 -0.578125 C 0.753906 -0.835938 0.65625 -1.164062 0.65625 -1.5625 C 0.65625 -2.09375 0.828125 -2.492188 1.171875 -2.765625 C 1.523438 -3.046875 1.972656 -3.226562 2.515625 -3.3125 C 3.066406 -3.394531 3.753906 -3.4375 4.578125 -3.4375 L 4.625 -3.4375 L 4.625 -3.625 C 4.625 -4.101562 4.492188 -4.460938 4.234375 -4.703125 C 3.984375 -4.953125 3.613281 -5.078125 3.125 -5.078125 C 2.800781 -5.078125 2.488281 -5.015625 2.1875 -4.890625 C 1.894531 -4.773438 1.648438 -4.617188 1.453125 -4.421875 L 1 -4.953125 C 1.238281 -5.191406 1.550781 -5.382812 1.9375 -5.53125 C 2.320312 -5.6875 2.742188 -5.765625 3.203125 -5.765625 C 3.617188 -5.765625 3.988281 -5.6875 4.3125 -5.53125 C 4.644531 -5.375 4.90625 -5.140625 5.09375 -4.828125 C 5.289062 -4.523438 5.390625 -4.15625 5.390625 -3.71875 L 5.390625 -1.265625 C 5.390625 -1.035156 5.394531 -0.804688 5.40625 -0.578125 C 5.425781 -0.347656 5.453125 -0.15625 5.484375 0 L 4.75 0 C 4.695312 -0.320312 4.671875 -0.625 4.671875 -0.90625 L 4.640625 -0.90625 C 4.390625 -0.539062 4.097656 -0.273438 3.765625 -0.109375 C 3.441406 0.0546875 3.054688 0.140625 2.609375 0.140625 Z M 2.8125 -0.53125 C 3.1875 -0.53125 3.507812 -0.613281 3.78125 -0.78125 C 4.050781 -0.945312 4.257812 -1.171875 4.40625 -1.453125 C 4.550781 -1.742188 4.625 -2.054688 4.625 -2.390625 L 4.625 -2.8125 L 4.375 -2.8125 C 3.53125 -2.8125 2.835938 -2.726562 2.296875 -2.5625 C 1.765625 -2.394531 1.5 -2.070312 1.5 -1.59375 C 1.5 -1.226562 1.625 -0.957031 1.875 -0.78125 C 2.132812 -0.613281 2.445312 -0.53125 2.8125 -0.53125 Z M 2.8125 -0.53125 "/></g></g><g style="fill:#ffffff;fill-opacity:1;"><g transform="translate(146.48818, 183.403872)"><path style="stroke:none" d="M 2.671875 0.140625 C 2.222656 0.140625 1.800781 0.0507812 1.40625 -0.125 C 1.019531 -0.3125 0.703125 -0.585938 0.453125 -0.953125 L 1.109375 -1.421875 C 1.253906 -1.171875 1.46875 -0.960938 1.75 -0.796875 C 2.039062 -0.628906 2.34375 -0.546875 2.65625 -0.546875 C 3.039062 -0.546875 3.359375 -0.625 3.609375 -0.78125 C 3.859375 -0.9375 3.984375 -1.1875 3.984375 -1.53125 C 3.984375 -1.726562 3.921875 -1.890625 3.796875 -2.015625 C 3.671875 -2.140625 3.492188 -2.25 3.265625 -2.34375 C 3.035156 -2.4375 2.722656 -2.523438 2.328125 -2.609375 C 2.035156 -2.679688 1.773438 -2.769531 1.546875 -2.875 C 1.328125 -2.976562 1.132812 -3.128906 0.96875 -3.328125 C 0.800781 -3.535156 0.71875 -3.800781 0.71875 -4.125 C 0.71875 -4.488281 0.804688 -4.789062 0.984375 -5.03125 C 1.171875 -5.28125 1.414062 -5.460938 1.71875 -5.578125 C 2.03125 -5.703125 2.363281 -5.765625 2.71875 -5.765625 C 3.125 -5.765625 3.507812 -5.671875 3.875 -5.484375 C 4.238281 -5.304688 4.507812 -5.0625 4.6875 -4.75 L 4.0625 -4.28125 C 3.945312 -4.519531 3.765625 -4.710938 3.515625 -4.859375 C 3.265625 -5.003906 2.988281 -5.078125 2.6875 -5.078125 C 2.363281 -5.078125 2.082031 -5 1.84375 -4.84375 C 1.613281 -4.695312 1.5 -4.484375 1.5 -4.203125 C 1.5 -3.941406 1.601562 -3.738281 1.8125 -3.59375 C 2.019531 -3.457031 2.363281 -3.335938 2.84375 -3.234375 C 3.507812 -3.097656 4 -2.898438 4.3125 -2.640625 C 4.625 -2.378906 4.78125 -2.03125 4.78125 -1.59375 C 4.78125 -1.1875 4.679688 -0.851562 4.484375 -0.59375 C 4.285156 -0.332031 4.023438 -0.144531 3.703125 -0.03125 C 3.390625 0.0820312 3.046875 0.140625 2.671875 0.140625 Z M 2.671875 0.140625 "/></g></g><g style="fill:#ffffff;fill-opacity:1;"><g transform="translate(151.813352, 183.403872)"><path style="stroke:none" d=""/></g></g><g style="fill:#ffffff;fill-opacity:1;"><g transform="translate(154.811763, 183.403872)"><path style="stroke:none" d="M 2.609375 0.140625 C 2.296875 0.140625 1.988281 0.0820312 1.6875 -0.03125 C 1.394531 -0.144531 1.148438 -0.328125 0.953125 -0.578125 C 0.753906 -0.835938 0.65625 -1.164062 0.65625 -1.5625 C 0.65625 -2.09375 0.828125 -2.492188 1.171875 -2.765625 C 1.523438 -3.046875 1.972656 -3.226562 2.515625 -3.3125 C 3.066406 -3.394531 3.753906 -3.4375 4.578125 -3.4375 L 4.625 -3.4375 L 4.625 -3.625 C 4.625 -4.101562 4.492188 -4.460938 4.234375 -4.703125 C 3.984375 -4.953125 3.613281 -5.078125 3.125 -5.078125 C 2.800781 -5.078125 2.488281 -5.015625 2.1875 -4.890625 C 1.894531 -4.773438 1.648438 -4.617188 1.453125 -4.421875 L 1 -4.953125 C 1.238281 -5.191406 1.550781 -5.382812 1.9375 -5.53125 C 2.320312 -5.6875 2.742188 -5.765625 3.203125 -5.765625 C 3.617188 -5.765625 3.988281 -5.6875 4.3125 -5.53125 C 4.644531 -5.375 4.90625 -5.140625 5.09375 -4.828125 C 5.289062 -4.523438 5.390625 -4.15625 5.390625 -3.71875 L 5.390625 -1.265625 C 5.390625 -1.035156 5.394531 -0.804688 5.40625 -0.578125 C 5.425781 -0.347656 5.453125 -0.15625 5.484375 0 L 4.75 0 C 4.695312 -0.320312 4.671875 -0.625 4.671875 -0.90625 L 4.640625 -0.90625 C 4.390625 -0.539062 4.097656 -0.273438 3.765625 -0.109375 C 3.441406 0.0546875 3.054688 0.140625 2.609375 0.140625 Z M 2.8125 -0.53125 C 3.1875 -0.53125 3.507812 -0.613281 3.78125 -0.78125 C 4.050781 -0.945312 4.257812 -1.171875 4.40625 -1.453125 C 4.550781 -1.742188 4.625 -2.054688 4.625 -2.390625 L 4.625 -2.8125 L 4.375 -2.8125 C 3.53125 -2.8125 2.835938 -2.726562 2.296875 -2.5625 C 1.765625 -2.394531 1.5 -2.070312 1.5 -1.59375 C 1.5 -1.226562 1.625 -0.957031 1.875 -0.78125 C 2.132812 -0.613281 2.445312 -0.53125 2.8125 -0.53125 Z M 2.8125 -0.53125 "/></g></g><g style="fill:#ffffff;fill-opacity:1;"><g transform="translate(161.216361, 183.403872)"><path style="stroke:none" d="M 1.078125 -4.375 C 1.078125 -4.863281 1.0625 -5.28125 1.03125 -5.625 L 1.8125 -5.625 C 1.84375 -5.226562 1.859375 -4.90625 1.859375 -4.65625 L 1.890625 -4.65625 C 1.992188 -4.875 2.144531 -5.0625 2.34375 -5.21875 C 2.539062 -5.382812 2.765625 -5.515625 3.015625 -5.609375 C 3.273438 -5.710938 3.535156 -5.765625 3.796875 -5.765625 C 4.492188 -5.765625 5.023438 -5.554688 5.390625 -5.140625 C 5.753906 -4.722656 5.9375 -4.15625 5.9375 -3.4375 L 5.9375 0 L 5.125 0 L 5.125 -3.109375 C 5.125 -3.742188 5.007812 -4.226562 4.78125 -4.5625 C 4.550781 -4.90625 4.15625 -5.078125 3.59375 -5.078125 C 3.289062 -5.078125 3.007812 -4.992188 2.75 -4.828125 C 2.5 -4.660156 2.289062 -4.410156 2.125 -4.078125 C 1.96875 -3.753906 1.890625 -3.351562 1.890625 -2.875 L 1.890625 0 L 1.078125 0 Z M 1.078125 -4.375 "/></g></g><g style="fill:#ffffff;fill-opacity:1;"><g transform="translate(168.184658, 183.403872)"><path style="stroke:none" d="M 3.578125 0.140625 C 3.003906 0.140625 2.492188 0.0078125 2.046875 -0.25 C 1.609375 -0.507812 1.269531 -0.863281 1.03125 -1.3125 C 0.789062 -1.757812 0.671875 -2.257812 0.671875 -2.8125 C 0.671875 -3.363281 0.789062 -3.863281 1.03125 -4.3125 C 1.269531 -4.757812 1.609375 -5.113281 2.046875 -5.375 C 2.492188 -5.632812 3.003906 -5.765625 3.578125 -5.765625 C 3.992188 -5.765625 4.394531 -5.664062 4.78125 -5.46875 C 5.164062 -5.269531 5.472656 -4.992188 5.703125 -4.640625 L 5.71875 -4.640625 L 5.71875 -9.078125 L 6.546875 -9.078125 L 6.546875 0 L 5.71875 0 L 5.71875 -0.953125 L 5.703125 -0.953125 C 5.472656 -0.609375 5.164062 -0.335938 4.78125 -0.140625 C 4.394531 0.046875 3.992188 0.140625 3.578125 0.140625 Z M 3.65625 -0.546875 C 4.070312 -0.546875 4.441406 -0.644531 4.765625 -0.84375 C 5.097656 -1.039062 5.351562 -1.3125 5.53125 -1.65625 C 5.71875 -2 5.8125 -2.382812 5.8125 -2.8125 C 5.8125 -3.226562 5.71875 -3.609375 5.53125 -3.953125 C 5.351562 -4.296875 5.097656 -4.566406 4.765625 -4.765625 C 4.441406 -4.972656 4.070312 -5.078125 3.65625 -5.078125 C 3.21875 -5.078125 2.835938 -4.972656 2.515625 -4.765625 C 2.203125 -4.566406 1.957031 -4.296875 1.78125 -3.953125 C 1.613281 -3.609375 1.53125 -3.226562 1.53125 -2.8125 C 1.53125 -2.382812 1.613281 -2 1.78125 -1.65625 C 1.957031 -1.320312 2.203125 -1.050781 2.515625 -0.84375 C 2.835938 -0.644531 3.21875 -0.546875 3.65625 -0.546875 Z M 3.65625 -0.546875 "/></g></g><g style="fill:#ffffff;fill-opacity:1;"><g transform="translate(175.828035, 183.403872)"><path style="stroke:none" d=""/></g></g><g style="fill:#ffffff;fill-opacity:1;"><g transform="translate(73.905869, 199.89507)"><path style="stroke:none" d="M 3.65625 0.140625 C 3.09375 0.140625 2.582031 0.015625 2.125 -0.234375 C 1.664062 -0.492188 1.304688 -0.847656 1.046875 -1.296875 C 0.796875 -1.742188 0.671875 -2.25 0.671875 -2.8125 C 0.671875 -3.363281 0.796875 -3.863281 1.046875 -4.3125 C 1.304688 -4.757812 1.664062 -5.113281 2.125 -5.375 C 2.582031 -5.632812 3.09375 -5.765625 3.65625 -5.765625 C 4.238281 -5.765625 4.753906 -5.632812 5.203125 -5.375 C 5.660156 -5.113281 6.015625 -4.757812 6.265625 -4.3125 C 6.523438 -3.863281 6.65625 -3.363281 6.65625 -2.8125 C 6.65625 -2.25 6.523438 -1.742188 6.265625 -1.296875 C 6.015625 -0.847656 5.660156 -0.492188 5.203125 -0.234375 C 4.753906 0.015625 4.238281 0.140625 3.65625 0.140625 Z M 3.65625 -0.546875 C 4.082031 -0.546875 4.457031 -0.644531 4.78125 -0.84375 C 5.101562 -1.050781 5.351562 -1.320312 5.53125 -1.65625 C 5.707031 -2 5.796875 -2.382812 5.796875 -2.8125 C 5.796875 -3.226562 5.707031 -3.609375 5.53125 -3.953125 C 5.351562 -4.296875 5.101562 -4.566406 4.78125 -4.765625 C 4.457031 -4.972656 4.082031 -5.078125 3.65625 -5.078125 C 3.238281 -5.078125 2.867188 -4.972656 2.546875 -4.765625 C 2.222656 -4.566406 1.972656 -4.296875 1.796875 -3.953125 C 1.617188 -3.609375 1.53125 -3.226562 1.53125 -2.8125 C 1.53125 -2.382812 1.617188 -2 1.796875 -1.65625 C 1.972656 -1.320312 2.222656 -1.050781 2.546875 -0.84375 C 2.867188 -0.644531 3.238281 -0.546875 3.65625 -0.546875 Z M 3.65625 -0.546875 "/></g></g><g style="fill:#ffffff;fill-opacity:1;"><g transform="translate(81.23397, 199.89507)"><path style="stroke:none" d="M 1.078125 2.875 L 1.078125 -5.625 L 1.890625 -5.625 L 1.890625 -4.640625 L 1.9375 -4.640625 C 2.15625 -4.992188 2.457031 -5.269531 2.84375 -5.46875 C 3.226562 -5.664062 3.628906 -5.765625 4.046875 -5.765625 C 4.609375 -5.765625 5.113281 -5.632812 5.5625 -5.375 C 6.007812 -5.113281 6.351562 -4.757812 6.59375 -4.3125 C 6.832031 -3.863281 6.953125 -3.363281 6.953125 -2.8125 C 6.953125 -2.257812 6.832031 -1.757812 6.59375 -1.3125 C 6.351562 -0.863281 6.007812 -0.507812 5.5625 -0.25 C 5.113281 0.0078125 4.609375 0.140625 4.046875 0.140625 C 3.640625 0.140625 3.242188 0.046875 2.859375 -0.140625 C 2.472656 -0.335938 2.164062 -0.609375 1.9375 -0.953125 L 1.890625 -0.953125 L 1.890625 2.875 Z M 3.953125 -0.546875 C 4.398438 -0.546875 4.78125 -0.644531 5.09375 -0.84375 C 5.414062 -1.050781 5.660156 -1.320312 5.828125 -1.65625 C 5.992188 -2 6.078125 -2.382812 6.078125 -2.8125 C 6.078125 -3.226562 5.992188 -3.609375 5.828125 -3.953125 C 5.660156 -4.296875 5.414062 -4.566406 5.09375 -4.765625 C 4.78125 -4.972656 4.398438 -5.078125 3.953125 -5.078125 C 3.546875 -5.078125 3.175781 -4.972656 2.84375 -4.765625 C 2.519531 -4.566406 2.265625 -4.296875 2.078125 -3.953125 C 1.890625 -3.609375 1.796875 -3.226562 1.796875 -2.8125 C 1.796875 -2.382812 1.890625 -2 2.078125 -1.65625 C 2.265625 -1.3125 2.519531 -1.039062 2.84375 -0.84375 C 3.175781 -0.644531 3.546875 -0.546875 3.953125 -0.546875 Z M 3.953125 -0.546875 "/></g></g><g style="fill:#ffffff;fill-opacity:1;"><g transform="translate(88.84992, 199.89507)"><path style="stroke:none" d="M 1.078125 2.875 L 1.078125 -5.625 L 1.890625 -5.625 L 1.890625 -4.640625 L 1.9375 -4.640625 C 2.15625 -4.992188 2.457031 -5.269531 2.84375 -5.46875 C 3.226562 -5.664062 3.628906 -5.765625 4.046875 -5.765625 C 4.609375 -5.765625 5.113281 -5.632812 5.5625 -5.375 C 6.007812 -5.113281 6.351562 -4.757812 6.59375 -4.3125 C 6.832031 -3.863281 6.953125 -3.363281 6.953125 -2.8125 C 6.953125 -2.257812 6.832031 -1.757812 6.59375 -1.3125 C 6.351562 -0.863281 6.007812 -0.507812 5.5625 -0.25 C 5.113281 0.0078125 4.609375 0.140625 4.046875 0.140625 C 3.640625 0.140625 3.242188 0.046875 2.859375 -0.140625 C 2.472656 -0.335938 2.164062 -0.609375 1.9375 -0.953125 L 1.890625 -0.953125 L 1.890625 2.875 Z M 3.953125 -0.546875 C 4.398438 -0.546875 4.78125 -0.644531 5.09375 -0.84375 C 5.414062 -1.050781 5.660156 -1.320312 5.828125 -1.65625 C 5.992188 -2 6.078125 -2.382812 6.078125 -2.8125 C 6.078125 -3.226562 5.992188 -3.609375 5.828125 -3.953125 C 5.660156 -4.296875 5.414062 -4.566406 5.09375 -4.765625 C 4.78125 -4.972656 4.398438 -5.078125 3.953125 -5.078125 C 3.546875 -5.078125 3.175781 -4.972656 2.84375 -4.765625 C 2.519531 -4.566406 2.265625 -4.296875 2.078125 -3.953125 C 1.890625 -3.609375 1.796875 -3.226562 1.796875 -2.8125 C 1.796875 -2.382812 1.890625 -2 2.078125 -1.65625 C 2.265625 -1.3125 2.519531 -1.039062 2.84375 -0.84375 C 3.175781 -0.644531 3.546875 -0.546875 3.953125 -0.546875 Z M 3.953125 -0.546875 "/></g></g><g style="fill:#ffffff;fill-opacity:1;"><g transform="translate(96.465869, 199.89507)"><path style="stroke:none" d="M 3.65625 0.140625 C 3.09375 0.140625 2.582031 0.015625 2.125 -0.234375 C 1.664062 -0.492188 1.304688 -0.847656 1.046875 -1.296875 C 0.796875 -1.742188 0.671875 -2.25 0.671875 -2.8125 C 0.671875 -3.363281 0.796875 -3.863281 1.046875 -4.3125 C 1.304688 -4.757812 1.664062 -5.113281 2.125 -5.375 C 2.582031 -5.632812 3.09375 -5.765625 3.65625 -5.765625 C 4.238281 -5.765625 4.753906 -5.632812 5.203125 -5.375 C 5.660156 -5.113281 6.015625 -4.757812 6.265625 -4.3125 C 6.523438 -3.863281 6.65625 -3.363281 6.65625 -2.8125 C 6.65625 -2.25 6.523438 -1.742188 6.265625 -1.296875 C 6.015625 -0.847656 5.660156 -0.492188 5.203125 -0.234375 C 4.753906 0.015625 4.238281 0.140625 3.65625 0.140625 Z M 3.65625 -0.546875 C 4.082031 -0.546875 4.457031 -0.644531 4.78125 -0.84375 C 5.101562 -1.050781 5.351562 -1.320312 5.53125 -1.65625 C 5.707031 -2 5.796875 -2.382812 5.796875 -2.8125 C 5.796875 -3.226562 5.707031 -3.609375 5.53125 -3.953125 C 5.351562 -4.296875 5.101562 -4.566406 4.78125 -4.765625 C 4.457031 -4.972656 4.082031 -5.078125 3.65625 -5.078125 C 3.238281 -5.078125 2.867188 -4.972656 2.546875 -4.765625 C 2.222656 -4.566406 1.972656 -4.296875 1.796875 -3.953125 C 1.617188 -3.609375 1.53125 -3.226562 1.53125 -2.8125 C 1.53125 -2.382812 1.617188 -2 1.796875 -1.65625 C 1.972656 -1.320312 2.222656 -1.050781 2.546875 -0.84375 C 2.867188 -0.644531 3.238281 -0.546875 3.65625 -0.546875 Z M 3.65625 -0.546875 "/></g></g><g style="fill:#ffffff;fill-opacity:1;"><g transform="translate(103.79397, 199.89507)"><path style="stroke:none" d="M 1.078125 -4.375 C 1.078125 -4.863281 1.0625 -5.28125 1.03125 -5.625 L 1.8125 -5.625 C 1.84375 -5.226562 1.859375 -4.90625 1.859375 -4.65625 L 1.890625 -4.65625 C 2.046875 -4.976562 2.285156 -5.242188 2.609375 -5.453125 C 2.929688 -5.660156 3.289062 -5.765625 3.6875 -5.765625 C 3.90625 -5.765625 4.082031 -5.742188 4.21875 -5.703125 L 4.109375 -4.9375 C 4.066406 -4.945312 3.988281 -4.957031 3.875 -4.96875 C 3.757812 -4.988281 3.648438 -5 3.546875 -5 C 3.234375 -5 2.953125 -4.921875 2.703125 -4.765625 C 2.460938 -4.617188 2.265625 -4.382812 2.109375 -4.0625 C 1.960938 -3.75 1.890625 -3.351562 1.890625 -2.875 L 1.890625 0 L 1.078125 0 Z M 1.078125 -4.375 "/></g></g><g style="fill:#ffffff;fill-opacity:1;"><g transform="translate(108.111673, 199.89507)"><path style="stroke:none" d="M 2.65625 0.078125 C 2.269531 0.078125 1.929688 -0.03125 1.640625 -0.25 C 1.359375 -0.476562 1.21875 -0.867188 1.21875 -1.421875 L 1.21875 -4.9375 L 0.046875 -4.9375 L 0.046875 -5.625 L 1.21875 -5.625 L 1.21875 -7.203125 L 2.03125 -7.203125 L 2.03125 -5.625 L 3.609375 -5.625 L 3.609375 -4.9375 L 2.03125 -4.9375 L 2.03125 -1.65625 C 2.03125 -1.257812 2.097656 -0.988281 2.234375 -0.84375 C 2.378906 -0.695312 2.59375 -0.625 2.875 -0.625 C 2.976562 -0.625 3.09375 -0.640625 3.21875 -0.671875 C 3.34375 -0.703125 3.460938 -0.742188 3.578125 -0.796875 L 3.609375 -0.09375 C 3.316406 0.0195312 3 0.078125 2.65625 0.078125 Z M 2.65625 0.078125 "/></g></g><g style="fill:#ffffff;fill-opacity:1;"><g transform="translate(111.913649, 199.89507)"><path style="stroke:none" d="M 3.171875 0.140625 C 2.472656 0.140625 1.941406 -0.0664062 1.578125 -0.484375 C 1.210938 -0.898438 1.03125 -1.460938 1.03125 -2.171875 L 1.03125 -5.625 L 1.84375 -5.625 L 1.84375 -2.515625 C 1.84375 -1.878906 1.957031 -1.390625 2.1875 -1.046875 C 2.414062 -0.710938 2.8125 -0.546875 3.375 -0.546875 C 3.675781 -0.546875 3.953125 -0.625 4.203125 -0.78125 C 4.460938 -0.945312 4.671875 -1.191406 4.828125 -1.515625 C 4.992188 -1.847656 5.078125 -2.253906 5.078125 -2.734375 L 5.078125 -5.625 L 5.890625 -5.625 L 5.890625 -1.234375 C 5.890625 -0.753906 5.90625 -0.34375 5.9375 0 L 5.15625 0 C 5.125 -0.394531 5.109375 -0.710938 5.109375 -0.953125 L 5.09375 -0.953125 C 4.988281 -0.742188 4.832031 -0.554688 4.625 -0.390625 C 4.425781 -0.222656 4.195312 -0.09375 3.9375 0 C 3.6875 0.09375 3.429688 0.140625 3.171875 0.140625 Z M 3.171875 0.140625 "/></g></g><g style="fill:#ffffff;fill-opacity:1;"><g transform="translate(118.881945, 199.89507)"><path style="stroke:none" d="M 1.078125 -4.375 C 1.078125 -4.863281 1.0625 -5.28125 1.03125 -5.625 L 1.8125 -5.625 C 1.84375 -5.226562 1.859375 -4.90625 1.859375 -4.65625 L 1.890625 -4.65625 C 1.992188 -4.875 2.144531 -5.0625 2.34375 -5.21875 C 2.539062 -5.382812 2.765625 -5.515625 3.015625 -5.609375 C 3.273438 -5.710938 3.535156 -5.765625 3.796875 -5.765625 C 4.492188 -5.765625 5.023438 -5.554688 5.390625 -5.140625 C 5.753906 -4.722656 5.9375 -4.15625 5.9375 -3.4375 L 5.9375 0 L 5.125 0 L 5.125 -3.109375 C 5.125 -3.742188 5.007812 -4.226562 4.78125 -4.5625 C 4.550781 -4.90625 4.15625 -5.078125 3.59375 -5.078125 C 3.289062 -5.078125 3.007812 -4.992188 2.75 -4.828125 C 2.5 -4.660156 2.289062 -4.410156 2.125 -4.078125 C 1.96875 -3.753906 1.890625 -3.351562 1.890625 -2.875 L 1.890625 0 L 1.078125 0 Z M 1.078125 -4.375 "/></g></g><g style="fill:#ffffff;fill-opacity:1;"><g transform="translate(125.850242, 199.89507)"><path style="stroke:none" d="M 1.5 -7.203125 C 1.34375 -7.203125 1.207031 -7.253906 1.09375 -7.359375 C 0.976562 -7.472656 0.921875 -7.613281 0.921875 -7.78125 C 0.921875 -7.9375 0.976562 -8.070312 1.09375 -8.1875 C 1.207031 -8.300781 1.34375 -8.359375 1.5 -8.359375 C 1.65625 -8.359375 1.789062 -8.300781 1.90625 -8.1875 C 2.019531 -8.070312 2.078125 -7.9375 2.078125 -7.78125 C 2.078125 -7.613281 2.019531 -7.472656 1.90625 -7.359375 C 1.789062 -7.253906 1.65625 -7.203125 1.5 -7.203125 Z M 1.90625 0 L 1.09375 0 L 1.09375 -5.625 L 1.90625 -5.625 Z M 1.90625 0 "/></g></g><g style="fill:#ffffff;fill-opacity:1;"><g transform="translate(128.848653, 199.89507)"><path style="stroke:none" d="M 2.65625 0.078125 C 2.269531 0.078125 1.929688 -0.03125 1.640625 -0.25 C 1.359375 -0.476562 1.21875 -0.867188 1.21875 -1.421875 L 1.21875 -4.9375 L 0.046875 -4.9375 L 0.046875 -5.625 L 1.21875 -5.625 L 1.21875 -7.203125 L 2.03125 -7.203125 L 2.03125 -5.625 L 3.609375 -5.625 L 3.609375 -4.9375 L 2.03125 -4.9375 L 2.03125 -1.65625 C 2.03125 -1.257812 2.097656 -0.988281 2.234375 -0.84375 C 2.378906 -0.695312 2.59375 -0.625 2.875 -0.625 C 2.976562 -0.625 3.09375 -0.640625 3.21875 -0.671875 C 3.34375 -0.703125 3.460938 -0.742188 3.578125 -0.796875 L 3.609375 -0.09375 C 3.316406 0.0195312 3 0.078125 2.65625 0.078125 Z M 2.65625 0.078125 "/></g></g><g style="fill:#ffffff;fill-opacity:1;"><g transform="translate(132.650628, 199.89507)"><path style="stroke:none" d="M 1.5 -7.203125 C 1.34375 -7.203125 1.207031 -7.253906 1.09375 -7.359375 C 0.976562 -7.472656 0.921875 -7.613281 0.921875 -7.78125 C 0.921875 -7.9375 0.976562 -8.070312 1.09375 -8.1875 C 1.207031 -8.300781 1.34375 -8.359375 1.5 -8.359375 C 1.65625 -8.359375 1.789062 -8.300781 1.90625 -8.1875 C 2.019531 -8.070312 2.078125 -7.9375 2.078125 -7.78125 C 2.078125 -7.613281 2.019531 -7.472656 1.90625 -7.359375 C 1.789062 -7.253906 1.65625 -7.203125 1.5 -7.203125 Z M 1.90625 0 L 1.09375 0 L 1.09375 -5.625 L 1.90625 -5.625 Z M 1.90625 0 "/></g></g><g style="fill:#ffffff;fill-opacity:1;"><g transform="translate(135.64904, 199.89507)"><path style="stroke:none" d="M 3.578125 0.140625 C 3.023438 0.140625 2.523438 0.015625 2.078125 -0.234375 C 1.640625 -0.492188 1.296875 -0.847656 1.046875 -1.296875 C 0.796875 -1.742188 0.671875 -2.25 0.671875 -2.8125 C 0.671875 -3.363281 0.796875 -3.863281 1.046875 -4.3125 C 1.296875 -4.757812 1.632812 -5.113281 2.0625 -5.375 C 2.5 -5.632812 2.976562 -5.765625 3.5 -5.765625 C 4.070312 -5.765625 4.554688 -5.640625 4.953125 -5.390625 C 5.359375 -5.148438 5.664062 -4.816406 5.875 -4.390625 C 6.082031 -3.960938 6.1875 -3.488281 6.1875 -2.96875 C 6.1875 -2.8125 6.1875 -2.6875 6.1875 -2.59375 L 1.53125 -2.59375 C 1.53125 -2.21875 1.617188 -1.875 1.796875 -1.5625 C 1.984375 -1.257812 2.234375 -1.015625 2.546875 -0.828125 C 2.859375 -0.640625 3.203125 -0.546875 3.578125 -0.546875 C 3.960938 -0.546875 4.316406 -0.640625 4.640625 -0.828125 C 4.960938 -1.015625 5.207031 -1.25 5.375 -1.53125 L 5.984375 -1.046875 C 5.359375 -0.253906 4.554688 0.140625 3.578125 0.140625 Z M 5.359375 -3.234375 C 5.347656 -3.597656 5.265625 -3.914062 5.109375 -4.1875 C 4.960938 -4.46875 4.75 -4.6875 4.46875 -4.84375 C 4.195312 -5 3.875 -5.078125 3.5 -5.078125 C 3.144531 -5.078125 2.820312 -4.992188 2.53125 -4.828125 C 2.238281 -4.660156 2.003906 -4.429688 1.828125 -4.140625 C 1.660156 -3.859375 1.5625 -3.554688 1.53125 -3.234375 Z M 5.359375 -3.234375 "/></g></g><g style="fill:#ffffff;fill-opacity:1;"><g transform="translate(142.509396, 199.89507)"><path style="stroke:none" d="M 2.671875 0.140625 C 2.222656 0.140625 1.800781 0.0507812 1.40625 -0.125 C 1.019531 -0.3125 0.703125 -0.585938 0.453125 -0.953125 L 1.109375 -1.421875 C 1.253906 -1.171875 1.46875 -0.960938 1.75 -0.796875 C 2.039062 -0.628906 2.34375 -0.546875 2.65625 -0.546875 C 3.039062 -0.546875 3.359375 -0.625 3.609375 -0.78125 C 3.859375 -0.9375 3.984375 -1.1875 3.984375 -1.53125 C 3.984375 -1.726562 3.921875 -1.890625 3.796875 -2.015625 C 3.671875 -2.140625 3.492188 -2.25 3.265625 -2.34375 C 3.035156 -2.4375 2.722656 -2.523438 2.328125 -2.609375 C 2.035156 -2.679688 1.773438 -2.769531 1.546875 -2.875 C 1.328125 -2.976562 1.132812 -3.128906 0.96875 -3.328125 C 0.800781 -3.535156 0.71875 -3.800781 0.71875 -4.125 C 0.71875 -4.488281 0.804688 -4.789062 0.984375 -5.03125 C 1.171875 -5.28125 1.414062 -5.460938 1.71875 -5.578125 C 2.03125 -5.703125 2.363281 -5.765625 2.71875 -5.765625 C 3.125 -5.765625 3.507812 -5.671875 3.875 -5.484375 C 4.238281 -5.304688 4.507812 -5.0625 4.6875 -4.75 L 4.0625 -4.28125 C 3.945312 -4.519531 3.765625 -4.710938 3.515625 -4.859375 C 3.265625 -5.003906 2.988281 -5.078125 2.6875 -5.078125 C 2.363281 -5.078125 2.082031 -5 1.84375 -4.84375 C 1.613281 -4.695312 1.5 -4.484375 1.5 -4.203125 C 1.5 -3.941406 1.601562 -3.738281 1.8125 -3.59375 C 2.019531 -3.457031 2.363281 -3.335938 2.84375 -3.234375 C 3.507812 -3.097656 4 -2.898438 4.3125 -2.640625 C 4.625 -2.378906 4.78125 -2.03125 4.78125 -1.59375 C 4.78125 -1.1875 4.679688 -0.851562 4.484375 -0.59375 C 4.285156 -0.332031 4.023438 -0.144531 3.703125 -0.03125 C 3.390625 0.0820312 3.046875 0.140625 2.671875 0.140625 Z M 2.671875 0.140625 "/></g></g><g style="fill:#ffffff;fill-opacity:1;"><g transform="translate(147.834568, 199.89507)"><path style="stroke:none" d="M 1.5625 0.078125 C 1.375 0.078125 1.21875 0.015625 1.09375 -0.109375 C 0.96875 -0.242188 0.90625 -0.398438 0.90625 -0.578125 C 0.90625 -0.753906 0.96875 -0.90625 1.09375 -1.03125 C 1.21875 -1.15625 1.375 -1.21875 1.5625 -1.21875 C 1.75 -1.21875 1.898438 -1.15625 2.015625 -1.03125 C 2.140625 -0.90625 2.203125 -0.753906 2.203125 -0.578125 C 2.203125 -0.398438 2.140625 -0.242188 2.015625 -0.109375 C 1.898438 0.015625 1.75 0.078125 1.5625 0.078125 Z M 1.5625 0.078125 "/></g></g></g></svg>