<svg xmlns="http://www.w3.org/2000/svg" xmlns:xlink="http://www.w3.org/1999/xlink" width="250" zoomAndPan="magnify" viewBox="0 0 187.5 187.499992" height="250" preserveAspectRatio="xMidYMid meet" version="1.2"><defs><clipPath id="6a1ca5667b"><path d="M 48.621094 11.394531 L 138.382812 11.394531 L 138.382812 101 L 48.621094 101 Z M 48.621094 11.394531 "/></clipPath></defs><g id="39ab355b31"><path style=" stroke:none;fill-rule:nonzero;fill:#ffffff;fill-opacity:1;" d="M 0 0 L 187 0 L 187 187 L 0 187 Z M 0 0 "/><path style=" stroke:none;fill-rule:nonzero;fill:#052a47;fill-opacity:1;" d="M 0 0 L 187 0 L 187 187 L 0 187 Z M 0 0 "/><g clip-rule="nonzero" clip-path="url(#6a1ca5667b)"><path style=" stroke:none;fill-rule:nonzero;fill:#ffffff;fill-opacity:1;" d="M 116.082031 11.734375 L 115.015625 11.839844 C 114.691406 11.867188 106.929688 12.691406 103.949219 17.851562 C 101.367188 22.328125 103.40625 28.273438 104.082031 29.972656 C 103.28125 32.128906 102.632812 34.328125 102.144531 36.566406 C 101.582031 36.015625 101.003906 35.484375 100.417969 34.964844 L 100.378906 34.589844 C 100.332031 34.070312 99.046875 21.867188 91.027344 17.238281 C 83.015625 12.609375 71.800781 17.601562 71.328125 17.8125 L 70.351562 18.257812 L 70.457031 19.320312 C 70.511719 19.839844 71.796875 32.042969 79.808594 36.675781 C 82.332031 38.132812 85.171875 38.640625 87.890625 38.640625 C 92.003906 38.640625 95.84375 37.488281 97.917969 36.730469 C 99.167969 37.816406 100.355469 38.964844 101.476562 40.183594 C 101.230469 41.898438 101.101562 43.636719 101.039062 45.378906 C 100.117188 44.996094 99.203125 44.601562 98.316406 44.167969 C 97.574219 43.804688 96.679688 44.113281 96.3125 44.855469 C 95.953125 45.59375 96.257812 46.492188 97 46.855469 C 98.292969 47.488281 99.628906 48.046875 100.980469 48.566406 L 100.980469 50.609375 C 100.210938 50.210938 99.34375 49.992188 98.445312 49.992188 C 95.890625 49.992188 93.734375 51.734375 93.113281 54.097656 C 89.984375 54.535156 87.253906 56.515625 85.863281 59.375 C 83.328125 59.5 80.914062 60.511719 79.050781 62.226562 C 76.25 61.230469 73.257812 60.882812 70.285156 61.226562 L 52.582031 63.300781 C 50.328125 63.570312 48.621094 65.484375 48.621094 67.765625 L 48.621094 86.699219 C 48.621094 88.09375 49.25 89.382812 50.351562 90.238281 C 51.441406 91.09375 52.84375 91.390625 54.195312 91.050781 L 64.011719 88.605469 C 66.515625 87.984375 69.148438 88.292969 71.433594 89.496094 L 90.261719 99.414062 C 92.226562 100.449219 94.378906 100.964844 96.535156 100.964844 C 98.660156 100.964844 100.789062 100.464844 102.734375 99.457031 L 134.601562 82.929688 C 136.933594 81.71875 138.382812 79.339844 138.382812 76.699219 C 138.382812 74.519531 137.386719 72.503906 135.664062 71.164062 C 133.941406 69.828125 131.730469 69.378906 129.621094 69.925781 L 128.964844 70.097656 C 128.074219 66.554688 125.835938 63.464844 122.707031 61.519531 C 122.703125 57.367188 119.332031 53.996094 115.1875 53.996094 C 114.90625 53.996094 114.625 54.019531 114.351562 54.050781 C 113.433594 50.910156 110.546875 48.644531 107.152344 48.644531 C 106.023438 48.644531 104.949219 48.914062 103.972656 49.375 L 103.972656 47.140625 C 103.972656 46.585938 104.007812 46.042969 104.023438 45.488281 C 105.542969 44.589844 107.105469 43.753906 108.71875 43.027344 C 110.507812 44.3125 115.050781 47.210938 119.898438 47.210938 C 120.84375 47.210938 121.800781 47.101562 122.75 46.84375 C 129.796875 44.957031 133.246094 35.988281 133.382812 35.601562 L 133.765625 34.601562 L 132.933594 33.917969 C 132.617188 33.660156 125.144531 27.613281 118.101562 29.5 C 111.945312 31.152344 108.535156 38.210938 107.683594 40.222656 C 106.53125 40.730469 105.40625 41.292969 104.292969 41.894531 C 104.714844 38.222656 105.550781 34.617188 106.824219 31.160156 C 109.097656 30.761719 114.480469 29.40625 116.851562 25.296875 C 119.832031 20.136719 116.660156 13.007812 116.523438 12.710938 Z M 114.207031 14.996094 C 114.859375 16.890625 115.910156 20.945312 114.261719 23.800781 C 112.996094 26 110.3125 27.164062 108.246094 27.753906 C 108.992188 26.132812 109.8125 24.539062 110.75 23 C 111.179688 22.300781 110.957031 21.375 110.253906 20.945312 C 109.546875 20.519531 108.625 20.738281 108.199219 21.445312 C 107.363281 22.808594 106.632812 24.21875 105.9375 25.644531 C 105.554688 23.589844 105.484375 21.171875 106.542969 19.34375 C 108.191406 16.484375 112.234375 15.375 114.207031 14.996094 Z M 82.839844 18.269531 C 85.136719 18.257812 87.5 18.648438 89.53125 19.824219 C 94.113281 22.46875 96.105469 28.507812 96.914062 32.078125 C 96.246094 31.585938 95.574219 31.09375 94.886719 30.640625 L 87.652344 25.804688 C 86.960938 25.34375 86.03125 25.53125 85.578125 26.222656 C 85.113281 26.910156 85.300781 27.835938 85.992188 28.289062 L 93.21875 33.121094 C 93.875 33.5625 94.503906 34.015625 95.136719 34.484375 C 91.578125 35.535156 85.699219 36.613281 81.304688 34.074219 C 75.882812 30.941406 74.082031 23.035156 73.589844 20.125 C 75.328125 19.476562 79.003906 18.296875 82.839844 18.269531 Z M 120.527344 32.140625 C 124.414062 31.941406 128.398438 34.363281 130.140625 35.570312 C 129.105469 37.761719 126.3125 42.792969 121.976562 43.953125 C 118.441406 44.902344 114.515625 43.117188 112.105469 41.671875 C 112.800781 41.421875 113.5 41.167969 114.207031 40.953125 L 118.5 39.644531 C 119.289062 39.398438 119.734375 38.5625 119.492188 37.773438 C 119.25 36.984375 118.414062 36.535156 117.625 36.78125 L 113.324219 38.097656 C 112.84375 38.242188 112.363281 38.421875 111.890625 38.585938 C 113.324219 36.207031 115.679688 33.25 118.878906 32.390625 C 119.421875 32.246094 119.980469 32.164062 120.527344 32.140625 Z M 92.378906 41.164062 C 91.792969 41.117188 91.210938 41.410156 90.921875 41.957031 C 90.53125 42.683594 90.8125 43.589844 91.539062 43.980469 L 93.378906 44.949219 C 93.601562 45.074219 93.839844 45.125 94.078125 45.125 C 94.609375 45.125 95.132812 44.839844 95.398438 44.332031 C 95.785156 43.601562 95.503906 42.699219 94.78125 42.308594 L 92.945312 41.332031 C 92.765625 41.238281 92.570312 41.179688 92.378906 41.164062 Z M 107.152344 51.636719 C 109.558594 51.636719 111.539062 53.53125 111.65625 55.949219 C 111.679688 56.421875 111.925781 56.855469 112.316406 57.117188 C 112.714844 57.378906 113.210938 57.445312 113.65625 57.28125 C 114.195312 57.089844 114.695312 56.988281 115.1875 56.988281 C 117.6875 56.988281 119.714844 59.023438 119.714844 61.523438 C 119.714844 61.679688 119.691406 61.839844 119.652344 62.132812 C 119.5625 62.75 119.878906 63.359375 120.429688 63.652344 C 123.269531 65.152344 125.308594 67.78125 126.074219 70.84375 L 109.558594 75.128906 C 109.160156 73.960938 108.484375 72.890625 107.574219 72.035156 C 106.054688 70.628906 104.007812 69.910156 101.9375 70.054688 L 98.660156 70.289062 C 97.375 70.382812 96.089844 70.136719 94.925781 69.589844 L 82.1875 63.582031 C 83.4375 62.792969 84.894531 62.347656 86.394531 62.347656 L 86.785156 62.371094 C 87.488281 62.410156 88.046875 61.996094 88.265625 61.371094 C 89.1875 58.753906 91.660156 56.988281 94.429688 56.988281 C 95.257812 56.988281 95.925781 56.324219 95.925781 55.492188 C 95.925781 54.109375 97.058594 52.972656 98.449219 52.972656 C 99.316406 52.972656 100.109375 53.417969 100.578125 54.160156 C 100.859375 54.617188 101.332031 54.902344 101.898438 54.863281 C 102.4375 54.84375 102.921875 54.539062 103.171875 54.066406 C 103.960938 52.566406 105.484375 51.636719 107.152344 51.636719 Z M 72.929688 64.089844 C 75.222656 64.140625 77.488281 64.667969 79.574219 65.65625 L 93.660156 72.300781 C 95.28125 73.066406 97.082031 73.398438 98.875 73.277344 L 102.15625 73.042969 C 103.410156 72.953125 104.617188 73.375 105.539062 74.234375 C 106.457031 75.085938 106.964844 76.257812 106.964844 77.511719 L 106.964844 78.121094 C 106.964844 78.710938 106.621094 79.246094 106.082031 79.488281 L 101.664062 81.46875 C 98.351562 82.957031 94.515625 83.039062 91.144531 81.691406 L 83.601562 78.667969 C 82.828125 78.359375 81.960938 78.734375 81.65625 79.503906 C 81.34375 80.269531 81.71875 81.140625 82.492188 81.445312 L 90.035156 84.472656 C 94.160156 86.121094 98.847656 86.019531 102.898438 84.199219 L 107.308594 82.214844 C 108.917969 81.492188 109.957031 79.886719 109.957031 78.121094 L 130.367188 72.820312 C 131.585938 72.511719 132.839844 72.765625 133.828125 73.53125 C 134.820312 74.296875 135.390625 75.457031 135.390625 76.71875 C 135.390625 78.21875 134.558594 79.582031 133.226562 80.269531 L 101.355469 96.796875 C 98.316406 98.375 94.6875 98.363281 91.652344 96.769531 L 72.824219 86.851562 C 70.875 85.820312 68.722656 85.296875 66.554688 85.296875 C 65.460938 85.296875 64.371094 85.429688 63.292969 85.699219 L 53.46875 88.152344 C 53.019531 88.265625 52.554688 88.164062 52.191406 87.886719 C 51.824219 87.597656 51.613281 87.167969 51.613281 86.699219 L 51.613281 67.765625 C 51.613281 67.003906 52.179688 66.363281 52.933594 66.273438 L 70.632812 64.195312 C 71.398438 64.105469 72.164062 64.070312 72.929688 64.089844 Z M 56.101562 68.09375 C 55.277344 68.09375 54.605469 68.765625 54.605469 69.589844 C 54.605469 70.414062 55.277344 71.085938 56.101562 71.085938 L 59.09375 71.085938 C 59.917969 71.085938 60.589844 70.414062 60.589844 69.589844 C 60.589844 68.765625 59.917969 68.09375 59.09375 68.09375 Z M 56.101562 75.570312 C 55.277344 75.570312 54.605469 76.246094 54.605469 77.066406 C 54.605469 77.890625 55.277344 78.5625 56.101562 78.5625 L 59.09375 78.5625 C 59.917969 78.5625 60.589844 77.890625 60.589844 77.066406 C 60.589844 76.246094 59.917969 75.570312 59.09375 75.570312 Z M 56.101562 83.050781 C 55.277344 83.050781 54.605469 83.722656 54.605469 84.546875 C 54.605469 85.371094 55.277344 86.042969 56.101562 86.042969 L 59.09375 86.042969 C 59.917969 86.042969 60.589844 85.371094 60.589844 84.546875 C 60.589844 83.722656 59.917969 83.050781 59.09375 83.050781 Z M 56.101562 83.050781 "/></g><g style="fill:#ffffff;fill-opacity:1;"><g transform="translate(41.338982, 130.229175)"><path style="stroke:none" d="M 3.3125 0 L 1.875 0 L 1.875 -14.109375 L 3.3125 -14.109375 L 3.3125 -7.78125 L 3.328125 -7.78125 L 10.046875 -14.109375 L 12.109375 -14.109375 L 4.984375 -7.71875 L 12.5 0 L 10.390625 0 L 3.328125 -7.515625 L 3.3125 -7.515625 Z M 3.3125 0 "/></g></g><g style="fill:#ffffff;fill-opacity:1;"><g transform="translate(53.86064, 130.229175)"><path style="stroke:none" d="M 1.796875 -7.28125 C 1.796875 -8.09375 1.769531 -8.78125 1.71875 -9.34375 L 3.015625 -9.34375 C 3.066406 -8.6875 3.09375 -8.148438 3.09375 -7.734375 L 3.125 -7.734375 C 3.300781 -8.097656 3.554688 -8.414062 3.890625 -8.6875 C 4.222656 -8.957031 4.597656 -9.171875 5.015625 -9.328125 C 5.441406 -9.484375 5.875 -9.5625 6.3125 -9.5625 C 7.476562 -9.5625 8.363281 -9.21875 8.96875 -8.53125 C 9.570312 -7.84375 9.875 -6.90625 9.875 -5.71875 L 9.875 0 L 8.515625 0 L 8.515625 -5.15625 C 8.515625 -6.207031 8.320312 -7.015625 7.9375 -7.578125 C 7.5625 -8.148438 6.910156 -8.4375 5.984375 -8.4375 C 5.472656 -8.4375 5.003906 -8.296875 4.578125 -8.015625 C 4.160156 -7.742188 3.816406 -7.335938 3.546875 -6.796875 C 3.285156 -6.253906 3.15625 -5.582031 3.15625 -4.78125 L 3.15625 0 L 1.796875 0 Z M 1.796875 -7.28125 "/></g></g><g style="fill:#ffffff;fill-opacity:1;"><g transform="translate(65.445168, 130.229175)"><path style="stroke:none" d="M 6.078125 0.234375 C 5.140625 0.234375 4.289062 0.0234375 3.53125 -0.390625 C 2.769531 -0.816406 2.175781 -1.398438 1.75 -2.140625 C 1.320312 -2.890625 1.109375 -3.734375 1.109375 -4.671875 C 1.109375 -5.597656 1.320312 -6.429688 1.75 -7.171875 C 2.175781 -7.921875 2.769531 -8.503906 3.53125 -8.921875 C 4.289062 -9.347656 5.140625 -9.5625 6.078125 -9.5625 C 7.035156 -9.5625 7.894531 -9.347656 8.65625 -8.921875 C 9.414062 -8.503906 10.003906 -7.921875 10.421875 -7.171875 C 10.847656 -6.429688 11.0625 -5.597656 11.0625 -4.671875 C 11.0625 -3.734375 10.847656 -2.890625 10.421875 -2.140625 C 10.003906 -1.398438 9.414062 -0.816406 8.65625 -0.390625 C 7.894531 0.0234375 7.035156 0.234375 6.078125 0.234375 Z M 6.078125 -0.921875 C 6.785156 -0.921875 7.40625 -1.082031 7.9375 -1.40625 C 8.476562 -1.738281 8.894531 -2.1875 9.1875 -2.75 C 9.476562 -3.320312 9.625 -3.960938 9.625 -4.671875 C 9.625 -5.367188 9.476562 -6.003906 9.1875 -6.578125 C 8.894531 -7.148438 8.476562 -7.601562 7.9375 -7.9375 C 7.40625 -8.269531 6.785156 -8.4375 6.078125 -8.4375 C 5.378906 -8.4375 4.757812 -8.269531 4.21875 -7.9375 C 3.6875 -7.601562 3.273438 -7.148438 2.984375 -6.578125 C 2.691406 -6.003906 2.546875 -5.367188 2.546875 -4.671875 C 2.546875 -3.960938 2.691406 -3.320312 2.984375 -2.75 C 3.273438 -2.1875 3.6875 -1.738281 4.21875 -1.40625 C 4.757812 -1.082031 5.378906 -0.921875 6.078125 -0.921875 Z M 6.078125 -0.921875 "/></g></g><g style="fill:#ffffff;fill-opacity:1;"><g transform="translate(77.627863, 130.229175)"><path style="stroke:none" d="M 4.9375 0 L 3.46875 0 L 0.515625 -9.34375 L 1.96875 -9.34375 L 4.234375 -1.75 L 4.265625 -1.75 L 6.78125 -9.34375 L 8.09375 -9.34375 L 10.640625 -1.75 L 10.6875 -1.75 L 12.921875 -9.34375 L 14.359375 -9.34375 L 11.40625 0 L 9.921875 0 L 7.4375 -7.578125 L 7.390625 -7.578125 Z M 4.9375 0 "/></g></g><g style="fill:#ffffff;fill-opacity:1;"><g transform="translate(92.502309, 130.229175)"><path style="stroke:none" d="M 3.1875 0 L 1.828125 0 L 1.828125 -15.078125 L 3.1875 -15.078125 Z M 3.1875 0 "/></g></g><g style="fill:#ffffff;fill-opacity:1;"><g transform="translate(97.52692, 130.229175)"><path style="stroke:none" d="M 5.9375 0.234375 C 5.019531 0.234375 4.195312 0.0234375 3.46875 -0.390625 C 2.738281 -0.816406 2.160156 -1.398438 1.734375 -2.140625 C 1.316406 -2.890625 1.109375 -3.734375 1.109375 -4.671875 C 1.109375 -5.585938 1.316406 -6.421875 1.734375 -7.171875 C 2.148438 -7.921875 2.710938 -8.503906 3.421875 -8.921875 C 4.140625 -9.347656 4.941406 -9.5625 5.828125 -9.5625 C 6.765625 -9.5625 7.566406 -9.359375 8.234375 -8.953125 C 8.910156 -8.554688 9.421875 -8.003906 9.765625 -7.296875 C 10.109375 -6.585938 10.28125 -5.800781 10.28125 -4.9375 C 10.28125 -4.675781 10.273438 -4.46875 10.265625 -4.3125 L 2.53125 -4.3125 C 2.539062 -3.6875 2.695312 -3.113281 3 -2.59375 C 3.300781 -2.082031 3.707031 -1.675781 4.21875 -1.375 C 4.738281 -1.070312 5.3125 -0.921875 5.9375 -0.921875 C 6.59375 -0.921875 7.1875 -1.078125 7.71875 -1.390625 C 8.25 -1.703125 8.65625 -2.082031 8.9375 -2.53125 L 9.953125 -1.734375 C 8.910156 -0.421875 7.570312 0.234375 5.9375 0.234375 Z M 8.90625 -5.390625 C 8.882812 -5.984375 8.75 -6.507812 8.5 -6.96875 C 8.257812 -7.425781 7.910156 -7.785156 7.453125 -8.046875 C 6.992188 -8.304688 6.453125 -8.4375 5.828125 -8.4375 C 5.234375 -8.4375 4.691406 -8.296875 4.203125 -8.015625 C 3.722656 -7.734375 3.335938 -7.359375 3.046875 -6.890625 C 2.753906 -6.421875 2.585938 -5.921875 2.546875 -5.390625 Z M 8.90625 -5.390625 "/></g></g><g style="fill:#ffffff;fill-opacity:1;"><g transform="translate(108.931991, 130.229175)"><path style="stroke:none" d="M 5.9375 0.234375 C 5 0.234375 4.160156 0.0195312 3.421875 -0.40625 C 2.679688 -0.84375 2.109375 -1.429688 1.703125 -2.171875 C 1.304688 -2.921875 1.109375 -3.753906 1.109375 -4.671875 C 1.109375 -5.585938 1.304688 -6.414062 1.703125 -7.15625 C 2.109375 -7.90625 2.679688 -8.492188 3.421875 -8.921875 C 4.160156 -9.347656 5 -9.5625 5.9375 -9.5625 C 6.632812 -9.5625 7.300781 -9.398438 7.9375 -9.078125 C 8.570312 -8.753906 9.082031 -8.300781 9.46875 -7.71875 L 9.515625 -7.71875 L 9.515625 -15.078125 L 10.859375 -15.078125 L 10.859375 0 L 9.515625 0 L 9.515625 -1.578125 L 9.46875 -1.578125 C 9.082031 -1.003906 8.570312 -0.554688 7.9375 -0.234375 C 7.300781 0.078125 6.632812 0.234375 5.9375 0.234375 Z M 6.078125 -0.921875 C 6.773438 -0.921875 7.394531 -1.082031 7.9375 -1.40625 C 8.476562 -1.726562 8.898438 -2.175781 9.203125 -2.75 C 9.515625 -3.320312 9.671875 -3.960938 9.671875 -4.671875 C 9.671875 -5.367188 9.515625 -6.003906 9.203125 -6.578125 C 8.898438 -7.148438 8.476562 -7.601562 7.9375 -7.9375 C 7.394531 -8.269531 6.773438 -8.4375 6.078125 -8.4375 C 5.347656 -8.4375 4.71875 -8.269531 4.1875 -7.9375 C 3.65625 -7.601562 3.25 -7.148438 2.96875 -6.578125 C 2.6875 -6.003906 2.546875 -5.367188 2.546875 -4.671875 C 2.546875 -3.960938 2.6875 -3.320312 2.96875 -2.75 C 3.25 -2.1875 3.65625 -1.738281 4.1875 -1.40625 C 4.71875 -1.082031 5.347656 -0.921875 6.078125 -0.921875 Z M 6.078125 -0.921875 "/></g></g><g style="fill:#ffffff;fill-opacity:1;"><g transform="translate(121.633094, 130.229175)"><path style="stroke:none" d="M 5.796875 4.78125 C 4.953125 4.78125 4.132812 4.613281 3.34375 4.28125 C 2.550781 3.945312 1.875 3.488281 1.3125 2.90625 L 2.296875 1.875 C 2.679688 2.363281 3.195312 2.769531 3.84375 3.09375 C 4.5 3.425781 5.171875 3.59375 5.859375 3.59375 C 7.117188 3.59375 8.039062 3.253906 8.625 2.578125 C 9.21875 1.898438 9.515625 1.015625 9.515625 -0.078125 L 9.515625 -1.828125 L 9.46875 -1.828125 C 9.125 -1.273438 8.625 -0.832031 7.96875 -0.5 C 7.3125 -0.164062 6.632812 0 5.9375 0 C 4.976562 0 4.132812 -0.203125 3.40625 -0.609375 C 2.675781 -1.015625 2.109375 -1.578125 1.703125 -2.296875 C 1.304688 -3.023438 1.109375 -3.84375 1.109375 -4.75 C 1.109375 -5.632812 1.3125 -6.441406 1.71875 -7.171875 C 2.125 -7.910156 2.691406 -8.492188 3.421875 -8.921875 C 4.160156 -9.347656 5 -9.5625 5.9375 -9.5625 C 6.644531 -9.5625 7.320312 -9.398438 7.96875 -9.078125 C 8.613281 -8.753906 9.113281 -8.300781 9.46875 -7.71875 L 9.515625 -7.71875 L 9.515625 -9.34375 L 10.859375 -9.34375 L 10.859375 -0.078125 C 10.859375 0.710938 10.710938 1.472656 10.421875 2.203125 C 10.128906 2.929688 9.601562 3.539062 8.84375 4.03125 C 8.09375 4.53125 7.078125 4.78125 5.796875 4.78125 Z M 6.078125 -1.15625 C 6.773438 -1.15625 7.394531 -1.304688 7.9375 -1.609375 C 8.476562 -1.921875 8.898438 -2.351562 9.203125 -2.90625 C 9.515625 -3.457031 9.671875 -4.082031 9.671875 -4.78125 C 9.671875 -5.4375 9.515625 -6.039062 9.203125 -6.59375 C 8.890625 -7.15625 8.457031 -7.601562 7.90625 -7.9375 C 7.363281 -8.269531 6.753906 -8.4375 6.078125 -8.4375 C 5.347656 -8.4375 4.71875 -8.269531 4.1875 -7.9375 C 3.65625 -7.601562 3.25 -7.160156 2.96875 -6.609375 C 2.6875 -6.054688 2.546875 -5.445312 2.546875 -4.78125 C 2.546875 -4.113281 2.6875 -3.503906 2.96875 -2.953125 C 3.25 -2.410156 3.65625 -1.972656 4.1875 -1.640625 C 4.71875 -1.316406 5.347656 -1.15625 6.078125 -1.15625 Z M 6.078125 -1.15625 "/></g></g><g style="fill:#ffffff;fill-opacity:1;"><g transform="translate(134.23451, 130.229175)"><path style="stroke:none" d="M 5.9375 0.234375 C 5.019531 0.234375 4.195312 0.0234375 3.46875 -0.390625 C 2.738281 -0.816406 2.160156 -1.398438 1.734375 -2.140625 C 1.316406 -2.890625 1.109375 -3.734375 1.109375 -4.671875 C 1.109375 -5.585938 1.316406 -6.421875 1.734375 -7.171875 C 2.148438 -7.921875 2.710938 -8.503906 3.421875 -8.921875 C 4.140625 -9.347656 4.941406 -9.5625 5.828125 -9.5625 C 6.765625 -9.5625 7.566406 -9.359375 8.234375 -8.953125 C 8.910156 -8.554688 9.421875 -8.003906 9.765625 -7.296875 C 10.109375 -6.585938 10.28125 -5.800781 10.28125 -4.9375 C 10.28125 -4.675781 10.273438 -4.46875 10.265625 -4.3125 L 2.53125 -4.3125 C 2.539062 -3.6875 2.695312 -3.113281 3 -2.59375 C 3.300781 -2.082031 3.707031 -1.675781 4.21875 -1.375 C 4.738281 -1.070312 5.3125 -0.921875 5.9375 -0.921875 C 6.59375 -0.921875 7.1875 -1.078125 7.71875 -1.390625 C 8.25 -1.703125 8.65625 -2.082031 8.9375 -2.53125 L 9.953125 -1.734375 C 8.910156 -0.421875 7.570312 0.234375 5.9375 0.234375 Z M 8.90625 -5.390625 C 8.882812 -5.984375 8.75 -6.507812 8.5 -6.96875 C 8.257812 -7.425781 7.910156 -7.785156 7.453125 -8.046875 C 6.992188 -8.304688 6.453125 -8.4375 5.828125 -8.4375 C 5.234375 -8.4375 4.691406 -8.296875 4.203125 -8.015625 C 3.722656 -7.734375 3.335938 -7.359375 3.046875 -6.890625 C 2.753906 -6.421875 2.585938 -5.921875 2.546875 -5.390625 Z M 8.90625 -5.390625 "/></g></g><g style="fill:#ffffff;fill-opacity:1;"><g transform="translate(9.361757, 150.285417)"><path style="stroke:none" d="M 6.515625 0 L 1.125 0 L 1.125 -8.46875 L 6.375 -8.46875 L 6.375 -7.703125 L 1.984375 -7.703125 L 1.984375 -4.78125 L 6.09375 -4.78125 L 6.09375 -4.03125 L 1.984375 -4.03125 L 1.984375 -0.765625 L 6.515625 -0.765625 Z M 6.515625 0 "/></g></g><g style="fill:#ffffff;fill-opacity:1;"><g transform="translate(16.446875, 150.285417)"><path style="stroke:none" d="M 1.171875 0 L 0.1875 0 L 2.390625 -2.890625 L 0.328125 -5.609375 L 1.359375 -5.609375 L 2.890625 -3.46875 L 4.421875 -5.609375 L 5.40625 -5.609375 L 3.375 -2.9375 L 5.59375 0 L 4.546875 0 L 2.890625 -2.328125 Z M 1.171875 0 "/></g></g><g style="fill:#ffffff;fill-opacity:1;"><g transform="translate(22.239441, 150.285417)"><path style="stroke:none" d="M 3.65625 0.140625 C 3.070312 0.140625 2.550781 0.015625 2.09375 -0.234375 C 1.632812 -0.492188 1.28125 -0.847656 1.03125 -1.296875 C 0.789062 -1.742188 0.671875 -2.242188 0.671875 -2.796875 C 0.671875 -3.359375 0.789062 -3.863281 1.03125 -4.3125 C 1.28125 -4.757812 1.632812 -5.109375 2.09375 -5.359375 C 2.550781 -5.617188 3.070312 -5.75 3.65625 -5.75 C 4.0625 -5.75 4.453125 -5.664062 4.828125 -5.5 C 5.203125 -5.332031 5.507812 -5.09375 5.75 -4.78125 L 5.109375 -4.328125 C 4.972656 -4.535156 4.773438 -4.707031 4.515625 -4.84375 C 4.253906 -4.988281 3.972656 -5.0625 3.671875 -5.0625 C 3.253906 -5.0625 2.878906 -4.960938 2.546875 -4.765625 C 2.222656 -4.566406 1.972656 -4.296875 1.796875 -3.953125 C 1.617188 -3.609375 1.53125 -3.222656 1.53125 -2.796875 C 1.53125 -2.378906 1.617188 -2 1.796875 -1.65625 C 1.972656 -1.3125 2.222656 -1.039062 2.546875 -0.84375 C 2.867188 -0.644531 3.238281 -0.546875 3.65625 -0.546875 C 4.300781 -0.546875 4.8125 -0.789062 5.1875 -1.28125 L 5.796875 -0.828125 C 5.265625 -0.179688 4.550781 0.140625 3.65625 0.140625 Z M 3.65625 0.140625 "/></g></g><g style="fill:#ffffff;fill-opacity:1;"><g transform="translate(28.223495, 150.285417)"><path style="stroke:none" d="M 1.09375 0 L 1.09375 -9.046875 L 1.921875 -9.046875 L 1.921875 -4.6875 L 1.9375 -4.6875 C 2.082031 -5 2.332031 -5.253906 2.6875 -5.453125 C 3.039062 -5.648438 3.414062 -5.75 3.8125 -5.75 C 4.507812 -5.75 5.039062 -5.539062 5.40625 -5.125 C 5.769531 -4.707031 5.953125 -4.144531 5.953125 -3.4375 L 5.953125 0 L 5.140625 0 L 5.140625 -3.09375 C 5.140625 -3.726562 5.023438 -4.210938 4.796875 -4.546875 C 4.566406 -4.890625 4.171875 -5.0625 3.609375 -5.0625 C 3.304688 -5.0625 3.023438 -4.976562 2.765625 -4.8125 C 2.515625 -4.65625 2.3125 -4.410156 2.15625 -4.078125 C 2 -3.753906 1.921875 -3.351562 1.921875 -2.875 L 1.921875 0 Z M 1.09375 0 "/></g></g><g style="fill:#ffffff;fill-opacity:1;"><g transform="translate(35.200901, 150.285417)"><path style="stroke:none" d="M 2.59375 0.140625 C 2.28125 0.140625 1.976562 0.0820312 1.6875 -0.03125 C 1.394531 -0.144531 1.148438 -0.328125 0.953125 -0.578125 C 0.753906 -0.835938 0.65625 -1.164062 0.65625 -1.5625 C 0.65625 -2.09375 0.828125 -2.492188 1.171875 -2.765625 C 1.523438 -3.046875 1.972656 -3.226562 2.515625 -3.3125 C 3.066406 -3.394531 3.75 -3.4375 4.5625 -3.4375 L 4.609375 -3.4375 L 4.609375 -3.609375 C 4.609375 -4.085938 4.476562 -4.445312 4.21875 -4.6875 C 3.96875 -4.9375 3.597656 -5.0625 3.109375 -5.0625 C 2.796875 -5.0625 2.488281 -5 2.1875 -4.875 C 1.894531 -4.757812 1.648438 -4.601562 1.453125 -4.40625 L 1 -4.9375 C 1.238281 -5.175781 1.546875 -5.367188 1.921875 -5.515625 C 2.304688 -5.671875 2.734375 -5.75 3.203125 -5.75 C 3.609375 -5.75 3.972656 -5.671875 4.296875 -5.515625 C 4.628906 -5.367188 4.890625 -5.140625 5.078125 -4.828125 C 5.273438 -4.523438 5.375 -4.148438 5.375 -3.703125 L 5.375 -1.25 C 5.375 -1.03125 5.378906 -0.804688 5.390625 -0.578125 C 5.410156 -0.347656 5.4375 -0.15625 5.46875 0 L 4.734375 0 C 4.679688 -0.320312 4.65625 -0.625 4.65625 -0.90625 L 4.625 -0.90625 C 4.375 -0.539062 4.085938 -0.273438 3.765625 -0.109375 C 3.441406 0.0546875 3.050781 0.140625 2.59375 0.140625 Z M 2.8125 -0.53125 C 3.175781 -0.53125 3.492188 -0.613281 3.765625 -0.78125 C 4.035156 -0.945312 4.242188 -1.171875 4.390625 -1.453125 C 4.535156 -1.734375 4.609375 -2.039062 4.609375 -2.375 L 4.609375 -2.796875 L 4.375 -2.796875 C 3.519531 -2.796875 2.828125 -2.710938 2.296875 -2.546875 C 1.765625 -2.390625 1.5 -2.070312 1.5 -1.59375 C 1.5 -1.226562 1.625 -0.957031 1.875 -0.78125 C 2.132812 -0.613281 2.445312 -0.53125 2.8125 -0.53125 Z M 2.8125 -0.53125 "/></g></g><g style="fill:#ffffff;fill-opacity:1;"><g transform="translate(41.591874, 150.285417)"><path style="stroke:none" d="M 1.078125 -4.375 C 1.078125 -4.851562 1.0625 -5.265625 1.03125 -5.609375 L 1.8125 -5.609375 C 1.84375 -5.210938 1.859375 -4.890625 1.859375 -4.640625 L 1.875 -4.640625 C 1.976562 -4.859375 2.128906 -5.046875 2.328125 -5.203125 C 2.535156 -5.367188 2.765625 -5.5 3.015625 -5.59375 C 3.273438 -5.695312 3.535156 -5.75 3.796875 -5.75 C 4.484375 -5.75 5.007812 -5.539062 5.375 -5.125 C 5.738281 -4.707031 5.921875 -4.144531 5.921875 -3.4375 L 5.921875 0 L 5.109375 0 L 5.109375 -3.09375 C 5.109375 -3.726562 4.992188 -4.210938 4.765625 -4.546875 C 4.535156 -4.890625 4.144531 -5.0625 3.59375 -5.0625 C 3.289062 -5.0625 3.007812 -4.976562 2.75 -4.8125 C 2.5 -4.65625 2.289062 -4.410156 2.125 -4.078125 C 1.96875 -3.753906 1.890625 -3.351562 1.890625 -2.875 L 1.890625 0 L 1.078125 0 Z M 1.078125 -4.375 "/></g></g><g style="fill:#ffffff;fill-opacity:1;"><g transform="translate(48.545347, 150.285417)"><path style="stroke:none" d="M 3.484375 2.875 C 2.972656 2.875 2.476562 2.773438 2 2.578125 C 1.53125 2.378906 1.128906 2.101562 0.796875 1.75 L 1.375 1.125 C 1.601562 1.414062 1.910156 1.660156 2.296875 1.859375 C 2.691406 2.054688 3.097656 2.15625 3.515625 2.15625 C 4.273438 2.15625 4.828125 1.953125 5.171875 1.546875 C 5.523438 1.140625 5.703125 0.609375 5.703125 -0.046875 L 5.703125 -1.09375 L 5.6875 -1.09375 C 5.476562 -0.757812 5.175781 -0.492188 4.78125 -0.296875 C 4.382812 -0.0976562 3.976562 0 3.5625 0 C 2.988281 0 2.484375 -0.117188 2.046875 -0.359375 C 1.609375 -0.609375 1.269531 -0.945312 1.03125 -1.375 C 0.789062 -1.8125 0.671875 -2.300781 0.671875 -2.84375 C 0.671875 -3.382812 0.789062 -3.875 1.03125 -4.3125 C 1.28125 -4.75 1.625 -5.097656 2.0625 -5.359375 C 2.5 -5.617188 3 -5.75 3.5625 -5.75 C 3.988281 -5.75 4.394531 -5.648438 4.78125 -5.453125 C 5.164062 -5.253906 5.46875 -4.976562 5.6875 -4.625 L 5.703125 -4.625 L 5.703125 -5.609375 L 6.515625 -5.609375 L 6.515625 -0.046875 C 6.515625 0.429688 6.425781 0.882812 6.25 1.3125 C 6.082031 1.75 5.769531 2.117188 5.3125 2.421875 C 4.851562 2.722656 4.242188 2.875 3.484375 2.875 Z M 3.65625 -0.6875 C 4.0625 -0.6875 4.425781 -0.78125 4.75 -0.96875 C 5.082031 -1.15625 5.34375 -1.410156 5.53125 -1.734375 C 5.71875 -2.066406 5.8125 -2.445312 5.8125 -2.875 C 5.8125 -3.257812 5.71875 -3.617188 5.53125 -3.953125 C 5.34375 -4.296875 5.082031 -4.566406 4.75 -4.765625 C 4.425781 -4.960938 4.0625 -5.0625 3.65625 -5.0625 C 3.21875 -5.0625 2.835938 -4.960938 2.515625 -4.765625 C 2.191406 -4.566406 1.945312 -4.300781 1.78125 -3.96875 C 1.613281 -3.632812 1.53125 -3.269531 1.53125 -2.875 C 1.53125 -2.476562 1.613281 -2.113281 1.78125 -1.78125 C 1.945312 -1.445312 2.191406 -1.179688 2.515625 -0.984375 C 2.835938 -0.785156 3.21875 -0.6875 3.65625 -0.6875 Z M 3.65625 -0.6875 "/></g></g><g style="fill:#ffffff;fill-opacity:1;"><g transform="translate(56.109187, 150.285417)"><path style="stroke:none" d="M 3.5625 0.140625 C 3.007812 0.140625 2.515625 0.015625 2.078125 -0.234375 C 1.640625 -0.492188 1.296875 -0.847656 1.046875 -1.296875 C 0.796875 -1.742188 0.671875 -2.242188 0.671875 -2.796875 C 0.671875 -3.347656 0.789062 -3.847656 1.03125 -4.296875 C 1.28125 -4.753906 1.617188 -5.109375 2.046875 -5.359375 C 2.484375 -5.617188 2.96875 -5.75 3.5 -5.75 C 4.0625 -5.75 4.539062 -5.625 4.9375 -5.375 C 5.34375 -5.132812 5.648438 -4.800781 5.859375 -4.375 C 6.066406 -3.957031 6.171875 -3.488281 6.171875 -2.96875 C 6.171875 -2.8125 6.164062 -2.679688 6.15625 -2.578125 L 1.515625 -2.578125 C 1.523438 -2.203125 1.617188 -1.859375 1.796875 -1.546875 C 1.984375 -1.242188 2.226562 -1 2.53125 -0.8125 C 2.84375 -0.632812 3.1875 -0.546875 3.5625 -0.546875 C 3.957031 -0.546875 4.3125 -0.640625 4.625 -0.828125 C 4.945312 -1.015625 5.191406 -1.242188 5.359375 -1.515625 L 5.96875 -1.046875 C 5.34375 -0.253906 4.539062 0.140625 3.5625 0.140625 Z M 5.34375 -3.234375 C 5.332031 -3.585938 5.253906 -3.898438 5.109375 -4.171875 C 4.960938 -4.453125 4.75 -4.671875 4.46875 -4.828125 C 4.195312 -4.984375 3.875 -5.0625 3.5 -5.0625 C 3.144531 -5.0625 2.820312 -4.976562 2.53125 -4.8125 C 2.238281 -4.644531 2.003906 -4.414062 1.828125 -4.125 C 1.648438 -3.84375 1.550781 -3.546875 1.53125 -3.234375 Z M 5.34375 -3.234375 "/></g></g><g style="fill:#ffffff;fill-opacity:1;"><g transform="translate(62.954948, 150.285417)"><path style="stroke:none" d=""/></g></g><g style="fill:#ffffff;fill-opacity:1;"><g transform="translate(65.946981, 150.285417)"><path style="stroke:none" d="M 1.5 -7.1875 C 1.34375 -7.1875 1.207031 -7.238281 1.09375 -7.34375 C 0.976562 -7.457031 0.921875 -7.59375 0.921875 -7.75 C 0.921875 -7.914062 0.976562 -8.050781 1.09375 -8.15625 C 1.207031 -8.269531 1.34375 -8.328125 1.5 -8.328125 C 1.644531 -8.328125 1.773438 -8.269531 1.890625 -8.15625 C 2.015625 -8.050781 2.078125 -7.914062 2.078125 -7.75 C 2.078125 -7.59375 2.015625 -7.457031 1.890625 -7.34375 C 1.773438 -7.238281 1.644531 -7.1875 1.5 -7.1875 Z M 1.90625 0 L 1.09375 0 L 1.09375 -5.609375 L 1.90625 -5.609375 Z M 1.90625 0 "/></g></g><g style="fill:#ffffff;fill-opacity:1;"><g transform="translate(68.939013, 150.285417)"><path style="stroke:none" d="M 1.078125 -4.375 C 1.078125 -4.851562 1.0625 -5.265625 1.03125 -5.609375 L 1.8125 -5.609375 C 1.84375 -5.210938 1.859375 -4.890625 1.859375 -4.640625 L 1.875 -4.640625 C 1.976562 -4.859375 2.128906 -5.046875 2.328125 -5.203125 C 2.535156 -5.367188 2.765625 -5.5 3.015625 -5.59375 C 3.273438 -5.695312 3.535156 -5.75 3.796875 -5.75 C 4.484375 -5.75 5.007812 -5.539062 5.375 -5.125 C 5.738281 -4.707031 5.921875 -4.144531 5.921875 -3.4375 L 5.921875 0 L 5.109375 0 L 5.109375 -3.09375 C 5.109375 -3.726562 4.992188 -4.210938 4.765625 -4.546875 C 4.535156 -4.890625 4.144531 -5.0625 3.59375 -5.0625 C 3.289062 -5.0625 3.007812 -4.976562 2.75 -4.8125 C 2.5 -4.65625 2.289062 -4.410156 2.125 -4.078125 C 1.96875 -3.753906 1.890625 -3.351562 1.890625 -2.875 L 1.890625 0 L 1.078125 0 Z M 1.078125 -4.375 "/></g></g><g style="fill:#ffffff;fill-opacity:1;"><g transform="translate(75.892485, 150.285417)"><path style="stroke:none" d="M 1.078125 -4.375 C 1.078125 -4.851562 1.0625 -5.265625 1.03125 -5.609375 L 1.8125 -5.609375 C 1.84375 -5.210938 1.859375 -4.890625 1.859375 -4.640625 L 1.875 -4.640625 C 1.976562 -4.859375 2.128906 -5.046875 2.328125 -5.203125 C 2.535156 -5.367188 2.765625 -5.5 3.015625 -5.59375 C 3.273438 -5.695312 3.535156 -5.75 3.796875 -5.75 C 4.484375 -5.75 5.007812 -5.539062 5.375 -5.125 C 5.738281 -4.707031 5.921875 -4.144531 5.921875 -3.4375 L 5.921875 0 L 5.109375 0 L 5.109375 -3.09375 C 5.109375 -3.726562 4.992188 -4.210938 4.765625 -4.546875 C 4.535156 -4.890625 4.144531 -5.0625 3.59375 -5.0625 C 3.289062 -5.0625 3.007812 -4.976562 2.75 -4.8125 C 2.5 -4.65625 2.289062 -4.410156 2.125 -4.078125 C 1.96875 -3.753906 1.890625 -3.351562 1.890625 -2.875 L 1.890625 0 L 1.078125 0 Z M 1.078125 -4.375 "/></g></g><g style="fill:#ffffff;fill-opacity:1;"><g transform="translate(82.845958, 150.285417)"><path style="stroke:none" d="M 3.65625 0.140625 C 3.082031 0.140625 2.566406 0.015625 2.109375 -0.234375 C 1.660156 -0.492188 1.304688 -0.847656 1.046875 -1.296875 C 0.796875 -1.742188 0.671875 -2.242188 0.671875 -2.796875 C 0.671875 -3.359375 0.796875 -3.863281 1.046875 -4.3125 C 1.304688 -4.757812 1.660156 -5.109375 2.109375 -5.359375 C 2.566406 -5.617188 3.082031 -5.75 3.65625 -5.75 C 4.226562 -5.75 4.738281 -5.617188 5.1875 -5.359375 C 5.644531 -5.109375 6 -4.757812 6.25 -4.3125 C 6.507812 -3.863281 6.640625 -3.359375 6.640625 -2.796875 C 6.640625 -2.242188 6.507812 -1.742188 6.25 -1.296875 C 6 -0.847656 5.644531 -0.492188 5.1875 -0.234375 C 4.738281 0.015625 4.226562 0.140625 3.65625 0.140625 Z M 3.65625 -0.546875 C 4.070312 -0.546875 4.441406 -0.644531 4.765625 -0.84375 C 5.085938 -1.050781 5.335938 -1.320312 5.515625 -1.65625 C 5.691406 -2 5.78125 -2.378906 5.78125 -2.796875 C 5.78125 -3.222656 5.691406 -3.609375 5.515625 -3.953125 C 5.335938 -4.296875 5.085938 -4.566406 4.765625 -4.765625 C 4.441406 -4.960938 4.070312 -5.0625 3.65625 -5.0625 C 3.226562 -5.0625 2.851562 -4.960938 2.53125 -4.765625 C 2.21875 -4.566406 1.972656 -4.296875 1.796875 -3.953125 C 1.617188 -3.609375 1.53125 -3.222656 1.53125 -2.796875 C 1.53125 -2.378906 1.617188 -2 1.796875 -1.65625 C 1.972656 -1.320312 2.21875 -1.050781 2.53125 -0.84375 C 2.851562 -0.644531 3.226562 -0.546875 3.65625 -0.546875 Z M 3.65625 -0.546875 "/></g></g><g style="fill:#ffffff;fill-opacity:1;"><g transform="translate(90.158469, 150.285417)"><path style="stroke:none" d="M 3.375 0 L 2.484375 0 L 0.1875 -5.609375 L 1.09375 -5.609375 L 2.921875 -0.859375 L 2.9375 -0.859375 L 4.78125 -5.609375 L 5.65625 -5.609375 Z M 3.375 0 "/></g></g><g style="fill:#ffffff;fill-opacity:1;"><g transform="translate(95.998905, 150.285417)"><path style="stroke:none" d="M 2.59375 0.140625 C 2.28125 0.140625 1.976562 0.0820312 1.6875 -0.03125 C 1.394531 -0.144531 1.148438 -0.328125 0.953125 -0.578125 C 0.753906 -0.835938 0.65625 -1.164062 0.65625 -1.5625 C 0.65625 -2.09375 0.828125 -2.492188 1.171875 -2.765625 C 1.523438 -3.046875 1.972656 -3.226562 2.515625 -3.3125 C 3.066406 -3.394531 3.75 -3.4375 4.5625 -3.4375 L 4.609375 -3.4375 L 4.609375 -3.609375 C 4.609375 -4.085938 4.476562 -4.445312 4.21875 -4.6875 C 3.96875 -4.9375 3.597656 -5.0625 3.109375 -5.0625 C 2.796875 -5.0625 2.488281 -5 2.1875 -4.875 C 1.894531 -4.757812 1.648438 -4.601562 1.453125 -4.40625 L 1 -4.9375 C 1.238281 -5.175781 1.546875 -5.367188 1.921875 -5.515625 C 2.304688 -5.671875 2.734375 -5.75 3.203125 -5.75 C 3.609375 -5.75 3.972656 -5.671875 4.296875 -5.515625 C 4.628906 -5.367188 4.890625 -5.140625 5.078125 -4.828125 C 5.273438 -4.523438 5.375 -4.148438 5.375 -3.703125 L 5.375 -1.25 C 5.375 -1.03125 5.378906 -0.804688 5.390625 -0.578125 C 5.410156 -0.347656 5.4375 -0.15625 5.46875 0 L 4.734375 0 C 4.679688 -0.320312 4.65625 -0.625 4.65625 -0.90625 L 4.625 -0.90625 C 4.375 -0.539062 4.085938 -0.273438 3.765625 -0.109375 C 3.441406 0.0546875 3.050781 0.140625 2.59375 0.140625 Z M 2.8125 -0.53125 C 3.175781 -0.53125 3.492188 -0.613281 3.765625 -0.78125 C 4.035156 -0.945312 4.242188 -1.171875 4.390625 -1.453125 C 4.535156 -1.734375 4.609375 -2.039062 4.609375 -2.375 L 4.609375 -2.796875 L 4.375 -2.796875 C 3.519531 -2.796875 2.828125 -2.710938 2.296875 -2.546875 C 1.765625 -2.390625 1.5 -2.070312 1.5 -1.59375 C 1.5 -1.226562 1.625 -0.957031 1.875 -0.78125 C 2.132812 -0.613281 2.445312 -0.53125 2.8125 -0.53125 Z M 2.8125 -0.53125 "/></g></g><g style="fill:#ffffff;fill-opacity:1;"><g transform="translate(102.389878, 150.285417)"><path style="stroke:none" d="M 2.640625 0.078125 C 2.265625 0.078125 1.929688 -0.03125 1.640625 -0.25 C 1.347656 -0.476562 1.203125 -0.867188 1.203125 -1.421875 L 1.203125 -4.9375 L 0.046875 -4.9375 L 0.046875 -5.609375 L 1.203125 -5.609375 L 1.203125 -7.1875 L 2.015625 -7.1875 L 2.015625 -5.609375 L 3.609375 -5.609375 L 3.609375 -4.9375 L 2.015625 -4.9375 L 2.015625 -1.65625 C 2.015625 -1.257812 2.085938 -0.988281 2.234375 -0.84375 C 2.378906 -0.695312 2.585938 -0.625 2.859375 -0.625 C 2.972656 -0.625 3.09375 -0.640625 3.21875 -0.671875 C 3.34375 -0.703125 3.457031 -0.742188 3.5625 -0.796875 L 3.609375 -0.09375 C 3.304688 0.0195312 2.984375 0.078125 2.640625 0.078125 Z M 2.640625 0.078125 "/></g></g><g style="fill:#ffffff;fill-opacity:1;"><g transform="translate(106.183765, 150.285417)"><path style="stroke:none" d="M 1.5 -7.1875 C 1.34375 -7.1875 1.207031 -7.238281 1.09375 -7.34375 C 0.976562 -7.457031 0.921875 -7.59375 0.921875 -7.75 C 0.921875 -7.914062 0.976562 -8.050781 1.09375 -8.15625 C 1.207031 -8.269531 1.34375 -8.328125 1.5 -8.328125 C 1.644531 -8.328125 1.773438 -8.269531 1.890625 -8.15625 C 2.015625 -8.050781 2.078125 -7.914062 2.078125 -7.75 C 2.078125 -7.59375 2.015625 -7.457031 1.890625 -7.34375 C 1.773438 -7.238281 1.644531 -7.1875 1.5 -7.1875 Z M 1.90625 0 L 1.09375 0 L 1.09375 -5.609375 L 1.90625 -5.609375 Z M 1.90625 0 "/></g></g><g style="fill:#ffffff;fill-opacity:1;"><g transform="translate(109.175797, 150.285417)"><path style="stroke:none" d="M 3.375 0 L 2.484375 0 L 0.1875 -5.609375 L 1.09375 -5.609375 L 2.921875 -0.859375 L 2.9375 -0.859375 L 4.78125 -5.609375 L 5.65625 -5.609375 Z M 3.375 0 "/></g></g><g style="fill:#ffffff;fill-opacity:1;"><g transform="translate(115.016233, 150.285417)"><path style="stroke:none" d="M 3.5625 0.140625 C 3.007812 0.140625 2.515625 0.015625 2.078125 -0.234375 C 1.640625 -0.492188 1.296875 -0.847656 1.046875 -1.296875 C 0.796875 -1.742188 0.671875 -2.242188 0.671875 -2.796875 C 0.671875 -3.347656 0.789062 -3.847656 1.03125 -4.296875 C 1.28125 -4.753906 1.617188 -5.109375 2.046875 -5.359375 C 2.484375 -5.617188 2.96875 -5.75 3.5 -5.75 C 4.0625 -5.75 4.539062 -5.625 4.9375 -5.375 C 5.34375 -5.132812 5.648438 -4.800781 5.859375 -4.375 C 6.066406 -3.957031 6.171875 -3.488281 6.171875 -2.96875 C 6.171875 -2.8125 6.164062 -2.679688 6.15625 -2.578125 L 1.515625 -2.578125 C 1.523438 -2.203125 1.617188 -1.859375 1.796875 -1.546875 C 1.984375 -1.242188 2.226562 -1 2.53125 -0.8125 C 2.84375 -0.632812 3.1875 -0.546875 3.5625 -0.546875 C 3.957031 -0.546875 4.3125 -0.640625 4.625 -0.828125 C 4.945312 -1.015625 5.191406 -1.242188 5.359375 -1.515625 L 5.96875 -1.046875 C 5.34375 -0.253906 4.539062 0.140625 3.5625 0.140625 Z M 5.34375 -3.234375 C 5.332031 -3.585938 5.253906 -3.898438 5.109375 -4.171875 C 4.960938 -4.453125 4.75 -4.671875 4.46875 -4.828125 C 4.195312 -4.984375 3.875 -5.0625 3.5 -5.0625 C 3.144531 -5.0625 2.820312 -4.976562 2.53125 -4.8125 C 2.238281 -4.644531 2.003906 -4.414062 1.828125 -4.125 C 1.648438 -3.84375 1.550781 -3.546875 1.53125 -3.234375 Z M 5.34375 -3.234375 "/></g></g><g style="fill:#ffffff;fill-opacity:1;"><g transform="translate(121.861994, 150.285417)"><path style="stroke:none" d=""/></g></g><g style="fill:#ffffff;fill-opacity:1;"><g transform="translate(124.854027, 150.285417)"><path style="stroke:none" d="M 3.65625 0.140625 C 3.070312 0.140625 2.550781 0.015625 2.09375 -0.234375 C 1.632812 -0.492188 1.28125 -0.847656 1.03125 -1.296875 C 0.789062 -1.742188 0.671875 -2.242188 0.671875 -2.796875 C 0.671875 -3.359375 0.789062 -3.863281 1.03125 -4.3125 C 1.28125 -4.757812 1.632812 -5.109375 2.09375 -5.359375 C 2.550781 -5.617188 3.070312 -5.75 3.65625 -5.75 C 4.0625 -5.75 4.453125 -5.664062 4.828125 -5.5 C 5.203125 -5.332031 5.507812 -5.09375 5.75 -4.78125 L 5.109375 -4.328125 C 4.972656 -4.535156 4.773438 -4.707031 4.515625 -4.84375 C 4.253906 -4.988281 3.972656 -5.0625 3.671875 -5.0625 C 3.253906 -5.0625 2.878906 -4.960938 2.546875 -4.765625 C 2.222656 -4.566406 1.972656 -4.296875 1.796875 -3.953125 C 1.617188 -3.609375 1.53125 -3.222656 1.53125 -2.796875 C 1.53125 -2.378906 1.617188 -2 1.796875 -1.65625 C 1.972656 -1.3125 2.222656 -1.039062 2.546875 -0.84375 C 2.867188 -0.644531 3.238281 -0.546875 3.65625 -0.546875 C 4.300781 -0.546875 4.8125 -0.789062 5.1875 -1.28125 L 5.796875 -0.828125 C 5.265625 -0.179688 4.550781 0.140625 3.65625 0.140625 Z M 3.65625 0.140625 "/></g></g><g style="fill:#ffffff;fill-opacity:1;"><g transform="translate(130.83808, 150.285417)"><path style="stroke:none" d="M 3.65625 0.140625 C 3.082031 0.140625 2.566406 0.015625 2.109375 -0.234375 C 1.660156 -0.492188 1.304688 -0.847656 1.046875 -1.296875 C 0.796875 -1.742188 0.671875 -2.242188 0.671875 -2.796875 C 0.671875 -3.359375 0.796875 -3.863281 1.046875 -4.3125 C 1.304688 -4.757812 1.660156 -5.109375 2.109375 -5.359375 C 2.566406 -5.617188 3.082031 -5.75 3.65625 -5.75 C 4.226562 -5.75 4.738281 -5.617188 5.1875 -5.359375 C 5.644531 -5.109375 6 -4.757812 6.25 -4.3125 C 6.507812 -3.863281 6.640625 -3.359375 6.640625 -2.796875 C 6.640625 -2.242188 6.507812 -1.742188 6.25 -1.296875 C 6 -0.847656 5.644531 -0.492188 5.1875 -0.234375 C 4.738281 0.015625 4.226562 0.140625 3.65625 0.140625 Z M 3.65625 -0.546875 C 4.070312 -0.546875 4.441406 -0.644531 4.765625 -0.84375 C 5.085938 -1.050781 5.335938 -1.320312 5.515625 -1.65625 C 5.691406 -2 5.78125 -2.378906 5.78125 -2.796875 C 5.78125 -3.222656 5.691406 -3.609375 5.515625 -3.953125 C 5.335938 -4.296875 5.085938 -4.566406 4.765625 -4.765625 C 4.441406 -4.960938 4.070312 -5.0625 3.65625 -5.0625 C 3.226562 -5.0625 2.851562 -4.960938 2.53125 -4.765625 C 2.21875 -4.566406 1.972656 -4.296875 1.796875 -3.953125 C 1.617188 -3.609375 1.53125 -3.222656 1.53125 -2.796875 C 1.53125 -2.378906 1.617188 -2 1.796875 -1.65625 C 1.972656 -1.320312 2.21875 -1.050781 2.53125 -0.84375 C 2.851562 -0.644531 3.226562 -0.546875 3.65625 -0.546875 Z M 3.65625 -0.546875 "/></g></g><g style="fill:#ffffff;fill-opacity:1;"><g transform="translate(138.150592, 150.285417)"><path style="stroke:none" d="M 1.078125 -4.375 C 1.078125 -4.851562 1.0625 -5.265625 1.03125 -5.609375 L 1.8125 -5.609375 C 1.84375 -5.210938 1.859375 -4.890625 1.859375 -4.640625 L 1.875 -4.640625 C 1.976562 -4.859375 2.128906 -5.046875 2.328125 -5.203125 C 2.535156 -5.367188 2.765625 -5.5 3.015625 -5.59375 C 3.273438 -5.695312 3.535156 -5.75 3.796875 -5.75 C 4.484375 -5.75 5.007812 -5.539062 5.375 -5.125 C 5.738281 -4.707031 5.921875 -4.144531 5.921875 -3.4375 L 5.921875 0 L 5.109375 0 L 5.109375 -3.09375 C 5.109375 -3.726562 4.992188 -4.210938 4.765625 -4.546875 C 4.535156 -4.890625 4.144531 -5.0625 3.59375 -5.0625 C 3.289062 -5.0625 3.007812 -4.976562 2.75 -4.8125 C 2.5 -4.65625 2.289062 -4.410156 2.125 -4.078125 C 1.96875 -3.753906 1.890625 -3.351562 1.890625 -2.875 L 1.890625 0 L 1.078125 0 Z M 1.078125 -4.375 "/></g></g><g style="fill:#ffffff;fill-opacity:1;"><g transform="translate(145.104064, 150.285417)"><path style="stroke:none" d="M 3.65625 0.140625 C 3.070312 0.140625 2.550781 0.015625 2.09375 -0.234375 C 1.632812 -0.492188 1.28125 -0.847656 1.03125 -1.296875 C 0.789062 -1.742188 0.671875 -2.242188 0.671875 -2.796875 C 0.671875 -3.359375 0.789062 -3.863281 1.03125 -4.3125 C 1.28125 -4.757812 1.632812 -5.109375 2.09375 -5.359375 C 2.550781 -5.617188 3.070312 -5.75 3.65625 -5.75 C 4.0625 -5.75 4.453125 -5.664062 4.828125 -5.5 C 5.203125 -5.332031 5.507812 -5.09375 5.75 -4.78125 L 5.109375 -4.328125 C 4.972656 -4.535156 4.773438 -4.707031 4.515625 -4.84375 C 4.253906 -4.988281 3.972656 -5.0625 3.671875 -5.0625 C 3.253906 -5.0625 2.878906 -4.960938 2.546875 -4.765625 C 2.222656 -4.566406 1.972656 -4.296875 1.796875 -3.953125 C 1.617188 -3.609375 1.53125 -3.222656 1.53125 -2.796875 C 1.53125 -2.378906 1.617188 -2 1.796875 -1.65625 C 1.972656 -1.3125 2.222656 -1.039062 2.546875 -0.84375 C 2.867188 -0.644531 3.238281 -0.546875 3.65625 -0.546875 C 4.300781 -0.546875 4.8125 -0.789062 5.1875 -1.28125 L 5.796875 -0.828125 C 5.265625 -0.179688 4.550781 0.140625 3.65625 0.140625 Z M 3.65625 0.140625 "/></g></g><g style="fill:#ffffff;fill-opacity:1;"><g transform="translate(151.088118, 150.285417)"><path style="stroke:none" d="M 3.5625 0.140625 C 3.007812 0.140625 2.515625 0.015625 2.078125 -0.234375 C 1.640625 -0.492188 1.296875 -0.847656 1.046875 -1.296875 C 0.796875 -1.742188 0.671875 -2.242188 0.671875 -2.796875 C 0.671875 -3.347656 0.789062 -3.847656 1.03125 -4.296875 C 1.28125 -4.753906 1.617188 -5.109375 2.046875 -5.359375 C 2.484375 -5.617188 2.96875 -5.75 3.5 -5.75 C 4.0625 -5.75 4.539062 -5.625 4.9375 -5.375 C 5.34375 -5.132812 5.648438 -4.800781 5.859375 -4.375 C 6.066406 -3.957031 6.171875 -3.488281 6.171875 -2.96875 C 6.171875 -2.8125 6.164062 -2.679688 6.15625 -2.578125 L 1.515625 -2.578125 C 1.523438 -2.203125 1.617188 -1.859375 1.796875 -1.546875 C 1.984375 -1.242188 2.226562 -1 2.53125 -0.8125 C 2.84375 -0.632812 3.1875 -0.546875 3.5625 -0.546875 C 3.957031 -0.546875 4.3125 -0.640625 4.625 -0.828125 C 4.945312 -1.015625 5.191406 -1.242188 5.359375 -1.515625 L 5.96875 -1.046875 C 5.34375 -0.253906 4.539062 0.140625 3.5625 0.140625 Z M 5.34375 -3.234375 C 5.332031 -3.585938 5.253906 -3.898438 5.109375 -4.171875 C 4.960938 -4.453125 4.75 -4.671875 4.46875 -4.828125 C 4.195312 -4.984375 3.875 -5.0625 3.5 -5.0625 C 3.144531 -5.0625 2.820312 -4.976562 2.53125 -4.8125 C 2.238281 -4.644531 2.003906 -4.414062 1.828125 -4.125 C 1.648438 -3.84375 1.550781 -3.546875 1.53125 -3.234375 Z M 5.34375 -3.234375 "/></g></g><g style="fill:#ffffff;fill-opacity:1;"><g transform="translate(157.933879, 150.285417)"><path style="stroke:none" d="M 1.078125 2.875 L 1.078125 -5.609375 L 1.890625 -5.609375 L 1.890625 -4.625 L 1.921875 -4.625 C 2.148438 -4.976562 2.453125 -5.253906 2.828125 -5.453125 C 3.210938 -5.648438 3.613281 -5.75 4.03125 -5.75 C 4.601562 -5.75 5.109375 -5.617188 5.546875 -5.359375 C 5.992188 -5.097656 6.335938 -4.742188 6.578125 -4.296875 C 6.816406 -3.847656 6.9375 -3.347656 6.9375 -2.796875 C 6.9375 -2.242188 6.816406 -1.742188 6.578125 -1.296875 C 6.335938 -0.859375 5.992188 -0.507812 5.546875 -0.25 C 5.109375 0.0078125 4.601562 0.140625 4.03125 0.140625 C 3.625 0.140625 3.226562 0.046875 2.84375 -0.140625 C 2.46875 -0.335938 2.160156 -0.609375 1.921875 -0.953125 L 1.890625 -0.953125 L 1.890625 2.875 Z M 3.953125 -0.546875 C 4.390625 -0.546875 4.765625 -0.644531 5.078125 -0.84375 C 5.398438 -1.050781 5.644531 -1.320312 5.8125 -1.65625 C 5.976562 -2 6.0625 -2.378906 6.0625 -2.796875 C 6.0625 -3.222656 5.976562 -3.609375 5.8125 -3.953125 C 5.644531 -4.296875 5.398438 -4.566406 5.078125 -4.765625 C 4.765625 -4.960938 4.390625 -5.0625 3.953125 -5.0625 C 3.535156 -5.0625 3.160156 -4.960938 2.828125 -4.765625 C 2.503906 -4.566406 2.25 -4.296875 2.0625 -3.953125 C 1.882812 -3.609375 1.796875 -3.222656 1.796875 -2.796875 C 1.796875 -2.378906 1.882812 -2 2.0625 -1.65625 C 2.25 -1.3125 2.503906 -1.039062 2.828125 -0.84375 C 3.160156 -0.644531 3.535156 -0.546875 3.953125 -0.546875 Z M 3.953125 -0.546875 "/></g></g><g style="fill:#ffffff;fill-opacity:1;"><g transform="translate(165.533627, 150.285417)"><path style="stroke:none" d="M 2.640625 0.078125 C 2.265625 0.078125 1.929688 -0.03125 1.640625 -0.25 C 1.347656 -0.476562 1.203125 -0.867188 1.203125 -1.421875 L 1.203125 -4.9375 L 0.046875 -4.9375 L 0.046875 -5.609375 L 1.203125 -5.609375 L 1.203125 -7.1875 L 2.015625 -7.1875 L 2.015625 -5.609375 L 3.609375 -5.609375 L 3.609375 -4.9375 L 2.015625 -4.9375 L 2.015625 -1.65625 C 2.015625 -1.257812 2.085938 -0.988281 2.234375 -0.84375 C 2.378906 -0.695312 2.585938 -0.625 2.859375 -0.625 C 2.972656 -0.625 3.09375 -0.640625 3.21875 -0.671875 C 3.34375 -0.703125 3.457031 -0.742188 3.5625 -0.796875 L 3.609375 -0.09375 C 3.304688 0.0195312 2.984375 0.078125 2.640625 0.078125 Z M 2.640625 0.078125 "/></g></g><g style="fill:#ffffff;fill-opacity:1;"><g transform="translate(169.327514, 150.285417)"><path style="stroke:none" d="M 2.671875 0.140625 C 2.222656 0.140625 1.800781 0.0507812 1.40625 -0.125 C 1.019531 -0.3125 0.703125 -0.585938 0.453125 -0.953125 L 1.09375 -1.421875 C 1.25 -1.171875 1.46875 -0.960938 1.75 -0.796875 C 2.03125 -0.628906 2.332031 -0.546875 2.65625 -0.546875 C 3.039062 -0.546875 3.351562 -0.625 3.59375 -0.78125 C 3.84375 -0.9375 3.96875 -1.1875 3.96875 -1.53125 C 3.96875 -1.71875 3.90625 -1.875 3.78125 -2 C 3.664062 -2.132812 3.488281 -2.25 3.25 -2.34375 C 3.019531 -2.4375 2.710938 -2.523438 2.328125 -2.609375 C 2.035156 -2.679688 1.773438 -2.765625 1.546875 -2.859375 C 1.316406 -2.960938 1.117188 -3.113281 0.953125 -3.3125 C 0.796875 -3.519531 0.71875 -3.789062 0.71875 -4.125 C 0.71875 -4.476562 0.804688 -4.773438 0.984375 -5.015625 C 1.171875 -5.265625 1.414062 -5.445312 1.71875 -5.5625 C 2.019531 -5.6875 2.351562 -5.75 2.71875 -5.75 C 3.113281 -5.75 3.492188 -5.65625 3.859375 -5.46875 C 4.234375 -5.289062 4.507812 -5.046875 4.6875 -4.734375 L 4.0625 -4.265625 C 3.9375 -4.503906 3.75 -4.695312 3.5 -4.84375 C 3.257812 -4.988281 2.988281 -5.0625 2.6875 -5.0625 C 2.351562 -5.0625 2.070312 -4.988281 1.84375 -4.84375 C 1.613281 -4.695312 1.5 -4.476562 1.5 -4.1875 C 1.5 -3.9375 1.601562 -3.738281 1.8125 -3.59375 C 2.019531 -3.445312 2.363281 -3.328125 2.84375 -3.234375 C 3.5 -3.097656 3.984375 -2.894531 4.296875 -2.625 C 4.617188 -2.363281 4.78125 -2.019531 4.78125 -1.59375 C 4.78125 -1.1875 4.675781 -0.851562 4.46875 -0.59375 C 4.269531 -0.332031 4.007812 -0.144531 3.6875 -0.03125 C 3.375 0.0820312 3.035156 0.140625 2.671875 0.140625 Z M 2.671875 0.140625 "/></g></g><g style="fill:#ffffff;fill-opacity:1;"><g transform="translate(174.647544, 150.285417)"><path style="stroke:none" d=""/></g></g><g style="fill:#ffffff;fill-opacity:1;"><g transform="translate(55.738083, 166.741533)"><path style="stroke:none" d="M 2.59375 0.140625 C 2.28125 0.140625 1.976562 0.0820312 1.6875 -0.03125 C 1.394531 -0.144531 1.148438 -0.328125 0.953125 -0.578125 C 0.753906 -0.835938 0.65625 -1.164062 0.65625 -1.5625 C 0.65625 -2.09375 0.828125 -2.492188 1.171875 -2.765625 C 1.523438 -3.046875 1.972656 -3.226562 2.515625 -3.3125 C 3.066406 -3.394531 3.75 -3.4375 4.5625 -3.4375 L 4.609375 -3.4375 L 4.609375 -3.609375 C 4.609375 -4.085938 4.476562 -4.445312 4.21875 -4.6875 C 3.96875 -4.9375 3.597656 -5.0625 3.109375 -5.0625 C 2.796875 -5.0625 2.488281 -5 2.1875 -4.875 C 1.894531 -4.757812 1.648438 -4.601562 1.453125 -4.40625 L 1 -4.9375 C 1.238281 -5.175781 1.546875 -5.367188 1.921875 -5.515625 C 2.304688 -5.671875 2.734375 -5.75 3.203125 -5.75 C 3.609375 -5.75 3.972656 -5.671875 4.296875 -5.515625 C 4.628906 -5.367188 4.890625 -5.140625 5.078125 -4.828125 C 5.273438 -4.523438 5.375 -4.148438 5.375 -3.703125 L 5.375 -1.25 C 5.375 -1.03125 5.378906 -0.804688 5.390625 -0.578125 C 5.410156 -0.347656 5.4375 -0.15625 5.46875 0 L 4.734375 0 C 4.679688 -0.320312 4.65625 -0.625 4.65625 -0.90625 L 4.625 -0.90625 C 4.375 -0.539062 4.085938 -0.273438 3.765625 -0.109375 C 3.441406 0.0546875 3.050781 0.140625 2.59375 0.140625 Z M 2.8125 -0.53125 C 3.175781 -0.53125 3.492188 -0.613281 3.765625 -0.78125 C 4.035156 -0.945312 4.242188 -1.171875 4.390625 -1.453125 C 4.535156 -1.734375 4.609375 -2.039062 4.609375 -2.375 L 4.609375 -2.796875 L 4.375 -2.796875 C 3.519531 -2.796875 2.828125 -2.710938 2.296875 -2.546875 C 1.765625 -2.390625 1.5 -2.070312 1.5 -1.59375 C 1.5 -1.226562 1.625 -0.957031 1.875 -0.78125 C 2.132812 -0.613281 2.445312 -0.53125 2.8125 -0.53125 Z M 2.8125 -0.53125 "/></g></g><g style="fill:#ffffff;fill-opacity:1;"><g transform="translate(62.129056, 166.741533)"><path style="stroke:none" d="M 1.078125 -4.375 C 1.078125 -4.851562 1.0625 -5.265625 1.03125 -5.609375 L 1.8125 -5.609375 C 1.84375 -5.210938 1.859375 -4.890625 1.859375 -4.640625 L 1.875 -4.640625 C 1.976562 -4.859375 2.128906 -5.046875 2.328125 -5.203125 C 2.535156 -5.367188 2.765625 -5.5 3.015625 -5.59375 C 3.273438 -5.695312 3.535156 -5.75 3.796875 -5.75 C 4.484375 -5.75 5.007812 -5.539062 5.375 -5.125 C 5.738281 -4.707031 5.921875 -4.144531 5.921875 -3.4375 L 5.921875 0 L 5.109375 0 L 5.109375 -3.09375 C 5.109375 -3.726562 4.992188 -4.210938 4.765625 -4.546875 C 4.535156 -4.890625 4.144531 -5.0625 3.59375 -5.0625 C 3.289062 -5.0625 3.007812 -4.976562 2.75 -4.8125 C 2.5 -4.65625 2.289062 -4.410156 2.125 -4.078125 C 1.96875 -3.753906 1.890625 -3.351562 1.890625 -2.875 L 1.890625 0 L 1.078125 0 Z M 1.078125 -4.375 "/></g></g><g style="fill:#ffffff;fill-opacity:1;"><g transform="translate(69.082528, 166.741533)"><path style="stroke:none" d="M 3.5625 0.140625 C 3 0.140625 2.492188 0.0078125 2.046875 -0.25 C 1.609375 -0.507812 1.269531 -0.859375 1.03125 -1.296875 C 0.789062 -1.742188 0.671875 -2.242188 0.671875 -2.796875 C 0.671875 -3.347656 0.789062 -3.847656 1.03125 -4.296875 C 1.269531 -4.742188 1.609375 -5.097656 2.046875 -5.359375 C 2.492188 -5.617188 3 -5.75 3.5625 -5.75 C 3.976562 -5.75 4.378906 -5.648438 4.765625 -5.453125 C 5.148438 -5.253906 5.457031 -4.976562 5.6875 -4.625 L 5.703125 -4.625 L 5.703125 -9.046875 L 6.515625 -9.046875 L 6.515625 0 L 5.703125 0 L 5.703125 -0.953125 L 5.6875 -0.953125 C 5.457031 -0.609375 5.148438 -0.335938 4.765625 -0.140625 C 4.378906 0.046875 3.976562 0.140625 3.5625 0.140625 Z M 3.65625 -0.546875 C 4.0625 -0.546875 4.425781 -0.644531 4.75 -0.84375 C 5.082031 -1.039062 5.34375 -1.3125 5.53125 -1.65625 C 5.71875 -2 5.8125 -2.378906 5.8125 -2.796875 C 5.8125 -3.222656 5.71875 -3.609375 5.53125 -3.953125 C 5.34375 -4.296875 5.082031 -4.566406 4.75 -4.765625 C 4.425781 -4.960938 4.0625 -5.0625 3.65625 -5.0625 C 3.21875 -5.0625 2.835938 -4.960938 2.515625 -4.765625 C 2.191406 -4.566406 1.945312 -4.296875 1.78125 -3.953125 C 1.613281 -3.609375 1.53125 -3.222656 1.53125 -2.796875 C 1.53125 -2.378906 1.613281 -2 1.78125 -1.65625 C 1.945312 -1.320312 2.191406 -1.050781 2.515625 -0.84375 C 2.835938 -0.644531 3.21875 -0.546875 3.65625 -0.546875 Z M 3.65625 -0.546875 "/></g></g><g style="fill:#ffffff;fill-opacity:1;"><g transform="translate(76.70621, 166.741533)"><path style="stroke:none" d=""/></g></g><g style="fill:#ffffff;fill-opacity:1;"><g transform="translate(79.698243, 166.741533)"><path style="stroke:none" d="M 7.40625 -5.75 C 8.101562 -5.75 8.632812 -5.539062 9 -5.125 C 9.363281 -4.707031 9.546875 -4.144531 9.546875 -3.4375 L 9.546875 0 L 8.71875 0 L 8.71875 -3.09375 C 8.71875 -3.71875 8.601562 -4.203125 8.375 -4.546875 C 8.144531 -4.890625 7.78125 -5.0625 7.28125 -5.0625 C 6.90625 -5.0625 6.597656 -4.960938 6.359375 -4.765625 C 6.128906 -4.566406 5.957031 -4.3125 5.84375 -4 C 5.738281 -3.695312 5.6875 -3.359375 5.6875 -2.984375 L 5.6875 0 L 4.875 0 L 4.875 -3.265625 C 4.875 -3.660156 4.832031 -3.984375 4.75 -4.234375 C 4.675781 -4.492188 4.539062 -4.695312 4.34375 -4.84375 C 4.144531 -4.988281 3.867188 -5.0625 3.515625 -5.0625 C 3.242188 -5.0625 2.984375 -4.976562 2.734375 -4.8125 C 2.484375 -4.65625 2.28125 -4.410156 2.125 -4.078125 C 1.96875 -3.742188 1.890625 -3.34375 1.890625 -2.875 L 1.890625 0 L 1.078125 0 L 1.078125 -4.375 C 1.078125 -4.851562 1.0625 -5.265625 1.03125 -5.609375 L 1.8125 -5.609375 C 1.84375 -5.210938 1.859375 -4.890625 1.859375 -4.640625 L 1.875 -4.640625 C 2.039062 -4.972656 2.289062 -5.238281 2.625 -5.4375 C 2.957031 -5.644531 3.320312 -5.75 3.71875 -5.75 C 4.082031 -5.75 4.414062 -5.65625 4.71875 -5.46875 C 5.03125 -5.289062 5.273438 -4.988281 5.453125 -4.5625 C 5.640625 -4.945312 5.898438 -5.238281 6.234375 -5.4375 C 6.566406 -5.644531 6.957031 -5.75 7.40625 -5.75 Z M 7.40625 -5.75 "/></g></g><g style="fill:#ffffff;fill-opacity:1;"><g transform="translate(90.266077, 166.741533)"><path style="stroke:none" d="M 3.5625 0.140625 C 3.007812 0.140625 2.515625 0.015625 2.078125 -0.234375 C 1.640625 -0.492188 1.296875 -0.847656 1.046875 -1.296875 C 0.796875 -1.742188 0.671875 -2.242188 0.671875 -2.796875 C 0.671875 -3.347656 0.789062 -3.847656 1.03125 -4.296875 C 1.28125 -4.753906 1.617188 -5.109375 2.046875 -5.359375 C 2.484375 -5.617188 2.96875 -5.75 3.5 -5.75 C 4.0625 -5.75 4.539062 -5.625 4.9375 -5.375 C 5.34375 -5.132812 5.648438 -4.800781 5.859375 -4.375 C 6.066406 -3.957031 6.171875 -3.488281 6.171875 -2.96875 C 6.171875 -2.8125 6.164062 -2.679688 6.15625 -2.578125 L 1.515625 -2.578125 C 1.523438 -2.203125 1.617188 -1.859375 1.796875 -1.546875 C 1.984375 -1.242188 2.226562 -1 2.53125 -0.8125 C 2.84375 -0.632812 3.1875 -0.546875 3.5625 -0.546875 C 3.957031 -0.546875 4.3125 -0.640625 4.625 -0.828125 C 4.945312 -1.015625 5.191406 -1.242188 5.359375 -1.515625 L 5.96875 -1.046875 C 5.34375 -0.253906 4.539062 0.140625 3.5625 0.140625 Z M 5.34375 -3.234375 C 5.332031 -3.585938 5.253906 -3.898438 5.109375 -4.171875 C 4.960938 -4.453125 4.75 -4.671875 4.46875 -4.828125 C 4.195312 -4.984375 3.875 -5.0625 3.5 -5.0625 C 3.144531 -5.0625 2.820312 -4.976562 2.53125 -4.8125 C 2.238281 -4.644531 2.003906 -4.414062 1.828125 -4.125 C 1.648438 -3.84375 1.550781 -3.546875 1.53125 -3.234375 Z M 5.34375 -3.234375 "/></g></g><g style="fill:#ffffff;fill-opacity:1;"><g transform="translate(97.111838, 166.741533)"><path style="stroke:none" d="M 2.640625 0.078125 C 2.265625 0.078125 1.929688 -0.03125 1.640625 -0.25 C 1.347656 -0.476562 1.203125 -0.867188 1.203125 -1.421875 L 1.203125 -4.9375 L 0.046875 -4.9375 L 0.046875 -5.609375 L 1.203125 -5.609375 L 1.203125 -7.1875 L 2.015625 -7.1875 L 2.015625 -5.609375 L 3.609375 -5.609375 L 3.609375 -4.9375 L 2.015625 -4.9375 L 2.015625 -1.65625 C 2.015625 -1.257812 2.085938 -0.988281 2.234375 -0.84375 C 2.378906 -0.695312 2.585938 -0.625 2.859375 -0.625 C 2.972656 -0.625 3.09375 -0.640625 3.21875 -0.671875 C 3.34375 -0.703125 3.457031 -0.742188 3.5625 -0.796875 L 3.609375 -0.09375 C 3.304688 0.0195312 2.984375 0.078125 2.640625 0.078125 Z M 2.640625 0.078125 "/></g></g><g style="fill:#ffffff;fill-opacity:1;"><g transform="translate(100.905726, 166.741533)"><path style="stroke:none" d="M 1.09375 0 L 1.09375 -9.046875 L 1.921875 -9.046875 L 1.921875 -4.6875 L 1.9375 -4.6875 C 2.082031 -5 2.332031 -5.253906 2.6875 -5.453125 C 3.039062 -5.648438 3.414062 -5.75 3.8125 -5.75 C 4.507812 -5.75 5.039062 -5.539062 5.40625 -5.125 C 5.769531 -4.707031 5.953125 -4.144531 5.953125 -3.4375 L 5.953125 0 L 5.140625 0 L 5.140625 -3.09375 C 5.140625 -3.726562 5.023438 -4.210938 4.796875 -4.546875 C 4.566406 -4.890625 4.171875 -5.0625 3.609375 -5.0625 C 3.304688 -5.0625 3.023438 -4.976562 2.765625 -4.8125 C 2.515625 -4.65625 2.3125 -4.410156 2.15625 -4.078125 C 2 -3.753906 1.921875 -3.351562 1.921875 -2.875 L 1.921875 0 Z M 1.09375 0 "/></g></g><g style="fill:#ffffff;fill-opacity:1;"><g transform="translate(107.883132, 166.741533)"><path style="stroke:none" d="M 3.65625 0.140625 C 3.082031 0.140625 2.566406 0.015625 2.109375 -0.234375 C 1.660156 -0.492188 1.304688 -0.847656 1.046875 -1.296875 C 0.796875 -1.742188 0.671875 -2.242188 0.671875 -2.796875 C 0.671875 -3.359375 0.796875 -3.863281 1.046875 -4.3125 C 1.304688 -4.757812 1.660156 -5.109375 2.109375 -5.359375 C 2.566406 -5.617188 3.082031 -5.75 3.65625 -5.75 C 4.226562 -5.75 4.738281 -5.617188 5.1875 -5.359375 C 5.644531 -5.109375 6 -4.757812 6.25 -4.3125 C 6.507812 -3.863281 6.640625 -3.359375 6.640625 -2.796875 C 6.640625 -2.242188 6.507812 -1.742188 6.25 -1.296875 C 6 -0.847656 5.644531 -0.492188 5.1875 -0.234375 C 4.738281 0.015625 4.226562 0.140625 3.65625 0.140625 Z M 3.65625 -0.546875 C 4.070312 -0.546875 4.441406 -0.644531 4.765625 -0.84375 C 5.085938 -1.050781 5.335938 -1.320312 5.515625 -1.65625 C 5.691406 -2 5.78125 -2.378906 5.78125 -2.796875 C 5.78125 -3.222656 5.691406 -3.609375 5.515625 -3.953125 C 5.335938 -4.296875 5.085938 -4.566406 4.765625 -4.765625 C 4.441406 -4.960938 4.070312 -5.0625 3.65625 -5.0625 C 3.226562 -5.0625 2.851562 -4.960938 2.53125 -4.765625 C 2.21875 -4.566406 1.972656 -4.296875 1.796875 -3.953125 C 1.617188 -3.609375 1.53125 -3.222656 1.53125 -2.796875 C 1.53125 -2.378906 1.617188 -2 1.796875 -1.65625 C 1.972656 -1.320312 2.21875 -1.050781 2.53125 -0.84375 C 2.851562 -0.644531 3.226562 -0.546875 3.65625 -0.546875 Z M 3.65625 -0.546875 "/></g></g><g style="fill:#ffffff;fill-opacity:1;"><g transform="translate(115.195644, 166.741533)"><path style="stroke:none" d="M 3.5625 0.140625 C 3 0.140625 2.492188 0.0078125 2.046875 -0.25 C 1.609375 -0.507812 1.269531 -0.859375 1.03125 -1.296875 C 0.789062 -1.742188 0.671875 -2.242188 0.671875 -2.796875 C 0.671875 -3.347656 0.789062 -3.847656 1.03125 -4.296875 C 1.269531 -4.742188 1.609375 -5.097656 2.046875 -5.359375 C 2.492188 -5.617188 3 -5.75 3.5625 -5.75 C 3.976562 -5.75 4.378906 -5.648438 4.765625 -5.453125 C 5.148438 -5.253906 5.457031 -4.976562 5.6875 -4.625 L 5.703125 -4.625 L 5.703125 -9.046875 L 6.515625 -9.046875 L 6.515625 0 L 5.703125 0 L 5.703125 -0.953125 L 5.6875 -0.953125 C 5.457031 -0.609375 5.148438 -0.335938 4.765625 -0.140625 C 4.378906 0.046875 3.976562 0.140625 3.5625 0.140625 Z M 3.65625 -0.546875 C 4.0625 -0.546875 4.425781 -0.644531 4.75 -0.84375 C 5.082031 -1.039062 5.34375 -1.3125 5.53125 -1.65625 C 5.71875 -2 5.8125 -2.378906 5.8125 -2.796875 C 5.8125 -3.222656 5.71875 -3.609375 5.53125 -3.953125 C 5.34375 -4.296875 5.082031 -4.566406 4.75 -4.765625 C 4.425781 -4.960938 4.0625 -5.0625 3.65625 -5.0625 C 3.21875 -5.0625 2.835938 -4.960938 2.515625 -4.765625 C 2.191406 -4.566406 1.945312 -4.296875 1.78125 -3.953125 C 1.613281 -3.609375 1.53125 -3.222656 1.53125 -2.796875 C 1.53125 -2.378906 1.613281 -2 1.78125 -1.65625 C 1.945312 -1.320312 2.191406 -1.050781 2.515625 -0.84375 C 2.835938 -0.644531 3.21875 -0.546875 3.65625 -0.546875 Z M 3.65625 -0.546875 "/></g></g><g style="fill:#ffffff;fill-opacity:1;"><g transform="translate(122.819326, 166.741533)"><path style="stroke:none" d="M 2.671875 0.140625 C 2.222656 0.140625 1.800781 0.0507812 1.40625 -0.125 C 1.019531 -0.3125 0.703125 -0.585938 0.453125 -0.953125 L 1.09375 -1.421875 C 1.25 -1.171875 1.46875 -0.960938 1.75 -0.796875 C 2.03125 -0.628906 2.332031 -0.546875 2.65625 -0.546875 C 3.039062 -0.546875 3.351562 -0.625 3.59375 -0.78125 C 3.84375 -0.9375 3.96875 -1.1875 3.96875 -1.53125 C 3.96875 -1.71875 3.90625 -1.875 3.78125 -2 C 3.664062 -2.132812 3.488281 -2.25 3.25 -2.34375 C 3.019531 -2.4375 2.710938 -2.523438 2.328125 -2.609375 C 2.035156 -2.679688 1.773438 -2.765625 1.546875 -2.859375 C 1.316406 -2.960938 1.117188 -3.113281 0.953125 -3.3125 C 0.796875 -3.519531 0.71875 -3.789062 0.71875 -4.125 C 0.71875 -4.476562 0.804688 -4.773438 0.984375 -5.015625 C 1.171875 -5.265625 1.414062 -5.445312 1.71875 -5.5625 C 2.019531 -5.6875 2.351562 -5.75 2.71875 -5.75 C 3.113281 -5.75 3.492188 -5.65625 3.859375 -5.46875 C 4.234375 -5.289062 4.507812 -5.046875 4.6875 -4.734375 L 4.0625 -4.265625 C 3.9375 -4.503906 3.75 -4.695312 3.5 -4.84375 C 3.257812 -4.988281 2.988281 -5.0625 2.6875 -5.0625 C 2.351562 -5.0625 2.070312 -4.988281 1.84375 -4.84375 C 1.613281 -4.695312 1.5 -4.476562 1.5 -4.1875 C 1.5 -3.9375 1.601562 -3.738281 1.8125 -3.59375 C 2.019531 -3.445312 2.363281 -3.328125 2.84375 -3.234375 C 3.5 -3.097656 3.984375 -2.894531 4.296875 -2.625 C 4.617188 -2.363281 4.78125 -2.019531 4.78125 -1.59375 C 4.78125 -1.1875 4.675781 -0.851562 4.46875 -0.59375 C 4.269531 -0.332031 4.007812 -0.144531 3.6875 -0.03125 C 3.375 0.0820312 3.035156 0.140625 2.671875 0.140625 Z M 2.671875 0.140625 "/></g></g><g style="fill:#ffffff;fill-opacity:1;"><g transform="translate(128.13317, 166.741533)"><path style="stroke:none" d="M 1.5625 0.078125 C 1.375 0.078125 1.21875 0.015625 1.09375 -0.109375 C 0.96875 -0.242188 0.90625 -0.398438 0.90625 -0.578125 C 0.90625 -0.753906 0.96875 -0.90625 1.09375 -1.03125 C 1.21875 -1.15625 1.375 -1.21875 1.5625 -1.21875 C 1.738281 -1.21875 1.890625 -1.15625 2.015625 -1.03125 C 2.140625 -0.90625 2.203125 -0.753906 2.203125 -0.578125 C 2.203125 -0.398438 2.140625 -0.242188 2.015625 -0.109375 C 1.890625 0.015625 1.738281 0.078125 1.5625 0.078125 Z M 1.5625 0.078125 "/></g></g></g></svg>