<svg xmlns="http://www.w3.org/2000/svg" xmlns:xlink="http://www.w3.org/1999/xlink" width="120" zoomAndPan="magnify" viewBox="0 0 90 104.999996" height="140" preserveAspectRatio="xMidYMid meet" version="1.2"><defs><clipPath id="4be03a5bde"><path d="M 17.417969 27 L 27 27 L 27 37 L 17.417969 37 Z M 17.417969 27 "/></clipPath><clipPath id="d1cab9bce4"><path d="M 41 3.75 L 48 3.75 L 48 13 L 41 13 Z M 41 3.75 "/></clipPath><clipPath id="468663972a"><path d="M 69 26.882812 L 72.566406 26.882812 L 72.566406 35.777344 L 69 35.777344 Z M 69 26.882812 "/></clipPath><clipPath id="b74dcafbe7"><rect x="0" width="62" y="0" height="21"/></clipPath><clipPath id="25b4615a74"><rect x="0" width="56" y="0" height="16"/></clipPath></defs><g id="2572d2def9"><path style=" stroke:none;fill-rule:nonzero;fill:#ffffff;fill-opacity:1;" d="M 44.992188 51.792969 C 45.480469 51.792969 45.882812 52.191406 45.882812 52.683594 L 47.660156 52.683594 C 47.660156 51.207031 46.464844 50.011719 44.992188 50.011719 C 43.523438 50.011719 42.324219 51.207031 42.324219 52.683594 C 42.324219 54.15625 43.523438 55.351562 44.992188 55.351562 C 45.480469 55.351562 45.882812 55.75 45.882812 56.242188 C 45.882812 56.730469 45.480469 57.128906 44.992188 57.128906 C 44.5 57.128906 44.101562 56.730469 44.101562 56.242188 L 42.324219 56.242188 C 42.324219 57.714844 43.523438 58.910156 44.992188 58.910156 C 46.464844 58.910156 47.660156 57.714844 47.660156 56.242188 C 47.660156 54.769531 46.464844 53.570312 44.992188 53.570312 C 44.5 53.570312 44.101562 53.171875 44.101562 52.683594 C 44.101562 52.191406 44.5 51.792969 44.992188 51.792969 "/><g clip-rule="nonzero" clip-path="url(#4be03a5bde)"><path style=" stroke:none;fill-rule:nonzero;fill:#ffffff;fill-opacity:1;" d="M 21.667969 32.375 C 21.707031 32.195312 22.015625 32.195312 22.054688 32.375 L 22.914062 36.667969 L 25.324219 36.667969 L 26.304688 27.867188 L 24.535156 27.675781 L 23.960938 32.84375 L 23.800781 32.027344 C 23.613281 31.109375 22.796875 30.441406 21.859375 30.441406 C 20.921875 30.441406 20.109375 31.109375 19.925781 32.027344 L 19.761719 32.84375 L 19.1875 27.675781 L 17.417969 27.867188 L 18.394531 36.667969 L 20.808594 36.667969 L 21.667969 32.375 "/></g><g clip-rule="nonzero" clip-path="url(#d1cab9bce4)"><path style=" stroke:none;fill-rule:nonzero;fill:#ffffff;fill-opacity:1;" d="M 43.210938 7.171875 L 45.265625 12.648438 L 47.660156 12.648438 L 47.660156 3.75 L 45.882812 3.75 L 45.882812 9.222656 L 43.832031 3.75 L 41.433594 3.75 L 41.433594 12.648438 L 43.210938 12.648438 L 43.210938 7.171875 "/></g><g clip-rule="nonzero" clip-path="url(#468663972a)"><path style=" stroke:none;fill-rule:nonzero;fill:#ffffff;fill-opacity:1;" d="M 72.570312 28.660156 L 72.570312 26.882812 L 69.011719 26.882812 L 69.011719 35.777344 L 72.570312 35.777344 L 72.570312 34 L 70.792969 34 L 70.792969 32.21875 L 72.570312 32.21875 L 72.570312 30.441406 L 70.792969 30.441406 L 70.792969 28.660156 L 72.570312 28.660156 "/></g><path style=" stroke:none;fill-rule:nonzero;fill:#ffffff;fill-opacity:1;" d="M 68.257812 37.332031 C 67.246094 41.269531 65.265625 44.800781 62.59375 47.675781 L 60.0625 45.140625 C 61.980469 43.054688 63.480469 40.578125 64.398438 37.835938 L 62.710938 37.273438 C 60.679688 43.332031 55.554688 48.023438 49.347656 49.503906 L 49.757812 51.238281 C 53.164062 50.421875 56.277344 48.726562 58.808594 46.40625 L 61.335938 48.933594 C 58.039062 51.996094 53.886719 54.136719 49.292969 54.96875 L 49.609375 56.71875 C 59.484375 54.933594 67.480469 47.496094 69.984375 37.777344 L 68.257812 37.332031 "/><path style=" stroke:none;fill-rule:nonzero;fill:#ffffff;fill-opacity:1;" d="M 21.511719 26.242188 C 22.4375 21.949219 24.519531 18.09375 27.394531 14.992188 L 29.917969 17.515625 C 27.773438 19.855469 26.15625 22.6875 25.28125 25.816406 L 26.996094 26.292969 C 28.742188 20.046875 33.703125 15.078125 39.953125 13.335938 L 39.476562 11.621094 C 36.34375 12.492188 33.515625 14.113281 31.179688 16.257812 L 28.652344 13.734375 C 31.753906 10.855469 35.609375 8.773438 39.902344 7.847656 L 39.523438 6.109375 C 29.65625 8.238281 21.898438 15.996094 19.769531 25.871094 L 21.511719 26.242188 "/><path style=" stroke:none;fill-rule:nonzero;fill:#ffffff;fill-opacity:1;" d="M 49.714844 11.414062 L 49.304688 13.148438 C 55.507812 14.613281 60.636719 19.277344 62.691406 25.320312 L 64.375 24.75 C 63.453125 22.035156 61.960938 19.585938 60.0625 17.519531 L 62.59375 14.984375 C 65.265625 17.859375 67.246094 21.394531 68.257812 25.324219 L 69.984375 24.882812 C 67.488281 15.183594 59.515625 7.753906 49.667969 5.953125 L 49.351562 7.703125 C 53.917969 8.539062 58.046875 10.675781 61.335938 13.730469 L 58.808594 16.257812 C 56.261719 13.921875 53.136719 12.222656 49.714844 11.414062 "/><path style=" stroke:none;fill-rule:nonzero;fill:#ffffff;fill-opacity:1;" d="M 40.464844 51.292969 L 40.859375 49.554688 C 34.808594 48.1875 29.847656 43.914062 27.582031 38.125 L 25.925781 38.769531 C 26.859375 41.164062 28.21875 43.324219 29.902344 45.160156 L 27.414062 47.648438 C 24.933594 44.988281 23.03125 41.769531 21.96875 38.195312 L 20.261719 38.703125 C 23.015625 47.945312 30.921875 55.019531 40.402344 56.722656 L 40.71875 54.972656 C 36.152344 54.152344 31.992188 51.992188 28.671875 48.910156 L 31.167969 46.417969 C 33.753906 48.785156 36.9375 50.492188 40.464844 51.292969 "/><path style=" stroke:none;fill-rule:nonzero;fill:#ffffff;fill-opacity:1;" d="M 63.933594 51.53125 L 69.273438 56.871094 L 70.53125 55.613281 L 65.195312 50.273438 L 63.933594 51.53125 "/><path style=" stroke:none;fill-rule:nonzero;fill:#ffffff;fill-opacity:1;" d="M 70.53125 7.046875 L 69.273438 5.789062 L 63.933594 11.128906 L 65.195312 12.386719 L 70.53125 7.046875 "/><path style=" stroke:none;fill-rule:nonzero;fill:#ffffff;fill-opacity:1;" d="M 26.046875 11.128906 L 20.710938 5.789062 L 19.453125 7.046875 L 24.789062 12.386719 L 26.046875 11.128906 "/><path style=" stroke:none;fill-rule:nonzero;fill:#ffffff;fill-opacity:1;" d="M 19.453125 55.613281 L 20.710938 56.871094 L 26.046875 51.53125 L 24.789062 50.273438 L 19.453125 55.613281 "/><path style=" stroke:none;fill-rule:nonzero;fill:#ffffff;fill-opacity:1;" d="M 45.234375 46.261719 L 47.035156 39.0625 C 46.382812 39.238281 45.699219 39.335938 44.992188 39.335938 C 44.285156 39.335938 43.605469 39.238281 42.953125 39.0625 L 44.75 46.261719 C 44.808594 46.488281 45.179688 46.488281 45.234375 46.261719 "/><path style=" stroke:none;fill-rule:nonzero;fill:#ffffff;fill-opacity:1;" d="M 42.304688 35.777344 L 40.644531 35.777344 C 41.308594 36.429688 42.117188 36.929688 43.019531 37.230469 C 42.773438 36.8125 42.53125 36.328125 42.304688 35.777344 "/><path style=" stroke:none;fill-rule:nonzero;fill:#ffffff;fill-opacity:1;" d="M 48.519531 30.441406 L 51.148438 30.441406 C 51.058594 29.8125 50.875 29.214844 50.609375 28.660156 L 48.246094 28.660156 C 48.375 29.21875 48.46875 29.808594 48.519531 30.441406 "/><path style=" stroke:none;fill-rule:nonzero;fill:#ffffff;fill-opacity:1;" d="M 43.019531 25.429688 C 42.117188 25.730469 41.308594 26.230469 40.644531 26.882812 L 42.304688 26.882812 C 42.53125 26.332031 42.773438 25.847656 43.019531 25.429688 "/><path style=" stroke:none;fill-rule:nonzero;fill:#ffffff;fill-opacity:1;" d="M 51.332031 26.453125 L 52.789062 23.53125 L 49.867188 24.996094 C 50.417969 25.414062 50.90625 25.90625 51.332031 26.453125 "/><path style=" stroke:none;fill-rule:nonzero;fill:#ffffff;fill-opacity:1;" d="M 38.65625 36.207031 L 37.195312 39.128906 L 40.117188 37.664062 C 39.570312 37.246094 39.082031 36.753906 38.65625 36.207031 "/><path style=" stroke:none;fill-rule:nonzero;fill:#ffffff;fill-opacity:1;" d="M 41.742188 28.660156 L 39.375 28.660156 C 39.113281 29.214844 38.925781 29.8125 38.835938 30.441406 L 41.46875 30.441406 C 41.515625 29.808594 41.613281 29.21875 41.742188 28.660156 "/><path style=" stroke:none;fill-rule:nonzero;fill:#ffffff;fill-opacity:1;" d="M 30.058594 31.085938 C 29.945312 31.113281 29.867188 31.214844 29.867188 31.328125 C 29.867188 31.445312 29.945312 31.546875 30.058594 31.574219 L 37.257812 33.375 C 37.085938 32.71875 36.984375 32.035156 36.984375 31.328125 C 36.984375 30.625 37.085938 29.941406 37.257812 29.285156 L 30.058594 31.085938 "/><path style=" stroke:none;fill-rule:nonzero;fill:#ffffff;fill-opacity:1;" d="M 41.46875 32.21875 L 38.835938 32.21875 C 38.925781 32.847656 39.113281 33.445312 39.375 34 L 41.742188 34 C 41.613281 33.441406 41.515625 32.851562 41.46875 32.21875 "/><path style=" stroke:none;fill-rule:nonzero;fill:#ffffff;fill-opacity:1;" d="M 47.679688 26.882812 L 49.34375 26.882812 C 48.679688 26.230469 47.871094 25.730469 46.96875 25.429688 C 47.207031 25.847656 47.457031 26.332031 47.679688 26.882812 "/><path style=" stroke:none;fill-rule:nonzero;fill:#ffffff;fill-opacity:1;" d="M 47.679688 35.777344 C 47.457031 36.328125 47.207031 36.8125 46.96875 37.230469 C 47.871094 36.929688 48.679688 36.429688 49.34375 35.777344 L 47.679688 35.777344 "/><path style=" stroke:none;fill-rule:nonzero;fill:#ffffff;fill-opacity:1;" d="M 51.332031 36.207031 C 50.90625 36.753906 50.417969 37.246094 49.867188 37.664062 L 52.789062 39.128906 L 51.332031 36.207031 "/><path style=" stroke:none;fill-rule:nonzero;fill:#ffffff;fill-opacity:1;" d="M 44.75 16.398438 L 42.953125 23.597656 C 43.605469 23.421875 44.285156 23.324219 44.992188 23.324219 C 45.699219 23.324219 46.382812 23.421875 47.035156 23.597656 L 45.234375 16.398438 C 45.179688 16.171875 44.808594 16.171875 44.75 16.398438 "/><path style=" stroke:none;fill-rule:nonzero;fill:#ffffff;fill-opacity:1;" d="M 60.117188 31.328125 C 60.117188 31.214844 60.039062 31.113281 59.929688 31.085938 L 52.722656 29.285156 C 52.898438 29.941406 53 30.625 53 31.328125 C 53 32.035156 52.898438 32.71875 52.722656 33.375 L 59.929688 31.574219 C 60.039062 31.546875 60.117188 31.445312 60.117188 31.328125 "/><path style=" stroke:none;fill-rule:nonzero;fill:#ffffff;fill-opacity:1;" d="M 38.65625 26.453125 C 39.082031 25.90625 39.570312 25.414062 40.117188 24.996094 L 37.195312 23.53125 L 38.65625 26.453125 "/><path style=" stroke:none;fill-rule:nonzero;fill:#ffffff;fill-opacity:1;" d="M 51.148438 32.21875 L 48.519531 32.21875 C 48.46875 32.851562 48.375 33.441406 48.246094 34 L 50.609375 34 C 50.875 33.445312 51.058594 32.847656 51.148438 32.21875 "/><path style=" stroke:none;fill-rule:nonzero;fill:#ffffff;fill-opacity:1;" d="M 44.265625 26.882812 L 45.722656 26.882812 C 45.472656 26.382812 45.21875 25.964844 44.992188 25.640625 C 44.769531 25.964844 44.515625 26.382812 44.265625 26.882812 "/><path style=" stroke:none;fill-rule:nonzero;fill:#ffffff;fill-opacity:1;" d="M 43.257812 30.441406 L 46.730469 30.441406 C 46.671875 29.800781 46.558594 29.203125 46.40625 28.660156 L 43.582031 28.660156 C 43.425781 29.203125 43.316406 29.800781 43.257812 30.441406 "/><path style=" stroke:none;fill-rule:nonzero;fill:#ffffff;fill-opacity:1;" d="M 45.722656 35.777344 L 44.265625 35.777344 C 44.515625 36.277344 44.769531 36.695312 44.992188 37.019531 C 45.21875 36.695312 45.472656 36.28125 45.722656 35.777344 "/><path style=" stroke:none;fill-rule:nonzero;fill:#ffffff;fill-opacity:1;" d="M 46.40625 34 C 46.558594 33.457031 46.671875 32.859375 46.730469 32.21875 L 43.257812 32.21875 C 43.316406 32.859375 43.425781 33.457031 43.582031 34 L 46.40625 34 "/><g transform="matrix(1,0,0,1,14,61)"><g clip-path="url(#b74dcafbe7)"><g style="fill:#ffffff;fill-opacity:1;"><g transform="translate(0.9689, 13.936352)"><path style="stroke:none" d="M 6.265625 0 L 1.078125 0 L 1.078125 -8.125 L 6.125 -8.125 L 6.125 -7.390625 L 1.90625 -7.390625 L 1.90625 -4.59375 L 5.84375 -4.59375 L 5.84375 -3.875 L 1.90625 -3.875 L 1.90625 -0.734375 L 6.265625 -0.734375 Z M 6.265625 0 "/></g></g><g style="fill:#ffffff;fill-opacity:1;"><g transform="translate(7.769298, 13.936352)"><path style="stroke:none" d="M 1.125 0 L 0.1875 0 L 2.296875 -2.78125 L 0.3125 -5.390625 L 1.3125 -5.390625 L 2.78125 -3.328125 L 4.25 -5.390625 L 5.1875 -5.390625 L 3.234375 -2.8125 L 5.375 0 L 4.359375 0 L 2.765625 -2.234375 Z M 1.125 0 "/></g></g><g style="fill:#ffffff;fill-opacity:1;"><g transform="translate(13.329082, 13.936352)"><path style="stroke:none" d="M 1.03125 2.75 L 1.03125 -5.390625 L 1.8125 -5.390625 L 1.8125 -4.4375 L 1.84375 -4.4375 C 2.0625 -4.78125 2.351562 -5.046875 2.71875 -5.234375 C 3.082031 -5.421875 3.46875 -5.515625 3.875 -5.515625 C 4.414062 -5.515625 4.894531 -5.390625 5.3125 -5.140625 C 5.738281 -4.890625 6.066406 -4.550781 6.296875 -4.125 C 6.535156 -3.695312 6.65625 -3.21875 6.65625 -2.6875 C 6.65625 -2.15625 6.535156 -1.675781 6.296875 -1.25 C 6.066406 -0.820312 5.738281 -0.484375 5.3125 -0.234375 C 4.894531 0.015625 4.414062 0.140625 3.875 0.140625 C 3.476562 0.140625 3.097656 0.0507812 2.734375 -0.125 C 2.367188 -0.3125 2.070312 -0.570312 1.84375 -0.90625 L 1.8125 -0.90625 L 1.8125 2.75 Z M 3.796875 -0.53125 C 4.210938 -0.53125 4.570312 -0.625 4.875 -0.8125 C 5.1875 -1.007812 5.421875 -1.269531 5.578125 -1.59375 C 5.742188 -1.914062 5.828125 -2.28125 5.828125 -2.6875 C 5.828125 -3.09375 5.742188 -3.457031 5.578125 -3.78125 C 5.421875 -4.113281 5.1875 -4.375 4.875 -4.5625 C 4.570312 -4.757812 4.210938 -4.859375 3.796875 -4.859375 C 3.390625 -4.859375 3.03125 -4.757812 2.71875 -4.5625 C 2.40625 -4.375 2.160156 -4.113281 1.984375 -3.78125 C 1.804688 -3.457031 1.71875 -3.09375 1.71875 -2.6875 C 1.71875 -2.28125 1.804688 -1.910156 1.984375 -1.578125 C 2.160156 -1.253906 2.40625 -1 2.71875 -0.8125 C 3.03125 -0.625 3.390625 -0.53125 3.796875 -0.53125 Z M 3.796875 -0.53125 "/></g></g><g style="fill:#ffffff;fill-opacity:1;"><g transform="translate(20.623425, 13.936352)"><path style="stroke:none" d="M 1.84375 0 L 1.0625 0 L 1.0625 -8.6875 L 1.84375 -8.6875 Z M 1.84375 0 "/></g></g><g style="fill:#ffffff;fill-opacity:1;"><g transform="translate(23.518184, 13.936352)"><path style="stroke:none" d="M 3.5 0.140625 C 2.957031 0.140625 2.46875 0.0195312 2.03125 -0.21875 C 1.59375 -0.46875 1.25 -0.804688 1 -1.234375 C 0.757812 -1.671875 0.640625 -2.15625 0.640625 -2.6875 C 0.640625 -3.21875 0.757812 -3.695312 1 -4.125 C 1.25 -4.5625 1.59375 -4.898438 2.03125 -5.140625 C 2.46875 -5.390625 2.957031 -5.515625 3.5 -5.515625 C 4.050781 -5.515625 4.546875 -5.390625 4.984375 -5.140625 C 5.421875 -4.898438 5.757812 -4.5625 6 -4.125 C 6.25 -3.695312 6.375 -3.21875 6.375 -2.6875 C 6.375 -2.15625 6.25 -1.671875 6 -1.234375 C 5.757812 -0.804688 5.421875 -0.46875 4.984375 -0.21875 C 4.546875 0.0195312 4.050781 0.140625 3.5 0.140625 Z M 3.5 -0.53125 C 3.90625 -0.53125 4.265625 -0.625 4.578125 -0.8125 C 4.890625 -1.007812 5.128906 -1.269531 5.296875 -1.59375 C 5.460938 -1.914062 5.546875 -2.28125 5.546875 -2.6875 C 5.546875 -3.09375 5.460938 -3.457031 5.296875 -3.78125 C 5.128906 -4.113281 4.890625 -4.375 4.578125 -4.5625 C 4.265625 -4.757812 3.90625 -4.859375 3.5 -4.859375 C 3.09375 -4.859375 2.734375 -4.757812 2.421875 -4.5625 C 2.117188 -4.375 1.882812 -4.113281 1.71875 -3.78125 C 1.550781 -3.457031 1.46875 -3.09375 1.46875 -2.6875 C 1.46875 -2.28125 1.550781 -1.914062 1.71875 -1.59375 C 1.882812 -1.269531 2.117188 -1.007812 2.421875 -0.8125 C 2.734375 -0.625 3.09375 -0.53125 3.5 -0.53125 Z M 3.5 -0.53125 "/></g></g><g style="fill:#ffffff;fill-opacity:1;"><g transform="translate(30.536833, 13.936352)"><path style="stroke:none" d="M 1.03125 -4.1875 C 1.03125 -4.65625 1.015625 -5.054688 0.984375 -5.390625 L 1.734375 -5.390625 C 1.765625 -5.003906 1.78125 -4.691406 1.78125 -4.453125 L 1.796875 -4.453125 C 1.953125 -4.765625 2.1875 -5.019531 2.5 -5.21875 C 2.8125 -5.414062 3.15625 -5.515625 3.53125 -5.515625 C 3.726562 -5.515625 3.898438 -5.492188 4.046875 -5.453125 L 3.9375 -4.71875 C 3.894531 -4.738281 3.816406 -4.753906 3.703125 -4.765625 C 3.585938 -4.773438 3.484375 -4.78125 3.390625 -4.78125 C 3.097656 -4.78125 2.832031 -4.707031 2.59375 -4.5625 C 2.351562 -4.425781 2.160156 -4.207031 2.015625 -3.90625 C 1.878906 -3.601562 1.8125 -3.21875 1.8125 -2.75 L 1.8125 0 L 1.03125 0 Z M 1.03125 -4.1875 "/></g></g><g style="fill:#ffffff;fill-opacity:1;"><g transform="translate(34.672205, 13.936352)"><path style="stroke:none" d="M 2.484375 0.140625 C 2.191406 0.140625 1.898438 0.0859375 1.609375 -0.015625 C 1.328125 -0.128906 1.09375 -0.3125 0.90625 -0.5625 C 0.71875 -0.8125 0.625 -1.125 0.625 -1.5 C 0.625 -2.007812 0.789062 -2.394531 1.125 -2.65625 C 1.457031 -2.925781 1.882812 -3.097656 2.40625 -3.171875 C 2.9375 -3.253906 3.59375 -3.296875 4.375 -3.296875 L 4.421875 -3.296875 L 4.421875 -3.46875 C 4.421875 -3.925781 4.296875 -4.269531 4.046875 -4.5 C 3.804688 -4.738281 3.453125 -4.859375 2.984375 -4.859375 C 2.679688 -4.859375 2.382812 -4.800781 2.09375 -4.6875 C 1.8125 -4.570312 1.578125 -4.414062 1.390625 -4.21875 L 0.953125 -4.75 C 1.179688 -4.976562 1.476562 -5.160156 1.84375 -5.296875 C 2.21875 -5.441406 2.625 -5.515625 3.0625 -5.515625 C 3.457031 -5.515625 3.8125 -5.441406 4.125 -5.296875 C 4.445312 -5.148438 4.695312 -4.925781 4.875 -4.625 C 5.0625 -4.332031 5.15625 -3.976562 5.15625 -3.5625 L 5.15625 -1.203125 C 5.15625 -0.992188 5.160156 -0.773438 5.171875 -0.546875 C 5.191406 -0.328125 5.21875 -0.144531 5.25 0 L 4.546875 0 C 4.492188 -0.300781 4.46875 -0.59375 4.46875 -0.875 L 4.4375 -0.875 C 4.195312 -0.519531 3.921875 -0.257812 3.609375 -0.09375 C 3.296875 0.0625 2.921875 0.140625 2.484375 0.140625 Z M 2.703125 -0.5 C 3.054688 -0.5 3.363281 -0.578125 3.625 -0.734375 C 3.882812 -0.898438 4.082031 -1.117188 4.21875 -1.390625 C 4.351562 -1.660156 4.421875 -1.957031 4.421875 -2.28125 L 4.421875 -2.6875 L 4.1875 -2.6875 C 3.375 -2.6875 2.710938 -2.609375 2.203125 -2.453125 C 1.691406 -2.296875 1.4375 -1.988281 1.4375 -1.53125 C 1.4375 -1.175781 1.554688 -0.914062 1.796875 -0.75 C 2.046875 -0.582031 2.347656 -0.5 2.703125 -0.5 Z M 2.703125 -0.5 "/></g></g><g style="fill:#ffffff;fill-opacity:1;"><g transform="translate(40.806339, 13.936352)"><path style="stroke:none" d="M 2.53125 0.0625 C 2.164062 0.0625 1.84375 -0.0390625 1.5625 -0.25 C 1.289062 -0.46875 1.15625 -0.835938 1.15625 -1.359375 L 1.15625 -4.734375 L 0.046875 -4.734375 L 0.046875 -5.390625 L 1.15625 -5.390625 L 1.15625 -6.890625 L 1.9375 -6.890625 L 1.9375 -5.390625 L 3.453125 -5.390625 L 3.453125 -4.734375 L 1.9375 -4.734375 L 1.9375 -1.578125 C 1.9375 -1.203125 2.003906 -0.941406 2.140625 -0.796875 C 2.285156 -0.660156 2.488281 -0.59375 2.75 -0.59375 C 2.851562 -0.59375 2.960938 -0.609375 3.078125 -0.640625 C 3.203125 -0.671875 3.316406 -0.710938 3.421875 -0.765625 L 3.453125 -0.09375 C 3.171875 0.0078125 2.863281 0.0625 2.53125 0.0625 Z M 2.53125 0.0625 "/></g></g><g style="fill:#ffffff;fill-opacity:1;"><g transform="translate(44.447765, 13.936352)"><path style="stroke:none" d="M 1.4375 -6.890625 C 1.289062 -6.890625 1.160156 -6.941406 1.046875 -7.046875 C 0.941406 -7.160156 0.890625 -7.289062 0.890625 -7.4375 C 0.890625 -7.59375 0.941406 -7.722656 1.046875 -7.828125 C 1.160156 -7.941406 1.289062 -8 1.4375 -8 C 1.582031 -8 1.707031 -7.941406 1.8125 -7.828125 C 1.925781 -7.722656 1.984375 -7.59375 1.984375 -7.4375 C 1.984375 -7.289062 1.925781 -7.160156 1.8125 -7.046875 C 1.707031 -6.941406 1.582031 -6.890625 1.4375 -6.890625 Z M 1.828125 0 L 1.046875 0 L 1.046875 -5.390625 L 1.828125 -5.390625 Z M 1.828125 0 "/></g></g><g style="fill:#ffffff;fill-opacity:1;"><g transform="translate(47.319552, 13.936352)"><path style="stroke:none" d="M 3.5 0.140625 C 2.957031 0.140625 2.46875 0.0195312 2.03125 -0.21875 C 1.59375 -0.46875 1.25 -0.804688 1 -1.234375 C 0.757812 -1.671875 0.640625 -2.15625 0.640625 -2.6875 C 0.640625 -3.21875 0.757812 -3.695312 1 -4.125 C 1.25 -4.5625 1.59375 -4.898438 2.03125 -5.140625 C 2.46875 -5.390625 2.957031 -5.515625 3.5 -5.515625 C 4.050781 -5.515625 4.546875 -5.390625 4.984375 -5.140625 C 5.421875 -4.898438 5.757812 -4.5625 6 -4.125 C 6.25 -3.695312 6.375 -3.21875 6.375 -2.6875 C 6.375 -2.15625 6.25 -1.671875 6 -1.234375 C 5.757812 -0.804688 5.421875 -0.46875 4.984375 -0.21875 C 4.546875 0.0195312 4.050781 0.140625 3.5 0.140625 Z M 3.5 -0.53125 C 3.90625 -0.53125 4.265625 -0.625 4.578125 -0.8125 C 4.890625 -1.007812 5.128906 -1.269531 5.296875 -1.59375 C 5.460938 -1.914062 5.546875 -2.28125 5.546875 -2.6875 C 5.546875 -3.09375 5.460938 -3.457031 5.296875 -3.78125 C 5.128906 -4.113281 4.890625 -4.375 4.578125 -4.5625 C 4.265625 -4.757812 3.90625 -4.859375 3.5 -4.859375 C 3.09375 -4.859375 2.734375 -4.757812 2.421875 -4.5625 C 2.117188 -4.375 1.882812 -4.113281 1.71875 -3.78125 C 1.550781 -3.457031 1.46875 -3.09375 1.46875 -2.6875 C 1.46875 -2.28125 1.550781 -1.914062 1.71875 -1.59375 C 1.882812 -1.269531 2.117188 -1.007812 2.421875 -0.8125 C 2.734375 -0.625 3.09375 -0.53125 3.5 -0.53125 Z M 3.5 -0.53125 "/></g></g><g style="fill:#ffffff;fill-opacity:1;"><g transform="translate(54.338201, 13.936352)"><path style="stroke:none" d="M 1.03125 -4.1875 C 1.03125 -4.65625 1.015625 -5.054688 0.984375 -5.390625 L 1.734375 -5.390625 C 1.765625 -5.003906 1.78125 -4.691406 1.78125 -4.453125 L 1.796875 -4.453125 C 1.898438 -4.660156 2.046875 -4.84375 2.234375 -5 C 2.429688 -5.15625 2.648438 -5.28125 2.890625 -5.375 C 3.140625 -5.46875 3.390625 -5.515625 3.640625 -5.515625 C 4.304688 -5.515625 4.8125 -5.3125 5.15625 -4.90625 C 5.507812 -4.507812 5.6875 -3.972656 5.6875 -3.296875 L 5.6875 0 L 4.90625 0 L 4.90625 -2.96875 C 4.90625 -3.570312 4.796875 -4.035156 4.578125 -4.359375 C 4.359375 -4.691406 3.984375 -4.859375 3.453125 -4.859375 C 3.160156 -4.859375 2.890625 -4.78125 2.640625 -4.625 C 2.398438 -4.46875 2.203125 -4.234375 2.046875 -3.921875 C 1.890625 -3.609375 1.8125 -3.21875 1.8125 -2.75 L 1.8125 0 L 1.03125 0 Z M 1.03125 -4.1875 "/></g></g></g></g><g transform="matrix(1,0,0,1,17,79)"><g clip-path="url(#25b4615a74)"><g style="fill:#ffffff;fill-opacity:1;"><g transform="translate(0.734036, 6.242864)"><path style="stroke:none" d="M 0.46875 0 L 0.46875 -3.484375 L 1.625 -3.484375 C 1.925781 -3.484375 2.21875 -3.414062 2.5 -3.28125 C 2.78125 -3.15625 3.007812 -2.957031 3.1875 -2.6875 C 3.363281 -2.425781 3.453125 -2.113281 3.453125 -1.75 C 3.453125 -1.375 3.363281 -1.054688 3.1875 -0.796875 C 3.007812 -0.535156 2.78125 -0.335938 2.5 -0.203125 C 2.21875 -0.0664062 1.925781 0 1.625 0 Z M 1.515625 -0.3125 C 1.847656 -0.3125 2.132812 -0.378906 2.375 -0.515625 C 2.613281 -0.648438 2.789062 -0.828125 2.90625 -1.046875 C 3.019531 -1.265625 3.078125 -1.5 3.078125 -1.75 C 3.078125 -1.988281 3.019531 -2.21875 2.90625 -2.4375 C 2.789062 -2.65625 2.613281 -2.832031 2.375 -2.96875 C 2.132812 -3.101562 1.847656 -3.171875 1.515625 -3.171875 L 0.8125 -3.171875 L 0.8125 -0.3125 Z M 1.515625 -0.3125 "/></g></g><g style="fill:#ffffff;fill-opacity:1;"><g transform="translate(4.463013, 6.242864)"><path style="stroke:none" d="M 0.609375 -2.953125 C 0.546875 -2.953125 0.488281 -2.972656 0.4375 -3.015625 C 0.394531 -3.066406 0.375 -3.125 0.375 -3.1875 C 0.375 -3.25 0.394531 -3.300781 0.4375 -3.34375 C 0.488281 -3.394531 0.546875 -3.421875 0.609375 -3.421875 C 0.671875 -3.421875 0.722656 -3.394531 0.765625 -3.34375 C 0.816406 -3.300781 0.84375 -3.25 0.84375 -3.1875 C 0.84375 -3.125 0.816406 -3.066406 0.765625 -3.015625 C 0.722656 -2.972656 0.671875 -2.953125 0.609375 -2.953125 Z M 0.78125 0 L 0.453125 0 L 0.453125 -2.3125 L 0.78125 -2.3125 Z M 0.78125 0 "/></g></g><g style="fill:#ffffff;fill-opacity:1;"><g transform="translate(5.69451, 6.242864)"><path style="stroke:none" d="M 1.09375 0.0625 C 0.914062 0.0625 0.742188 0.0234375 0.578125 -0.046875 C 0.421875 -0.128906 0.289062 -0.242188 0.1875 -0.390625 L 0.453125 -0.578125 C 0.515625 -0.472656 0.601562 -0.382812 0.71875 -0.3125 C 0.832031 -0.25 0.957031 -0.21875 1.09375 -0.21875 C 1.25 -0.21875 1.378906 -0.25 1.484375 -0.3125 C 1.585938 -0.382812 1.640625 -0.488281 1.640625 -0.625 C 1.640625 -0.707031 1.613281 -0.773438 1.5625 -0.828125 C 1.507812 -0.878906 1.4375 -0.921875 1.34375 -0.953125 C 1.25 -0.992188 1.117188 -1.035156 0.953125 -1.078125 C 0.835938 -1.109375 0.734375 -1.140625 0.640625 -1.171875 C 0.546875 -1.210938 0.460938 -1.273438 0.390625 -1.359375 C 0.328125 -1.441406 0.296875 -1.550781 0.296875 -1.6875 C 0.296875 -1.84375 0.332031 -1.96875 0.40625 -2.0625 C 0.476562 -2.164062 0.578125 -2.238281 0.703125 -2.28125 C 0.828125 -2.332031 0.96875 -2.359375 1.125 -2.359375 C 1.28125 -2.359375 1.429688 -2.320312 1.578125 -2.25 C 1.734375 -2.175781 1.847656 -2.078125 1.921875 -1.953125 L 1.671875 -1.75 C 1.617188 -1.851562 1.539062 -1.929688 1.4375 -1.984375 C 1.34375 -2.046875 1.234375 -2.078125 1.109375 -2.078125 C 0.972656 -2.078125 0.851562 -2.046875 0.75 -1.984375 C 0.65625 -1.929688 0.609375 -1.84375 0.609375 -1.71875 C 0.609375 -1.613281 0.648438 -1.53125 0.734375 -1.46875 C 0.828125 -1.414062 0.972656 -1.367188 1.171875 -1.328125 C 1.441406 -1.273438 1.640625 -1.191406 1.765625 -1.078125 C 1.898438 -0.972656 1.96875 -0.832031 1.96875 -0.65625 C 1.96875 -0.488281 1.925781 -0.347656 1.84375 -0.234375 C 1.757812 -0.128906 1.648438 -0.0507812 1.515625 0 C 1.390625 0.0390625 1.25 0.0625 1.09375 0.0625 Z M 1.09375 0.0625 "/></g></g><g style="fill:#ffffff;fill-opacity:1;"><g transform="translate(7.88165, 6.242864)"><path style="stroke:none" d="M 1.5 0.0625 C 1.257812 0.0625 1.046875 0.0078125 0.859375 -0.09375 C 0.671875 -0.195312 0.523438 -0.34375 0.421875 -0.53125 C 0.328125 -0.71875 0.28125 -0.925781 0.28125 -1.15625 C 0.28125 -1.382812 0.328125 -1.585938 0.421875 -1.765625 C 0.523438 -1.953125 0.671875 -2.097656 0.859375 -2.203125 C 1.046875 -2.304688 1.257812 -2.359375 1.5 -2.359375 C 1.664062 -2.359375 1.828125 -2.320312 1.984375 -2.25 C 2.140625 -2.1875 2.265625 -2.09375 2.359375 -1.96875 L 2.109375 -1.78125 C 2.046875 -1.863281 1.960938 -1.929688 1.859375 -1.984375 C 1.753906 -2.046875 1.640625 -2.078125 1.515625 -2.078125 C 1.335938 -2.078125 1.179688 -2.035156 1.046875 -1.953125 C 0.910156 -1.878906 0.804688 -1.769531 0.734375 -1.625 C 0.660156 -1.476562 0.625 -1.320312 0.625 -1.15625 C 0.625 -0.976562 0.660156 -0.816406 0.734375 -0.671875 C 0.804688 -0.535156 0.910156 -0.425781 1.046875 -0.34375 C 1.179688 -0.257812 1.332031 -0.21875 1.5 -0.21875 C 1.769531 -0.21875 1.976562 -0.320312 2.125 -0.53125 L 2.375 -0.34375 C 2.164062 -0.0703125 1.875 0.0625 1.5 0.0625 Z M 1.5 0.0625 "/></g></g><g style="fill:#ffffff;fill-opacity:1;"><g transform="translate(10.344649, 6.242864)"><path style="stroke:none" d="M 1.5 0.0625 C 1.269531 0.0625 1.0625 0.0078125 0.875 -0.09375 C 0.6875 -0.195312 0.539062 -0.34375 0.4375 -0.53125 C 0.332031 -0.71875 0.28125 -0.925781 0.28125 -1.15625 C 0.28125 -1.382812 0.332031 -1.585938 0.4375 -1.765625 C 0.539062 -1.953125 0.6875 -2.097656 0.875 -2.203125 C 1.0625 -2.304688 1.269531 -2.359375 1.5 -2.359375 C 1.738281 -2.359375 1.953125 -2.304688 2.140625 -2.203125 C 2.328125 -2.097656 2.472656 -1.953125 2.578125 -1.765625 C 2.679688 -1.585938 2.734375 -1.382812 2.734375 -1.15625 C 2.734375 -0.925781 2.679688 -0.71875 2.578125 -0.53125 C 2.472656 -0.34375 2.328125 -0.195312 2.140625 -0.09375 C 1.953125 0.0078125 1.738281 0.0625 1.5 0.0625 Z M 1.5 -0.21875 C 1.675781 -0.21875 1.828125 -0.257812 1.953125 -0.34375 C 2.085938 -0.425781 2.191406 -0.535156 2.265625 -0.671875 C 2.335938 -0.816406 2.375 -0.976562 2.375 -1.15625 C 2.375 -1.320312 2.335938 -1.472656 2.265625 -1.609375 C 2.191406 -1.753906 2.085938 -1.867188 1.953125 -1.953125 C 1.828125 -2.035156 1.675781 -2.078125 1.5 -2.078125 C 1.320312 -2.078125 1.164062 -2.035156 1.03125 -1.953125 C 0.90625 -1.867188 0.804688 -1.753906 0.734375 -1.609375 C 0.660156 -1.472656 0.625 -1.320312 0.625 -1.15625 C 0.625 -0.976562 0.660156 -0.816406 0.734375 -0.671875 C 0.804688 -0.535156 0.90625 -0.425781 1.03125 -0.34375 C 1.164062 -0.257812 1.320312 -0.21875 1.5 -0.21875 Z M 1.5 -0.21875 "/></g></g><g style="fill:#ffffff;fill-opacity:1;"><g transform="translate(13.35443, 6.242864)"><path style="stroke:none" d="M 1.390625 0 L 1.015625 0 L 0.078125 -2.3125 L 0.453125 -2.3125 L 1.203125 -0.359375 L 1.96875 -2.3125 L 2.328125 -2.3125 Z M 1.390625 0 "/></g></g><g style="fill:#ffffff;fill-opacity:1;"><g transform="translate(15.758319, 6.242864)"><path style="stroke:none" d="M 1.46875 0.0625 C 1.238281 0.0625 1.03125 0.0078125 0.84375 -0.09375 C 0.664062 -0.195312 0.523438 -0.34375 0.421875 -0.53125 C 0.328125 -0.71875 0.28125 -0.925781 0.28125 -1.15625 C 0.28125 -1.375 0.328125 -1.578125 0.421875 -1.765625 C 0.523438 -1.953125 0.664062 -2.097656 0.84375 -2.203125 C 1.019531 -2.304688 1.21875 -2.359375 1.4375 -2.359375 C 1.664062 -2.359375 1.863281 -2.304688 2.03125 -2.203125 C 2.195312 -2.109375 2.320312 -1.972656 2.40625 -1.796875 C 2.5 -1.628906 2.546875 -1.4375 2.546875 -1.21875 C 2.546875 -1.15625 2.539062 -1.101562 2.53125 -1.0625 L 0.625 -1.0625 C 0.625 -0.90625 0.660156 -0.765625 0.734375 -0.640625 C 0.804688 -0.515625 0.90625 -0.410156 1.03125 -0.328125 C 1.164062 -0.253906 1.3125 -0.21875 1.46875 -0.21875 C 1.625 -0.21875 1.769531 -0.253906 1.90625 -0.328125 C 2.039062 -0.410156 2.140625 -0.507812 2.203125 -0.625 L 2.453125 -0.421875 C 2.203125 -0.0976562 1.875 0.0625 1.46875 0.0625 Z M 2.203125 -1.328125 C 2.191406 -1.472656 2.15625 -1.601562 2.09375 -1.71875 C 2.039062 -1.832031 1.957031 -1.921875 1.84375 -1.984375 C 1.726562 -2.046875 1.59375 -2.078125 1.4375 -2.078125 C 1.289062 -2.078125 1.15625 -2.039062 1.03125 -1.96875 C 0.914062 -1.90625 0.820312 -1.816406 0.75 -1.703125 C 0.675781 -1.585938 0.632812 -1.460938 0.625 -1.328125 Z M 2.203125 -1.328125 "/></g></g><g style="fill:#ffffff;fill-opacity:1;"><g transform="translate(18.575987, 6.242864)"><path style="stroke:none" d="M 0.4375 -1.796875 C 0.4375 -1.992188 0.429688 -2.164062 0.421875 -2.3125 L 0.75 -2.3125 C 0.757812 -2.144531 0.765625 -2.007812 0.765625 -1.90625 C 0.835938 -2.039062 0.9375 -2.148438 1.0625 -2.234375 C 1.195312 -2.316406 1.347656 -2.359375 1.515625 -2.359375 C 1.597656 -2.359375 1.671875 -2.351562 1.734375 -2.34375 L 1.6875 -2.015625 C 1.664062 -2.023438 1.628906 -2.03125 1.578125 -2.03125 C 1.535156 -2.039062 1.492188 -2.046875 1.453125 -2.046875 C 1.328125 -2.046875 1.210938 -2.015625 1.109375 -1.953125 C 1.003906 -1.890625 0.921875 -1.796875 0.859375 -1.671875 C 0.804688 -1.546875 0.78125 -1.382812 0.78125 -1.1875 L 0.78125 0 L 0.4375 0 Z M 0.4375 -1.796875 "/></g></g><g style="fill:#ffffff;fill-opacity:1;"><g transform="translate(20.349348, 6.242864)"><path style="stroke:none" d=""/></g></g><g style="fill:#ffffff;fill-opacity:1;"><g transform="translate(21.580845, 6.242864)"><path style="stroke:none" d="M 0.4375 -1.796875 C 0.4375 -1.992188 0.429688 -2.164062 0.421875 -2.3125 L 0.75 -2.3125 C 0.757812 -2.144531 0.765625 -2.007812 0.765625 -1.90625 C 0.816406 -2 0.878906 -2.078125 0.953125 -2.140625 C 1.035156 -2.210938 1.128906 -2.265625 1.234375 -2.296875 C 1.335938 -2.335938 1.445312 -2.359375 1.5625 -2.359375 C 1.84375 -2.359375 2.054688 -2.269531 2.203125 -2.09375 C 2.359375 -1.925781 2.4375 -1.695312 2.4375 -1.40625 L 2.4375 0 L 2.109375 0 L 2.109375 -1.28125 C 2.109375 -1.53125 2.0625 -1.722656 1.96875 -1.859375 C 1.875 -2.003906 1.710938 -2.078125 1.484375 -2.078125 C 1.359375 -2.078125 1.238281 -2.039062 1.125 -1.96875 C 1.019531 -1.90625 0.9375 -1.804688 0.875 -1.671875 C 0.8125 -1.546875 0.78125 -1.382812 0.78125 -1.1875 L 0.78125 0 L 0.4375 0 Z M 0.4375 -1.796875 "/></g></g><g style="fill:#ffffff;fill-opacity:1;"><g transform="translate(24.442847, 6.242864)"><path style="stroke:none" d="M 1.46875 0.0625 C 1.238281 0.0625 1.03125 0.0078125 0.84375 -0.09375 C 0.664062 -0.195312 0.523438 -0.34375 0.421875 -0.53125 C 0.328125 -0.71875 0.28125 -0.925781 0.28125 -1.15625 C 0.28125 -1.375 0.328125 -1.578125 0.421875 -1.765625 C 0.523438 -1.953125 0.664062 -2.097656 0.84375 -2.203125 C 1.019531 -2.304688 1.21875 -2.359375 1.4375 -2.359375 C 1.664062 -2.359375 1.863281 -2.304688 2.03125 -2.203125 C 2.195312 -2.109375 2.320312 -1.972656 2.40625 -1.796875 C 2.5 -1.628906 2.546875 -1.4375 2.546875 -1.21875 C 2.546875 -1.15625 2.539062 -1.101562 2.53125 -1.0625 L 0.625 -1.0625 C 0.625 -0.90625 0.660156 -0.765625 0.734375 -0.640625 C 0.804688 -0.515625 0.90625 -0.410156 1.03125 -0.328125 C 1.164062 -0.253906 1.3125 -0.21875 1.46875 -0.21875 C 1.625 -0.21875 1.769531 -0.253906 1.90625 -0.328125 C 2.039062 -0.410156 2.140625 -0.507812 2.203125 -0.625 L 2.453125 -0.421875 C 2.203125 -0.0976562 1.875 0.0625 1.46875 0.0625 Z M 2.203125 -1.328125 C 2.191406 -1.472656 2.15625 -1.601562 2.09375 -1.71875 C 2.039062 -1.832031 1.957031 -1.921875 1.84375 -1.984375 C 1.726562 -2.046875 1.59375 -2.078125 1.4375 -2.078125 C 1.289062 -2.078125 1.15625 -2.039062 1.03125 -1.96875 C 0.914062 -1.90625 0.820312 -1.816406 0.75 -1.703125 C 0.675781 -1.585938 0.632812 -1.460938 0.625 -1.328125 Z M 2.203125 -1.328125 "/></g></g><g style="fill:#ffffff;fill-opacity:1;"><g transform="translate(27.260515, 6.242864)"><path style="stroke:none" d="M 1.21875 0 L 0.859375 0 L 0.125 -2.3125 L 0.484375 -2.3125 L 1.046875 -0.4375 L 1.671875 -2.3125 L 2 -2.3125 L 2.625 -0.4375 L 2.640625 -0.4375 L 3.1875 -2.3125 L 3.546875 -2.3125 L 2.8125 0 L 2.453125 0 L 1.828125 -1.875 Z M 1.21875 0 "/></g></g><g style="fill:#ffffff;fill-opacity:1;"><g transform="translate(30.935305, 6.242864)"><path style="stroke:none" d=""/></g></g><g style="fill:#ffffff;fill-opacity:1;"><g transform="translate(32.166801, 6.242864)"><path style="stroke:none" d="M 0.609375 -2.953125 C 0.546875 -2.953125 0.488281 -2.972656 0.4375 -3.015625 C 0.394531 -3.066406 0.375 -3.125 0.375 -3.1875 C 0.375 -3.25 0.394531 -3.300781 0.4375 -3.34375 C 0.488281 -3.394531 0.546875 -3.421875 0.609375 -3.421875 C 0.671875 -3.421875 0.722656 -3.394531 0.765625 -3.34375 C 0.816406 -3.300781 0.84375 -3.25 0.84375 -3.1875 C 0.84375 -3.125 0.816406 -3.066406 0.765625 -3.015625 C 0.722656 -2.972656 0.671875 -2.953125 0.609375 -2.953125 Z M 0.78125 0 L 0.453125 0 L 0.453125 -2.3125 L 0.78125 -2.3125 Z M 0.78125 0 "/></g></g><g style="fill:#ffffff;fill-opacity:1;"><g transform="translate(33.398298, 6.242864)"><path style="stroke:none" d="M 1.46875 0.0625 C 1.238281 0.0625 1.03125 0.0078125 0.84375 -0.09375 C 0.664062 -0.207031 0.523438 -0.351562 0.421875 -0.53125 C 0.328125 -0.71875 0.28125 -0.925781 0.28125 -1.15625 C 0.28125 -1.375 0.328125 -1.578125 0.421875 -1.765625 C 0.523438 -1.953125 0.664062 -2.097656 0.84375 -2.203125 C 1.03125 -2.304688 1.238281 -2.359375 1.46875 -2.359375 C 1.632812 -2.359375 1.796875 -2.316406 1.953125 -2.234375 C 2.109375 -2.160156 2.238281 -2.050781 2.34375 -1.90625 L 2.34375 -3.71875 L 2.6875 -3.71875 L 2.6875 0 L 2.34375 0 L 2.34375 -0.390625 C 2.238281 -0.242188 2.109375 -0.128906 1.953125 -0.046875 C 1.796875 0.0234375 1.632812 0.0625 1.46875 0.0625 Z M 1.5 -0.21875 C 1.664062 -0.21875 1.816406 -0.257812 1.953125 -0.34375 C 2.085938 -0.425781 2.191406 -0.535156 2.265625 -0.671875 C 2.347656 -0.816406 2.390625 -0.976562 2.390625 -1.15625 C 2.390625 -1.320312 2.347656 -1.472656 2.265625 -1.609375 C 2.191406 -1.753906 2.085938 -1.867188 1.953125 -1.953125 C 1.816406 -2.035156 1.664062 -2.078125 1.5 -2.078125 C 1.320312 -2.078125 1.164062 -2.035156 1.03125 -1.953125 C 0.90625 -1.867188 0.804688 -1.753906 0.734375 -1.609375 C 0.660156 -1.472656 0.625 -1.320312 0.625 -1.15625 C 0.625 -0.976562 0.660156 -0.816406 0.734375 -0.671875 C 0.804688 -0.535156 0.90625 -0.425781 1.03125 -0.34375 C 1.164062 -0.257812 1.320312 -0.21875 1.5 -0.21875 Z M 1.5 -0.21875 "/></g></g><g style="fill:#ffffff;fill-opacity:1;"><g transform="translate(36.536159, 6.242864)"><path style="stroke:none" d="M 1.46875 0.0625 C 1.238281 0.0625 1.03125 0.0078125 0.84375 -0.09375 C 0.664062 -0.195312 0.523438 -0.34375 0.421875 -0.53125 C 0.328125 -0.71875 0.28125 -0.925781 0.28125 -1.15625 C 0.28125 -1.375 0.328125 -1.578125 0.421875 -1.765625 C 0.523438 -1.953125 0.664062 -2.097656 0.84375 -2.203125 C 1.019531 -2.304688 1.21875 -2.359375 1.4375 -2.359375 C 1.664062 -2.359375 1.863281 -2.304688 2.03125 -2.203125 C 2.195312 -2.109375 2.320312 -1.972656 2.40625 -1.796875 C 2.5 -1.628906 2.546875 -1.4375 2.546875 -1.21875 C 2.546875 -1.15625 2.539062 -1.101562 2.53125 -1.0625 L 0.625 -1.0625 C 0.625 -0.90625 0.660156 -0.765625 0.734375 -0.640625 C 0.804688 -0.515625 0.90625 -0.410156 1.03125 -0.328125 C 1.164062 -0.253906 1.3125 -0.21875 1.46875 -0.21875 C 1.625 -0.21875 1.769531 -0.253906 1.90625 -0.328125 C 2.039062 -0.410156 2.140625 -0.507812 2.203125 -0.625 L 2.453125 -0.421875 C 2.203125 -0.0976562 1.875 0.0625 1.46875 0.0625 Z M 2.203125 -1.328125 C 2.191406 -1.472656 2.15625 -1.601562 2.09375 -1.71875 C 2.039062 -1.832031 1.957031 -1.921875 1.84375 -1.984375 C 1.726562 -2.046875 1.59375 -2.078125 1.4375 -2.078125 C 1.289062 -2.078125 1.15625 -2.039062 1.03125 -1.96875 C 0.914062 -1.90625 0.820312 -1.816406 0.75 -1.703125 C 0.675781 -1.585938 0.632812 -1.460938 0.625 -1.328125 Z M 2.203125 -1.328125 "/></g></g><g style="fill:#ffffff;fill-opacity:1;"><g transform="translate(39.353826, 6.242864)"><path style="stroke:none" d="M 1.0625 0.0625 C 0.9375 0.0625 0.8125 0.0390625 0.6875 0 C 0.570312 -0.0507812 0.472656 -0.128906 0.390625 -0.234375 C 0.304688 -0.347656 0.265625 -0.484375 0.265625 -0.640625 C 0.265625 -0.859375 0.335938 -1.023438 0.484375 -1.140625 C 0.628906 -1.253906 0.8125 -1.328125 1.03125 -1.359375 C 1.257812 -1.390625 1.539062 -1.40625 1.875 -1.40625 L 1.890625 -1.40625 L 1.890625 -1.484375 C 1.890625 -1.679688 1.835938 -1.828125 1.734375 -1.921875 C 1.628906 -2.023438 1.476562 -2.078125 1.28125 -2.078125 C 1.144531 -2.078125 1.015625 -2.050781 0.890625 -2 C 0.773438 -1.957031 0.675781 -1.894531 0.59375 -1.8125 L 0.40625 -2.03125 C 0.507812 -2.132812 0.640625 -2.210938 0.796875 -2.265625 C 0.953125 -2.328125 1.125 -2.359375 1.3125 -2.359375 C 1.476562 -2.359375 1.628906 -2.328125 1.765625 -2.265625 C 1.898438 -2.203125 2.003906 -2.109375 2.078125 -1.984375 C 2.160156 -1.859375 2.203125 -1.707031 2.203125 -1.53125 L 2.203125 -0.515625 C 2.203125 -0.421875 2.207031 -0.328125 2.21875 -0.234375 C 2.226562 -0.140625 2.238281 -0.0625 2.25 0 L 1.953125 0 C 1.929688 -0.132812 1.921875 -0.257812 1.921875 -0.375 L 1.90625 -0.375 C 1.800781 -0.21875 1.679688 -0.101562 1.546875 -0.03125 C 1.410156 0.03125 1.25 0.0625 1.0625 0.0625 Z M 1.15625 -0.21875 C 1.3125 -0.21875 1.441406 -0.25 1.546875 -0.3125 C 1.660156 -0.382812 1.742188 -0.476562 1.796875 -0.59375 C 1.859375 -0.707031 1.890625 -0.835938 1.890625 -0.984375 L 1.890625 -1.15625 L 1.796875 -1.15625 C 1.453125 -1.15625 1.164062 -1.117188 0.9375 -1.046875 C 0.71875 -0.984375 0.609375 -0.851562 0.609375 -0.65625 C 0.609375 -0.5 0.660156 -0.382812 0.765625 -0.3125 C 0.878906 -0.25 1.007812 -0.21875 1.15625 -0.21875 Z M 1.15625 -0.21875 "/></g></g><g style="fill:#ffffff;fill-opacity:1;"><g transform="translate(41.98431, 6.242864)"><path style="stroke:none" d="M 1.09375 0.0625 C 0.914062 0.0625 0.742188 0.0234375 0.578125 -0.046875 C 0.421875 -0.128906 0.289062 -0.242188 0.1875 -0.390625 L 0.453125 -0.578125 C 0.515625 -0.472656 0.601562 -0.382812 0.71875 -0.3125 C 0.832031 -0.25 0.957031 -0.21875 1.09375 -0.21875 C 1.25 -0.21875 1.378906 -0.25 1.484375 -0.3125 C 1.585938 -0.382812 1.640625 -0.488281 1.640625 -0.625 C 1.640625 -0.707031 1.613281 -0.773438 1.5625 -0.828125 C 1.507812 -0.878906 1.4375 -0.921875 1.34375 -0.953125 C 1.25 -0.992188 1.117188 -1.035156 0.953125 -1.078125 C 0.835938 -1.109375 0.734375 -1.140625 0.640625 -1.171875 C 0.546875 -1.210938 0.460938 -1.273438 0.390625 -1.359375 C 0.328125 -1.441406 0.296875 -1.550781 0.296875 -1.6875 C 0.296875 -1.84375 0.332031 -1.96875 0.40625 -2.0625 C 0.476562 -2.164062 0.578125 -2.238281 0.703125 -2.28125 C 0.828125 -2.332031 0.96875 -2.359375 1.125 -2.359375 C 1.28125 -2.359375 1.429688 -2.320312 1.578125 -2.25 C 1.734375 -2.175781 1.847656 -2.078125 1.921875 -1.953125 L 1.671875 -1.75 C 1.617188 -1.851562 1.539062 -1.929688 1.4375 -1.984375 C 1.34375 -2.046875 1.234375 -2.078125 1.109375 -2.078125 C 0.972656 -2.078125 0.851562 -2.046875 0.75 -1.984375 C 0.65625 -1.929688 0.609375 -1.84375 0.609375 -1.71875 C 0.609375 -1.613281 0.648438 -1.53125 0.734375 -1.46875 C 0.828125 -1.414062 0.972656 -1.367188 1.171875 -1.328125 C 1.441406 -1.273438 1.640625 -1.191406 1.765625 -1.078125 C 1.898438 -0.972656 1.96875 -0.832031 1.96875 -0.65625 C 1.96875 -0.488281 1.925781 -0.347656 1.84375 -0.234375 C 1.757812 -0.128906 1.648438 -0.0507812 1.515625 0 C 1.390625 0.0390625 1.25 0.0625 1.09375 0.0625 Z M 1.09375 0.0625 "/></g></g><g style="fill:#ffffff;fill-opacity:1;"><g transform="translate(44.171451, 6.242864)"><path style="stroke:none" d=""/></g></g><g style="fill:#ffffff;fill-opacity:1;"><g transform="translate(45.402947, 6.242864)"><path style="stroke:none" d="M 1.0625 0.0625 C 0.9375 0.0625 0.8125 0.0390625 0.6875 0 C 0.570312 -0.0507812 0.472656 -0.128906 0.390625 -0.234375 C 0.304688 -0.347656 0.265625 -0.484375 0.265625 -0.640625 C 0.265625 -0.859375 0.335938 -1.023438 0.484375 -1.140625 C 0.628906 -1.253906 0.8125 -1.328125 1.03125 -1.359375 C 1.257812 -1.390625 1.539062 -1.40625 1.875 -1.40625 L 1.890625 -1.40625 L 1.890625 -1.484375 C 1.890625 -1.679688 1.835938 -1.828125 1.734375 -1.921875 C 1.628906 -2.023438 1.476562 -2.078125 1.28125 -2.078125 C 1.144531 -2.078125 1.015625 -2.050781 0.890625 -2 C 0.773438 -1.957031 0.675781 -1.894531 0.59375 -1.8125 L 0.40625 -2.03125 C 0.507812 -2.132812 0.640625 -2.210938 0.796875 -2.265625 C 0.953125 -2.328125 1.125 -2.359375 1.3125 -2.359375 C 1.476562 -2.359375 1.628906 -2.328125 1.765625 -2.265625 C 1.898438 -2.203125 2.003906 -2.109375 2.078125 -1.984375 C 2.160156 -1.859375 2.203125 -1.707031 2.203125 -1.53125 L 2.203125 -0.515625 C 2.203125 -0.421875 2.207031 -0.328125 2.21875 -0.234375 C 2.226562 -0.140625 2.238281 -0.0625 2.25 0 L 1.953125 0 C 1.929688 -0.132812 1.921875 -0.257812 1.921875 -0.375 L 1.90625 -0.375 C 1.800781 -0.21875 1.679688 -0.101562 1.546875 -0.03125 C 1.410156 0.03125 1.25 0.0625 1.0625 0.0625 Z M 1.15625 -0.21875 C 1.3125 -0.21875 1.441406 -0.25 1.546875 -0.3125 C 1.660156 -0.382812 1.742188 -0.476562 1.796875 -0.59375 C 1.859375 -0.707031 1.890625 -0.835938 1.890625 -0.984375 L 1.890625 -1.15625 L 1.796875 -1.15625 C 1.453125 -1.15625 1.164062 -1.117188 0.9375 -1.046875 C 0.71875 -0.984375 0.609375 -0.851562 0.609375 -0.65625 C 0.609375 -0.5 0.660156 -0.382812 0.765625 -0.3125 C 0.878906 -0.25 1.007812 -0.21875 1.15625 -0.21875 Z M 1.15625 -0.21875 "/></g></g><g style="fill:#ffffff;fill-opacity:1;"><g transform="translate(48.033431, 6.242864)"><path style="stroke:none" d="M 0.4375 -1.796875 C 0.4375 -1.992188 0.429688 -2.164062 0.421875 -2.3125 L 0.75 -2.3125 C 0.757812 -2.144531 0.765625 -2.007812 0.765625 -1.90625 C 0.816406 -2 0.878906 -2.078125 0.953125 -2.140625 C 1.035156 -2.210938 1.128906 -2.265625 1.234375 -2.296875 C 1.335938 -2.335938 1.445312 -2.359375 1.5625 -2.359375 C 1.84375 -2.359375 2.054688 -2.269531 2.203125 -2.09375 C 2.359375 -1.925781 2.4375 -1.695312 2.4375 -1.40625 L 2.4375 0 L 2.109375 0 L 2.109375 -1.28125 C 2.109375 -1.53125 2.0625 -1.722656 1.96875 -1.859375 C 1.875 -2.003906 1.710938 -2.078125 1.484375 -2.078125 C 1.359375 -2.078125 1.238281 -2.039062 1.125 -1.96875 C 1.019531 -1.90625 0.9375 -1.804688 0.875 -1.671875 C 0.8125 -1.546875 0.78125 -1.382812 0.78125 -1.1875 L 0.78125 0 L 0.4375 0 Z M 0.4375 -1.796875 "/></g></g><g style="fill:#ffffff;fill-opacity:1;"><g transform="translate(50.895433, 6.242864)"><path style="stroke:none" d="M 1.46875 0.0625 C 1.238281 0.0625 1.03125 0.0078125 0.84375 -0.09375 C 0.664062 -0.207031 0.523438 -0.351562 0.421875 -0.53125 C 0.328125 -0.71875 0.28125 -0.925781 0.28125 -1.15625 C 0.28125 -1.375 0.328125 -1.578125 0.421875 -1.765625 C 0.523438 -1.953125 0.664062 -2.097656 0.84375 -2.203125 C 1.03125 -2.304688 1.238281 -2.359375 1.46875 -2.359375 C 1.632812 -2.359375 1.796875 -2.316406 1.953125 -2.234375 C 2.109375 -2.160156 2.238281 -2.050781 2.34375 -1.90625 L 2.34375 -3.71875 L 2.6875 -3.71875 L 2.6875 0 L 2.34375 0 L 2.34375 -0.390625 C 2.238281 -0.242188 2.109375 -0.128906 1.953125 -0.046875 C 1.796875 0.0234375 1.632812 0.0625 1.46875 0.0625 Z M 1.5 -0.21875 C 1.664062 -0.21875 1.816406 -0.257812 1.953125 -0.34375 C 2.085938 -0.425781 2.191406 -0.535156 2.265625 -0.671875 C 2.347656 -0.816406 2.390625 -0.976562 2.390625 -1.15625 C 2.390625 -1.320312 2.347656 -1.472656 2.265625 -1.609375 C 2.191406 -1.753906 2.085938 -1.867188 1.953125 -1.953125 C 1.816406 -2.035156 1.664062 -2.078125 1.5 -2.078125 C 1.320312 -2.078125 1.164062 -2.035156 1.03125 -1.953125 C 0.90625 -1.867188 0.804688 -1.753906 0.734375 -1.609375 C 0.660156 -1.472656 0.625 -1.320312 0.625 -1.15625 C 0.625 -0.976562 0.660156 -0.816406 0.734375 -0.671875 C 0.804688 -0.535156 0.90625 -0.425781 1.03125 -0.34375 C 1.164062 -0.257812 1.320312 -0.21875 1.5 -0.21875 Z M 1.5 -0.21875 "/></g></g><g style="fill:#ffffff;fill-opacity:1;"><g transform="translate(54.034471, 6.242864)"><path style="stroke:none" d=""/></g></g><g style="fill:#ffffff;fill-opacity:1;"><g transform="translate(12.176632, 12.810812)"><path style="stroke:none" d="M 1.5 0.0625 C 1.269531 0.0625 1.0625 0.0078125 0.875 -0.09375 C 0.6875 -0.195312 0.539062 -0.34375 0.4375 -0.53125 C 0.332031 -0.71875 0.28125 -0.925781 0.28125 -1.15625 C 0.28125 -1.382812 0.332031 -1.585938 0.4375 -1.765625 C 0.539062 -1.953125 0.6875 -2.097656 0.875 -2.203125 C 1.0625 -2.304688 1.269531 -2.359375 1.5 -2.359375 C 1.738281 -2.359375 1.953125 -2.304688 2.140625 -2.203125 C 2.328125 -2.097656 2.472656 -1.953125 2.578125 -1.765625 C 2.679688 -1.585938 2.734375 -1.382812 2.734375 -1.15625 C 2.734375 -0.925781 2.679688 -0.71875 2.578125 -0.53125 C 2.472656 -0.34375 2.328125 -0.195312 2.140625 -0.09375 C 1.953125 0.0078125 1.738281 0.0625 1.5 0.0625 Z M 1.5 -0.21875 C 1.675781 -0.21875 1.828125 -0.257812 1.953125 -0.34375 C 2.085938 -0.425781 2.191406 -0.535156 2.265625 -0.671875 C 2.335938 -0.816406 2.375 -0.976562 2.375 -1.15625 C 2.375 -1.320312 2.335938 -1.472656 2.265625 -1.609375 C 2.191406 -1.753906 2.085938 -1.867188 1.953125 -1.953125 C 1.828125 -2.035156 1.675781 -2.078125 1.5 -2.078125 C 1.320312 -2.078125 1.164062 -2.035156 1.03125 -1.953125 C 0.90625 -1.867188 0.804688 -1.753906 0.734375 -1.609375 C 0.660156 -1.472656 0.625 -1.320312 0.625 -1.15625 C 0.625 -0.976562 0.660156 -0.816406 0.734375 -0.671875 C 0.804688 -0.535156 0.90625 -0.425781 1.03125 -0.34375 C 1.164062 -0.257812 1.320312 -0.21875 1.5 -0.21875 Z M 1.5 -0.21875 "/></g></g><g style="fill:#ffffff;fill-opacity:1;"><g transform="translate(15.186414, 12.810812)"><path style="stroke:none" d="M 0.4375 1.1875 L 0.4375 -2.3125 L 0.78125 -2.3125 L 0.78125 -1.90625 L 0.796875 -1.90625 C 0.890625 -2.050781 1.015625 -2.160156 1.171875 -2.234375 C 1.328125 -2.316406 1.488281 -2.359375 1.65625 -2.359375 C 1.894531 -2.359375 2.101562 -2.304688 2.28125 -2.203125 C 2.457031 -2.097656 2.59375 -1.953125 2.6875 -1.765625 C 2.789062 -1.578125 2.84375 -1.375 2.84375 -1.15625 C 2.84375 -0.925781 2.789062 -0.71875 2.6875 -0.53125 C 2.59375 -0.351562 2.457031 -0.207031 2.28125 -0.09375 C 2.101562 0.0078125 1.894531 0.0625 1.65625 0.0625 C 1.488281 0.0625 1.328125 0.0234375 1.171875 -0.046875 C 1.015625 -0.128906 0.890625 -0.242188 0.796875 -0.390625 L 0.78125 -0.390625 L 0.78125 1.1875 Z M 1.625 -0.21875 C 1.800781 -0.21875 1.953125 -0.257812 2.078125 -0.34375 C 2.210938 -0.425781 2.316406 -0.535156 2.390625 -0.671875 C 2.460938 -0.816406 2.5 -0.976562 2.5 -1.15625 C 2.5 -1.320312 2.460938 -1.472656 2.390625 -1.609375 C 2.316406 -1.753906 2.210938 -1.867188 2.078125 -1.953125 C 1.953125 -2.035156 1.800781 -2.078125 1.625 -2.078125 C 1.457031 -2.078125 1.304688 -2.035156 1.171875 -1.953125 C 1.035156 -1.867188 0.925781 -1.753906 0.84375 -1.609375 C 0.769531 -1.472656 0.734375 -1.320312 0.734375 -1.15625 C 0.734375 -0.976562 0.769531 -0.816406 0.84375 -0.671875 C 0.925781 -0.535156 1.035156 -0.425781 1.171875 -0.34375 C 1.304688 -0.257812 1.457031 -0.21875 1.625 -0.21875 Z M 1.625 -0.21875 "/></g></g><g style="fill:#ffffff;fill-opacity:1;"><g transform="translate(18.314422, 12.810812)"><path style="stroke:none" d="M 0.4375 1.1875 L 0.4375 -2.3125 L 0.78125 -2.3125 L 0.78125 -1.90625 L 0.796875 -1.90625 C 0.890625 -2.050781 1.015625 -2.160156 1.171875 -2.234375 C 1.328125 -2.316406 1.488281 -2.359375 1.65625 -2.359375 C 1.894531 -2.359375 2.101562 -2.304688 2.28125 -2.203125 C 2.457031 -2.097656 2.59375 -1.953125 2.6875 -1.765625 C 2.789062 -1.578125 2.84375 -1.375 2.84375 -1.15625 C 2.84375 -0.925781 2.789062 -0.71875 2.6875 -0.53125 C 2.59375 -0.351562 2.457031 -0.207031 2.28125 -0.09375 C 2.101562 0.0078125 1.894531 0.0625 1.65625 0.0625 C 1.488281 0.0625 1.328125 0.0234375 1.171875 -0.046875 C 1.015625 -0.128906 0.890625 -0.242188 0.796875 -0.390625 L 0.78125 -0.390625 L 0.78125 1.1875 Z M 1.625 -0.21875 C 1.800781 -0.21875 1.953125 -0.257812 2.078125 -0.34375 C 2.210938 -0.425781 2.316406 -0.535156 2.390625 -0.671875 C 2.460938 -0.816406 2.5 -0.976562 2.5 -1.15625 C 2.5 -1.320312 2.460938 -1.472656 2.390625 -1.609375 C 2.316406 -1.753906 2.210938 -1.867188 2.078125 -1.953125 C 1.953125 -2.035156 1.800781 -2.078125 1.625 -2.078125 C 1.457031 -2.078125 1.304688 -2.035156 1.171875 -1.953125 C 1.035156 -1.867188 0.925781 -1.753906 0.84375 -1.609375 C 0.769531 -1.472656 0.734375 -1.320312 0.734375 -1.15625 C 0.734375 -0.976562 0.769531 -0.816406 0.84375 -0.671875 C 0.925781 -0.535156 1.035156 -0.425781 1.171875 -0.34375 C 1.304688 -0.257812 1.457031 -0.21875 1.625 -0.21875 Z M 1.625 -0.21875 "/></g></g><g style="fill:#ffffff;fill-opacity:1;"><g transform="translate(21.44243, 12.810812)"><path style="stroke:none" d="M 1.5 0.0625 C 1.269531 0.0625 1.0625 0.0078125 0.875 -0.09375 C 0.6875 -0.195312 0.539062 -0.34375 0.4375 -0.53125 C 0.332031 -0.71875 0.28125 -0.925781 0.28125 -1.15625 C 0.28125 -1.382812 0.332031 -1.585938 0.4375 -1.765625 C 0.539062 -1.953125 0.6875 -2.097656 0.875 -2.203125 C 1.0625 -2.304688 1.269531 -2.359375 1.5 -2.359375 C 1.738281 -2.359375 1.953125 -2.304688 2.140625 -2.203125 C 2.328125 -2.097656 2.472656 -1.953125 2.578125 -1.765625 C 2.679688 -1.585938 2.734375 -1.382812 2.734375 -1.15625 C 2.734375 -0.925781 2.679688 -0.71875 2.578125 -0.53125 C 2.472656 -0.34375 2.328125 -0.195312 2.140625 -0.09375 C 1.953125 0.0078125 1.738281 0.0625 1.5 0.0625 Z M 1.5 -0.21875 C 1.675781 -0.21875 1.828125 -0.257812 1.953125 -0.34375 C 2.085938 -0.425781 2.191406 -0.535156 2.265625 -0.671875 C 2.335938 -0.816406 2.375 -0.976562 2.375 -1.15625 C 2.375 -1.320312 2.335938 -1.472656 2.265625 -1.609375 C 2.191406 -1.753906 2.085938 -1.867188 1.953125 -1.953125 C 1.828125 -2.035156 1.675781 -2.078125 1.5 -2.078125 C 1.320312 -2.078125 1.164062 -2.035156 1.03125 -1.953125 C 0.90625 -1.867188 0.804688 -1.753906 0.734375 -1.609375 C 0.660156 -1.472656 0.625 -1.320312 0.625 -1.15625 C 0.625 -0.976562 0.660156 -0.816406 0.734375 -0.671875 C 0.804688 -0.535156 0.90625 -0.425781 1.03125 -0.34375 C 1.164062 -0.257812 1.320312 -0.21875 1.5 -0.21875 Z M 1.5 -0.21875 "/></g></g><g style="fill:#ffffff;fill-opacity:1;"><g transform="translate(24.452211, 12.810812)"><path style="stroke:none" d="M 0.4375 -1.796875 C 0.4375 -1.992188 0.429688 -2.164062 0.421875 -2.3125 L 0.75 -2.3125 C 0.757812 -2.144531 0.765625 -2.007812 0.765625 -1.90625 C 0.835938 -2.039062 0.9375 -2.148438 1.0625 -2.234375 C 1.195312 -2.316406 1.347656 -2.359375 1.515625 -2.359375 C 1.597656 -2.359375 1.671875 -2.351562 1.734375 -2.34375 L 1.6875 -2.015625 C 1.664062 -2.023438 1.628906 -2.03125 1.578125 -2.03125 C 1.535156 -2.039062 1.492188 -2.046875 1.453125 -2.046875 C 1.328125 -2.046875 1.210938 -2.015625 1.109375 -1.953125 C 1.003906 -1.890625 0.921875 -1.796875 0.859375 -1.671875 C 0.804688 -1.546875 0.78125 -1.382812 0.78125 -1.1875 L 0.78125 0 L 0.4375 0 Z M 0.4375 -1.796875 "/></g></g><g style="fill:#ffffff;fill-opacity:1;"><g transform="translate(26.225573, 12.810812)"><path style="stroke:none" d="M 1.09375 0.03125 C 0.925781 0.03125 0.785156 -0.015625 0.671875 -0.109375 C 0.554688 -0.203125 0.5 -0.359375 0.5 -0.578125 L 0.5 -2.03125 L 0.015625 -2.03125 L 0.015625 -2.3125 L 0.5 -2.3125 L 0.5 -2.953125 L 0.828125 -2.953125 L 0.828125 -2.3125 L 1.484375 -2.3125 L 1.484375 -2.03125 L 0.828125 -2.03125 L 0.828125 -0.671875 C 0.828125 -0.515625 0.859375 -0.40625 0.921875 -0.34375 C 0.984375 -0.28125 1.066406 -0.25 1.171875 -0.25 C 1.222656 -0.25 1.269531 -0.253906 1.3125 -0.265625 C 1.363281 -0.285156 1.414062 -0.304688 1.46875 -0.328125 L 1.484375 -0.046875 C 1.359375 0.00390625 1.226562 0.03125 1.09375 0.03125 Z M 1.09375 0.03125 "/></g></g><g style="fill:#ffffff;fill-opacity:1;"><g transform="translate(27.787115, 12.810812)"><path style="stroke:none" d="M 1.296875 0.0625 C 1.015625 0.0625 0.796875 -0.0195312 0.640625 -0.1875 C 0.492188 -0.363281 0.421875 -0.597656 0.421875 -0.890625 L 0.421875 -2.3125 L 0.765625 -2.3125 L 0.765625 -1.03125 C 0.765625 -0.769531 0.804688 -0.566406 0.890625 -0.421875 C 0.984375 -0.285156 1.148438 -0.21875 1.390625 -0.21875 C 1.503906 -0.21875 1.613281 -0.25 1.71875 -0.3125 C 1.832031 -0.382812 1.921875 -0.488281 1.984375 -0.625 C 2.046875 -0.757812 2.078125 -0.925781 2.078125 -1.125 L 2.078125 -2.3125 L 2.421875 -2.3125 L 2.421875 -0.5 C 2.421875 -0.3125 2.425781 -0.144531 2.4375 0 L 2.109375 0 C 2.097656 -0.164062 2.09375 -0.296875 2.09375 -0.390625 C 2.039062 -0.304688 1.972656 -0.226562 1.890625 -0.15625 C 1.816406 -0.09375 1.726562 -0.0390625 1.625 0 C 1.519531 0.0390625 1.410156 0.0625 1.296875 0.0625 Z M 1.296875 0.0625 "/></g></g><g style="fill:#ffffff;fill-opacity:1;"><g transform="translate(30.649117, 12.810812)"><path style="stroke:none" d="M 0.4375 -1.796875 C 0.4375 -1.992188 0.429688 -2.164062 0.421875 -2.3125 L 0.75 -2.3125 C 0.757812 -2.144531 0.765625 -2.007812 0.765625 -1.90625 C 0.816406 -2 0.878906 -2.078125 0.953125 -2.140625 C 1.035156 -2.210938 1.128906 -2.265625 1.234375 -2.296875 C 1.335938 -2.335938 1.445312 -2.359375 1.5625 -2.359375 C 1.84375 -2.359375 2.054688 -2.269531 2.203125 -2.09375 C 2.359375 -1.925781 2.4375 -1.695312 2.4375 -1.40625 L 2.4375 0 L 2.109375 0 L 2.109375 -1.28125 C 2.109375 -1.53125 2.0625 -1.722656 1.96875 -1.859375 C 1.875 -2.003906 1.710938 -2.078125 1.484375 -2.078125 C 1.359375 -2.078125 1.238281 -2.039062 1.125 -1.96875 C 1.019531 -1.90625 0.9375 -1.804688 0.875 -1.671875 C 0.8125 -1.546875 0.78125 -1.382812 0.78125 -1.1875 L 0.78125 0 L 0.4375 0 Z M 0.4375 -1.796875 "/></g></g><g style="fill:#ffffff;fill-opacity:1;"><g transform="translate(33.511119, 12.810812)"><path style="stroke:none" d="M 0.609375 -2.953125 C 0.546875 -2.953125 0.488281 -2.972656 0.4375 -3.015625 C 0.394531 -3.066406 0.375 -3.125 0.375 -3.1875 C 0.375 -3.25 0.394531 -3.300781 0.4375 -3.34375 C 0.488281 -3.394531 0.546875 -3.421875 0.609375 -3.421875 C 0.671875 -3.421875 0.722656 -3.394531 0.765625 -3.34375 C 0.816406 -3.300781 0.84375 -3.25 0.84375 -3.1875 C 0.84375 -3.125 0.816406 -3.066406 0.765625 -3.015625 C 0.722656 -2.972656 0.671875 -2.953125 0.609375 -2.953125 Z M 0.78125 0 L 0.453125 0 L 0.453125 -2.3125 L 0.78125 -2.3125 Z M 0.78125 0 "/></g></g><g style="fill:#ffffff;fill-opacity:1;"><g transform="translate(34.742616, 12.810812)"><path style="stroke:none" d="M 1.09375 0.03125 C 0.925781 0.03125 0.785156 -0.015625 0.671875 -0.109375 C 0.554688 -0.203125 0.5 -0.359375 0.5 -0.578125 L 0.5 -2.03125 L 0.015625 -2.03125 L 0.015625 -2.3125 L 0.5 -2.3125 L 0.5 -2.953125 L 0.828125 -2.953125 L 0.828125 -2.3125 L 1.484375 -2.3125 L 1.484375 -2.03125 L 0.828125 -2.03125 L 0.828125 -0.671875 C 0.828125 -0.515625 0.859375 -0.40625 0.921875 -0.34375 C 0.984375 -0.28125 1.066406 -0.25 1.171875 -0.25 C 1.222656 -0.25 1.269531 -0.253906 1.3125 -0.265625 C 1.363281 -0.285156 1.414062 -0.304688 1.46875 -0.328125 L 1.484375 -0.046875 C 1.359375 0.00390625 1.226562 0.03125 1.09375 0.03125 Z M 1.09375 0.03125 "/></g></g><g style="fill:#ffffff;fill-opacity:1;"><g transform="translate(36.304158, 12.810812)"><path style="stroke:none" d="M 0.609375 -2.953125 C 0.546875 -2.953125 0.488281 -2.972656 0.4375 -3.015625 C 0.394531 -3.066406 0.375 -3.125 0.375 -3.1875 C 0.375 -3.25 0.394531 -3.300781 0.4375 -3.34375 C 0.488281 -3.394531 0.546875 -3.421875 0.609375 -3.421875 C 0.671875 -3.421875 0.722656 -3.394531 0.765625 -3.34375 C 0.816406 -3.300781 0.84375 -3.25 0.84375 -3.1875 C 0.84375 -3.125 0.816406 -3.066406 0.765625 -3.015625 C 0.722656 -2.972656 0.671875 -2.953125 0.609375 -2.953125 Z M 0.78125 0 L 0.453125 0 L 0.453125 -2.3125 L 0.78125 -2.3125 Z M 0.78125 0 "/></g></g><g style="fill:#ffffff;fill-opacity:1;"><g transform="translate(37.535655, 12.810812)"><path style="stroke:none" d="M 1.46875 0.0625 C 1.238281 0.0625 1.03125 0.0078125 0.84375 -0.09375 C 0.664062 -0.195312 0.523438 -0.34375 0.421875 -0.53125 C 0.328125 -0.71875 0.28125 -0.925781 0.28125 -1.15625 C 0.28125 -1.375 0.328125 -1.578125 0.421875 -1.765625 C 0.523438 -1.953125 0.664062 -2.097656 0.84375 -2.203125 C 1.019531 -2.304688 1.21875 -2.359375 1.4375 -2.359375 C 1.664062 -2.359375 1.863281 -2.304688 2.03125 -2.203125 C 2.195312 -2.109375 2.320312 -1.972656 2.40625 -1.796875 C 2.5 -1.628906 2.546875 -1.4375 2.546875 -1.21875 C 2.546875 -1.15625 2.539062 -1.101562 2.53125 -1.0625 L 0.625 -1.0625 C 0.625 -0.90625 0.660156 -0.765625 0.734375 -0.640625 C 0.804688 -0.515625 0.90625 -0.410156 1.03125 -0.328125 C 1.164062 -0.253906 1.3125 -0.21875 1.46875 -0.21875 C 1.625 -0.21875 1.769531 -0.253906 1.90625 -0.328125 C 2.039062 -0.410156 2.140625 -0.507812 2.203125 -0.625 L 2.453125 -0.421875 C 2.203125 -0.0976562 1.875 0.0625 1.46875 0.0625 Z M 2.203125 -1.328125 C 2.191406 -1.472656 2.15625 -1.601562 2.09375 -1.71875 C 2.039062 -1.832031 1.957031 -1.921875 1.84375 -1.984375 C 1.726562 -2.046875 1.59375 -2.078125 1.4375 -2.078125 C 1.289062 -2.078125 1.15625 -2.039062 1.03125 -1.96875 C 0.914062 -1.90625 0.820312 -1.816406 0.75 -1.703125 C 0.675781 -1.585938 0.632812 -1.460938 0.625 -1.328125 Z M 2.203125 -1.328125 "/></g></g><g style="fill:#ffffff;fill-opacity:1;"><g transform="translate(40.353322, 12.810812)"><path style="stroke:none" d="M 1.09375 0.0625 C 0.914062 0.0625 0.742188 0.0234375 0.578125 -0.046875 C 0.421875 -0.128906 0.289062 -0.242188 0.1875 -0.390625 L 0.453125 -0.578125 C 0.515625 -0.472656 0.601562 -0.382812 0.71875 -0.3125 C 0.832031 -0.25 0.957031 -0.21875 1.09375 -0.21875 C 1.25 -0.21875 1.378906 -0.25 1.484375 -0.3125 C 1.585938 -0.382812 1.640625 -0.488281 1.640625 -0.625 C 1.640625 -0.707031 1.613281 -0.773438 1.5625 -0.828125 C 1.507812 -0.878906 1.4375 -0.921875 1.34375 -0.953125 C 1.25 -0.992188 1.117188 -1.035156 0.953125 -1.078125 C 0.835938 -1.109375 0.734375 -1.140625 0.640625 -1.171875 C 0.546875 -1.210938 0.460938 -1.273438 0.390625 -1.359375 C 0.328125 -1.441406 0.296875 -1.550781 0.296875 -1.6875 C 0.296875 -1.84375 0.332031 -1.96875 0.40625 -2.0625 C 0.476562 -2.164062 0.578125 -2.238281 0.703125 -2.28125 C 0.828125 -2.332031 0.96875 -2.359375 1.125 -2.359375 C 1.28125 -2.359375 1.429688 -2.320312 1.578125 -2.25 C 1.734375 -2.175781 1.847656 -2.078125 1.921875 -1.953125 L 1.671875 -1.75 C 1.617188 -1.851562 1.539062 -1.929688 1.4375 -1.984375 C 1.34375 -2.046875 1.234375 -2.078125 1.109375 -2.078125 C 0.972656 -2.078125 0.851562 -2.046875 0.75 -1.984375 C 0.65625 -1.929688 0.609375 -1.84375 0.609375 -1.71875 C 0.609375 -1.613281 0.648438 -1.53125 0.734375 -1.46875 C 0.828125 -1.414062 0.972656 -1.367188 1.171875 -1.328125 C 1.441406 -1.273438 1.640625 -1.191406 1.765625 -1.078125 C 1.898438 -0.972656 1.96875 -0.832031 1.96875 -0.65625 C 1.96875 -0.488281 1.925781 -0.347656 1.84375 -0.234375 C 1.757812 -0.128906 1.648438 -0.0507812 1.515625 0 C 1.390625 0.0390625 1.25 0.0625 1.09375 0.0625 Z M 1.09375 0.0625 "/></g></g><g style="fill:#ffffff;fill-opacity:1;"><g transform="translate(42.540463, 12.810812)"><path style="stroke:none" d="M 0.640625 0.03125 C 0.566406 0.03125 0.503906 0.00390625 0.453125 -0.046875 C 0.398438 -0.0976562 0.375 -0.160156 0.375 -0.234375 C 0.375 -0.304688 0.398438 -0.367188 0.453125 -0.421875 C 0.503906 -0.472656 0.566406 -0.5 0.640625 -0.5 C 0.710938 -0.5 0.773438 -0.472656 0.828125 -0.421875 C 0.878906 -0.367188 0.90625 -0.304688 0.90625 -0.234375 C 0.90625 -0.160156 0.878906 -0.0976562 0.828125 -0.046875 C 0.773438 0.00390625 0.710938 0.03125 0.640625 0.03125 Z M 0.640625 0.03125 "/></g></g></g></g></g></svg>