<svg xmlns="http://www.w3.org/2000/svg" xmlns:xlink="http://www.w3.org/1999/xlink" width="250" zoomAndPan="magnify" viewBox="0 0 187.5 187.499992" height="250" preserveAspectRatio="xMidYMid meet" version="1.2"><defs><clipPath id="0f03f89586"><path d="M 85 11.394531 L 102 11.394531 L 102 29 L 85 29 Z M 85 11.394531 "/></clipPath><clipPath id="33150526f3"><path d="M 63 77 L 86 77 L 86 101.152344 L 63 101.152344 Z M 63 77 "/></clipPath><clipPath id="c8e2bd8e5a"><path d="M 44.449219 72 L 62 72 L 62 90 L 44.449219 90 Z M 44.449219 72 "/></clipPath><clipPath id="dd1e5b1a6b"><path d="M 101 77 L 124 77 L 124 101.152344 L 101 101.152344 Z M 101 77 "/></clipPath><clipPath id="0ce8c9e25b"><path d="M 125 72 L 142.441406 72 L 142.441406 90 L 125 90 Z M 125 72 "/></clipPath></defs><g id="a403efd754"><path style=" stroke:none;fill-rule:nonzero;fill:#ffffff;fill-opacity:1;" d="M 119.4375 43.570312 C 120.273438 43.34375 120.957031 42.808594 121.261719 42.050781 C 121.261719 41.972656 121.339844 41.972656 121.339844 41.898438 L 122.175781 39.160156 C 122.632812 38.09375 122.328125 36.800781 121.414062 36.039062 C 116.015625 31.398438 109.472656 28.203125 102.472656 26.757812 C 102.167969 27.140625 101.867188 27.519531 101.484375 27.898438 C 100.875 28.507812 100.269531 29.042969 99.507812 29.496094 C 100.574219 29.648438 101.332031 29.726562 101.5625 29.726562 C 108.101562 31.09375 114.1875 34.0625 119.210938 38.246094 L 118.601562 40.375 C 113.730469 36.570312 108.253906 33.984375 102.398438 32.539062 C 101.5625 32.386719 100.722656 32.84375 100.574219 33.679688 C 100.496094 33.910156 100.496094 34.214844 100.574219 34.441406 L 100.574219 42.199219 C 101.5625 41.972656 102.550781 41.820312 103.613281 41.820312 L 103.613281 36.039062 C 108.40625 37.484375 112.972656 39.765625 117.078125 43.039062 C 117.765625 43.570312 118.601562 43.722656 119.4375 43.570312 Z M 119.4375 43.570312 "/><path style=" stroke:none;fill-rule:nonzero;fill:#ffffff;fill-opacity:1;" d="M 65.429688 36.722656 C 64.667969 37.484375 64.363281 38.625 64.746094 39.691406 L 65.503906 42.277344 C 65.503906 42.351562 65.503906 42.351562 65.582031 42.429688 C 65.886719 43.265625 66.644531 43.875 67.484375 44.027344 C 67.636719 44.101562 67.863281 44.101562 68.089844 44.101562 C 68.777344 44.101562 69.382812 43.875 69.917969 43.417969 C 73.949219 39.84375 78.664062 37.257812 83.761719 35.8125 L 83.761719 41.820312 C 84.828125 41.898438 85.816406 42.050781 86.804688 42.277344 L 86.804688 34.441406 C 86.804688 34.367188 86.804688 34.214844 86.804688 34.136719 C 86.878906 33.910156 86.878906 33.679688 86.804688 33.527344 C 86.652344 32.691406 85.816406 32.160156 84.976562 32.386719 C 78.894531 33.757812 73.113281 36.648438 68.320312 40.753906 L 67.710938 38.777344 C 72.503906 34.214844 78.664062 31.019531 85.359375 29.648438 C 85.585938 29.648438 86.347656 29.496094 87.414062 29.421875 C 86.726562 28.964844 86.042969 28.433594 85.433594 27.898438 C 85.054688 27.519531 84.75 27.140625 84.445312 26.757812 C 77.21875 28.28125 70.601562 31.703125 65.429688 36.722656 Z M 65.429688 36.722656 "/><g clip-rule="nonzero" clip-path="url(#0f03f89586)"><path style=" stroke:none;fill-rule:nonzero;fill:#ffffff;fill-opacity:1;" d="M 93.5 11.394531 C 88.933594 11.394531 85.207031 15.121094 85.207031 19.761719 C 85.207031 21.96875 86.042969 24.097656 87.640625 25.695312 C 89.238281 27.292969 91.292969 28.128906 93.5 28.128906 C 95.703125 28.128906 97.832031 27.292969 99.355469 25.695312 C 100.953125 24.097656 101.789062 22.042969 101.789062 19.761719 C 101.789062 15.121094 98.0625 11.394531 93.5 11.394531 Z M 97.226562 23.5625 C 96.238281 24.554688 94.945312 25.085938 93.5 25.085938 C 92.128906 25.085938 90.757812 24.554688 89.769531 23.5625 C 88.78125 22.574219 88.25 21.207031 88.25 19.761719 C 88.25 16.792969 90.609375 14.4375 93.5 14.4375 C 96.386719 14.4375 98.746094 16.792969 98.746094 19.761719 C 98.746094 21.207031 98.214844 22.5 97.226562 23.5625 Z M 97.226562 23.5625 "/></g><path style=" stroke:none;fill-rule:nonzero;fill:#ffffff;fill-opacity:1;" d="M 61.929688 67.609375 C 62.082031 68.445312 62.84375 68.976562 63.679688 68.902344 C 63.984375 68.824219 64.210938 68.75 64.363281 68.597656 C 64.363281 68.597656 64.441406 68.597656 64.441406 68.597656 L 68.699219 66.695312 L 68.472656 66.390625 C 68.394531 66.316406 68.394531 66.238281 68.320312 66.164062 L 68.015625 65.628906 C 67.9375 65.554688 67.863281 65.402344 67.863281 65.324219 C 67.636719 64.871094 67.484375 64.414062 67.253906 63.957031 L 64.667969 65.097656 C 64.210938 60.078125 64.667969 54.90625 66.191406 49.882812 C 66.417969 49.046875 66.265625 48.210938 65.808594 47.527344 C 65.277344 46.839844 64.515625 46.386719 63.679688 46.386719 C 63.601562 46.386719 63.601562 46.386719 63.527344 46.386719 L 60.636719 46.613281 C 59.496094 46.613281 58.429688 47.375 58.050781 48.515625 C 55.769531 55.359375 55.234375 62.738281 56.527344 69.890625 C 57.820312 70.269531 59.039062 70.878906 60.105469 71.640625 C 59.800781 70.574219 59.570312 69.738281 59.570312 69.585938 C 58.355469 62.890625 58.8125 56.046875 60.941406 49.730469 L 63.300781 49.578125 C 61.398438 55.511719 61.015625 61.597656 61.929688 67.609375 Z M 61.929688 67.609375 "/><g clip-rule="nonzero" clip-path="url(#33150526f3)"><path style=" stroke:none;fill-rule:nonzero;fill:#ffffff;fill-opacity:1;" d="M 65.582031 84.800781 C 65.503906 84.648438 65.046875 83.886719 64.515625 82.898438 C 64.363281 83.734375 64.136719 84.496094 63.753906 85.332031 C 63.527344 85.789062 63.300781 86.246094 63.070312 86.625 C 67.332031 92.9375 73.035156 97.882812 79.730469 100.925781 C 80.109375 101.078125 80.492188 101.152344 80.871094 101.152344 C 81.554688 101.152344 82.238281 100.925781 82.773438 100.46875 L 84.902344 98.796875 C 84.976562 98.796875 84.976562 98.71875 85.054688 98.71875 C 85.664062 98.109375 85.96875 97.199219 85.890625 96.363281 C 85.816406 95.523438 85.207031 94.765625 84.445312 94.308594 C 79.578125 91.875 75.316406 88.296875 72.046875 84.039062 L 79.804688 80.234375 L 77.75 77.800781 L 69.535156 81.832031 C 69.460938 81.832031 69.460938 81.910156 69.382812 81.910156 C 69.15625 81.910156 68.929688 81.984375 68.777344 82.136719 C 68.089844 82.59375 67.9375 83.582031 68.394531 84.265625 C 71.972656 89.515625 76.914062 93.851562 82.621094 96.816406 L 80.945312 98.109375 C 74.785156 95.21875 69.460938 90.65625 65.582031 84.800781 Z M 65.582031 84.800781 "/></g><g clip-rule="nonzero" clip-path="url(#c8e2bd8e5a)"><path style=" stroke:none;fill-rule:nonzero;fill:#ffffff;fill-opacity:1;" d="M 53.257812 89.289062 C 54.324219 89.289062 55.386719 89.058594 56.375 88.679688 C 58.507812 87.84375 60.105469 86.246094 61.015625 84.191406 C 61.929688 82.136719 61.929688 79.855469 61.09375 77.726562 C 59.34375 73.390625 54.476562 71.335938 50.140625 73.007812 C 48.007812 73.84375 46.410156 75.441406 45.5 77.496094 C 44.585938 79.550781 44.585938 81.832031 45.421875 83.960938 C 46.714844 87.234375 49.910156 89.289062 53.257812 89.289062 Z M 48.3125 78.714844 C 48.847656 77.421875 49.910156 76.355469 51.28125 75.824219 C 51.964844 75.59375 52.648438 75.441406 53.257812 75.441406 C 55.386719 75.441406 57.441406 76.734375 58.277344 78.789062 C 58.8125 80.082031 58.8125 81.605469 58.203125 82.898438 C 57.667969 84.191406 56.605469 85.253906 55.234375 85.789062 C 52.496094 86.851562 49.300781 85.558594 48.238281 82.820312 C 47.703125 81.527344 47.703125 80.082031 48.3125 78.714844 Z M 48.3125 78.714844 "/></g><path style=" stroke:none;fill-rule:nonzero;fill:#ffffff;fill-opacity:1;" d="M 127.042969 71.5625 C 128.109375 70.800781 129.328125 70.195312 130.621094 69.8125 C 131.914062 62.664062 131.378906 55.285156 129.097656 48.4375 C 128.71875 47.296875 127.652344 46.535156 126.511719 46.535156 L 123.621094 46.308594 C 123.546875 46.308594 123.546875 46.308594 123.46875 46.308594 C 122.632812 46.308594 121.871094 46.765625 121.339844 47.449219 C 120.804688 48.132812 120.65625 48.972656 120.957031 49.808594 C 122.480469 54.90625 122.9375 60 122.480469 65.023438 L 119.894531 63.878906 C 119.742188 64.335938 119.511719 64.792969 119.285156 65.25 C 119.210938 65.324219 119.210938 65.476562 119.132812 65.554688 L 118.675781 66.164062 C 118.601562 66.238281 118.601562 66.316406 118.523438 66.390625 L 118.296875 66.695312 L 122.554688 68.597656 C 122.554688 68.597656 122.632812 68.597656 122.632812 68.597656 C 122.859375 68.75 123.089844 68.902344 123.316406 68.902344 C 124.152344 69.054688 124.914062 68.445312 125.066406 67.609375 C 125.980469 61.597656 125.597656 55.4375 123.847656 49.425781 L 126.207031 49.578125 C 128.335938 55.894531 128.792969 62.738281 127.578125 69.433594 C 127.5 69.660156 127.347656 70.5 127.042969 71.5625 Z M 127.042969 71.5625 "/><g clip-rule="nonzero" clip-path="url(#dd1e5b1a6b)"><path style=" stroke:none;fill-rule:nonzero;fill:#ffffff;fill-opacity:1;" d="M 123.164062 85.332031 C 122.859375 84.570312 122.632812 83.734375 122.402344 82.898438 C 121.871094 83.886719 121.492188 84.648438 121.339844 84.800781 C 117.460938 90.65625 112.136719 95.21875 106.050781 98.035156 L 104.375 96.742188 C 110.082031 93.773438 114.949219 89.441406 118.601562 84.191406 C 119.058594 83.507812 118.90625 82.515625 118.21875 82.0625 C 118.066406 81.910156 117.839844 81.832031 117.613281 81.832031 C 117.535156 81.832031 117.535156 81.757812 117.460938 81.757812 L 109.246094 77.726562 L 107.191406 80.160156 L 114.949219 83.960938 C 111.753906 88.222656 107.496094 91.796875 102.625 94.230469 C 101.867188 94.613281 101.257812 95.371094 101.179688 96.285156 C 101.105469 97.199219 101.332031 98.035156 102.019531 98.644531 C 102.09375 98.644531 102.09375 98.71875 102.167969 98.71875 L 104.300781 100.394531 C 104.832031 100.851562 105.515625 101.078125 106.203125 101.078125 C 106.582031 101.078125 106.960938 101 107.34375 100.851562 C 114.035156 97.808594 119.742188 92.863281 124 86.550781 C 123.621094 86.246094 123.394531 85.789062 123.164062 85.332031 Z M 123.164062 85.332031 "/></g><g clip-rule="nonzero" clip-path="url(#0ce8c9e25b)"><path style=" stroke:none;fill-rule:nonzero;fill:#ffffff;fill-opacity:1;" d="M 136.855469 73.007812 C 132.519531 71.257812 127.578125 73.390625 125.902344 77.726562 C 125.066406 79.777344 125.066406 82.0625 125.980469 84.191406 C 126.890625 86.246094 128.488281 87.84375 130.621094 88.679688 C 131.609375 89.058594 132.671875 89.289062 133.738281 89.289062 C 137.085938 89.289062 140.28125 87.308594 141.574219 84.039062 C 142.410156 81.984375 142.410156 79.703125 141.496094 77.574219 C 140.585938 75.441406 138.988281 73.84375 136.855469 73.007812 Z M 138.757812 82.820312 C 137.617188 85.558594 134.5 86.929688 131.761719 85.789062 C 130.390625 85.253906 129.402344 84.265625 128.792969 82.898438 C 128.261719 81.605469 128.183594 80.160156 128.71875 78.789062 C 129.554688 76.660156 131.609375 75.441406 133.738281 75.441406 C 134.421875 75.441406 135.109375 75.59375 135.714844 75.824219 C 137.085938 76.355469 138.074219 77.34375 138.683594 78.714844 C 139.292969 80.082031 139.292969 81.527344 138.757812 82.820312 Z M 138.757812 82.820312 "/></g><path style=" stroke:none;fill-rule:nonzero;fill:#ffffff;fill-opacity:1;" d="M 114.796875 66.46875 L 116.089844 64.640625 C 116.089844 64.640625 116.089844 64.566406 116.167969 64.566406 L 116.472656 64.03125 C 116.472656 64.03125 116.546875 63.957031 116.546875 63.957031 C 117.535156 62.054688 117.992188 60 117.914062 57.796875 C 117.765625 50.871094 111.90625 45.167969 104.679688 44.863281 C 100.117188 44.636719 96.160156 47.222656 93.574219 50.1875 C 90.988281 47.222656 87.03125 44.636719 82.46875 44.863281 C 75.242188 45.242188 69.382812 50.871094 69.230469 57.796875 C 69.15625 59.925781 69.613281 61.980469 70.601562 63.957031 C 70.601562 63.957031 70.601562 64.03125 70.675781 64.03125 L 70.980469 64.566406 C 70.980469 64.566406 70.980469 64.640625 71.058594 64.640625 L 72.351562 66.46875 C 72.351562 66.542969 72.425781 66.617188 72.503906 66.617188 L 91.824219 89.742188 C 92.28125 90.199219 92.890625 90.503906 93.5 90.503906 C 94.105469 90.503906 94.714844 90.199219 95.246094 89.742188 L 114.722656 66.617188 C 114.722656 66.542969 114.722656 66.542969 114.796875 66.46875 Z M 112.285156 64.71875 L 93.5 87.003906 L 74.710938 64.71875 L 73.492188 62.96875 L 73.265625 62.585938 C 72.503906 61.140625 72.199219 59.542969 72.273438 57.945312 C 72.425781 52.699219 77.066406 48.210938 82.621094 47.980469 C 86.804688 47.753906 90.378906 50.71875 92.355469 53.609375 C 92.660156 53.992188 93.117188 54.296875 93.574219 54.296875 C 94.03125 54.296875 94.5625 54.066406 94.792969 53.609375 C 96.769531 50.796875 100.34375 47.832031 104.527344 47.980469 C 110.082031 48.285156 114.722656 52.773438 114.875 57.945312 C 114.949219 59.542969 114.570312 61.140625 113.882812 62.585938 Z M 112.285156 64.71875 "/><g style="fill:#ffffff;fill-opacity:1;"><g transform="translate(40.515009, 130.229175)"><path style="stroke:none" d="M 8.46875 0.359375 C 7.0625 0.359375 5.800781 0.0390625 4.6875 -0.59375 C 3.570312 -1.238281 2.695312 -2.125 2.0625 -3.25 C 1.425781 -4.375 1.109375 -5.644531 1.109375 -7.0625 C 1.109375 -8.46875 1.425781 -9.734375 2.0625 -10.859375 C 2.707031 -11.992188 3.59375 -12.878906 4.71875 -13.515625 C 5.84375 -14.148438 7.09375 -14.46875 8.46875 -14.46875 C 9.507812 -14.46875 10.484375 -14.265625 11.390625 -13.859375 C 12.304688 -13.460938 13.007812 -12.921875 13.5 -12.234375 L 12.296875 -11.359375 C 12.085938 -11.679688 11.796875 -11.984375 11.421875 -12.265625 C 11.046875 -12.554688 10.601562 -12.785156 10.09375 -12.953125 C 9.59375 -13.128906 9.0625 -13.21875 8.5 -13.21875 C 7.3125 -13.21875 6.273438 -12.9375 5.390625 -12.375 C 4.503906 -11.820312 3.820312 -11.070312 3.34375 -10.125 C 2.863281 -9.1875 2.625 -8.164062 2.625 -7.0625 C 2.625 -5.957031 2.863281 -4.929688 3.34375 -3.984375 C 3.820312 -3.046875 4.503906 -2.296875 5.390625 -1.734375 C 6.285156 -1.171875 7.320312 -0.890625 8.5 -0.890625 C 9.34375 -0.890625 10.125 -1.0625 10.84375 -1.40625 C 11.570312 -1.757812 12.171875 -2.285156 12.640625 -2.984375 L 13.75 -2.265625 C 13.25 -1.492188 12.539062 -0.863281 11.625 -0.375 C 10.71875 0.113281 9.664062 0.359375 8.46875 0.359375 Z M 8.46875 0.359375 "/></g></g><g style="fill:#ffffff;fill-opacity:1;"><g transform="translate(54.871046, 130.229175)"><path style="stroke:none" d="M 6.078125 0.234375 C 5.140625 0.234375 4.289062 0.0234375 3.53125 -0.390625 C 2.769531 -0.816406 2.175781 -1.398438 1.75 -2.140625 C 1.320312 -2.890625 1.109375 -3.734375 1.109375 -4.671875 C 1.109375 -5.597656 1.320312 -6.429688 1.75 -7.171875 C 2.175781 -7.921875 2.769531 -8.503906 3.53125 -8.921875 C 4.289062 -9.347656 5.140625 -9.5625 6.078125 -9.5625 C 7.035156 -9.5625 7.894531 -9.347656 8.65625 -8.921875 C 9.414062 -8.503906 10.003906 -7.921875 10.421875 -7.171875 C 10.847656 -6.429688 11.0625 -5.597656 11.0625 -4.671875 C 11.0625 -3.734375 10.847656 -2.890625 10.421875 -2.140625 C 10.003906 -1.398438 9.414062 -0.816406 8.65625 -0.390625 C 7.894531 0.0234375 7.035156 0.234375 6.078125 0.234375 Z M 6.078125 -0.921875 C 6.785156 -0.921875 7.40625 -1.082031 7.9375 -1.40625 C 8.476562 -1.738281 8.894531 -2.1875 9.1875 -2.75 C 9.476562 -3.320312 9.625 -3.960938 9.625 -4.671875 C 9.625 -5.367188 9.476562 -6.003906 9.1875 -6.578125 C 8.894531 -7.148438 8.476562 -7.601562 7.9375 -7.9375 C 7.40625 -8.269531 6.785156 -8.4375 6.078125 -8.4375 C 5.378906 -8.4375 4.757812 -8.269531 4.21875 -7.9375 C 3.6875 -7.601562 3.273438 -7.148438 2.984375 -6.578125 C 2.691406 -6.003906 2.546875 -5.367188 2.546875 -4.671875 C 2.546875 -3.960938 2.691406 -3.320312 2.984375 -2.75 C 3.273438 -2.1875 3.6875 -1.738281 4.21875 -1.40625 C 4.757812 -1.082031 5.378906 -0.921875 6.078125 -0.921875 Z M 6.078125 -0.921875 "/></g></g><g style="fill:#ffffff;fill-opacity:1;"><g transform="translate(67.053741, 130.229175)"><path style="stroke:none" d="M 12.34375 -9.5625 C 13.5 -9.5625 14.378906 -9.21875 14.984375 -8.53125 C 15.585938 -7.84375 15.890625 -6.90625 15.890625 -5.71875 L 15.890625 0 L 14.53125 0 L 14.53125 -5.15625 C 14.53125 -6.195312 14.335938 -7.003906 13.953125 -7.578125 C 13.566406 -8.148438 12.957031 -8.4375 12.125 -8.4375 C 11.5 -8.4375 10.988281 -8.269531 10.59375 -7.9375 C 10.207031 -7.613281 9.921875 -7.191406 9.734375 -6.671875 C 9.554688 -6.160156 9.46875 -5.59375 9.46875 -4.96875 L 9.46875 0 L 8.109375 0 L 8.109375 -5.4375 C 8.109375 -6.09375 8.046875 -6.632812 7.921875 -7.0625 C 7.796875 -7.5 7.566406 -7.835938 7.234375 -8.078125 C 6.898438 -8.316406 6.441406 -8.4375 5.859375 -8.4375 C 5.410156 -8.4375 4.972656 -8.296875 4.546875 -8.015625 C 4.128906 -7.742188 3.789062 -7.332031 3.53125 -6.78125 C 3.28125 -6.238281 3.15625 -5.570312 3.15625 -4.78125 L 3.15625 0 L 1.796875 0 L 1.796875 -7.28125 C 1.796875 -8.09375 1.769531 -8.78125 1.71875 -9.34375 L 3.015625 -9.34375 C 3.066406 -8.6875 3.09375 -8.148438 3.09375 -7.734375 L 3.125 -7.734375 C 3.40625 -8.273438 3.820312 -8.710938 4.375 -9.046875 C 4.925781 -9.390625 5.535156 -9.5625 6.203125 -9.5625 C 6.796875 -9.5625 7.351562 -9.410156 7.875 -9.109375 C 8.394531 -8.816406 8.796875 -8.3125 9.078125 -7.59375 C 9.390625 -8.25 9.820312 -8.738281 10.375 -9.0625 C 10.9375 -9.394531 11.59375 -9.5625 12.34375 -9.5625 Z M 12.34375 -9.5625 "/></g></g><g style="fill:#ffffff;fill-opacity:1;"><g transform="translate(84.659828, 130.229175)"><path style="stroke:none" d="M 12.34375 -9.5625 C 13.5 -9.5625 14.378906 -9.21875 14.984375 -8.53125 C 15.585938 -7.84375 15.890625 -6.90625 15.890625 -5.71875 L 15.890625 0 L 14.53125 0 L 14.53125 -5.15625 C 14.53125 -6.195312 14.335938 -7.003906 13.953125 -7.578125 C 13.566406 -8.148438 12.957031 -8.4375 12.125 -8.4375 C 11.5 -8.4375 10.988281 -8.269531 10.59375 -7.9375 C 10.207031 -7.613281 9.921875 -7.191406 9.734375 -6.671875 C 9.554688 -6.160156 9.46875 -5.59375 9.46875 -4.96875 L 9.46875 0 L 8.109375 0 L 8.109375 -5.4375 C 8.109375 -6.09375 8.046875 -6.632812 7.921875 -7.0625 C 7.796875 -7.5 7.566406 -7.835938 7.234375 -8.078125 C 6.898438 -8.316406 6.441406 -8.4375 5.859375 -8.4375 C 5.410156 -8.4375 4.972656 -8.296875 4.546875 -8.015625 C 4.128906 -7.742188 3.789062 -7.332031 3.53125 -6.78125 C 3.28125 -6.238281 3.15625 -5.570312 3.15625 -4.78125 L 3.15625 0 L 1.796875 0 L 1.796875 -7.28125 C 1.796875 -8.09375 1.769531 -8.78125 1.71875 -9.34375 L 3.015625 -9.34375 C 3.066406 -8.6875 3.09375 -8.148438 3.09375 -7.734375 L 3.125 -7.734375 C 3.40625 -8.273438 3.820312 -8.710938 4.375 -9.046875 C 4.925781 -9.390625 5.535156 -9.5625 6.203125 -9.5625 C 6.796875 -9.5625 7.351562 -9.410156 7.875 -9.109375 C 8.394531 -8.816406 8.796875 -8.3125 9.078125 -7.59375 C 9.390625 -8.25 9.820312 -8.738281 10.375 -9.0625 C 10.9375 -9.394531 11.59375 -9.5625 12.34375 -9.5625 Z M 12.34375 -9.5625 "/></g></g><g style="fill:#ffffff;fill-opacity:1;"><g transform="translate(102.265915, 130.229175)"><path style="stroke:none" d="M 5.265625 0.234375 C 4.109375 0.234375 3.226562 -0.109375 2.625 -0.796875 C 2.019531 -1.484375 1.71875 -2.421875 1.71875 -3.609375 L 1.71875 -9.34375 L 3.078125 -9.34375 L 3.078125 -4.171875 C 3.078125 -3.117188 3.265625 -2.304688 3.640625 -1.734375 C 4.015625 -1.171875 4.671875 -0.890625 5.609375 -0.890625 C 6.109375 -0.890625 6.570312 -1.023438 7 -1.296875 C 7.425781 -1.578125 7.769531 -1.988281 8.03125 -2.53125 C 8.300781 -3.070312 8.4375 -3.742188 8.4375 -4.546875 L 8.4375 -9.34375 L 9.796875 -9.34375 L 9.796875 -2.046875 C 9.796875 -1.253906 9.820312 -0.570312 9.875 0 L 8.578125 0 C 8.523438 -0.664062 8.5 -1.195312 8.5 -1.59375 L 8.453125 -1.59375 C 8.273438 -1.238281 8.019531 -0.921875 7.6875 -0.640625 C 7.363281 -0.367188 6.988281 -0.15625 6.5625 0 C 6.132812 0.15625 5.703125 0.234375 5.265625 0.234375 Z M 5.265625 0.234375 "/></g></g><g style="fill:#ffffff;fill-opacity:1;"><g transform="translate(113.850444, 130.229175)"><path style="stroke:none" d="M 1.796875 -7.28125 C 1.796875 -8.09375 1.769531 -8.78125 1.71875 -9.34375 L 3.015625 -9.34375 C 3.066406 -8.6875 3.09375 -8.148438 3.09375 -7.734375 L 3.125 -7.734375 C 3.300781 -8.097656 3.554688 -8.414062 3.890625 -8.6875 C 4.222656 -8.957031 4.597656 -9.171875 5.015625 -9.328125 C 5.441406 -9.484375 5.875 -9.5625 6.3125 -9.5625 C 7.476562 -9.5625 8.363281 -9.21875 8.96875 -8.53125 C 9.570312 -7.84375 9.875 -6.90625 9.875 -5.71875 L 9.875 0 L 8.515625 0 L 8.515625 -5.15625 C 8.515625 -6.207031 8.320312 -7.015625 7.9375 -7.578125 C 7.5625 -8.148438 6.910156 -8.4375 5.984375 -8.4375 C 5.472656 -8.4375 5.003906 -8.296875 4.578125 -8.015625 C 4.160156 -7.742188 3.816406 -7.335938 3.546875 -6.796875 C 3.285156 -6.253906 3.15625 -5.582031 3.15625 -4.78125 L 3.15625 0 L 1.796875 0 Z M 1.796875 -7.28125 "/></g></g><g style="fill:#ffffff;fill-opacity:1;"><g transform="translate(125.434972, 130.229175)"><path style="stroke:none" d="M 2.5 -11.96875 C 2.238281 -11.96875 2.007812 -12.054688 1.8125 -12.234375 C 1.625 -12.421875 1.53125 -12.648438 1.53125 -12.921875 C 1.53125 -13.179688 1.625 -13.40625 1.8125 -13.59375 C 2.007812 -13.78125 2.238281 -13.875 2.5 -13.875 C 2.75 -13.875 2.96875 -13.78125 3.15625 -13.59375 C 3.351562 -13.40625 3.453125 -13.179688 3.453125 -12.921875 C 3.453125 -12.648438 3.351562 -12.421875 3.15625 -12.234375 C 2.96875 -12.054688 2.75 -11.96875 2.5 -11.96875 Z M 3.171875 0 L 1.8125 0 L 1.8125 -9.34375 L 3.171875 -9.34375 Z M 3.171875 0 "/></g></g><g style="fill:#ffffff;fill-opacity:1;"><g transform="translate(130.419703, 130.229175)"><path style="stroke:none" d="M 4.40625 0.125 C 3.769531 0.125 3.210938 -0.0625 2.734375 -0.4375 C 2.253906 -0.8125 2.015625 -1.457031 2.015625 -2.375 L 2.015625 -8.21875 L 0.078125 -8.21875 L 0.078125 -9.34375 L 2.015625 -9.34375 L 2.015625 -11.96875 L 3.375 -11.96875 L 3.375 -9.34375 L 6 -9.34375 L 6 -8.21875 L 3.375 -8.21875 L 3.375 -2.75 C 3.375 -2.101562 3.492188 -1.65625 3.734375 -1.40625 C 3.972656 -1.15625 4.316406 -1.03125 4.765625 -1.03125 C 4.953125 -1.03125 5.144531 -1.054688 5.34375 -1.109375 C 5.550781 -1.171875 5.75 -1.242188 5.9375 -1.328125 L 6 -0.15625 C 5.507812 0.03125 4.976562 0.125 4.40625 0.125 Z M 4.40625 0.125 "/></g></g><g style="fill:#ffffff;fill-opacity:1;"><g transform="translate(136.740345, 130.229175)"><path style="stroke:none" d="M 1.828125 4.78125 C 1.421875 4.78125 1.019531 4.742188 0.625 4.671875 L 0.75 3.421875 C 1.070312 3.535156 1.40625 3.59375 1.75 3.59375 C 2.1875 3.59375 2.539062 3.453125 2.8125 3.171875 C 3.09375 2.898438 3.335938 2.488281 3.546875 1.9375 L 4.3125 -0.015625 L 0.3125 -9.34375 L 1.828125 -9.34375 L 5 -1.453125 L 5.046875 -1.453125 L 7.9375 -9.34375 L 9.40625 -9.34375 L 4.765625 2.40625 C 4.460938 3.195312 4.085938 3.789062 3.640625 4.1875 C 3.191406 4.582031 2.585938 4.78125 1.828125 4.78125 Z M 1.828125 4.78125 "/></g></g><g style="fill:#ffffff;fill-opacity:1;"><g transform="translate(28.184608, 150.285417)"><path style="stroke:none" d="M 1.125 0 L 1.125 -8.46875 L 3.65625 -8.46875 C 4.132812 -8.46875 4.578125 -8.398438 4.984375 -8.265625 C 5.390625 -8.140625 5.722656 -7.914062 5.984375 -7.59375 C 6.242188 -7.269531 6.375 -6.84375 6.375 -6.3125 C 6.375 -6.007812 6.3125 -5.734375 6.1875 -5.484375 C 6.070312 -5.234375 5.898438 -5.019531 5.671875 -4.84375 C 5.441406 -4.664062 5.179688 -4.546875 4.890625 -4.484375 L 4.890625 -4.46875 C 5.253906 -4.425781 5.582031 -4.3125 5.875 -4.125 C 6.164062 -3.945312 6.390625 -3.703125 6.546875 -3.390625 C 6.710938 -3.085938 6.796875 -2.738281 6.796875 -2.34375 C 6.796875 -1.875 6.664062 -1.460938 6.40625 -1.109375 C 6.15625 -0.765625 5.789062 -0.492188 5.3125 -0.296875 C 4.832031 -0.0976562 4.273438 0 3.640625 0 Z M 3.71875 -4.765625 C 4.019531 -4.765625 4.304688 -4.8125 4.578125 -4.90625 C 4.847656 -5 5.070312 -5.15625 5.25 -5.375 C 5.425781 -5.601562 5.515625 -5.894531 5.515625 -6.25 C 5.515625 -6.757812 5.328125 -7.132812 4.953125 -7.375 C 4.578125 -7.613281 4.085938 -7.734375 3.484375 -7.734375 L 1.984375 -7.734375 L 1.984375 -4.765625 Z M 3.59375 -0.734375 C 4.03125 -0.734375 4.421875 -0.789062 4.765625 -0.90625 C 5.117188 -1.03125 5.398438 -1.210938 5.609375 -1.453125 C 5.816406 -1.703125 5.921875 -2.015625 5.921875 -2.390625 C 5.921875 -2.941406 5.734375 -3.359375 5.359375 -3.640625 C 4.984375 -3.921875 4.445312 -4.0625 3.75 -4.0625 L 1.984375 -4.0625 L 1.984375 -0.734375 Z M 3.59375 -0.734375 "/></g></g><g style="fill:#ffffff;fill-opacity:1;"><g transform="translate(35.796329, 150.285417)"><path style="stroke:none" d="M 3.5625 0.140625 C 3.007812 0.140625 2.515625 0.015625 2.078125 -0.234375 C 1.640625 -0.492188 1.296875 -0.847656 1.046875 -1.296875 C 0.796875 -1.742188 0.671875 -2.242188 0.671875 -2.796875 C 0.671875 -3.347656 0.789062 -3.847656 1.03125 -4.296875 C 1.28125 -4.753906 1.617188 -5.109375 2.046875 -5.359375 C 2.484375 -5.617188 2.96875 -5.75 3.5 -5.75 C 4.0625 -5.75 4.539062 -5.625 4.9375 -5.375 C 5.34375 -5.132812 5.648438 -4.800781 5.859375 -4.375 C 6.066406 -3.957031 6.171875 -3.488281 6.171875 -2.96875 C 6.171875 -2.8125 6.164062 -2.679688 6.15625 -2.578125 L 1.515625 -2.578125 C 1.523438 -2.203125 1.617188 -1.859375 1.796875 -1.546875 C 1.984375 -1.242188 2.226562 -1 2.53125 -0.8125 C 2.84375 -0.632812 3.1875 -0.546875 3.5625 -0.546875 C 3.957031 -0.546875 4.3125 -0.640625 4.625 -0.828125 C 4.945312 -1.015625 5.191406 -1.242188 5.359375 -1.515625 L 5.96875 -1.046875 C 5.34375 -0.253906 4.539062 0.140625 3.5625 0.140625 Z M 5.34375 -3.234375 C 5.332031 -3.585938 5.253906 -3.898438 5.109375 -4.171875 C 4.960938 -4.453125 4.75 -4.671875 4.46875 -4.828125 C 4.195312 -4.984375 3.875 -5.0625 3.5 -5.0625 C 3.144531 -5.0625 2.820312 -4.976562 2.53125 -4.8125 C 2.238281 -4.644531 2.003906 -4.414062 1.828125 -4.125 C 1.648438 -3.84375 1.550781 -3.546875 1.53125 -3.234375 Z M 5.34375 -3.234375 "/></g></g><g style="fill:#ffffff;fill-opacity:1;"><g transform="translate(42.64209, 150.285417)"><path style="stroke:none" d="M 1.921875 0 L 1.09375 0 L 1.09375 -9.046875 L 1.921875 -9.046875 Z M 1.921875 0 "/></g></g><g style="fill:#ffffff;fill-opacity:1;"><g transform="translate(45.658057, 150.285417)"><path style="stroke:none" d="M 3.65625 0.140625 C 3.082031 0.140625 2.566406 0.015625 2.109375 -0.234375 C 1.660156 -0.492188 1.304688 -0.847656 1.046875 -1.296875 C 0.796875 -1.742188 0.671875 -2.242188 0.671875 -2.796875 C 0.671875 -3.359375 0.796875 -3.863281 1.046875 -4.3125 C 1.304688 -4.757812 1.660156 -5.109375 2.109375 -5.359375 C 2.566406 -5.617188 3.082031 -5.75 3.65625 -5.75 C 4.226562 -5.75 4.738281 -5.617188 5.1875 -5.359375 C 5.644531 -5.109375 6 -4.757812 6.25 -4.3125 C 6.507812 -3.863281 6.640625 -3.359375 6.640625 -2.796875 C 6.640625 -2.242188 6.507812 -1.742188 6.25 -1.296875 C 6 -0.847656 5.644531 -0.492188 5.1875 -0.234375 C 4.738281 0.015625 4.226562 0.140625 3.65625 0.140625 Z M 3.65625 -0.546875 C 4.070312 -0.546875 4.441406 -0.644531 4.765625 -0.84375 C 5.085938 -1.050781 5.335938 -1.320312 5.515625 -1.65625 C 5.691406 -2 5.78125 -2.378906 5.78125 -2.796875 C 5.78125 -3.222656 5.691406 -3.609375 5.515625 -3.953125 C 5.335938 -4.296875 5.085938 -4.566406 4.765625 -4.765625 C 4.441406 -4.960938 4.070312 -5.0625 3.65625 -5.0625 C 3.226562 -5.0625 2.851562 -4.960938 2.53125 -4.765625 C 2.21875 -4.566406 1.972656 -4.296875 1.796875 -3.953125 C 1.617188 -3.609375 1.53125 -3.222656 1.53125 -2.796875 C 1.53125 -2.378906 1.617188 -2 1.796875 -1.65625 C 1.972656 -1.320312 2.21875 -1.050781 2.53125 -0.84375 C 2.851562 -0.644531 3.226562 -0.546875 3.65625 -0.546875 Z M 3.65625 -0.546875 "/></g></g><g style="fill:#ffffff;fill-opacity:1;"><g transform="translate(52.970569, 150.285417)"><path style="stroke:none" d="M 1.078125 -4.375 C 1.078125 -4.851562 1.0625 -5.265625 1.03125 -5.609375 L 1.8125 -5.609375 C 1.84375 -5.210938 1.859375 -4.890625 1.859375 -4.640625 L 1.875 -4.640625 C 1.976562 -4.859375 2.128906 -5.046875 2.328125 -5.203125 C 2.535156 -5.367188 2.765625 -5.5 3.015625 -5.59375 C 3.273438 -5.695312 3.535156 -5.75 3.796875 -5.75 C 4.484375 -5.75 5.007812 -5.539062 5.375 -5.125 C 5.738281 -4.707031 5.921875 -4.144531 5.921875 -3.4375 L 5.921875 0 L 5.109375 0 L 5.109375 -3.09375 C 5.109375 -3.726562 4.992188 -4.210938 4.765625 -4.546875 C 4.535156 -4.890625 4.144531 -5.0625 3.59375 -5.0625 C 3.289062 -5.0625 3.007812 -4.976562 2.75 -4.8125 C 2.5 -4.65625 2.289062 -4.410156 2.125 -4.078125 C 1.96875 -3.753906 1.890625 -3.351562 1.890625 -2.875 L 1.890625 0 L 1.078125 0 Z M 1.078125 -4.375 "/></g></g><g style="fill:#ffffff;fill-opacity:1;"><g transform="translate(59.924041, 150.285417)"><path style="stroke:none" d="M 3.484375 2.875 C 2.972656 2.875 2.476562 2.773438 2 2.578125 C 1.53125 2.378906 1.128906 2.101562 0.796875 1.75 L 1.375 1.125 C 1.601562 1.414062 1.910156 1.660156 2.296875 1.859375 C 2.691406 2.054688 3.097656 2.15625 3.515625 2.15625 C 4.273438 2.15625 4.828125 1.953125 5.171875 1.546875 C 5.523438 1.140625 5.703125 0.609375 5.703125 -0.046875 L 5.703125 -1.09375 L 5.6875 -1.09375 C 5.476562 -0.757812 5.175781 -0.492188 4.78125 -0.296875 C 4.382812 -0.0976562 3.976562 0 3.5625 0 C 2.988281 0 2.484375 -0.117188 2.046875 -0.359375 C 1.609375 -0.609375 1.269531 -0.945312 1.03125 -1.375 C 0.789062 -1.8125 0.671875 -2.300781 0.671875 -2.84375 C 0.671875 -3.382812 0.789062 -3.875 1.03125 -4.3125 C 1.28125 -4.75 1.625 -5.097656 2.0625 -5.359375 C 2.5 -5.617188 3 -5.75 3.5625 -5.75 C 3.988281 -5.75 4.394531 -5.648438 4.78125 -5.453125 C 5.164062 -5.253906 5.46875 -4.976562 5.6875 -4.625 L 5.703125 -4.625 L 5.703125 -5.609375 L 6.515625 -5.609375 L 6.515625 -0.046875 C 6.515625 0.429688 6.425781 0.882812 6.25 1.3125 C 6.082031 1.75 5.769531 2.117188 5.3125 2.421875 C 4.851562 2.722656 4.242188 2.875 3.484375 2.875 Z M 3.65625 -0.6875 C 4.0625 -0.6875 4.425781 -0.78125 4.75 -0.96875 C 5.082031 -1.15625 5.34375 -1.410156 5.53125 -1.734375 C 5.71875 -2.066406 5.8125 -2.445312 5.8125 -2.875 C 5.8125 -3.257812 5.71875 -3.617188 5.53125 -3.953125 C 5.34375 -4.296875 5.082031 -4.566406 4.75 -4.765625 C 4.425781 -4.960938 4.0625 -5.0625 3.65625 -5.0625 C 3.21875 -5.0625 2.835938 -4.960938 2.515625 -4.765625 C 2.191406 -4.566406 1.945312 -4.300781 1.78125 -3.96875 C 1.613281 -3.632812 1.53125 -3.269531 1.53125 -2.875 C 1.53125 -2.476562 1.613281 -2.113281 1.78125 -1.78125 C 1.945312 -1.445312 2.191406 -1.179688 2.515625 -0.984375 C 2.835938 -0.785156 3.21875 -0.6875 3.65625 -0.6875 Z M 3.65625 -0.6875 "/></g></g><g style="fill:#ffffff;fill-opacity:1;"><g transform="translate(67.487881, 150.285417)"><path style="stroke:none" d=""/></g></g><g style="fill:#ffffff;fill-opacity:1;"><g transform="translate(70.479913, 150.285417)"><path style="stroke:none" d="M 2.640625 0.078125 C 2.265625 0.078125 1.929688 -0.03125 1.640625 -0.25 C 1.347656 -0.476562 1.203125 -0.867188 1.203125 -1.421875 L 1.203125 -4.9375 L 0.046875 -4.9375 L 0.046875 -5.609375 L 1.203125 -5.609375 L 1.203125 -7.1875 L 2.015625 -7.1875 L 2.015625 -5.609375 L 3.609375 -5.609375 L 3.609375 -4.9375 L 2.015625 -4.9375 L 2.015625 -1.65625 C 2.015625 -1.257812 2.085938 -0.988281 2.234375 -0.84375 C 2.378906 -0.695312 2.585938 -0.625 2.859375 -0.625 C 2.972656 -0.625 3.09375 -0.640625 3.21875 -0.671875 C 3.34375 -0.703125 3.457031 -0.742188 3.5625 -0.796875 L 3.609375 -0.09375 C 3.304688 0.0195312 2.984375 0.078125 2.640625 0.078125 Z M 2.640625 0.078125 "/></g></g><g style="fill:#ffffff;fill-opacity:1;"><g transform="translate(74.273801, 150.285417)"><path style="stroke:none" d="M 3.65625 0.140625 C 3.082031 0.140625 2.566406 0.015625 2.109375 -0.234375 C 1.660156 -0.492188 1.304688 -0.847656 1.046875 -1.296875 C 0.796875 -1.742188 0.671875 -2.242188 0.671875 -2.796875 C 0.671875 -3.359375 0.796875 -3.863281 1.046875 -4.3125 C 1.304688 -4.757812 1.660156 -5.109375 2.109375 -5.359375 C 2.566406 -5.617188 3.082031 -5.75 3.65625 -5.75 C 4.226562 -5.75 4.738281 -5.617188 5.1875 -5.359375 C 5.644531 -5.109375 6 -4.757812 6.25 -4.3125 C 6.507812 -3.863281 6.640625 -3.359375 6.640625 -2.796875 C 6.640625 -2.242188 6.507812 -1.742188 6.25 -1.296875 C 6 -0.847656 5.644531 -0.492188 5.1875 -0.234375 C 4.738281 0.015625 4.226562 0.140625 3.65625 0.140625 Z M 3.65625 -0.546875 C 4.070312 -0.546875 4.441406 -0.644531 4.765625 -0.84375 C 5.085938 -1.050781 5.335938 -1.320312 5.515625 -1.65625 C 5.691406 -2 5.78125 -2.378906 5.78125 -2.796875 C 5.78125 -3.222656 5.691406 -3.609375 5.515625 -3.953125 C 5.335938 -4.296875 5.085938 -4.566406 4.765625 -4.765625 C 4.441406 -4.960938 4.070312 -5.0625 3.65625 -5.0625 C 3.226562 -5.0625 2.851562 -4.960938 2.53125 -4.765625 C 2.21875 -4.566406 1.972656 -4.296875 1.796875 -3.953125 C 1.617188 -3.609375 1.53125 -3.222656 1.53125 -2.796875 C 1.53125 -2.378906 1.617188 -2 1.796875 -1.65625 C 1.972656 -1.320312 2.21875 -1.050781 2.53125 -0.84375 C 2.851562 -0.644531 3.226562 -0.546875 3.65625 -0.546875 Z M 3.65625 -0.546875 "/></g></g><g style="fill:#ffffff;fill-opacity:1;"><g transform="translate(81.586312, 150.285417)"><path style="stroke:none" d=""/></g></g><g style="fill:#ffffff;fill-opacity:1;"><g transform="translate(84.578345, 150.285417)"><path style="stroke:none" d="M 2.59375 0.140625 C 2.28125 0.140625 1.976562 0.0820312 1.6875 -0.03125 C 1.394531 -0.144531 1.148438 -0.328125 0.953125 -0.578125 C 0.753906 -0.835938 0.65625 -1.164062 0.65625 -1.5625 C 0.65625 -2.09375 0.828125 -2.492188 1.171875 -2.765625 C 1.523438 -3.046875 1.972656 -3.226562 2.515625 -3.3125 C 3.066406 -3.394531 3.75 -3.4375 4.5625 -3.4375 L 4.609375 -3.4375 L 4.609375 -3.609375 C 4.609375 -4.085938 4.476562 -4.445312 4.21875 -4.6875 C 3.96875 -4.9375 3.597656 -5.0625 3.109375 -5.0625 C 2.796875 -5.0625 2.488281 -5 2.1875 -4.875 C 1.894531 -4.757812 1.648438 -4.601562 1.453125 -4.40625 L 1 -4.9375 C 1.238281 -5.175781 1.546875 -5.367188 1.921875 -5.515625 C 2.304688 -5.671875 2.734375 -5.75 3.203125 -5.75 C 3.609375 -5.75 3.972656 -5.671875 4.296875 -5.515625 C 4.628906 -5.367188 4.890625 -5.140625 5.078125 -4.828125 C 5.273438 -4.523438 5.375 -4.148438 5.375 -3.703125 L 5.375 -1.25 C 5.375 -1.03125 5.378906 -0.804688 5.390625 -0.578125 C 5.410156 -0.347656 5.4375 -0.15625 5.46875 0 L 4.734375 0 C 4.679688 -0.320312 4.65625 -0.625 4.65625 -0.90625 L 4.625 -0.90625 C 4.375 -0.539062 4.085938 -0.273438 3.765625 -0.109375 C 3.441406 0.0546875 3.050781 0.140625 2.59375 0.140625 Z M 2.8125 -0.53125 C 3.175781 -0.53125 3.492188 -0.613281 3.765625 -0.78125 C 4.035156 -0.945312 4.242188 -1.171875 4.390625 -1.453125 C 4.535156 -1.734375 4.609375 -2.039062 4.609375 -2.375 L 4.609375 -2.796875 L 4.375 -2.796875 C 3.519531 -2.796875 2.828125 -2.710938 2.296875 -2.546875 C 1.765625 -2.390625 1.5 -2.070312 1.5 -1.59375 C 1.5 -1.226562 1.625 -0.957031 1.875 -0.78125 C 2.132812 -0.613281 2.445312 -0.53125 2.8125 -0.53125 Z M 2.8125 -0.53125 "/></g></g><g style="fill:#ffffff;fill-opacity:1;"><g transform="translate(90.969318, 150.285417)"><path style="stroke:none" d=""/></g></g><g style="fill:#ffffff;fill-opacity:1;"><g transform="translate(93.96135, 150.285417)"><path style="stroke:none" d="M 3.375 0 L 2.484375 0 L 0.1875 -5.609375 L 1.09375 -5.609375 L 2.921875 -0.859375 L 2.9375 -0.859375 L 4.78125 -5.609375 L 5.65625 -5.609375 Z M 3.375 0 "/></g></g><g style="fill:#ffffff;fill-opacity:1;"><g transform="translate(99.801786, 150.285417)"><path style="stroke:none" d="M 1.5 -7.1875 C 1.34375 -7.1875 1.207031 -7.238281 1.09375 -7.34375 C 0.976562 -7.457031 0.921875 -7.59375 0.921875 -7.75 C 0.921875 -7.914062 0.976562 -8.050781 1.09375 -8.15625 C 1.207031 -8.269531 1.34375 -8.328125 1.5 -8.328125 C 1.644531 -8.328125 1.773438 -8.269531 1.890625 -8.15625 C 2.015625 -8.050781 2.078125 -7.914062 2.078125 -7.75 C 2.078125 -7.59375 2.015625 -7.457031 1.890625 -7.34375 C 1.773438 -7.238281 1.644531 -7.1875 1.5 -7.1875 Z M 1.90625 0 L 1.09375 0 L 1.09375 -5.609375 L 1.90625 -5.609375 Z M 1.90625 0 "/></g></g><g style="fill:#ffffff;fill-opacity:1;"><g transform="translate(102.793818, 150.285417)"><path style="stroke:none" d="M 4.0625 0.140625 C 3.644531 0.140625 3.242188 0.046875 2.859375 -0.140625 C 2.472656 -0.335938 2.164062 -0.609375 1.9375 -0.953125 L 1.921875 -0.953125 L 1.921875 0 L 1.09375 0 L 1.09375 -9.046875 L 1.921875 -9.046875 L 1.921875 -4.625 L 1.9375 -4.625 C 2.164062 -4.976562 2.472656 -5.253906 2.859375 -5.453125 C 3.242188 -5.648438 3.644531 -5.75 4.0625 -5.75 C 4.625 -5.75 5.125 -5.617188 5.5625 -5.359375 C 6.007812 -5.097656 6.351562 -4.742188 6.59375 -4.296875 C 6.832031 -3.847656 6.953125 -3.347656 6.953125 -2.796875 C 6.953125 -2.242188 6.832031 -1.742188 6.59375 -1.296875 C 6.351562 -0.859375 6.007812 -0.507812 5.5625 -0.25 C 5.125 0.0078125 4.625 0.140625 4.0625 0.140625 Z M 3.96875 -0.546875 C 4.40625 -0.546875 4.785156 -0.644531 5.109375 -0.84375 C 5.429688 -1.050781 5.675781 -1.320312 5.84375 -1.65625 C 6.007812 -2 6.09375 -2.378906 6.09375 -2.796875 C 6.09375 -3.222656 6.007812 -3.609375 5.84375 -3.953125 C 5.675781 -4.296875 5.429688 -4.566406 5.109375 -4.765625 C 4.785156 -4.960938 4.40625 -5.0625 3.96875 -5.0625 C 3.550781 -5.0625 3.179688 -4.960938 2.859375 -4.765625 C 2.535156 -4.566406 2.28125 -4.296875 2.09375 -3.953125 C 1.90625 -3.609375 1.8125 -3.222656 1.8125 -2.796875 C 1.8125 -2.378906 1.90625 -2 2.09375 -1.65625 C 2.28125 -1.3125 2.535156 -1.039062 2.859375 -0.84375 C 3.179688 -0.644531 3.550781 -0.546875 3.96875 -0.546875 Z M 3.96875 -0.546875 "/></g></g><g style="fill:#ffffff;fill-opacity:1;"><g transform="translate(110.4175, 150.285417)"><path style="stroke:none" d="M 1.078125 -4.375 C 1.078125 -4.851562 1.0625 -5.265625 1.03125 -5.609375 L 1.8125 -5.609375 C 1.84375 -5.210938 1.859375 -4.890625 1.859375 -4.640625 L 1.875 -4.640625 C 2.039062 -4.972656 2.285156 -5.238281 2.609375 -5.4375 C 2.929688 -5.644531 3.285156 -5.75 3.671875 -5.75 C 3.890625 -5.75 4.070312 -5.726562 4.21875 -5.6875 L 4.109375 -4.921875 C 4.054688 -4.929688 3.972656 -4.941406 3.859375 -4.953125 C 3.742188 -4.972656 3.632812 -4.984375 3.53125 -4.984375 C 3.226562 -4.984375 2.953125 -4.90625 2.703125 -4.75 C 2.453125 -4.601562 2.253906 -4.375 2.109375 -4.0625 C 1.960938 -3.75 1.890625 -3.351562 1.890625 -2.875 L 1.890625 0 L 1.078125 0 Z M 1.078125 -4.375 "/></g></g><g style="fill:#ffffff;fill-opacity:1;"><g transform="translate(114.726018, 150.285417)"><path style="stroke:none" d="M 2.59375 0.140625 C 2.28125 0.140625 1.976562 0.0820312 1.6875 -0.03125 C 1.394531 -0.144531 1.148438 -0.328125 0.953125 -0.578125 C 0.753906 -0.835938 0.65625 -1.164062 0.65625 -1.5625 C 0.65625 -2.09375 0.828125 -2.492188 1.171875 -2.765625 C 1.523438 -3.046875 1.972656 -3.226562 2.515625 -3.3125 C 3.066406 -3.394531 3.75 -3.4375 4.5625 -3.4375 L 4.609375 -3.4375 L 4.609375 -3.609375 C 4.609375 -4.085938 4.476562 -4.445312 4.21875 -4.6875 C 3.96875 -4.9375 3.597656 -5.0625 3.109375 -5.0625 C 2.796875 -5.0625 2.488281 -5 2.1875 -4.875 C 1.894531 -4.757812 1.648438 -4.601562 1.453125 -4.40625 L 1 -4.9375 C 1.238281 -5.175781 1.546875 -5.367188 1.921875 -5.515625 C 2.304688 -5.671875 2.734375 -5.75 3.203125 -5.75 C 3.609375 -5.75 3.972656 -5.671875 4.296875 -5.515625 C 4.628906 -5.367188 4.890625 -5.140625 5.078125 -4.828125 C 5.273438 -4.523438 5.375 -4.148438 5.375 -3.703125 L 5.375 -1.25 C 5.375 -1.03125 5.378906 -0.804688 5.390625 -0.578125 C 5.410156 -0.347656 5.4375 -0.15625 5.46875 0 L 4.734375 0 C 4.679688 -0.320312 4.65625 -0.625 4.65625 -0.90625 L 4.625 -0.90625 C 4.375 -0.539062 4.085938 -0.273438 3.765625 -0.109375 C 3.441406 0.0546875 3.050781 0.140625 2.59375 0.140625 Z M 2.8125 -0.53125 C 3.175781 -0.53125 3.492188 -0.613281 3.765625 -0.78125 C 4.035156 -0.945312 4.242188 -1.171875 4.390625 -1.453125 C 4.535156 -1.734375 4.609375 -2.039062 4.609375 -2.375 L 4.609375 -2.796875 L 4.375 -2.796875 C 3.519531 -2.796875 2.828125 -2.710938 2.296875 -2.546875 C 1.765625 -2.390625 1.5 -2.070312 1.5 -1.59375 C 1.5 -1.226562 1.625 -0.957031 1.875 -0.78125 C 2.132812 -0.613281 2.445312 -0.53125 2.8125 -0.53125 Z M 2.8125 -0.53125 "/></g></g><g style="fill:#ffffff;fill-opacity:1;"><g transform="translate(121.116991, 150.285417)"><path style="stroke:none" d="M 1.078125 -4.375 C 1.078125 -4.851562 1.0625 -5.265625 1.03125 -5.609375 L 1.8125 -5.609375 C 1.84375 -5.210938 1.859375 -4.890625 1.859375 -4.640625 L 1.875 -4.640625 C 1.976562 -4.859375 2.128906 -5.046875 2.328125 -5.203125 C 2.535156 -5.367188 2.765625 -5.5 3.015625 -5.59375 C 3.273438 -5.695312 3.535156 -5.75 3.796875 -5.75 C 4.484375 -5.75 5.007812 -5.539062 5.375 -5.125 C 5.738281 -4.707031 5.921875 -4.144531 5.921875 -3.4375 L 5.921875 0 L 5.109375 0 L 5.109375 -3.09375 C 5.109375 -3.726562 4.992188 -4.210938 4.765625 -4.546875 C 4.535156 -4.890625 4.144531 -5.0625 3.59375 -5.0625 C 3.289062 -5.0625 3.007812 -4.976562 2.75 -4.8125 C 2.5 -4.65625 2.289062 -4.410156 2.125 -4.078125 C 1.96875 -3.753906 1.890625 -3.351562 1.890625 -2.875 L 1.890625 0 L 1.078125 0 Z M 1.078125 -4.375 "/></g></g><g style="fill:#ffffff;fill-opacity:1;"><g transform="translate(128.070463, 150.285417)"><path style="stroke:none" d="M 2.640625 0.078125 C 2.265625 0.078125 1.929688 -0.03125 1.640625 -0.25 C 1.347656 -0.476562 1.203125 -0.867188 1.203125 -1.421875 L 1.203125 -4.9375 L 0.046875 -4.9375 L 0.046875 -5.609375 L 1.203125 -5.609375 L 1.203125 -7.1875 L 2.015625 -7.1875 L 2.015625 -5.609375 L 3.609375 -5.609375 L 3.609375 -4.9375 L 2.015625 -4.9375 L 2.015625 -1.65625 C 2.015625 -1.257812 2.085938 -0.988281 2.234375 -0.84375 C 2.378906 -0.695312 2.585938 -0.625 2.859375 -0.625 C 2.972656 -0.625 3.09375 -0.640625 3.21875 -0.671875 C 3.34375 -0.703125 3.457031 -0.742188 3.5625 -0.796875 L 3.609375 -0.09375 C 3.304688 0.0195312 2.984375 0.078125 2.640625 0.078125 Z M 2.640625 0.078125 "/></g></g><g style="fill:#ffffff;fill-opacity:1;"><g transform="translate(131.86435, 150.285417)"><path style="stroke:none" d=""/></g></g><g style="fill:#ffffff;fill-opacity:1;"><g transform="translate(134.856383, 150.285417)"><path style="stroke:none" d="M 2.59375 0.140625 C 2.28125 0.140625 1.976562 0.0820312 1.6875 -0.03125 C 1.394531 -0.144531 1.148438 -0.328125 0.953125 -0.578125 C 0.753906 -0.835938 0.65625 -1.164062 0.65625 -1.5625 C 0.65625 -2.09375 0.828125 -2.492188 1.171875 -2.765625 C 1.523438 -3.046875 1.972656 -3.226562 2.515625 -3.3125 C 3.066406 -3.394531 3.75 -3.4375 4.5625 -3.4375 L 4.609375 -3.4375 L 4.609375 -3.609375 C 4.609375 -4.085938 4.476562 -4.445312 4.21875 -4.6875 C 3.96875 -4.9375 3.597656 -5.0625 3.109375 -5.0625 C 2.796875 -5.0625 2.488281 -5 2.1875 -4.875 C 1.894531 -4.757812 1.648438 -4.601562 1.453125 -4.40625 L 1 -4.9375 C 1.238281 -5.175781 1.546875 -5.367188 1.921875 -5.515625 C 2.304688 -5.671875 2.734375 -5.75 3.203125 -5.75 C 3.609375 -5.75 3.972656 -5.671875 4.296875 -5.515625 C 4.628906 -5.367188 4.890625 -5.140625 5.078125 -4.828125 C 5.273438 -4.523438 5.375 -4.148438 5.375 -3.703125 L 5.375 -1.25 C 5.375 -1.03125 5.378906 -0.804688 5.390625 -0.578125 C 5.410156 -0.347656 5.4375 -0.15625 5.46875 0 L 4.734375 0 C 4.679688 -0.320312 4.65625 -0.625 4.65625 -0.90625 L 4.625 -0.90625 C 4.375 -0.539062 4.085938 -0.273438 3.765625 -0.109375 C 3.441406 0.0546875 3.050781 0.140625 2.59375 0.140625 Z M 2.8125 -0.53125 C 3.175781 -0.53125 3.492188 -0.613281 3.765625 -0.78125 C 4.035156 -0.945312 4.242188 -1.171875 4.390625 -1.453125 C 4.535156 -1.734375 4.609375 -2.039062 4.609375 -2.375 L 4.609375 -2.796875 L 4.375 -2.796875 C 3.519531 -2.796875 2.828125 -2.710938 2.296875 -2.546875 C 1.765625 -2.390625 1.5 -2.070312 1.5 -1.59375 C 1.5 -1.226562 1.625 -0.957031 1.875 -0.78125 C 2.132812 -0.613281 2.445312 -0.53125 2.8125 -0.53125 Z M 2.8125 -0.53125 "/></g></g><g style="fill:#ffffff;fill-opacity:1;"><g transform="translate(141.247356, 150.285417)"><path style="stroke:none" d="M 1.078125 -4.375 C 1.078125 -4.851562 1.0625 -5.265625 1.03125 -5.609375 L 1.8125 -5.609375 C 1.84375 -5.210938 1.859375 -4.890625 1.859375 -4.640625 L 1.875 -4.640625 C 1.976562 -4.859375 2.128906 -5.046875 2.328125 -5.203125 C 2.535156 -5.367188 2.765625 -5.5 3.015625 -5.59375 C 3.273438 -5.695312 3.535156 -5.75 3.796875 -5.75 C 4.484375 -5.75 5.007812 -5.539062 5.375 -5.125 C 5.738281 -4.707031 5.921875 -4.144531 5.921875 -3.4375 L 5.921875 0 L 5.109375 0 L 5.109375 -3.09375 C 5.109375 -3.726562 4.992188 -4.210938 4.765625 -4.546875 C 4.535156 -4.890625 4.144531 -5.0625 3.59375 -5.0625 C 3.289062 -5.0625 3.007812 -4.976562 2.75 -4.8125 C 2.5 -4.65625 2.289062 -4.410156 2.125 -4.078125 C 1.96875 -3.753906 1.890625 -3.351562 1.890625 -2.875 L 1.890625 0 L 1.078125 0 Z M 1.078125 -4.375 "/></g></g><g style="fill:#ffffff;fill-opacity:1;"><g transform="translate(148.200828, 150.285417)"><path style="stroke:none" d="M 3.5625 0.140625 C 3 0.140625 2.492188 0.0078125 2.046875 -0.25 C 1.609375 -0.507812 1.269531 -0.859375 1.03125 -1.296875 C 0.789062 -1.742188 0.671875 -2.242188 0.671875 -2.796875 C 0.671875 -3.347656 0.789062 -3.847656 1.03125 -4.296875 C 1.269531 -4.742188 1.609375 -5.097656 2.046875 -5.359375 C 2.492188 -5.617188 3 -5.75 3.5625 -5.75 C 3.976562 -5.75 4.378906 -5.648438 4.765625 -5.453125 C 5.148438 -5.253906 5.457031 -4.976562 5.6875 -4.625 L 5.703125 -4.625 L 5.703125 -9.046875 L 6.515625 -9.046875 L 6.515625 0 L 5.703125 0 L 5.703125 -0.953125 L 5.6875 -0.953125 C 5.457031 -0.609375 5.148438 -0.335938 4.765625 -0.140625 C 4.378906 0.046875 3.976562 0.140625 3.5625 0.140625 Z M 3.65625 -0.546875 C 4.0625 -0.546875 4.425781 -0.644531 4.75 -0.84375 C 5.082031 -1.039062 5.34375 -1.3125 5.53125 -1.65625 C 5.71875 -2 5.8125 -2.378906 5.8125 -2.796875 C 5.8125 -3.222656 5.71875 -3.609375 5.53125 -3.953125 C 5.34375 -4.296875 5.082031 -4.566406 4.75 -4.765625 C 4.425781 -4.960938 4.0625 -5.0625 3.65625 -5.0625 C 3.21875 -5.0625 2.835938 -4.960938 2.515625 -4.765625 C 2.191406 -4.566406 1.945312 -4.296875 1.78125 -3.953125 C 1.613281 -3.609375 1.53125 -3.222656 1.53125 -2.796875 C 1.53125 -2.378906 1.613281 -2 1.78125 -1.65625 C 1.945312 -1.320312 2.191406 -1.050781 2.515625 -0.84375 C 2.835938 -0.644531 3.21875 -0.546875 3.65625 -0.546875 Z M 3.65625 -0.546875 "/></g></g><g style="fill:#ffffff;fill-opacity:1;"><g transform="translate(155.824696, 150.285417)"><path style="stroke:none" d=""/></g></g><g style="fill:#ffffff;fill-opacity:1;"><g transform="translate(36.517854, 166.741533)"><path style="stroke:none" d="M 1.5 -7.1875 C 1.34375 -7.1875 1.207031 -7.238281 1.09375 -7.34375 C 0.976562 -7.457031 0.921875 -7.59375 0.921875 -7.75 C 0.921875 -7.914062 0.976562 -8.050781 1.09375 -8.15625 C 1.207031 -8.269531 1.34375 -8.328125 1.5 -8.328125 C 1.644531 -8.328125 1.773438 -8.269531 1.890625 -8.15625 C 2.015625 -8.050781 2.078125 -7.914062 2.078125 -7.75 C 2.078125 -7.59375 2.015625 -7.457031 1.890625 -7.34375 C 1.773438 -7.238281 1.644531 -7.1875 1.5 -7.1875 Z M 1.90625 0 L 1.09375 0 L 1.09375 -5.609375 L 1.90625 -5.609375 Z M 1.90625 0 "/></g></g><g style="fill:#ffffff;fill-opacity:1;"><g transform="translate(39.509887, 166.741533)"><path style="stroke:none" d="M 1.078125 -4.375 C 1.078125 -4.851562 1.0625 -5.265625 1.03125 -5.609375 L 1.8125 -5.609375 C 1.84375 -5.210938 1.859375 -4.890625 1.859375 -4.640625 L 1.875 -4.640625 C 1.976562 -4.859375 2.128906 -5.046875 2.328125 -5.203125 C 2.535156 -5.367188 2.765625 -5.5 3.015625 -5.59375 C 3.273438 -5.695312 3.535156 -5.75 3.796875 -5.75 C 4.484375 -5.75 5.007812 -5.539062 5.375 -5.125 C 5.738281 -4.707031 5.921875 -4.144531 5.921875 -3.4375 L 5.921875 0 L 5.109375 0 L 5.109375 -3.09375 C 5.109375 -3.726562 4.992188 -4.210938 4.765625 -4.546875 C 4.535156 -4.890625 4.144531 -5.0625 3.59375 -5.0625 C 3.289062 -5.0625 3.007812 -4.976562 2.75 -4.8125 C 2.5 -4.65625 2.289062 -4.410156 2.125 -4.078125 C 1.96875 -3.753906 1.890625 -3.351562 1.890625 -2.875 L 1.890625 0 L 1.078125 0 Z M 1.078125 -4.375 "/></g></g><g style="fill:#ffffff;fill-opacity:1;"><g transform="translate(46.463359, 166.741533)"><path style="stroke:none" d="M 3.65625 0.140625 C 3.070312 0.140625 2.550781 0.015625 2.09375 -0.234375 C 1.632812 -0.492188 1.28125 -0.847656 1.03125 -1.296875 C 0.789062 -1.742188 0.671875 -2.242188 0.671875 -2.796875 C 0.671875 -3.359375 0.789062 -3.863281 1.03125 -4.3125 C 1.28125 -4.757812 1.632812 -5.109375 2.09375 -5.359375 C 2.550781 -5.617188 3.070312 -5.75 3.65625 -5.75 C 4.0625 -5.75 4.453125 -5.664062 4.828125 -5.5 C 5.203125 -5.332031 5.507812 -5.09375 5.75 -4.78125 L 5.109375 -4.328125 C 4.972656 -4.535156 4.773438 -4.707031 4.515625 -4.84375 C 4.253906 -4.988281 3.972656 -5.0625 3.671875 -5.0625 C 3.253906 -5.0625 2.878906 -4.960938 2.546875 -4.765625 C 2.222656 -4.566406 1.972656 -4.296875 1.796875 -3.953125 C 1.617188 -3.609375 1.53125 -3.222656 1.53125 -2.796875 C 1.53125 -2.378906 1.617188 -2 1.796875 -1.65625 C 1.972656 -1.3125 2.222656 -1.039062 2.546875 -0.84375 C 2.867188 -0.644531 3.238281 -0.546875 3.65625 -0.546875 C 4.300781 -0.546875 4.8125 -0.789062 5.1875 -1.28125 L 5.796875 -0.828125 C 5.265625 -0.179688 4.550781 0.140625 3.65625 0.140625 Z M 3.65625 0.140625 "/></g></g><g style="fill:#ffffff;fill-opacity:1;"><g transform="translate(52.447412, 166.741533)"><path style="stroke:none" d="M 1.921875 0 L 1.09375 0 L 1.09375 -9.046875 L 1.921875 -9.046875 Z M 1.921875 0 "/></g></g><g style="fill:#ffffff;fill-opacity:1;"><g transform="translate(55.463379, 166.741533)"><path style="stroke:none" d="M 3.15625 0.140625 C 2.46875 0.140625 1.941406 -0.0625 1.578125 -0.46875 C 1.210938 -0.882812 1.03125 -1.453125 1.03125 -2.171875 L 1.03125 -5.609375 L 1.84375 -5.609375 L 1.84375 -2.5 C 1.84375 -1.875 1.957031 -1.390625 2.1875 -1.046875 C 2.414062 -0.703125 2.804688 -0.53125 3.359375 -0.53125 C 3.660156 -0.53125 3.9375 -0.613281 4.1875 -0.78125 C 4.445312 -0.945312 4.65625 -1.191406 4.8125 -1.515625 C 4.976562 -1.847656 5.0625 -2.253906 5.0625 -2.734375 L 5.0625 -5.609375 L 5.875 -5.609375 L 5.875 -1.234375 C 5.875 -0.753906 5.890625 -0.34375 5.921875 0 L 5.140625 0 C 5.109375 -0.394531 5.09375 -0.710938 5.09375 -0.953125 L 5.078125 -0.953125 C 4.972656 -0.742188 4.820312 -0.554688 4.625 -0.390625 C 4.425781 -0.222656 4.195312 -0.09375 3.9375 0 C 3.6875 0.09375 3.425781 0.140625 3.15625 0.140625 Z M 3.15625 0.140625 "/></g></g><g style="fill:#ffffff;fill-opacity:1;"><g transform="translate(62.416851, 166.741533)"><path style="stroke:none" d="M 2.671875 0.140625 C 2.222656 0.140625 1.800781 0.0507812 1.40625 -0.125 C 1.019531 -0.3125 0.703125 -0.585938 0.453125 -0.953125 L 1.09375 -1.421875 C 1.25 -1.171875 1.46875 -0.960938 1.75 -0.796875 C 2.03125 -0.628906 2.332031 -0.546875 2.65625 -0.546875 C 3.039062 -0.546875 3.351562 -0.625 3.59375 -0.78125 C 3.84375 -0.9375 3.96875 -1.1875 3.96875 -1.53125 C 3.96875 -1.71875 3.90625 -1.875 3.78125 -2 C 3.664062 -2.132812 3.488281 -2.25 3.25 -2.34375 C 3.019531 -2.4375 2.710938 -2.523438 2.328125 -2.609375 C 2.035156 -2.679688 1.773438 -2.765625 1.546875 -2.859375 C 1.316406 -2.960938 1.117188 -3.113281 0.953125 -3.3125 C 0.796875 -3.519531 0.71875 -3.789062 0.71875 -4.125 C 0.71875 -4.476562 0.804688 -4.773438 0.984375 -5.015625 C 1.171875 -5.265625 1.414062 -5.445312 1.71875 -5.5625 C 2.019531 -5.6875 2.351562 -5.75 2.71875 -5.75 C 3.113281 -5.75 3.492188 -5.65625 3.859375 -5.46875 C 4.234375 -5.289062 4.507812 -5.046875 4.6875 -4.734375 L 4.0625 -4.265625 C 3.9375 -4.503906 3.75 -4.695312 3.5 -4.84375 C 3.257812 -4.988281 2.988281 -5.0625 2.6875 -5.0625 C 2.351562 -5.0625 2.070312 -4.988281 1.84375 -4.84375 C 1.613281 -4.695312 1.5 -4.476562 1.5 -4.1875 C 1.5 -3.9375 1.601562 -3.738281 1.8125 -3.59375 C 2.019531 -3.445312 2.363281 -3.328125 2.84375 -3.234375 C 3.5 -3.097656 3.984375 -2.894531 4.296875 -2.625 C 4.617188 -2.363281 4.78125 -2.019531 4.78125 -1.59375 C 4.78125 -1.1875 4.675781 -0.851562 4.46875 -0.59375 C 4.269531 -0.332031 4.007812 -0.144531 3.6875 -0.03125 C 3.375 0.0820312 3.035156 0.140625 2.671875 0.140625 Z M 2.671875 0.140625 "/></g></g><g style="fill:#ffffff;fill-opacity:1;"><g transform="translate(67.730695, 166.741533)"><path style="stroke:none" d="M 1.5 -7.1875 C 1.34375 -7.1875 1.207031 -7.238281 1.09375 -7.34375 C 0.976562 -7.457031 0.921875 -7.59375 0.921875 -7.75 C 0.921875 -7.914062 0.976562 -8.050781 1.09375 -8.15625 C 1.207031 -8.269531 1.34375 -8.328125 1.5 -8.328125 C 1.644531 -8.328125 1.773438 -8.269531 1.890625 -8.15625 C 2.015625 -8.050781 2.078125 -7.914062 2.078125 -7.75 C 2.078125 -7.59375 2.015625 -7.457031 1.890625 -7.34375 C 1.773438 -7.238281 1.644531 -7.1875 1.5 -7.1875 Z M 1.90625 0 L 1.09375 0 L 1.09375 -5.609375 L 1.90625 -5.609375 Z M 1.90625 0 "/></g></g><g style="fill:#ffffff;fill-opacity:1;"><g transform="translate(70.722728, 166.741533)"><path style="stroke:none" d="M 3.375 0 L 2.484375 0 L 0.1875 -5.609375 L 1.09375 -5.609375 L 2.921875 -0.859375 L 2.9375 -0.859375 L 4.78125 -5.609375 L 5.65625 -5.609375 Z M 3.375 0 "/></g></g><g style="fill:#ffffff;fill-opacity:1;"><g transform="translate(76.563163, 166.741533)"><path style="stroke:none" d="M 3.5625 0.140625 C 3.007812 0.140625 2.515625 0.015625 2.078125 -0.234375 C 1.640625 -0.492188 1.296875 -0.847656 1.046875 -1.296875 C 0.796875 -1.742188 0.671875 -2.242188 0.671875 -2.796875 C 0.671875 -3.347656 0.789062 -3.847656 1.03125 -4.296875 C 1.28125 -4.753906 1.617188 -5.109375 2.046875 -5.359375 C 2.484375 -5.617188 2.96875 -5.75 3.5 -5.75 C 4.0625 -5.75 4.539062 -5.625 4.9375 -5.375 C 5.34375 -5.132812 5.648438 -4.800781 5.859375 -4.375 C 6.066406 -3.957031 6.171875 -3.488281 6.171875 -2.96875 C 6.171875 -2.8125 6.164062 -2.679688 6.15625 -2.578125 L 1.515625 -2.578125 C 1.523438 -2.203125 1.617188 -1.859375 1.796875 -1.546875 C 1.984375 -1.242188 2.226562 -1 2.53125 -0.8125 C 2.84375 -0.632812 3.1875 -0.546875 3.5625 -0.546875 C 3.957031 -0.546875 4.3125 -0.640625 4.625 -0.828125 C 4.945312 -1.015625 5.191406 -1.242188 5.359375 -1.515625 L 5.96875 -1.046875 C 5.34375 -0.253906 4.539062 0.140625 3.5625 0.140625 Z M 5.34375 -3.234375 C 5.332031 -3.585938 5.253906 -3.898438 5.109375 -4.171875 C 4.960938 -4.453125 4.75 -4.671875 4.46875 -4.828125 C 4.195312 -4.984375 3.875 -5.0625 3.5 -5.0625 C 3.144531 -5.0625 2.820312 -4.976562 2.53125 -4.8125 C 2.238281 -4.644531 2.003906 -4.414062 1.828125 -4.125 C 1.648438 -3.84375 1.550781 -3.546875 1.53125 -3.234375 Z M 5.34375 -3.234375 "/></g></g><g style="fill:#ffffff;fill-opacity:1;"><g transform="translate(83.408925, 166.741533)"><path style="stroke:none" d=""/></g></g><g style="fill:#ffffff;fill-opacity:1;"><g transform="translate(86.400957, 166.741533)"><path style="stroke:none" d="M 3.65625 0.140625 C 3.070312 0.140625 2.550781 0.015625 2.09375 -0.234375 C 1.632812 -0.492188 1.28125 -0.847656 1.03125 -1.296875 C 0.789062 -1.742188 0.671875 -2.242188 0.671875 -2.796875 C 0.671875 -3.359375 0.789062 -3.863281 1.03125 -4.3125 C 1.28125 -4.757812 1.632812 -5.109375 2.09375 -5.359375 C 2.550781 -5.617188 3.070312 -5.75 3.65625 -5.75 C 4.0625 -5.75 4.453125 -5.664062 4.828125 -5.5 C 5.203125 -5.332031 5.507812 -5.09375 5.75 -4.78125 L 5.109375 -4.328125 C 4.972656 -4.535156 4.773438 -4.707031 4.515625 -4.84375 C 4.253906 -4.988281 3.972656 -5.0625 3.671875 -5.0625 C 3.253906 -5.0625 2.878906 -4.960938 2.546875 -4.765625 C 2.222656 -4.566406 1.972656 -4.296875 1.796875 -3.953125 C 1.617188 -3.609375 1.53125 -3.222656 1.53125 -2.796875 C 1.53125 -2.378906 1.617188 -2 1.796875 -1.65625 C 1.972656 -1.3125 2.222656 -1.039062 2.546875 -0.84375 C 2.867188 -0.644531 3.238281 -0.546875 3.65625 -0.546875 C 4.300781 -0.546875 4.8125 -0.789062 5.1875 -1.28125 L 5.796875 -0.828125 C 5.265625 -0.179688 4.550781 0.140625 3.65625 0.140625 Z M 3.65625 0.140625 "/></g></g><g style="fill:#ffffff;fill-opacity:1;"><g transform="translate(92.385011, 166.741533)"><path style="stroke:none" d="M 3.65625 0.140625 C 3.082031 0.140625 2.566406 0.015625 2.109375 -0.234375 C 1.660156 -0.492188 1.304688 -0.847656 1.046875 -1.296875 C 0.796875 -1.742188 0.671875 -2.242188 0.671875 -2.796875 C 0.671875 -3.359375 0.796875 -3.863281 1.046875 -4.3125 C 1.304688 -4.757812 1.660156 -5.109375 2.109375 -5.359375 C 2.566406 -5.617188 3.082031 -5.75 3.65625 -5.75 C 4.226562 -5.75 4.738281 -5.617188 5.1875 -5.359375 C 5.644531 -5.109375 6 -4.757812 6.25 -4.3125 C 6.507812 -3.863281 6.640625 -3.359375 6.640625 -2.796875 C 6.640625 -2.242188 6.507812 -1.742188 6.25 -1.296875 C 6 -0.847656 5.644531 -0.492188 5.1875 -0.234375 C 4.738281 0.015625 4.226562 0.140625 3.65625 0.140625 Z M 3.65625 -0.546875 C 4.070312 -0.546875 4.441406 -0.644531 4.765625 -0.84375 C 5.085938 -1.050781 5.335938 -1.320312 5.515625 -1.65625 C 5.691406 -2 5.78125 -2.378906 5.78125 -2.796875 C 5.78125 -3.222656 5.691406 -3.609375 5.515625 -3.953125 C 5.335938 -4.296875 5.085938 -4.566406 4.765625 -4.765625 C 4.441406 -4.960938 4.070312 -5.0625 3.65625 -5.0625 C 3.226562 -5.0625 2.851562 -4.960938 2.53125 -4.765625 C 2.21875 -4.566406 1.972656 -4.296875 1.796875 -3.953125 C 1.617188 -3.609375 1.53125 -3.222656 1.53125 -2.796875 C 1.53125 -2.378906 1.617188 -2 1.796875 -1.65625 C 1.972656 -1.320312 2.21875 -1.050781 2.53125 -0.84375 C 2.851562 -0.644531 3.226562 -0.546875 3.65625 -0.546875 Z M 3.65625 -0.546875 "/></g></g><g style="fill:#ffffff;fill-opacity:1;"><g transform="translate(99.697522, 166.741533)"><path style="stroke:none" d="M 7.40625 -5.75 C 8.101562 -5.75 8.632812 -5.539062 9 -5.125 C 9.363281 -4.707031 9.546875 -4.144531 9.546875 -3.4375 L 9.546875 0 L 8.71875 0 L 8.71875 -3.09375 C 8.71875 -3.71875 8.601562 -4.203125 8.375 -4.546875 C 8.144531 -4.890625 7.78125 -5.0625 7.28125 -5.0625 C 6.90625 -5.0625 6.597656 -4.960938 6.359375 -4.765625 C 6.128906 -4.566406 5.957031 -4.3125 5.84375 -4 C 5.738281 -3.695312 5.6875 -3.359375 5.6875 -2.984375 L 5.6875 0 L 4.875 0 L 4.875 -3.265625 C 4.875 -3.660156 4.832031 -3.984375 4.75 -4.234375 C 4.675781 -4.492188 4.539062 -4.695312 4.34375 -4.84375 C 4.144531 -4.988281 3.867188 -5.0625 3.515625 -5.0625 C 3.242188 -5.0625 2.984375 -4.976562 2.734375 -4.8125 C 2.484375 -4.65625 2.28125 -4.410156 2.125 -4.078125 C 1.96875 -3.742188 1.890625 -3.34375 1.890625 -2.875 L 1.890625 0 L 1.078125 0 L 1.078125 -4.375 C 1.078125 -4.851562 1.0625 -5.265625 1.03125 -5.609375 L 1.8125 -5.609375 C 1.84375 -5.210938 1.859375 -4.890625 1.859375 -4.640625 L 1.875 -4.640625 C 2.039062 -4.972656 2.289062 -5.238281 2.625 -5.4375 C 2.957031 -5.644531 3.320312 -5.75 3.71875 -5.75 C 4.082031 -5.75 4.414062 -5.65625 4.71875 -5.46875 C 5.03125 -5.289062 5.273438 -4.988281 5.453125 -4.5625 C 5.640625 -4.945312 5.898438 -5.238281 6.234375 -5.4375 C 6.566406 -5.644531 6.957031 -5.75 7.40625 -5.75 Z M 7.40625 -5.75 "/></g></g><g style="fill:#ffffff;fill-opacity:1;"><g transform="translate(110.265356, 166.741533)"><path style="stroke:none" d="M 7.40625 -5.75 C 8.101562 -5.75 8.632812 -5.539062 9 -5.125 C 9.363281 -4.707031 9.546875 -4.144531 9.546875 -3.4375 L 9.546875 0 L 8.71875 0 L 8.71875 -3.09375 C 8.71875 -3.71875 8.601562 -4.203125 8.375 -4.546875 C 8.144531 -4.890625 7.78125 -5.0625 7.28125 -5.0625 C 6.90625 -5.0625 6.597656 -4.960938 6.359375 -4.765625 C 6.128906 -4.566406 5.957031 -4.3125 5.84375 -4 C 5.738281 -3.695312 5.6875 -3.359375 5.6875 -2.984375 L 5.6875 0 L 4.875 0 L 4.875 -3.265625 C 4.875 -3.660156 4.832031 -3.984375 4.75 -4.234375 C 4.675781 -4.492188 4.539062 -4.695312 4.34375 -4.84375 C 4.144531 -4.988281 3.867188 -5.0625 3.515625 -5.0625 C 3.242188 -5.0625 2.984375 -4.976562 2.734375 -4.8125 C 2.484375 -4.65625 2.28125 -4.410156 2.125 -4.078125 C 1.96875 -3.742188 1.890625 -3.34375 1.890625 -2.875 L 1.890625 0 L 1.078125 0 L 1.078125 -4.375 C 1.078125 -4.851562 1.0625 -5.265625 1.03125 -5.609375 L 1.8125 -5.609375 C 1.84375 -5.210938 1.859375 -4.890625 1.859375 -4.640625 L 1.875 -4.640625 C 2.039062 -4.972656 2.289062 -5.238281 2.625 -5.4375 C 2.957031 -5.644531 3.320312 -5.75 3.71875 -5.75 C 4.082031 -5.75 4.414062 -5.65625 4.71875 -5.46875 C 5.03125 -5.289062 5.273438 -4.988281 5.453125 -4.5625 C 5.640625 -4.945312 5.898438 -5.238281 6.234375 -5.4375 C 6.566406 -5.644531 6.957031 -5.75 7.40625 -5.75 Z M 7.40625 -5.75 "/></g></g><g style="fill:#ffffff;fill-opacity:1;"><g transform="translate(120.83319, 166.741533)"><path style="stroke:none" d="M 3.15625 0.140625 C 2.46875 0.140625 1.941406 -0.0625 1.578125 -0.46875 C 1.210938 -0.882812 1.03125 -1.453125 1.03125 -2.171875 L 1.03125 -5.609375 L 1.84375 -5.609375 L 1.84375 -2.5 C 1.84375 -1.875 1.957031 -1.390625 2.1875 -1.046875 C 2.414062 -0.703125 2.804688 -0.53125 3.359375 -0.53125 C 3.660156 -0.53125 3.9375 -0.613281 4.1875 -0.78125 C 4.445312 -0.945312 4.65625 -1.191406 4.8125 -1.515625 C 4.976562 -1.847656 5.0625 -2.253906 5.0625 -2.734375 L 5.0625 -5.609375 L 5.875 -5.609375 L 5.875 -1.234375 C 5.875 -0.753906 5.890625 -0.34375 5.921875 0 L 5.140625 0 C 5.109375 -0.394531 5.09375 -0.710938 5.09375 -0.953125 L 5.078125 -0.953125 C 4.972656 -0.742188 4.820312 -0.554688 4.625 -0.390625 C 4.425781 -0.222656 4.195312 -0.09375 3.9375 0 C 3.6875 0.09375 3.425781 0.140625 3.15625 0.140625 Z M 3.15625 0.140625 "/></g></g><g style="fill:#ffffff;fill-opacity:1;"><g transform="translate(127.786662, 166.741533)"><path style="stroke:none" d="M 1.078125 -4.375 C 1.078125 -4.851562 1.0625 -5.265625 1.03125 -5.609375 L 1.8125 -5.609375 C 1.84375 -5.210938 1.859375 -4.890625 1.859375 -4.640625 L 1.875 -4.640625 C 1.976562 -4.859375 2.128906 -5.046875 2.328125 -5.203125 C 2.535156 -5.367188 2.765625 -5.5 3.015625 -5.59375 C 3.273438 -5.695312 3.535156 -5.75 3.796875 -5.75 C 4.484375 -5.75 5.007812 -5.539062 5.375 -5.125 C 5.738281 -4.707031 5.921875 -4.144531 5.921875 -3.4375 L 5.921875 0 L 5.109375 0 L 5.109375 -3.09375 C 5.109375 -3.726562 4.992188 -4.210938 4.765625 -4.546875 C 4.535156 -4.890625 4.144531 -5.0625 3.59375 -5.0625 C 3.289062 -5.0625 3.007812 -4.976562 2.75 -4.8125 C 2.5 -4.65625 2.289062 -4.410156 2.125 -4.078125 C 1.96875 -3.753906 1.890625 -3.351562 1.890625 -2.875 L 1.890625 0 L 1.078125 0 Z M 1.078125 -4.375 "/></g></g><g style="fill:#ffffff;fill-opacity:1;"><g transform="translate(134.740135, 166.741533)"><path style="stroke:none" d="M 1.5 -7.1875 C 1.34375 -7.1875 1.207031 -7.238281 1.09375 -7.34375 C 0.976562 -7.457031 0.921875 -7.59375 0.921875 -7.75 C 0.921875 -7.914062 0.976562 -8.050781 1.09375 -8.15625 C 1.207031 -8.269531 1.34375 -8.328125 1.5 -8.328125 C 1.644531 -8.328125 1.773438 -8.269531 1.890625 -8.15625 C 2.015625 -8.050781 2.078125 -7.914062 2.078125 -7.75 C 2.078125 -7.59375 2.015625 -7.457031 1.890625 -7.34375 C 1.773438 -7.238281 1.644531 -7.1875 1.5 -7.1875 Z M 1.90625 0 L 1.09375 0 L 1.09375 -5.609375 L 1.90625 -5.609375 Z M 1.90625 0 "/></g></g><g style="fill:#ffffff;fill-opacity:1;"><g transform="translate(137.732167, 166.741533)"><path style="stroke:none" d="M 2.640625 0.078125 C 2.265625 0.078125 1.929688 -0.03125 1.640625 -0.25 C 1.347656 -0.476562 1.203125 -0.867188 1.203125 -1.421875 L 1.203125 -4.9375 L 0.046875 -4.9375 L 0.046875 -5.609375 L 1.203125 -5.609375 L 1.203125 -7.1875 L 2.015625 -7.1875 L 2.015625 -5.609375 L 3.609375 -5.609375 L 3.609375 -4.9375 L 2.015625 -4.9375 L 2.015625 -1.65625 C 2.015625 -1.257812 2.085938 -0.988281 2.234375 -0.84375 C 2.378906 -0.695312 2.585938 -0.625 2.859375 -0.625 C 2.972656 -0.625 3.09375 -0.640625 3.21875 -0.671875 C 3.34375 -0.703125 3.457031 -0.742188 3.5625 -0.796875 L 3.609375 -0.09375 C 3.304688 0.0195312 2.984375 0.078125 2.640625 0.078125 Z M 2.640625 0.078125 "/></g></g><g style="fill:#ffffff;fill-opacity:1;"><g transform="translate(141.526054, 166.741533)"><path style="stroke:none" d="M 1.09375 2.875 C 0.851562 2.875 0.613281 2.847656 0.375 2.796875 L 0.453125 2.0625 C 0.640625 2.125 0.835938 2.15625 1.046875 2.15625 C 1.316406 2.15625 1.53125 2.070312 1.6875 1.90625 C 1.851562 1.738281 2 1.488281 2.125 1.15625 L 2.578125 -0.015625 L 0.1875 -5.609375 L 1.09375 -5.609375 L 3 -0.875 L 3.03125 -0.875 L 4.765625 -5.609375 L 5.65625 -5.609375 L 2.859375 1.453125 C 2.671875 1.921875 2.441406 2.273438 2.171875 2.515625 C 1.910156 2.753906 1.550781 2.875 1.09375 2.875 Z M 1.09375 2.875 "/></g></g><g style="fill:#ffffff;fill-opacity:1;"><g transform="translate(147.36649, 166.741533)"><path style="stroke:none" d="M 1.5625 0.078125 C 1.375 0.078125 1.21875 0.015625 1.09375 -0.109375 C 0.96875 -0.242188 0.90625 -0.398438 0.90625 -0.578125 C 0.90625 -0.753906 0.96875 -0.90625 1.09375 -1.03125 C 1.21875 -1.15625 1.375 -1.21875 1.5625 -1.21875 C 1.738281 -1.21875 1.890625 -1.15625 2.015625 -1.03125 C 2.140625 -0.90625 2.203125 -0.753906 2.203125 -0.578125 C 2.203125 -0.398438 2.140625 -0.242188 2.015625 -0.109375 C 1.890625 0.015625 1.738281 0.078125 1.5625 0.078125 Z M 1.5625 0.078125 "/></g></g></g></svg>