<svg xmlns="http://www.w3.org/2000/svg" xmlns:xlink="http://www.w3.org/1999/xlink" width="120" zoomAndPan="magnify" viewBox="0 0 90 104.999996" height="140" preserveAspectRatio="xMidYMid meet" version="1.2"><defs><clipPath id="4682bd6d1c"><path d="M 43 7.5 L 46 7.5 L 46 18 L 43 18 Z M 43 7.5 "/></clipPath><clipPath id="fbd19abf97"><path d="M 14.734375 32 L 25 32 L 25 35 L 14.734375 35 Z M 14.734375 32 "/></clipPath><clipPath id="3f18d86a6a"><path d="M 65 32 L 75.484375 32 L 75.484375 35 L 65 35 Z M 65 32 "/></clipPath><clipPath id="8077869895"><path d="M 42 58 L 48 58 L 48 60.75 L 42 60.75 Z M 42 58 "/></clipPath><clipPath id="f791f2a205"><rect x="0" width="56" y="0" height="21"/></clipPath><clipPath id="6007c19f12"><path d="M 0.320312 2 L 3 2 L 3 7 L 0.320312 7 Z M 0.320312 2 "/></clipPath><clipPath id="6c03666d4d"><rect x="0" width="47" y="0" height="16"/></clipPath></defs><g id="9ae5095dce"><path style=" stroke:none;fill-rule:nonzero;fill:#ffffff;fill-opacity:1;" d="M 45.132812 20.046875 C 44.542969 20.046875 43.960938 20.078125 43.378906 20.132812 C 42.792969 20.191406 42.214844 20.28125 41.640625 20.394531 C 41.066406 20.511719 40.5 20.652344 39.9375 20.824219 C 39.378906 20.996094 38.828125 21.195312 38.285156 21.417969 C 37.746094 21.644531 37.214844 21.894531 36.699219 22.171875 C 36.183594 22.449219 35.683594 22.753906 35.195312 23.078125 C 34.710938 23.40625 34.238281 23.753906 33.789062 24.128906 C 33.335938 24.5 32.902344 24.894531 32.488281 25.308594 C 32.078125 25.726562 31.683594 26.160156 31.3125 26.613281 C 30.945312 27.070312 30.597656 27.539062 30.273438 28.027344 C 29.949219 28.515625 29.648438 29.019531 29.375 29.535156 C 29.101562 30.054688 28.851562 30.585938 28.628906 31.125 C 28.40625 31.667969 28.210938 32.21875 28.042969 32.78125 C 27.875 33.34375 27.734375 33.910156 27.621094 34.488281 C 27.511719 35.0625 27.425781 35.640625 27.371094 36.222656 C 27.316406 36.808594 27.289062 37.394531 27.292969 37.980469 C 27.339844 38.230469 27.460938 38.441406 27.65625 38.605469 C 27.851562 38.773438 28.078125 38.855469 28.335938 38.859375 L 61.925781 38.859375 C 62.183594 38.855469 62.410156 38.773438 62.605469 38.605469 C 62.800781 38.441406 62.921875 38.230469 62.96875 37.980469 C 62.972656 37.390625 62.945312 36.808594 62.890625 36.222656 C 62.835938 35.640625 62.75 35.0625 62.640625 34.488281 C 62.527344 33.910156 62.386719 33.34375 62.21875 32.78125 C 62.050781 32.21875 61.855469 31.667969 61.632812 31.125 C 61.410156 30.585938 61.160156 30.054688 60.886719 29.535156 C 60.613281 29.019531 60.3125 28.515625 59.988281 28.027344 C 59.664062 27.539062 59.316406 27.070312 58.949219 26.613281 C 58.578125 26.160156 58.183594 25.726562 57.773438 25.308594 C 57.359375 24.894531 56.925781 24.5 56.472656 24.128906 C 56.023438 23.753906 55.550781 23.40625 55.066406 23.078125 C 54.578125 22.753906 54.078125 22.449219 53.5625 22.171875 C 53.046875 21.894531 52.515625 21.644531 51.976562 21.417969 C 51.433594 21.195312 50.882812 20.996094 50.324219 20.824219 C 49.761719 20.652344 49.195312 20.511719 48.621094 20.394531 C 48.046875 20.28125 47.46875 20.191406 46.882812 20.132812 C 46.300781 20.078125 45.71875 20.046875 45.132812 20.046875 Z M 45.132812 22.21875 C 46.109375 22.222656 47.078125 22.316406 48.039062 22.5 C 49 22.683594 49.933594 22.957031 50.84375 23.3125 C 51.753906 23.671875 52.621094 24.113281 53.449219 24.632812 C 54.277344 25.152344 55.050781 25.742188 55.769531 26.40625 C 56.488281 27.070312 57.136719 27.796875 57.71875 28.582031 C 58.304688 29.367188 58.808594 30.199219 59.238281 31.078125 C 59.664062 31.957031 60.007812 32.867188 60.265625 33.8125 C 60.523438 34.753906 60.691406 35.714844 60.773438 36.6875 L 29.488281 36.6875 C 29.570312 35.714844 29.738281 34.753906 29.996094 33.8125 C 30.253906 32.867188 30.597656 31.957031 31.027344 31.078125 C 31.453125 30.199219 31.957031 29.367188 32.542969 28.582031 C 33.125 27.796875 33.773438 27.070312 34.492188 26.40625 C 35.210938 25.742188 35.984375 25.152344 36.8125 24.632812 C 37.640625 24.113281 38.507812 23.671875 39.417969 23.3125 C 40.328125 22.957031 41.261719 22.683594 42.222656 22.5 C 43.183594 22.316406 44.152344 22.222656 45.132812 22.21875 Z M 45.132812 22.21875 "/><g clip-rule="nonzero" clip-path="url(#4682bd6d1c)"><path style=" stroke:none;fill-rule:nonzero;fill:#ffffff;fill-opacity:1;" d="M 44.828125 17.101562 C 44.972656 17.101562 45.109375 17.074219 45.242188 17.019531 C 45.375 16.964844 45.492188 16.886719 45.59375 16.785156 C 45.695312 16.683594 45.777344 16.566406 45.832031 16.433594 C 45.886719 16.296875 45.914062 16.160156 45.914062 16.015625 L 45.914062 8.597656 C 45.914062 8.453125 45.886719 8.3125 45.832031 8.179688 C 45.777344 8.046875 45.695312 7.929688 45.59375 7.828125 C 45.492188 7.726562 45.375 7.648438 45.242188 7.59375 C 45.109375 7.539062 44.972656 7.511719 44.828125 7.511719 C 44.683594 7.511719 44.542969 7.539062 44.410156 7.59375 C 44.277344 7.648438 44.160156 7.726562 44.058594 7.828125 C 43.957031 7.929688 43.878906 8.046875 43.824219 8.179688 C 43.769531 8.3125 43.742188 8.453125 43.742188 8.597656 L 43.742188 16.015625 C 43.742188 16.160156 43.769531 16.296875 43.824219 16.433594 C 43.878906 16.566406 43.957031 16.683594 44.058594 16.785156 C 44.160156 16.886719 44.277344 16.964844 44.410156 17.019531 C 44.542969 17.074219 44.683594 17.101562 44.828125 17.101562 Z M 44.828125 17.101562 "/></g><path style=" stroke:none;fill-rule:nonzero;fill:#ffffff;fill-opacity:1;" d="M 28.65625 23.417969 C 28.757812 23.515625 28.875 23.589844 29.007812 23.644531 C 29.140625 23.695312 29.277344 23.722656 29.417969 23.71875 C 29.5625 23.71875 29.699219 23.691406 29.828125 23.636719 C 29.960938 23.578125 30.074219 23.503906 30.175781 23.402344 C 30.277344 23.300781 30.355469 23.183594 30.410156 23.054688 C 30.464844 22.921875 30.492188 22.785156 30.496094 22.644531 C 30.496094 22.5 30.46875 22.363281 30.417969 22.230469 C 30.367188 22.101562 30.289062 21.984375 30.191406 21.878906 L 24.945312 16.632812 C 24.84375 16.535156 24.726562 16.460938 24.59375 16.40625 C 24.460938 16.355469 24.324219 16.328125 24.179688 16.332031 C 24.039062 16.332031 23.902344 16.359375 23.769531 16.414062 C 23.640625 16.472656 23.523438 16.546875 23.421875 16.648438 C 23.324219 16.75 23.246094 16.867188 23.191406 16.996094 C 23.136719 17.128906 23.105469 17.265625 23.105469 17.40625 C 23.105469 17.550781 23.128906 17.6875 23.183594 17.820312 C 23.234375 17.949219 23.308594 18.066406 23.410156 18.171875 Z M 28.65625 23.417969 "/><g clip-rule="nonzero" clip-path="url(#fbd19abf97)"><path style=" stroke:none;fill-rule:nonzero;fill:#ffffff;fill-opacity:1;" d="M 23.21875 32.800781 L 15.800781 32.800781 C 15.660156 32.800781 15.523438 32.832031 15.390625 32.886719 C 15.261719 32.945312 15.144531 33.023438 15.046875 33.125 C 14.945312 33.226562 14.871094 33.34375 14.816406 33.476562 C 14.761719 33.605469 14.734375 33.742188 14.734375 33.886719 C 14.734375 34.027344 14.761719 34.164062 14.816406 34.296875 C 14.871094 34.429688 14.945312 34.542969 15.046875 34.644531 C 15.144531 34.746094 15.261719 34.828125 15.390625 34.882812 C 15.523438 34.941406 15.660156 34.96875 15.800781 34.972656 L 23.21875 34.972656 C 23.363281 34.96875 23.5 34.941406 23.628906 34.882812 C 23.761719 34.828125 23.875 34.746094 23.976562 34.644531 C 24.074219 34.542969 24.152344 34.429688 24.203125 34.296875 C 24.257812 34.164062 24.285156 34.027344 24.285156 33.886719 C 24.285156 33.742188 24.257812 33.605469 24.203125 33.476562 C 24.152344 33.34375 24.074219 33.226562 23.976562 33.125 C 23.875 33.023438 23.761719 32.945312 23.628906 32.886719 C 23.5 32.832031 23.363281 32.800781 23.21875 32.800781 Z M 23.21875 32.800781 "/></g><g clip-rule="nonzero" clip-path="url(#3f18d86a6a)"><path style=" stroke:none;fill-rule:nonzero;fill:#ffffff;fill-opacity:1;" d="M 74.460938 32.191406 L 67.042969 32.191406 C 66.898438 32.195312 66.761719 32.222656 66.632812 32.28125 C 66.5 32.335938 66.386719 32.414062 66.285156 32.515625 C 66.1875 32.617188 66.109375 32.734375 66.058594 32.867188 C 66.003906 33 65.976562 33.136719 65.976562 33.277344 C 65.976562 33.421875 66.003906 33.558594 66.058594 33.6875 C 66.109375 33.820312 66.1875 33.9375 66.285156 34.039062 C 66.386719 34.140625 66.5 34.21875 66.632812 34.277344 C 66.761719 34.332031 66.898438 34.359375 67.042969 34.363281 L 74.460938 34.363281 C 74.601562 34.359375 74.738281 34.332031 74.871094 34.277344 C 75 34.21875 75.117188 34.140625 75.214844 34.039062 C 75.316406 33.9375 75.390625 33.820312 75.445312 33.6875 C 75.5 33.558594 75.527344 33.421875 75.527344 33.277344 C 75.527344 33.136719 75.5 33 75.445312 32.867188 C 75.390625 32.734375 75.316406 32.617188 75.214844 32.515625 C 75.117188 32.414062 75 32.335938 74.871094 32.28125 C 74.738281 32.222656 74.601562 32.195312 74.460938 32.191406 Z M 74.460938 32.191406 "/></g><path style=" stroke:none;fill-rule:nonzero;fill:#ffffff;fill-opacity:1;" d="M 60.410156 23.304688 C 60.710938 23.304688 60.964844 23.199219 61.175781 22.988281 L 66.421875 17.742188 C 66.523438 17.636719 66.597656 17.519531 66.648438 17.390625 C 66.703125 17.257812 66.726562 17.121094 66.726562 16.976562 C 66.726562 16.835938 66.695312 16.699219 66.640625 16.566406 C 66.585938 16.4375 66.507812 16.320312 66.410156 16.21875 C 66.308594 16.117188 66.191406 16.039062 66.0625 15.984375 C 65.929688 15.929688 65.792969 15.902344 65.652344 15.902344 C 65.507812 15.898438 65.371094 15.925781 65.238281 15.976562 C 65.105469 16.03125 64.988281 16.105469 64.886719 16.203125 L 59.640625 21.449219 C 59.488281 21.605469 59.394531 21.792969 59.351562 22.007812 C 59.3125 22.222656 59.332031 22.429688 59.417969 22.628906 C 59.5 22.832031 59.632812 22.992188 59.8125 23.117188 C 59.992188 23.238281 60.191406 23.300781 60.410156 23.304688 Z M 60.410156 23.304688 "/><path style=" stroke:none;fill-rule:nonzero;fill:#ffffff;fill-opacity:1;" d="M 53.125 18.550781 C 53.285156 18.546875 53.4375 18.515625 53.585938 18.453125 C 53.730469 18.390625 53.859375 18.300781 53.972656 18.1875 C 54.085938 18.074219 54.171875 17.941406 54.230469 17.796875 C 54.292969 17.648438 54.324219 17.492188 54.324219 17.335938 C 54.324219 17.175781 54.292969 17.019531 54.230469 16.875 C 54.171875 16.726562 54.085938 16.59375 53.972656 16.480469 C 53.859375 16.367188 53.730469 16.28125 53.585938 16.214844 C 53.4375 16.152344 53.285156 16.121094 53.125 16.121094 C 52.964844 16.121094 52.8125 16.152344 52.664062 16.214844 C 52.519531 16.28125 52.390625 16.367188 52.277344 16.480469 C 52.164062 16.59375 52.078125 16.726562 52.019531 16.875 C 51.957031 17.019531 51.925781 17.175781 51.925781 17.335938 C 51.925781 17.492188 51.957031 17.648438 52.019531 17.796875 C 52.078125 17.941406 52.164062 18.074219 52.277344 18.1875 C 52.390625 18.300781 52.519531 18.390625 52.664062 18.453125 C 52.8125 18.515625 52.964844 18.546875 53.125 18.550781 Z M 53.125 18.550781 "/><path style=" stroke:none;fill-rule:nonzero;fill:#ffffff;fill-opacity:1;" d="M 37.082031 18.570312 C 37.191406 18.457031 37.277344 18.324219 37.335938 18.179688 C 37.394531 18.03125 37.421875 17.875 37.421875 17.71875 C 37.417969 17.558594 37.386719 17.40625 37.324219 17.257812 C 37.265625 17.113281 37.175781 16.984375 37.066406 16.871094 C 36.953125 16.757812 36.824219 16.671875 36.675781 16.609375 C 36.53125 16.546875 36.375 16.515625 36.21875 16.515625 C 36.058594 16.511719 35.90625 16.542969 35.757812 16.601562 C 35.609375 16.660156 35.476562 16.742188 35.363281 16.855469 C 35.253906 16.96875 35.167969 17.101562 35.109375 17.246094 C 35.050781 17.394531 35.023438 17.550781 35.023438 17.707031 C 35.023438 17.867188 35.058594 18.019531 35.117188 18.167969 C 35.179688 18.3125 35.265625 18.441406 35.378906 18.554688 C 35.492188 18.667969 35.621094 18.753906 35.769531 18.816406 C 35.914062 18.878906 36.066406 18.910156 36.226562 18.910156 C 36.386719 18.914062 36.539062 18.882812 36.6875 18.824219 C 36.835938 18.765625 36.964844 18.683594 37.082031 18.570312 Z M 37.082031 18.570312 "/><path style=" stroke:none;fill-rule:nonzero;fill:#ffffff;fill-opacity:1;" d="M 24.539062 28.71875 C 24.378906 28.71875 24.226562 28.753906 24.078125 28.816406 C 23.933594 28.878906 23.800781 28.964844 23.691406 29.078125 C 23.578125 29.195312 23.492188 29.324219 23.433594 29.472656 C 23.371094 29.621094 23.339844 29.773438 23.339844 29.933594 C 23.339844 30.09375 23.371094 30.246094 23.433594 30.394531 C 23.492188 30.542969 23.578125 30.671875 23.691406 30.785156 C 23.800781 30.898438 23.933594 30.988281 24.078125 31.050781 C 24.226562 31.113281 24.378906 31.144531 24.539062 31.148438 C 24.699219 31.144531 24.851562 31.113281 24.996094 31.050781 C 25.144531 30.988281 25.273438 30.898438 25.386719 30.785156 C 25.496094 30.671875 25.585938 30.542969 25.644531 30.394531 C 25.707031 30.246094 25.734375 30.09375 25.734375 29.933594 C 25.734375 29.773438 25.707031 29.621094 25.644531 29.472656 C 25.585938 29.324219 25.496094 29.195312 25.386719 29.078125 C 25.273438 28.964844 25.144531 28.878906 24.996094 28.816406 C 24.851562 28.753906 24.699219 28.71875 24.539062 28.71875 Z M 24.539062 28.71875 "/><path style=" stroke:none;fill-rule:nonzero;fill:#ffffff;fill-opacity:1;" d="M 66.203125 28.160156 C 66.089844 28.050781 65.957031 27.964844 65.808594 27.90625 C 65.664062 27.847656 65.507812 27.816406 65.351562 27.820312 C 65.191406 27.820312 65.039062 27.851562 64.890625 27.914062 C 64.746094 27.976562 64.613281 28.0625 64.503906 28.175781 C 64.390625 28.289062 64.300781 28.417969 64.242188 28.5625 C 64.179688 28.710938 64.148438 28.863281 64.144531 29.023438 C 64.144531 29.183594 64.171875 29.335938 64.230469 29.484375 C 64.289062 29.632812 64.375 29.761719 64.484375 29.878906 C 64.601562 29.988281 64.730469 30.070312 64.878906 30.132812 C 65.027344 30.191406 65.179688 30.21875 65.339844 30.21875 C 65.5 30.214844 65.652344 30.183594 65.800781 30.121094 C 65.945312 30.0625 66.074219 29.972656 66.1875 29.859375 C 66.300781 29.75 66.386719 29.617188 66.449219 29.472656 C 66.511719 29.324219 66.542969 29.171875 66.542969 29.011719 C 66.546875 28.855469 66.515625 28.699219 66.457031 28.554688 C 66.398438 28.40625 66.3125 28.273438 66.203125 28.160156 Z M 66.203125 28.160156 "/><path style=" stroke:none;fill-rule:nonzero;fill:#ffffff;fill-opacity:1;" d="M 61.882812 41.136719 L 28.1875 41.136719 C 28.042969 41.140625 27.90625 41.167969 27.777344 41.226562 C 27.644531 41.28125 27.527344 41.359375 27.429688 41.460938 C 27.328125 41.5625 27.253906 41.679688 27.199219 41.8125 C 27.144531 41.945312 27.117188 42.082031 27.117188 42.222656 C 27.117188 42.367188 27.144531 42.503906 27.199219 42.636719 C 27.253906 42.769531 27.328125 42.882812 27.429688 42.984375 C 27.53125 43.085938 27.644531 43.167969 27.777344 43.222656 C 27.90625 43.277344 28.042969 43.308594 28.1875 43.308594 L 61.878906 43.308594 C 62.023438 43.308594 62.160156 43.277344 62.292969 43.222656 C 62.421875 43.167969 62.539062 43.085938 62.636719 42.984375 C 62.738281 42.882812 62.816406 42.769531 62.871094 42.636719 C 62.921875 42.503906 62.949219 42.367188 62.949219 42.222656 C 62.949219 42.082031 62.921875 41.945312 62.871094 41.8125 C 62.816406 41.679688 62.738281 41.5625 62.636719 41.460938 C 62.539062 41.359375 62.421875 41.28125 62.292969 41.226562 C 62.160156 41.167969 62.023438 41.140625 61.882812 41.136719 Z M 61.882812 41.136719 "/><path style=" stroke:none;fill-rule:nonzero;fill:#ffffff;fill-opacity:1;" d="M 58.039062 45.5 L 32.027344 45.5 C 31.886719 45.503906 31.75 45.535156 31.617188 45.589844 C 31.488281 45.648438 31.371094 45.726562 31.273438 45.828125 C 31.171875 45.929688 31.097656 46.046875 31.042969 46.175781 C 30.988281 46.308594 30.960938 46.445312 30.960938 46.589844 C 30.960938 46.730469 30.988281 46.867188 31.042969 47 C 31.097656 47.128906 31.171875 47.246094 31.273438 47.347656 C 31.371094 47.449219 31.488281 47.527344 31.617188 47.585938 C 31.75 47.640625 31.886719 47.671875 32.027344 47.675781 L 58.039062 47.675781 C 58.183594 47.671875 58.320312 47.640625 58.449219 47.585938 C 58.578125 47.527344 58.695312 47.449219 58.792969 47.347656 C 58.894531 47.246094 58.96875 47.128906 59.023438 47 C 59.078125 46.867188 59.105469 46.730469 59.105469 46.589844 C 59.105469 46.445312 59.078125 46.308594 59.023438 46.175781 C 58.96875 46.046875 58.894531 45.929688 58.792969 45.828125 C 58.695312 45.726562 58.578125 45.648438 58.449219 45.589844 C 58.320312 45.535156 58.183594 45.503906 58.039062 45.5 Z M 58.039062 45.5 "/><path style=" stroke:none;fill-rule:nonzero;fill:#ffffff;fill-opacity:1;" d="M 53.9375 49.867188 L 36.21875 49.867188 C 36.074219 49.867188 35.9375 49.898438 35.808594 49.953125 C 35.675781 50.011719 35.5625 50.089844 35.464844 50.191406 C 35.363281 50.292969 35.285156 50.410156 35.234375 50.542969 C 35.179688 50.671875 35.152344 50.808594 35.152344 50.953125 C 35.152344 51.09375 35.179688 51.230469 35.234375 51.363281 C 35.285156 51.496094 35.363281 51.613281 35.464844 51.710938 C 35.5625 51.8125 35.675781 51.894531 35.808594 51.949219 C 35.9375 52.007812 36.074219 52.035156 36.21875 52.039062 L 53.9375 52.039062 C 54.078125 52.035156 54.214844 52.007812 54.347656 51.949219 C 54.476562 51.894531 54.59375 51.8125 54.691406 51.710938 C 54.792969 51.609375 54.867188 51.496094 54.921875 51.363281 C 54.976562 51.230469 55.003906 51.09375 55.003906 50.953125 C 55.003906 50.808594 54.976562 50.671875 54.921875 50.542969 C 54.867188 50.410156 54.792969 50.292969 54.691406 50.191406 C 54.59375 50.089844 54.476562 50.011719 54.347656 49.953125 C 54.214844 49.898438 54.078125 49.867188 53.9375 49.867188 Z M 53.9375 49.867188 "/><path style=" stroke:none;fill-rule:nonzero;fill:#ffffff;fill-opacity:1;" d="M 49.398438 54.261719 L 40.667969 54.261719 C 40.527344 54.261719 40.390625 54.292969 40.261719 54.347656 C 40.128906 54.40625 40.015625 54.484375 39.914062 54.585938 C 39.816406 54.6875 39.738281 54.804688 39.683594 54.933594 C 39.632812 55.066406 39.605469 55.203125 39.605469 55.347656 C 39.605469 55.488281 39.632812 55.625 39.683594 55.757812 C 39.738281 55.890625 39.816406 56.003906 39.914062 56.105469 C 40.015625 56.207031 40.128906 56.289062 40.261719 56.34375 C 40.390625 56.398438 40.527344 56.429688 40.667969 56.433594 L 49.398438 56.433594 C 49.539062 56.429688 49.675781 56.398438 49.808594 56.34375 C 49.9375 56.289062 50.054688 56.207031 50.152344 56.105469 C 50.253906 56.003906 50.328125 55.890625 50.382812 55.757812 C 50.4375 55.625 50.464844 55.488281 50.464844 55.347656 C 50.464844 55.203125 50.4375 55.066406 50.382812 54.933594 C 50.328125 54.804688 50.253906 54.6875 50.152344 54.585938 C 50.054688 54.484375 49.9375 54.40625 49.808594 54.347656 C 49.675781 54.292969 49.539062 54.261719 49.398438 54.261719 Z M 49.398438 54.261719 "/><g clip-rule="nonzero" clip-path="url(#8077869895)"><path style=" stroke:none;fill-rule:nonzero;fill:#ffffff;fill-opacity:1;" d="M 46.722656 58.507812 L 43.347656 58.507812 C 43.203125 58.511719 43.066406 58.539062 42.9375 58.597656 C 42.804688 58.652344 42.691406 58.734375 42.589844 58.835938 C 42.492188 58.9375 42.414062 59.050781 42.359375 59.183594 C 42.308594 59.316406 42.28125 59.453125 42.28125 59.59375 C 42.28125 59.738281 42.308594 59.875 42.359375 60.007812 C 42.414062 60.136719 42.492188 60.253906 42.589844 60.355469 C 42.691406 60.457031 42.804688 60.535156 42.9375 60.59375 C 43.066406 60.648438 43.203125 60.679688 43.347656 60.679688 L 46.722656 60.679688 C 46.863281 60.679688 47 60.648438 47.128906 60.59375 C 47.261719 60.535156 47.375 60.457031 47.476562 60.355469 C 47.574219 60.253906 47.652344 60.136719 47.707031 60.003906 C 47.761719 59.875 47.785156 59.738281 47.785156 59.59375 C 47.785156 59.453125 47.761719 59.316406 47.707031 59.183594 C 47.652344 59.050781 47.574219 58.9375 47.476562 58.835938 C 47.375 58.734375 47.261719 58.652344 47.128906 58.597656 C 47 58.539062 46.863281 58.511719 46.722656 58.507812 Z M 46.722656 58.507812 "/></g><g transform="matrix(1,0,0,1,17,61)"><g clip-path="url(#f791f2a205)"><g style="fill:#ffffff;fill-opacity:1;"><g transform="translate(0.292307, 13.936352)"><path style="stroke:none" d="M 1.90625 0 L 1.078125 0 L 1.078125 -8.125 L 1.90625 -8.125 Z M 1.90625 0 "/></g></g><g style="fill:#ffffff;fill-opacity:1;"><g transform="translate(3.278969, 13.936352)"><path style="stroke:none" d="M 1.03125 -4.1875 C 1.03125 -4.65625 1.015625 -5.054688 0.984375 -5.390625 L 1.734375 -5.390625 C 1.765625 -5.003906 1.78125 -4.691406 1.78125 -4.453125 L 1.796875 -4.453125 C 1.898438 -4.660156 2.046875 -4.84375 2.234375 -5 C 2.429688 -5.15625 2.648438 -5.28125 2.890625 -5.375 C 3.140625 -5.46875 3.390625 -5.515625 3.640625 -5.515625 C 4.304688 -5.515625 4.8125 -5.3125 5.15625 -4.90625 C 5.507812 -4.507812 5.6875 -3.972656 5.6875 -3.296875 L 5.6875 0 L 4.90625 0 L 4.90625 -2.96875 C 4.90625 -3.570312 4.796875 -4.035156 4.578125 -4.359375 C 4.359375 -4.691406 3.984375 -4.859375 3.453125 -4.859375 C 3.160156 -4.859375 2.890625 -4.78125 2.640625 -4.625 C 2.398438 -4.46875 2.203125 -4.234375 2.046875 -3.921875 C 1.890625 -3.609375 1.8125 -3.21875 1.8125 -2.75 L 1.8125 0 L 1.03125 0 Z M 1.03125 -4.1875 "/></g></g><g style="fill:#ffffff;fill-opacity:1;"><g transform="translate(9.953001, 13.936352)"><path style="stroke:none" d="M 2.5625 0.140625 C 2.132812 0.140625 1.734375 0.0507812 1.359375 -0.125 C 0.984375 -0.300781 0.675781 -0.5625 0.4375 -0.90625 L 1.0625 -1.359375 C 1.207031 -1.117188 1.414062 -0.921875 1.6875 -0.765625 C 1.957031 -0.609375 2.242188 -0.53125 2.546875 -0.53125 C 2.910156 -0.53125 3.210938 -0.601562 3.453125 -0.75 C 3.691406 -0.894531 3.8125 -1.132812 3.8125 -1.46875 C 3.8125 -1.65625 3.75 -1.804688 3.625 -1.921875 C 3.507812 -2.046875 3.34375 -2.148438 3.125 -2.234375 C 2.90625 -2.328125 2.609375 -2.414062 2.234375 -2.5 C 1.953125 -2.570312 1.703125 -2.65625 1.484375 -2.75 C 1.265625 -2.84375 1.078125 -2.988281 0.921875 -3.1875 C 0.765625 -3.382812 0.6875 -3.640625 0.6875 -3.953125 C 0.6875 -4.296875 0.773438 -4.582031 0.953125 -4.8125 C 1.128906 -5.050781 1.363281 -5.226562 1.65625 -5.34375 C 1.945312 -5.457031 2.265625 -5.515625 2.609375 -5.515625 C 2.992188 -5.515625 3.359375 -5.425781 3.703125 -5.25 C 4.054688 -5.082031 4.316406 -4.847656 4.484375 -4.546875 L 3.890625 -4.09375 C 3.773438 -4.320312 3.597656 -4.503906 3.359375 -4.640625 C 3.128906 -4.785156 2.867188 -4.859375 2.578125 -4.859375 C 2.265625 -4.859375 1.992188 -4.785156 1.765625 -4.640625 C 1.546875 -4.503906 1.4375 -4.296875 1.4375 -4.015625 C 1.4375 -3.773438 1.535156 -3.582031 1.734375 -3.4375 C 1.929688 -3.300781 2.257812 -3.1875 2.71875 -3.09375 C 3.351562 -2.96875 3.820312 -2.773438 4.125 -2.515625 C 4.425781 -2.265625 4.578125 -1.9375 4.578125 -1.53125 C 4.578125 -1.132812 4.484375 -0.8125 4.296875 -0.5625 C 4.109375 -0.3125 3.859375 -0.128906 3.546875 -0.015625 C 3.242188 0.0859375 2.914062 0.140625 2.5625 0.140625 Z M 2.5625 0.140625 "/></g></g><g style="fill:#ffffff;fill-opacity:1;"><g transform="translate(15.053292, 13.936352)"><path style="stroke:none" d="M 1.03125 2.75 L 1.03125 -5.390625 L 1.8125 -5.390625 L 1.8125 -4.4375 L 1.84375 -4.4375 C 2.0625 -4.78125 2.351562 -5.046875 2.71875 -5.234375 C 3.082031 -5.421875 3.46875 -5.515625 3.875 -5.515625 C 4.414062 -5.515625 4.894531 -5.390625 5.3125 -5.140625 C 5.738281 -4.890625 6.066406 -4.550781 6.296875 -4.125 C 6.535156 -3.695312 6.65625 -3.21875 6.65625 -2.6875 C 6.65625 -2.15625 6.535156 -1.675781 6.296875 -1.25 C 6.066406 -0.820312 5.738281 -0.484375 5.3125 -0.234375 C 4.894531 0.015625 4.414062 0.140625 3.875 0.140625 C 3.476562 0.140625 3.097656 0.0507812 2.734375 -0.125 C 2.367188 -0.3125 2.070312 -0.570312 1.84375 -0.90625 L 1.8125 -0.90625 L 1.8125 2.75 Z M 3.796875 -0.53125 C 4.210938 -0.53125 4.570312 -0.625 4.875 -0.8125 C 5.1875 -1.007812 5.421875 -1.269531 5.578125 -1.59375 C 5.742188 -1.914062 5.828125 -2.28125 5.828125 -2.6875 C 5.828125 -3.09375 5.742188 -3.457031 5.578125 -3.78125 C 5.421875 -4.113281 5.1875 -4.375 4.875 -4.5625 C 4.570312 -4.757812 4.210938 -4.859375 3.796875 -4.859375 C 3.390625 -4.859375 3.03125 -4.757812 2.71875 -4.5625 C 2.40625 -4.375 2.160156 -4.113281 1.984375 -3.78125 C 1.804688 -3.457031 1.71875 -3.09375 1.71875 -2.6875 C 1.71875 -2.28125 1.804688 -1.910156 1.984375 -1.578125 C 2.160156 -1.253906 2.40625 -1 2.71875 -0.8125 C 3.03125 -0.625 3.390625 -0.53125 3.796875 -0.53125 Z M 3.796875 -0.53125 "/></g></g><g style="fill:#ffffff;fill-opacity:1;"><g transform="translate(22.347636, 13.936352)"><path style="stroke:none" d="M 1.4375 -6.890625 C 1.289062 -6.890625 1.160156 -6.941406 1.046875 -7.046875 C 0.941406 -7.160156 0.890625 -7.289062 0.890625 -7.4375 C 0.890625 -7.59375 0.941406 -7.722656 1.046875 -7.828125 C 1.160156 -7.941406 1.289062 -8 1.4375 -8 C 1.582031 -8 1.707031 -7.941406 1.8125 -7.828125 C 1.925781 -7.722656 1.984375 -7.59375 1.984375 -7.4375 C 1.984375 -7.289062 1.925781 -7.160156 1.8125 -7.046875 C 1.707031 -6.941406 1.582031 -6.890625 1.4375 -6.890625 Z M 1.828125 0 L 1.046875 0 L 1.046875 -5.390625 L 1.828125 -5.390625 Z M 1.828125 0 "/></g></g><g style="fill:#ffffff;fill-opacity:1;"><g transform="translate(25.219423, 13.936352)"><path style="stroke:none" d="M 1.03125 -4.1875 C 1.03125 -4.65625 1.015625 -5.054688 0.984375 -5.390625 L 1.734375 -5.390625 C 1.765625 -5.003906 1.78125 -4.691406 1.78125 -4.453125 L 1.796875 -4.453125 C 1.953125 -4.765625 2.1875 -5.019531 2.5 -5.21875 C 2.8125 -5.414062 3.15625 -5.515625 3.53125 -5.515625 C 3.726562 -5.515625 3.898438 -5.492188 4.046875 -5.453125 L 3.9375 -4.71875 C 3.894531 -4.738281 3.816406 -4.753906 3.703125 -4.765625 C 3.585938 -4.773438 3.484375 -4.78125 3.390625 -4.78125 C 3.097656 -4.78125 2.832031 -4.707031 2.59375 -4.5625 C 2.351562 -4.425781 2.160156 -4.207031 2.015625 -3.90625 C 1.878906 -3.601562 1.8125 -3.21875 1.8125 -2.75 L 1.8125 0 L 1.03125 0 Z M 1.03125 -4.1875 "/></g></g><g style="fill:#ffffff;fill-opacity:1;"><g transform="translate(29.354794, 13.936352)"><path style="stroke:none" d="M 2.484375 0.140625 C 2.191406 0.140625 1.898438 0.0859375 1.609375 -0.015625 C 1.328125 -0.128906 1.09375 -0.3125 0.90625 -0.5625 C 0.71875 -0.8125 0.625 -1.125 0.625 -1.5 C 0.625 -2.007812 0.789062 -2.394531 1.125 -2.65625 C 1.457031 -2.925781 1.882812 -3.097656 2.40625 -3.171875 C 2.9375 -3.253906 3.59375 -3.296875 4.375 -3.296875 L 4.421875 -3.296875 L 4.421875 -3.46875 C 4.421875 -3.925781 4.296875 -4.269531 4.046875 -4.5 C 3.804688 -4.738281 3.453125 -4.859375 2.984375 -4.859375 C 2.679688 -4.859375 2.382812 -4.800781 2.09375 -4.6875 C 1.8125 -4.570312 1.578125 -4.414062 1.390625 -4.21875 L 0.953125 -4.75 C 1.179688 -4.976562 1.476562 -5.160156 1.84375 -5.296875 C 2.21875 -5.441406 2.625 -5.515625 3.0625 -5.515625 C 3.457031 -5.515625 3.8125 -5.441406 4.125 -5.296875 C 4.445312 -5.148438 4.695312 -4.925781 4.875 -4.625 C 5.0625 -4.332031 5.15625 -3.976562 5.15625 -3.5625 L 5.15625 -1.203125 C 5.15625 -0.992188 5.160156 -0.773438 5.171875 -0.546875 C 5.191406 -0.328125 5.21875 -0.144531 5.25 0 L 4.546875 0 C 4.492188 -0.300781 4.46875 -0.59375 4.46875 -0.875 L 4.4375 -0.875 C 4.195312 -0.519531 3.921875 -0.257812 3.609375 -0.09375 C 3.296875 0.0625 2.921875 0.140625 2.484375 0.140625 Z M 2.703125 -0.5 C 3.054688 -0.5 3.363281 -0.578125 3.625 -0.734375 C 3.882812 -0.898438 4.082031 -1.117188 4.21875 -1.390625 C 4.351562 -1.660156 4.421875 -1.957031 4.421875 -2.28125 L 4.421875 -2.6875 L 4.1875 -2.6875 C 3.375 -2.6875 2.710938 -2.609375 2.203125 -2.453125 C 1.691406 -2.296875 1.4375 -1.988281 1.4375 -1.53125 C 1.4375 -1.175781 1.554688 -0.914062 1.796875 -0.75 C 2.046875 -0.582031 2.347656 -0.5 2.703125 -0.5 Z M 2.703125 -0.5 "/></g></g><g style="fill:#ffffff;fill-opacity:1;"><g transform="translate(35.488929, 13.936352)"><path style="stroke:none" d="M 2.53125 0.0625 C 2.164062 0.0625 1.84375 -0.0390625 1.5625 -0.25 C 1.289062 -0.46875 1.15625 -0.835938 1.15625 -1.359375 L 1.15625 -4.734375 L 0.046875 -4.734375 L 0.046875 -5.390625 L 1.15625 -5.390625 L 1.15625 -6.890625 L 1.9375 -6.890625 L 1.9375 -5.390625 L 3.453125 -5.390625 L 3.453125 -4.734375 L 1.9375 -4.734375 L 1.9375 -1.578125 C 1.9375 -1.203125 2.003906 -0.941406 2.140625 -0.796875 C 2.285156 -0.660156 2.488281 -0.59375 2.75 -0.59375 C 2.851562 -0.59375 2.960938 -0.609375 3.078125 -0.640625 C 3.203125 -0.671875 3.316406 -0.710938 3.421875 -0.765625 L 3.453125 -0.09375 C 3.171875 0.0078125 2.863281 0.0625 2.53125 0.0625 Z M 2.53125 0.0625 "/></g></g><g style="fill:#ffffff;fill-opacity:1;"><g transform="translate(39.130355, 13.936352)"><path style="stroke:none" d="M 1.4375 -6.890625 C 1.289062 -6.890625 1.160156 -6.941406 1.046875 -7.046875 C 0.941406 -7.160156 0.890625 -7.289062 0.890625 -7.4375 C 0.890625 -7.59375 0.941406 -7.722656 1.046875 -7.828125 C 1.160156 -7.941406 1.289062 -8 1.4375 -8 C 1.582031 -8 1.707031 -7.941406 1.8125 -7.828125 C 1.925781 -7.722656 1.984375 -7.59375 1.984375 -7.4375 C 1.984375 -7.289062 1.925781 -7.160156 1.8125 -7.046875 C 1.707031 -6.941406 1.582031 -6.890625 1.4375 -6.890625 Z M 1.828125 0 L 1.046875 0 L 1.046875 -5.390625 L 1.828125 -5.390625 Z M 1.828125 0 "/></g></g><g style="fill:#ffffff;fill-opacity:1;"><g transform="translate(42.002142, 13.936352)"><path style="stroke:none" d="M 3.5 0.140625 C 2.957031 0.140625 2.46875 0.0195312 2.03125 -0.21875 C 1.59375 -0.46875 1.25 -0.804688 1 -1.234375 C 0.757812 -1.671875 0.640625 -2.15625 0.640625 -2.6875 C 0.640625 -3.21875 0.757812 -3.695312 1 -4.125 C 1.25 -4.5625 1.59375 -4.898438 2.03125 -5.140625 C 2.46875 -5.390625 2.957031 -5.515625 3.5 -5.515625 C 4.050781 -5.515625 4.546875 -5.390625 4.984375 -5.140625 C 5.421875 -4.898438 5.757812 -4.5625 6 -4.125 C 6.25 -3.695312 6.375 -3.21875 6.375 -2.6875 C 6.375 -2.15625 6.25 -1.671875 6 -1.234375 C 5.757812 -0.804688 5.421875 -0.46875 4.984375 -0.21875 C 4.546875 0.0195312 4.050781 0.140625 3.5 0.140625 Z M 3.5 -0.53125 C 3.90625 -0.53125 4.265625 -0.625 4.578125 -0.8125 C 4.890625 -1.007812 5.128906 -1.269531 5.296875 -1.59375 C 5.460938 -1.914062 5.546875 -2.28125 5.546875 -2.6875 C 5.546875 -3.09375 5.460938 -3.457031 5.296875 -3.78125 C 5.128906 -4.113281 4.890625 -4.375 4.578125 -4.5625 C 4.265625 -4.757812 3.90625 -4.859375 3.5 -4.859375 C 3.09375 -4.859375 2.734375 -4.757812 2.421875 -4.5625 C 2.117188 -4.375 1.882812 -4.113281 1.71875 -3.78125 C 1.550781 -3.457031 1.46875 -3.09375 1.46875 -2.6875 C 1.46875 -2.28125 1.550781 -1.914062 1.71875 -1.59375 C 1.882812 -1.269531 2.117188 -1.007812 2.421875 -0.8125 C 2.734375 -0.625 3.09375 -0.53125 3.5 -0.53125 Z M 3.5 -0.53125 "/></g></g><g style="fill:#ffffff;fill-opacity:1;"><g transform="translate(49.020791, 13.936352)"><path style="stroke:none" d="M 1.03125 -4.1875 C 1.03125 -4.65625 1.015625 -5.054688 0.984375 -5.390625 L 1.734375 -5.390625 C 1.765625 -5.003906 1.78125 -4.691406 1.78125 -4.453125 L 1.796875 -4.453125 C 1.898438 -4.660156 2.046875 -4.84375 2.234375 -5 C 2.429688 -5.15625 2.648438 -5.28125 2.890625 -5.375 C 3.140625 -5.46875 3.390625 -5.515625 3.640625 -5.515625 C 4.304688 -5.515625 4.8125 -5.3125 5.15625 -4.90625 C 5.507812 -4.507812 5.6875 -3.972656 5.6875 -3.296875 L 5.6875 0 L 4.90625 0 L 4.90625 -2.96875 C 4.90625 -3.570312 4.796875 -4.035156 4.578125 -4.359375 C 4.359375 -4.691406 3.984375 -4.859375 3.453125 -4.859375 C 3.160156 -4.859375 2.890625 -4.78125 2.640625 -4.625 C 2.398438 -4.46875 2.203125 -4.234375 2.046875 -3.921875 C 1.890625 -3.609375 1.8125 -3.21875 1.8125 -2.75 L 1.8125 0 L 1.03125 0 Z M 1.03125 -4.1875 "/></g></g></g></g><g transform="matrix(1,0,0,1,22,79)"><g clip-path="url(#6c03666d4d)"><g clip-rule="nonzero" clip-path="url(#6007c19f12)"><g style="fill:#ffffff;fill-opacity:1;"><g transform="translate(0.387399, 6.242879)"><path style="stroke:none" d="M 1.34375 0.09375 C 1.125 0.09375 0.914062 0.0507812 0.71875 -0.03125 C 0.519531 -0.125 0.363281 -0.253906 0.25 -0.421875 L 0.546875 -0.65625 C 0.628906 -0.519531 0.738281 -0.410156 0.875 -0.328125 C 1.019531 -0.253906 1.175781 -0.21875 1.34375 -0.21875 C 1.46875 -0.21875 1.585938 -0.242188 1.703125 -0.296875 C 1.828125 -0.347656 1.925781 -0.421875 2 -0.515625 C 2.082031 -0.617188 2.125 -0.742188 2.125 -0.890625 C 2.125 -1.046875 2.082031 -1.164062 2 -1.25 C 1.925781 -1.34375 1.832031 -1.414062 1.71875 -1.46875 C 1.613281 -1.519531 1.460938 -1.578125 1.265625 -1.640625 C 1.078125 -1.703125 0.914062 -1.765625 0.78125 -1.828125 C 0.65625 -1.898438 0.546875 -2 0.453125 -2.125 C 0.367188 -2.25 0.328125 -2.410156 0.328125 -2.609375 C 0.328125 -2.828125 0.382812 -3.003906 0.5 -3.140625 C 0.613281 -3.285156 0.753906 -3.394531 0.921875 -3.46875 C 1.085938 -3.539062 1.265625 -3.578125 1.453125 -3.578125 C 1.671875 -3.578125 1.863281 -3.535156 2.03125 -3.453125 C 2.207031 -3.367188 2.34375 -3.269531 2.4375 -3.15625 L 2.15625 -2.921875 C 2.070312 -3.035156 1.96875 -3.117188 1.84375 -3.171875 C 1.726562 -3.234375 1.59375 -3.265625 1.4375 -3.265625 C 1.3125 -3.265625 1.191406 -3.238281 1.078125 -3.1875 C 0.960938 -3.144531 0.867188 -3.070312 0.796875 -2.96875 C 0.722656 -2.875 0.6875 -2.757812 0.6875 -2.625 C 0.6875 -2.476562 0.71875 -2.363281 0.78125 -2.28125 C 0.851562 -2.195312 0.9375 -2.128906 1.03125 -2.078125 C 1.132812 -2.035156 1.273438 -1.988281 1.453125 -1.9375 C 1.679688 -1.863281 1.859375 -1.789062 1.984375 -1.71875 C 2.117188 -1.65625 2.234375 -1.554688 2.328125 -1.421875 C 2.429688 -1.296875 2.484375 -1.128906 2.484375 -0.921875 C 2.484375 -0.691406 2.425781 -0.503906 2.3125 -0.359375 C 2.207031 -0.210938 2.066406 -0.0976562 1.890625 -0.015625 C 1.722656 0.0546875 1.539062 0.09375 1.34375 0.09375 Z M 1.34375 0.09375 "/></g></g></g><g style="fill:#ffffff;fill-opacity:1;"><g transform="translate(3.165662, 6.242879)"><path style="stroke:none" d="M 0.4375 1.1875 L 0.4375 -2.3125 L 0.78125 -2.3125 L 0.78125 -1.90625 L 0.796875 -1.90625 C 0.890625 -2.050781 1.015625 -2.160156 1.171875 -2.234375 C 1.328125 -2.316406 1.488281 -2.359375 1.65625 -2.359375 C 1.894531 -2.359375 2.101562 -2.304688 2.28125 -2.203125 C 2.457031 -2.097656 2.59375 -1.953125 2.6875 -1.765625 C 2.789062 -1.578125 2.84375 -1.375 2.84375 -1.15625 C 2.84375 -0.925781 2.789062 -0.71875 2.6875 -0.53125 C 2.59375 -0.351562 2.457031 -0.207031 2.28125 -0.09375 C 2.101562 0.0078125 1.894531 0.0625 1.65625 0.0625 C 1.488281 0.0625 1.328125 0.0234375 1.171875 -0.046875 C 1.015625 -0.128906 0.890625 -0.242188 0.796875 -0.390625 L 0.78125 -0.390625 L 0.78125 1.1875 Z M 1.625 -0.21875 C 1.800781 -0.21875 1.953125 -0.257812 2.078125 -0.34375 C 2.210938 -0.425781 2.316406 -0.535156 2.390625 -0.671875 C 2.460938 -0.816406 2.5 -0.976562 2.5 -1.15625 C 2.5 -1.320312 2.460938 -1.472656 2.390625 -1.609375 C 2.316406 -1.753906 2.210938 -1.867188 2.078125 -1.953125 C 1.953125 -2.035156 1.800781 -2.078125 1.625 -2.078125 C 1.457031 -2.078125 1.304688 -2.035156 1.171875 -1.953125 C 1.035156 -1.867188 0.925781 -1.753906 0.84375 -1.609375 C 0.769531 -1.472656 0.734375 -1.320312 0.734375 -1.15625 C 0.734375 -0.976562 0.769531 -0.816406 0.84375 -0.671875 C 0.925781 -0.535156 1.035156 -0.425781 1.171875 -0.34375 C 1.304688 -0.257812 1.457031 -0.21875 1.625 -0.21875 Z M 1.625 -0.21875 "/></g></g><g style="fill:#ffffff;fill-opacity:1;"><g transform="translate(6.29367, 6.242879)"><path style="stroke:none" d="M 1.0625 0.0625 C 0.9375 0.0625 0.8125 0.0390625 0.6875 0 C 0.570312 -0.0507812 0.472656 -0.128906 0.390625 -0.234375 C 0.304688 -0.347656 0.265625 -0.484375 0.265625 -0.640625 C 0.265625 -0.859375 0.335938 -1.023438 0.484375 -1.140625 C 0.628906 -1.253906 0.8125 -1.328125 1.03125 -1.359375 C 1.257812 -1.390625 1.539062 -1.40625 1.875 -1.40625 L 1.890625 -1.40625 L 1.890625 -1.484375 C 1.890625 -1.679688 1.835938 -1.828125 1.734375 -1.921875 C 1.628906 -2.023438 1.476562 -2.078125 1.28125 -2.078125 C 1.144531 -2.078125 1.015625 -2.050781 0.890625 -2 C 0.773438 -1.957031 0.675781 -1.894531 0.59375 -1.8125 L 0.40625 -2.03125 C 0.507812 -2.132812 0.640625 -2.210938 0.796875 -2.265625 C 0.953125 -2.328125 1.125 -2.359375 1.3125 -2.359375 C 1.476562 -2.359375 1.628906 -2.328125 1.765625 -2.265625 C 1.898438 -2.203125 2.003906 -2.109375 2.078125 -1.984375 C 2.160156 -1.859375 2.203125 -1.707031 2.203125 -1.53125 L 2.203125 -0.515625 C 2.203125 -0.421875 2.207031 -0.328125 2.21875 -0.234375 C 2.226562 -0.140625 2.238281 -0.0625 2.25 0 L 1.953125 0 C 1.929688 -0.132812 1.921875 -0.257812 1.921875 -0.375 L 1.90625 -0.375 C 1.800781 -0.21875 1.679688 -0.101562 1.546875 -0.03125 C 1.410156 0.03125 1.25 0.0625 1.0625 0.0625 Z M 1.15625 -0.21875 C 1.3125 -0.21875 1.441406 -0.25 1.546875 -0.3125 C 1.660156 -0.382812 1.742188 -0.476562 1.796875 -0.59375 C 1.859375 -0.707031 1.890625 -0.835938 1.890625 -0.984375 L 1.890625 -1.15625 L 1.796875 -1.15625 C 1.453125 -1.15625 1.164062 -1.117188 0.9375 -1.046875 C 0.71875 -0.984375 0.609375 -0.851562 0.609375 -0.65625 C 0.609375 -0.5 0.660156 -0.382812 0.765625 -0.3125 C 0.878906 -0.25 1.007812 -0.21875 1.15625 -0.21875 Z M 1.15625 -0.21875 "/></g></g><g style="fill:#ffffff;fill-opacity:1;"><g transform="translate(8.924154, 6.242879)"><path style="stroke:none" d="M 0.4375 -1.796875 C 0.4375 -1.992188 0.429688 -2.164062 0.421875 -2.3125 L 0.75 -2.3125 C 0.757812 -2.144531 0.765625 -2.007812 0.765625 -1.90625 C 0.835938 -2.039062 0.9375 -2.148438 1.0625 -2.234375 C 1.195312 -2.316406 1.347656 -2.359375 1.515625 -2.359375 C 1.597656 -2.359375 1.671875 -2.351562 1.734375 -2.34375 L 1.6875 -2.015625 C 1.664062 -2.023438 1.628906 -2.03125 1.578125 -2.03125 C 1.535156 -2.039062 1.492188 -2.046875 1.453125 -2.046875 C 1.328125 -2.046875 1.210938 -2.015625 1.109375 -1.953125 C 1.003906 -1.890625 0.921875 -1.796875 0.859375 -1.671875 C 0.804688 -1.546875 0.78125 -1.382812 0.78125 -1.1875 L 0.78125 0 L 0.4375 0 Z M 0.4375 -1.796875 "/></g></g><g style="fill:#ffffff;fill-opacity:1;"><g transform="translate(10.697516, 6.242879)"><path style="stroke:none" d="M 0.78125 0 L 0.453125 0 L 0.453125 -3.71875 L 0.78125 -3.71875 L 0.78125 -1.265625 L 0.796875 -1.265625 L 1.859375 -2.3125 L 2.34375 -2.3125 L 1.1875 -1.25 L 2.46875 0 L 1.96875 0 L 0.796875 -1.203125 L 0.78125 -1.203125 Z M 0.78125 0 "/></g></g><g style="fill:#ffffff;fill-opacity:1;"><g transform="translate(13.209772, 6.242879)"><path style="stroke:none" d=""/></g></g><g style="fill:#ffffff;fill-opacity:1;"><g transform="translate(14.441269, 6.242879)"><path style="stroke:none" d="M 1.5 0.0625 C 1.257812 0.0625 1.046875 0.0078125 0.859375 -0.09375 C 0.671875 -0.195312 0.523438 -0.34375 0.421875 -0.53125 C 0.328125 -0.71875 0.28125 -0.925781 0.28125 -1.15625 C 0.28125 -1.382812 0.328125 -1.585938 0.421875 -1.765625 C 0.523438 -1.953125 0.671875 -2.097656 0.859375 -2.203125 C 1.046875 -2.304688 1.257812 -2.359375 1.5 -2.359375 C 1.664062 -2.359375 1.828125 -2.320312 1.984375 -2.25 C 2.140625 -2.1875 2.265625 -2.09375 2.359375 -1.96875 L 2.109375 -1.78125 C 2.046875 -1.863281 1.960938 -1.929688 1.859375 -1.984375 C 1.753906 -2.046875 1.640625 -2.078125 1.515625 -2.078125 C 1.335938 -2.078125 1.179688 -2.035156 1.046875 -1.953125 C 0.910156 -1.878906 0.804688 -1.769531 0.734375 -1.625 C 0.660156 -1.476562 0.625 -1.320312 0.625 -1.15625 C 0.625 -0.976562 0.660156 -0.816406 0.734375 -0.671875 C 0.804688 -0.535156 0.910156 -0.425781 1.046875 -0.34375 C 1.179688 -0.257812 1.332031 -0.21875 1.5 -0.21875 C 1.769531 -0.21875 1.976562 -0.320312 2.125 -0.53125 L 2.375 -0.34375 C 2.164062 -0.0703125 1.875 0.0625 1.5 0.0625 Z M 1.5 0.0625 "/></g></g><g style="fill:#ffffff;fill-opacity:1;"><g transform="translate(16.904268, 6.242879)"><path style="stroke:none" d="M 0.4375 -1.796875 C 0.4375 -1.992188 0.429688 -2.164062 0.421875 -2.3125 L 0.75 -2.3125 C 0.757812 -2.144531 0.765625 -2.007812 0.765625 -1.90625 C 0.835938 -2.039062 0.9375 -2.148438 1.0625 -2.234375 C 1.195312 -2.316406 1.347656 -2.359375 1.515625 -2.359375 C 1.597656 -2.359375 1.671875 -2.351562 1.734375 -2.34375 L 1.6875 -2.015625 C 1.664062 -2.023438 1.628906 -2.03125 1.578125 -2.03125 C 1.535156 -2.039062 1.492188 -2.046875 1.453125 -2.046875 C 1.328125 -2.046875 1.210938 -2.015625 1.109375 -1.953125 C 1.003906 -1.890625 0.921875 -1.796875 0.859375 -1.671875 C 0.804688 -1.546875 0.78125 -1.382812 0.78125 -1.1875 L 0.78125 0 L 0.4375 0 Z M 0.4375 -1.796875 "/></g></g><g style="fill:#ffffff;fill-opacity:1;"><g transform="translate(18.677629, 6.242879)"><path style="stroke:none" d="M 1.46875 0.0625 C 1.238281 0.0625 1.03125 0.0078125 0.84375 -0.09375 C 0.664062 -0.195312 0.523438 -0.34375 0.421875 -0.53125 C 0.328125 -0.71875 0.28125 -0.925781 0.28125 -1.15625 C 0.28125 -1.375 0.328125 -1.578125 0.421875 -1.765625 C 0.523438 -1.953125 0.664062 -2.097656 0.84375 -2.203125 C 1.019531 -2.304688 1.21875 -2.359375 1.4375 -2.359375 C 1.664062 -2.359375 1.863281 -2.304688 2.03125 -2.203125 C 2.195312 -2.109375 2.320312 -1.972656 2.40625 -1.796875 C 2.5 -1.628906 2.546875 -1.4375 2.546875 -1.21875 C 2.546875 -1.15625 2.539062 -1.101562 2.53125 -1.0625 L 0.625 -1.0625 C 0.625 -0.90625 0.660156 -0.765625 0.734375 -0.640625 C 0.804688 -0.515625 0.90625 -0.410156 1.03125 -0.328125 C 1.164062 -0.253906 1.3125 -0.21875 1.46875 -0.21875 C 1.625 -0.21875 1.769531 -0.253906 1.90625 -0.328125 C 2.039062 -0.410156 2.140625 -0.507812 2.203125 -0.625 L 2.453125 -0.421875 C 2.203125 -0.0976562 1.875 0.0625 1.46875 0.0625 Z M 2.203125 -1.328125 C 2.191406 -1.472656 2.15625 -1.601562 2.09375 -1.71875 C 2.039062 -1.832031 1.957031 -1.921875 1.84375 -1.984375 C 1.726562 -2.046875 1.59375 -2.078125 1.4375 -2.078125 C 1.289062 -2.078125 1.15625 -2.039062 1.03125 -1.96875 C 0.914062 -1.90625 0.820312 -1.816406 0.75 -1.703125 C 0.675781 -1.585938 0.632812 -1.460938 0.625 -1.328125 Z M 2.203125 -1.328125 "/></g></g><g style="fill:#ffffff;fill-opacity:1;"><g transform="translate(21.495297, 6.242879)"><path style="stroke:none" d="M 1.0625 0.0625 C 0.9375 0.0625 0.8125 0.0390625 0.6875 0 C 0.570312 -0.0507812 0.472656 -0.128906 0.390625 -0.234375 C 0.304688 -0.347656 0.265625 -0.484375 0.265625 -0.640625 C 0.265625 -0.859375 0.335938 -1.023438 0.484375 -1.140625 C 0.628906 -1.253906 0.8125 -1.328125 1.03125 -1.359375 C 1.257812 -1.390625 1.539062 -1.40625 1.875 -1.40625 L 1.890625 -1.40625 L 1.890625 -1.484375 C 1.890625 -1.679688 1.835938 -1.828125 1.734375 -1.921875 C 1.628906 -2.023438 1.476562 -2.078125 1.28125 -2.078125 C 1.144531 -2.078125 1.015625 -2.050781 0.890625 -2 C 0.773438 -1.957031 0.675781 -1.894531 0.59375 -1.8125 L 0.40625 -2.03125 C 0.507812 -2.132812 0.640625 -2.210938 0.796875 -2.265625 C 0.953125 -2.328125 1.125 -2.359375 1.3125 -2.359375 C 1.476562 -2.359375 1.628906 -2.328125 1.765625 -2.265625 C 1.898438 -2.203125 2.003906 -2.109375 2.078125 -1.984375 C 2.160156 -1.859375 2.203125 -1.707031 2.203125 -1.53125 L 2.203125 -0.515625 C 2.203125 -0.421875 2.207031 -0.328125 2.21875 -0.234375 C 2.226562 -0.140625 2.238281 -0.0625 2.25 0 L 1.953125 0 C 1.929688 -0.132812 1.921875 -0.257812 1.921875 -0.375 L 1.90625 -0.375 C 1.800781 -0.21875 1.679688 -0.101562 1.546875 -0.03125 C 1.410156 0.03125 1.25 0.0625 1.0625 0.0625 Z M 1.15625 -0.21875 C 1.3125 -0.21875 1.441406 -0.25 1.546875 -0.3125 C 1.660156 -0.382812 1.742188 -0.476562 1.796875 -0.59375 C 1.859375 -0.707031 1.890625 -0.835938 1.890625 -0.984375 L 1.890625 -1.15625 L 1.796875 -1.15625 C 1.453125 -1.15625 1.164062 -1.117188 0.9375 -1.046875 C 0.71875 -0.984375 0.609375 -0.851562 0.609375 -0.65625 C 0.609375 -0.5 0.660156 -0.382812 0.765625 -0.3125 C 0.878906 -0.25 1.007812 -0.21875 1.15625 -0.21875 Z M 1.15625 -0.21875 "/></g></g><g style="fill:#ffffff;fill-opacity:1;"><g transform="translate(24.125781, 6.242879)"><path style="stroke:none" d="M 1.09375 0.03125 C 0.925781 0.03125 0.785156 -0.015625 0.671875 -0.109375 C 0.554688 -0.203125 0.5 -0.359375 0.5 -0.578125 L 0.5 -2.03125 L 0.015625 -2.03125 L 0.015625 -2.3125 L 0.5 -2.3125 L 0.5 -2.953125 L 0.828125 -2.953125 L 0.828125 -2.3125 L 1.484375 -2.3125 L 1.484375 -2.03125 L 0.828125 -2.03125 L 0.828125 -0.671875 C 0.828125 -0.515625 0.859375 -0.40625 0.921875 -0.34375 C 0.984375 -0.28125 1.066406 -0.25 1.171875 -0.25 C 1.222656 -0.25 1.269531 -0.253906 1.3125 -0.265625 C 1.363281 -0.285156 1.414062 -0.304688 1.46875 -0.328125 L 1.484375 -0.046875 C 1.359375 0.00390625 1.226562 0.03125 1.09375 0.03125 Z M 1.09375 0.03125 "/></g></g><g style="fill:#ffffff;fill-opacity:1;"><g transform="translate(25.687323, 6.242879)"><path style="stroke:none" d="M 0.609375 -2.953125 C 0.546875 -2.953125 0.488281 -2.972656 0.4375 -3.015625 C 0.394531 -3.066406 0.375 -3.125 0.375 -3.1875 C 0.375 -3.25 0.394531 -3.300781 0.4375 -3.34375 C 0.488281 -3.394531 0.546875 -3.421875 0.609375 -3.421875 C 0.671875 -3.421875 0.722656 -3.394531 0.765625 -3.34375 C 0.816406 -3.300781 0.84375 -3.25 0.84375 -3.1875 C 0.84375 -3.125 0.816406 -3.066406 0.765625 -3.015625 C 0.722656 -2.972656 0.671875 -2.953125 0.609375 -2.953125 Z M 0.78125 0 L 0.453125 0 L 0.453125 -2.3125 L 0.78125 -2.3125 Z M 0.78125 0 "/></g></g><g style="fill:#ffffff;fill-opacity:1;"><g transform="translate(26.91882, 6.242879)"><path style="stroke:none" d="M 1.390625 0 L 1.015625 0 L 0.078125 -2.3125 L 0.453125 -2.3125 L 1.203125 -0.359375 L 1.96875 -2.3125 L 2.328125 -2.3125 Z M 1.390625 0 "/></g></g><g style="fill:#ffffff;fill-opacity:1;"><g transform="translate(29.322709, 6.242879)"><path style="stroke:none" d="M 0.609375 -2.953125 C 0.546875 -2.953125 0.488281 -2.972656 0.4375 -3.015625 C 0.394531 -3.066406 0.375 -3.125 0.375 -3.1875 C 0.375 -3.25 0.394531 -3.300781 0.4375 -3.34375 C 0.488281 -3.394531 0.546875 -3.421875 0.609375 -3.421875 C 0.671875 -3.421875 0.722656 -3.394531 0.765625 -3.34375 C 0.816406 -3.300781 0.84375 -3.25 0.84375 -3.1875 C 0.84375 -3.125 0.816406 -3.066406 0.765625 -3.015625 C 0.722656 -2.972656 0.671875 -2.953125 0.609375 -2.953125 Z M 0.78125 0 L 0.453125 0 L 0.453125 -2.3125 L 0.78125 -2.3125 Z M 0.78125 0 "/></g></g><g style="fill:#ffffff;fill-opacity:1;"><g transform="translate(30.554205, 6.242879)"><path style="stroke:none" d="M 1.09375 0.03125 C 0.925781 0.03125 0.785156 -0.015625 0.671875 -0.109375 C 0.554688 -0.203125 0.5 -0.359375 0.5 -0.578125 L 0.5 -2.03125 L 0.015625 -2.03125 L 0.015625 -2.3125 L 0.5 -2.3125 L 0.5 -2.953125 L 0.828125 -2.953125 L 0.828125 -2.3125 L 1.484375 -2.3125 L 1.484375 -2.03125 L 0.828125 -2.03125 L 0.828125 -0.671875 C 0.828125 -0.515625 0.859375 -0.40625 0.921875 -0.34375 C 0.984375 -0.28125 1.066406 -0.25 1.171875 -0.25 C 1.222656 -0.25 1.269531 -0.253906 1.3125 -0.265625 C 1.363281 -0.285156 1.414062 -0.304688 1.46875 -0.328125 L 1.484375 -0.046875 C 1.359375 0.00390625 1.226562 0.03125 1.09375 0.03125 Z M 1.09375 0.03125 "/></g></g><g style="fill:#ffffff;fill-opacity:1;"><g transform="translate(32.115748, 6.242879)"><path style="stroke:none" d="M 0.453125 1.1875 C 0.347656 1.1875 0.25 1.175781 0.15625 1.15625 L 0.1875 0.84375 C 0.269531 0.875 0.351562 0.890625 0.4375 0.890625 C 0.539062 0.890625 0.625 0.851562 0.6875 0.78125 C 0.757812 0.71875 0.820312 0.617188 0.875 0.484375 L 1.0625 0 L 0.078125 -2.3125 L 0.453125 -2.3125 L 1.234375 -0.359375 L 1.25 -0.359375 L 1.953125 -2.3125 L 2.328125 -2.3125 L 1.171875 0.59375 C 1.097656 0.789062 1.003906 0.9375 0.890625 1.03125 C 0.785156 1.132812 0.640625 1.1875 0.453125 1.1875 Z M 0.453125 1.1875 "/></g></g><g style="fill:#ffffff;fill-opacity:1;"><g transform="translate(34.519637, 6.242879)"><path style="stroke:none" d=""/></g></g><g style="fill:#ffffff;fill-opacity:1;"><g transform="translate(35.751133, 6.242879)"><path style="stroke:none" d="M 1.0625 0.0625 C 0.9375 0.0625 0.8125 0.0390625 0.6875 0 C 0.570312 -0.0507812 0.472656 -0.128906 0.390625 -0.234375 C 0.304688 -0.347656 0.265625 -0.484375 0.265625 -0.640625 C 0.265625 -0.859375 0.335938 -1.023438 0.484375 -1.140625 C 0.628906 -1.253906 0.8125 -1.328125 1.03125 -1.359375 C 1.257812 -1.390625 1.539062 -1.40625 1.875 -1.40625 L 1.890625 -1.40625 L 1.890625 -1.484375 C 1.890625 -1.679688 1.835938 -1.828125 1.734375 -1.921875 C 1.628906 -2.023438 1.476562 -2.078125 1.28125 -2.078125 C 1.144531 -2.078125 1.015625 -2.050781 0.890625 -2 C 0.773438 -1.957031 0.675781 -1.894531 0.59375 -1.8125 L 0.40625 -2.03125 C 0.507812 -2.132812 0.640625 -2.210938 0.796875 -2.265625 C 0.953125 -2.328125 1.125 -2.359375 1.3125 -2.359375 C 1.476562 -2.359375 1.628906 -2.328125 1.765625 -2.265625 C 1.898438 -2.203125 2.003906 -2.109375 2.078125 -1.984375 C 2.160156 -1.859375 2.203125 -1.707031 2.203125 -1.53125 L 2.203125 -0.515625 C 2.203125 -0.421875 2.207031 -0.328125 2.21875 -0.234375 C 2.226562 -0.140625 2.238281 -0.0625 2.25 0 L 1.953125 0 C 1.929688 -0.132812 1.921875 -0.257812 1.921875 -0.375 L 1.90625 -0.375 C 1.800781 -0.21875 1.679688 -0.101562 1.546875 -0.03125 C 1.410156 0.03125 1.25 0.0625 1.0625 0.0625 Z M 1.15625 -0.21875 C 1.3125 -0.21875 1.441406 -0.25 1.546875 -0.3125 C 1.660156 -0.382812 1.742188 -0.476562 1.796875 -0.59375 C 1.859375 -0.707031 1.890625 -0.835938 1.890625 -0.984375 L 1.890625 -1.15625 L 1.796875 -1.15625 C 1.453125 -1.15625 1.164062 -1.117188 0.9375 -1.046875 C 0.71875 -0.984375 0.609375 -0.851562 0.609375 -0.65625 C 0.609375 -0.5 0.660156 -0.382812 0.765625 -0.3125 C 0.878906 -0.25 1.007812 -0.21875 1.15625 -0.21875 Z M 1.15625 -0.21875 "/></g></g><g style="fill:#ffffff;fill-opacity:1;"><g transform="translate(38.381617, 6.242879)"><path style="stroke:none" d="M 0.4375 -1.796875 C 0.4375 -1.992188 0.429688 -2.164062 0.421875 -2.3125 L 0.75 -2.3125 C 0.757812 -2.144531 0.765625 -2.007812 0.765625 -1.90625 C 0.816406 -2 0.878906 -2.078125 0.953125 -2.140625 C 1.035156 -2.210938 1.128906 -2.265625 1.234375 -2.296875 C 1.335938 -2.335938 1.445312 -2.359375 1.5625 -2.359375 C 1.84375 -2.359375 2.054688 -2.269531 2.203125 -2.09375 C 2.359375 -1.925781 2.4375 -1.695312 2.4375 -1.40625 L 2.4375 0 L 2.109375 0 L 2.109375 -1.28125 C 2.109375 -1.53125 2.0625 -1.722656 1.96875 -1.859375 C 1.875 -2.003906 1.710938 -2.078125 1.484375 -2.078125 C 1.359375 -2.078125 1.238281 -2.039062 1.125 -1.96875 C 1.019531 -1.90625 0.9375 -1.804688 0.875 -1.671875 C 0.8125 -1.546875 0.78125 -1.382812 0.78125 -1.1875 L 0.78125 0 L 0.4375 0 Z M 0.4375 -1.796875 "/></g></g><g style="fill:#ffffff;fill-opacity:1;"><g transform="translate(41.243619, 6.242879)"><path style="stroke:none" d="M 1.46875 0.0625 C 1.238281 0.0625 1.03125 0.0078125 0.84375 -0.09375 C 0.664062 -0.207031 0.523438 -0.351562 0.421875 -0.53125 C 0.328125 -0.71875 0.28125 -0.925781 0.28125 -1.15625 C 0.28125 -1.375 0.328125 -1.578125 0.421875 -1.765625 C 0.523438 -1.953125 0.664062 -2.097656 0.84375 -2.203125 C 1.03125 -2.304688 1.238281 -2.359375 1.46875 -2.359375 C 1.632812 -2.359375 1.796875 -2.316406 1.953125 -2.234375 C 2.109375 -2.160156 2.238281 -2.050781 2.34375 -1.90625 L 2.34375 -3.71875 L 2.6875 -3.71875 L 2.6875 0 L 2.34375 0 L 2.34375 -0.390625 C 2.238281 -0.242188 2.109375 -0.128906 1.953125 -0.046875 C 1.796875 0.0234375 1.632812 0.0625 1.46875 0.0625 Z M 1.5 -0.21875 C 1.664062 -0.21875 1.816406 -0.257812 1.953125 -0.34375 C 2.085938 -0.425781 2.191406 -0.535156 2.265625 -0.671875 C 2.347656 -0.816406 2.390625 -0.976562 2.390625 -1.15625 C 2.390625 -1.320312 2.347656 -1.472656 2.265625 -1.609375 C 2.191406 -1.753906 2.085938 -1.867188 1.953125 -1.953125 C 1.816406 -2.035156 1.664062 -2.078125 1.5 -2.078125 C 1.320312 -2.078125 1.164062 -2.035156 1.03125 -1.953125 C 0.90625 -1.867188 0.804688 -1.753906 0.734375 -1.609375 C 0.660156 -1.472656 0.625 -1.320312 0.625 -1.15625 C 0.625 -0.976562 0.660156 -0.816406 0.734375 -0.671875 C 0.804688 -0.535156 0.90625 -0.425781 1.03125 -0.34375 C 1.164062 -0.257812 1.320312 -0.21875 1.5 -0.21875 Z M 1.5 -0.21875 "/></g></g><g style="fill:#ffffff;fill-opacity:1;"><g transform="translate(44.387518, 6.242879)"><path style="stroke:none" d=""/></g></g><g style="fill:#ffffff;fill-opacity:1;"><g transform="translate(5.922691, 12.810826)"><path style="stroke:none" d="M 0.4375 -1.796875 C 0.4375 -1.992188 0.429688 -2.164062 0.421875 -2.3125 L 0.75 -2.3125 C 0.757812 -2.144531 0.765625 -2.007812 0.765625 -1.90625 C 0.816406 -2 0.878906 -2.078125 0.953125 -2.140625 C 1.035156 -2.210938 1.128906 -2.265625 1.234375 -2.296875 C 1.335938 -2.335938 1.445312 -2.359375 1.5625 -2.359375 C 1.84375 -2.359375 2.054688 -2.269531 2.203125 -2.09375 C 2.359375 -1.925781 2.4375 -1.695312 2.4375 -1.40625 L 2.4375 0 L 2.109375 0 L 2.109375 -1.28125 C 2.109375 -1.53125 2.0625 -1.722656 1.96875 -1.859375 C 1.875 -2.003906 1.710938 -2.078125 1.484375 -2.078125 C 1.359375 -2.078125 1.238281 -2.039062 1.125 -1.96875 C 1.019531 -1.90625 0.9375 -1.804688 0.875 -1.671875 C 0.8125 -1.546875 0.78125 -1.382812 0.78125 -1.1875 L 0.78125 0 L 0.4375 0 Z M 0.4375 -1.796875 "/></g></g><g style="fill:#ffffff;fill-opacity:1;"><g transform="translate(8.784693, 12.810826)"><path style="stroke:none" d="M 1.46875 0.0625 C 1.238281 0.0625 1.03125 0.0078125 0.84375 -0.09375 C 0.664062 -0.195312 0.523438 -0.34375 0.421875 -0.53125 C 0.328125 -0.71875 0.28125 -0.925781 0.28125 -1.15625 C 0.28125 -1.375 0.328125 -1.578125 0.421875 -1.765625 C 0.523438 -1.953125 0.664062 -2.097656 0.84375 -2.203125 C 1.019531 -2.304688 1.21875 -2.359375 1.4375 -2.359375 C 1.664062 -2.359375 1.863281 -2.304688 2.03125 -2.203125 C 2.195312 -2.109375 2.320312 -1.972656 2.40625 -1.796875 C 2.5 -1.628906 2.546875 -1.4375 2.546875 -1.21875 C 2.546875 -1.15625 2.539062 -1.101562 2.53125 -1.0625 L 0.625 -1.0625 C 0.625 -0.90625 0.660156 -0.765625 0.734375 -0.640625 C 0.804688 -0.515625 0.90625 -0.410156 1.03125 -0.328125 C 1.164062 -0.253906 1.3125 -0.21875 1.46875 -0.21875 C 1.625 -0.21875 1.769531 -0.253906 1.90625 -0.328125 C 2.039062 -0.410156 2.140625 -0.507812 2.203125 -0.625 L 2.453125 -0.421875 C 2.203125 -0.0976562 1.875 0.0625 1.46875 0.0625 Z M 2.203125 -1.328125 C 2.191406 -1.472656 2.15625 -1.601562 2.09375 -1.71875 C 2.039062 -1.832031 1.957031 -1.921875 1.84375 -1.984375 C 1.726562 -2.046875 1.59375 -2.078125 1.4375 -2.078125 C 1.289062 -2.078125 1.15625 -2.039062 1.03125 -1.96875 C 0.914062 -1.90625 0.820312 -1.816406 0.75 -1.703125 C 0.675781 -1.585938 0.632812 -1.460938 0.625 -1.328125 Z M 2.203125 -1.328125 "/></g></g><g style="fill:#ffffff;fill-opacity:1;"><g transform="translate(11.602361, 12.810826)"><path style="stroke:none" d="M 1.21875 0 L 0.859375 0 L 0.125 -2.3125 L 0.484375 -2.3125 L 1.046875 -0.4375 L 1.671875 -2.3125 L 2 -2.3125 L 2.625 -0.4375 L 2.640625 -0.4375 L 3.1875 -2.3125 L 3.546875 -2.3125 L 2.8125 0 L 2.453125 0 L 1.828125 -1.875 Z M 1.21875 0 "/></g></g><g style="fill:#ffffff;fill-opacity:1;"><g transform="translate(15.277151, 12.810826)"><path style="stroke:none" d=""/></g></g><g style="fill:#ffffff;fill-opacity:1;"><g transform="translate(16.508648, 12.810826)"><path style="stroke:none" d="M 1.46875 0.0625 C 1.238281 0.0625 1.03125 0.0078125 0.84375 -0.09375 C 0.664062 -0.207031 0.523438 -0.351562 0.421875 -0.53125 C 0.328125 -0.71875 0.28125 -0.925781 0.28125 -1.15625 C 0.28125 -1.375 0.328125 -1.578125 0.421875 -1.765625 C 0.523438 -1.953125 0.664062 -2.097656 0.84375 -2.203125 C 1.03125 -2.304688 1.238281 -2.359375 1.46875 -2.359375 C 1.632812 -2.359375 1.796875 -2.316406 1.953125 -2.234375 C 2.109375 -2.160156 2.238281 -2.050781 2.34375 -1.90625 L 2.34375 -3.71875 L 2.6875 -3.71875 L 2.6875 0 L 2.34375 0 L 2.34375 -0.390625 C 2.238281 -0.242188 2.109375 -0.128906 1.953125 -0.046875 C 1.796875 0.0234375 1.632812 0.0625 1.46875 0.0625 Z M 1.5 -0.21875 C 1.664062 -0.21875 1.816406 -0.257812 1.953125 -0.34375 C 2.085938 -0.425781 2.191406 -0.535156 2.265625 -0.671875 C 2.347656 -0.816406 2.390625 -0.976562 2.390625 -1.15625 C 2.390625 -1.320312 2.347656 -1.472656 2.265625 -1.609375 C 2.191406 -1.753906 2.085938 -1.867188 1.953125 -1.953125 C 1.816406 -2.035156 1.664062 -2.078125 1.5 -2.078125 C 1.320312 -2.078125 1.164062 -2.035156 1.03125 -1.953125 C 0.90625 -1.867188 0.804688 -1.753906 0.734375 -1.609375 C 0.660156 -1.472656 0.625 -1.320312 0.625 -1.15625 C 0.625 -0.976562 0.660156 -0.816406 0.734375 -0.671875 C 0.804688 -0.535156 0.90625 -0.425781 1.03125 -0.34375 C 1.164062 -0.257812 1.320312 -0.21875 1.5 -0.21875 Z M 1.5 -0.21875 "/></g></g><g style="fill:#ffffff;fill-opacity:1;"><g transform="translate(19.646509, 12.810826)"><path style="stroke:none" d="M 0.609375 -2.953125 C 0.546875 -2.953125 0.488281 -2.972656 0.4375 -3.015625 C 0.394531 -3.066406 0.375 -3.125 0.375 -3.1875 C 0.375 -3.25 0.394531 -3.300781 0.4375 -3.34375 C 0.488281 -3.394531 0.546875 -3.421875 0.609375 -3.421875 C 0.671875 -3.421875 0.722656 -3.394531 0.765625 -3.34375 C 0.816406 -3.300781 0.84375 -3.25 0.84375 -3.1875 C 0.84375 -3.125 0.816406 -3.066406 0.765625 -3.015625 C 0.722656 -2.972656 0.671875 -2.953125 0.609375 -2.953125 Z M 0.78125 0 L 0.453125 0 L 0.453125 -2.3125 L 0.78125 -2.3125 Z M 0.78125 0 "/></g></g><g style="fill:#ffffff;fill-opacity:1;"><g transform="translate(20.878005, 12.810826)"><path style="stroke:none" d="M 0.4375 -1.796875 C 0.4375 -1.992188 0.429688 -2.164062 0.421875 -2.3125 L 0.75 -2.3125 C 0.757812 -2.144531 0.765625 -2.007812 0.765625 -1.90625 C 0.835938 -2.039062 0.9375 -2.148438 1.0625 -2.234375 C 1.195312 -2.316406 1.347656 -2.359375 1.515625 -2.359375 C 1.597656 -2.359375 1.671875 -2.351562 1.734375 -2.34375 L 1.6875 -2.015625 C 1.664062 -2.023438 1.628906 -2.03125 1.578125 -2.03125 C 1.535156 -2.039062 1.492188 -2.046875 1.453125 -2.046875 C 1.328125 -2.046875 1.210938 -2.015625 1.109375 -1.953125 C 1.003906 -1.890625 0.921875 -1.796875 0.859375 -1.671875 C 0.804688 -1.546875 0.78125 -1.382812 0.78125 -1.1875 L 0.78125 0 L 0.4375 0 Z M 0.4375 -1.796875 "/></g></g><g style="fill:#ffffff;fill-opacity:1;"><g transform="translate(22.651366, 12.810826)"><path style="stroke:none" d="M 1.46875 0.0625 C 1.238281 0.0625 1.03125 0.0078125 0.84375 -0.09375 C 0.664062 -0.195312 0.523438 -0.34375 0.421875 -0.53125 C 0.328125 -0.71875 0.28125 -0.925781 0.28125 -1.15625 C 0.28125 -1.375 0.328125 -1.578125 0.421875 -1.765625 C 0.523438 -1.953125 0.664062 -2.097656 0.84375 -2.203125 C 1.019531 -2.304688 1.21875 -2.359375 1.4375 -2.359375 C 1.664062 -2.359375 1.863281 -2.304688 2.03125 -2.203125 C 2.195312 -2.109375 2.320312 -1.972656 2.40625 -1.796875 C 2.5 -1.628906 2.546875 -1.4375 2.546875 -1.21875 C 2.546875 -1.15625 2.539062 -1.101562 2.53125 -1.0625 L 0.625 -1.0625 C 0.625 -0.90625 0.660156 -0.765625 0.734375 -0.640625 C 0.804688 -0.515625 0.90625 -0.410156 1.03125 -0.328125 C 1.164062 -0.253906 1.3125 -0.21875 1.46875 -0.21875 C 1.625 -0.21875 1.769531 -0.253906 1.90625 -0.328125 C 2.039062 -0.410156 2.140625 -0.507812 2.203125 -0.625 L 2.453125 -0.421875 C 2.203125 -0.0976562 1.875 0.0625 1.46875 0.0625 Z M 2.203125 -1.328125 C 2.191406 -1.472656 2.15625 -1.601562 2.09375 -1.71875 C 2.039062 -1.832031 1.957031 -1.921875 1.84375 -1.984375 C 1.726562 -2.046875 1.59375 -2.078125 1.4375 -2.078125 C 1.289062 -2.078125 1.15625 -2.039062 1.03125 -1.96875 C 0.914062 -1.90625 0.820312 -1.816406 0.75 -1.703125 C 0.675781 -1.585938 0.632812 -1.460938 0.625 -1.328125 Z M 2.203125 -1.328125 "/></g></g><g style="fill:#ffffff;fill-opacity:1;"><g transform="translate(25.469034, 12.810826)"><path style="stroke:none" d="M 1.5 0.0625 C 1.257812 0.0625 1.046875 0.0078125 0.859375 -0.09375 C 0.671875 -0.195312 0.523438 -0.34375 0.421875 -0.53125 C 0.328125 -0.71875 0.28125 -0.925781 0.28125 -1.15625 C 0.28125 -1.382812 0.328125 -1.585938 0.421875 -1.765625 C 0.523438 -1.953125 0.671875 -2.097656 0.859375 -2.203125 C 1.046875 -2.304688 1.257812 -2.359375 1.5 -2.359375 C 1.664062 -2.359375 1.828125 -2.320312 1.984375 -2.25 C 2.140625 -2.1875 2.265625 -2.09375 2.359375 -1.96875 L 2.109375 -1.78125 C 2.046875 -1.863281 1.960938 -1.929688 1.859375 -1.984375 C 1.753906 -2.046875 1.640625 -2.078125 1.515625 -2.078125 C 1.335938 -2.078125 1.179688 -2.035156 1.046875 -1.953125 C 0.910156 -1.878906 0.804688 -1.769531 0.734375 -1.625 C 0.660156 -1.476562 0.625 -1.320312 0.625 -1.15625 C 0.625 -0.976562 0.660156 -0.816406 0.734375 -0.671875 C 0.804688 -0.535156 0.910156 -0.425781 1.046875 -0.34375 C 1.179688 -0.257812 1.332031 -0.21875 1.5 -0.21875 C 1.769531 -0.21875 1.976562 -0.320312 2.125 -0.53125 L 2.375 -0.34375 C 2.164062 -0.0703125 1.875 0.0625 1.5 0.0625 Z M 1.5 0.0625 "/></g></g><g style="fill:#ffffff;fill-opacity:1;"><g transform="translate(27.932033, 12.810826)"><path style="stroke:none" d="M 1.09375 0.03125 C 0.925781 0.03125 0.785156 -0.015625 0.671875 -0.109375 C 0.554688 -0.203125 0.5 -0.359375 0.5 -0.578125 L 0.5 -2.03125 L 0.015625 -2.03125 L 0.015625 -2.3125 L 0.5 -2.3125 L 0.5 -2.953125 L 0.828125 -2.953125 L 0.828125 -2.3125 L 1.484375 -2.3125 L 1.484375 -2.03125 L 0.828125 -2.03125 L 0.828125 -0.671875 C 0.828125 -0.515625 0.859375 -0.40625 0.921875 -0.34375 C 0.984375 -0.28125 1.066406 -0.25 1.171875 -0.25 C 1.222656 -0.25 1.269531 -0.253906 1.3125 -0.265625 C 1.363281 -0.285156 1.414062 -0.304688 1.46875 -0.328125 L 1.484375 -0.046875 C 1.359375 0.00390625 1.226562 0.03125 1.09375 0.03125 Z M 1.09375 0.03125 "/></g></g><g style="fill:#ffffff;fill-opacity:1;"><g transform="translate(29.493576, 12.810826)"><path style="stroke:none" d="M 0.609375 -2.953125 C 0.546875 -2.953125 0.488281 -2.972656 0.4375 -3.015625 C 0.394531 -3.066406 0.375 -3.125 0.375 -3.1875 C 0.375 -3.25 0.394531 -3.300781 0.4375 -3.34375 C 0.488281 -3.394531 0.546875 -3.421875 0.609375 -3.421875 C 0.671875 -3.421875 0.722656 -3.394531 0.765625 -3.34375 C 0.816406 -3.300781 0.84375 -3.25 0.84375 -3.1875 C 0.84375 -3.125 0.816406 -3.066406 0.765625 -3.015625 C 0.722656 -2.972656 0.671875 -2.953125 0.609375 -2.953125 Z M 0.78125 0 L 0.453125 0 L 0.453125 -2.3125 L 0.78125 -2.3125 Z M 0.78125 0 "/></g></g><g style="fill:#ffffff;fill-opacity:1;"><g transform="translate(30.725072, 12.810826)"><path style="stroke:none" d="M 1.5 0.0625 C 1.269531 0.0625 1.0625 0.0078125 0.875 -0.09375 C 0.6875 -0.195312 0.539062 -0.34375 0.4375 -0.53125 C 0.332031 -0.71875 0.28125 -0.925781 0.28125 -1.15625 C 0.28125 -1.382812 0.332031 -1.585938 0.4375 -1.765625 C 0.539062 -1.953125 0.6875 -2.097656 0.875 -2.203125 C 1.0625 -2.304688 1.269531 -2.359375 1.5 -2.359375 C 1.738281 -2.359375 1.953125 -2.304688 2.140625 -2.203125 C 2.328125 -2.097656 2.472656 -1.953125 2.578125 -1.765625 C 2.679688 -1.585938 2.734375 -1.382812 2.734375 -1.15625 C 2.734375 -0.925781 2.679688 -0.71875 2.578125 -0.53125 C 2.472656 -0.34375 2.328125 -0.195312 2.140625 -0.09375 C 1.953125 0.0078125 1.738281 0.0625 1.5 0.0625 Z M 1.5 -0.21875 C 1.675781 -0.21875 1.828125 -0.257812 1.953125 -0.34375 C 2.085938 -0.425781 2.191406 -0.535156 2.265625 -0.671875 C 2.335938 -0.816406 2.375 -0.976562 2.375 -1.15625 C 2.375 -1.320312 2.335938 -1.472656 2.265625 -1.609375 C 2.191406 -1.753906 2.085938 -1.867188 1.953125 -1.953125 C 1.828125 -2.035156 1.675781 -2.078125 1.5 -2.078125 C 1.320312 -2.078125 1.164062 -2.035156 1.03125 -1.953125 C 0.90625 -1.867188 0.804688 -1.753906 0.734375 -1.609375 C 0.660156 -1.472656 0.625 -1.320312 0.625 -1.15625 C 0.625 -0.976562 0.660156 -0.816406 0.734375 -0.671875 C 0.804688 -0.535156 0.90625 -0.425781 1.03125 -0.34375 C 1.164062 -0.257812 1.320312 -0.21875 1.5 -0.21875 Z M 1.5 -0.21875 "/></g></g><g style="fill:#ffffff;fill-opacity:1;"><g transform="translate(33.734853, 12.810826)"><path style="stroke:none" d="M 0.4375 -1.796875 C 0.4375 -1.992188 0.429688 -2.164062 0.421875 -2.3125 L 0.75 -2.3125 C 0.757812 -2.144531 0.765625 -2.007812 0.765625 -1.90625 C 0.816406 -2 0.878906 -2.078125 0.953125 -2.140625 C 1.035156 -2.210938 1.128906 -2.265625 1.234375 -2.296875 C 1.335938 -2.335938 1.445312 -2.359375 1.5625 -2.359375 C 1.84375 -2.359375 2.054688 -2.269531 2.203125 -2.09375 C 2.359375 -1.925781 2.4375 -1.695312 2.4375 -1.40625 L 2.4375 0 L 2.109375 0 L 2.109375 -1.28125 C 2.109375 -1.53125 2.0625 -1.722656 1.96875 -1.859375 C 1.875 -2.003906 1.710938 -2.078125 1.484375 -2.078125 C 1.359375 -2.078125 1.238281 -2.039062 1.125 -1.96875 C 1.019531 -1.90625 0.9375 -1.804688 0.875 -1.671875 C 0.8125 -1.546875 0.78125 -1.382812 0.78125 -1.1875 L 0.78125 0 L 0.4375 0 Z M 0.4375 -1.796875 "/></g></g><g style="fill:#ffffff;fill-opacity:1;"><g transform="translate(36.596856, 12.810826)"><path style="stroke:none" d="M 1.09375 0.0625 C 0.914062 0.0625 0.742188 0.0234375 0.578125 -0.046875 C 0.421875 -0.128906 0.289062 -0.242188 0.1875 -0.390625 L 0.453125 -0.578125 C 0.515625 -0.472656 0.601562 -0.382812 0.71875 -0.3125 C 0.832031 -0.25 0.957031 -0.21875 1.09375 -0.21875 C 1.25 -0.21875 1.378906 -0.25 1.484375 -0.3125 C 1.585938 -0.382812 1.640625 -0.488281 1.640625 -0.625 C 1.640625 -0.707031 1.613281 -0.773438 1.5625 -0.828125 C 1.507812 -0.878906 1.4375 -0.921875 1.34375 -0.953125 C 1.25 -0.992188 1.117188 -1.035156 0.953125 -1.078125 C 0.835938 -1.109375 0.734375 -1.140625 0.640625 -1.171875 C 0.546875 -1.210938 0.460938 -1.273438 0.390625 -1.359375 C 0.328125 -1.441406 0.296875 -1.550781 0.296875 -1.6875 C 0.296875 -1.84375 0.332031 -1.96875 0.40625 -2.0625 C 0.476562 -2.164062 0.578125 -2.238281 0.703125 -2.28125 C 0.828125 -2.332031 0.96875 -2.359375 1.125 -2.359375 C 1.28125 -2.359375 1.429688 -2.320312 1.578125 -2.25 C 1.734375 -2.175781 1.847656 -2.078125 1.921875 -1.953125 L 1.671875 -1.75 C 1.617188 -1.851562 1.539062 -1.929688 1.4375 -1.984375 C 1.34375 -2.046875 1.234375 -2.078125 1.109375 -2.078125 C 0.972656 -2.078125 0.851562 -2.046875 0.75 -1.984375 C 0.65625 -1.929688 0.609375 -1.84375 0.609375 -1.71875 C 0.609375 -1.613281 0.648438 -1.53125 0.734375 -1.46875 C 0.828125 -1.414062 0.972656 -1.367188 1.171875 -1.328125 C 1.441406 -1.273438 1.640625 -1.191406 1.765625 -1.078125 C 1.898438 -0.972656 1.96875 -0.832031 1.96875 -0.65625 C 1.96875 -0.488281 1.925781 -0.347656 1.84375 -0.234375 C 1.757812 -0.128906 1.648438 -0.0507812 1.515625 0 C 1.390625 0.0390625 1.25 0.0625 1.09375 0.0625 Z M 1.09375 0.0625 "/></g></g><g style="fill:#ffffff;fill-opacity:1;"><g transform="translate(38.783996, 12.810826)"><path style="stroke:none" d="M 0.640625 0.03125 C 0.566406 0.03125 0.503906 0.00390625 0.453125 -0.046875 C 0.398438 -0.0976562 0.375 -0.160156 0.375 -0.234375 C 0.375 -0.304688 0.398438 -0.367188 0.453125 -0.421875 C 0.503906 -0.472656 0.566406 -0.5 0.640625 -0.5 C 0.710938 -0.5 0.773438 -0.472656 0.828125 -0.421875 C 0.878906 -0.367188 0.90625 -0.304688 0.90625 -0.234375 C 0.90625 -0.160156 0.878906 -0.0976562 0.828125 -0.046875 C 0.773438 0.00390625 0.710938 0.03125 0.640625 0.03125 Z M 0.640625 0.03125 "/></g></g></g></g></g></svg>