<svg xmlns="http://www.w3.org/2000/svg" xmlns:xlink="http://www.w3.org/1999/xlink" width="120" zoomAndPan="magnify" viewBox="0 0 90 104.999996" height="140" preserveAspectRatio="xMidYMid meet" version="1.2"><defs><clipPath id="cf49d063ca"><path d="M 22.90625 7.5 L 67.15625 7.5 L 67.15625 60 L 22.90625 60 Z M 22.90625 7.5 "/></clipPath><clipPath id="c414062bad"><rect x="0" width="63" y="0" height="21"/></clipPath><clipPath id="338c9a3d22"><path d="M 0.121094 2 L 3 2 L 3 7 L 0.121094 7 Z M 0.121094 2 "/></clipPath><clipPath id="2bce26ce95"><rect x="0" width="61" y="0" height="16"/></clipPath></defs><g id="6b269c7a17"><g clip-rule="nonzero" clip-path="url(#cf49d063ca)"><path style=" stroke:none;fill-rule:evenodd;fill:#ffffff;fill-opacity:1;" d="M 63.695312 17.617188 C 64.660156 17.617188 65.449219 18.40625 65.449219 19.375 C 65.449219 20.34375 64.660156 21.128906 63.695312 21.128906 C 62.726562 21.128906 61.9375 20.34375 61.9375 19.375 C 61.9375 18.40625 62.726562 17.617188 63.695312 17.617188 Z M 64.417969 35.238281 C 64.417969 37.191406 63.628906 38.976562 62.347656 40.273438 L 62.347656 39.566406 C 62.347656 37.605469 61.234375 35.890625 59.601562 35.035156 C 60.15625 34.449219 60.5 33.664062 60.5 32.789062 C 60.5 30.992188 59.035156 29.527344 57.238281 29.527344 C 55.441406 29.527344 53.976562 30.992188 53.976562 32.789062 C 53.976562 33.664062 54.316406 34.449219 54.875 35.035156 C 53.242188 35.890625 52.125 37.605469 52.125 39.566406 L 52.125 40.273438 C 50.847656 38.976562 50.058594 37.191406 50.058594 35.238281 C 50.058594 31.277344 53.277344 28.054688 57.238281 28.054688 C 61.199219 28.054688 64.417969 31.277344 64.417969 35.238281 Z M 55.570312 32.789062 C 55.570312 33.710938 56.320312 34.457031 57.238281 34.457031 C 58.15625 34.457031 58.902344 33.710938 58.902344 32.789062 C 58.902344 31.867188 58.15625 31.121094 57.238281 31.121094 C 56.320312 31.121094 55.570312 31.867188 55.570312 32.789062 Z M 53.722656 41.488281 C 55.898438 42.730469 58.578125 42.726562 60.753906 41.488281 L 60.753906 39.566406 C 60.753906 37.628906 59.175781 36.050781 57.238281 36.050781 C 55.296875 36.050781 53.722656 37.628906 53.722656 39.566406 Z M 49.644531 44.347656 L 51.464844 41.839844 C 50.613281 41.09375 49.902344 40.179688 49.390625 39.15625 L 40.691406 42.539062 C 40.972656 43.523438 41.074219 44.472656 41.011719 45.511719 L 45.28125 46.171875 C 45.980469 44.484375 47.886719 43.652344 49.644531 44.347656 Z M 48.375 49.210938 C 47.40625 49.210938 46.621094 48.421875 46.621094 47.453125 C 46.621094 46.484375 47.40625 45.699219 48.375 45.699219 C 49.34375 45.699219 50.132812 46.484375 50.132812 47.453125 C 50.132812 48.421875 49.34375 49.210938 48.375 49.210938 Z M 37.367188 49.984375 L 37.367188 49.285156 C 37.367188 47.3125 36.25 45.605469 34.617188 44.75 C 35.175781 44.167969 35.519531 43.375 35.519531 42.5 C 35.519531 40.703125 34.054688 39.238281 32.257812 39.238281 C 30.457031 39.238281 28.996094 40.703125 28.996094 42.5 C 28.996094 43.375 29.335938 44.167969 29.894531 44.75 C 28.261719 45.605469 27.144531 47.3125 27.144531 49.285156 L 27.144531 49.984375 C 25.867188 48.6875 25.078125 46.910156 25.078125 44.945312 C 25.078125 40.992188 28.296875 37.773438 32.257812 37.773438 C 36.214844 37.773438 39.4375 40.992188 39.4375 44.945312 C 39.4375 46.910156 38.648438 48.6875 37.367188 49.984375 Z M 44.171875 56.816406 C 44.171875 57.785156 43.386719 58.570312 42.417969 58.570312 C 41.449219 58.570312 40.664062 57.785156 40.664062 56.816406 C 40.664062 55.847656 41.449219 55.058594 42.417969 55.058594 C 43.386719 55.058594 44.171875 55.847656 44.171875 56.816406 Z M 30.589844 42.5 C 30.589844 43.421875 31.335938 44.167969 32.257812 44.167969 C 33.175781 44.167969 33.925781 43.421875 33.925781 42.5 C 33.925781 41.585938 33.175781 40.832031 32.257812 40.832031 C 31.335938 40.832031 30.589844 41.585938 30.589844 42.5 Z M 28.742188 51.207031 C 30.921875 52.433594 33.589844 52.4375 35.769531 51.207031 L 35.769531 49.285156 C 35.769531 47.339844 34.195312 45.765625 32.257812 45.765625 C 30.316406 45.765625 28.742188 47.339844 28.742188 49.285156 Z M 27.984375 28.621094 C 29.191406 27.890625 29.839844 26.453125 29.523438 25.027344 L 31.585938 24.011719 C 32.613281 25.671875 34.179688 26.972656 36.042969 27.660156 L 33.738281 36.300781 C 32.597656 36.109375 31.539062 36.132812 30.410156 36.371094 Z M 24.496094 25.753906 C 24.496094 26.722656 25.28125 27.511719 26.25 27.511719 C 27.21875 27.511719 28.007812 26.722656 28.007812 25.753906 C 28.007812 24.785156 27.21875 24 26.25 24 C 25.28125 24 24.496094 24.785156 24.496094 25.753906 Z M 39.0625 12.238281 C 35.105469 12.238281 31.882812 15.460938 31.882812 19.421875 C 31.882812 21.378906 32.675781 23.160156 33.953125 24.457031 L 33.953125 23.753906 C 33.953125 21.789062 35.070312 20.074219 36.703125 19.21875 C 36.144531 18.632812 35.800781 17.847656 35.800781 16.972656 C 35.800781 15.171875 37.265625 13.710938 39.0625 13.710938 C 40.863281 13.710938 42.324219 15.171875 42.324219 16.972656 C 42.324219 17.847656 41.984375 18.632812 41.425781 19.21875 C 43.058594 20.074219 44.175781 21.789062 44.175781 23.753906 L 44.175781 24.457031 C 45.453125 23.160156 46.246094 21.378906 46.246094 19.421875 C 46.246094 15.460938 43.023438 12.238281 39.0625 12.238281 Z M 39.0625 20.234375 C 37.125 20.234375 35.546875 21.816406 35.546875 23.75 L 35.546875 25.671875 C 37.722656 26.914062 40.40625 26.914062 42.578125 25.671875 L 42.578125 23.75 C 42.578125 21.816406 41.003906 20.234375 39.0625 20.234375 Z M 37.394531 16.972656 C 37.394531 16.050781 38.144531 15.304688 39.0625 15.304688 C 39.984375 15.304688 40.730469 16.050781 40.730469 16.972656 C 40.730469 17.894531 39.984375 18.640625 39.0625 18.640625 C 38.144531 18.640625 37.394531 17.894531 37.394531 16.972656 Z M 48.808594 37.671875 C 48.050781 35.054688 48.558594 32.28125 50.117188 30.113281 L 45.117188 25.761719 C 43.132812 27.65625 40.398438 28.539062 37.585938 28.066406 L 35.28125 36.710938 C 37.390625 37.488281 39.121094 39.054688 40.117188 41.054688 Z M 51.226562 18.492188 L 47.828125 18.976562 C 47.933594 21.042969 47.3125 22.980469 46.171875 24.558594 L 51.167969 28.90625 C 52.238281 27.878906 53.574219 27.113281 55.054688 26.738281 L 54.0625 20.585938 C 52.773438 20.484375 51.6875 19.644531 51.226562 18.492188 Z M 54.332031 15.488281 C 55.300781 15.488281 56.089844 16.273438 56.089844 17.242188 C 56.089844 18.210938 55.300781 18.996094 54.332031 18.996094 C 53.363281 18.996094 52.578125 18.210938 52.578125 17.242188 C 52.578125 16.273438 53.363281 15.488281 54.332031 15.488281 Z M 27.527344 12.617188 C 26.558594 12.617188 25.773438 11.828125 25.773438 10.859375 C 25.773438 9.890625 26.558594 9.105469 27.527344 9.105469 C 28.496094 9.105469 29.28125 9.890625 29.28125 10.859375 C 29.28125 11.828125 28.496094 12.617188 27.527344 12.617188 Z M 63.695312 22.722656 C 65.539062 22.722656 67.042969 21.214844 67.042969 19.375 C 67.042969 17.523438 65.539062 16.019531 63.695312 16.019531 C 61.847656 16.019531 60.34375 17.523438 60.34375 19.375 C 60.34375 20.484375 60.890625 21.472656 61.726562 22.085938 L 59.792969 26.839844 C 58.78125 26.535156 57.71875 26.40625 56.632812 26.480469 L 55.636719 20.328125 C 56.839844 19.816406 57.683594 18.628906 57.683594 17.242188 C 57.683594 15.398438 56.179688 13.894531 54.332031 13.894531 C 52.597656 13.894531 51.164062 15.21875 51 16.914062 L 47.601562 17.394531 C 46.683594 13.53125 43.207031 10.648438 39.0625 10.648438 C 36.46875 10.648438 34.132812 11.78125 32.523438 13.578125 L 30.617188 12.160156 C 31.535156 10.007812 29.957031 7.511719 27.527344 7.511719 C 25.679688 7.511719 24.175781 9.011719 24.175781 10.859375 C 24.175781 13.695312 27.488281 15.234375 29.664062 13.441406 L 31.570312 14.855469 C 30.15625 17.171875 29.886719 20.027344 30.878906 22.582031 L 28.816406 23.597656 C 28.199219 22.871094 27.28125 22.398438 26.25 22.398438 C 24.402344 22.398438 22.902344 23.90625 22.902344 25.753906 C 22.902344 27.605469 24.402344 29.101562 26.25 29.101562 C 26.324219 29.101562 26.390625 29.101562 26.460938 29.097656 L 28.886719 36.84375 C 25.714844 38.167969 23.480469 41.300781 23.480469 44.945312 C 23.480469 49.789062 27.417969 53.722656 32.257812 53.722656 C 34.148438 53.722656 35.898438 53.121094 37.332031 52.101562 L 39.699219 54.863281 C 38.125 57.03125 39.664062 60.164062 42.417969 60.164062 C 44.265625 60.164062 45.769531 58.664062 45.769531 56.816406 C 45.769531 54.332031 43.152344 52.691406 40.910156 53.820312 L 38.542969 51.058594 C 39.605469 49.96875 40.386719 48.605469 40.765625 47.085938 L 45.039062 47.746094 C 45.1875 49.460938 46.625 50.804688 48.375 50.804688 C 51.21875 50.804688 52.769531 47.460938 50.933594 45.289062 L 52.757812 42.773438 C 54.070312 43.5625 55.601562 44.011719 57.238281 44.011719 C 62.078125 44.011719 66.011719 40.070312 66.011719 35.238281 C 66.011719 31.847656 64.085938 28.90625 61.269531 27.441406 L 63.207031 22.6875 C 63.367188 22.710938 63.527344 22.722656 63.695312 22.722656 Z M 63.695312 22.722656 "/></g><g transform="matrix(1,0,0,1,14,61)"><g clip-path="url(#c414062bad)"><g style="fill:#ffffff;fill-opacity:1;"><g transform="translate(0.30507, 13.936352)"><path style="stroke:none" d="M 1.90625 0 L 1.078125 0 L 1.078125 -8.125 L 2.109375 -8.125 L 6.84375 -1.203125 L 6.875 -1.203125 L 6.875 -8.125 L 7.6875 -8.125 L 7.6875 0 L 6.65625 0 L 1.921875 -7 L 1.90625 -7 Z M 1.90625 0 "/></g></g><g style="fill:#ffffff;fill-opacity:1;"><g transform="translate(9.081249, 13.936352)"><path style="stroke:none" d="M 3.421875 0.140625 C 2.890625 0.140625 2.410156 0.0195312 1.984375 -0.21875 C 1.566406 -0.46875 1.238281 -0.804688 1 -1.234375 C 0.757812 -1.671875 0.640625 -2.15625 0.640625 -2.6875 C 0.640625 -3.21875 0.757812 -3.695312 1 -4.125 C 1.238281 -4.5625 1.5625 -4.898438 1.96875 -5.140625 C 2.382812 -5.390625 2.847656 -5.515625 3.359375 -5.515625 C 3.898438 -5.515625 4.363281 -5.394531 4.75 -5.15625 C 5.132812 -4.925781 5.425781 -4.609375 5.625 -4.203125 C 5.820312 -3.796875 5.921875 -3.34375 5.921875 -2.84375 C 5.921875 -2.695312 5.921875 -2.578125 5.921875 -2.484375 L 1.453125 -2.484375 C 1.460938 -2.117188 1.550781 -1.789062 1.71875 -1.5 C 1.894531 -1.207031 2.128906 -0.972656 2.421875 -0.796875 C 2.722656 -0.617188 3.054688 -0.53125 3.421875 -0.53125 C 3.796875 -0.53125 4.132812 -0.617188 4.4375 -0.796875 C 4.75 -0.972656 4.984375 -1.191406 5.140625 -1.453125 L 5.734375 -1 C 5.128906 -0.238281 4.359375 0.140625 3.421875 0.140625 Z M 5.140625 -3.09375 C 5.117188 -3.445312 5.035156 -3.753906 4.890625 -4.015625 C 4.753906 -4.273438 4.550781 -4.476562 4.28125 -4.625 C 4.019531 -4.78125 3.710938 -4.859375 3.359375 -4.859375 C 3.015625 -4.859375 2.703125 -4.773438 2.421875 -4.609375 C 2.148438 -4.453125 1.925781 -4.238281 1.75 -3.96875 C 1.582031 -3.695312 1.488281 -3.40625 1.46875 -3.09375 Z M 5.140625 -3.09375 "/></g></g><g style="fill:#ffffff;fill-opacity:1;"><g transform="translate(15.651895, 13.936352)"><path style="stroke:none" d="M 2.53125 0.0625 C 2.164062 0.0625 1.84375 -0.0390625 1.5625 -0.25 C 1.289062 -0.46875 1.15625 -0.835938 1.15625 -1.359375 L 1.15625 -4.734375 L 0.046875 -4.734375 L 0.046875 -5.390625 L 1.15625 -5.390625 L 1.15625 -6.890625 L 1.9375 -6.890625 L 1.9375 -5.390625 L 3.453125 -5.390625 L 3.453125 -4.734375 L 1.9375 -4.734375 L 1.9375 -1.578125 C 1.9375 -1.203125 2.003906 -0.941406 2.140625 -0.796875 C 2.285156 -0.660156 2.488281 -0.59375 2.75 -0.59375 C 2.851562 -0.59375 2.960938 -0.609375 3.078125 -0.640625 C 3.203125 -0.671875 3.316406 -0.710938 3.421875 -0.765625 L 3.453125 -0.09375 C 3.171875 0.0078125 2.863281 0.0625 2.53125 0.0625 Z M 2.53125 0.0625 "/></g></g><g style="fill:#ffffff;fill-opacity:1;"><g transform="translate(19.293322, 13.936352)"><path style="stroke:none" d="M 2.84375 0 L 2 0 L 0.296875 -5.390625 L 1.140625 -5.390625 L 2.4375 -1.015625 L 2.453125 -1.015625 L 3.90625 -5.390625 L 4.65625 -5.390625 L 6.125 -1.015625 L 6.15625 -1.015625 L 7.4375 -5.390625 L 8.265625 -5.390625 L 6.5625 0 L 5.71875 0 L 4.28125 -4.359375 L 4.265625 -4.359375 Z M 2.84375 0 "/></g></g><g style="fill:#ffffff;fill-opacity:1;"><g transform="translate(27.86274, 13.936352)"><path style="stroke:none" d="M 3.5 0.140625 C 2.957031 0.140625 2.46875 0.0195312 2.03125 -0.21875 C 1.59375 -0.46875 1.25 -0.804688 1 -1.234375 C 0.757812 -1.671875 0.640625 -2.15625 0.640625 -2.6875 C 0.640625 -3.21875 0.757812 -3.695312 1 -4.125 C 1.25 -4.5625 1.59375 -4.898438 2.03125 -5.140625 C 2.46875 -5.390625 2.957031 -5.515625 3.5 -5.515625 C 4.050781 -5.515625 4.546875 -5.390625 4.984375 -5.140625 C 5.421875 -4.898438 5.757812 -4.5625 6 -4.125 C 6.25 -3.695312 6.375 -3.21875 6.375 -2.6875 C 6.375 -2.15625 6.25 -1.671875 6 -1.234375 C 5.757812 -0.804688 5.421875 -0.46875 4.984375 -0.21875 C 4.546875 0.0195312 4.050781 0.140625 3.5 0.140625 Z M 3.5 -0.53125 C 3.90625 -0.53125 4.265625 -0.625 4.578125 -0.8125 C 4.890625 -1.007812 5.128906 -1.269531 5.296875 -1.59375 C 5.460938 -1.914062 5.546875 -2.28125 5.546875 -2.6875 C 5.546875 -3.09375 5.460938 -3.457031 5.296875 -3.78125 C 5.128906 -4.113281 4.890625 -4.375 4.578125 -4.5625 C 4.265625 -4.757812 3.90625 -4.859375 3.5 -4.859375 C 3.09375 -4.859375 2.734375 -4.757812 2.421875 -4.5625 C 2.117188 -4.375 1.882812 -4.113281 1.71875 -3.78125 C 1.550781 -3.457031 1.46875 -3.09375 1.46875 -2.6875 C 1.46875 -2.28125 1.550781 -1.914062 1.71875 -1.59375 C 1.882812 -1.269531 2.117188 -1.007812 2.421875 -0.8125 C 2.734375 -0.625 3.09375 -0.53125 3.5 -0.53125 Z M 3.5 -0.53125 "/></g></g><g style="fill:#ffffff;fill-opacity:1;"><g transform="translate(34.881389, 13.936352)"><path style="stroke:none" d="M 1.03125 -4.1875 C 1.03125 -4.65625 1.015625 -5.054688 0.984375 -5.390625 L 1.734375 -5.390625 C 1.765625 -5.003906 1.78125 -4.691406 1.78125 -4.453125 L 1.796875 -4.453125 C 1.953125 -4.765625 2.1875 -5.019531 2.5 -5.21875 C 2.8125 -5.414062 3.15625 -5.515625 3.53125 -5.515625 C 3.726562 -5.515625 3.898438 -5.492188 4.046875 -5.453125 L 3.9375 -4.71875 C 3.894531 -4.738281 3.816406 -4.753906 3.703125 -4.765625 C 3.585938 -4.773438 3.484375 -4.78125 3.390625 -4.78125 C 3.097656 -4.78125 2.832031 -4.707031 2.59375 -4.5625 C 2.351562 -4.425781 2.160156 -4.207031 2.015625 -3.90625 C 1.878906 -3.601562 1.8125 -3.21875 1.8125 -2.75 L 1.8125 0 L 1.03125 0 Z M 1.03125 -4.1875 "/></g></g><g style="fill:#ffffff;fill-opacity:1;"><g transform="translate(39.016761, 13.936352)"><path style="stroke:none" d="M 1.84375 0 L 1.0625 0 L 1.0625 -8.6875 L 1.84375 -8.6875 L 1.84375 -2.953125 L 1.875 -2.953125 L 4.359375 -5.390625 L 5.484375 -5.390625 L 2.765625 -2.921875 L 5.75 0 L 4.609375 0 L 1.875 -2.828125 L 1.84375 -2.828125 Z M 1.84375 0 "/></g></g><g style="fill:#ffffff;fill-opacity:1;"><g transform="translate(44.875211, 13.936352)"><path style="stroke:none" d="M 1.4375 -6.890625 C 1.289062 -6.890625 1.160156 -6.941406 1.046875 -7.046875 C 0.941406 -7.160156 0.890625 -7.289062 0.890625 -7.4375 C 0.890625 -7.59375 0.941406 -7.722656 1.046875 -7.828125 C 1.160156 -7.941406 1.289062 -8 1.4375 -8 C 1.582031 -8 1.707031 -7.941406 1.8125 -7.828125 C 1.925781 -7.722656 1.984375 -7.59375 1.984375 -7.4375 C 1.984375 -7.289062 1.925781 -7.160156 1.8125 -7.046875 C 1.707031 -6.941406 1.582031 -6.890625 1.4375 -6.890625 Z M 1.828125 0 L 1.046875 0 L 1.046875 -5.390625 L 1.828125 -5.390625 Z M 1.828125 0 "/></g></g><g style="fill:#ffffff;fill-opacity:1;"><g transform="translate(47.746998, 13.936352)"><path style="stroke:none" d="M 1.03125 -4.1875 C 1.03125 -4.65625 1.015625 -5.054688 0.984375 -5.390625 L 1.734375 -5.390625 C 1.765625 -5.003906 1.78125 -4.691406 1.78125 -4.453125 L 1.796875 -4.453125 C 1.898438 -4.660156 2.046875 -4.84375 2.234375 -5 C 2.429688 -5.15625 2.648438 -5.28125 2.890625 -5.375 C 3.140625 -5.46875 3.390625 -5.515625 3.640625 -5.515625 C 4.304688 -5.515625 4.8125 -5.3125 5.15625 -4.90625 C 5.507812 -4.507812 5.6875 -3.972656 5.6875 -3.296875 L 5.6875 0 L 4.90625 0 L 4.90625 -2.96875 C 4.90625 -3.570312 4.796875 -4.035156 4.578125 -4.359375 C 4.359375 -4.691406 3.984375 -4.859375 3.453125 -4.859375 C 3.160156 -4.859375 2.890625 -4.78125 2.640625 -4.625 C 2.398438 -4.46875 2.203125 -4.234375 2.046875 -3.921875 C 1.890625 -3.609375 1.8125 -3.21875 1.8125 -2.75 L 1.8125 0 L 1.03125 0 Z M 1.03125 -4.1875 "/></g></g><g style="fill:#ffffff;fill-opacity:1;"><g transform="translate(54.421029, 13.936352)"><path style="stroke:none" d="M 3.34375 2.75 C 2.851562 2.75 2.378906 2.65625 1.921875 2.46875 C 1.460938 2.28125 1.078125 2.015625 0.765625 1.671875 L 1.328125 1.078125 C 1.546875 1.359375 1.84375 1.59375 2.21875 1.78125 C 2.59375 1.96875 2.976562 2.0625 3.375 2.0625 C 4.101562 2.0625 4.632812 1.863281 4.96875 1.46875 C 5.3125 1.082031 5.484375 0.578125 5.484375 -0.046875 L 5.484375 -1.0625 L 5.453125 -1.0625 C 5.253906 -0.738281 4.960938 -0.476562 4.578125 -0.28125 C 4.203125 -0.09375 3.816406 0 3.421875 0 C 2.867188 0 2.378906 -0.113281 1.953125 -0.34375 C 1.535156 -0.582031 1.210938 -0.910156 0.984375 -1.328125 C 0.753906 -1.742188 0.640625 -2.210938 0.640625 -2.734375 C 0.640625 -3.242188 0.753906 -3.707031 0.984375 -4.125 C 1.222656 -4.550781 1.550781 -4.890625 1.96875 -5.140625 C 2.394531 -5.390625 2.878906 -5.515625 3.421875 -5.515625 C 3.828125 -5.515625 4.210938 -5.421875 4.578125 -5.234375 C 4.953125 -5.046875 5.242188 -4.78125 5.453125 -4.4375 L 5.484375 -4.4375 L 5.484375 -5.390625 L 6.265625 -5.390625 L 6.265625 -0.046875 C 6.265625 0.410156 6.175781 0.847656 6 1.265625 C 5.832031 1.679688 5.53125 2.03125 5.09375 2.3125 C 4.65625 2.601562 4.070312 2.75 3.34375 2.75 Z M 3.5 -0.671875 C 3.894531 -0.671875 4.25 -0.753906 4.5625 -0.921875 C 4.882812 -1.097656 5.128906 -1.34375 5.296875 -1.65625 C 5.472656 -1.976562 5.5625 -2.34375 5.5625 -2.75 C 5.5625 -3.125 5.472656 -3.472656 5.296875 -3.796875 C 5.117188 -4.117188 4.875 -4.375 4.5625 -4.5625 C 4.25 -4.757812 3.894531 -4.859375 3.5 -4.859375 C 3.082031 -4.859375 2.71875 -4.757812 2.40625 -4.5625 C 2.101562 -4.375 1.867188 -4.117188 1.703125 -3.796875 C 1.546875 -3.484375 1.46875 -3.132812 1.46875 -2.75 C 1.46875 -2.375 1.546875 -2.023438 1.703125 -1.703125 C 1.867188 -1.390625 2.101562 -1.140625 2.40625 -0.953125 C 2.71875 -0.765625 3.082031 -0.671875 3.5 -0.671875 Z M 3.5 -0.671875 "/></g></g></g></g><g transform="matrix(1,0,0,1,15,79)"><g clip-path="url(#2bce26ce95)"><g clip-rule="nonzero" clip-path="url(#338c9a3d22)"><g style="fill:#ffffff;fill-opacity:1;"><g transform="translate(0.178052, 6.242864)"><path style="stroke:none" d="M 0.46875 0 L 0.46875 -3.484375 L 1.5 -3.484375 C 1.695312 -3.484375 1.878906 -3.457031 2.046875 -3.40625 C 2.210938 -3.351562 2.347656 -3.257812 2.453125 -3.125 C 2.566406 -2.988281 2.625 -2.8125 2.625 -2.59375 C 2.625 -2.46875 2.597656 -2.351562 2.546875 -2.25 C 2.492188 -2.15625 2.421875 -2.070312 2.328125 -2 C 2.234375 -1.925781 2.128906 -1.875 2.015625 -1.84375 L 2.015625 -1.828125 C 2.160156 -1.816406 2.289062 -1.773438 2.40625 -1.703125 C 2.53125 -1.628906 2.625 -1.523438 2.6875 -1.390625 C 2.757812 -1.265625 2.796875 -1.125 2.796875 -0.96875 C 2.796875 -0.769531 2.742188 -0.597656 2.640625 -0.453125 C 2.535156 -0.304688 2.382812 -0.191406 2.1875 -0.109375 C 1.988281 -0.0351562 1.757812 0 1.5 0 Z M 1.53125 -1.953125 C 1.65625 -1.953125 1.769531 -1.972656 1.875 -2.015625 C 1.988281 -2.054688 2.082031 -2.125 2.15625 -2.21875 C 2.226562 -2.3125 2.265625 -2.425781 2.265625 -2.5625 C 2.265625 -2.78125 2.1875 -2.9375 2.03125 -3.03125 C 1.882812 -3.125 1.6875 -3.171875 1.4375 -3.171875 L 0.8125 -3.171875 L 0.8125 -1.953125 Z M 1.484375 -0.3125 C 1.660156 -0.3125 1.820312 -0.332031 1.96875 -0.375 C 2.113281 -0.425781 2.226562 -0.5 2.3125 -0.59375 C 2.394531 -0.695312 2.4375 -0.828125 2.4375 -0.984375 C 2.4375 -1.210938 2.359375 -1.382812 2.203125 -1.5 C 2.046875 -1.613281 1.828125 -1.671875 1.546875 -1.671875 L 0.8125 -1.671875 L 0.8125 -0.3125 Z M 1.484375 -0.3125 "/></g></g></g><g style="fill:#ffffff;fill-opacity:1;"><g transform="translate(3.310984, 6.242864)"><path style="stroke:none" d="M 1.296875 0.0625 C 1.015625 0.0625 0.796875 -0.0195312 0.640625 -0.1875 C 0.492188 -0.363281 0.421875 -0.597656 0.421875 -0.890625 L 0.421875 -2.3125 L 0.765625 -2.3125 L 0.765625 -1.03125 C 0.765625 -0.769531 0.804688 -0.566406 0.890625 -0.421875 C 0.984375 -0.285156 1.148438 -0.21875 1.390625 -0.21875 C 1.503906 -0.21875 1.613281 -0.25 1.71875 -0.3125 C 1.832031 -0.382812 1.921875 -0.488281 1.984375 -0.625 C 2.046875 -0.757812 2.078125 -0.925781 2.078125 -1.125 L 2.078125 -2.3125 L 2.421875 -2.3125 L 2.421875 -0.5 C 2.421875 -0.3125 2.425781 -0.144531 2.4375 0 L 2.109375 0 C 2.097656 -0.164062 2.09375 -0.296875 2.09375 -0.390625 C 2.039062 -0.304688 1.972656 -0.226562 1.890625 -0.15625 C 1.816406 -0.09375 1.726562 -0.0390625 1.625 0 C 1.519531 0.0390625 1.410156 0.0625 1.296875 0.0625 Z M 1.296875 0.0625 "/></g></g><g style="fill:#ffffff;fill-opacity:1;"><g transform="translate(6.172986, 6.242864)"><path style="stroke:none" d="M 0.609375 -2.953125 C 0.546875 -2.953125 0.488281 -2.972656 0.4375 -3.015625 C 0.394531 -3.066406 0.375 -3.125 0.375 -3.1875 C 0.375 -3.25 0.394531 -3.300781 0.4375 -3.34375 C 0.488281 -3.394531 0.546875 -3.421875 0.609375 -3.421875 C 0.671875 -3.421875 0.722656 -3.394531 0.765625 -3.34375 C 0.816406 -3.300781 0.84375 -3.25 0.84375 -3.1875 C 0.84375 -3.125 0.816406 -3.066406 0.765625 -3.015625 C 0.722656 -2.972656 0.671875 -2.953125 0.609375 -2.953125 Z M 0.78125 0 L 0.453125 0 L 0.453125 -2.3125 L 0.78125 -2.3125 Z M 0.78125 0 "/></g></g><g style="fill:#ffffff;fill-opacity:1;"><g transform="translate(7.404482, 6.242864)"><path style="stroke:none" d="M 0.78125 0 L 0.453125 0 L 0.453125 -3.71875 L 0.78125 -3.71875 Z M 0.78125 0 "/></g></g><g style="fill:#ffffff;fill-opacity:1;"><g transform="translate(8.645831, 6.242864)"><path style="stroke:none" d="M 1.46875 0.0625 C 1.238281 0.0625 1.03125 0.0078125 0.84375 -0.09375 C 0.664062 -0.207031 0.523438 -0.351562 0.421875 -0.53125 C 0.328125 -0.71875 0.28125 -0.925781 0.28125 -1.15625 C 0.28125 -1.375 0.328125 -1.578125 0.421875 -1.765625 C 0.523438 -1.953125 0.664062 -2.097656 0.84375 -2.203125 C 1.03125 -2.304688 1.238281 -2.359375 1.46875 -2.359375 C 1.632812 -2.359375 1.796875 -2.316406 1.953125 -2.234375 C 2.109375 -2.160156 2.238281 -2.050781 2.34375 -1.90625 L 2.34375 -3.71875 L 2.6875 -3.71875 L 2.6875 0 L 2.34375 0 L 2.34375 -0.390625 C 2.238281 -0.242188 2.109375 -0.128906 1.953125 -0.046875 C 1.796875 0.0234375 1.632812 0.0625 1.46875 0.0625 Z M 1.5 -0.21875 C 1.664062 -0.21875 1.816406 -0.257812 1.953125 -0.34375 C 2.085938 -0.425781 2.191406 -0.535156 2.265625 -0.671875 C 2.347656 -0.816406 2.390625 -0.976562 2.390625 -1.15625 C 2.390625 -1.320312 2.347656 -1.472656 2.265625 -1.609375 C 2.191406 -1.753906 2.085938 -1.867188 1.953125 -1.953125 C 1.816406 -2.035156 1.664062 -2.078125 1.5 -2.078125 C 1.320312 -2.078125 1.164062 -2.035156 1.03125 -1.953125 C 0.90625 -1.867188 0.804688 -1.753906 0.734375 -1.609375 C 0.660156 -1.472656 0.625 -1.320312 0.625 -1.15625 C 0.625 -0.976562 0.660156 -0.816406 0.734375 -0.671875 C 0.804688 -0.535156 0.90625 -0.425781 1.03125 -0.34375 C 1.164062 -0.257812 1.320312 -0.21875 1.5 -0.21875 Z M 1.5 -0.21875 "/></g></g><g style="fill:#ffffff;fill-opacity:1;"><g transform="translate(11.783692, 6.242864)"><path style="stroke:none" d=""/></g></g><g style="fill:#ffffff;fill-opacity:1;"><g transform="translate(13.015189, 6.242864)"><path style="stroke:none" d="M 0.78125 0 L 0.453125 0 L 0.453125 -3.71875 L 0.78125 -3.71875 Z M 0.78125 0 "/></g></g><g style="fill:#ffffff;fill-opacity:1;"><g transform="translate(14.256538, 6.242864)"><path style="stroke:none" d="M 1.0625 0.0625 C 0.9375 0.0625 0.8125 0.0390625 0.6875 0 C 0.570312 -0.0507812 0.472656 -0.128906 0.390625 -0.234375 C 0.304688 -0.347656 0.265625 -0.484375 0.265625 -0.640625 C 0.265625 -0.859375 0.335938 -1.023438 0.484375 -1.140625 C 0.628906 -1.253906 0.8125 -1.328125 1.03125 -1.359375 C 1.257812 -1.390625 1.539062 -1.40625 1.875 -1.40625 L 1.890625 -1.40625 L 1.890625 -1.484375 C 1.890625 -1.679688 1.835938 -1.828125 1.734375 -1.921875 C 1.628906 -2.023438 1.476562 -2.078125 1.28125 -2.078125 C 1.144531 -2.078125 1.015625 -2.050781 0.890625 -2 C 0.773438 -1.957031 0.675781 -1.894531 0.59375 -1.8125 L 0.40625 -2.03125 C 0.507812 -2.132812 0.640625 -2.210938 0.796875 -2.265625 C 0.953125 -2.328125 1.125 -2.359375 1.3125 -2.359375 C 1.476562 -2.359375 1.628906 -2.328125 1.765625 -2.265625 C 1.898438 -2.203125 2.003906 -2.109375 2.078125 -1.984375 C 2.160156 -1.859375 2.203125 -1.707031 2.203125 -1.53125 L 2.203125 -0.515625 C 2.203125 -0.421875 2.207031 -0.328125 2.21875 -0.234375 C 2.226562 -0.140625 2.238281 -0.0625 2.25 0 L 1.953125 0 C 1.929688 -0.132812 1.921875 -0.257812 1.921875 -0.375 L 1.90625 -0.375 C 1.800781 -0.21875 1.679688 -0.101562 1.546875 -0.03125 C 1.410156 0.03125 1.25 0.0625 1.0625 0.0625 Z M 1.15625 -0.21875 C 1.3125 -0.21875 1.441406 -0.25 1.546875 -0.3125 C 1.660156 -0.382812 1.742188 -0.476562 1.796875 -0.59375 C 1.859375 -0.707031 1.890625 -0.835938 1.890625 -0.984375 L 1.890625 -1.15625 L 1.796875 -1.15625 C 1.453125 -1.15625 1.164062 -1.117188 0.9375 -1.046875 C 0.71875 -0.984375 0.609375 -0.851562 0.609375 -0.65625 C 0.609375 -0.5 0.660156 -0.382812 0.765625 -0.3125 C 0.878906 -0.25 1.007812 -0.21875 1.15625 -0.21875 Z M 1.15625 -0.21875 "/></g></g><g style="fill:#ffffff;fill-opacity:1;"><g transform="translate(16.887022, 6.242864)"><path style="stroke:none" d="M 1.09375 0.0625 C 0.914062 0.0625 0.742188 0.0234375 0.578125 -0.046875 C 0.421875 -0.128906 0.289062 -0.242188 0.1875 -0.390625 L 0.453125 -0.578125 C 0.515625 -0.472656 0.601562 -0.382812 0.71875 -0.3125 C 0.832031 -0.25 0.957031 -0.21875 1.09375 -0.21875 C 1.25 -0.21875 1.378906 -0.25 1.484375 -0.3125 C 1.585938 -0.382812 1.640625 -0.488281 1.640625 -0.625 C 1.640625 -0.707031 1.613281 -0.773438 1.5625 -0.828125 C 1.507812 -0.878906 1.4375 -0.921875 1.34375 -0.953125 C 1.25 -0.992188 1.117188 -1.035156 0.953125 -1.078125 C 0.835938 -1.109375 0.734375 -1.140625 0.640625 -1.171875 C 0.546875 -1.210938 0.460938 -1.273438 0.390625 -1.359375 C 0.328125 -1.441406 0.296875 -1.550781 0.296875 -1.6875 C 0.296875 -1.84375 0.332031 -1.96875 0.40625 -2.0625 C 0.476562 -2.164062 0.578125 -2.238281 0.703125 -2.28125 C 0.828125 -2.332031 0.96875 -2.359375 1.125 -2.359375 C 1.28125 -2.359375 1.429688 -2.320312 1.578125 -2.25 C 1.734375 -2.175781 1.847656 -2.078125 1.921875 -1.953125 L 1.671875 -1.75 C 1.617188 -1.851562 1.539062 -1.929688 1.4375 -1.984375 C 1.34375 -2.046875 1.234375 -2.078125 1.109375 -2.078125 C 0.972656 -2.078125 0.851562 -2.046875 0.75 -1.984375 C 0.65625 -1.929688 0.609375 -1.84375 0.609375 -1.71875 C 0.609375 -1.613281 0.648438 -1.53125 0.734375 -1.46875 C 0.828125 -1.414062 0.972656 -1.367188 1.171875 -1.328125 C 1.441406 -1.273438 1.640625 -1.191406 1.765625 -1.078125 C 1.898438 -0.972656 1.96875 -0.832031 1.96875 -0.65625 C 1.96875 -0.488281 1.925781 -0.347656 1.84375 -0.234375 C 1.757812 -0.128906 1.648438 -0.0507812 1.515625 0 C 1.390625 0.0390625 1.25 0.0625 1.09375 0.0625 Z M 1.09375 0.0625 "/></g></g><g style="fill:#ffffff;fill-opacity:1;"><g transform="translate(19.074162, 6.242864)"><path style="stroke:none" d="M 1.09375 0.03125 C 0.925781 0.03125 0.785156 -0.015625 0.671875 -0.109375 C 0.554688 -0.203125 0.5 -0.359375 0.5 -0.578125 L 0.5 -2.03125 L 0.015625 -2.03125 L 0.015625 -2.3125 L 0.5 -2.3125 L 0.5 -2.953125 L 0.828125 -2.953125 L 0.828125 -2.3125 L 1.484375 -2.3125 L 1.484375 -2.03125 L 0.828125 -2.03125 L 0.828125 -0.671875 C 0.828125 -0.515625 0.859375 -0.40625 0.921875 -0.34375 C 0.984375 -0.28125 1.066406 -0.25 1.171875 -0.25 C 1.222656 -0.25 1.269531 -0.253906 1.3125 -0.265625 C 1.363281 -0.285156 1.414062 -0.304688 1.46875 -0.328125 L 1.484375 -0.046875 C 1.359375 0.00390625 1.226562 0.03125 1.09375 0.03125 Z M 1.09375 0.03125 "/></g></g><g style="fill:#ffffff;fill-opacity:1;"><g transform="translate(20.635705, 6.242864)"><path style="stroke:none" d="M 0.609375 -2.953125 C 0.546875 -2.953125 0.488281 -2.972656 0.4375 -3.015625 C 0.394531 -3.066406 0.375 -3.125 0.375 -3.1875 C 0.375 -3.25 0.394531 -3.300781 0.4375 -3.34375 C 0.488281 -3.394531 0.546875 -3.421875 0.609375 -3.421875 C 0.671875 -3.421875 0.722656 -3.394531 0.765625 -3.34375 C 0.816406 -3.300781 0.84375 -3.25 0.84375 -3.1875 C 0.84375 -3.125 0.816406 -3.066406 0.765625 -3.015625 C 0.722656 -2.972656 0.671875 -2.953125 0.609375 -2.953125 Z M 0.78125 0 L 0.453125 0 L 0.453125 -2.3125 L 0.78125 -2.3125 Z M 0.78125 0 "/></g></g><g style="fill:#ffffff;fill-opacity:1;"><g transform="translate(21.867201, 6.242864)"><path style="stroke:none" d="M 0.4375 -1.796875 C 0.4375 -1.992188 0.429688 -2.164062 0.421875 -2.3125 L 0.75 -2.3125 C 0.757812 -2.144531 0.765625 -2.007812 0.765625 -1.90625 C 0.816406 -2 0.878906 -2.078125 0.953125 -2.140625 C 1.035156 -2.210938 1.128906 -2.265625 1.234375 -2.296875 C 1.335938 -2.335938 1.445312 -2.359375 1.5625 -2.359375 C 1.84375 -2.359375 2.054688 -2.269531 2.203125 -2.09375 C 2.359375 -1.925781 2.4375 -1.695312 2.4375 -1.40625 L 2.4375 0 L 2.109375 0 L 2.109375 -1.28125 C 2.109375 -1.53125 2.0625 -1.722656 1.96875 -1.859375 C 1.875 -2.003906 1.710938 -2.078125 1.484375 -2.078125 C 1.359375 -2.078125 1.238281 -2.039062 1.125 -1.96875 C 1.019531 -1.90625 0.9375 -1.804688 0.875 -1.671875 C 0.8125 -1.546875 0.78125 -1.382812 0.78125 -1.1875 L 0.78125 0 L 0.4375 0 Z M 0.4375 -1.796875 "/></g></g><g style="fill:#ffffff;fill-opacity:1;"><g transform="translate(24.729203, 6.242864)"><path style="stroke:none" d="M 1.4375 1.1875 C 1.226562 1.1875 1.023438 1.144531 0.828125 1.0625 C 0.628906 0.976562 0.460938 0.863281 0.328125 0.71875 L 0.5625 0.46875 C 0.65625 0.582031 0.78125 0.679688 0.9375 0.765625 C 1.101562 0.847656 1.273438 0.890625 1.453125 0.890625 C 1.765625 0.890625 1.988281 0.804688 2.125 0.640625 C 2.269531 0.472656 2.34375 0.253906 2.34375 -0.015625 L 2.34375 -0.453125 C 2.25 -0.316406 2.117188 -0.207031 1.953125 -0.125 C 1.796875 -0.0390625 1.632812 0 1.46875 0 C 1.226562 0 1.019531 -0.046875 0.84375 -0.140625 C 0.664062 -0.242188 0.523438 -0.382812 0.421875 -0.5625 C 0.328125 -0.75 0.28125 -0.953125 0.28125 -1.171875 C 0.28125 -1.390625 0.328125 -1.585938 0.421875 -1.765625 C 0.523438 -1.953125 0.664062 -2.097656 0.84375 -2.203125 C 1.03125 -2.304688 1.238281 -2.359375 1.46875 -2.359375 C 1.644531 -2.359375 1.8125 -2.316406 1.96875 -2.234375 C 2.125 -2.160156 2.25 -2.050781 2.34375 -1.90625 L 2.34375 -2.3125 L 2.6875 -2.3125 L 2.6875 -0.015625 C 2.6875 0.179688 2.648438 0.367188 2.578125 0.546875 C 2.503906 0.722656 2.375 0.875 2.1875 1 C 2 1.125 1.75 1.1875 1.4375 1.1875 Z M 1.5 -0.28125 C 1.664062 -0.28125 1.816406 -0.316406 1.953125 -0.390625 C 2.085938 -0.472656 2.191406 -0.582031 2.265625 -0.71875 C 2.347656 -0.851562 2.390625 -1.007812 2.390625 -1.1875 C 2.390625 -1.34375 2.347656 -1.488281 2.265625 -1.625 C 2.191406 -1.757812 2.085938 -1.867188 1.953125 -1.953125 C 1.816406 -2.035156 1.664062 -2.078125 1.5 -2.078125 C 1.320312 -2.078125 1.164062 -2.035156 1.03125 -1.953125 C 0.90625 -1.867188 0.804688 -1.757812 0.734375 -1.625 C 0.660156 -1.488281 0.625 -1.34375 0.625 -1.1875 C 0.625 -1.019531 0.660156 -0.867188 0.734375 -0.734375 C 0.804688 -0.597656 0.90625 -0.488281 1.03125 -0.40625 C 1.164062 -0.320312 1.320312 -0.28125 1.5 -0.28125 Z M 1.5 -0.28125 "/></g></g><g style="fill:#ffffff;fill-opacity:1;"><g transform="translate(27.842435, 6.242864)"><path style="stroke:none" d=""/></g></g><g style="fill:#ffffff;fill-opacity:1;"><g transform="translate(29.073932, 6.242864)"><path style="stroke:none" d="M 0.4375 1.1875 L 0.4375 -2.3125 L 0.78125 -2.3125 L 0.78125 -1.90625 L 0.796875 -1.90625 C 0.890625 -2.050781 1.015625 -2.160156 1.171875 -2.234375 C 1.328125 -2.316406 1.488281 -2.359375 1.65625 -2.359375 C 1.894531 -2.359375 2.101562 -2.304688 2.28125 -2.203125 C 2.457031 -2.097656 2.59375 -1.953125 2.6875 -1.765625 C 2.789062 -1.578125 2.84375 -1.375 2.84375 -1.15625 C 2.84375 -0.925781 2.789062 -0.71875 2.6875 -0.53125 C 2.59375 -0.351562 2.457031 -0.207031 2.28125 -0.09375 C 2.101562 0.0078125 1.894531 0.0625 1.65625 0.0625 C 1.488281 0.0625 1.328125 0.0234375 1.171875 -0.046875 C 1.015625 -0.128906 0.890625 -0.242188 0.796875 -0.390625 L 0.78125 -0.390625 L 0.78125 1.1875 Z M 1.625 -0.21875 C 1.800781 -0.21875 1.953125 -0.257812 2.078125 -0.34375 C 2.210938 -0.425781 2.316406 -0.535156 2.390625 -0.671875 C 2.460938 -0.816406 2.5 -0.976562 2.5 -1.15625 C 2.5 -1.320312 2.460938 -1.472656 2.390625 -1.609375 C 2.316406 -1.753906 2.210938 -1.867188 2.078125 -1.953125 C 1.953125 -2.035156 1.800781 -2.078125 1.625 -2.078125 C 1.457031 -2.078125 1.304688 -2.035156 1.171875 -1.953125 C 1.035156 -1.867188 0.925781 -1.753906 0.84375 -1.609375 C 0.769531 -1.472656 0.734375 -1.320312 0.734375 -1.15625 C 0.734375 -0.976562 0.769531 -0.816406 0.84375 -0.671875 C 0.925781 -0.535156 1.035156 -0.425781 1.171875 -0.34375 C 1.304688 -0.257812 1.457031 -0.21875 1.625 -0.21875 Z M 1.625 -0.21875 "/></g></g><g style="fill:#ffffff;fill-opacity:1;"><g transform="translate(32.20194, 6.242864)"><path style="stroke:none" d="M 1.46875 0.0625 C 1.238281 0.0625 1.03125 0.0078125 0.84375 -0.09375 C 0.664062 -0.195312 0.523438 -0.34375 0.421875 -0.53125 C 0.328125 -0.71875 0.28125 -0.925781 0.28125 -1.15625 C 0.28125 -1.375 0.328125 -1.578125 0.421875 -1.765625 C 0.523438 -1.953125 0.664062 -2.097656 0.84375 -2.203125 C 1.019531 -2.304688 1.21875 -2.359375 1.4375 -2.359375 C 1.664062 -2.359375 1.863281 -2.304688 2.03125 -2.203125 C 2.195312 -2.109375 2.320312 -1.972656 2.40625 -1.796875 C 2.5 -1.628906 2.546875 -1.4375 2.546875 -1.21875 C 2.546875 -1.15625 2.539062 -1.101562 2.53125 -1.0625 L 0.625 -1.0625 C 0.625 -0.90625 0.660156 -0.765625 0.734375 -0.640625 C 0.804688 -0.515625 0.90625 -0.410156 1.03125 -0.328125 C 1.164062 -0.253906 1.3125 -0.21875 1.46875 -0.21875 C 1.625 -0.21875 1.769531 -0.253906 1.90625 -0.328125 C 2.039062 -0.410156 2.140625 -0.507812 2.203125 -0.625 L 2.453125 -0.421875 C 2.203125 -0.0976562 1.875 0.0625 1.46875 0.0625 Z M 2.203125 -1.328125 C 2.191406 -1.472656 2.15625 -1.601562 2.09375 -1.71875 C 2.039062 -1.832031 1.957031 -1.921875 1.84375 -1.984375 C 1.726562 -2.046875 1.59375 -2.078125 1.4375 -2.078125 C 1.289062 -2.078125 1.15625 -2.039062 1.03125 -1.96875 C 0.914062 -1.90625 0.820312 -1.816406 0.75 -1.703125 C 0.675781 -1.585938 0.632812 -1.460938 0.625 -1.328125 Z M 2.203125 -1.328125 "/></g></g><g style="fill:#ffffff;fill-opacity:1;"><g transform="translate(35.019608, 6.242864)"><path style="stroke:none" d="M 0.4375 -1.796875 C 0.4375 -1.992188 0.429688 -2.164062 0.421875 -2.3125 L 0.75 -2.3125 C 0.757812 -2.144531 0.765625 -2.007812 0.765625 -1.90625 C 0.835938 -2.039062 0.9375 -2.148438 1.0625 -2.234375 C 1.195312 -2.316406 1.347656 -2.359375 1.515625 -2.359375 C 1.597656 -2.359375 1.671875 -2.351562 1.734375 -2.34375 L 1.6875 -2.015625 C 1.664062 -2.023438 1.628906 -2.03125 1.578125 -2.03125 C 1.535156 -2.039062 1.492188 -2.046875 1.453125 -2.046875 C 1.328125 -2.046875 1.210938 -2.015625 1.109375 -1.953125 C 1.003906 -1.890625 0.921875 -1.796875 0.859375 -1.671875 C 0.804688 -1.546875 0.78125 -1.382812 0.78125 -1.1875 L 0.78125 0 L 0.4375 0 Z M 0.4375 -1.796875 "/></g></g><g style="fill:#ffffff;fill-opacity:1;"><g transform="translate(36.792969, 6.242864)"><path style="stroke:none" d="M 1.09375 0.0625 C 0.914062 0.0625 0.742188 0.0234375 0.578125 -0.046875 C 0.421875 -0.128906 0.289062 -0.242188 0.1875 -0.390625 L 0.453125 -0.578125 C 0.515625 -0.472656 0.601562 -0.382812 0.71875 -0.3125 C 0.832031 -0.25 0.957031 -0.21875 1.09375 -0.21875 C 1.25 -0.21875 1.378906 -0.25 1.484375 -0.3125 C 1.585938 -0.382812 1.640625 -0.488281 1.640625 -0.625 C 1.640625 -0.707031 1.613281 -0.773438 1.5625 -0.828125 C 1.507812 -0.878906 1.4375 -0.921875 1.34375 -0.953125 C 1.25 -0.992188 1.117188 -1.035156 0.953125 -1.078125 C 0.835938 -1.109375 0.734375 -1.140625 0.640625 -1.171875 C 0.546875 -1.210938 0.460938 -1.273438 0.390625 -1.359375 C 0.328125 -1.441406 0.296875 -1.550781 0.296875 -1.6875 C 0.296875 -1.84375 0.332031 -1.96875 0.40625 -2.0625 C 0.476562 -2.164062 0.578125 -2.238281 0.703125 -2.28125 C 0.828125 -2.332031 0.96875 -2.359375 1.125 -2.359375 C 1.28125 -2.359375 1.429688 -2.320312 1.578125 -2.25 C 1.734375 -2.175781 1.847656 -2.078125 1.921875 -1.953125 L 1.671875 -1.75 C 1.617188 -1.851562 1.539062 -1.929688 1.4375 -1.984375 C 1.34375 -2.046875 1.234375 -2.078125 1.109375 -2.078125 C 0.972656 -2.078125 0.851562 -2.046875 0.75 -1.984375 C 0.65625 -1.929688 0.609375 -1.84375 0.609375 -1.71875 C 0.609375 -1.613281 0.648438 -1.53125 0.734375 -1.46875 C 0.828125 -1.414062 0.972656 -1.367188 1.171875 -1.328125 C 1.441406 -1.273438 1.640625 -1.191406 1.765625 -1.078125 C 1.898438 -0.972656 1.96875 -0.832031 1.96875 -0.65625 C 1.96875 -0.488281 1.925781 -0.347656 1.84375 -0.234375 C 1.757812 -0.128906 1.648438 -0.0507812 1.515625 0 C 1.390625 0.0390625 1.25 0.0625 1.09375 0.0625 Z M 1.09375 0.0625 "/></g></g><g style="fill:#ffffff;fill-opacity:1;"><g transform="translate(38.98011, 6.242864)"><path style="stroke:none" d="M 1.5 0.0625 C 1.269531 0.0625 1.0625 0.0078125 0.875 -0.09375 C 0.6875 -0.195312 0.539062 -0.34375 0.4375 -0.53125 C 0.332031 -0.71875 0.28125 -0.925781 0.28125 -1.15625 C 0.28125 -1.382812 0.332031 -1.585938 0.4375 -1.765625 C 0.539062 -1.953125 0.6875 -2.097656 0.875 -2.203125 C 1.0625 -2.304688 1.269531 -2.359375 1.5 -2.359375 C 1.738281 -2.359375 1.953125 -2.304688 2.140625 -2.203125 C 2.328125 -2.097656 2.472656 -1.953125 2.578125 -1.765625 C 2.679688 -1.585938 2.734375 -1.382812 2.734375 -1.15625 C 2.734375 -0.925781 2.679688 -0.71875 2.578125 -0.53125 C 2.472656 -0.34375 2.328125 -0.195312 2.140625 -0.09375 C 1.953125 0.0078125 1.738281 0.0625 1.5 0.0625 Z M 1.5 -0.21875 C 1.675781 -0.21875 1.828125 -0.257812 1.953125 -0.34375 C 2.085938 -0.425781 2.191406 -0.535156 2.265625 -0.671875 C 2.335938 -0.816406 2.375 -0.976562 2.375 -1.15625 C 2.375 -1.320312 2.335938 -1.472656 2.265625 -1.609375 C 2.191406 -1.753906 2.085938 -1.867188 1.953125 -1.953125 C 1.828125 -2.035156 1.675781 -2.078125 1.5 -2.078125 C 1.320312 -2.078125 1.164062 -2.035156 1.03125 -1.953125 C 0.90625 -1.867188 0.804688 -1.753906 0.734375 -1.609375 C 0.660156 -1.472656 0.625 -1.320312 0.625 -1.15625 C 0.625 -0.976562 0.660156 -0.816406 0.734375 -0.671875 C 0.804688 -0.535156 0.90625 -0.425781 1.03125 -0.34375 C 1.164062 -0.257812 1.320312 -0.21875 1.5 -0.21875 Z M 1.5 -0.21875 "/></g></g><g style="fill:#ffffff;fill-opacity:1;"><g transform="translate(41.989891, 6.242864)"><path style="stroke:none" d="M 0.4375 -1.796875 C 0.4375 -1.992188 0.429688 -2.164062 0.421875 -2.3125 L 0.75 -2.3125 C 0.757812 -2.144531 0.765625 -2.007812 0.765625 -1.90625 C 0.816406 -2 0.878906 -2.078125 0.953125 -2.140625 C 1.035156 -2.210938 1.128906 -2.265625 1.234375 -2.296875 C 1.335938 -2.335938 1.445312 -2.359375 1.5625 -2.359375 C 1.84375 -2.359375 2.054688 -2.269531 2.203125 -2.09375 C 2.359375 -1.925781 2.4375 -1.695312 2.4375 -1.40625 L 2.4375 0 L 2.109375 0 L 2.109375 -1.28125 C 2.109375 -1.53125 2.0625 -1.722656 1.96875 -1.859375 C 1.875 -2.003906 1.710938 -2.078125 1.484375 -2.078125 C 1.359375 -2.078125 1.238281 -2.039062 1.125 -1.96875 C 1.019531 -1.90625 0.9375 -1.804688 0.875 -1.671875 C 0.8125 -1.546875 0.78125 -1.382812 0.78125 -1.1875 L 0.78125 0 L 0.4375 0 Z M 0.4375 -1.796875 "/></g></g><g style="fill:#ffffff;fill-opacity:1;"><g transform="translate(44.851893, 6.242864)"><path style="stroke:none" d="M 1.0625 0.0625 C 0.9375 0.0625 0.8125 0.0390625 0.6875 0 C 0.570312 -0.0507812 0.472656 -0.128906 0.390625 -0.234375 C 0.304688 -0.347656 0.265625 -0.484375 0.265625 -0.640625 C 0.265625 -0.859375 0.335938 -1.023438 0.484375 -1.140625 C 0.628906 -1.253906 0.8125 -1.328125 1.03125 -1.359375 C 1.257812 -1.390625 1.539062 -1.40625 1.875 -1.40625 L 1.890625 -1.40625 L 1.890625 -1.484375 C 1.890625 -1.679688 1.835938 -1.828125 1.734375 -1.921875 C 1.628906 -2.023438 1.476562 -2.078125 1.28125 -2.078125 C 1.144531 -2.078125 1.015625 -2.050781 0.890625 -2 C 0.773438 -1.957031 0.675781 -1.894531 0.59375 -1.8125 L 0.40625 -2.03125 C 0.507812 -2.132812 0.640625 -2.210938 0.796875 -2.265625 C 0.953125 -2.328125 1.125 -2.359375 1.3125 -2.359375 C 1.476562 -2.359375 1.628906 -2.328125 1.765625 -2.265625 C 1.898438 -2.203125 2.003906 -2.109375 2.078125 -1.984375 C 2.160156 -1.859375 2.203125 -1.707031 2.203125 -1.53125 L 2.203125 -0.515625 C 2.203125 -0.421875 2.207031 -0.328125 2.21875 -0.234375 C 2.226562 -0.140625 2.238281 -0.0625 2.25 0 L 1.953125 0 C 1.929688 -0.132812 1.921875 -0.257812 1.921875 -0.375 L 1.90625 -0.375 C 1.800781 -0.21875 1.679688 -0.101562 1.546875 -0.03125 C 1.410156 0.03125 1.25 0.0625 1.0625 0.0625 Z M 1.15625 -0.21875 C 1.3125 -0.21875 1.441406 -0.25 1.546875 -0.3125 C 1.660156 -0.382812 1.742188 -0.476562 1.796875 -0.59375 C 1.859375 -0.707031 1.890625 -0.835938 1.890625 -0.984375 L 1.890625 -1.15625 L 1.796875 -1.15625 C 1.453125 -1.15625 1.164062 -1.117188 0.9375 -1.046875 C 0.71875 -0.984375 0.609375 -0.851562 0.609375 -0.65625 C 0.609375 -0.5 0.660156 -0.382812 0.765625 -0.3125 C 0.878906 -0.25 1.007812 -0.21875 1.15625 -0.21875 Z M 1.15625 -0.21875 "/></g></g><g style="fill:#ffffff;fill-opacity:1;"><g transform="translate(47.482377, 6.242864)"><path style="stroke:none" d="M 0.78125 0 L 0.453125 0 L 0.453125 -3.71875 L 0.78125 -3.71875 Z M 0.78125 0 "/></g></g><g style="fill:#ffffff;fill-opacity:1;"><g transform="translate(48.723726, 6.242864)"><path style="stroke:none" d=""/></g></g><g style="fill:#ffffff;fill-opacity:1;"><g transform="translate(49.955222, 6.242864)"><path style="stroke:none" d="M 1.0625 0.0625 C 0.9375 0.0625 0.8125 0.0390625 0.6875 0 C 0.570312 -0.0507812 0.472656 -0.128906 0.390625 -0.234375 C 0.304688 -0.347656 0.265625 -0.484375 0.265625 -0.640625 C 0.265625 -0.859375 0.335938 -1.023438 0.484375 -1.140625 C 0.628906 -1.253906 0.8125 -1.328125 1.03125 -1.359375 C 1.257812 -1.390625 1.539062 -1.40625 1.875 -1.40625 L 1.890625 -1.40625 L 1.890625 -1.484375 C 1.890625 -1.679688 1.835938 -1.828125 1.734375 -1.921875 C 1.628906 -2.023438 1.476562 -2.078125 1.28125 -2.078125 C 1.144531 -2.078125 1.015625 -2.050781 0.890625 -2 C 0.773438 -1.957031 0.675781 -1.894531 0.59375 -1.8125 L 0.40625 -2.03125 C 0.507812 -2.132812 0.640625 -2.210938 0.796875 -2.265625 C 0.953125 -2.328125 1.125 -2.359375 1.3125 -2.359375 C 1.476562 -2.359375 1.628906 -2.328125 1.765625 -2.265625 C 1.898438 -2.203125 2.003906 -2.109375 2.078125 -1.984375 C 2.160156 -1.859375 2.203125 -1.707031 2.203125 -1.53125 L 2.203125 -0.515625 C 2.203125 -0.421875 2.207031 -0.328125 2.21875 -0.234375 C 2.226562 -0.140625 2.238281 -0.0625 2.25 0 L 1.953125 0 C 1.929688 -0.132812 1.921875 -0.257812 1.921875 -0.375 L 1.90625 -0.375 C 1.800781 -0.21875 1.679688 -0.101562 1.546875 -0.03125 C 1.410156 0.03125 1.25 0.0625 1.0625 0.0625 Z M 1.15625 -0.21875 C 1.3125 -0.21875 1.441406 -0.25 1.546875 -0.3125 C 1.660156 -0.382812 1.742188 -0.476562 1.796875 -0.59375 C 1.859375 -0.707031 1.890625 -0.835938 1.890625 -0.984375 L 1.890625 -1.15625 L 1.796875 -1.15625 C 1.453125 -1.15625 1.164062 -1.117188 0.9375 -1.046875 C 0.71875 -0.984375 0.609375 -0.851562 0.609375 -0.65625 C 0.609375 -0.5 0.660156 -0.382812 0.765625 -0.3125 C 0.878906 -0.25 1.007812 -0.21875 1.15625 -0.21875 Z M 1.15625 -0.21875 "/></g></g><g style="fill:#ffffff;fill-opacity:1;"><g transform="translate(52.585706, 6.242864)"><path style="stroke:none" d="M 0.4375 -1.796875 C 0.4375 -1.992188 0.429688 -2.164062 0.421875 -2.3125 L 0.75 -2.3125 C 0.757812 -2.144531 0.765625 -2.007812 0.765625 -1.90625 C 0.816406 -2 0.878906 -2.078125 0.953125 -2.140625 C 1.035156 -2.210938 1.128906 -2.265625 1.234375 -2.296875 C 1.335938 -2.335938 1.445312 -2.359375 1.5625 -2.359375 C 1.84375 -2.359375 2.054688 -2.269531 2.203125 -2.09375 C 2.359375 -1.925781 2.4375 -1.695312 2.4375 -1.40625 L 2.4375 0 L 2.109375 0 L 2.109375 -1.28125 C 2.109375 -1.53125 2.0625 -1.722656 1.96875 -1.859375 C 1.875 -2.003906 1.710938 -2.078125 1.484375 -2.078125 C 1.359375 -2.078125 1.238281 -2.039062 1.125 -1.96875 C 1.019531 -1.90625 0.9375 -1.804688 0.875 -1.671875 C 0.8125 -1.546875 0.78125 -1.382812 0.78125 -1.1875 L 0.78125 0 L 0.4375 0 Z M 0.4375 -1.796875 "/></g></g><g style="fill:#ffffff;fill-opacity:1;"><g transform="translate(55.447708, 6.242864)"><path style="stroke:none" d="M 1.46875 0.0625 C 1.238281 0.0625 1.03125 0.0078125 0.84375 -0.09375 C 0.664062 -0.207031 0.523438 -0.351562 0.421875 -0.53125 C 0.328125 -0.71875 0.28125 -0.925781 0.28125 -1.15625 C 0.28125 -1.375 0.328125 -1.578125 0.421875 -1.765625 C 0.523438 -1.953125 0.664062 -2.097656 0.84375 -2.203125 C 1.03125 -2.304688 1.238281 -2.359375 1.46875 -2.359375 C 1.632812 -2.359375 1.796875 -2.316406 1.953125 -2.234375 C 2.109375 -2.160156 2.238281 -2.050781 2.34375 -1.90625 L 2.34375 -3.71875 L 2.6875 -3.71875 L 2.6875 0 L 2.34375 0 L 2.34375 -0.390625 C 2.238281 -0.242188 2.109375 -0.128906 1.953125 -0.046875 C 1.796875 0.0234375 1.632812 0.0625 1.46875 0.0625 Z M 1.5 -0.21875 C 1.664062 -0.21875 1.816406 -0.257812 1.953125 -0.34375 C 2.085938 -0.425781 2.191406 -0.535156 2.265625 -0.671875 C 2.347656 -0.816406 2.390625 -0.976562 2.390625 -1.15625 C 2.390625 -1.320312 2.347656 -1.472656 2.265625 -1.609375 C 2.191406 -1.753906 2.085938 -1.867188 1.953125 -1.953125 C 1.816406 -2.035156 1.664062 -2.078125 1.5 -2.078125 C 1.320312 -2.078125 1.164062 -2.035156 1.03125 -1.953125 C 0.90625 -1.867188 0.804688 -1.753906 0.734375 -1.609375 C 0.660156 -1.472656 0.625 -1.320312 0.625 -1.15625 C 0.625 -0.976562 0.660156 -0.816406 0.734375 -0.671875 C 0.804688 -0.535156 0.90625 -0.425781 1.03125 -0.34375 C 1.164062 -0.257812 1.320312 -0.21875 1.5 -0.21875 Z M 1.5 -0.21875 "/></g></g><g style="fill:#ffffff;fill-opacity:1;"><g transform="translate(58.590455, 6.242864)"><path style="stroke:none" d=""/></g></g><g style="fill:#ffffff;fill-opacity:1;"><g transform="translate(1.313332, 12.810812)"><path style="stroke:none" d="M 0.4375 1.1875 L 0.4375 -2.3125 L 0.78125 -2.3125 L 0.78125 -1.90625 L 0.796875 -1.90625 C 0.890625 -2.050781 1.015625 -2.160156 1.171875 -2.234375 C 1.328125 -2.316406 1.488281 -2.359375 1.65625 -2.359375 C 1.894531 -2.359375 2.101562 -2.304688 2.28125 -2.203125 C 2.457031 -2.097656 2.59375 -1.953125 2.6875 -1.765625 C 2.789062 -1.578125 2.84375 -1.375 2.84375 -1.15625 C 2.84375 -0.925781 2.789062 -0.71875 2.6875 -0.53125 C 2.59375 -0.351562 2.457031 -0.207031 2.28125 -0.09375 C 2.101562 0.0078125 1.894531 0.0625 1.65625 0.0625 C 1.488281 0.0625 1.328125 0.0234375 1.171875 -0.046875 C 1.015625 -0.128906 0.890625 -0.242188 0.796875 -0.390625 L 0.78125 -0.390625 L 0.78125 1.1875 Z M 1.625 -0.21875 C 1.800781 -0.21875 1.953125 -0.257812 2.078125 -0.34375 C 2.210938 -0.425781 2.316406 -0.535156 2.390625 -0.671875 C 2.460938 -0.816406 2.5 -0.976562 2.5 -1.15625 C 2.5 -1.320312 2.460938 -1.472656 2.390625 -1.609375 C 2.316406 -1.753906 2.210938 -1.867188 2.078125 -1.953125 C 1.953125 -2.035156 1.800781 -2.078125 1.625 -2.078125 C 1.457031 -2.078125 1.304688 -2.035156 1.171875 -1.953125 C 1.035156 -1.867188 0.925781 -1.753906 0.84375 -1.609375 C 0.769531 -1.472656 0.734375 -1.320312 0.734375 -1.15625 C 0.734375 -0.976562 0.769531 -0.816406 0.84375 -0.671875 C 0.925781 -0.535156 1.035156 -0.425781 1.171875 -0.34375 C 1.304688 -0.257812 1.457031 -0.21875 1.625 -0.21875 Z M 1.625 -0.21875 "/></g></g><g style="fill:#ffffff;fill-opacity:1;"><g transform="translate(4.44134, 12.810812)"><path style="stroke:none" d="M 0.4375 -1.796875 C 0.4375 -1.992188 0.429688 -2.164062 0.421875 -2.3125 L 0.75 -2.3125 C 0.757812 -2.144531 0.765625 -2.007812 0.765625 -1.90625 C 0.835938 -2.039062 0.9375 -2.148438 1.0625 -2.234375 C 1.195312 -2.316406 1.347656 -2.359375 1.515625 -2.359375 C 1.597656 -2.359375 1.671875 -2.351562 1.734375 -2.34375 L 1.6875 -2.015625 C 1.664062 -2.023438 1.628906 -2.03125 1.578125 -2.03125 C 1.535156 -2.039062 1.492188 -2.046875 1.453125 -2.046875 C 1.328125 -2.046875 1.210938 -2.015625 1.109375 -1.953125 C 1.003906 -1.890625 0.921875 -1.796875 0.859375 -1.671875 C 0.804688 -1.546875 0.78125 -1.382812 0.78125 -1.1875 L 0.78125 0 L 0.4375 0 Z M 0.4375 -1.796875 "/></g></g><g style="fill:#ffffff;fill-opacity:1;"><g transform="translate(6.214702, 12.810812)"><path style="stroke:none" d="M 1.5 0.0625 C 1.269531 0.0625 1.0625 0.0078125 0.875 -0.09375 C 0.6875 -0.195312 0.539062 -0.34375 0.4375 -0.53125 C 0.332031 -0.71875 0.28125 -0.925781 0.28125 -1.15625 C 0.28125 -1.382812 0.332031 -1.585938 0.4375 -1.765625 C 0.539062 -1.953125 0.6875 -2.097656 0.875 -2.203125 C 1.0625 -2.304688 1.269531 -2.359375 1.5 -2.359375 C 1.738281 -2.359375 1.953125 -2.304688 2.140625 -2.203125 C 2.328125 -2.097656 2.472656 -1.953125 2.578125 -1.765625 C 2.679688 -1.585938 2.734375 -1.382812 2.734375 -1.15625 C 2.734375 -0.925781 2.679688 -0.71875 2.578125 -0.53125 C 2.472656 -0.34375 2.328125 -0.195312 2.140625 -0.09375 C 1.953125 0.0078125 1.738281 0.0625 1.5 0.0625 Z M 1.5 -0.21875 C 1.675781 -0.21875 1.828125 -0.257812 1.953125 -0.34375 C 2.085938 -0.425781 2.191406 -0.535156 2.265625 -0.671875 C 2.335938 -0.816406 2.375 -0.976562 2.375 -1.15625 C 2.375 -1.320312 2.335938 -1.472656 2.265625 -1.609375 C 2.191406 -1.753906 2.085938 -1.867188 1.953125 -1.953125 C 1.828125 -2.035156 1.675781 -2.078125 1.5 -2.078125 C 1.320312 -2.078125 1.164062 -2.035156 1.03125 -1.953125 C 0.90625 -1.867188 0.804688 -1.753906 0.734375 -1.609375 C 0.660156 -1.472656 0.625 -1.320312 0.625 -1.15625 C 0.625 -0.976562 0.660156 -0.816406 0.734375 -0.671875 C 0.804688 -0.535156 0.90625 -0.425781 1.03125 -0.34375 C 1.164062 -0.257812 1.320312 -0.21875 1.5 -0.21875 Z M 1.5 -0.21875 "/></g></g><g style="fill:#ffffff;fill-opacity:1;"><g transform="translate(9.224483, 12.810812)"><path style="stroke:none" d="M 0.546875 0 L 0.546875 -2.03125 L 0.0625 -2.03125 L 0.0625 -2.3125 L 0.546875 -2.3125 L 0.546875 -2.9375 C 0.546875 -3.195312 0.609375 -3.398438 0.734375 -3.546875 C 0.867188 -3.703125 1.066406 -3.78125 1.328125 -3.78125 C 1.429688 -3.78125 1.519531 -3.769531 1.59375 -3.75 L 1.546875 -3.453125 C 1.460938 -3.472656 1.382812 -3.484375 1.3125 -3.484375 C 1.144531 -3.484375 1.03125 -3.429688 0.96875 -3.328125 C 0.90625 -3.222656 0.875 -3.078125 0.875 -2.890625 L 0.875 -2.3125 L 1.421875 -2.3125 L 1.421875 -2.03125 L 0.875 -2.03125 L 0.875 0 Z M 0.546875 0 "/></g></g><g style="fill:#ffffff;fill-opacity:1;"><g transform="translate(10.677651, 12.810812)"><path style="stroke:none" d="M 1.46875 0.0625 C 1.238281 0.0625 1.03125 0.0078125 0.84375 -0.09375 C 0.664062 -0.195312 0.523438 -0.34375 0.421875 -0.53125 C 0.328125 -0.71875 0.28125 -0.925781 0.28125 -1.15625 C 0.28125 -1.375 0.328125 -1.578125 0.421875 -1.765625 C 0.523438 -1.953125 0.664062 -2.097656 0.84375 -2.203125 C 1.019531 -2.304688 1.21875 -2.359375 1.4375 -2.359375 C 1.664062 -2.359375 1.863281 -2.304688 2.03125 -2.203125 C 2.195312 -2.109375 2.320312 -1.972656 2.40625 -1.796875 C 2.5 -1.628906 2.546875 -1.4375 2.546875 -1.21875 C 2.546875 -1.15625 2.539062 -1.101562 2.53125 -1.0625 L 0.625 -1.0625 C 0.625 -0.90625 0.660156 -0.765625 0.734375 -0.640625 C 0.804688 -0.515625 0.90625 -0.410156 1.03125 -0.328125 C 1.164062 -0.253906 1.3125 -0.21875 1.46875 -0.21875 C 1.625 -0.21875 1.769531 -0.253906 1.90625 -0.328125 C 2.039062 -0.410156 2.140625 -0.507812 2.203125 -0.625 L 2.453125 -0.421875 C 2.203125 -0.0976562 1.875 0.0625 1.46875 0.0625 Z M 2.203125 -1.328125 C 2.191406 -1.472656 2.15625 -1.601562 2.09375 -1.71875 C 2.039062 -1.832031 1.957031 -1.921875 1.84375 -1.984375 C 1.726562 -2.046875 1.59375 -2.078125 1.4375 -2.078125 C 1.289062 -2.078125 1.15625 -2.039062 1.03125 -1.96875 C 0.914062 -1.90625 0.820312 -1.816406 0.75 -1.703125 C 0.675781 -1.585938 0.632812 -1.460938 0.625 -1.328125 Z M 2.203125 -1.328125 "/></g></g><g style="fill:#ffffff;fill-opacity:1;"><g transform="translate(13.495319, 12.810812)"><path style="stroke:none" d="M 1.09375 0.0625 C 0.914062 0.0625 0.742188 0.0234375 0.578125 -0.046875 C 0.421875 -0.128906 0.289062 -0.242188 0.1875 -0.390625 L 0.453125 -0.578125 C 0.515625 -0.472656 0.601562 -0.382812 0.71875 -0.3125 C 0.832031 -0.25 0.957031 -0.21875 1.09375 -0.21875 C 1.25 -0.21875 1.378906 -0.25 1.484375 -0.3125 C 1.585938 -0.382812 1.640625 -0.488281 1.640625 -0.625 C 1.640625 -0.707031 1.613281 -0.773438 1.5625 -0.828125 C 1.507812 -0.878906 1.4375 -0.921875 1.34375 -0.953125 C 1.25 -0.992188 1.117188 -1.035156 0.953125 -1.078125 C 0.835938 -1.109375 0.734375 -1.140625 0.640625 -1.171875 C 0.546875 -1.210938 0.460938 -1.273438 0.390625 -1.359375 C 0.328125 -1.441406 0.296875 -1.550781 0.296875 -1.6875 C 0.296875 -1.84375 0.332031 -1.96875 0.40625 -2.0625 C 0.476562 -2.164062 0.578125 -2.238281 0.703125 -2.28125 C 0.828125 -2.332031 0.96875 -2.359375 1.125 -2.359375 C 1.28125 -2.359375 1.429688 -2.320312 1.578125 -2.25 C 1.734375 -2.175781 1.847656 -2.078125 1.921875 -1.953125 L 1.671875 -1.75 C 1.617188 -1.851562 1.539062 -1.929688 1.4375 -1.984375 C 1.34375 -2.046875 1.234375 -2.078125 1.109375 -2.078125 C 0.972656 -2.078125 0.851562 -2.046875 0.75 -1.984375 C 0.65625 -1.929688 0.609375 -1.84375 0.609375 -1.71875 C 0.609375 -1.613281 0.648438 -1.53125 0.734375 -1.46875 C 0.828125 -1.414062 0.972656 -1.367188 1.171875 -1.328125 C 1.441406 -1.273438 1.640625 -1.191406 1.765625 -1.078125 C 1.898438 -0.972656 1.96875 -0.832031 1.96875 -0.65625 C 1.96875 -0.488281 1.925781 -0.347656 1.84375 -0.234375 C 1.757812 -0.128906 1.648438 -0.0507812 1.515625 0 C 1.390625 0.0390625 1.25 0.0625 1.09375 0.0625 Z M 1.09375 0.0625 "/></g></g><g style="fill:#ffffff;fill-opacity:1;"><g transform="translate(15.682459, 12.810812)"><path style="stroke:none" d="M 1.09375 0.0625 C 0.914062 0.0625 0.742188 0.0234375 0.578125 -0.046875 C 0.421875 -0.128906 0.289062 -0.242188 0.1875 -0.390625 L 0.453125 -0.578125 C 0.515625 -0.472656 0.601562 -0.382812 0.71875 -0.3125 C 0.832031 -0.25 0.957031 -0.21875 1.09375 -0.21875 C 1.25 -0.21875 1.378906 -0.25 1.484375 -0.3125 C 1.585938 -0.382812 1.640625 -0.488281 1.640625 -0.625 C 1.640625 -0.707031 1.613281 -0.773438 1.5625 -0.828125 C 1.507812 -0.878906 1.4375 -0.921875 1.34375 -0.953125 C 1.25 -0.992188 1.117188 -1.035156 0.953125 -1.078125 C 0.835938 -1.109375 0.734375 -1.140625 0.640625 -1.171875 C 0.546875 -1.210938 0.460938 -1.273438 0.390625 -1.359375 C 0.328125 -1.441406 0.296875 -1.550781 0.296875 -1.6875 C 0.296875 -1.84375 0.332031 -1.96875 0.40625 -2.0625 C 0.476562 -2.164062 0.578125 -2.238281 0.703125 -2.28125 C 0.828125 -2.332031 0.96875 -2.359375 1.125 -2.359375 C 1.28125 -2.359375 1.429688 -2.320312 1.578125 -2.25 C 1.734375 -2.175781 1.847656 -2.078125 1.921875 -1.953125 L 1.671875 -1.75 C 1.617188 -1.851562 1.539062 -1.929688 1.4375 -1.984375 C 1.34375 -2.046875 1.234375 -2.078125 1.109375 -2.078125 C 0.972656 -2.078125 0.851562 -2.046875 0.75 -1.984375 C 0.65625 -1.929688 0.609375 -1.84375 0.609375 -1.71875 C 0.609375 -1.613281 0.648438 -1.53125 0.734375 -1.46875 C 0.828125 -1.414062 0.972656 -1.367188 1.171875 -1.328125 C 1.441406 -1.273438 1.640625 -1.191406 1.765625 -1.078125 C 1.898438 -0.972656 1.96875 -0.832031 1.96875 -0.65625 C 1.96875 -0.488281 1.925781 -0.347656 1.84375 -0.234375 C 1.757812 -0.128906 1.648438 -0.0507812 1.515625 0 C 1.390625 0.0390625 1.25 0.0625 1.09375 0.0625 Z M 1.09375 0.0625 "/></g></g><g style="fill:#ffffff;fill-opacity:1;"><g transform="translate(17.8696, 12.810812)"><path style="stroke:none" d="M 0.609375 -2.953125 C 0.546875 -2.953125 0.488281 -2.972656 0.4375 -3.015625 C 0.394531 -3.066406 0.375 -3.125 0.375 -3.1875 C 0.375 -3.25 0.394531 -3.300781 0.4375 -3.34375 C 0.488281 -3.394531 0.546875 -3.421875 0.609375 -3.421875 C 0.671875 -3.421875 0.722656 -3.394531 0.765625 -3.34375 C 0.816406 -3.300781 0.84375 -3.25 0.84375 -3.1875 C 0.84375 -3.125 0.816406 -3.066406 0.765625 -3.015625 C 0.722656 -2.972656 0.671875 -2.953125 0.609375 -2.953125 Z M 0.78125 0 L 0.453125 0 L 0.453125 -2.3125 L 0.78125 -2.3125 Z M 0.78125 0 "/></g></g><g style="fill:#ffffff;fill-opacity:1;"><g transform="translate(19.101096, 12.810812)"><path style="stroke:none" d="M 1.5 0.0625 C 1.269531 0.0625 1.0625 0.0078125 0.875 -0.09375 C 0.6875 -0.195312 0.539062 -0.34375 0.4375 -0.53125 C 0.332031 -0.71875 0.28125 -0.925781 0.28125 -1.15625 C 0.28125 -1.382812 0.332031 -1.585938 0.4375 -1.765625 C 0.539062 -1.953125 0.6875 -2.097656 0.875 -2.203125 C 1.0625 -2.304688 1.269531 -2.359375 1.5 -2.359375 C 1.738281 -2.359375 1.953125 -2.304688 2.140625 -2.203125 C 2.328125 -2.097656 2.472656 -1.953125 2.578125 -1.765625 C 2.679688 -1.585938 2.734375 -1.382812 2.734375 -1.15625 C 2.734375 -0.925781 2.679688 -0.71875 2.578125 -0.53125 C 2.472656 -0.34375 2.328125 -0.195312 2.140625 -0.09375 C 1.953125 0.0078125 1.738281 0.0625 1.5 0.0625 Z M 1.5 -0.21875 C 1.675781 -0.21875 1.828125 -0.257812 1.953125 -0.34375 C 2.085938 -0.425781 2.191406 -0.535156 2.265625 -0.671875 C 2.335938 -0.816406 2.375 -0.976562 2.375 -1.15625 C 2.375 -1.320312 2.335938 -1.472656 2.265625 -1.609375 C 2.191406 -1.753906 2.085938 -1.867188 1.953125 -1.953125 C 1.828125 -2.035156 1.675781 -2.078125 1.5 -2.078125 C 1.320312 -2.078125 1.164062 -2.035156 1.03125 -1.953125 C 0.90625 -1.867188 0.804688 -1.753906 0.734375 -1.609375 C 0.660156 -1.472656 0.625 -1.320312 0.625 -1.15625 C 0.625 -0.976562 0.660156 -0.816406 0.734375 -0.671875 C 0.804688 -0.535156 0.90625 -0.425781 1.03125 -0.34375 C 1.164062 -0.257812 1.320312 -0.21875 1.5 -0.21875 Z M 1.5 -0.21875 "/></g></g><g style="fill:#ffffff;fill-opacity:1;"><g transform="translate(22.110877, 12.810812)"><path style="stroke:none" d="M 0.4375 -1.796875 C 0.4375 -1.992188 0.429688 -2.164062 0.421875 -2.3125 L 0.75 -2.3125 C 0.757812 -2.144531 0.765625 -2.007812 0.765625 -1.90625 C 0.816406 -2 0.878906 -2.078125 0.953125 -2.140625 C 1.035156 -2.210938 1.128906 -2.265625 1.234375 -2.296875 C 1.335938 -2.335938 1.445312 -2.359375 1.5625 -2.359375 C 1.84375 -2.359375 2.054688 -2.269531 2.203125 -2.09375 C 2.359375 -1.925781 2.4375 -1.695312 2.4375 -1.40625 L 2.4375 0 L 2.109375 0 L 2.109375 -1.28125 C 2.109375 -1.53125 2.0625 -1.722656 1.96875 -1.859375 C 1.875 -2.003906 1.710938 -2.078125 1.484375 -2.078125 C 1.359375 -2.078125 1.238281 -2.039062 1.125 -1.96875 C 1.019531 -1.90625 0.9375 -1.804688 0.875 -1.671875 C 0.8125 -1.546875 0.78125 -1.382812 0.78125 -1.1875 L 0.78125 0 L 0.4375 0 Z M 0.4375 -1.796875 "/></g></g><g style="fill:#ffffff;fill-opacity:1;"><g transform="translate(24.972879, 12.810812)"><path style="stroke:none" d="M 1.0625 0.0625 C 0.9375 0.0625 0.8125 0.0390625 0.6875 0 C 0.570312 -0.0507812 0.472656 -0.128906 0.390625 -0.234375 C 0.304688 -0.347656 0.265625 -0.484375 0.265625 -0.640625 C 0.265625 -0.859375 0.335938 -1.023438 0.484375 -1.140625 C 0.628906 -1.253906 0.8125 -1.328125 1.03125 -1.359375 C 1.257812 -1.390625 1.539062 -1.40625 1.875 -1.40625 L 1.890625 -1.40625 L 1.890625 -1.484375 C 1.890625 -1.679688 1.835938 -1.828125 1.734375 -1.921875 C 1.628906 -2.023438 1.476562 -2.078125 1.28125 -2.078125 C 1.144531 -2.078125 1.015625 -2.050781 0.890625 -2 C 0.773438 -1.957031 0.675781 -1.894531 0.59375 -1.8125 L 0.40625 -2.03125 C 0.507812 -2.132812 0.640625 -2.210938 0.796875 -2.265625 C 0.953125 -2.328125 1.125 -2.359375 1.3125 -2.359375 C 1.476562 -2.359375 1.628906 -2.328125 1.765625 -2.265625 C 1.898438 -2.203125 2.003906 -2.109375 2.078125 -1.984375 C 2.160156 -1.859375 2.203125 -1.707031 2.203125 -1.53125 L 2.203125 -0.515625 C 2.203125 -0.421875 2.207031 -0.328125 2.21875 -0.234375 C 2.226562 -0.140625 2.238281 -0.0625 2.25 0 L 1.953125 0 C 1.929688 -0.132812 1.921875 -0.257812 1.921875 -0.375 L 1.90625 -0.375 C 1.800781 -0.21875 1.679688 -0.101562 1.546875 -0.03125 C 1.410156 0.03125 1.25 0.0625 1.0625 0.0625 Z M 1.15625 -0.21875 C 1.3125 -0.21875 1.441406 -0.25 1.546875 -0.3125 C 1.660156 -0.382812 1.742188 -0.476562 1.796875 -0.59375 C 1.859375 -0.707031 1.890625 -0.835938 1.890625 -0.984375 L 1.890625 -1.15625 L 1.796875 -1.15625 C 1.453125 -1.15625 1.164062 -1.117188 0.9375 -1.046875 C 0.71875 -0.984375 0.609375 -0.851562 0.609375 -0.65625 C 0.609375 -0.5 0.660156 -0.382812 0.765625 -0.3125 C 0.878906 -0.25 1.007812 -0.21875 1.15625 -0.21875 Z M 1.15625 -0.21875 "/></g></g><g style="fill:#ffffff;fill-opacity:1;"><g transform="translate(27.603363, 12.810812)"><path style="stroke:none" d="M 0.78125 0 L 0.453125 0 L 0.453125 -3.71875 L 0.78125 -3.71875 Z M 0.78125 0 "/></g></g><g style="fill:#ffffff;fill-opacity:1;"><g transform="translate(28.844712, 12.810812)"><path style="stroke:none" d=""/></g></g><g style="fill:#ffffff;fill-opacity:1;"><g transform="translate(30.076209, 12.810812)"><path style="stroke:none" d="M 1.5 0.0625 C 1.257812 0.0625 1.046875 0.0078125 0.859375 -0.09375 C 0.671875 -0.195312 0.523438 -0.34375 0.421875 -0.53125 C 0.328125 -0.71875 0.28125 -0.925781 0.28125 -1.15625 C 0.28125 -1.382812 0.328125 -1.585938 0.421875 -1.765625 C 0.523438 -1.953125 0.671875 -2.097656 0.859375 -2.203125 C 1.046875 -2.304688 1.257812 -2.359375 1.5 -2.359375 C 1.664062 -2.359375 1.828125 -2.320312 1.984375 -2.25 C 2.140625 -2.1875 2.265625 -2.09375 2.359375 -1.96875 L 2.109375 -1.78125 C 2.046875 -1.863281 1.960938 -1.929688 1.859375 -1.984375 C 1.753906 -2.046875 1.640625 -2.078125 1.515625 -2.078125 C 1.335938 -2.078125 1.179688 -2.035156 1.046875 -1.953125 C 0.910156 -1.878906 0.804688 -1.769531 0.734375 -1.625 C 0.660156 -1.476562 0.625 -1.320312 0.625 -1.15625 C 0.625 -0.976562 0.660156 -0.816406 0.734375 -0.671875 C 0.804688 -0.535156 0.910156 -0.425781 1.046875 -0.34375 C 1.179688 -0.257812 1.332031 -0.21875 1.5 -0.21875 C 1.769531 -0.21875 1.976562 -0.320312 2.125 -0.53125 L 2.375 -0.34375 C 2.164062 -0.0703125 1.875 0.0625 1.5 0.0625 Z M 1.5 0.0625 "/></g></g><g style="fill:#ffffff;fill-opacity:1;"><g transform="translate(32.539208, 12.810812)"><path style="stroke:none" d="M 1.5 0.0625 C 1.269531 0.0625 1.0625 0.0078125 0.875 -0.09375 C 0.6875 -0.195312 0.539062 -0.34375 0.4375 -0.53125 C 0.332031 -0.71875 0.28125 -0.925781 0.28125 -1.15625 C 0.28125 -1.382812 0.332031 -1.585938 0.4375 -1.765625 C 0.539062 -1.953125 0.6875 -2.097656 0.875 -2.203125 C 1.0625 -2.304688 1.269531 -2.359375 1.5 -2.359375 C 1.738281 -2.359375 1.953125 -2.304688 2.140625 -2.203125 C 2.328125 -2.097656 2.472656 -1.953125 2.578125 -1.765625 C 2.679688 -1.585938 2.734375 -1.382812 2.734375 -1.15625 C 2.734375 -0.925781 2.679688 -0.71875 2.578125 -0.53125 C 2.472656 -0.34375 2.328125 -0.195312 2.140625 -0.09375 C 1.953125 0.0078125 1.738281 0.0625 1.5 0.0625 Z M 1.5 -0.21875 C 1.675781 -0.21875 1.828125 -0.257812 1.953125 -0.34375 C 2.085938 -0.425781 2.191406 -0.535156 2.265625 -0.671875 C 2.335938 -0.816406 2.375 -0.976562 2.375 -1.15625 C 2.375 -1.320312 2.335938 -1.472656 2.265625 -1.609375 C 2.191406 -1.753906 2.085938 -1.867188 1.953125 -1.953125 C 1.828125 -2.035156 1.675781 -2.078125 1.5 -2.078125 C 1.320312 -2.078125 1.164062 -2.035156 1.03125 -1.953125 C 0.90625 -1.867188 0.804688 -1.753906 0.734375 -1.609375 C 0.660156 -1.472656 0.625 -1.320312 0.625 -1.15625 C 0.625 -0.976562 0.660156 -0.816406 0.734375 -0.671875 C 0.804688 -0.535156 0.90625 -0.425781 1.03125 -0.34375 C 1.164062 -0.257812 1.320312 -0.21875 1.5 -0.21875 Z M 1.5 -0.21875 "/></g></g><g style="fill:#ffffff;fill-opacity:1;"><g transform="translate(35.548989, 12.810812)"><path style="stroke:none" d="M 0.4375 -1.796875 C 0.4375 -1.992188 0.429688 -2.164062 0.421875 -2.3125 L 0.75 -2.3125 C 0.757812 -2.144531 0.765625 -2.007812 0.765625 -1.90625 C 0.816406 -2 0.878906 -2.078125 0.953125 -2.140625 C 1.035156 -2.210938 1.128906 -2.265625 1.234375 -2.296875 C 1.335938 -2.335938 1.445312 -2.359375 1.5625 -2.359375 C 1.84375 -2.359375 2.054688 -2.269531 2.203125 -2.09375 C 2.359375 -1.925781 2.4375 -1.695312 2.4375 -1.40625 L 2.4375 0 L 2.109375 0 L 2.109375 -1.28125 C 2.109375 -1.53125 2.0625 -1.722656 1.96875 -1.859375 C 1.875 -2.003906 1.710938 -2.078125 1.484375 -2.078125 C 1.359375 -2.078125 1.238281 -2.039062 1.125 -1.96875 C 1.019531 -1.90625 0.9375 -1.804688 0.875 -1.671875 C 0.8125 -1.546875 0.78125 -1.382812 0.78125 -1.1875 L 0.78125 0 L 0.4375 0 Z M 0.4375 -1.796875 "/></g></g><g style="fill:#ffffff;fill-opacity:1;"><g transform="translate(38.410991, 12.810812)"><path style="stroke:none" d="M 0.4375 -1.796875 C 0.4375 -1.992188 0.429688 -2.164062 0.421875 -2.3125 L 0.75 -2.3125 C 0.757812 -2.144531 0.765625 -2.007812 0.765625 -1.90625 C 0.816406 -2 0.878906 -2.078125 0.953125 -2.140625 C 1.035156 -2.210938 1.128906 -2.265625 1.234375 -2.296875 C 1.335938 -2.335938 1.445312 -2.359375 1.5625 -2.359375 C 1.84375 -2.359375 2.054688 -2.269531 2.203125 -2.09375 C 2.359375 -1.925781 2.4375 -1.695312 2.4375 -1.40625 L 2.4375 0 L 2.109375 0 L 2.109375 -1.28125 C 2.109375 -1.53125 2.0625 -1.722656 1.96875 -1.859375 C 1.875 -2.003906 1.710938 -2.078125 1.484375 -2.078125 C 1.359375 -2.078125 1.238281 -2.039062 1.125 -1.96875 C 1.019531 -1.90625 0.9375 -1.804688 0.875 -1.671875 C 0.8125 -1.546875 0.78125 -1.382812 0.78125 -1.1875 L 0.78125 0 L 0.4375 0 Z M 0.4375 -1.796875 "/></g></g><g style="fill:#ffffff;fill-opacity:1;"><g transform="translate(41.272993, 12.810812)"><path style="stroke:none" d="M 1.46875 0.0625 C 1.238281 0.0625 1.03125 0.0078125 0.84375 -0.09375 C 0.664062 -0.195312 0.523438 -0.34375 0.421875 -0.53125 C 0.328125 -0.71875 0.28125 -0.925781 0.28125 -1.15625 C 0.28125 -1.375 0.328125 -1.578125 0.421875 -1.765625 C 0.523438 -1.953125 0.664062 -2.097656 0.84375 -2.203125 C 1.019531 -2.304688 1.21875 -2.359375 1.4375 -2.359375 C 1.664062 -2.359375 1.863281 -2.304688 2.03125 -2.203125 C 2.195312 -2.109375 2.320312 -1.972656 2.40625 -1.796875 C 2.5 -1.628906 2.546875 -1.4375 2.546875 -1.21875 C 2.546875 -1.15625 2.539062 -1.101562 2.53125 -1.0625 L 0.625 -1.0625 C 0.625 -0.90625 0.660156 -0.765625 0.734375 -0.640625 C 0.804688 -0.515625 0.90625 -0.410156 1.03125 -0.328125 C 1.164062 -0.253906 1.3125 -0.21875 1.46875 -0.21875 C 1.625 -0.21875 1.769531 -0.253906 1.90625 -0.328125 C 2.039062 -0.410156 2.140625 -0.507812 2.203125 -0.625 L 2.453125 -0.421875 C 2.203125 -0.0976562 1.875 0.0625 1.46875 0.0625 Z M 2.203125 -1.328125 C 2.191406 -1.472656 2.15625 -1.601562 2.09375 -1.71875 C 2.039062 -1.832031 1.957031 -1.921875 1.84375 -1.984375 C 1.726562 -2.046875 1.59375 -2.078125 1.4375 -2.078125 C 1.289062 -2.078125 1.15625 -2.039062 1.03125 -1.96875 C 0.914062 -1.90625 0.820312 -1.816406 0.75 -1.703125 C 0.675781 -1.585938 0.632812 -1.460938 0.625 -1.328125 Z M 2.203125 -1.328125 "/></g></g><g style="fill:#ffffff;fill-opacity:1;"><g transform="translate(44.090661, 12.810812)"><path style="stroke:none" d="M 1.5 0.0625 C 1.257812 0.0625 1.046875 0.0078125 0.859375 -0.09375 C 0.671875 -0.195312 0.523438 -0.34375 0.421875 -0.53125 C 0.328125 -0.71875 0.28125 -0.925781 0.28125 -1.15625 C 0.28125 -1.382812 0.328125 -1.585938 0.421875 -1.765625 C 0.523438 -1.953125 0.671875 -2.097656 0.859375 -2.203125 C 1.046875 -2.304688 1.257812 -2.359375 1.5 -2.359375 C 1.664062 -2.359375 1.828125 -2.320312 1.984375 -2.25 C 2.140625 -2.1875 2.265625 -2.09375 2.359375 -1.96875 L 2.109375 -1.78125 C 2.046875 -1.863281 1.960938 -1.929688 1.859375 -1.984375 C 1.753906 -2.046875 1.640625 -2.078125 1.515625 -2.078125 C 1.335938 -2.078125 1.179688 -2.035156 1.046875 -1.953125 C 0.910156 -1.878906 0.804688 -1.769531 0.734375 -1.625 C 0.660156 -1.476562 0.625 -1.320312 0.625 -1.15625 C 0.625 -0.976562 0.660156 -0.816406 0.734375 -0.671875 C 0.804688 -0.535156 0.910156 -0.425781 1.046875 -0.34375 C 1.179688 -0.257812 1.332031 -0.21875 1.5 -0.21875 C 1.769531 -0.21875 1.976562 -0.320312 2.125 -0.53125 L 2.375 -0.34375 C 2.164062 -0.0703125 1.875 0.0625 1.5 0.0625 Z M 1.5 0.0625 "/></g></g><g style="fill:#ffffff;fill-opacity:1;"><g transform="translate(46.55366, 12.810812)"><path style="stroke:none" d="M 1.09375 0.03125 C 0.925781 0.03125 0.785156 -0.015625 0.671875 -0.109375 C 0.554688 -0.203125 0.5 -0.359375 0.5 -0.578125 L 0.5 -2.03125 L 0.015625 -2.03125 L 0.015625 -2.3125 L 0.5 -2.3125 L 0.5 -2.953125 L 0.828125 -2.953125 L 0.828125 -2.3125 L 1.484375 -2.3125 L 1.484375 -2.03125 L 0.828125 -2.03125 L 0.828125 -0.671875 C 0.828125 -0.515625 0.859375 -0.40625 0.921875 -0.34375 C 0.984375 -0.28125 1.066406 -0.25 1.171875 -0.25 C 1.222656 -0.25 1.269531 -0.253906 1.3125 -0.265625 C 1.363281 -0.285156 1.414062 -0.304688 1.46875 -0.328125 L 1.484375 -0.046875 C 1.359375 0.00390625 1.226562 0.03125 1.09375 0.03125 Z M 1.09375 0.03125 "/></g></g><g style="fill:#ffffff;fill-opacity:1;"><g transform="translate(48.115203, 12.810812)"><path style="stroke:none" d="M 0.609375 -2.953125 C 0.546875 -2.953125 0.488281 -2.972656 0.4375 -3.015625 C 0.394531 -3.066406 0.375 -3.125 0.375 -3.1875 C 0.375 -3.25 0.394531 -3.300781 0.4375 -3.34375 C 0.488281 -3.394531 0.546875 -3.421875 0.609375 -3.421875 C 0.671875 -3.421875 0.722656 -3.394531 0.765625 -3.34375 C 0.816406 -3.300781 0.84375 -3.25 0.84375 -3.1875 C 0.84375 -3.125 0.816406 -3.066406 0.765625 -3.015625 C 0.722656 -2.972656 0.671875 -2.953125 0.609375 -2.953125 Z M 0.78125 0 L 0.453125 0 L 0.453125 -2.3125 L 0.78125 -2.3125 Z M 0.78125 0 "/></g></g><g style="fill:#ffffff;fill-opacity:1;"><g transform="translate(49.346699, 12.810812)"><path style="stroke:none" d="M 1.5 0.0625 C 1.269531 0.0625 1.0625 0.0078125 0.875 -0.09375 C 0.6875 -0.195312 0.539062 -0.34375 0.4375 -0.53125 C 0.332031 -0.71875 0.28125 -0.925781 0.28125 -1.15625 C 0.28125 -1.382812 0.332031 -1.585938 0.4375 -1.765625 C 0.539062 -1.953125 0.6875 -2.097656 0.875 -2.203125 C 1.0625 -2.304688 1.269531 -2.359375 1.5 -2.359375 C 1.738281 -2.359375 1.953125 -2.304688 2.140625 -2.203125 C 2.328125 -2.097656 2.472656 -1.953125 2.578125 -1.765625 C 2.679688 -1.585938 2.734375 -1.382812 2.734375 -1.15625 C 2.734375 -0.925781 2.679688 -0.71875 2.578125 -0.53125 C 2.472656 -0.34375 2.328125 -0.195312 2.140625 -0.09375 C 1.953125 0.0078125 1.738281 0.0625 1.5 0.0625 Z M 1.5 -0.21875 C 1.675781 -0.21875 1.828125 -0.257812 1.953125 -0.34375 C 2.085938 -0.425781 2.191406 -0.535156 2.265625 -0.671875 C 2.335938 -0.816406 2.375 -0.976562 2.375 -1.15625 C 2.375 -1.320312 2.335938 -1.472656 2.265625 -1.609375 C 2.191406 -1.753906 2.085938 -1.867188 1.953125 -1.953125 C 1.828125 -2.035156 1.675781 -2.078125 1.5 -2.078125 C 1.320312 -2.078125 1.164062 -2.035156 1.03125 -1.953125 C 0.90625 -1.867188 0.804688 -1.753906 0.734375 -1.609375 C 0.660156 -1.472656 0.625 -1.320312 0.625 -1.15625 C 0.625 -0.976562 0.660156 -0.816406 0.734375 -0.671875 C 0.804688 -0.535156 0.90625 -0.425781 1.03125 -0.34375 C 1.164062 -0.257812 1.320312 -0.21875 1.5 -0.21875 Z M 1.5 -0.21875 "/></g></g><g style="fill:#ffffff;fill-opacity:1;"><g transform="translate(52.35648, 12.810812)"><path style="stroke:none" d="M 0.4375 -1.796875 C 0.4375 -1.992188 0.429688 -2.164062 0.421875 -2.3125 L 0.75 -2.3125 C 0.757812 -2.144531 0.765625 -2.007812 0.765625 -1.90625 C 0.816406 -2 0.878906 -2.078125 0.953125 -2.140625 C 1.035156 -2.210938 1.128906 -2.265625 1.234375 -2.296875 C 1.335938 -2.335938 1.445312 -2.359375 1.5625 -2.359375 C 1.84375 -2.359375 2.054688 -2.269531 2.203125 -2.09375 C 2.359375 -1.925781 2.4375 -1.695312 2.4375 -1.40625 L 2.4375 0 L 2.109375 0 L 2.109375 -1.28125 C 2.109375 -1.53125 2.0625 -1.722656 1.96875 -1.859375 C 1.875 -2.003906 1.710938 -2.078125 1.484375 -2.078125 C 1.359375 -2.078125 1.238281 -2.039062 1.125 -1.96875 C 1.019531 -1.90625 0.9375 -1.804688 0.875 -1.671875 C 0.8125 -1.546875 0.78125 -1.382812 0.78125 -1.1875 L 0.78125 0 L 0.4375 0 Z M 0.4375 -1.796875 "/></g></g><g style="fill:#ffffff;fill-opacity:1;"><g transform="translate(55.218483, 12.810812)"><path style="stroke:none" d="M 1.09375 0.0625 C 0.914062 0.0625 0.742188 0.0234375 0.578125 -0.046875 C 0.421875 -0.128906 0.289062 -0.242188 0.1875 -0.390625 L 0.453125 -0.578125 C 0.515625 -0.472656 0.601562 -0.382812 0.71875 -0.3125 C 0.832031 -0.25 0.957031 -0.21875 1.09375 -0.21875 C 1.25 -0.21875 1.378906 -0.25 1.484375 -0.3125 C 1.585938 -0.382812 1.640625 -0.488281 1.640625 -0.625 C 1.640625 -0.707031 1.613281 -0.773438 1.5625 -0.828125 C 1.507812 -0.878906 1.4375 -0.921875 1.34375 -0.953125 C 1.25 -0.992188 1.117188 -1.035156 0.953125 -1.078125 C 0.835938 -1.109375 0.734375 -1.140625 0.640625 -1.171875 C 0.546875 -1.210938 0.460938 -1.273438 0.390625 -1.359375 C 0.328125 -1.441406 0.296875 -1.550781 0.296875 -1.6875 C 0.296875 -1.84375 0.332031 -1.96875 0.40625 -2.0625 C 0.476562 -2.164062 0.578125 -2.238281 0.703125 -2.28125 C 0.828125 -2.332031 0.96875 -2.359375 1.125 -2.359375 C 1.28125 -2.359375 1.429688 -2.320312 1.578125 -2.25 C 1.734375 -2.175781 1.847656 -2.078125 1.921875 -1.953125 L 1.671875 -1.75 C 1.617188 -1.851562 1.539062 -1.929688 1.4375 -1.984375 C 1.34375 -2.046875 1.234375 -2.078125 1.109375 -2.078125 C 0.972656 -2.078125 0.851562 -2.046875 0.75 -1.984375 C 0.65625 -1.929688 0.609375 -1.84375 0.609375 -1.71875 C 0.609375 -1.613281 0.648438 -1.53125 0.734375 -1.46875 C 0.828125 -1.414062 0.972656 -1.367188 1.171875 -1.328125 C 1.441406 -1.273438 1.640625 -1.191406 1.765625 -1.078125 C 1.898438 -0.972656 1.96875 -0.832031 1.96875 -0.65625 C 1.96875 -0.488281 1.925781 -0.347656 1.84375 -0.234375 C 1.757812 -0.128906 1.648438 -0.0507812 1.515625 0 C 1.390625 0.0390625 1.25 0.0625 1.09375 0.0625 Z M 1.09375 0.0625 "/></g></g><g style="fill:#ffffff;fill-opacity:1;"><g transform="translate(57.405623, 12.810812)"><path style="stroke:none" d="M 0.640625 0.03125 C 0.566406 0.03125 0.503906 0.00390625 0.453125 -0.046875 C 0.398438 -0.0976562 0.375 -0.160156 0.375 -0.234375 C 0.375 -0.304688 0.398438 -0.367188 0.453125 -0.421875 C 0.503906 -0.472656 0.566406 -0.5 0.640625 -0.5 C 0.710938 -0.5 0.773438 -0.472656 0.828125 -0.421875 C 0.878906 -0.367188 0.90625 -0.304688 0.90625 -0.234375 C 0.90625 -0.160156 0.878906 -0.0976562 0.828125 -0.046875 C 0.773438 0.00390625 0.710938 0.03125 0.640625 0.03125 Z M 0.640625 0.03125 "/></g></g></g></g></g></svg>